<?xml version="1.0" encoding="UTF-8" standalone="no"?>
<!-- Created with Inkscape (http://www.inkscape.org/) -->
<svg xmlns:dc="http://purl.org/dc/elements/1.1/" xmlns:cc="http://creativecommons.org/ns#" xmlns:rdf="http://www.w3.org/1999/02/22-rdf-syntax-ns#" xmlns:svg="http://www.w3.org/2000/svg" xmlns="http://www.w3.org/2000/svg" xmlns:xlink="http://www.w3.org/1999/xlink" xmlns:sodipodi="http://sodipodi.sourceforge.net/DTD/sodipodi-0.dtd" xmlns:inkscape="http://www.inkscape.org/namespaces/inkscape" width="127.98325" height="26.243481" id="svg142446" version="1.1" inkscape:version="0.48.0 r9654" sodipodi:docname="New document 38">
  <defs id="defs142448">
    <linearGradient inkscape:collect="always" xlink:href="#linearGradient76654-2-7-12-7-2" id="linearGradient150270" gradientUnits="userSpaceOnUse" gradientTransform="matrix(1.0447673,0,0,1.633851,-14.364864,-5127.8395)" x1="491.4574" y1="8005.355" x2="471.42123" y2="8002.9468"/>
    <linearGradient id="linearGradient76654-2-7-12-7-2">
      <stop style="stop-color:#000000;stop-opacity:1;" offset="0" id="stop76656-2-2-03-3-0"/>
      <stop id="stop76664-9-25-1-90-3" offset="0.35685185" style="stop-color:#bbbbbb;stop-opacity:1;"/>
      <stop style="stop-color:#000000;stop-opacity:1;" offset="1" id="stop76658-9-5-4-9-0"/>
    </linearGradient>
    <inkscape:path-effect effect="spiro" id="path-effect45434-5-9-6-8" is_visible="true"/>
    <inkscape:path-effect effect="spiro" id="path-effect45430-8-4-4-3" is_visible="true"/>
    <linearGradient inkscape:collect="always" xlink:href="#linearGradient42443-7-46-9-5" id="linearGradient150272" gradientUnits="userSpaceOnUse" gradientTransform="matrix(1.0539569,0,0,1.6424083,-20.375326,-5196.8227)" x1="364.44846" y1="8003.1118" x2="393.69363" y2="8012.6118"/>
    <linearGradient id="linearGradient42443-7-46-9-5">
      <stop id="stop42445-53-9-36-2" offset="0" style="stop-color:#000000;stop-opacity:1;"/>
      <stop style="stop-color:#bbbbbb;stop-opacity:1;" offset="0.3702293" id="stop42447-0-7-3-7"/>
      <stop id="stop42449-3-8-96-2" offset="1" style="stop-color:#000000;stop-opacity:1;"/>
    </linearGradient>
    <inkscape:path-effect is_visible="true" id="path-effect45449-51-0-22-5" effect="spiro"/>
    <inkscape:path-effect is_visible="true" id="path-effect45451-306-1-9-9" effect="spiro"/>
    <linearGradient inkscape:collect="always" xlink:href="#linearGradient48206-5-1-5-8" id="linearGradient150274" gradientUnits="userSpaceOnUse" gradientTransform="matrix(1.0539569,0,-0.02945495,1.0535452,-19.316631,-491.54306)" x1="675.60059" y1="8005.3086" x2="675.54651" y2="7999.9312"/>
    <linearGradient id="linearGradient48206-5-1-5-8">
      <stop style="stop-color:#ffffff;stop-opacity:1;" offset="0" id="stop48208-6-4-7-3"/>
      <stop style="stop-color:#27343c;stop-opacity:1;" offset="1" id="stop48210-0-9-7-2"/>
    </linearGradient>
    <linearGradient inkscape:collect="always" xlink:href="#linearGradient46818-2-4-4-0" id="linearGradient150276" gradientUnits="userSpaceOnUse" gradientTransform="matrix(1.0539569,0,0,1.0539569,-28.178793,-491.62295)" x1="596.23846" y1="8003.4058" x2="596.36462" y2="8010.4072"/>
    <linearGradient inkscape:collect="always" id="linearGradient46818-2-4-4-0">
      <stop style="stop-color:#333333;stop-opacity:1;" offset="0" id="stop46820-7-7-9-8"/>
      <stop style="stop-color:#333333;stop-opacity:0;" offset="1" id="stop46822-37-5-9-2"/>
    </linearGradient>
  </defs>
  <sodipodi:namedview id="base" pagecolor="#ffffff" bordercolor="#666666" borderopacity="1.0" inkscape:pageopacity="0.0" inkscape:pageshadow="2" inkscape:zoom="0.35" inkscape:cx="118.98665" inkscape:cy="-12.592174" inkscape:document-units="px" inkscape:current-layer="layer1" showgrid="false" fit-margin-top="0" fit-margin-left="0" fit-margin-right="0" fit-margin-bottom="0" inkscape:window-width="471" inkscape:window-height="431" inkscape:window-x="88" inkscape:window-y="116" inkscape:window-maximized="0"/>
  <metadata id="metadata142451">
    <rdf:RDF>
      <cc:Work rdf:about="">
        <dc:format>image/svg+xml</dc:format>
        <dc:type rdf:resource="http://purl.org/dc/dcmitype/StillImage"/>
        <dc:title/>
      </cc:Work>
    </rdf:RDF>
  </metadata>
  <g inkscape:label="Layer 1" inkscape:groupmode="layer" id="layer1" transform="translate(-256.01335,-493.52653)">
    <g style="display:inline" id="g149942" transform="matrix(1.0266398,0,0,1.0266398,-112.96436,-7650.9995)">
      <g id="g149944">
        <path sodipodi:nodetypes="ccccc" id="path149948" style="fill:#3e424b;fill-opacity:1;fill-rule:nonzero;stroke:#7b7b7b;stroke-width:1.13534141;stroke-opacity:1" d="m 365.73279,7933.7677 112.24079,0 0,24.4014 -112.24079,0 z" inkscape:connector-curvature="0"/>
        <path style="fill:url(#linearGradient150270);fill-opacity:1;fill-rule:nonzero;stroke:#000000;stroke-width:0.39195597;stroke-miterlimit:4;stroke-dasharray:none" d="m 477.26393,7933.7756 c -0.73528,0 -1.35533,1.2499 -1.40322,2.802 l -0.59912,18.9466 c -0.0479,1.5525 0.51027,2.8023 1.24555,2.8023 l 5.36059,0 c 0.73528,0 1.35537,-1.2498 1.40322,-2.8023 l 0.14189,-4.5695 -0.81986,-0.2011 0,-8.7728 1.10366,0.2335 0.17343,-5.6375 c 0.0479,-1.5524 -0.51028,-2.8018 -1.24555,-2.8018 l -5.36059,0 z m 2.63299,9.1732 c 0.23329,0.022 0.4123,0.8455 0.39416,1.8346 -0.0181,0.9894 -0.22393,1.7539 -0.45722,1.7347 -0.23329,-0.022 -0.39652,-0.812 -0.37839,-1.8013 0.018,-0.989 0.20817,-1.7871 0.44145,-1.768 z" id="path149950" inkscape:connector-curvature="0"/>
        <path style="fill:#808080;fill-opacity:1;stroke:none" d="m 479.319,7936.2627 1.08052,-0.1193 1.31825,2.7539 -0.31436,18.5537 -1.08508,0.201 -1.52263,-3.2866 0.89765,-0.082 0.6647,0.7834 0.28516,-15.9111 -1.32421,-2.893" id="path149952" inkscape:path-effect="#path-effect45434-5-9-6-8" inkscape:original-d="m 479.319,7936.2627 c 0.0595,-1.277 0.4262,-0.8523 1.08052,-0.1193 l 1.31825,2.7539 -0.31436,18.5537 c -0.2953,1.0112 -0.6593,0.4535 -1.08508,0.201 l -1.52263,-3.2866 c 0.30985,-0.8467 0.39156,-0.416 0.89765,-0.082 l 0.6647,0.7834 0.28516,-15.9111 z" inkscape:connector-curvature="0" sodipodi:nodetypes="cccccccccc"/>
        <path style="fill:#4d4d4d;fill-opacity:1;stroke:none" d="m 479.25225,7940.2333 0.98975,1.5497 -0.23247,13.7201 -1.21374,-1.1333 -0.0365,2.2264 1.56528,1.0592 0.34607,-18.5778 -1.35691,-2.817 -0.0615,3.9727" id="path149954" inkscape:path-effect="#path-effect45430-8-4-4-3" inkscape:original-d="m 479.25225,7940.2333 0.98975,1.5497 -0.23247,13.7201 -1.21374,-1.1333 -0.0365,2.2264 1.56528,1.0592 0.34607,-18.5778 -1.35691,-2.817 z" inkscape:connector-curvature="0" sodipodi:nodetypes="ccccccccc"/>
        <path inkscape:connector-curvature="0" d="m 365.73255,7933.7675 73.30554,0 0,24.4019 -73.30554,0 z" style="fill:#474f51;fill-opacity:1;fill-rule:nonzero;stroke:#848484;stroke-width:1.13487971;stroke-opacity:1" id="path149956" sodipodi:nodetypes="ccccc"/>
        <path inkscape:connector-curvature="0" id="path149958" d="m 366.18898,7933.5725 c 0.74177,0 1.36728,1.2559 1.41558,2.8167 l 0.60441,19.046 c 0.0482,1.5605 -0.51478,2.8167 -1.25653,2.8167 l -5.40779,0 c -0.74173,0 -1.36732,-1.2562 -1.41557,-2.8167 l -0.14315,-4.5936 0.82707,-0.2023 0,-8.8187 -1.11336,0.2344 -0.17495,-5.6667 c -0.0483,-1.5605 0.51476,-2.8167 1.2565,-2.8167 l 5.40779,0 z m -2.65617,9.2213 c -0.23534,0.022 -0.41593,0.8499 -0.39764,1.8444 0.0183,0.9944 0.22592,1.7626 0.46126,1.7436 0.23534,-0.022 0.40002,-0.8167 0.38173,-1.8109 -0.0183,-0.9945 -0.21002,-1.7965 -0.44535,-1.7771 z" style="fill:url(#linearGradient150272);fill-opacity:1;fill-rule:nonzero;stroke:#000000;stroke-width:0.26313704;stroke-miterlimit:4;stroke-dasharray:none"/>
        <path sodipodi:nodetypes="cccccccccc" inkscape:connector-curvature="0" inkscape:original-d="m 364.11582,7936.0726 c -0.0599,-1.2843 -0.42995,-0.8571 -1.09002,-0.12 l -1.32988,2.7683 0.31715,18.651 c 0.29789,1.0167 0.66511,0.4561 1.09461,0.2023 l 1.53604,-3.304 c -0.31257,-0.8507 -0.39501,-0.4181 -0.90554,-0.083 l -0.67055,0.7876 -0.28768,-15.9947 z" inkscape:path-effect="#path-effect45449-51-0-22-5" id="path149960" d="m 364.11582,7936.0726 -1.09002,-0.12 -1.32988,2.7683 0.31715,18.651 1.09461,0.2023 1.53604,-3.304 -0.90554,-0.083 -0.67055,0.7876 -0.28768,-15.9947 1.33587,-2.9075" style="fill:#808080;stroke:none"/>
        <path sodipodi:nodetypes="ccccccccc" inkscape:connector-curvature="0" inkscape:original-d="m 364.18316,7940.0639 -0.99847,1.5579 0.23453,13.7921 1.22442,-1.1395 0.0368,2.2384 -1.57905,1.0648 -0.34911,-18.6754 1.36887,-2.832 z" inkscape:path-effect="#path-effect45451-306-1-9-9" id="path149962" d="m 364.18316,7940.0639 -0.99847,1.5579 0.23453,13.7921 1.22442,-1.1395 0.0368,2.2384 -1.57905,1.0648 -0.34911,-18.6754 1.36887,-2.832 0.062,3.9937" style="fill:#4d4d4d;stroke:none"/>
        <path id="path149964" style="fill:#808080;fill-opacity:1;stroke:#000000;stroke-width:0.42910308" d="m 369.46174,7950.056 29.46876,0.048 0.17837,6.2378 -29.40061,-0.046 z" inkscape:connector-curvature="0" sodipodi:nodetypes="ccccc"/>
        <path style="fill:#000000;stroke:none" d="m 372.69366,7951.684 7.1891,0 0,0.7235 -7.1891,0 z" id="path149966" inkscape:connector-curvature="0"/>
        <path style="fill:#000000;stroke:none" d="m 390.39286,7951.5518 0,3.2108 3.05379,0 0,-2.762 0,-0.2376 0,-0.2112 -1.39965,0 0.71572,0.012 -0.0159,0.1023 0,2.9845 -1.00203,0 -0.0159,0.091 -0.65211,0 0,-0.091 0,-2.9845 0.95431,0 0.0159,-0.1131 z" id="path149968" inkscape:connector-curvature="0" sodipodi:nodetypes="cccccccccccccccccc"/>
        <path id="path149970" d="m 381.2188,7951.684 7.1891,0 0,0.7235 -7.1891,0 z" style="fill:#000000;stroke:none" inkscape:connector-curvature="0"/>
        <path id="path149972" d="m 372.89723,7953.0406 7.18911,0 0,0.4071 -7.18911,0 z" style="fill:#000000;stroke:none" inkscape:connector-curvature="0"/>
        <path inkscape:connector-curvature="0" style="fill:#000000;stroke:none" d="m 381.42237,7953.0406 7.18912,0 0,0.4071 -7.18912,0 z" id="path149974"/>
        <path inkscape:connector-curvature="0" style="fill:#000000;stroke:none" d="m 373.04993,7954.126 7.18911,0 0,0.407 -7.18911,0 z" id="path149976"/>
        <path id="path149978" d="m 381.57507,7954.126 7.18912,0 0,0.407 -7.18912,0 z" style="fill:#000000;stroke:none" inkscape:connector-curvature="0"/>
        <path id="path149980" d="m 373.10082,7955.1662 7.18912,0 0,0.4069 -7.18912,0 z" style="fill:#000000;stroke:none" inkscape:connector-curvature="0"/>
        <path inkscape:connector-curvature="0" style="fill:#000000;stroke:none" d="m 381.62597,7955.1662 7.18911,0 0,0.4069 -7.18911,0 z" id="path149982"/>
        <path id="path149984" d="m 390.27835,7955.1662 7.18912,0 0,0.4069 -7.18912,0 z" style="fill:#000000;stroke:none" inkscape:connector-curvature="0"/>
        <path id="path149986" style="fill:#000000;stroke:none" d="m 369.46174,7951.0961 0.89068,0 c 0,0 0.2474,2.2637 0.37106,3.3957 0.005,0.041 0.31778,0.044 0.62178,0.079 0.078,0.011 0.006,-1.1937 -0.0344,-2.2881 -0.0189,-0.4991 -0.0885,-1.2121 -0.0591,-1.5205 2.80269,-0.051 21.67587,-0.01 24.40467,0 0.0162,0.2886 0.0172,0.2219 0.009,0.3166 -0.99487,0.011 -23.89633,-0.01 -23.88279,0 0.1428,1.3782 0.0747,3.5776 0.20311,4.6307 -0.79906,-0.014 -1.24072,0.044 -2.01589,0.044 z" inkscape:connector-curvature="0" sodipodi:nodetypes="ccsssccccccc"/>
        <path id="path149988" style="fill:#ffffff;fill-opacity:1;fill-rule:nonzero;stroke:#808080;stroke-width:0.39020622" d="m 401.13052,7935.9363 0.47457,-0.011 c 0.24733,-0.011 0.46443,0.131 0.48672,0.3059 l 0.031,0.2425 c 0.0223,0.175 -0.15884,0.3201 -0.40618,0.3255 l -0.47457,0.011 c -0.24735,0.01 -0.46445,-0.131 -0.48677,-0.306 l -0.0309,-0.2425 c -0.0223,-0.1748 0.15885,-0.32 0.4062,-0.3253 z" inkscape:connector-curvature="0"/>
        <path id="path149990" style="fill:#ffffff;fill-opacity:1;fill-rule:nonzero;stroke:#808080;stroke-width:0.39020622" d="m 403.83999,7935.8775 0.47457,-0.011 c 0.24735,-0.01 0.46444,0.1311 0.48676,0.3059 l 0.0309,0.2425 c 0.0222,0.1749 -0.15886,0.3201 -0.40621,0.3255 l -0.47456,0.01 c -0.24734,0.011 -0.46444,-0.1311 -0.48675,-0.3061 l -0.031,-0.2425 c -0.0223,-0.1748 0.15886,-0.32 0.40621,-0.3252 z" inkscape:connector-curvature="0"/>
        <path d="m 401.17662,7938.0611 0.47457,-0.01 c 0.24734,-0.011 0.46444,0.1313 0.48673,0.306 l 0.031,0.2426 c 0.0223,0.1747 -0.15884,0.32 -0.40619,0.3254 l -0.47457,0.011 c -0.24735,0 -0.46445,-0.1312 -0.48677,-0.3061 l -0.0309,-0.2425 c -0.0223,-0.1747 0.15885,-0.3201 0.40621,-0.3254 z" style="fill:#ffffff;fill-opacity:1;fill-rule:nonzero;stroke:#808080;stroke-width:0.39020622" id="path149992" inkscape:connector-curvature="0"/>
        <path d="m 403.88609,7938.0023 0.47458,-0.01 c 0.24734,-0.011 0.46443,0.1313 0.48675,0.3061 l 0.0309,0.2425 c 0.0222,0.1748 -0.15886,0.32 -0.4062,0.3253 l -0.47457,0.011 c -0.24734,0.011 -0.46444,-0.1312 -0.48674,-0.3061 l -0.031,-0.2425 c -0.0223,-0.1748 0.15885,-0.32 0.4062,-0.3254 z" style="fill:#ffffff;fill-opacity:1;fill-rule:nonzero;stroke:#808080;stroke-width:0.39020622" id="path149994" inkscape:connector-curvature="0"/>
        <path inkscape:connector-curvature="0" id="path149996" style="fill:#ffffff;fill-opacity:1;fill-rule:nonzero;stroke:#808080;stroke-width:0.39020622" d="m 401.22664,7940.3668 0.47458,-0.011 c 0.24733,-0.01 0.46443,0.1312 0.48674,0.3061 l 0.031,0.2424 c 0.0224,0.1751 -0.15883,0.3203 -0.40618,0.3257 l -0.47457,0.011 c -0.24735,0.011 -0.46444,-0.1311 -0.48677,-0.3061 l -0.0309,-0.2424 c -0.0223,-0.175 0.15885,-0.3202 0.4062,-0.3256 z"/>
        <path inkscape:connector-curvature="0" id="path149998" style="fill:#ffffff;fill-opacity:1;fill-rule:nonzero;stroke:#808080;stroke-width:0.39020622" d="m 403.93612,7940.3081 0.47457,-0.011 c 0.24735,-0.011 0.46443,0.1313 0.48676,0.3061 l 0.0309,0.2425 c 0.0222,0.175 -0.15885,0.3202 -0.4062,0.3256 l -0.47457,0.01 c -0.24733,0.011 -0.46444,-0.1312 -0.48675,-0.3062 l -0.031,-0.2425 c -0.0223,-0.1749 0.15884,-0.32 0.4062,-0.3254 z"/>
        <path sodipodi:nodetypes="ccccc" inkscape:connector-curvature="0" d="m 406.58427,7935.4865 29.32904,-0.045 0.0637,6.3309 -29.20179,0 z" style="fill:#808080;fill-opacity:1;stroke:#000000;stroke-width:0.42910308" id="path150000"/>
        <path inkscape:connector-curvature="0" id="path150002" d="m 409.8162,7937.1146 7.1891,0 0,0.7235 -7.1891,0 z" style="fill:#000000;stroke:none" sodipodi:nodetypes="ccccc"/>
        <path id="path150004" d="m 427.5154,7936.9824 0,3.2108 3.05379,0 0,-3.2108 -1.39965,0 0.71574,0.012 -0.0159,0.1023 0,2.9844 -1.00201,0 -0.0159,0.091 -0.65211,0 0,-0.091 0,-2.9844 0.9543,0 0.0159,-0.1132 -1.65414,0 z" style="fill:#000000;stroke:none" inkscape:connector-curvature="0" sodipodi:nodetypes="ccccccccccccccccc"/>
        <path inkscape:connector-curvature="0" style="fill:#000000;stroke:none" d="m 418.34134,7937.1146 7.1891,0 0,0.7235 -7.1891,0 z" id="path150006" sodipodi:nodetypes="ccccc"/>
        <path inkscape:connector-curvature="0" style="fill:#000000;stroke:none" d="m 410.01977,7938.4712 7.18913,0 0,0.4071 -7.18913,0 z" id="path150008" sodipodi:nodetypes="ccccc"/>
        <path id="path150010" d="m 418.54491,7938.4712 7.18913,0 0,0.4071 -7.18913,0 z" style="fill:#000000;stroke:none" inkscape:connector-curvature="0" sodipodi:nodetypes="ccccc"/>
        <path id="path150012" d="m 410.17247,7939.5566 7.18911,0 0,0.407 -7.18911,0 z" style="fill:#000000;stroke:none" inkscape:connector-curvature="0" sodipodi:nodetypes="ccccc"/>
        <path inkscape:connector-curvature="0" style="fill:#000000;stroke:none" d="m 418.69761,7939.5566 7.18911,0 0,0.407 -7.18911,0 z" id="path150014" sodipodi:nodetypes="ccccc"/>
        <path inkscape:connector-curvature="0" style="fill:#000000;stroke:none" d="m 410.22338,7940.5968 7.1891,0 0,0.4069 -7.1891,0 z" id="path150016" sodipodi:nodetypes="ccccc"/>
        <path id="path150018" d="m 418.74852,7940.5968 7.1891,0 0,0.4069 -7.1891,0 z" style="fill:#000000;stroke:none" inkscape:connector-curvature="0" sodipodi:nodetypes="ccccc"/>
        <path inkscape:connector-curvature="0" style="fill:#000000;stroke:none" d="m 427.40089,7940.5968 7.18911,0 0,0.4069 -7.18911,0 z" id="path150020" sodipodi:nodetypes="ccccc"/>
        <path sodipodi:nodetypes="ccsssccccccc" inkscape:connector-curvature="0" d="m 406.58427,7936.5267 0.89069,0 c 0,0 0.2474,2.2637 0.37106,3.3957 0.005,0.041 0.31779,0.044 0.62179,0.079 0.078,0.011 0.006,-1.1937 -0.0344,-2.2881 -0.0189,-0.4991 -0.0885,-1.2121 -0.059,-1.5205 2.80269,-0.051 21.67587,-0.01 24.40467,0 0.0162,0.2886 0.0172,0.2219 0.009,0.3166 -0.99487,0.011 -23.89633,-0.01 -23.88279,0 0.1428,1.3782 0.0747,3.5776 0.20311,4.6307 -0.79906,-0.014 -1.62243,0.044 -2.39761,0.044 z" style="fill:#000000;stroke:none" id="path150022"/>
        <path id="path150024" style="fill:#333333;fill-opacity:1;fill-rule:nonzero;stroke:none" d="m 394.22384,7951.5327 0,0.4637 2.11414,0 0.0159,0.78 0.513,0 -0.003,-0.7793 0,-0.4635 z" inkscape:connector-curvature="0" sodipodi:nodetypes="cccccccc"/>
        <path sodipodi:nodetypes="cccccccc" inkscape:connector-curvature="0" d="m 394.22392,7954.7662 0,-0.4635 2.11402,0 0.0159,-0.7801 0.51296,0 -0.003,0.7793 0,0.4634 z" style="fill:#333333;fill-opacity:1;fill-rule:nonzero;stroke:none" id="path150026"/>
        <path sodipodi:nodetypes="cccccccc" inkscape:connector-curvature="0" d="m 431.17483,7936.9633 0,0.4637 2.11414,0 0.0159,0.78 0.513,0 -0.003,-0.7793 0,-0.4635 z" style="fill:#333333;fill-opacity:1;fill-rule:nonzero;stroke:none" id="path150028"/>
        <path id="path150030" style="fill:#333333;fill-opacity:1;fill-rule:nonzero;stroke:none" d="m 431.1749,7940.1968 0,-0.4635 2.11403,0 0.0159,-0.7801 0.51296,0 -0.003,0.7793 0,0.4634 z" inkscape:connector-curvature="0" sodipodi:nodetypes="cccccccc"/>
        <path inkscape:connector-curvature="0" d="m 441.70238,7936.6931 31.74661,0 -0.11348,4.0591 -31.74662,0 z" style="fill:url(#linearGradient150274);fill-opacity:1;stroke:#1a1a1a;stroke-width:0.50041842" id="path150032"/>
        <g transform="matrix(0.14942814,0,-0.03044284,0.12343177,389.80533,6871.1352)" style="font-size:11.09256554px;font-style:normal;font-variant:normal;font-weight:normal;font-stretch:normal;line-height:125%;letter-spacing:0px;word-spacing:0px;fill:#ffffff;fill-opacity:1;stroke:none;font-family:Arial;-inkscape-font-specification:Arial" id="g150034">
          <path id="path150036" style="font-weight:bold;fill:#ffffff;-inkscape-font-specification:Arial Bold" d="m 2304.2619,8640.1281 2.9302,0 c 0.6608,0 1.1645,0.05 1.5111,0.1516 0.4658,0.1373 0.8648,0.381 1.197,0.7312 0.3322,0.3503 0.585,0.7791 0.7583,1.2864 0.1733,0.5073 0.26,1.1329 0.26,1.8767 0,0.6536 -0.081,1.2169 -0.2437,1.6899 -0.1986,0.5778 -0.4821,1.0454 -0.8504,1.4028 -0.278,0.2709 -0.6536,0.4821 -1.1266,0.6338 -0.3538,0.1119 -0.8269,0.1679 -1.419,0.1679 l -3.0169,0 z m 1.6032,1.3432 0,5.2592 1.197,0 c 0.4477,0 0.7709,-0.025 0.9695,-0.076 0.26,-0.065 0.4757,-0.1751 0.6473,-0.3304 0.1715,-0.1553 0.3114,-0.4107 0.4197,-0.7664 0.1083,-0.3557 0.1625,-0.8404 0.1625,-1.4543 0,-0.6138 -0.054,-1.085 -0.1625,-1.4136 -0.1083,-0.3286 -0.26,-0.585 -0.4549,-0.7691 -0.195,-0.1842 -0.4424,-0.3088 -0.7421,-0.3738 -0.2239,-0.05 -0.6626,-0.076 -1.3161,-0.076 z m -6.9816,6.5971 -2.8381,-7.9403 1.7386,0 2.0094,5.8767 1.9445,-5.8767 1.7007,0 -2.8436,7.9403 z m -10.0472,-7.9403 2.9302,0 c 0.6608,0 1.1645,0.05 1.5111,0.1516 0.4658,0.1373 0.8648,0.381 1.197,0.7312 0.3322,0.3503 0.585,0.7791 0.7583,1.2864 0.1733,0.5073 0.26,1.1329 0.26,1.8767 0,0.6536 -0.081,1.2169 -0.2437,1.6899 -0.1986,0.5778 -0.4821,1.0454 -0.8504,1.4028 -0.278,0.2709 -0.6536,0.4821 -1.1266,0.6338 -0.3538,0.1119 -0.8269,0.1679 -1.419,0.1679 l -3.0169,0 z m 1.6032,1.3432 0,5.2592 1.197,0 c 0.4477,0 0.7709,-0.025 0.9695,-0.076 0.26,-0.065 0.4757,-0.1751 0.6473,-0.3304 0.1715,-0.1553 0.3114,-0.4107 0.4197,-0.7664 0.1083,-0.3557 0.1625,-0.8404 0.1625,-1.4543 0,-0.6138 -0.054,-1.085 -0.1625,-1.4136 -0.1083,-0.3286 -0.26,-0.585 -0.4549,-0.7691 -0.195,-0.1842 -0.4424,-0.3088 -0.7421,-0.3738 -0.2239,-0.05 -0.6626,-0.076 -1.3161,-0.076 z" inkscape:connector-curvature="0"/>
        </g>
        <path style="fill:#ffffff;stroke:none" d="m 470.27084,7938.8832 c -1.08707,0 -1.96833,0.1211 -1.96833,0.2713 0,0.15 0.88126,0.2712 1.96833,0.2712 1.08709,0 1.96834,-0.1212 1.96834,-0.2712 0,-0.1502 -0.88125,-0.2713 -1.96834,-0.2713 z m 0,0.1961 c 0.30515,0 0.55253,0.034 0.55253,0.075 0,0.042 -0.24738,0.075 -0.55253,0.075 -0.30514,0 -0.55251,-0.034 -0.55251,-0.075 0,-0.042 0.24737,-0.075 0.55251,-0.075 z" id="path150038" inkscape:connector-curvature="0"/>
        <text xml:space="preserve" style="font-size:0.64422148px;font-style:normal;font-variant:normal;font-weight:normal;font-stretch:normal;line-height:125%;letter-spacing:0px;word-spacing:0px;fill:#ffffff;fill-opacity:1;stroke:none;font-family:Arial;-inkscape-font-specification:Arial" x="461.62274" y="8075.6997" id="text150040" sodipodi:linespacing="125%" transform="scale(1.0170762,0.9832105)"><tspan sodipodi:role="line" id="tspan150042" x="461.62274" y="8075.6997">ROM</tspan></text>
        <g transform="matrix(0.02255355,0,0,-0.02180257,456.42108,7940.9283)" id="g150044" style="fill:#ffffff">
          <g id="g150046" transform="translate(8.50391,150.1943)" style="fill:#ffffff">
            <path inkscape:connector-curvature="0" d="m 121.00809,-7.9961 c 0,0 -4.304,0 -4.304,0 0,0 0,5.5352 0,5.5352 0,0 4.458,0 4.458,0 2.152,0 3.229,-0.8721 3.229,-2.6113 0,-1.9522 -1.13,-2.9239 -3.383,-2.9239 z m 34.29,-2.7656 c -0.617,-3.0781 -2.206,-4.6123 -4.768,-4.6123 -3.587,0 -5.381,2.252 -5.381,6.7647 0,4.4043 1.794,6.6113 5.381,6.6113 2.562,0 4.101,-1.1309 4.613,-3.3828 0,0 2.153,0 2.153,0 -0.718,3.5869 -2.975,5.3808 -6.766,5.3808 -5.126,0 -7.687,-2.8701 -7.687,-8.6093 0,-5.7432 2.457,-8.6133 7.379,-8.6133 4.204,0 6.611,2.1523 7.228,6.4609 0,0 -2.152,0 -2.152,0 z M 82.41409,0 c -5.3311,0 -7.9951,-2.8701 -7.9951,-8.6093 0,-5.7432 2.664,-8.6133 7.9951,-8.6133 5.331,0 7.9961,2.8701 7.9961,8.6133 0,5.7392 -2.6651,8.6093 -7.9961,8.6093 z m -12.9131,-10.7617 c -0.5166,-3.0781 -2.0528,-4.6123 -4.6133,-4.6123 -3.6914,0 -5.5352,2.252 -5.5352,6.7647 0,4.4043 1.794,6.6113 5.3809,6.6113 2.5615,0 4.0996,-1.1309 4.6133,-3.3828 0,0 2.1523,0 2.1523,0 C 71.08989,-1.7939 68.83299,0 64.73339,0 c -5.0215,0 -7.5332,-2.8701 -7.5332,-8.6093 0,-5.7432 2.4072,-8.6133 7.2246,-8.6133 4.2041,0 6.6113,2.1523 7.2285,6.4609 0,0 -2.1523,0 -2.1523,0 z m 102.4011,10.3028 c 0,0 -13.221,0 -13.221,0 0,0 0,-2.002 0,-2.002 0,0 5.534,0 5.534,0 0,0 0,-14.4522 0,-14.4522 0,0 2.152,0 2.152,0 0,0 0,14.4522 0,14.4522 0,0 5.535,0 5.535,0 0,0 0,2.002 0,2.002 z m -35.824,0 c 0,0 -2.461,0 -2.461,0 0,0 -6.148,-16.4542 -6.148,-16.4542 0,0 2.302,0 2.302,0 0,0 1.694,4.7667 1.694,4.7667 0,0 6.611,0 6.611,0 0,0 1.539,-4.7667 1.539,-4.7667 0,0 2.461,0 2.461,0 0,0 -5.998,16.4542 -5.998,16.4542 z m -14.298,0 c 0,0 -7.228,0 -7.228,0 0,0 0,-16.4542 0,-16.4542 0,0 2.152,0 2.152,0 0,0 0,6.919 0,6.919 0,0 5.076,0 5.076,0 3.279,0 4.917,1.6396 4.917,4.9219 0,3.0742 -1.638,4.6133 -4.917,4.6133 z m -11.996,0 c 0,0 -3.074,0 -3.074,0 0,0 -4.768,-13.8399 -4.768,-13.8399 0,0 -4.612,13.8399 -4.612,13.8399 0,0 -3.229,0 -3.229,0 0,0 0,-16.4542 0,-16.4542 0,0 2.153,0 2.153,0 0,0 0,13.6836 0,13.6836 0,0 4.612,-13.6836 4.612,-13.6836 0,0 2.152,0 2.152,0 0,0 4.768,13.8389 4.768,13.8389 0,0 -0.154,-4.1504 -0.154,-4.1504 0,0 0,-9.6885 0,-9.6885 0,0 2.152,0 2.152,0 0,0 0,16.4542 0,16.4542 z m -61.8095,-2.9239 c 0,1.2305 -0.6172,1.8477 -1.8476,1.8477 0,0 -16.7598,0 -16.7598,0 -1.2295,0 -1.8428,-0.6172 -1.8428,-1.8477 0,0 0,-17.372 0,-17.372 0,-0.8223 -0.4131,-1.2315 -1.2304,-1.2315 0,0 -15.375,0 -15.375,0 -3.1778,0 -5.793,-1.0508 -7.8448,-3.1523 C 1.02148,-27.2412 0,-29.8808 0,-33.0595 c 0,0 0,-38.2848 0,-38.2848 0,-3.079 1.05078,-5.69 3.15329,-7.842 2.1026,-2.153 4.6875,-3.229 7.7657,-3.229 0,0 35.208,0 35.208,0 1.2304,0 1.8476,0.663 1.8476,1.998 0,0 0,77.0345 0,77.0345 z m 127.7735,-53.6601 c 0,1.331 -0.617,1.998 -1.848,1.998 0,0 -15.374,0 -15.374,0 -1.335,0 -1.998,-0.667 -1.998,-1.998 0,0 0,-8.9174 0,-8.9174 0,-2.565 -1.23,-3.845 -3.691,-3.845 -2.566,0 -3.846,1.28 -3.846,3.845 0,0 0,27.3656 0,27.3656 0,2.5615 1.28,3.8457 3.846,3.8457 2.461,0 3.691,-1.2842 3.691,-3.8457 0,0 0,-7.2236 0,-7.2236 0,-1.2344 0.663,-1.8477 1.998,-1.8477 0,0 15.374,0 15.374,0 1.231,0 1.848,0.6133 1.848,1.8477 0,0 0,12.7588 0,12.7588 0,3.0742 -1.076,5.6894 -3.229,7.8418 -2.152,2.1523 -4.767,3.2314 -7.84,3.2314 0,0 -23.679,0 -23.679,0 -3.078,0 -5.693,-1.0791 -7.846,-3.2314 -2.152,-2.1524 -3.228,-4.7676 -3.228,-7.8418 0,0 0,-38.1308 0,-38.1308 0,-3.179 1.05,-5.844 3.153,-7.996 2.103,-2.153 4.742,-3.229 7.921,-3.229 0,0 23.679,0 23.679,0 3.173,0 5.813,1.076 7.916,3.229 2.102,2.152 3.153,4.817 3.153,7.996 0,0 0,14.1474 0,14.1474 z m -50.895,3.2285 c 0,3.0742 -1.076,5.6894 -3.227,7.8418 -2.152,2.1513 -4.768,3.2285 -7.842,3.2285 0,0 -14.303,0 -14.303,0 -1.538,0 -2.305,0.7676 -2.305,2.3057 0,1.6396 0.767,2.4619 2.305,2.4619 0,0 21.527,0 21.527,0 1.23,0 1.847,0.6123 1.847,1.8427 0,0 0,12.3008 0,12.3008 0,1.2305 -0.617,1.8467 -1.847,1.8467 0,0 -30.4436,0 -30.4436,0 -3.0782,0 -5.6895,-1.0791 -7.8418,-3.2314 -2.1514,-2.1524 -3.2286,-4.7676 -3.2286,-7.8418 0,0 0,-16.2959 0,-16.2959 0,-3.0782 1.0772,-5.6895 3.2286,-7.8419 2.1523,-2.152 4.7636,-3.228 7.8418,-3.228 0,0 14.3016,0 14.3016,0 1.944,0 2.92,-1.026 2.92,-3.079 0,-1.842 -0.976,-2.764 -2.92,-2.764 0,0 -23.5282,0 -23.5282,0 -1.2305,0 -1.8438,-0.668 -1.8438,-1.998 0,0 0,-12.151 0,-12.151 0,-1.335 0.6133,-1.998 1.8438,-1.998 0,0 32.4462,0 32.4462,0 3.174,0 5.815,1.076 7.916,3.229 2.103,2.152 3.153,4.817 3.153,7.996 0,0 0,17.3759 0,17.3759 z m 46.59,-51.5119 c 0,0 -9.843,0 -9.843,0 0,0 0,5.535 0,5.535 0,0 8.917,0 8.917,0 0,0 0,1.848 0,1.848 0,0 -8.917,0 -8.917,0 0,0 0,5.072 0,5.072 0,0 9.689,0 9.689,0 0,0 0,2.002 0,2.002 0,0 -11.841,0 -11.841,0 0,0 0,-16.3 0,-16.3 0,0 11.995,0 11.995,0 0,0 0,1.843 0,1.843 z m -15.991,6.766 c 0,0 -7.228,0 -7.228,0 0,0 0,-1.844 0,-1.844 0,0 5.076,0 5.076,0 0,-3.587 -1.694,-5.38 -5.076,-5.38 -3.587,0 -5.381,2.252 -5.381,6.765 0,4.404 1.794,6.611 5.381,6.611 2.665,0 4.254,-1.131 4.767,-3.383 0,0 2.152,0 2.152,0 -0.409,3.587 -2.715,5.381 -6.919,5.381 -5.126,0 -7.687,-2.87 -7.687,-8.609 0,-2.869 0.742,-5.026 2.227,-6.461 1.485,-1.435 3.253,-2.152 5.305,-2.152 2.461,0 4.255,0.872 5.385,2.615 0,0 0.613,-2.152 0.613,-2.152 0,0 1.385,0 1.385,0 0,0 0,8.609 0,8.609 z m -21.526,7.691 c 0,0 -2.461,0 -2.461,0 0,0 -6.303,-16.3 -6.303,-16.3 0,0 2.307,0 2.307,0 0,0 1.689,4.613 1.689,4.613 0,0 6.611,0 6.611,0 0,0 1.694,-4.613 1.694,-4.613 0,0 2.306,0 2.306,0 0,0 -5.843,16.3 -5.843,16.3 z m -9.227,-15.991 c -0.513,0.2 -0.767,0.763 -0.767,1.688 0,0 -0.155,2.924 -0.155,2.924 -0.103,1.331 -0.771,2.358 -1.997,3.075 1.534,0.817 2.306,2.102 2.306,3.845 0,2.97 -1.797,4.459 -5.385,4.459 0,0 -7.686,0 -7.686,0 0,0 0,-16.3 0,-16.3 0,0 2.306,0 2.306,0 0,0 0,6.919 0,6.919 0,0 5.38,0 5.38,0 1.844,0 2.82,-0.975 2.925,-2.923 0,0 0.304,-3.996 0.304,-3.996 0,0 2.769,0.309 2.769,0.309 z m -23.833,16.45 c -5.33,0 -7.995,-2.87 -7.995,-8.609 0,-2.461 0.718,-4.513 2.152,-6.153 1.435,-1.642 3.382,-2.46 5.843,-2.46 5.331,0 7.996,2.87 7.996,8.613 0,5.739 -2.665,8.609 -7.996,8.609 z m -7.995,-0.459 c 0,0 -13.377,0 -13.377,0 0,0 0,-2.002 0,-2.002 0,0 5.6895,0 5.6895,0 0,0 0,-14.298 0,-14.298 0,0 2.1523,0 2.1523,0 0,0 0,14.298 0,14.298 0,0 5.5352,0 5.5352,0 0,0 0,2.002 0,2.002 z m -17.5264,-7.383 c 0,0 -4.6132,1.077 -4.6132,1.077 -1.335,0.308 -2.002,0.971 -2.002,1.998 0,1.947 1.2295,2.923 3.6904,2.923 2.7696,0 4.1543,-1.13 4.1543,-3.382 0,0 1.9981,0 1.9981,0 0,3.482 -2.1016,5.226 -6.3057,5.226 -3.7959,0 -5.6894,-1.693 -5.6894,-5.072 0,-2.052 1.1767,-3.337 3.5371,-3.846 0,0 3.2275,-0.767 3.2275,-0.767 2.3564,-0.517 3.5371,-1.49 3.5371,-2.924 0,-1.844 -1.4346,-2.765 -4.3047,-2.765 -2.9726,0 -4.458,1.28 -4.458,3.841 0,0 -1.998,0 -1.998,0 0,-3.796 2.1523,-5.689 6.456,-5.689 4.3047,0 6.4571,1.639 6.4571,4.921 0,2.357 -1.2305,3.842 -3.6866,4.459 z m -24.6054,7.383 c 0,0 -2.4561,0 -2.4561,0 0,0 -6.1523,-16.3 -6.1523,-16.3 0,0 2.3066,0 2.3066,0 0,0 1.6895,4.613 1.6895,4.613 0,0 6.6152,0 6.6152,0 0,0 1.5342,-4.613 1.5342,-4.613 0,0 2.4609,0 2.4609,0 0,0 -5.998,16.3 -5.998,16.3 z m -5.6885,0 c 0,0 -13.376,0 -13.376,0 0,0 0,-2.002 0,-2.002 0,0 5.6895,0 5.6895,0 0,0 0,-14.298 0,-14.298 0,0 2.3056,0 2.3056,0 0,0 0,14.298 0,14.298 0,0 5.3809,0 5.3809,0 0,0 0,2.002 0,2.002 z m -17.5264,0 c 0,0 -2.6152,0 -2.6152,0 0,0 -6.1485,-16.3 -6.1485,-16.3 0,0 2.3067,0 2.3067,0 0,0 1.6894,4.613 1.6894,4.613 0,0 6.6104,0 6.6104,0 0,0 1.6934,-4.613 1.6934,-4.613 0,0 2.4619,0 2.4619,0 0,0 -5.9981,16.3 -5.9981,16.3 z m -16.9131,0 c 0,0 -6.7656,0 -6.7656,0 0,0 0,-16.3 0,-16.3 0,0 6.6104,0 6.6104,0 4.6142,0 6.9199,2.765 6.9199,8.304 0,5.331 -2.2559,7.996 -6.7647,7.996 z m 121.4668,80.7209 c 0,0 2.77,7.2285 2.77,7.2285 0,0 2.306,-7.2285 2.306,-7.2285 0,0 -5.076,0 -5.076,0 z m -49.664,-5.2256 c -3.7959,0 -5.6885,2.252 -5.6885,6.7647 0,4.4043 1.8926,6.6113 5.6885,6.6113 3.792,0 5.6894,-2.207 5.6894,-6.6113 0,-4.5127 -1.8974,-6.7647 -5.6894,-6.7647 z m -38.8985,-63.5043 c 0,0 -32.5966,0 -32.5966,0 -2.1553,0 -3.9493,0.718 -5.3838,2.153 -1.4356,1.434 -2.1524,3.228 -2.1524,5.381 0,0 0,38.2848 0,38.2848 0,2.1523 0.7168,3.9502 2.1524,5.3847 1.4345,1.4346 3.2285,2.1524 5.3838,2.1524 0,0 18.1445,0 18.1445,0 1.2265,0 1.8437,0.6631 1.8437,1.998 0,0 0,17.376 0,17.376 0,0.8174 0.4082,1.2305 1.2305,1.2305 0,0 11.3779,0 11.3779,0 0.7178,-0.7168 1.0762,-1.1309 1.0762,-1.2305 0,0 0,-71.6529 0,-71.6529 0,-0.208 -0.3584,-0.568 -1.0762,-1.077 z m 126.6185,2.228 c -1.485,-1.485 -3.304,-2.228 -5.455,-2.228 0,0 -23.679,0 -23.679,0 -2.156,0 -4.005,0.743 -5.539,2.228 -1.535,1.484 -2.303,3.308 -2.303,5.46 0,0 0,38.1308 0,38.1308 0,2.1523 0.768,3.9502 2.303,5.3847 1.534,1.4346 3.383,2.1524 5.539,2.1524 0,0 23.679,0 23.679,0 2.252,0 4.099,-0.6924 5.534,-2.0772 1.435,-1.3847 2.152,-3.207 2.152,-5.4599 0,0 0,-10.1475 0,-10.1475 0,-0.7178 -0.358,-1.0771 -1.076,-1.0771 0,0 -10.147,0 -10.147,0 -0.718,0 -1.077,0.3593 -1.077,1.0771 0,0 0,4.6123 0,4.6123 0,2.0527 -0.692,3.7666 -2.077,5.1514 -1.385,1.3847 -3.103,2.0771 -5.151,2.0771 -2.052,0 -3.767,-0.6924 -5.152,-2.0771 -1.384,-1.3848 -2.077,-3.0987 -2.077,-5.1514 0,0 0,-27.3656 0,-27.3656 0,-2.052 0.693,-3.77 2.077,-5.155 1.385,-1.385 3.1,-2.073 5.152,-2.073 2.048,0 3.766,0.688 5.151,2.073 1.385,1.385 2.077,3.103 2.077,5.155 0,0 0,6.456 0,6.456 0,0.718 0.359,1.077 1.077,1.077 0,0 10.147,0 10.147,0 0.205,0 0.563,-0.359 1.076,-1.077 0,0 0,-11.686 0,-11.686 0,-2.152 -0.746,-3.976 -2.231,-5.46 z m -50.895,0 c -1.484,-1.485 -3.303,-2.228 -5.455,-2.228 0,0 -29.6767,0 -29.6767,0 -0.8213,0 -1.2304,0.36 -1.2304,1.077 0,0 0,6.919 0,6.919 0,0.717 0.4091,1.077 1.2304,1.077 0,0 20.7587,0 20.7587,0 1.739,0 3.225,0.613 4.455,1.843 1.231,1.231 1.848,2.715 1.848,4.458 0,1.844 -0.593,3.383 -1.769,4.614 -1.18,1.23 -2.69,1.8474 -4.534,1.8474 0,0 -14.3016,0 -14.3016,0 -2.1524,0 -3.9746,0.7422 -5.46,2.2275 -1.4854,1.4854 -2.2275,3.3076 -2.2275,5.46 0,0 0,16.2959 0,16.2959 0,2.1523 0.7421,3.9502 2.2275,5.3847 1.4854,1.4346 3.3076,2.1524 5.46,2.1524 0,0 27.6786,0 27.6786,0 0.717,0 1.076,-0.3584 1.076,-1.0762 0,0 0,-6.7656 0,-6.7656 0,-0.8213 -0.359,-1.2305 -1.076,-1.2305 0,0 -18.762,0 -18.762,0 -3.795,0 -5.688,-1.9473 -5.688,-5.8437 0,-1.5381 0.562,-2.8741 1.689,-3.9991 1.126,-1.1259 2.461,-1.6894 3.999,-1.6894 0,0 14.303,0 14.303,0 2.048,0 3.842,-0.7715 5.381,-2.3067 1.534,-1.539 2.306,-3.333 2.306,-5.3808 0,0 0,-17.3759 0,-17.3759 0,-2.152 -0.746,-3.976 -2.232,-5.46 z m -46.6649,-5.765 c 0,0 -16.7588,0 -16.7588,0 -1.2304,0 -1.8427,0.663 -1.8427,1.998 0,0 0,56.5843 0,56.5843 0,1.2305 0.6123,1.8467 1.8427,1.8467 0,0 16.7588,0 16.7588,0 1.2266,0 1.8448,-0.6162 1.8448,-1.8467 0,0 0,-56.5843 0,-56.5843 0,-1.335 -0.6182,-1.998 -1.8448,-1.998 z m 45.9729,-15.837 c 0,0 -5.226,0 -5.226,0 0,0 0,5.536 0,5.536 0,0 5.535,0 5.535,0 1.948,0 2.924,-0.922 2.924,-2.766 0,-1.848 -1.081,-2.77 -3.233,-2.77 z m 11.379,-2.152 c 0,0 2.615,7.229 2.615,7.229 0,0 2.461,-7.229 2.461,-7.229 0,0 -5.076,0 -5.076,0 z m -83.182,0 c 0,0 2.7647,7.229 2.7647,7.229 0,0 2.3076,-7.229 2.3076,-7.229 0,0 -5.0723,0 -5.0723,0 z m -23.2197,0 c 0,0 2.6153,7.229 2.6153,7.229 0,0 2.4609,-7.229 2.4609,-7.229 0,0 -5.0762,0 -5.0762,0 z m -13.0683,-4.922 c 0,0 -4.3037,0 -4.3037,0 0,0 0,12.61 0,12.61 0,0 3.996,0 3.996,0 3.3819,0 5.0752,-2.103 5.0752,-6.303 0,-4.204 -1.5888,-6.307 -4.7675,-6.307 z m 90.41,-0.458 c -3.795,0 -5.688,2.252 -5.688,6.765 0,4.404 1.893,6.611 5.688,6.611 3.897,0 5.844,-2.207 5.844,-6.611 0,-4.513 -1.947,-6.765 -5.844,-6.765 z m -29.83,79.1857 c 0,0.7178 -0.3593,1.0762 -1.0771,1.0762 0,0 -11.3779,0 -11.3779,0 -0.7178,0 -1.0762,-0.3584 -1.0762,-1.0762 0,0 0,-51.2027 0,-51.2027 0,-0.717 0.3584,-1.077 1.0762,-1.077 0,0 11.3779,0 11.3779,0 0.7178,0 1.0771,0.36 1.0771,1.077 0,0 0,51.2027 0,51.2027 z m -39.9755,-11.6875 c 0,1.9443 -0.6915,3.6123 -2.0762,4.9971 -1.3858,1.3847 -3.0537,2.0771 -4.9971,2.0771 -1.9482,0 -3.5869,-0.6924 -4.9219,-2.0771 -1.3339,-1.3848 -1.998,-3.0528 -1.998,-4.9971 0,0 0,-28.1372 0,-28.1372 0,-2.052 0.6377,-3.742 1.9228,-5.076 1.2813,-1.335 2.9454,-1.998 4.9971,-1.998 1.9434,0 3.6113,0.693 4.9971,2.077 1.3847,1.385 2.0762,3.049 2.0762,4.997 0,0 0,28.1372 0,28.1372 z m -7.0733,-31.6742 c -2.3613,0 -3.5371,1.176 -3.5371,3.537 0,0 0,28.1372 0,28.1372 0,2.3564 1.1758,3.5371 3.5371,3.5371 2.2529,0 3.3828,-1.1807 3.3828,-3.5371 0,0 0,-28.1372 0,-28.1372 0,-2.361 -1.1299,-3.537 -3.3828,-3.537 z" style="fill:#ffffff;fill-opacity:1;fill-rule:evenodd;stroke:none" id="path150048"/>
          </g>
        </g>
        <path id="path150050" style="fill:#00b7e8;fill-opacity:1;fill-rule:nonzero;stroke:none" d="m 471.22906,7943.0969 1.90862,0 0,2.4099 -1.90862,0 z" inkscape:connector-curvature="0"/>
        <path d="m 468.87511,7943.0968 1.9086,0 0,2.41 -1.9086,0 z" style="fill:#e51d00;fill-opacity:1;fill-rule:nonzero;stroke:none" id="path150052" inkscape:connector-curvature="0"/>
        <path id="path150054" style="fill:#999999;fill-opacity:1;fill-rule:nonzero;stroke:#1a1a1a;stroke-width:0.20532669;stroke-miterlimit:4" d="m 467.18673,7943.0524 1.21366,0 0,4.2539 -1.21366,0 z" inkscape:connector-curvature="0"/>
        <path inkscape:connector-curvature="0" d="m 467.92553,7943.0524 0.47486,0 0,4.2539 -0.47486,0 z" style="fill:#999999;fill-opacity:1;fill-rule:nonzero;stroke:#1a1a1a;stroke-width:0.12843297;stroke-miterlimit:4" id="path150056"/>
        <rect transform="matrix(1,0,-0.01802634,0.99983751,0,0)" y="7944.5239" x="584.88458" height="4.7188153" width="23.795719" id="rect150058" style="fill:url(#linearGradient150276);fill-opacity:1;stroke:#1a1a1a;stroke-width:0.46712554"/>
        <path inkscape:connector-curvature="0" id="path150060" style="fill:#ffffff;fill-opacity:1;fill-rule:nonzero;stroke:#808080;stroke-width:0.45442954" d="m 442.96371,7943.8985 1.53996,0 c 0.20885,0 0.38956,0.227 0.40519,0.5087 l 0.0217,0.3906 c 0.0157,0.2817 -0.13993,0.5085 -0.34877,0.5085 l -1.53997,0 c -0.20885,0 -0.38957,-0.2268 -0.4052,-0.5085 l -0.0217,-0.3906 c -0.0156,-0.2817 0.13993,-0.5087 0.34879,-0.5087 z" sodipodi:nodetypes="ssccssccs"/>
        <path sodipodi:nodetypes="ssccssccs" d="m 446.15365,7943.8985 1.53997,0 c 0.20884,0 0.38957,0.227 0.40519,0.5087 l 0.0217,0.3906 c 0.0156,0.2817 -0.13992,0.5085 -0.34877,0.5085 l -1.53996,0 c -0.20886,0 -0.38957,-0.2268 -0.40521,-0.5085 l -0.0217,-0.3906 c -0.0157,-0.2817 0.13994,-0.5087 0.34878,-0.5087 z" style="fill:#ffffff;fill-opacity:1;fill-rule:nonzero;stroke:#808080;stroke-width:0.45442954" id="path150062" inkscape:connector-curvature="0"/>
        <path inkscape:connector-curvature="0" id="path150064" style="fill:#ffffff;fill-opacity:1;fill-rule:nonzero;stroke:#808080;stroke-width:0.45442954" d="m 449.37599,7943.8985 1.53996,0 c 0.20885,0 0.38957,0.227 0.4052,0.5087 l 0.0216,0.3906 c 0.0156,0.2817 -0.13991,0.5085 -0.34876,0.5085 l -1.53997,0 c -0.20885,0 -0.38957,-0.2268 -0.4052,-0.5085 l -0.0216,-0.3906 c -0.0156,-0.2817 0.13992,-0.5087 0.34878,-0.5087 z" sodipodi:nodetypes="ssccssccs"/>
        <path inkscape:connector-curvature="0" d="m 401.28774,7943.1829 0.47458,-0.011 c 0.24733,-0.01 0.46443,0.1311 0.48672,0.3061 l 0.031,0.2424 c 0.0223,0.1749 -0.15884,0.3201 -0.40619,0.3255 l -0.47457,0.011 c -0.24734,0.011 -0.46444,-0.1312 -0.48676,-0.3061 l -0.0309,-0.2425 c -0.0223,-0.1748 0.15885,-0.32 0.40619,-0.3253 z" style="fill:#ffffff;fill-opacity:1;fill-rule:nonzero;stroke:#808080;stroke-width:0.39020622" id="path150066"/>
        <path inkscape:connector-curvature="0" d="m 403.99722,7943.124 0.47457,-0.011 c 0.24735,-0.011 0.46443,0.131 0.48675,0.306 l 0.0309,0.2425 c 0.0222,0.1748 -0.15886,0.3201 -0.40621,0.3254 l -0.47457,0.011 c -0.24734,0.01 -0.46443,-0.1311 -0.48674,-0.306 l -0.031,-0.2425 c -0.0223,-0.175 0.15885,-0.3201 0.40621,-0.3255 z" style="fill:#ffffff;fill-opacity:1;fill-rule:nonzero;stroke:#808080;stroke-width:0.39020622" id="path150068"/>
        <path inkscape:connector-curvature="0" id="path150070" style="fill:#ffffff;fill-opacity:1;fill-rule:nonzero;stroke:#808080;stroke-width:0.39020622" d="m 401.33384,7945.3076 0.47458,-0.01 c 0.24733,-0.011 0.46443,0.1312 0.48673,0.3061 l 0.031,0.2425 c 0.0223,0.1748 -0.15884,0.3201 -0.4062,0.3254 l -0.47456,0.011 c -0.24735,0.011 -0.46445,-0.1311 -0.48677,-0.306 l -0.0309,-0.2425 c -0.0224,-0.1749 0.15885,-0.3202 0.40619,-0.3256 z"/>
        <path inkscape:connector-curvature="0" id="path150072" style="fill:#ffffff;fill-opacity:1;fill-rule:nonzero;stroke:#808080;stroke-width:0.39020622" d="m 404.04332,7945.2489 0.47457,-0.011 c 0.24735,-0.011 0.46444,0.1313 0.48675,0.3061 l 0.0309,0.2426 c 0.0222,0.1747 -0.15886,0.32 -0.4062,0.3253 l -0.47457,0.011 c -0.24734,0.01 -0.46444,-0.1312 -0.48674,-0.3061 l -0.031,-0.2425 c -0.0223,-0.1749 0.15884,-0.3201 0.4062,-0.3255 z"/>
        <path d="m 401.38387,7947.6134 0.47457,-0.011 c 0.24734,-0.011 0.46444,0.1312 0.48673,0.3062 l 0.031,0.2424 c 0.0223,0.1751 -0.15884,0.3203 -0.40618,0.3256 l -0.47457,0.01 c -0.24735,0.011 -0.46445,-0.1312 -0.48678,-0.3062 l -0.0309,-0.2424 c -0.0223,-0.1749 0.15884,-0.3202 0.40619,-0.3255 z" style="fill:#ffffff;fill-opacity:1;fill-rule:nonzero;stroke:#808080;stroke-width:0.39020622" id="path150074" inkscape:connector-curvature="0"/>
        <path d="m 404.09334,7947.5546 0.47458,-0.011 c 0.24734,-0.011 0.46443,0.1311 0.48676,0.3061 l 0.0309,0.2424 c 0.0222,0.1751 -0.15884,0.3203 -0.4062,0.3257 l -0.47456,0.011 c -0.24734,0.011 -0.46444,-0.1311 -0.48675,-0.3062 l -0.031,-0.2424 c -0.0223,-0.1749 0.15885,-0.3202 0.4062,-0.3255 z" style="fill:#ffffff;fill-opacity:1;fill-rule:nonzero;stroke:#808080;stroke-width:0.39020622" id="path150076" inkscape:connector-curvature="0"/>
        <path id="path150078" style="fill:#808080;stroke:#000000;stroke-width:0.42910308" d="m 406.58427,7942.7348 29.32904,-0.045 0.0637,6.331 -29.20179,0 z" inkscape:connector-curvature="0" sodipodi:nodetypes="ccccc"/>
        <path sodipodi:nodetypes="ccccc" style="fill:#000000;stroke:none" d="m 409.8162,7944.3629 7.1891,0 0,0.7235 -7.1891,0 z" id="path150080" inkscape:connector-curvature="0"/>
        <path sodipodi:nodetypes="ccccccccccccccccc" inkscape:connector-curvature="0" style="fill:#000000;stroke:none" d="m 427.5154,7944.2307 0,3.2108 3.05379,0 0,-3.2108 -1.39965,0 0.71574,0.012 -0.0159,0.1022 0,2.9845 -1.00201,0 -0.0159,0.091 -0.65211,0 0,-0.091 0,-2.9845 0.9543,0 0.0159,-0.1132 -1.65414,0 z" id="path150082"/>
        <path sodipodi:nodetypes="ccccc" id="path150084" d="m 418.34134,7944.3629 7.1891,0 0,0.7235 -7.1891,0 z" style="fill:#000000;stroke:none" inkscape:connector-curvature="0"/>
        <path sodipodi:nodetypes="ccccc" id="path150086" d="m 410.01977,7945.7195 7.18913,0 0,0.4071 -7.18913,0 z" style="fill:#000000;stroke:none" inkscape:connector-curvature="0"/>
        <path sodipodi:nodetypes="ccccc" inkscape:connector-curvature="0" style="fill:#000000;stroke:none" d="m 418.54491,7945.7195 7.18913,0 0,0.4071 -7.18913,0 z" id="path150088"/>
        <path sodipodi:nodetypes="ccccc" inkscape:connector-curvature="0" style="fill:#000000;stroke:none" d="m 410.17247,7946.8049 7.18911,0 0,0.407 -7.18911,0 z" id="path150090"/>
        <path sodipodi:nodetypes="ccccc" id="path150092" d="m 418.69761,7946.8049 7.18911,0 0,0.407 -7.18911,0 z" style="fill:#000000;stroke:none" inkscape:connector-curvature="0"/>
        <path sodipodi:nodetypes="ccccc" id="path150094" d="m 410.22338,7947.845 7.1891,0 0,0.407 -7.1891,0 z" style="fill:#000000;stroke:none" inkscape:connector-curvature="0"/>
        <path sodipodi:nodetypes="ccccc" inkscape:connector-curvature="0" style="fill:#000000;stroke:none" d="m 418.74852,7947.845 7.1891,0 0,0.407 -7.1891,0 z" id="path150096"/>
        <path sodipodi:nodetypes="ccccc" id="path150098" d="m 427.40089,7947.845 7.18911,0 0,0.407 -7.18911,0 z" style="fill:#000000;stroke:none" inkscape:connector-curvature="0"/>
        <path id="path150100" style="fill:#000000;stroke:none" d="m 406.58427,7943.775 0.89069,0 c 0,0 0.2474,2.2637 0.37106,3.3957 0.005,0.041 0.31779,0.044 0.62179,0.079 0.078,0.01 0.006,-1.1936 -0.0344,-2.2881 -0.0189,-0.499 -0.0885,-1.2121 -0.059,-1.5204 2.80269,-0.051 21.67587,-0.011 24.40467,0 0.0162,0.2885 0.0172,0.2217 0.009,0.3165 -0.99487,0.011 -23.89633,-0.011 -23.88279,0 0.1428,1.3781 0.0747,3.5776 0.20311,4.6307 -0.79906,-0.014 -1.62243,0.044 -2.39761,0.044 z" inkscape:connector-curvature="0" sodipodi:nodetypes="ccsssccccccc"/>
        <path id="path150102" style="fill:#333333;fill-opacity:1;fill-rule:nonzero;stroke:none" d="m 431.17483,7944.2116 0,0.4637 2.11414,0 0.0159,0.78 0.513,0 -0.003,-0.7793 0,-0.4634 z" inkscape:connector-curvature="0" sodipodi:nodetypes="cccccccc"/>
        <path sodipodi:nodetypes="cccccccc" inkscape:connector-curvature="0" d="m 431.1749,7947.4451 0,-0.4636 2.11403,0 0.0159,-0.78 0.51296,0 -0.003,0.7793 0,0.4635 z" style="fill:#333333;fill-opacity:1;fill-rule:nonzero;stroke:none" id="path150104"/>
        <path inkscape:connector-curvature="0" d="m 471.22906,7946.4114 1.90862,0 0,1.0539 -1.90862,0 z" style="fill:#00ff00;fill-opacity:1;fill-rule:nonzero;stroke:none" id="path150106"/>
        <path inkscape:connector-curvature="0" id="path150108" style="fill:#ff6600;fill-opacity:1;fill-rule:nonzero;stroke:none" d="m 468.87511,7946.4113 1.9086,0 0,1.054 -1.9086,0 z"/>
        <path sodipodi:nodetypes="ssccssccs" d="m 442.96371,7946.0732 1.53996,0 c 0.20885,0 0.38956,0.2268 0.40519,0.5086 l 0.0217,0.3906 c 0.0157,0.2817 -0.13993,0.5085 -0.34877,0.5085 l -1.53997,0 c -0.20885,0 -0.38957,-0.2268 -0.4052,-0.5085 l -0.0217,-0.3906 c -0.0156,-0.2818 0.13993,-0.5086 0.34879,-0.5086 z" style="fill:#ffffff;fill-opacity:1;fill-rule:nonzero;stroke:#808080;stroke-width:0.45442954" id="path150110" inkscape:connector-curvature="0"/>
        <path inkscape:connector-curvature="0" id="path150112" style="fill:#ffffff;fill-opacity:1;fill-rule:nonzero;stroke:#808080;stroke-width:0.45442954" d="m 446.15365,7946.0732 1.53997,0 c 0.20884,0 0.38957,0.2268 0.40519,0.5086 l 0.0217,0.3906 c 0.0156,0.2817 -0.13992,0.5085 -0.34877,0.5085 l -1.53996,0 c -0.20886,0 -0.38957,-0.2268 -0.40521,-0.5085 l -0.0217,-0.3906 c -0.0157,-0.2818 0.13994,-0.5086 0.34878,-0.5086 z" sodipodi:nodetypes="ssccssccs"/>
        <path sodipodi:nodetypes="ssccssccs" d="m 449.37599,7946.0732 1.53996,0 c 0.20885,0 0.38957,0.2268 0.4052,0.5086 l 0.0216,0.3906 c 0.0156,0.2817 -0.13991,0.5085 -0.34876,0.5085 l -1.53997,0 c -0.20885,0 -0.38957,-0.2268 -0.4052,-0.5085 l -0.0216,-0.3906 c -0.0156,-0.2818 0.13992,-0.5086 0.34878,-0.5086 z" style="fill:#ffffff;fill-opacity:1;fill-rule:nonzero;stroke:#808080;stroke-width:0.45442954" id="path150114" inkscape:connector-curvature="0"/>
        <path inkscape:connector-curvature="0" id="path150116" style="fill:#ffffff;fill-opacity:1;fill-rule:nonzero;stroke:#808080;stroke-width:0.45442954" d="m 452.6521,7946.0732 1.53995,0 c 0.20886,0 0.38957,0.2268 0.4052,0.5086 l 0.0217,0.3906 c 0.0157,0.2817 -0.13992,0.5085 -0.34877,0.5085 l -1.53996,0 c -0.20886,0 -0.38958,-0.2268 -0.40521,-0.5085 l -0.0217,-0.3906 c -0.0156,-0.2818 0.13993,-0.5086 0.3488,-0.5086 z" sodipodi:nodetypes="ssccssccs"/>
        <path sodipodi:nodetypes="ssccssccs" d="m 455.84203,7946.0732 1.53997,0 c 0.20884,0 0.38958,0.2268 0.40519,0.5086 l 0.0217,0.3906 c 0.0156,0.2817 -0.13993,0.5085 -0.34878,0.5085 l -1.53996,0 c -0.20886,0 -0.38957,-0.2268 -0.40521,-0.5085 l -0.0217,-0.3906 c -0.0157,-0.2818 0.13993,-0.5086 0.34877,-0.5086 z" style="fill:#ffffff;fill-opacity:1;fill-rule:nonzero;stroke:#808080;stroke-width:0.45442954" id="path150118" inkscape:connector-curvature="0"/>
        <path inkscape:connector-curvature="0" id="path150120" style="fill:#ffffff;fill-opacity:1;fill-rule:nonzero;stroke:#808080;stroke-width:0.45442954" d="m 459.06437,7946.0732 1.53997,0 c 0.20884,0 0.38956,0.2268 0.40519,0.5086 l 0.0216,0.3906 c 0.0156,0.2817 -0.13992,0.5085 -0.34877,0.5085 l -1.53997,0 c -0.20885,0 -0.38957,-0.2268 -0.4052,-0.5085 l -0.0216,-0.3906 c -0.0156,-0.2818 0.13993,-0.5086 0.34878,-0.5086 z" sodipodi:nodetypes="ssccssccs"/>
        <path sodipodi:nodetypes="ccccc" inkscape:connector-curvature="0" d="m 369.07258,7935.4452 29.46876,0.048 0.17837,6.2378 -29.40061,-0.046 z" style="fill:#808080;fill-opacity:1;stroke:#000000;stroke-width:0.42910308" id="path150122"/>
        <path inkscape:connector-curvature="0" id="path150124" d="m 372.3045,7937.0732 7.1891,0 0,0.7235 -7.1891,0 z" style="fill:#000000;stroke:none"/>
        <path sodipodi:nodetypes="cccccccccccccccccc" inkscape:connector-curvature="0" id="path150126" d="m 390.0037,7936.941 0,3.2108 3.05379,0 0,-2.762 0,-0.2376 0,-0.2112 -1.39965,0 0.71572,0.012 -0.0159,0.1023 0,2.9845 -1.00203,0 -0.0159,0.091 -0.65211,0 0,-0.091 0,-2.9845 0.95431,0 0.0159,-0.1131 z" style="fill:#000000;stroke:none"/>
        <path inkscape:connector-curvature="0" style="fill:#000000;stroke:none" d="m 380.82964,7937.0732 7.1891,0 0,0.7235 -7.1891,0 z" id="path150128"/>
        <path inkscape:connector-curvature="0" style="fill:#000000;stroke:none" d="m 372.50807,7938.4298 7.18911,0 0,0.4071 -7.18911,0 z" id="path150130"/>
        <path id="path150132" d="m 381.03321,7938.4298 7.18912,0 0,0.4071 -7.18912,0 z" style="fill:#000000;stroke:none" inkscape:connector-curvature="0"/>
        <path id="path150134" d="m 372.66077,7939.5152 7.18911,0 0,0.407 -7.18911,0 z" style="fill:#000000;stroke:none" inkscape:connector-curvature="0"/>
        <path inkscape:connector-curvature="0" style="fill:#000000;stroke:none" d="m 381.18591,7939.5152 7.18912,0 0,0.407 -7.18912,0 z" id="path150136"/>
        <path inkscape:connector-curvature="0" style="fill:#000000;stroke:none" d="m 372.71166,7940.5554 7.18912,0 0,0.4069 -7.18912,0 z" id="path150138"/>
        <path id="path150140" d="m 381.23681,7940.5554 7.18911,0 0,0.4069 -7.18911,0 z" style="fill:#000000;stroke:none" inkscape:connector-curvature="0"/>
        <path inkscape:connector-curvature="0" style="fill:#000000;stroke:none" d="m 389.88919,7940.5554 7.18912,0 0,0.4069 -7.18912,0 z" id="path150142"/>
        <path sodipodi:nodetypes="ccsssccccccc" inkscape:connector-curvature="0" d="m 369.07258,7936.4853 0.89068,0 c 0,0 0.2474,2.2637 0.37106,3.3957 0.005,0.041 0.31778,0.044 0.62178,0.079 0.078,0.011 0.006,-1.1937 -0.0344,-2.2881 -0.0189,-0.4991 -0.0885,-1.2121 -0.0591,-1.5205 2.80269,-0.051 21.67587,-0.01 24.40467,0 0.0162,0.2886 0.0172,0.2219 0.009,0.3166 -0.99487,0.011 -23.89633,-0.01 -23.88279,0 0.1428,1.3782 0.0747,3.5776 0.20311,4.6307 -0.79906,-0.014 -1.24072,0.044 -2.01589,0.044 z" style="fill:#000000;stroke:none" id="path150144"/>
        <path sodipodi:nodetypes="cccccccc" inkscape:connector-curvature="0" d="m 393.83468,7936.9219 0,0.4637 2.11414,0 0.0159,0.78 0.513,0 -0.003,-0.7793 0,-0.4635 z" style="fill:#333333;fill-opacity:1;fill-rule:nonzero;stroke:none" id="path150146"/>
        <path id="path150148" style="fill:#333333;fill-opacity:1;fill-rule:nonzero;stroke:none" d="m 393.83476,7940.1554 0,-0.4635 2.11402,0 0.0159,-0.7801 0.51296,0 -0.003,0.7793 0,0.4634 z" inkscape:connector-curvature="0" sodipodi:nodetypes="cccccccc"/>
        <path id="path150150" style="fill:#808080;fill-opacity:1;stroke:#000000;stroke-width:0.42910308" d="m 369.38862,7942.6935 29.32903,-0.045 0.17837,6.2844 -29.2143,2e-4 z" inkscape:connector-curvature="0" sodipodi:nodetypes="ccccc"/>
        <path style="fill:#000000;stroke:none" d="m 372.62054,7944.3215 7.1891,0 0,0.7235 -7.1891,0 z" id="path150152" inkscape:connector-curvature="0"/>
        <path style="fill:#000000;stroke:none" d="m 390.31974,7944.1893 0,3.2108 3.05379,0 0,-2.762 0,-0.2375 0,-0.2113 -1.39965,0 0.71572,0.012 -0.0159,0.1022 0,2.9846 -1.00203,0 -0.0159,0.091 -0.65211,0 0,-0.091 0,-2.9846 0.95431,0 0.0159,-0.1131 z" id="path150154" inkscape:connector-curvature="0" sodipodi:nodetypes="cccccccccccccccccc"/>
        <path id="path150156" d="m 381.14568,7944.3215 7.1891,0 0,0.7235 -7.1891,0 z" style="fill:#000000;stroke:none" inkscape:connector-curvature="0"/>
        <path id="path150158" d="m 372.82411,7945.6781 7.18911,0 0,0.4071 -7.18911,0 z" style="fill:#000000;stroke:none" inkscape:connector-curvature="0"/>
        <path inkscape:connector-curvature="0" style="fill:#000000;stroke:none" d="m 381.34925,7945.6781 7.18912,0 0,0.4071 -7.18912,0 z" id="path150160"/>
        <path inkscape:connector-curvature="0" style="fill:#000000;stroke:none" d="m 372.97681,7946.7635 7.18911,0 0,0.407 -7.18911,0 z" id="path150162"/>
        <path id="path150164" d="m 381.50195,7946.7635 7.18912,0 0,0.407 -7.18912,0 z" style="fill:#000000;stroke:none" inkscape:connector-curvature="0"/>
        <path id="path150166" d="m 373.0277,7947.8036 7.18912,0 0,0.407 -7.18912,0 z" style="fill:#000000;stroke:none" inkscape:connector-curvature="0"/>
        <path inkscape:connector-curvature="0" style="fill:#000000;stroke:none" d="m 381.55285,7947.8036 7.18911,0 0,0.407 -7.18911,0 z" id="path150168"/>
        <path id="path150170" d="m 390.20523,7947.8036 7.18912,0 0,0.407 -7.18912,0 z" style="fill:#000000;stroke:none" inkscape:connector-curvature="0"/>
        <path id="path150172" style="fill:#000000;stroke:none" d="m 369.38862,7943.7336 0.89068,0 c 0,0 0.2474,2.2637 0.37105,3.3957 0.005,0.041 0.31779,0.044 0.62179,0.079 0.078,0.01 0.006,-1.1936 -0.0344,-2.2881 -0.0189,-0.499 -0.0885,-1.2121 -0.0591,-1.5204 2.80269,-0.051 21.67587,-0.011 24.40467,0 0.0162,0.2885 0.0172,0.2217 0.009,0.3165 -0.99487,0.011 -23.89633,-0.011 -23.88279,0 0.1428,1.3781 0.0747,3.5776 0.20311,4.6307 -0.79906,-0.014 -1.24072,0.044 -2.01589,0.044 z" inkscape:connector-curvature="0" sodipodi:nodetypes="ccsssccccccc"/>
        <path id="path150174" style="fill:#333333;fill-opacity:1;fill-rule:nonzero;stroke:none" d="m 394.15072,7944.1702 0,0.4637 2.11414,0 0.0159,0.78 0.513,0 -0.003,-0.7793 0,-0.4634 z" inkscape:connector-curvature="0" sodipodi:nodetypes="cccccccc"/>
        <path sodipodi:nodetypes="cccccccc" inkscape:connector-curvature="0" d="m 394.1508,7947.4037 0,-0.4636 2.11402,0 0.0159,-0.78 0.51296,0 -0.003,0.7793 0,0.4635 z" style="fill:#333333;fill-opacity:1;fill-rule:nonzero;stroke:none" id="path150176"/>
        <path id="path150178" style="fill:#ffffff;fill-opacity:1;fill-rule:nonzero;stroke:#808080;stroke-width:0.39020622" d="m 401.28774,7950.6052 0.47458,-0.011 c 0.24733,-0.01 0.46443,0.1311 0.48672,0.3061 l 0.031,0.2424 c 0.0223,0.1749 -0.15884,0.3201 -0.40619,0.3255 l -0.47457,0.011 c -0.24734,0.011 -0.46444,-0.1312 -0.48676,-0.3061 l -0.0309,-0.2425 c -0.0223,-0.1748 0.15885,-0.32 0.40619,-0.3253 z" inkscape:connector-curvature="0"/>
        <path id="path150180" style="fill:#ffffff;fill-opacity:1;fill-rule:nonzero;stroke:#808080;stroke-width:0.39020622" d="m 403.99722,7950.5463 0.47457,-0.011 c 0.24735,-0.011 0.46443,0.131 0.48675,0.306 l 0.0309,0.2425 c 0.0222,0.1748 -0.15886,0.3201 -0.40621,0.3254 l -0.47457,0.011 c -0.24734,0.01 -0.46443,-0.1311 -0.48674,-0.306 l -0.031,-0.2425 c -0.0223,-0.175 0.15885,-0.3201 0.40621,-0.3255 z" inkscape:connector-curvature="0"/>
        <path d="m 401.33384,7952.7299 0.47458,-0.01 c 0.24733,-0.011 0.46443,0.1312 0.48673,0.3061 l 0.031,0.2425 c 0.0223,0.1748 -0.15884,0.3201 -0.4062,0.3254 l -0.47456,0.011 c -0.24735,0.011 -0.46445,-0.1311 -0.48677,-0.306 l -0.0309,-0.2425 c -0.0224,-0.1749 0.15885,-0.3202 0.40619,-0.3256 z" style="fill:#ffffff;fill-opacity:1;fill-rule:nonzero;stroke:#808080;stroke-width:0.39020622" id="path150182" inkscape:connector-curvature="0"/>
        <path d="m 404.04332,7952.6712 0.47457,-0.011 c 0.24735,-0.011 0.46444,0.1313 0.48675,0.3061 l 0.0309,0.2426 c 0.0222,0.1747 -0.15886,0.32 -0.4062,0.3253 l -0.47457,0.011 c -0.24734,0.01 -0.46444,-0.1312 -0.48674,-0.3061 l -0.031,-0.2425 c -0.0223,-0.1749 0.15884,-0.3201 0.4062,-0.3255 z" style="fill:#ffffff;fill-opacity:1;fill-rule:nonzero;stroke:#808080;stroke-width:0.39020622" id="path150184" inkscape:connector-curvature="0"/>
        <path inkscape:connector-curvature="0" id="path150186" style="fill:#ffffff;fill-opacity:1;fill-rule:nonzero;stroke:#808080;stroke-width:0.39020622" d="m 401.38387,7955.0357 0.47457,-0.011 c 0.24734,-0.011 0.46444,0.1312 0.48673,0.3062 l 0.031,0.2424 c 0.0223,0.1751 -0.15884,0.3203 -0.40618,0.3256 l -0.47457,0.01 c -0.24735,0.011 -0.46445,-0.1312 -0.48678,-0.3062 l -0.0309,-0.2424 c -0.0223,-0.1749 0.15884,-0.3202 0.40619,-0.3255 z"/>
        <path inkscape:connector-curvature="0" id="path150188" style="fill:#ffffff;fill-opacity:1;fill-rule:nonzero;stroke:#808080;stroke-width:0.39020622" d="m 404.09334,7954.9769 0.47458,-0.011 c 0.24734,-0.011 0.46443,0.1311 0.48676,0.3061 l 0.0309,0.2424 c 0.0222,0.1751 -0.15884,0.3203 -0.4062,0.3257 l -0.47456,0.011 c -0.24734,0.011 -0.46444,-0.1311 -0.48675,-0.3062 l -0.031,-0.2424 c -0.0223,-0.1749 0.15885,-0.3202 0.4062,-0.3255 z"/>
        <path sodipodi:nodetypes="ccccc" inkscape:connector-curvature="0" d="m 406.58427,7950.1571 29.32904,-0.045 0.0637,6.331 -29.20179,0 z" style="fill:#808080;stroke:#000000;stroke-width:0.42910308" id="path150190"/>
        <path inkscape:connector-curvature="0" id="path150192" d="m 409.8162,7951.7852 7.1891,0 0,0.7235 -7.1891,0 z" style="fill:#000000;stroke:none" sodipodi:nodetypes="ccccc"/>
        <path id="path150194" d="m 427.5154,7951.653 0,3.2108 3.05379,0 0,-3.2108 -1.39965,0 0.71574,0.012 -0.0159,0.1022 0,2.9845 -1.00201,0 -0.0159,0.091 -0.65211,0 0,-0.091 0,-2.9845 0.9543,0 0.0159,-0.1132 -1.65414,0 z" style="fill:#000000;stroke:none" inkscape:connector-curvature="0" sodipodi:nodetypes="ccccccccccccccccc"/>
        <path inkscape:connector-curvature="0" style="fill:#000000;stroke:none" d="m 418.34134,7951.7852 7.1891,0 0,0.7235 -7.1891,0 z" id="path150196" sodipodi:nodetypes="ccccc"/>
        <path inkscape:connector-curvature="0" style="fill:#000000;stroke:none" d="m 410.01977,7953.1418 7.18913,0 0,0.4071 -7.18913,0 z" id="path150198" sodipodi:nodetypes="ccccc"/>
        <path id="path150200" d="m 418.54491,7953.1418 7.18913,0 0,0.4071 -7.18913,0 z" style="fill:#000000;stroke:none" inkscape:connector-curvature="0" sodipodi:nodetypes="ccccc"/>
        <path id="path150202" d="m 410.17247,7954.2272 7.18911,0 0,0.407 -7.18911,0 z" style="fill:#000000;stroke:none" inkscape:connector-curvature="0" sodipodi:nodetypes="ccccc"/>
        <path inkscape:connector-curvature="0" style="fill:#000000;stroke:none" d="m 418.69761,7954.2272 7.18911,0 0,0.407 -7.18911,0 z" id="path150204" sodipodi:nodetypes="ccccc"/>
        <path inkscape:connector-curvature="0" style="fill:#000000;stroke:none" d="m 410.22338,7955.2673 7.1891,0 0,0.407 -7.1891,0 z" id="path150206" sodipodi:nodetypes="ccccc"/>
        <path id="path150208" d="m 418.74852,7955.2673 7.1891,0 0,0.407 -7.1891,0 z" style="fill:#000000;stroke:none" inkscape:connector-curvature="0" sodipodi:nodetypes="ccccc"/>
        <path inkscape:connector-curvature="0" style="fill:#000000;stroke:none" d="m 427.40089,7955.2673 7.18911,0 0,0.407 -7.18911,0 z" id="path150210" sodipodi:nodetypes="ccccc"/>
        <path sodipodi:nodetypes="ccsssccccccc" inkscape:connector-curvature="0" d="m 406.58427,7951.1973 0.89069,0 c 0,0 0.2474,2.2637 0.37106,3.3957 0.005,0.041 0.31779,0.044 0.62179,0.079 0.078,0.01 0.006,-1.1936 -0.0344,-2.2881 -0.0189,-0.499 -0.0885,-1.2121 -0.059,-1.5204 2.80269,-0.051 21.67587,-0.011 24.40467,0 0.0162,0.2885 0.0172,0.2217 0.009,0.3165 -0.99487,0.011 -23.89633,-0.011 -23.88279,0 0.1428,1.3781 0.0747,3.5776 0.20311,4.6307 -0.79906,-0.014 -1.62243,0.044 -2.39761,0.044 z" style="fill:#000000;stroke:none" id="path150212"/>
        <path sodipodi:nodetypes="cccccccc" inkscape:connector-curvature="0" d="m 431.17483,7951.6339 0,0.4637 2.11414,0 0.0159,0.78 0.513,0 -0.003,-0.7793 0,-0.4634 z" style="fill:#333333;fill-opacity:1;fill-rule:nonzero;stroke:none" id="path150214"/>
        <path id="path150216" style="fill:#333333;fill-opacity:1;fill-rule:nonzero;stroke:none" d="m 431.1749,7954.8674 0,-0.4636 2.11403,0 0.0159,-0.78 0.51296,0 -0.003,0.7793 0,0.4635 z" inkscape:connector-curvature="0" sodipodi:nodetypes="cccccccc"/>
        <rect style="fill:#666666;fill-opacity:1;stroke:#1a1a1a;stroke-width:0.61633438" id="rect150218" width="31.550442" height="6.1957226" x="586.43988" y="7951.1172" transform="matrix(1,0,-0.01820351,0.9998343,0,0)"/>
        <path id="path150220" style="fill:#000000;fill-opacity:1;fill-rule:nonzero;stroke:none" d="m 445.26828,7951.1469 c 0,0.3698 -0.48507,0.6697 -1.08353,0.6697 -0.59846,0 -1.08354,-0.2999 -1.08354,-0.6697 0,-0.3699 0.48508,-0.6697 1.08354,-0.6697 0.59846,0 1.08353,0.2998 1.08353,0.6697 z" inkscape:connector-curvature="0"/>
        <path inkscape:connector-curvature="0" d="m 448.86009,7951.1469 c 0,0.3698 -0.48507,0.6697 -1.08353,0.6697 -0.59846,0 -1.08354,-0.2999 -1.08354,-0.6697 0,-0.3699 0.48508,-0.6697 1.08354,-0.6697 0.59846,0 1.08353,0.2998 1.08353,0.6697 z" style="fill:#000000;fill-opacity:1;fill-rule:nonzero;stroke:none" id="path150222"/>
        <path id="path150224" style="fill:#000000;fill-opacity:1;fill-rule:nonzero;stroke:none" d="m 452.63454,7951.1469 c 0,0.3698 -0.48507,0.6697 -1.08353,0.6697 -0.59846,0 -1.08354,-0.2999 -1.08354,-0.6697 0,-0.3699 0.48508,-0.6697 1.08354,-0.6697 0.59846,0 1.08353,0.2998 1.08353,0.6697 z" inkscape:connector-curvature="0"/>
        <path inkscape:connector-curvature="0" d="m 456.28723,7951.1469 c 0,0.3698 -0.48507,0.6697 -1.08353,0.6697 -0.59846,0 -1.08354,-0.2999 -1.08354,-0.6697 0,-0.3699 0.48508,-0.6697 1.08354,-0.6697 0.59846,0 1.08353,0.2998 1.08353,0.6697 z" style="fill:#000000;fill-opacity:1;fill-rule:nonzero;stroke:none" id="path150226"/>
        <path id="path150228" style="fill:#000000;fill-opacity:1;fill-rule:nonzero;stroke:none" d="m 460.0008,7951.1469 c 0,0.3698 -0.48507,0.6697 -1.08353,0.6697 -0.59846,0 -1.08354,-0.2999 -1.08354,-0.6697 0,-0.3699 0.48508,-0.6697 1.08354,-0.6697 0.59846,0 1.08353,0.2998 1.08353,0.6697 z" inkscape:connector-curvature="0"/>
        <path inkscape:connector-curvature="0" d="m 463.6535,7951.1469 c 0,0.3698 -0.48507,0.6697 -1.08353,0.6697 -0.59846,0 -1.08354,-0.2999 -1.08354,-0.6697 0,-0.3699 0.48508,-0.6697 1.08354,-0.6697 0.59846,0 1.08353,0.2998 1.08353,0.6697 z" style="fill:#000000;fill-opacity:1;fill-rule:nonzero;stroke:none" id="path150230"/>
        <path id="path150232" style="fill:#000000;fill-opacity:1;fill-rule:nonzero;stroke:none" d="m 467.30619,7951.1469 c 0,0.3698 -0.48507,0.6697 -1.08353,0.6697 -0.59846,0 -1.08354,-0.2999 -1.08354,-0.6697 0,-0.3699 0.48508,-0.6697 1.08354,-0.6697 0.59846,0 1.08353,0.2998 1.08353,0.6697 z" inkscape:connector-curvature="0"/>
        <path inkscape:connector-curvature="0" d="m 471.01976,7951.1469 c 0,0.3698 -0.48507,0.6697 -1.08353,0.6697 -0.59846,0 -1.08354,-0.2999 -1.08354,-0.6697 0,-0.3699 0.48508,-0.6697 1.08354,-0.6697 0.59846,0 1.08353,0.2998 1.08353,0.6697 z" style="fill:#000000;fill-opacity:1;fill-rule:nonzero;stroke:none" id="path150234"/>
        <path inkscape:connector-curvature="0" d="m 446.97287,7952.7906 c 0,0.3698 -0.48507,0.6697 -1.08353,0.6697 -0.59846,0 -1.08354,-0.2999 -1.08354,-0.6697 0,-0.3699 0.48508,-0.6697 1.08354,-0.6697 0.59846,0 1.08353,0.2998 1.08353,0.6697 z" style="fill:#000000;fill-opacity:1;fill-rule:nonzero;stroke:none" id="path150236"/>
        <path id="path150238" style="fill:#000000;fill-opacity:1;fill-rule:nonzero;stroke:none" d="m 450.56468,7952.7906 c 0,0.3698 -0.48507,0.6697 -1.08353,0.6697 -0.59846,0 -1.08354,-0.2999 -1.08354,-0.6697 0,-0.3699 0.48508,-0.6697 1.08354,-0.6697 0.59846,0 1.08353,0.2998 1.08353,0.6697 z" inkscape:connector-curvature="0"/>
        <path inkscape:connector-curvature="0" d="m 454.33913,7952.7906 c 0,0.3698 -0.48507,0.6697 -1.08353,0.6697 -0.59846,0 -1.08354,-0.2999 -1.08354,-0.6697 0,-0.3699 0.48508,-0.6697 1.08354,-0.6697 0.59846,0 1.08353,0.2998 1.08353,0.6697 z" style="fill:#000000;fill-opacity:1;fill-rule:nonzero;stroke:none" id="path150240"/>
        <path id="path150242" style="fill:#000000;fill-opacity:1;fill-rule:nonzero;stroke:none" d="m 457.99182,7952.7906 c 0,0.3698 -0.48507,0.6697 -1.08353,0.6697 -0.59846,0 -1.08354,-0.2999 -1.08354,-0.6697 0,-0.3699 0.48508,-0.6697 1.08354,-0.6697 0.59846,0 1.08353,0.2998 1.08353,0.6697 z" inkscape:connector-curvature="0"/>
        <path inkscape:connector-curvature="0" d="m 461.70539,7952.7906 c 0,0.3698 -0.48507,0.6697 -1.08353,0.6697 -0.59846,0 -1.08354,-0.2999 -1.08354,-0.6697 0,-0.3699 0.48508,-0.6697 1.08354,-0.6697 0.59846,0 1.08353,0.2998 1.08353,0.6697 z" style="fill:#000000;fill-opacity:1;fill-rule:nonzero;stroke:none" id="path150244"/>
        <path id="path150246" style="fill:#000000;fill-opacity:1;fill-rule:nonzero;stroke:none" d="m 465.35809,7952.7906 c 0,0.3698 -0.48507,0.6697 -1.08353,0.6697 -0.59846,0 -1.08354,-0.2999 -1.08354,-0.6697 0,-0.3699 0.48508,-0.6697 1.08354,-0.6697 0.59846,0 1.08353,0.2998 1.08353,0.6697 z" inkscape:connector-curvature="0"/>
        <path inkscape:connector-curvature="0" d="m 469.01078,7952.7906 c 0,0.3698 -0.48507,0.6697 -1.08353,0.6697 -0.59846,0 -1.08354,-0.2999 -1.08354,-0.6697 0,-0.3699 0.48508,-0.6697 1.08354,-0.6697 0.59846,0 1.08353,0.2998 1.08353,0.6697 z" style="fill:#000000;fill-opacity:1;fill-rule:nonzero;stroke:none" id="path150248"/>
        <path id="path150250" style="fill:#000000;fill-opacity:1;fill-rule:nonzero;stroke:none" d="m 472.72435,7952.7906 c 0,0.3698 -0.48507,0.6697 -1.08353,0.6697 -0.59846,0 -1.08354,-0.2999 -1.08354,-0.6697 0,-0.3699 0.48508,-0.6697 1.08354,-0.6697 0.59846,0 1.08353,0.2998 1.08353,0.6697 z" inkscape:connector-curvature="0"/>
        <path id="path150252" style="fill:#000000;fill-opacity:1;fill-rule:nonzero;stroke:none" d="m 444.90301,7954.3126 c 0,0.3698 -0.48507,0.6697 -1.08353,0.6697 -0.59846,0 -1.08354,-0.2999 -1.08354,-0.6697 0,-0.3699 0.48508,-0.6697 1.08354,-0.6697 0.59846,0 1.08353,0.2998 1.08353,0.6697 z" inkscape:connector-curvature="0"/>
        <path inkscape:connector-curvature="0" d="m 448.49482,7954.3126 c 0,0.3698 -0.48507,0.6697 -1.08353,0.6697 -0.59846,0 -1.08354,-0.2999 -1.08354,-0.6697 0,-0.3699 0.48508,-0.6697 1.08354,-0.6697 0.59846,0 1.08353,0.2998 1.08353,0.6697 z" style="fill:#000000;fill-opacity:1;fill-rule:nonzero;stroke:none" id="path150254"/>
        <path id="path150256" style="fill:#000000;fill-opacity:1;fill-rule:nonzero;stroke:none" d="m 452.26927,7954.3126 c 0,0.3698 -0.48507,0.6697 -1.08353,0.6697 -0.59846,0 -1.08354,-0.2999 -1.08354,-0.6697 0,-0.3699 0.48508,-0.6697 1.08354,-0.6697 0.59846,0 1.08353,0.2998 1.08353,0.6697 z" inkscape:connector-curvature="0"/>
        <path inkscape:connector-curvature="0" d="m 455.92196,7954.3126 c 0,0.3698 -0.48507,0.6697 -1.08353,0.6697 -0.59846,0 -1.08354,-0.2999 -1.08354,-0.6697 0,-0.3699 0.48508,-0.6697 1.08354,-0.6697 0.59846,0 1.08353,0.2998 1.08353,0.6697 z" style="fill:#000000;fill-opacity:1;fill-rule:nonzero;stroke:none" id="path150258"/>
        <path id="path150260" style="fill:#000000;fill-opacity:1;fill-rule:nonzero;stroke:none" d="m 459.63553,7954.3126 c 0,0.3698 -0.48507,0.6697 -1.08353,0.6697 -0.59846,0 -1.08354,-0.2999 -1.08354,-0.6697 0,-0.3699 0.48508,-0.6697 1.08354,-0.6697 0.59846,0 1.08353,0.2998 1.08353,0.6697 z" inkscape:connector-curvature="0"/>
        <path inkscape:connector-curvature="0" d="m 463.28823,7954.3126 c 0,0.3698 -0.48507,0.6697 -1.08353,0.6697 -0.59846,0 -1.08354,-0.2999 -1.08354,-0.6697 0,-0.3699 0.48508,-0.6697 1.08354,-0.6697 0.59846,0 1.08353,0.2998 1.08353,0.6697 z" style="fill:#000000;fill-opacity:1;fill-rule:nonzero;stroke:none" id="path150262"/>
        <path id="path150264" style="fill:#000000;fill-opacity:1;fill-rule:nonzero;stroke:none" d="m 466.94092,7954.3126 c 0,0.3698 -0.48507,0.6697 -1.08353,0.6697 -0.59846,0 -1.08354,-0.2999 -1.08354,-0.6697 0,-0.3699 0.48508,-0.6697 1.08354,-0.6697 0.59846,0 1.08353,0.2998 1.08353,0.6697 z" inkscape:connector-curvature="0"/>
        <path inkscape:connector-curvature="0" d="m 470.65449,7954.3126 c 0,0.3698 -0.48507,0.6697 -1.08353,0.6697 -0.59846,0 -1.08354,-0.2999 -1.08354,-0.6697 0,-0.3699 0.48508,-0.6697 1.08354,-0.6697 0.59846,0 1.08353,0.2998 1.08353,0.6697 z" style="fill:#000000;fill-opacity:1;fill-rule:nonzero;stroke:none" id="path150266"/>
      </g>
    </g>
  </g>
</svg>
