<?xml version="1.0" encoding="UTF-8" standalone="no"?>
<!-- Created with Inkscape (http://www.inkscape.org/) -->
<svg xmlns:dc="http://purl.org/dc/elements/1.1/" xmlns:cc="http://creativecommons.org/ns#" xmlns:rdf="http://www.w3.org/1999/02/22-rdf-syntax-ns#" xmlns:svg="http://www.w3.org/2000/svg" xmlns="http://www.w3.org/2000/svg" xmlns:xlink="http://www.w3.org/1999/xlink" xmlns:sodipodi="http://sodipodi.sourceforge.net/DTD/sodipodi-0.dtd" xmlns:inkscape="http://www.inkscape.org/namespaces/inkscape" width="128.00577" height="34.9375" id="svg144030" version="1.1" inkscape:version="0.48.0 r9654" sodipodi:docname="New document 42">
  <defs id="defs144032">
    <linearGradient inkscape:collect="always" xlink:href="#linearGradient42443-7-49-0-6" id="linearGradient150812-5" gradientUnits="userSpaceOnUse" gradientTransform="matrix(1.0705895,0,0,2.2552383,2681.571,-9998.0671)" x1="364.44846" y1="8003.1118" x2="393.69363" y2="8012.6118"/>
    <linearGradient id="linearGradient42443-7-49-0-6">
      <stop id="stop42445-53-90-5-1" offset="0" style="stop-color:#000000;stop-opacity:1;"/>
      <stop style="stop-color:#bbbbbb;stop-opacity:1;" offset="0.3702293" id="stop42447-0-6-8-1"/>
      <stop id="stop42449-3-2-0-1" offset="1" style="stop-color:#000000;stop-opacity:1;"/>
    </linearGradient>
    <inkscape:path-effect is_visible="true" id="path-effect115151-0-9-1" effect="spiro"/>
    <inkscape:path-effect is_visible="true" id="path-effect115148-1-3-3" effect="spiro"/>
    <linearGradient inkscape:collect="always" xlink:href="#linearGradient48206-5-00-0-5" id="linearGradient150814-4" gradientUnits="userSpaceOnUse" gradientTransform="matrix(1.0820341,0,-0.03023962,1.0816114,2678.599,-619.60771)" x1="675.60059" y1="8005.3086" x2="675.54651" y2="7999.9312"/>
    <linearGradient id="linearGradient48206-5-00-0-5">
      <stop style="stop-color:#ffffff;stop-opacity:1;" offset="0" id="stop48208-6-3-1-6"/>
      <stop style="stop-color:#27343c;stop-opacity:1;" offset="1" id="stop48210-0-1-2-9"/>
    </linearGradient>
    <linearGradient inkscape:collect="always" xlink:href="#linearGradient76654-2-7-7-1-3" id="linearGradient150816-2" gradientUnits="userSpaceOnUse" gradientTransform="matrix(1.0820341,0,0,2.2448329,2679.0644,-9914.2367)" x1="491.4574" y1="8005.355" x2="471.42123" y2="8002.9468"/>
    <linearGradient id="linearGradient76654-2-7-7-1-3">
      <stop style="stop-color:#000000;stop-opacity:1;" offset="0" id="stop76656-2-2-20-1-0"/>
      <stop id="stop76664-9-25-24-5-0" offset="0.35685185" style="stop-color:#bbbbbb;stop-opacity:1;"/>
      <stop style="stop-color:#000000;stop-opacity:1;" offset="1" id="stop76658-9-5-1-0-3"/>
    </linearGradient>
    <inkscape:path-effect effect="spiro" id="path-effect114909-4-2-8" is_visible="true"/>
    <inkscape:path-effect effect="spiro" id="path-effect114906-4-1-1" is_visible="true"/>
    <linearGradient inkscape:collect="always" xlink:href="#linearGradient46818-2-48-4-1" id="linearGradient150818-5" gradientUnits="userSpaceOnUse" gradientTransform="matrix(2.7085349,0,-0.04882499,1.0818583,1892.3114,-626.81389)" x1="596.23846" y1="8003.4058" x2="596.36462" y2="8010.4072"/>
    <linearGradient inkscape:collect="always" id="linearGradient46818-2-48-4-1">
      <stop style="stop-color:#333333;stop-opacity:1;" offset="0" id="stop46820-7-3-6-3"/>
      <stop style="stop-color:#333333;stop-opacity:0;" offset="1" id="stop46822-37-52-4-2"/>
    </linearGradient>
  </defs>
  <sodipodi:namedview id="base" pagecolor="#ffffff" bordercolor="#666666" borderopacity="1.0" inkscape:pageopacity="0.0" inkscape:pageshadow="2" inkscape:zoom="0.35" inkscape:cx="-146.71568" inkscape:cy="43.187567" inkscape:document-units="px" inkscape:current-layer="layer1" showgrid="false" fit-margin-top="0" fit-margin-left="0" fit-margin-right="0" fit-margin-bottom="0" inkscape:window-width="471" inkscape:window-height="431" inkscape:window-x="22" inkscape:window-y="29" inkscape:window-maximized="0"/>
  <metadata id="metadata144035">
    <rdf:RDF>
      <cc:Work rdf:about="">
        <dc:format>image/svg+xml</dc:format>
        <dc:type rdf:resource="http://purl.org/dc/dcmitype/StillImage"/>
        <dc:title/>
      </cc:Work>
    </rdf:RDF>
  </metadata>
  <g inkscape:label="Layer 1" inkscape:groupmode="layer" id="layer1" transform="translate(-521.71568,-540.61225)">
    <g style="display:inline" id="g150278" transform="translate(-2545.5938,-7490.419)">
      <path sodipodi:nodetypes="ccccc" id="path150282" style="fill:#474f51;fill-opacity:1;fill-rule:nonzero;stroke:#848484;stroke-width:0.81043929;stroke-miterlimit:4;stroke-opacity:1;stroke-dasharray:none" d="m 3073.8783,8031.4227 115.5848,0 0,34.1455 -115.5848,0 z" inkscape:connector-curvature="0"/>
      <path sodipodi:nodetypes="cccssccccccscccscsc" style="fill:url(#linearGradient150812-5);fill-opacity:1;fill-rule:nonzero;stroke:#000000;stroke-width:0.31076902;stroke-miterlimit:4;stroke-dasharray:none" d="m 3074.2358,8031.6583 c 0.7535,0 1.3888,1.7244 1.4379,3.8676 l 0.6139,26.1527 c 0.049,2.1428 -0.5229,3.8676 -1.2763,3.8676 l -5.4931,0 c -0.7535,0 -1.3889,-1.7248 -1.438,-3.8676 l -0.1454,-6.3076 0.8402,-0.2778 0,-12.1092 -1.131,0.3218 -0.1777,-7.7811 c -0.049,-2.1428 0.5229,-3.8676 1.2764,-3.8676 l 5.4931,0 z m -2.6981,13.6342 c -0.2391,0.03 -0.4225,0.1948 -0.4039,1.5605 0.019,1.3653 0.2295,1.448 0.4685,1.4219 0.2391,-0.03 0.4063,-0.1492 0.3878,-1.5144 -0.019,-1.3657 -0.2134,-1.4945 -0.4524,-1.468 z" id="path150284" inkscape:connector-curvature="0"/>
      <path style="fill:#808080;stroke:none" d="m 3072.1299,8035.0912 -1.1072,-0.1648 -1.3509,3.8013 0.3222,25.6103 1.1119,0.2777 1.5602,-4.5367 -0.9198,-0.1135 -0.6811,1.0815 -0.2922,-21.9628 1.3569,-3.993" id="path150286" inkscape:path-effect="#path-effect115151-0-9-1" inkscape:original-d="m 3072.1299,8035.0912 c -0.061,-1.7634 -0.4367,-1.1769 -1.1072,-0.1648 l -1.3509,3.8013 0.3222,25.6103 c 0.3026,1.3959 0.6756,0.6262 1.1119,0.2777 l 1.5602,-4.5367 c -0.3175,-1.1682 -0.4012,-0.5742 -0.9198,-0.1135 l -0.6811,1.0815 -0.2922,-21.9628 z" inkscape:connector-curvature="0" sodipodi:nodetypes="cccccccccc"/>
      <path style="fill:#4d4d4d;stroke:none" d="m 3072.1983,8040.5718 -1.0142,2.1392 0.2382,18.9383 1.2437,-1.5646 0.037,3.0736 -1.6039,1.4621 -0.3547,-25.6438 1.3905,-3.8886 0.063,5.4838" id="path150288" inkscape:path-effect="#path-effect115148-1-3-3" inkscape:original-d="m 3072.1983,8040.5718 -1.0142,2.1392 0.2382,18.9383 1.2437,-1.5646 0.037,3.0736 -1.6039,1.4621 -0.3547,-25.6438 1.3905,-3.8886 z" inkscape:connector-curvature="0" sodipodi:nodetypes="ccccccccc"/>
      <path id="path150290" style="fill:url(#linearGradient150814-4);fill-opacity:1;stroke:#1a1a1a;stroke-width:0.51374948" d="m 3151.8994,8033.155 32.5924,0 -0.1165,4.1673 -32.5924,0 z" inkscape:connector-curvature="0"/>
      <path id="path150292" style="font-size:11.09256554px;font-style:normal;font-variant:normal;font-weight:bold;font-stretch:normal;line-height:125%;letter-spacing:0px;word-spacing:0px;fill:#ffffff;fill-opacity:1;stroke:none;font-family:Arial;-inkscape-font-specification:Arial Bold" d="m 3182.077,8034.0876 0.4495,0 c 0.1013,0 0.1771,0.01 0.2271,0.02 0.067,0.017 0.1207,0.048 0.1607,0.092 0.04,0.044 0.065,0.099 0.076,0.1631 0.011,0.065 0,0.1435 -0.019,0.2377 -0.02,0.083 -0.05,0.1542 -0.09,0.2142 -0.049,0.073 -0.1066,0.1324 -0.1743,0.1777 -0.051,0.034 -0.1154,0.062 -0.1926,0.08 -0.058,0.014 -0.1322,0.021 -0.223,0.021 l -0.4628,0 z m 0.2039,0.1702 -0.1643,0.6665 0.1836,0 c 0.069,0 0.119,0 0.1511,-0.01 0.042,-0.01 0.078,-0.023 0.1096,-0.042 0.031,-0.02 0.061,-0.052 0.088,-0.098 0.028,-0.045 0.051,-0.1064 0.07,-0.1842 0.019,-0.078 0.026,-0.1375 0.019,-0.1792 -0.01,-0.042 -0.022,-0.074 -0.046,-0.097 -0.024,-0.024 -0.058,-0.039 -0.1022,-0.047 -0.033,-0.01 -0.099,-0.01 -0.1995,-0.01 z m -1.2772,0.836 -0.1872,-1.0062 0.2667,0 0.1246,0.7447 0.482,-0.7447 0.2609,0 -0.6844,1.0062 z m -1.2932,-1.0062 0.4496,0 c 0.1013,0 0.1771,0.01 0.227,0.02 0.067,0.017 0.1208,0.048 0.1608,0.092 0.04,0.044 0.065,0.099 0.076,0.1631 0.011,0.065 0,0.1435 -0.019,0.2377 -0.02,0.083 -0.05,0.1542 -0.09,0.2142 -0.049,0.073 -0.1067,0.1324 -0.1743,0.1777 -0.051,0.034 -0.1154,0.062 -0.1927,0.08 -0.058,0.014 -0.1321,0.021 -0.2229,0.021 l -0.4628,0 z m 0.204,0.1702 -0.1644,0.6665 0.1837,0 c 0.069,0 0.119,0 0.1511,-0.01 0.042,-0.01 0.078,-0.023 0.1096,-0.042 0.031,-0.02 0.061,-0.052 0.088,-0.098 0.028,-0.045 0.051,-0.1064 0.07,-0.1842 0.019,-0.078 0.026,-0.1375 0.019,-0.1792 -0.01,-0.042 -0.022,-0.074 -0.046,-0.097 -0.024,-0.024 -0.058,-0.039 -0.1021,-0.047 -0.033,-0.01 -0.099,-0.01 -0.1995,-0.01 z" inkscape:connector-curvature="0"/>
      <path inkscape:connector-curvature="0" id="path150294" d="m 3181.2289,8035.4035 c -1.116,0 -2.0207,0.1243 -2.0207,0.2785 0,0.154 0.9047,0.2784 2.0207,0.2784 1.1161,0 2.0208,-0.1244 2.0208,-0.2784 0,-0.1542 -0.9047,-0.2785 -2.0208,-0.2785 z m 0,0.2013 c 0.3133,0 0.5673,0.035 0.5673,0.077 0,0.043 -0.254,0.077 -0.5673,0.077 -0.3132,0 -0.5672,-0.035 -0.5672,-0.077 0,-0.043 0.254,-0.077 0.5672,-0.077 z" style="fill:#ffffff;stroke:none"/>
      <text transform="scale(1.0170762,0.98321049)" sodipodi:linespacing="125%" id="text150296" y="8173.9023" x="3127.0452" style="font-size:0.66138339px;font-style:normal;font-variant:normal;font-weight:normal;font-stretch:normal;line-height:125%;letter-spacing:0px;word-spacing:0px;fill:#ffffff;fill-opacity:1;stroke:none;font-family:Arial;-inkscape-font-specification:Arial" xml:space="preserve"><tspan y="8173.9023" x="3127.0452" id="tspan150298" sodipodi:role="line">ROM</tspan></text>
      <path id="path150300" style="fill:#ffffff;fill-opacity:1;fill-rule:evenodd;stroke:none" d="m 3170.009,8034.3202 c 0,0 -0.1,0 -0.1,0 0,0 0,-0.1239 0,-0.1239 0,0 0.1032,0 0.1032,0 0.05,0 0.075,0.02 0.075,0.058 0,0.044 -0.026,0.065 -0.078,0.065 z m 0.7939,0.062 c -0.014,0.069 -0.051,0.1032 -0.1104,0.1032 -0.083,0 -0.1246,-0.05 -0.1246,-0.1514 0,-0.099 0.042,-0.148 0.1246,-0.148 0.059,0 0.095,0.025 0.1068,0.076 0,0 0.05,0 0.05,0 -0.017,-0.08 -0.069,-0.1204 -0.1567,-0.1204 -0.1187,0 -0.178,0.064 -0.178,0.1927 0,0.1286 0.057,0.1928 0.1709,0.1928 0.097,0 0.1531,-0.048 0.1674,-0.1446 0,0 -0.05,0 -0.05,0 z m -1.6876,-0.2409 c -0.1234,0 -0.1851,0.064 -0.1851,0.1927 0,0.1286 0.062,0.1928 0.1851,0.1928 0.1235,0 0.1852,-0.064 0.1852,-0.1928 0,-0.1285 -0.062,-0.1927 -0.1852,-0.1927 z m -0.2989,0.2409 c -0.012,0.069 -0.048,0.1032 -0.1069,0.1032 -0.085,0 -0.1281,-0.05 -0.1281,-0.1514 0,-0.099 0.041,-0.148 0.1246,-0.148 0.059,0 0.095,0.025 0.1068,0.076 0,0 0.05,0 0.05,0 -0.01,-0.08 -0.062,-0.1204 -0.1566,-0.1204 -0.1163,0 -0.1745,0.064 -0.1745,0.1927 0,0.1286 0.056,0.1928 0.1673,0.1928 0.097,0 0.1531,-0.048 0.1674,-0.1446 0,0 -0.05,0 -0.05,0 z m 2.371,-0.2306 c 0,0 -0.3061,0 -0.3061,0 0,0 0,0.045 0,0.045 0,0 0.1281,0 0.1281,0 0,0 0,0.3235 0,0.3235 0,0 0.05,0 0.05,0 0,0 0,-0.3235 0,-0.3235 0,0 0.1282,0 0.1282,0 0,0 0,-0.045 0,-0.045 z m -0.8295,0 c 0,0 -0.057,0 -0.057,0 0,0 -0.1423,0.3683 -0.1423,0.3683 0,0 0.053,0 0.053,0 0,0 0.039,-0.1067 0.039,-0.1067 0,0 0.1531,0 0.1531,0 0,0 0.036,0.1067 0.036,0.1067 0,0 0.057,0 0.057,0 0,0 -0.1389,-0.3683 -0.1389,-0.3683 z m -0.3311,0 c 0,0 -0.1673,0 -0.1673,0 0,0 0,0.3683 0,0.3683 0,0 0.05,0 0.05,0 0,0 0,-0.1549 0,-0.1549 0,0 0.1175,0 0.1175,0 0.076,0 0.1139,-0.037 0.1139,-0.1102 0,-0.069 -0.038,-0.1032 -0.1139,-0.1032 z m -0.2777,0 c 0,0 -0.071,0 -0.071,0 0,0 -0.1104,0.3098 -0.1104,0.3098 0,0 -0.1068,-0.3098 -0.1068,-0.3098 0,0 -0.075,0 -0.075,0 0,0 0,0.3683 0,0.3683 0,0 0.05,0 0.05,0 0,0 0,-0.3063 0,-0.3063 0,0 0.1068,0.3063 0.1068,0.3063 0,0 0.05,0 0.05,0 0,0 0.1104,-0.3098 0.1104,-0.3098 0,0 0,0.093 0,0.093 0,0 0,0.2169 0,0.2169 0,0 0.05,0 0.05,0 0,0 0,-0.3683 0,-0.3683 z m -1.4312,0.065 c 0,-0.028 -0.014,-0.041 -0.043,-0.041 0,0 -0.388,0 -0.388,0 -0.028,0 -0.043,0.014 -0.043,0.041 0,0 0,0.3889 0,0.3889 0,0.018 -0.01,0.028 -0.028,0.028 0,0 -0.356,0 -0.356,0 -0.074,0 -0.1341,0.023 -0.1816,0.071 -0.048,0.047 -0.071,0.1061 -0.071,0.1773 0,0 0,0.8569 0,0.8569 0,0.069 0.024,0.1274 0.073,0.1756 0.049,0.048 0.1085,0.072 0.1798,0.072 0,0 0.8152,0 0.8152,0 0.029,0 0.043,-0.015 0.043,-0.045 0,0 0,-1.7243 0,-1.7243 z m 2.9585,1.2011 c 0,-0.03 -0.014,-0.045 -0.043,-0.045 0,0 -0.3559,0 -0.3559,0 -0.031,0 -0.046,0.015 -0.046,0.045 0,0 0,0.1996 0,0.1996 0,0.057 -0.028,0.086 -0.086,0.086 -0.059,0 -0.089,-0.029 -0.089,-0.086 0,0 0,-0.6125 0,-0.6125 0,-0.057 0.03,-0.086 0.089,-0.086 0.057,0 0.086,0.029 0.086,0.086 0,0 0,0.1617 0,0.1617 0,0.028 0.015,0.041 0.046,0.041 0,0 0.3559,0 0.3559,0 0.029,0 0.043,-0.014 0.043,-0.041 0,0 0,-0.2856 0,-0.2856 0,-0.069 -0.025,-0.1274 -0.075,-0.1755 -0.05,-0.048 -0.1104,-0.072 -0.1816,-0.072 0,0 -0.5482,0 -0.5482,0 -0.071,0 -0.1318,0.024 -0.1817,0.072 -0.05,0.048 -0.075,0.1067 -0.075,0.1755 0,0 0,0.8535 0,0.8535 0,0.071 0.024,0.1308 0.073,0.179 0.049,0.048 0.1098,0.072 0.1834,0.072 0,0 0.5482,0 0.5482,0 0.073,0 0.1346,-0.024 0.1833,-0.072 0.049,-0.048 0.073,-0.1079 0.073,-0.179 0,0 0,-0.3167 0,-0.3167 z m -1.1784,-0.072 c 0,-0.069 -0.025,-0.1273 -0.075,-0.1755 -0.05,-0.048 -0.1104,-0.072 -0.1816,-0.072 0,0 -0.3312,0 -0.3312,0 -0.036,0 -0.053,-0.017 -0.053,-0.052 0,-0.037 0.018,-0.055 0.053,-0.055 0,0 0.4985,0 0.4985,0 0.028,0 0.043,-0.014 0.043,-0.041 0,0 0,-0.2753 0,-0.2753 0,-0.028 -0.014,-0.041 -0.043,-0.041 0,0 -0.7049,0 -0.7049,0 -0.071,0 -0.1318,0.024 -0.1816,0.072 -0.05,0.048 -0.075,0.1067 -0.075,0.1755 0,0 0,0.3647 0,0.3647 0,0.069 0.025,0.1274 0.075,0.1756 0.05,0.048 0.1103,0.072 0.1816,0.072 0,0 0.3311,0 0.3311,0 0.045,0 0.068,0.023 0.068,0.069 0,0.041 -0.023,0.062 -0.068,0.062 0,0 -0.5448,0 -0.5448,0 -0.028,0 -0.043,0.015 -0.043,0.045 0,0 0,0.272 0,0.272 0,0.03 0.014,0.045 0.043,0.045 0,0 0.7513,0 0.7513,0 0.073,0 0.1346,-0.024 0.1833,-0.072 0.049,-0.048 0.073,-0.1079 0.073,-0.179 0,0 0,-0.389 0,-0.389 z m 1.0788,1.1531 c 0,0 -0.228,0 -0.228,0 0,0 0,-0.1239 0,-0.1239 0,0 0.2065,0 0.2065,0 0,0 0,-0.041 0,-0.041 0,0 -0.2065,0 -0.2065,0 0,0 0,-0.1135 0,-0.1135 0,0 0.2244,0 0.2244,0 0,0 0,-0.045 0,-0.045 0,0 -0.2742,0 -0.2742,0 0,0 0,0.3648 0,0.3648 0,0 0.2778,0 0.2778,0 0,0 0,-0.041 0,-0.041 z m -0.3703,-0.1515 c 0,0 -0.1674,0 -0.1674,0 0,0 0,0.041 0,0.041 0,0 0.1176,0 0.1176,0 0,0.08 -0.039,0.1204 -0.1176,0.1204 -0.083,0 -0.1246,-0.05 -0.1246,-0.1514 0,-0.099 0.042,-0.148 0.1246,-0.148 0.062,0 0.099,0.025 0.1104,0.076 0,0 0.05,0 0.05,0 -0.01,-0.08 -0.063,-0.1204 -0.1602,-0.1204 -0.1187,0 -0.178,0.064 -0.178,0.1927 0,0.064 0.017,0.1125 0.052,0.1446 0.034,0.032 0.075,0.048 0.1228,0.048 0.057,0 0.099,-0.02 0.1247,-0.059 0,0 0.014,0.048 0.014,0.048 0,0 0.032,0 0.032,0 0,0 0,-0.1927 0,-0.1927 z m -0.4984,-0.1721 c 0,0 -0.057,0 -0.057,0 0,0 -0.146,0.3648 -0.146,0.3648 0,0 0.053,0 0.053,0 0,0 0.039,-0.1032 0.039,-0.1032 0,0 0.153,0 0.153,0 0,0 0.039,0.1032 0.039,0.1032 0,0 0.053,0 0.053,0 0,0 -0.1353,-0.3648 -0.1353,-0.3648 z m -0.2137,0.3579 c -0.012,0 -0.018,-0.017 -0.018,-0.038 0,0 0,-0.065 0,-0.065 0,-0.03 -0.018,-0.053 -0.046,-0.069 0.036,-0.018 0.053,-0.047 0.053,-0.086 0,-0.066 -0.042,-0.1 -0.1247,-0.1 0,0 -0.1779,0 -0.1779,0 0,0 0,0.3648 0,0.3648 0,0 0.053,0 0.053,0 0,0 0,-0.1549 0,-0.1549 0,0 0.1245,0 0.1245,0 0.043,0 0.065,0.022 0.068,0.065 0,0 0.01,0.089 0.01,0.089 0,0 0.064,-0.01 0.064,-0.01 z m -0.5518,-0.3682 c -0.1234,0 -0.1851,0.064 -0.1851,0.1927 0,0.055 0.017,0.101 0.05,0.1377 0.033,0.037 0.078,0.055 0.1353,0.055 0.1234,0 0.1851,-0.064 0.1851,-0.1928 0,-0.1285 -0.062,-0.1927 -0.1851,-0.1927 z m -0.1851,0.01 c 0,0 -0.3098,0 -0.3098,0 0,0 0,0.045 0,0.045 0,0 0.1318,0 0.1318,0 0,0 0,0.32 0,0.32 0,0 0.05,0 0.05,0 0,0 0,-0.32 0,-0.32 0,0 0.1282,0 0.1282,0 0,0 0,-0.045 0,-0.045 z m -0.4058,0.1652 c 0,0 -0.1069,-0.024 -0.1069,-0.024 -0.031,-0.01 -0.046,-0.022 -0.046,-0.045 0,-0.044 0.029,-0.065 0.085,-0.065 0.064,0 0.096,0.025 0.096,0.076 0,0 0.046,0 0.046,0 0,-0.078 -0.049,-0.117 -0.146,-0.117 -0.088,0 -0.1317,0.038 -0.1317,0.1135 0,0.046 0.027,0.075 0.082,0.086 0,0 0.075,0.017 0.075,0.017 0.055,0.012 0.082,0.033 0.082,0.065 0,0.041 -0.033,0.062 -0.1,0.062 -0.069,0 -0.1032,-0.029 -0.1032,-0.086 0,0 -0.046,0 -0.046,0 0,0.085 0.05,0.1274 0.1495,0.1274 0.1,0 0.1495,-0.037 0.1495,-0.1102 0,-0.053 -0.028,-0.086 -0.085,-0.1 z m -0.5698,-0.1652 c 0,0 -0.057,0 -0.057,0 0,0 -0.1425,0.3648 -0.1425,0.3648 0,0 0.053,0 0.053,0 0,0 0.039,-0.1032 0.039,-0.1032 0,0 0.1532,0 0.1532,0 0,0 0.035,0.1032 0.035,0.1032 0,0 0.057,0 0.057,0 0,0 -0.1389,-0.3648 -0.1389,-0.3648 z m -0.1317,0 c 0,0 -0.3097,0 -0.3097,0 0,0 0,0.045 0,0.045 0,0 0.1317,0 0.1317,0 0,0 0,0.32 0,0.32 0,0 0.053,0 0.053,0 0,0 0,-0.32 0,-0.32 0,0 0.1246,0 0.1246,0 0,0 0,-0.045 0,-0.045 z m -0.4058,0 c 0,0 -0.061,0 -0.061,0 0,0 -0.1424,0.3648 -0.1424,0.3648 0,0 0.053,0 0.053,0 0,0 0.039,-0.1032 0.039,-0.1032 0,0 0.1531,0 0.1531,0 0,0 0.039,0.1032 0.039,0.1032 0,0 0.057,0 0.057,0 0,0 -0.1389,-0.3648 -0.1389,-0.3648 z m -0.3916,0 c 0,0 -0.1567,0 -0.1567,0 0,0 0,0.3648 0,0.3648 0,0 0.1531,0 0.1531,0 0.1068,0 0.1602,-0.062 0.1602,-0.1859 0,-0.1193 -0.052,-0.1789 -0.1566,-0.1789 z m 2.8125,-1.8068 c 0,0 0.064,-0.1618 0.064,-0.1618 0,0 0.053,0.1618 0.053,0.1618 0,0 -0.1175,0 -0.1175,0 z m -1.15,0.1169 c -0.088,0 -0.1317,-0.05 -0.1317,-0.1514 0,-0.099 0.044,-0.148 0.1317,-0.148 0.088,0 0.1318,0.049 0.1318,0.148 0,0.101 -0.044,0.1514 -0.1318,0.1514 z m -0.9006,1.4215 c 0,0 -0.7548,0 -0.7548,0 -0.05,0 -0.091,-0.016 -0.1246,-0.048 -0.033,-0.032 -0.05,-0.072 -0.05,-0.1205 0,0 0,-0.8569 0,-0.8569 0,-0.048 0.017,-0.088 0.05,-0.1205 0.033,-0.032 0.075,-0.048 0.1246,-0.048 0,0 0.4201,0 0.4201,0 0.028,0 0.043,-0.015 0.043,-0.045 0,0 0,-0.389 0,-0.389 0,-0.018 0.01,-0.028 0.028,-0.028 0,0 0.2635,0 0.2635,0 0.017,0.016 0.025,0.025 0.025,0.028 0,0 0,1.6039 0,1.6039 0,0 -0.01,0.013 -0.025,0.024 z m 2.9317,-0.05 c -0.034,0.033 -0.077,0.05 -0.1263,0.05 0,0 -0.5482,0 -0.5482,0 -0.05,0 -0.093,-0.017 -0.1283,-0.05 -0.035,-0.033 -0.053,-0.074 -0.053,-0.1222 0,0 0,-0.8535 0,-0.8535 0,-0.048 0.018,-0.088 0.053,-0.1205 0.035,-0.032 0.078,-0.048 0.1283,-0.048 0,0 0.5482,0 0.5482,0 0.052,0 0.095,0.016 0.1282,0.047 0.033,0.031 0.05,0.072 0.05,0.1222 0,0 0,0.2271 0,0.2271 0,0.016 -0.01,0.024 -0.025,0.024 0,0 -0.235,0 -0.235,0 -0.017,0 -0.025,-0.01 -0.025,-0.024 0,0 0,-0.1032 0,-0.1032 0,-0.046 -0.016,-0.084 -0.048,-0.1153 -0.032,-0.031 -0.072,-0.046 -0.1193,-0.046 -0.047,0 -0.087,0.015 -0.1192,0.046 -0.032,0.031 -0.048,0.069 -0.048,0.1153 0,0 0,0.6125 0,0.6125 0,0.046 0.016,0.084 0.048,0.1154 0.032,0.031 0.072,0.046 0.1192,0.046 0.048,0 0.087,-0.015 0.1193,-0.046 0.032,-0.031 0.048,-0.07 0.048,-0.1154 0,0 0,-0.1445 0,-0.1445 0,-0.016 0.01,-0.024 0.025,-0.024 0,0 0.235,0 0.235,0 0,0 0.013,0.01 0.025,0.024 0,0 0,0.2616 0,0.2616 0,0.048 -0.017,0.089 -0.052,0.1222 z m -1.1784,0 c -0.034,0.033 -0.076,0.05 -0.1263,0.05 0,0 -0.6871,0 -0.6871,0 -0.019,0 -0.028,-0.01 -0.028,-0.024 0,0 0,-0.1549 0,-0.1549 0,-0.016 0.01,-0.024 0.028,-0.024 0,0 0.4806,0 0.4806,0 0.04,0 0.075,-0.014 0.1032,-0.041 0.028,-0.028 0.043,-0.061 0.043,-0.1 0,-0.041 -0.014,-0.076 -0.041,-0.1032 -0.027,-0.028 -0.062,-0.041 -0.105,-0.041 0,0 -0.3311,0 -0.3311,0 -0.05,0 -0.092,-0.017 -0.1265,-0.05 -0.034,-0.033 -0.052,-0.074 -0.052,-0.1223 0,0 0,-0.3647 0,-0.3647 0,-0.048 0.017,-0.088 0.052,-0.1205 0.034,-0.032 0.077,-0.048 0.1265,-0.048 0,0 0.6408,0 0.6408,0 0.017,0 0.025,0.01 0.025,0.024 0,0 0,0.1514 0,0.1514 0,0.018 -0.01,0.028 -0.025,0.028 0,0 -0.4344,0 -0.4344,0 -0.088,0 -0.1317,0.044 -0.1317,0.1308 0,0.034 0.013,0.064 0.039,0.09 0.026,0.025 0.057,0.038 0.093,0.038 0,0 0.3312,0 0.3312,0 0.047,0 0.089,0.017 0.1246,0.052 0.035,0.034 0.053,0.075 0.053,0.1204 0,0 0,0.389 0,0.389 0,0.048 -0.017,0.089 -0.052,0.1222 z m -1.0805,0.129 c 0,0 -0.388,0 -0.388,0 -0.028,0 -0.043,-0.015 -0.043,-0.045 0,0 0,-1.2665 0,-1.2665 0,-0.028 0.014,-0.041 0.043,-0.041 0,0 0.388,0 0.388,0 0.028,0 0.043,0.014 0.043,0.041 0,0 0,1.2665 0,1.2665 0,0.03 -0.014,0.045 -0.043,0.045 z m 1.0645,0.3545 c 0,0 -0.121,0 -0.121,0 0,0 0,-0.1239 0,-0.1239 0,0 0.1281,0 0.1281,0 0.045,0 0.068,0.021 0.068,0.062 0,0.041 -0.025,0.062 -0.075,0.062 z m 0.2635,0.048 c 0,0 0.061,-0.1618 0.061,-0.1618 0,0 0.057,0.1618 0.057,0.1618 0,0 -0.1175,0 -0.1175,0 z m -1.9261,0 c 0,0 0.064,-0.1618 0.064,-0.1618 0,0 0.053,0.1618 0.053,0.1618 0,0 -0.1175,0 -0.1175,0 z m -0.5376,0 c 0,0 0.061,-0.1618 0.061,-0.1618 0,0 0.057,0.1618 0.057,0.1618 0,0 -0.1175,0 -0.1175,0 z m -0.3026,0.1102 c 0,0 -0.1,0 -0.1,0 0,0 0,-0.2823 0,-0.2823 0,0 0.093,0 0.093,0 0.078,0 0.1175,0.047 0.1175,0.1411 0,0.094 -0.037,0.1412 -0.1104,0.1412 z m 2.0934,0.01 c -0.088,0 -0.1317,-0.05 -0.1317,-0.1514 0,-0.099 0.044,-0.148 0.1317,-0.148 0.09,0 0.1353,0.049 0.1353,0.148 0,0.101 -0.045,0.1514 -0.1353,0.1514 z m -0.6907,-1.7724 c 0,-0.016 -0.01,-0.024 -0.025,-0.024 0,0 -0.2635,0 -0.2635,0 -0.017,0 -0.025,0.01 -0.025,0.024 0,0 0,1.1461 0,1.1461 0,0.016 0.01,0.024 0.025,0.024 0,0 0.2635,0 0.2635,0 0.017,0 0.025,-0.01 0.025,-0.024 0,0 0,-1.1461 0,-1.1461 z m -0.9256,0.2616 c 0,-0.043 -0.016,-0.081 -0.048,-0.1119 -0.032,-0.031 -0.071,-0.047 -0.1157,-0.047 -0.045,0 -0.083,0.016 -0.114,0.047 -0.031,0.031 -0.046,0.068 -0.046,0.1119 0,0 0,0.6298 0,0.6298 0,0.046 0.015,0.084 0.044,0.1136 0.03,0.03 0.068,0.045 0.1157,0.045 0.045,0 0.084,-0.015 0.1157,-0.046 0.032,-0.031 0.048,-0.068 0.048,-0.1118 0,0 0,-0.6298 0,-0.6298 z m -0.1638,0.7089 c -0.055,0 -0.082,-0.026 -0.082,-0.079 0,0 0,-0.6298 0,-0.6298 0,-0.053 0.027,-0.079 0.082,-0.079 0.052,0 0.078,0.026 0.078,0.079 0,0 0,0.6298 0,0.6298 0,0.053 -0.026,0.079 -0.078,0.079 z" inkscape:connector-curvature="0"/>
      <path inkscape:connector-curvature="0" d="m 3146.3642,8032.8231 1.9594,0 0,2.4741 -1.9594,0 z" style="fill:#00b7e8;fill-opacity:1;fill-rule:nonzero;stroke:none" id="path150302"/>
      <path inkscape:connector-curvature="0" id="path150304" style="fill:#e51d00;fill-opacity:1;fill-rule:nonzero;stroke:none" d="m 3143.5056,8032.823 1.9594,0 0,2.4742 -1.9594,0 z"/>
      <path inkscape:connector-curvature="0" d="m 3140.3884,8032.7774 1.246,0 0,4.3672 -1.246,0 z" style="fill:#999999;fill-opacity:1;fill-rule:nonzero;stroke:#1a1a1a;stroke-width:0.21079655;stroke-miterlimit:4" id="path150306"/>
      <path id="path150308" style="fill:#999999;fill-opacity:1;fill-rule:nonzero;stroke:#1a1a1a;stroke-width:0.1318544;stroke-miterlimit:4" d="m 3141.1469,8032.7774 0.4875,0 0,4.3672 -0.4875,0 z" inkscape:connector-curvature="0"/>
      <path id="path150310" style="fill:#00ff00;fill-opacity:1;fill-rule:nonzero;stroke:none" d="m 3146.3642,8036.2259 1.9594,0 0,1.082 -1.9594,0 z" inkscape:connector-curvature="0"/>
      <path d="m 3143.5056,8036.2258 1.9594,0 0,1.0821 -1.9594,0 z" style="fill:#ff6600;fill-opacity:1;fill-rule:nonzero;stroke:none" id="path150312" inkscape:connector-curvature="0"/>
      <path id="path150314" style="fill:#808080;fill-opacity:1;stroke:#000000;stroke-width:0.44053429" d="m 3077.334,8051.8344 30.2538,0.049 0.1832,6.404 -30.1839,-0.047 z" inkscape:connector-curvature="0" sodipodi:nodetypes="ccccc"/>
      <path style="fill:#000000;stroke:none" d="m 3080.6521,8053.5058 7.3806,0 0,0.7428 -7.3806,0 z" id="path150316" inkscape:connector-curvature="0"/>
      <path style="fill:#000000;stroke:none" d="m 3098.8228,8053.3701 0,3.2963 3.1351,0 0,-2.8356 0,-0.2439 0,-0.2168 -1.4369,0 0.7347,0.012 -0.016,0.105 0,3.064 -1.0287,0 -0.016,0.093 -0.6695,0 0,-0.093 0,-3.064 0.9797,0 0.016,-0.1161 z" id="path150318" inkscape:connector-curvature="0" sodipodi:nodetypes="cccccccccccccccccc"/>
      <path id="path150320" d="m 3089.4043,8053.5058 7.3806,0 0,0.7428 -7.3806,0 z" style="fill:#000000;stroke:none" inkscape:connector-curvature="0"/>
      <path id="path150322" d="m 3080.861,8054.8985 7.3807,0 0,0.418 -7.3807,0 z" style="fill:#000000;stroke:none" inkscape:connector-curvature="0"/>
      <path inkscape:connector-curvature="0" style="fill:#000000;stroke:none" d="m 3089.6133,8054.8985 7.3806,0 0,0.418 -7.3806,0 z" id="path150324"/>
      <path inkscape:connector-curvature="0" style="fill:#000000;stroke:none" d="m 3081.0178,8056.0129 7.3806,0 0,0.4178 -7.3806,0 z" id="path150326"/>
      <path id="path150328" d="m 3089.7701,8056.0129 7.3806,0 0,0.4178 -7.3806,0 z" style="fill:#000000;stroke:none" inkscape:connector-curvature="0"/>
      <path id="path150330" d="m 3081.0701,8057.0808 7.3806,0 0,0.4177 -7.3806,0 z" style="fill:#000000;stroke:none" inkscape:connector-curvature="0"/>
      <path inkscape:connector-curvature="0" style="fill:#000000;stroke:none" d="m 3089.8223,8057.0808 7.3806,0 0,0.4177 -7.3806,0 z" id="path150332"/>
      <path id="path150334" d="m 3098.7052,8057.0808 7.3806,0 0,0.4177 -7.3806,0 z" style="fill:#000000;stroke:none" inkscape:connector-curvature="0"/>
      <path id="path150336" style="fill:#000000;stroke:none" d="m 3077.334,8052.9022 0.9144,0 c 0,0 0.254,2.324 0.381,3.4862 0.01,0.042 0.3262,0.045 0.6383,0.081 0.08,0.011 0.01,-1.2255 -0.035,-2.3491 -0.019,-0.5124 -0.091,-1.2443 -0.061,-1.561 2.8774,-0.052 22.2534,-0.01 25.0548,0 0.017,0.2963 0.018,0.2279 0.01,0.3251 -1.0214,0.011 -24.5329,-0.01 -24.519,0 0.1466,1.4149 0.077,3.6729 0.2085,4.754 -0.8204,-0.014 -1.2738,0.045 -2.0696,0.045 z" inkscape:connector-curvature="0" sodipodi:nodetypes="ccsssccccccc"/>
      <path id="path150338" style="fill:#333333;fill-opacity:1;fill-rule:nonzero;stroke:none" d="m 3102.7558,8053.3505 0,0.476 2.1705,0 0.016,0.8008 0.5266,0 0,-0.8001 0,-0.4758 z" inkscape:connector-curvature="0" sodipodi:nodetypes="cccccccc"/>
      <path sodipodi:nodetypes="cccccccc" inkscape:connector-curvature="0" d="m 3102.7559,8056.6701 0,-0.4758 2.1703,0 0.016,-0.8009 0.5267,0 0,0.8 0,0.4758 z" style="fill:#333333;fill-opacity:1;fill-rule:nonzero;stroke:none" id="path150340"/>
      <path sodipodi:nodetypes="ccccc" inkscape:connector-curvature="0" d="m 3077.6585,8058.4759 30.1103,-0.046 0.1832,6.4518 -29.9926,2e-4 z" style="fill:#808080;fill-opacity:1;stroke:#000000;stroke-width:0.44053429" id="path150342"/>
      <path inkscape:connector-curvature="0" id="path150344" d="m 3080.9765,8060.1472 7.3806,0 0,0.7428 -7.3806,0 z" style="fill:#000000;stroke:none"/>
      <path sodipodi:nodetypes="cccccccccccccccccc" inkscape:connector-curvature="0" id="path150346" d="m 3099.1472,8060.0115 0,3.2963 3.1352,0 0,-2.8355 0,-0.2439 0,-0.2169 -1.437,0 0.7348,0.012 -0.016,0.105 0,3.0641 -1.0287,0 -0.016,0.093 -0.6694,0 0,-0.093 0,-3.0641 0.9797,0 0.016,-0.1162 z" style="fill:#000000;stroke:none"/>
      <path inkscape:connector-curvature="0" style="fill:#000000;stroke:none" d="m 3089.7288,8060.1472 7.3806,0 0,0.7428 -7.3806,0 z" id="path150348"/>
      <path inkscape:connector-curvature="0" style="fill:#000000;stroke:none" d="m 3081.1855,8061.54 7.3806,0 0,0.4179 -7.3806,0 z" id="path150350"/>
      <path id="path150352" d="m 3089.9378,8061.54 7.3806,0 0,0.4179 -7.3806,0 z" style="fill:#000000;stroke:none" inkscape:connector-curvature="0"/>
      <path id="path150354" d="m 3081.3423,8062.6543 7.3806,0 0,0.4178 -7.3806,0 z" style="fill:#000000;stroke:none" inkscape:connector-curvature="0"/>
      <path inkscape:connector-curvature="0" style="fill:#000000;stroke:none" d="m 3090.0945,8062.6543 7.3807,0 0,0.4178 -7.3807,0 z" id="path150356"/>
      <path inkscape:connector-curvature="0" style="fill:#000000;stroke:none" d="m 3081.3945,8063.7221 7.3807,0 0,0.4178 -7.3807,0 z" id="path150358"/>
      <path id="path150360" d="m 3090.1468,8063.7221 7.3806,0 0,0.4178 -7.3806,0 z" style="fill:#000000;stroke:none" inkscape:connector-curvature="0"/>
      <path inkscape:connector-curvature="0" style="fill:#000000;stroke:none" d="m 3099.0297,8063.7221 7.3806,0 0,0.4178 -7.3806,0 z" id="path150362"/>
      <path sodipodi:nodetypes="ccsssccccccc" inkscape:connector-curvature="0" d="m 3077.6585,8059.5437 0.9144,0 c 0,0 0.254,2.324 0.3809,3.4861 0.01,0.042 0.3263,0.045 0.6384,0.081 0.08,0.01 0.01,-1.2254 -0.035,-2.349 -0.019,-0.5123 -0.091,-1.2444 -0.061,-1.5609 2.8774,-0.052 22.2533,-0.011 25.0548,0 0.017,0.2962 0.018,0.2276 0.01,0.3249 -1.0213,0.011 -24.5329,-0.011 -24.519,0 0.1466,1.4148 0.077,3.6729 0.2085,4.7541 -0.8203,-0.014 -1.2737,0.045 -2.0695,0.045 z" style="fill:#000000;stroke:none" id="path150364"/>
      <path sodipodi:nodetypes="cccccccc" inkscape:connector-curvature="0" d="m 3103.0803,8059.9919 0,0.4761 2.1704,0 0.016,0.8007 0.5267,0 0,-0.8 0,-0.4758 z" style="fill:#333333;fill-opacity:1;fill-rule:nonzero;stroke:none" id="path150366"/>
      <path id="path150368" style="fill:#333333;fill-opacity:1;fill-rule:nonzero;stroke:none" d="m 3103.0803,8063.3115 0,-0.4759 2.1704,0 0.016,-0.8008 0.5266,0 0,0.8001 0,0.4758 z" inkscape:connector-curvature="0" sodipodi:nodetypes="cccccccc"/>
      <path sodipodi:nodetypes="ccccc" inkscape:connector-curvature="0" d="m 3076.9343,8038.7375 30.2538,0.049 0.1831,6.4039 -30.1838,-0.047 z" style="fill:#808080;fill-opacity:1;stroke:#000000;stroke-width:0.44053429" id="path150370"/>
      <path inkscape:connector-curvature="0" id="path150372" d="m 3080.2523,8040.4088 7.3806,0 0,0.7428 -7.3806,0 z" style="fill:#000000;stroke:none"/>
      <path sodipodi:nodetypes="cccccccccccccccccc" inkscape:connector-curvature="0" id="path150374" d="m 3098.423,8040.2731 0,3.2964 3.1352,0 0,-2.8356 0,-0.2439 0,-0.2169 -1.437,0 0.7348,0.012 -0.016,0.1051 0,3.064 -1.0287,0 -0.016,0.093 -0.6695,0 0,-0.093 0,-3.064 0.9797,0 0.016,-0.1161 z" style="fill:#000000;stroke:none"/>
      <path inkscape:connector-curvature="0" style="fill:#000000;stroke:none" d="m 3089.0046,8040.4088 7.3806,0 0,0.7428 -7.3806,0 z" id="path150376"/>
      <path inkscape:connector-curvature="0" style="fill:#000000;stroke:none" d="m 3080.4613,8041.8016 7.3806,0 0,0.4179 -7.3806,0 z" id="path150378"/>
      <path id="path150380" d="m 3089.2136,8041.8016 7.3806,0 0,0.4179 -7.3806,0 z" style="fill:#000000;stroke:none" inkscape:connector-curvature="0"/>
      <path id="path150382" d="m 3080.6181,8042.9159 7.3806,0 0,0.4178 -7.3806,0 z" style="fill:#000000;stroke:none" inkscape:connector-curvature="0"/>
      <path inkscape:connector-curvature="0" style="fill:#000000;stroke:none" d="m 3089.3703,8042.9159 7.3807,0 0,0.4178 -7.3807,0 z" id="path150384"/>
      <path inkscape:connector-curvature="0" style="fill:#000000;stroke:none" d="m 3080.6703,8043.9838 7.3807,0 0,0.4178 -7.3807,0 z" id="path150386"/>
      <path id="path150388" d="m 3089.4226,8043.9838 7.3806,0 0,0.4178 -7.3806,0 z" style="fill:#000000;stroke:none" inkscape:connector-curvature="0"/>
      <path inkscape:connector-curvature="0" style="fill:#000000;stroke:none" d="m 3098.3055,8043.9838 7.3806,0 0,0.4178 -7.3806,0 z" id="path150390"/>
      <path sodipodi:nodetypes="ccsssccccccc" inkscape:connector-curvature="0" d="m 3076.9343,8039.8053 0.9144,0 c 0,0 0.254,2.324 0.381,3.4861 0.01,0.042 0.3262,0.045 0.6383,0.081 0.08,0.011 0.01,-1.2255 -0.035,-2.3491 -0.019,-0.5124 -0.091,-1.2444 -0.061,-1.561 2.8774,-0.052 22.2533,-0.01 25.0548,0 0.017,0.2963 0.018,0.2278 0.01,0.325 -1.0214,0.011 -24.533,-0.01 -24.5191,0 0.1466,1.4149 0.077,3.6729 0.2086,4.7541 -0.8204,-0.014 -1.2738,0.045 -2.0696,0.045 z" style="fill:#000000;stroke:none" id="path150392"/>
      <path sodipodi:nodetypes="cccccccc" inkscape:connector-curvature="0" d="m 3102.3561,8040.2535 0,0.4761 2.1704,0 0.016,0.8008 0.5266,0 0,-0.8001 0,-0.4759 z" style="fill:#333333;fill-opacity:1;fill-rule:nonzero;stroke:none" id="path150394"/>
      <path id="path150396" style="fill:#333333;fill-opacity:1;fill-rule:nonzero;stroke:none" d="m 3102.3562,8043.5732 0,-0.4759 2.1703,0 0.016,-0.8009 0.5266,0 0,0.8001 0,0.4757 z" inkscape:connector-curvature="0" sodipodi:nodetypes="cccccccc"/>
      <path id="path150398" style="fill:#808080;fill-opacity:1;stroke:#000000;stroke-width:0.44053429" d="m 3077.2588,8045.3798 30.1103,-0.046 0.1831,6.4519 -29.9925,2e-4 z" inkscape:connector-curvature="0" sodipodi:nodetypes="ccccc"/>
      <path style="fill:#000000;stroke:none" d="m 3080.5768,8047.0512 7.3806,0 0,0.7428 -7.3806,0 z" id="path150400" inkscape:connector-curvature="0"/>
      <path style="fill:#000000;stroke:none" d="m 3098.7475,8046.9155 0,3.2963 3.1351,0 0,-2.8356 0,-0.2438 0,-0.2169 -1.4369,0 0.7348,0.012 -0.016,0.1049 0,3.0641 -1.0288,0 -0.016,0.093 -0.6695,0 0,-0.093 0,-3.0641 0.9798,0 0.016,-0.1161 z" id="path150402" inkscape:connector-curvature="0" sodipodi:nodetypes="cccccccccccccccccc"/>
      <path id="path150404" d="m 3089.329,8047.0512 7.3807,0 0,0.7428 -7.3807,0 z" style="fill:#000000;stroke:none" inkscape:connector-curvature="0"/>
      <path id="path150406" d="m 3080.7858,8048.4439 7.3806,0 0,0.418 -7.3806,0 z" style="fill:#000000;stroke:none" inkscape:connector-curvature="0"/>
      <path inkscape:connector-curvature="0" style="fill:#000000;stroke:none" d="m 3089.538,8048.4439 7.3807,0 0,0.418 -7.3807,0 z" id="path150408"/>
      <path inkscape:connector-curvature="0" style="fill:#000000;stroke:none" d="m 3080.9426,8049.5583 7.3806,0 0,0.4178 -7.3806,0 z" id="path150410"/>
      <path id="path150412" d="m 3089.6948,8049.5583 7.3806,0 0,0.4178 -7.3806,0 z" style="fill:#000000;stroke:none" inkscape:connector-curvature="0"/>
      <path id="path150414" d="m 3080.9948,8050.6261 7.3806,0 0,0.4178 -7.3806,0 z" style="fill:#000000;stroke:none" inkscape:connector-curvature="0"/>
      <path inkscape:connector-curvature="0" style="fill:#000000;stroke:none" d="m 3089.7471,8050.6261 7.3806,0 0,0.4178 -7.3806,0 z" id="path150416"/>
      <path id="path150418" d="m 3098.6299,8050.6261 7.3807,0 0,0.4178 -7.3807,0 z" style="fill:#000000;stroke:none" inkscape:connector-curvature="0"/>
      <path id="path150420" style="fill:#000000;stroke:none" d="m 3077.2588,8046.4476 0.9144,0 c 0,0 0.254,2.3241 0.3809,3.4862 0.01,0.042 0.3263,0.045 0.6384,0.081 0.08,0.01 0.01,-1.2254 -0.035,-2.349 -0.019,-0.5123 -0.091,-1.2444 -0.061,-1.5609 2.8773,-0.052 22.2533,-0.011 25.0548,0 0.017,0.2961 0.018,0.2276 0.01,0.3249 -1.0214,0.011 -24.5329,-0.011 -24.519,0 0.1466,1.4148 0.077,3.6729 0.2085,4.754 -0.8203,-0.014 -1.2738,0.045 -2.0696,0.045 z" inkscape:connector-curvature="0" sodipodi:nodetypes="ccsssccccccc"/>
      <path id="path150422" style="fill:#333333;fill-opacity:1;fill-rule:nonzero;stroke:none" d="m 3102.6805,8046.8959 0,0.476 2.1705,0 0.016,0.8008 0.5267,0 0,-0.8 0,-0.4758 z" inkscape:connector-curvature="0" sodipodi:nodetypes="cccccccc"/>
      <path sodipodi:nodetypes="cccccccc" inkscape:connector-curvature="0" d="m 3102.6806,8050.2155 0,-0.4759 2.1703,0 0.016,-0.8008 0.5266,0 0,0.8 0,0.4759 z" style="fill:#333333;fill-opacity:1;fill-rule:nonzero;stroke:none" id="path150424"/>
      <path id="path150426" style="fill:#ffffff;fill-opacity:1;fill-rule:nonzero;stroke:#808080;stroke-width:0.40060124" d="m 3109.8465,8038.792 0.4872,-0.011 c 0.2539,-0.011 0.4768,0.1345 0.4997,0.3141 l 0.032,0.2489 c 0.023,0.1797 -0.1631,0.3286 -0.417,0.3342 l -0.4872,0.011 c -0.254,0.01 -0.4768,-0.1345 -0.4998,-0.3142 l -0.032,-0.2489 c -0.023,-0.1795 0.1631,-0.3286 0.417,-0.334 z" inkscape:connector-curvature="0"/>
      <path id="path150428" style="fill:#ffffff;fill-opacity:1;fill-rule:nonzero;stroke:#808080;stroke-width:0.40060124" d="m 3112.6281,8038.7316 0.4872,-0.011 c 0.254,-0.01 0.4768,0.1346 0.4998,0.3141 l 0.032,0.2489 c 0.023,0.1796 -0.1631,0.3287 -0.4171,0.3342 l -0.4872,0.01 c -0.2539,0.011 -0.4768,-0.1346 -0.4997,-0.3143 l -0.032,-0.2489 c -0.023,-0.1795 0.1631,-0.3286 0.417,-0.3339 z" inkscape:connector-curvature="0"/>
      <path d="m 3109.8938,8040.9734 0.4872,-0.01 c 0.2539,-0.011 0.4768,0.1348 0.4997,0.3142 l 0.032,0.249 c 0.023,0.1794 -0.163,0.3286 -0.417,0.3341 l -0.4872,0.011 c -0.2539,0 -0.4768,-0.1347 -0.4997,-0.3142 l -0.032,-0.249 c -0.023,-0.1794 0.1631,-0.3286 0.4171,-0.3341 z" style="fill:#ffffff;fill-opacity:1;fill-rule:nonzero;stroke:#808080;stroke-width:0.40060124" id="path150430" inkscape:connector-curvature="0"/>
      <path d="m 3112.6754,8040.913 0.4873,-0.01 c 0.2539,-0.011 0.4768,0.1348 0.4997,0.3142 l 0.032,0.249 c 0.023,0.1794 -0.1631,0.3285 -0.417,0.3339 l -0.4872,0.011 c -0.254,0.011 -0.4768,-0.1347 -0.4997,-0.3142 l -0.032,-0.249 c -0.023,-0.1794 0.1631,-0.3285 0.4171,-0.334 z" style="fill:#ffffff;fill-opacity:1;fill-rule:nonzero;stroke:#808080;stroke-width:0.40060124" id="path150432" inkscape:connector-curvature="0"/>
      <path inkscape:connector-curvature="0" id="path150434" style="fill:#ffffff;fill-opacity:1;fill-rule:nonzero;stroke:#808080;stroke-width:0.40060124" d="m 3109.9451,8043.3405 0.4873,-0.011 c 0.2539,-0.01 0.4768,0.1347 0.4997,0.3143 l 0.032,0.2488 c 0.023,0.1798 -0.1631,0.3289 -0.417,0.3344 l -0.4872,0.011 c -0.254,0.011 -0.4768,-0.1346 -0.4997,-0.3142 l -0.032,-0.2489 c -0.023,-0.1797 0.1631,-0.3287 0.417,-0.3343 z"/>
      <path inkscape:connector-curvature="0" id="path150436" style="fill:#ffffff;fill-opacity:1;fill-rule:nonzero;stroke:#808080;stroke-width:0.40060124" d="m 3112.7268,8043.2803 0.4872,-0.011 c 0.254,-0.011 0.4768,0.1348 0.4997,0.3142 l 0.032,0.249 c 0.023,0.1796 -0.1631,0.3287 -0.4171,0.3343 l -0.4872,0.01 c -0.2539,0.011 -0.4768,-0.1347 -0.4997,-0.3143 l -0.032,-0.249 c -0.023,-0.1796 0.1631,-0.3285 0.417,-0.3341 z"/>
      <path inkscape:connector-curvature="0" d="m 3110.0079,8045.5317 0.4872,-0.011 c 0.2539,-0.01 0.4768,0.1346 0.4997,0.3142 l 0.032,0.2489 c 0.023,0.1796 -0.1631,0.3286 -0.417,0.3342 l -0.4872,0.011 c -0.2539,0.011 -0.4768,-0.1347 -0.4997,-0.3143 l -0.032,-0.249 c -0.023,-0.1794 0.1631,-0.3285 0.417,-0.3339 z" style="fill:#ffffff;fill-opacity:1;fill-rule:nonzero;stroke:#808080;stroke-width:0.40060124" id="path150438"/>
      <path inkscape:connector-curvature="0" d="m 3112.7895,8045.4712 0.4872,-0.011 c 0.254,-0.011 0.4768,0.1345 0.4998,0.3142 l 0.032,0.2489 c 0.023,0.1795 -0.1631,0.3287 -0.417,0.3341 l -0.4873,0.011 c -0.2539,0.01 -0.4768,-0.1346 -0.4997,-0.3142 l -0.032,-0.2489 c -0.023,-0.1797 0.1631,-0.3286 0.417,-0.3342 z" style="fill:#ffffff;fill-opacity:1;fill-rule:nonzero;stroke:#808080;stroke-width:0.40060124" id="path150440"/>
      <path inkscape:connector-curvature="0" id="path150442" style="fill:#ffffff;fill-opacity:1;fill-rule:nonzero;stroke:#808080;stroke-width:0.40060124" d="m 3110.0552,8047.713 0.4872,-0.01 c 0.2539,-0.011 0.4768,0.1347 0.4997,0.3143 l 0.032,0.2489 c 0.023,0.1795 -0.163,0.3287 -0.417,0.3341 l -0.4872,0.011 c -0.2539,0.011 -0.4768,-0.1346 -0.4997,-0.3142 l -0.032,-0.2489 c -0.023,-0.1796 0.163,-0.3288 0.417,-0.3343 z"/>
      <path inkscape:connector-curvature="0" id="path150444" style="fill:#ffffff;fill-opacity:1;fill-rule:nonzero;stroke:#808080;stroke-width:0.40060124" d="m 3112.8369,8047.6527 0.4872,-0.011 c 0.2539,-0.011 0.4768,0.1348 0.4997,0.3143 l 0.032,0.249 c 0.023,0.1794 -0.1631,0.3286 -0.417,0.334 l -0.4872,0.011 c -0.2539,0.01 -0.4768,-0.1347 -0.4997,-0.3143 l -0.032,-0.2489 c -0.023,-0.1796 0.1631,-0.3286 0.4171,-0.3342 z"/>
      <path d="m 3110.1066,8050.0802 0.4872,-0.011 c 0.2539,-0.011 0.4768,0.1347 0.4997,0.3144 l 0.032,0.2488 c 0.023,0.1798 -0.1631,0.3289 -0.417,0.3343 l -0.4872,0.01 c -0.254,0.011 -0.4768,-0.1347 -0.4998,-0.3144 l -0.032,-0.2488 c -0.023,-0.1796 0.1631,-0.3288 0.417,-0.3342 z" style="fill:#ffffff;fill-opacity:1;fill-rule:nonzero;stroke:#808080;stroke-width:0.40060124" id="path150446" inkscape:connector-curvature="0"/>
      <path d="m 3112.8882,8050.0198 0.4872,-0.011 c 0.254,-0.011 0.4768,0.1346 0.4998,0.3143 l 0.032,0.2489 c 0.023,0.1797 -0.1631,0.3288 -0.417,0.3343 l -0.4872,0.011 c -0.254,0.011 -0.4768,-0.1346 -0.4998,-0.3143 l -0.032,-0.2489 c -0.023,-0.1795 0.1631,-0.3287 0.417,-0.3342 z" style="fill:#ffffff;fill-opacity:1;fill-rule:nonzero;stroke:#808080;stroke-width:0.40060124" id="path150448" inkscape:connector-curvature="0"/>
      <path inkscape:connector-curvature="0" d="m 3110.1462,8052.292 0.4872,-0.011 c 0.2539,-0.011 0.4768,0.1345 0.4997,0.3141 l 0.032,0.2489 c 0.023,0.1797 -0.163,0.3286 -0.417,0.3342 l -0.4872,0.011 c -0.2539,0.01 -0.4768,-0.1345 -0.4997,-0.3142 l -0.032,-0.2489 c -0.023,-0.1795 0.163,-0.3286 0.417,-0.334 z" style="fill:#ffffff;fill-opacity:1;fill-rule:nonzero;stroke:#808080;stroke-width:0.40060124" id="path150450"/>
      <path inkscape:connector-curvature="0" d="m 3112.9279,8052.2316 0.4872,-0.011 c 0.2539,-0.01 0.4768,0.1346 0.4997,0.3141 l 0.032,0.2489 c 0.023,0.1796 -0.1631,0.3287 -0.417,0.3342 l -0.4872,0.01 c -0.2539,0.011 -0.4768,-0.1346 -0.4997,-0.3143 l -0.032,-0.2489 c -0.023,-0.1795 0.1631,-0.3286 0.4171,-0.3339 z" style="fill:#ffffff;fill-opacity:1;fill-rule:nonzero;stroke:#808080;stroke-width:0.40060124" id="path150452"/>
      <path inkscape:connector-curvature="0" id="path150454" style="fill:#ffffff;fill-opacity:1;fill-rule:nonzero;stroke:#808080;stroke-width:0.40060124" d="m 3110.1935,8054.4734 0.4872,-0.01 c 0.254,-0.011 0.4769,0.1348 0.4997,0.3142 l 0.032,0.2491 c 0.023,0.1793 -0.1631,0.3285 -0.417,0.334 l -0.4873,0.011 c -0.2539,0 -0.4768,-0.1347 -0.4997,-0.3142 l -0.032,-0.249 c -0.023,-0.1794 0.1631,-0.3286 0.417,-0.3341 z"/>
      <path inkscape:connector-curvature="0" id="path150456" style="fill:#ffffff;fill-opacity:1;fill-rule:nonzero;stroke:#808080;stroke-width:0.40060124" d="m 3112.9752,8054.413 0.4872,-0.01 c 0.2539,-0.011 0.4768,0.1348 0.4997,0.3142 l 0.032,0.249 c 0.023,0.1794 -0.163,0.3285 -0.417,0.334 l -0.4872,0.011 c -0.2539,0.011 -0.4768,-0.1347 -0.4997,-0.3142 l -0.032,-0.249 c -0.023,-0.1794 0.1631,-0.3285 0.417,-0.334 z"/>
      <path d="m 3110.2449,8056.8405 0.4872,-0.011 c 0.2539,-0.01 0.4768,0.1347 0.4997,0.3143 l 0.032,0.2488 c 0.023,0.1798 -0.163,0.3289 -0.417,0.3344 l -0.4872,0.011 c -0.2539,0.011 -0.4768,-0.1346 -0.4997,-0.3142 l -0.032,-0.2489 c -0.023,-0.1797 0.163,-0.3287 0.417,-0.3343 z" style="fill:#ffffff;fill-opacity:1;fill-rule:nonzero;stroke:#808080;stroke-width:0.40060124" id="path150458" inkscape:connector-curvature="0"/>
      <path d="m 3113.0265,8056.7803 0.4873,-0.011 c 0.2539,-0.011 0.4768,0.1348 0.4997,0.3142 l 0.032,0.249 c 0.023,0.1796 -0.1631,0.3287 -0.417,0.3343 l -0.4872,0.01 c -0.2539,0.011 -0.4768,-0.1347 -0.4997,-0.3143 l -0.032,-0.249 c -0.023,-0.1796 0.1631,-0.3285 0.4171,-0.3341 z" style="fill:#ffffff;fill-opacity:1;fill-rule:nonzero;stroke:#808080;stroke-width:0.40060124" id="path150460" inkscape:connector-curvature="0"/>
      <path id="path150462" style="fill:#ffffff;fill-opacity:1;fill-rule:nonzero;stroke:#808080;stroke-width:0.40060124" d="m 3110.3076,8059.032 0.4872,-0.011 c 0.254,-0.01 0.4768,0.1346 0.4997,0.3143 l 0.032,0.2488 c 0.023,0.1796 -0.163,0.3286 -0.417,0.3342 l -0.4872,0.011 c -0.2539,0.011 -0.4768,-0.1347 -0.4997,-0.3143 l -0.032,-0.2489 c -0.023,-0.1795 0.1631,-0.3286 0.417,-0.334 z" inkscape:connector-curvature="0"/>
      <path id="path150464" style="fill:#ffffff;fill-opacity:1;fill-rule:nonzero;stroke:#808080;stroke-width:0.40060124" d="m 3113.0893,8058.9715 0.4872,-0.011 c 0.2539,-0.011 0.4768,0.1345 0.4997,0.3142 l 0.032,0.2489 c 0.023,0.1795 -0.1631,0.3287 -0.417,0.3341 l -0.4872,0.011 c -0.2539,0.01 -0.4768,-0.1346 -0.4997,-0.3141 l -0.032,-0.249 c -0.023,-0.1797 0.1631,-0.3286 0.4171,-0.3342 z" inkscape:connector-curvature="0"/>
      <path d="m 3110.3549,8061.2133 0.4873,-0.01 c 0.2539,-0.011 0.4768,0.1347 0.4997,0.3143 l 0.032,0.2489 c 0.023,0.1795 -0.1631,0.3287 -0.417,0.3341 l -0.4872,0.011 c -0.254,0.011 -0.4769,-0.1346 -0.4998,-0.3141 l -0.032,-0.249 c -0.023,-0.1796 0.1631,-0.3287 0.417,-0.3343 z" style="fill:#ffffff;fill-opacity:1;fill-rule:nonzero;stroke:#808080;stroke-width:0.40060124" id="path150466" inkscape:connector-curvature="0"/>
      <path d="m 3113.1366,8061.153 0.4872,-0.011 c 0.254,-0.011 0.4768,0.1348 0.4997,0.3143 l 0.032,0.2491 c 0.023,0.1793 -0.1631,0.3285 -0.4171,0.3339 l -0.4872,0.011 c -0.2539,0.01 -0.4768,-0.1347 -0.4997,-0.3142 l -0.032,-0.249 c -0.023,-0.1796 0.1631,-0.3286 0.417,-0.3342 z" style="fill:#ffffff;fill-opacity:1;fill-rule:nonzero;stroke:#808080;stroke-width:0.40060124" id="path150468" inkscape:connector-curvature="0"/>
      <path inkscape:connector-curvature="0" id="path150470" style="fill:#ffffff;fill-opacity:1;fill-rule:nonzero;stroke:#808080;stroke-width:0.40060124" d="m 3110.4063,8063.5805 0.4872,-0.011 c 0.2539,-0.011 0.4768,0.1347 0.4997,0.3144 l 0.032,0.2488 c 0.023,0.1798 -0.163,0.3289 -0.417,0.3343 l -0.4872,0.01 c -0.2539,0.011 -0.4768,-0.1347 -0.4997,-0.3144 l -0.032,-0.2488 c -0.023,-0.1796 0.163,-0.3288 0.417,-0.3342 z"/>
      <path inkscape:connector-curvature="0" id="path150472" style="fill:#ffffff;fill-opacity:1;fill-rule:nonzero;stroke:#808080;stroke-width:0.40060124" d="m 3113.188,8063.5202 0.4872,-0.011 c 0.2539,-0.011 0.4768,0.1346 0.4997,0.3142 l 0.032,0.2489 c 0.023,0.1797 -0.163,0.3288 -0.417,0.3343 l -0.4872,0.011 c -0.2539,0.011 -0.4768,-0.1345 -0.4997,-0.3143 l -0.032,-0.2489 c -0.023,-0.1795 0.163,-0.3287 0.417,-0.3341 z"/>
      <path sodipodi:nodetypes="ccccc" inkscape:connector-curvature="0" d="m 3115.4455,8038.8188 30.1104,-0.046 0.065,6.4995 -29.9798,0 z" style="fill:#808080;fill-opacity:1;stroke:#000000;stroke-width:0.44053429" id="path150474"/>
      <path inkscape:connector-curvature="0" id="path150476" d="m 3118.7635,8040.4903 7.3806,0 0,0.7427 -7.3806,0 z" style="fill:#000000;stroke:none" sodipodi:nodetypes="ccccc"/>
      <path id="path150478" d="m 3136.9342,8040.3545 0,3.2964 3.1352,0 0,-3.2964 -1.437,0 0.7348,0.012 -0.016,0.105 0,3.0639 -1.0287,0 -0.016,0.093 -0.6695,0 0,-0.093 0,-3.0639 0.9797,0 0.016,-0.1162 -1.6982,0 z" style="fill:#000000;stroke:none" inkscape:connector-curvature="0" sodipodi:nodetypes="ccccccccccccccccc"/>
      <path inkscape:connector-curvature="0" style="fill:#000000;stroke:none" d="m 3127.5158,8040.4903 7.3806,0 0,0.7427 -7.3806,0 z" id="path150480" sodipodi:nodetypes="ccccc"/>
      <path inkscape:connector-curvature="0" style="fill:#000000;stroke:none" d="m 3118.9725,8041.883 7.3807,0 0,0.4179 -7.3807,0 z" id="path150482" sodipodi:nodetypes="ccccc"/>
      <path id="path150484" d="m 3127.7248,8041.883 7.3806,0 0,0.4179 -7.3806,0 z" style="fill:#000000;stroke:none" inkscape:connector-curvature="0" sodipodi:nodetypes="ccccc"/>
      <path id="path150486" d="m 3119.1293,8042.9973 7.3806,0 0,0.4179 -7.3806,0 z" style="fill:#000000;stroke:none" inkscape:connector-curvature="0" sodipodi:nodetypes="ccccc"/>
      <path inkscape:connector-curvature="0" style="fill:#000000;stroke:none" d="m 3127.8815,8042.9973 7.3807,0 0,0.4179 -7.3807,0 z" id="path150488" sodipodi:nodetypes="ccccc"/>
      <path inkscape:connector-curvature="0" style="fill:#000000;stroke:none" d="m 3119.1816,8044.0652 7.3806,0 0,0.4178 -7.3806,0 z" id="path150490" sodipodi:nodetypes="ccccc"/>
      <path id="path150492" d="m 3127.9338,8044.0652 7.3806,0 0,0.4178 -7.3806,0 z" style="fill:#000000;stroke:none" inkscape:connector-curvature="0" sodipodi:nodetypes="ccccc"/>
      <path inkscape:connector-curvature="0" style="fill:#000000;stroke:none" d="m 3136.8167,8044.0652 7.3806,0 0,0.4178 -7.3806,0 z" id="path150494" sodipodi:nodetypes="ccccc"/>
      <path sodipodi:nodetypes="ccsssccccccc" inkscape:connector-curvature="0" d="m 3115.4455,8039.8867 0.9144,0 c 0,0 0.254,2.324 0.381,3.4862 0.01,0.042 0.3262,0.045 0.6383,0.081 0.08,0.011 0.01,-1.2255 -0.035,-2.3491 -0.019,-0.5124 -0.091,-1.2444 -0.061,-1.561 2.8774,-0.052 22.2533,-0.01 25.0548,0 0.017,0.2963 0.018,0.2278 0.01,0.325 -1.0214,0.011 -24.5329,-0.01 -24.519,0 0.1466,1.415 0.077,3.6729 0.2085,4.7541 -0.8204,-0.014 -1.6657,0.045 -2.4615,0.045 z" style="fill:#000000;stroke:none" id="path150496"/>
      <path sodipodi:nodetypes="cccccccc" inkscape:connector-curvature="0" d="m 3140.6911,8040.3349 0,0.4761 2.1705,0 0.016,0.8008 0.5267,0 0,-0.8001 0,-0.4758 z" style="fill:#333333;fill-opacity:1;fill-rule:nonzero;stroke:none" id="path150498"/>
      <path id="path150500" style="fill:#333333;fill-opacity:1;fill-rule:nonzero;stroke:none" d="m 3140.6912,8043.6546 0,-0.4759 2.1704,0 0.016,-0.8009 0.5266,0 0,0.8001 0,0.4757 z" inkscape:connector-curvature="0" sodipodi:nodetypes="cccccccc"/>
      <path id="path150502" style="fill:#808080;stroke:#000000;stroke-width:0.43947119" d="m 3115.591,8045.4602 29.9652,-0.046 0.065,6.4997 -29.8352,0 z" inkscape:connector-curvature="0" sodipodi:nodetypes="ccccc"/>
      <path sodipodi:nodetypes="ccccc" style="fill:#000000;stroke:none" d="m 3118.893,8047.1317 7.345,0 0,0.7428 -7.345,0 z" id="path150504" inkscape:connector-curvature="0"/>
      <path sodipodi:nodetypes="ccccccccccccccccc" inkscape:connector-curvature="0" style="fill:#000000;stroke:none" d="m 3136.9761,8046.996 0,3.2963 3.12,0 0,-3.2963 -1.43,0 0.7313,0.012 -0.016,0.1049 0,3.064 -1.0238,0 -0.016,0.093 -0.6662,0 0,-0.093 0,-3.064 0.975,0 0.016,-0.1162 -1.69,0 z" id="path150506"/>
      <path sodipodi:nodetypes="ccccc" id="path150508" d="m 3127.6031,8047.1317 7.345,0 0,0.7428 -7.345,0 z" style="fill:#000000;stroke:none" inkscape:connector-curvature="0"/>
      <path sodipodi:nodetypes="ccccc" id="path150510" d="m 3119.101,8048.5244 7.345,0 0,0.418 -7.345,0 z" style="fill:#000000;stroke:none" inkscape:connector-curvature="0"/>
      <path sodipodi:nodetypes="ccccc" inkscape:connector-curvature="0" style="fill:#000000;stroke:none" d="m 3127.811,8048.5244 7.3451,0 0,0.418 -7.3451,0 z" id="path150512"/>
      <path sodipodi:nodetypes="ccccc" inkscape:connector-curvature="0" style="fill:#000000;stroke:none" d="m 3119.257,8049.6388 7.345,0 0,0.4178 -7.345,0 z" id="path150514"/>
      <path sodipodi:nodetypes="ccccc" id="path150516" d="m 3127.9671,8049.6388 7.345,0 0,0.4178 -7.345,0 z" style="fill:#000000;stroke:none" inkscape:connector-curvature="0"/>
      <path sodipodi:nodetypes="ccccc" id="path150518" d="m 3119.309,8050.7066 7.345,0 0,0.4178 -7.345,0 z" style="fill:#000000;stroke:none" inkscape:connector-curvature="0"/>
      <path sodipodi:nodetypes="ccccc" inkscape:connector-curvature="0" style="fill:#000000;stroke:none" d="m 3128.0191,8050.7066 7.345,0 0,0.4178 -7.345,0 z" id="path150520"/>
      <path sodipodi:nodetypes="ccccc" id="path150522" d="m 3136.8591,8050.7066 7.3451,0 0,0.4178 -7.3451,0 z" style="fill:#000000;stroke:none" inkscape:connector-curvature="0"/>
      <path id="path150524" style="fill:#000000;stroke:none" d="m 3115.591,8046.5281 0.91,0 c 0,0 0.2527,2.324 0.3791,3.4862 0.01,0.042 0.3247,0.045 0.6353,0.081 0.08,0.01 0.01,-1.2254 -0.035,-2.3491 -0.019,-0.5122 -0.091,-1.2443 -0.06,-1.5609 2.8635,-0.052 22.146,-0.011 24.934,0 0.017,0.2962 0.018,0.2276 0.01,0.325 -1.0165,0.011 -24.4147,-0.011 -24.4009,0 0.1459,1.4148 0.076,3.6729 0.2075,4.754 -0.8163,-0.014 -1.6576,0.045 -2.4496,0.045 z" inkscape:connector-curvature="0" sodipodi:nodetypes="ccsssccccccc"/>
      <path id="path150526" style="fill:#333333;fill-opacity:1;fill-rule:nonzero;stroke:none" d="m 3140.7149,8046.9764 0,0.476 2.16,0 0.016,0.8008 0.5242,0 0,-0.8001 0,-0.4757 z" inkscape:connector-curvature="0" sodipodi:nodetypes="cccccccc"/>
      <path sodipodi:nodetypes="cccccccc" inkscape:connector-curvature="0" d="m 3140.715,8050.296 0,-0.4759 2.1599,0 0.016,-0.8008 0.5241,0 0,0.8 0,0.4759 z" style="fill:#333333;fill-opacity:1;fill-rule:nonzero;stroke:none" id="path150528"/>
      <path id="path150530" style="fill:#808080;fill-opacity:1;stroke:#000000;stroke-width:0.43793881" d="m 3115.8,8051.8466 29.7566,-0.046 0.065,6.4996 -29.6275,0 z" inkscape:connector-curvature="0" sodipodi:nodetypes="ccccc"/>
      <path sodipodi:nodetypes="ccccc" style="fill:#000000;stroke:none" d="m 3119.0791,8053.5181 7.2939,0 0,0.7428 -7.2939,0 z" id="path150532" inkscape:connector-curvature="0"/>
      <path sodipodi:nodetypes="ccccccccccccccccc" inkscape:connector-curvature="0" style="fill:#000000;stroke:none" d="m 3137.0363,8053.3824 0,3.2963 3.0983,0 0,-3.2963 -1.4201,0 0.7262,0.012 -0.016,0.105 0,3.0639 -1.0166,0 -0.016,0.093 -0.6616,0 0,-0.093 0,-3.0639 0.9682,0 0.016,-0.1162 -1.6783,0 z" id="path150534"/>
      <path sodipodi:nodetypes="ccccc" id="path150536" d="m 3127.7285,8053.5181 7.2939,0 0,0.7428 -7.2939,0 z" style="fill:#000000;stroke:none" inkscape:connector-curvature="0"/>
      <path sodipodi:nodetypes="ccccc" id="path150538" d="m 3119.2856,8054.9109 7.2939,0 0,0.4179 -7.2939,0 z" style="fill:#000000;stroke:none" inkscape:connector-curvature="0"/>
      <path sodipodi:nodetypes="ccccc" inkscape:connector-curvature="0" style="fill:#000000;stroke:none" d="m 3127.935,8054.9109 7.294,0 0,0.4179 -7.294,0 z" id="path150540"/>
      <path sodipodi:nodetypes="ccccc" inkscape:connector-curvature="0" style="fill:#000000;stroke:none" d="m 3119.4405,8056.0252 7.2939,0 0,0.4178 -7.2939,0 z" id="path150542"/>
      <path sodipodi:nodetypes="ccccc" id="path150544" d="m 3128.09,8056.0252 7.2939,0 0,0.4178 -7.2939,0 z" style="fill:#000000;stroke:none" inkscape:connector-curvature="0"/>
      <path sodipodi:nodetypes="ccccc" id="path150546" d="m 3119.4922,8057.0931 7.2939,0 0,0.4177 -7.2939,0 z" style="fill:#000000;stroke:none" inkscape:connector-curvature="0"/>
      <path sodipodi:nodetypes="ccccc" inkscape:connector-curvature="0" style="fill:#000000;stroke:none" d="m 3128.1416,8057.0931 7.2939,0 0,0.4177 -7.2939,0 z" id="path150548"/>
      <path sodipodi:nodetypes="ccccc" id="path150550" d="m 3136.9201,8057.0931 7.2939,0 0,0.4177 -7.2939,0 z" style="fill:#000000;stroke:none" inkscape:connector-curvature="0"/>
      <path id="path150552" style="fill:#000000;stroke:none" d="m 3115.8,8052.9146 0.9037,0 c 0,0 0.251,2.324 0.3765,3.4861 0.01,0.042 0.3224,0.045 0.6308,0.081 0.079,0.011 0.01,-1.2255 -0.035,-2.349 -0.019,-0.5124 -0.09,-1.2444 -0.06,-1.561 2.8435,-0.052 21.9918,-0.01 24.7604,0 0.016,0.2962 0.018,0.2278 0.01,0.325 -1.0093,0.011 -24.2447,-0.01 -24.2309,0 0.1449,1.4149 0.076,3.6729 0.2061,4.7541 -0.8108,-0.014 -1.6461,0.045 -2.4326,0.045 z" inkscape:connector-curvature="0" sodipodi:nodetypes="ccsssccccccc"/>
      <path id="path150554" style="fill:#333333;fill-opacity:1;fill-rule:nonzero;stroke:none" d="m 3140.7491,8053.3628 0,0.476 2.1449,0 0.016,0.8008 0.5205,0 0,-0.8 0,-0.4759 z" inkscape:connector-curvature="0" sodipodi:nodetypes="cccccccc"/>
      <path sodipodi:nodetypes="cccccccc" inkscape:connector-curvature="0" d="m 3140.7491,8056.6824 0,-0.4758 2.1449,0 0.016,-0.8009 0.5205,0 0,0.8001 0,0.4757 z" style="fill:#333333;fill-opacity:1;fill-rule:nonzero;stroke:none" id="path150556"/>
      <path sodipodi:nodetypes="ccccc" inkscape:connector-curvature="0" d="m 3115.9438,8058.4881 29.6131,-0.046 0.064,6.4996 -29.4847,0 z" style="fill:#808080;stroke:#000000;stroke-width:0.43688199" id="path150558"/>
      <path inkscape:connector-curvature="0" id="path150560" d="m 3119.207,8060.1596 7.2588,0 0,0.7427 -7.2588,0 z" style="fill:#000000;stroke:none" sodipodi:nodetypes="ccccc"/>
      <path id="path150562" d="m 3137.0777,8060.0238 0,3.2964 3.0834,0 0,-3.2964 -1.4133,0 0.7227,0.012 -0.016,0.105 0,3.064 -1.0117,0 -0.016,0.093 -0.6585,0 0,-0.093 0,-3.064 0.9636,0 0.016,-0.1162 -1.6702,0 z" style="fill:#000000;stroke:none" inkscape:connector-curvature="0" sodipodi:nodetypes="ccccccccccccccccc"/>
      <path inkscape:connector-curvature="0" style="fill:#000000;stroke:none" d="m 3127.8147,8060.1596 7.2588,0 0,0.7427 -7.2588,0 z" id="path150564" sodipodi:nodetypes="ccccc"/>
      <path inkscape:connector-curvature="0" style="fill:#000000;stroke:none" d="m 3119.4126,8061.5523 7.2587,0 0,0.4179 -7.2587,0 z" id="path150566" sodipodi:nodetypes="ccccc"/>
      <path id="path150568" d="m 3128.0203,8061.5523 7.2588,0 0,0.4179 -7.2588,0 z" style="fill:#000000;stroke:none" inkscape:connector-curvature="0" sodipodi:nodetypes="ccccc"/>
      <path id="path150570" d="m 3119.5667,8062.6666 7.2588,0 0,0.4178 -7.2588,0 z" style="fill:#000000;stroke:none" inkscape:connector-curvature="0" sodipodi:nodetypes="ccccc"/>
      <path inkscape:connector-curvature="0" style="fill:#000000;stroke:none" d="m 3128.1745,8062.6666 7.2587,0 0,0.4178 -7.2587,0 z" id="path150572" sodipodi:nodetypes="ccccc"/>
      <path inkscape:connector-curvature="0" style="fill:#000000;stroke:none" d="m 3119.6181,8063.7344 7.2588,0 0,0.4179 -7.2588,0 z" id="path150574" sodipodi:nodetypes="ccccc"/>
      <path id="path150576" d="m 3128.2259,8063.7344 7.2587,0 0,0.4179 -7.2587,0 z" style="fill:#000000;stroke:none" inkscape:connector-curvature="0" sodipodi:nodetypes="ccccc"/>
      <path inkscape:connector-curvature="0" style="fill:#000000;stroke:none" d="m 3136.9621,8063.7344 7.2587,0 0,0.4179 -7.2587,0 z" id="path150578" sodipodi:nodetypes="ccccc"/>
      <path sodipodi:nodetypes="ccsssccccccc" inkscape:connector-curvature="0" d="m 3115.9438,8059.556 0.8993,0 c 0,0 0.2498,2.324 0.3747,3.4862 0.01,0.042 0.3208,0.045 0.6278,0.081 0.079,0.01 0.01,-1.2254 -0.035,-2.3491 -0.019,-0.5123 -0.09,-1.2444 -0.06,-1.5609 2.8299,-0.052 21.8859,-0.011 24.6411,0 0.016,0.2962 0.017,0.2276 0.01,0.3249 -1.0045,0.011 -24.1279,-0.011 -24.1142,0 0.1442,1.4148 0.075,3.6729 0.2051,4.7541 -0.8068,-0.014 -1.6382,0.045 -2.4208,0.045 z" style="fill:#000000;stroke:none" id="path150580"/>
      <path sodipodi:nodetypes="cccccccc" inkscape:connector-curvature="0" d="m 3140.7726,8060.0042 0,0.4761 2.1346,0 0.016,0.8008 0.518,0 0,-0.8001 0,-0.4758 z" style="fill:#333333;fill-opacity:1;fill-rule:nonzero;stroke:none" id="path150582"/>
      <path id="path150584" style="fill:#333333;fill-opacity:1;fill-rule:nonzero;stroke:none" d="m 3140.7726,8063.3239 0,-0.476 2.1345,0 0.016,-0.8008 0.5179,0 0,0.8001 0,0.4758 z" inkscape:connector-curvature="0" sodipodi:nodetypes="cccccccc"/>
      <path inkscape:connector-curvature="0" d="m 3148.3782,8038.7453 0.4873,0 c 0.2541,0 0.4732,0.1467 0.4914,0.3269 l 0.025,0.2496 c 0.018,0.1802 -0.1716,0.3244 -0.4256,0.3233 l -0.4873,0 c -0.2541,0 -0.4732,-0.1468 -0.4914,-0.327 l -0.025,-0.2496 c -0.018,-0.18 0.1715,-0.3242 0.4255,-0.3231 z" style="fill:#ffffff;fill-opacity:1;fill-rule:nonzero;stroke:#808080;stroke-width:0.40060124" id="path150586"/>
      <path inkscape:connector-curvature="0" d="m 3151.1604,8038.7569 0.4874,0 c 0.2541,0 0.4732,0.1469 0.4914,0.3269 l 0.025,0.2496 c 0.018,0.1801 -0.1716,0.3244 -0.4256,0.3233 l -0.4873,0 c -0.2541,0 -0.4731,-0.1469 -0.4914,-0.3271 l -0.025,-0.2496 c -0.018,-0.18 0.1716,-0.3242 0.4256,-0.323 z" style="fill:#ffffff;fill-opacity:1;fill-rule:nonzero;stroke:#808080;stroke-width:0.40060124" id="path150588"/>
      <path inkscape:connector-curvature="0" id="path150590" style="fill:#ffffff;fill-opacity:1;fill-rule:nonzero;stroke:#808080;stroke-width:0.40060124" d="m 3148.369,8040.9272 0.4874,0 c 0.2541,0 0.4731,0.147 0.4914,0.3269 l 0.025,0.2499 c 0.018,0.1798 -0.1715,0.3241 -0.4255,0.323 l -0.4873,0 c -0.2539,-0.01 -0.4732,-0.147 -0.4915,-0.327 l -0.025,-0.2497 c -0.018,-0.18 0.1715,-0.3243 0.4255,-0.3232 z"/>
      <path inkscape:connector-curvature="0" id="path150592" style="fill:#ffffff;fill-opacity:1;fill-rule:nonzero;stroke:#808080;stroke-width:0.40060124" d="m 3151.1513,8040.9388 0.4874,0 c 0.2541,0 0.4731,0.147 0.4914,0.3271 l 0.025,0.2497 c 0.018,0.1799 -0.1715,0.3242 -0.4255,0.3231 l -0.4873,0 c -0.2542,0 -0.4732,-0.1471 -0.4914,-0.3271 l -0.025,-0.2497 c -0.018,-0.1801 0.1715,-0.3242 0.4255,-0.3232 z"/>
      <path d="m 3148.3591,8043.2948 0.4874,0 c 0.2541,0 0.4732,0.1469 0.4914,0.3271 l 0.025,0.2496 c 0.018,0.1803 -0.1716,0.3245 -0.4256,0.3235 l -0.4873,0 c -0.2541,0 -0.4732,-0.1469 -0.4914,-0.3271 l -0.025,-0.2496 c -0.018,-0.1801 0.1715,-0.3244 0.4255,-0.3234 z" style="fill:#ffffff;fill-opacity:1;fill-rule:nonzero;stroke:#808080;stroke-width:0.40060124" id="path150594" inkscape:connector-curvature="0"/>
      <path d="m 3151.1414,8043.3065 0.4874,0 c 0.2541,0 0.4731,0.1472 0.4914,0.3271 l 0.025,0.2497 c 0.018,0.1802 -0.1716,0.3244 -0.4256,0.3234 l -0.4873,0 c -0.2541,0 -0.4732,-0.147 -0.4914,-0.3272 l -0.025,-0.2497 c -0.018,-0.18 0.1716,-0.3242 0.4256,-0.3232 z" style="fill:#ffffff;fill-opacity:1;fill-rule:nonzero;stroke:#808080;stroke-width:0.40060124" id="path150596" inkscape:connector-curvature="0"/>
      <path id="path150598" style="fill:#ffffff;fill-opacity:1;fill-rule:nonzero;stroke:#808080;stroke-width:0.40060124" d="m 3148.3652,8045.4869 0.4873,0 c 0.2541,0 0.4732,0.1469 0.4914,0.3271 l 0.025,0.2497 c 0.018,0.1801 -0.1716,0.3242 -0.4255,0.3232 l -0.4874,0 c -0.2541,0 -0.4732,-0.147 -0.4914,-0.3271 l -0.025,-0.2498 c -0.018,-0.18 0.1715,-0.3241 0.4255,-0.323 z" inkscape:connector-curvature="0"/>
      <path id="path150600" style="fill:#ffffff;fill-opacity:1;fill-rule:nonzero;stroke:#808080;stroke-width:0.40060124" d="m 3151.1475,8045.4984 0.4873,0 c 0.2541,0 0.4732,0.1467 0.4914,0.3269 l 0.025,0.2498 c 0.018,0.18 -0.1716,0.3242 -0.4256,0.3231 l -0.4873,0 c -0.2541,0 -0.4732,-0.1469 -0.4914,-0.327 l -0.025,-0.2497 c -0.018,-0.1803 0.1716,-0.3243 0.4256,-0.3233 z" inkscape:connector-curvature="0"/>
      <path d="m 3148.3561,8047.6686 0.4873,0 c 0.2541,0 0.4731,0.147 0.4914,0.3271 l 0.025,0.2497 c 0.018,0.1801 -0.1715,0.3243 -0.4255,0.3232 l -0.4873,0 c -0.2542,0 -0.4732,-0.1468 -0.4915,-0.327 l -0.025,-0.2497 c -0.018,-0.1801 0.1715,-0.3244 0.4255,-0.3234 z" style="fill:#ffffff;fill-opacity:1;fill-rule:nonzero;stroke:#808080;stroke-width:0.40060124" id="path150602" inkscape:connector-curvature="0"/>
      <path d="m 3151.1383,8047.6804 0.4874,0 c 0.2541,0 0.4731,0.1472 0.4914,0.3271 l 0.025,0.2498 c 0.018,0.18 -0.1716,0.3242 -0.4256,0.3231 l -0.4873,0 c -0.2541,0 -0.4732,-0.1469 -0.4914,-0.327 l -0.025,-0.2498 c -0.018,-0.18 0.1715,-0.3242 0.4255,-0.3232 z" style="fill:#ffffff;fill-opacity:1;fill-rule:nonzero;stroke:#808080;stroke-width:0.40060124" id="path150604" inkscape:connector-curvature="0"/>
      <path inkscape:connector-curvature="0" id="path150606" style="fill:#ffffff;fill-opacity:1;fill-rule:nonzero;stroke:#808080;stroke-width:0.40060124" d="m 3148.3462,8050.0365 0.4873,0 c 0.2541,0 0.4732,0.147 0.4914,0.3272 l 0.025,0.2496 c 0.018,0.1803 -0.1716,0.3245 -0.4256,0.3233 l -0.4873,0 c -0.2541,0 -0.4732,-0.147 -0.4914,-0.3272 l -0.025,-0.2495 c -0.018,-0.1802 0.1715,-0.3245 0.4255,-0.3233 z"/>
      <path inkscape:connector-curvature="0" id="path150608" style="fill:#ffffff;fill-opacity:1;fill-rule:nonzero;stroke:#808080;stroke-width:0.40060124" d="m 3151.1284,8050.0481 0.4874,0 c 0.2541,0 0.4731,0.1468 0.4914,0.3271 l 0.025,0.2495 c 0.018,0.1803 -0.1715,0.3246 -0.4256,0.3235 l -0.4873,0 c -0.2541,0 -0.4732,-0.1469 -0.4914,-0.3272 l -0.025,-0.2495 c -0.018,-0.1802 0.1716,-0.3245 0.4256,-0.3233 z"/>
      <path id="path150610" style="fill:#ffffff;fill-opacity:1;fill-rule:nonzero;stroke:#808080;stroke-width:0.40060124" d="m 3148.3286,8052.2485 0.4873,0 c 0.2541,0 0.4732,0.1468 0.4914,0.3269 l 0.025,0.2496 c 0.018,0.1803 -0.1716,0.3243 -0.4255,0.3233 l -0.4874,0 c -0.2541,0 -0.4732,-0.1467 -0.4914,-0.327 l -0.025,-0.2496 c -0.018,-0.18 0.1715,-0.3243 0.4255,-0.3231 z" inkscape:connector-curvature="0"/>
      <path id="path150612" style="fill:#ffffff;fill-opacity:1;fill-rule:nonzero;stroke:#808080;stroke-width:0.40060124" d="m 3151.1108,8052.2602 0.4874,0 c 0.2541,0 0.4732,0.1469 0.4914,0.3269 l 0.025,0.2496 c 0.018,0.1802 -0.1716,0.3244 -0.4256,0.3233 l -0.4873,0 c -0.2541,0 -0.4731,-0.1468 -0.4914,-0.327 l -0.025,-0.2497 c -0.018,-0.18 0.1715,-0.3242 0.4255,-0.3229 z" inkscape:connector-curvature="0"/>
      <path d="m 3148.3194,8054.4304 0.4874,0 c 0.2541,0 0.4731,0.1471 0.4914,0.327 l 0.025,0.2498 c 0.018,0.1798 -0.1715,0.3242 -0.4255,0.3231 l -0.4873,0 c -0.2539,-0.01 -0.4732,-0.147 -0.4915,-0.327 l -0.025,-0.2497 c -0.018,-0.1799 0.1715,-0.3243 0.4255,-0.3232 z" style="fill:#ffffff;fill-opacity:1;fill-rule:nonzero;stroke:#808080;stroke-width:0.40060124" id="path150614" inkscape:connector-curvature="0"/>
      <path d="m 3151.1017,8054.442 0.4874,0 c 0.2541,0 0.4731,0.1471 0.4914,0.3271 l 0.025,0.2497 c 0.018,0.1799 -0.1715,0.3242 -0.4255,0.323 l -0.4873,0 c -0.2542,0 -0.4732,-0.1469 -0.4914,-0.327 l -0.025,-0.2497 c -0.018,-0.18 0.1715,-0.3242 0.4255,-0.3232 z" style="fill:#ffffff;fill-opacity:1;fill-rule:nonzero;stroke:#808080;stroke-width:0.40060124" id="path150616" inkscape:connector-curvature="0"/>
      <path inkscape:connector-curvature="0" id="path150618" style="fill:#ffffff;fill-opacity:1;fill-rule:nonzero;stroke:#808080;stroke-width:0.40060124" d="m 3148.3095,8056.7981 0.4874,0 c 0.2541,0 0.4732,0.147 0.4914,0.3271 l 0.025,0.2496 c 0.018,0.1804 -0.1715,0.3245 -0.4256,0.3235 l -0.4873,0 c -0.2541,0 -0.4732,-0.1468 -0.4914,-0.327 l -0.025,-0.2497 c -0.018,-0.1802 0.1715,-0.3243 0.4255,-0.3233 z"/>
      <path inkscape:connector-curvature="0" id="path150620" style="fill:#ffffff;fill-opacity:1;fill-rule:nonzero;stroke:#808080;stroke-width:0.40060124" d="m 3151.0918,8056.8098 0.4874,0 c 0.2541,0 0.4731,0.1471 0.4914,0.3271 l 0.025,0.2498 c 0.018,0.1802 -0.1716,0.3243 -0.4256,0.3233 l -0.4873,0 c -0.2541,0 -0.4732,-0.147 -0.4914,-0.3272 l -0.025,-0.2498 c -0.018,-0.1801 0.1716,-0.3241 0.4256,-0.3231 z"/>
      <path inkscape:connector-curvature="0" d="m 3148.3156,8058.9904 0.4873,0 c 0.2541,0 0.4732,0.1469 0.4914,0.3271 l 0.025,0.2496 c 0.018,0.1801 -0.1716,0.3243 -0.4256,0.3233 l -0.4873,0 c -0.2541,0 -0.4732,-0.147 -0.4914,-0.3271 l -0.025,-0.2497 c -0.018,-0.18 0.1715,-0.3242 0.4255,-0.3231 z" style="fill:#ffffff;fill-opacity:1;fill-rule:nonzero;stroke:#808080;stroke-width:0.40060124" id="path150622"/>
      <path inkscape:connector-curvature="0" d="m 3151.0979,8059.0019 0.4873,0 c 0.2541,0 0.4732,0.1468 0.4914,0.327 l 0.025,0.2497 c 0.018,0.1799 -0.1716,0.3243 -0.4256,0.3232 l -0.4873,0 c -0.2541,0 -0.4732,-0.1469 -0.4914,-0.327 l -0.025,-0.2497 c -0.018,-0.1802 0.1716,-0.3243 0.4256,-0.3233 z" style="fill:#ffffff;fill-opacity:1;fill-rule:nonzero;stroke:#808080;stroke-width:0.40060124" id="path150624"/>
      <path inkscape:connector-curvature="0" id="path150626" style="fill:#ffffff;fill-opacity:1;fill-rule:nonzero;stroke:#808080;stroke-width:0.40060124" d="m 3148.3064,8061.1722 0.4874,0 c 0.2541,0 0.4731,0.1469 0.4914,0.3271 l 0.025,0.2497 c 0.018,0.18 -0.1715,0.3243 -0.4255,0.3232 l -0.4873,0 c -0.2542,0 -0.4732,-0.1469 -0.4915,-0.327 l -0.025,-0.2497 c -0.018,-0.1801 0.1715,-0.3244 0.4255,-0.3234 z"/>
      <path inkscape:connector-curvature="0" id="path150628" style="fill:#ffffff;fill-opacity:1;fill-rule:nonzero;stroke:#808080;stroke-width:0.40060124" d="m 3151.0887,8061.1839 0.4874,0 c 0.2541,0 0.4731,0.1472 0.4914,0.3271 l 0.025,0.2498 c 0.018,0.1799 -0.1716,0.3242 -0.4256,0.3231 l -0.4873,0 c -0.2541,0 -0.4732,-0.147 -0.4914,-0.3271 l -0.025,-0.2497 c -0.018,-0.1801 0.1715,-0.3243 0.4255,-0.3233 z"/>
      <path d="m 3148.2965,8063.54 0.4874,0 c 0.2541,0 0.4732,0.147 0.4914,0.3272 l 0.025,0.2495 c 0.018,0.1803 -0.1716,0.3246 -0.4255,0.3234 l -0.4874,0 c -0.2541,0 -0.4731,-0.147 -0.4914,-0.3272 l -0.025,-0.2495 c -0.018,-0.1801 0.1715,-0.3245 0.4256,-0.3233 z" style="fill:#ffffff;fill-opacity:1;fill-rule:nonzero;stroke:#808080;stroke-width:0.40060124" id="path150630" inkscape:connector-curvature="0"/>
      <path d="m 3151.0788,8063.5516 0.4874,0 c 0.2541,0 0.4731,0.1469 0.4914,0.3271 l 0.025,0.2495 c 0.018,0.1803 -0.1716,0.3246 -0.4256,0.3235 l -0.4873,0 c -0.2541,0 -0.4732,-0.1468 -0.4914,-0.3272 l -0.025,-0.2495 c -0.018,-0.1801 0.1716,-0.3245 0.4256,-0.3233 z" style="fill:#ffffff;fill-opacity:1;fill-rule:nonzero;stroke:#808080;stroke-width:0.40060124" id="path150632" inkscape:connector-curvature="0"/>
      <path id="path150634" style="fill:#808080;fill-opacity:1;stroke:#000000;stroke-width:0.44053429" d="m 3154.0074,8038.8188 30.361,-0.025 -0.2471,6.4782 -30.1139,0 z" inkscape:connector-curvature="0" sodipodi:nodetypes="ccccc"/>
      <path sodipodi:nodetypes="ccccc" style="fill:#000000;stroke:none" d="m 3157.2635,8040.4903 7.3806,0 0,0.7427 -7.3806,0 z" id="path150636" inkscape:connector-curvature="0"/>
      <path sodipodi:nodetypes="ccccccccccccccccc" inkscape:connector-curvature="0" style="fill:#000000;stroke:none" d="m 3175.4342,8040.3545 0,3.2964 3.1352,0 0,-3.2964 -1.437,0 0.7348,0.012 -0.016,0.105 0,3.0639 -1.0287,0 -0.016,0.093 -0.6695,0 0,-0.093 0,-3.0639 0.9797,0 0.016,-0.1162 -1.6982,0 z" id="path150638"/>
      <path sodipodi:nodetypes="ccccc" id="path150640" d="m 3166.0158,8040.4903 7.3806,0 0,0.7427 -7.3806,0 z" style="fill:#000000;stroke:none" inkscape:connector-curvature="0"/>
      <path sodipodi:nodetypes="ccccc" id="path150642" d="m 3157.4725,8041.883 7.3807,0 0,0.4179 -7.3807,0 z" style="fill:#000000;stroke:none" inkscape:connector-curvature="0"/>
      <path sodipodi:nodetypes="ccccc" inkscape:connector-curvature="0" style="fill:#000000;stroke:none" d="m 3166.2248,8041.883 7.3806,0 0,0.4179 -7.3806,0 z" id="path150644"/>
      <path sodipodi:nodetypes="ccccc" inkscape:connector-curvature="0" style="fill:#000000;stroke:none" d="m 3157.6293,8042.9973 7.3806,0 0,0.4179 -7.3806,0 z" id="path150646"/>
      <path sodipodi:nodetypes="ccccc" id="path150648" d="m 3166.3815,8042.9973 7.3807,0 0,0.4179 -7.3807,0 z" style="fill:#000000;stroke:none" inkscape:connector-curvature="0"/>
      <path sodipodi:nodetypes="ccccc" id="path150650" d="m 3157.6816,8044.0652 7.3806,0 0,0.4178 -7.3806,0 z" style="fill:#000000;stroke:none" inkscape:connector-curvature="0"/>
      <path sodipodi:nodetypes="ccccc" inkscape:connector-curvature="0" style="fill:#000000;stroke:none" d="m 3166.4338,8044.0652 7.3806,0 0,0.4178 -7.3806,0 z" id="path150652"/>
      <path sodipodi:nodetypes="ccccc" id="path150654" d="m 3175.3167,8044.0652 7.3806,0 0,0.4178 -7.3806,0 z" style="fill:#000000;stroke:none" inkscape:connector-curvature="0"/>
      <path id="path150656" style="fill:#000000;stroke:none" d="m 3153.9455,8039.8867 0.9144,0 c 0,0 0.254,2.324 0.381,3.4862 0.01,0.042 0.3262,0.045 0.6383,0.081 0.08,0.011 0.01,-1.2255 -0.035,-2.3491 -0.019,-0.5124 -0.091,-1.2444 -0.061,-1.561 2.8774,-0.052 22.2533,-0.01 25.0548,0 0.017,0.2963 0.018,0.2278 0.01,0.325 -1.0214,0.011 -24.5329,-0.01 -24.519,0 0.1466,1.415 0.077,3.6729 0.2085,4.7541 -0.8204,-0.014 -1.6657,0.045 -2.4615,0.045 z" inkscape:connector-curvature="0" sodipodi:nodetypes="ccsssccccccc"/>
      <path id="path150658" style="fill:#333333;fill-opacity:1;fill-rule:nonzero;stroke:none" d="m 3179.1911,8040.3349 0,0.4761 2.1705,0 0.016,0.8008 0.5267,0 0,-0.8001 0,-0.4758 z" inkscape:connector-curvature="0" sodipodi:nodetypes="cccccccc"/>
      <path sodipodi:nodetypes="cccccccc" inkscape:connector-curvature="0" d="m 3179.1912,8043.6546 0,-0.4759 2.1704,0 0.016,-0.8009 0.5266,0 0,0.8001 0,0.4757 z" style="fill:#333333;fill-opacity:1;fill-rule:nonzero;stroke:none" id="path150660"/>
      <path sodipodi:nodetypes="ccccc" inkscape:connector-curvature="0" d="m 3154.0074,8045.4602 30.0488,-0.046 -0.1224,6.4997 -29.9264,-0.088 z" style="fill:#808080;stroke:#000000;stroke-width:0.43947119" id="path150662"/>
      <path inkscape:connector-curvature="0" id="path150664" d="m 3157.393,8047.1317 7.345,0 0,0.7428 -7.345,0 z" style="fill:#000000;stroke:none" sodipodi:nodetypes="ccccc"/>
      <path id="path150666" d="m 3175.4761,8046.996 0,3.2963 3.12,0 0,-3.2963 -1.43,0 0.7313,0.012 -0.016,0.1049 0,3.064 -1.0238,0 -0.016,0.093 -0.6662,0 0,-0.093 0,-3.064 0.975,0 0.016,-0.1162 -1.6901,0 z" style="fill:#000000;stroke:none" inkscape:connector-curvature="0" sodipodi:nodetypes="ccccccccccccccccc"/>
      <path inkscape:connector-curvature="0" style="fill:#000000;stroke:none" d="m 3166.1031,8047.1317 7.345,0 0,0.7428 -7.345,0 z" id="path150668" sodipodi:nodetypes="ccccc"/>
      <path inkscape:connector-curvature="0" style="fill:#000000;stroke:none" d="m 3157.601,8048.5244 7.345,0 0,0.418 -7.345,0 z" id="path150670" sodipodi:nodetypes="ccccc"/>
      <path id="path150672" d="m 3166.311,8048.5244 7.3451,0 0,0.418 -7.3451,0 z" style="fill:#000000;stroke:none" inkscape:connector-curvature="0" sodipodi:nodetypes="ccccc"/>
      <path id="path150674" d="m 3157.757,8049.6388 7.345,0 0,0.4178 -7.345,0 z" style="fill:#000000;stroke:none" inkscape:connector-curvature="0" sodipodi:nodetypes="ccccc"/>
      <path inkscape:connector-curvature="0" style="fill:#000000;stroke:none" d="m 3166.4671,8049.6388 7.345,0 0,0.4178 -7.345,0 z" id="path150676" sodipodi:nodetypes="ccccc"/>
      <path inkscape:connector-curvature="0" style="fill:#000000;stroke:none" d="m 3157.809,8050.7066 7.345,0 0,0.4178 -7.345,0 z" id="path150678" sodipodi:nodetypes="ccccc"/>
      <path id="path150680" d="m 3166.5191,8050.7066 7.345,0 0,0.4178 -7.345,0 z" style="fill:#000000;stroke:none" inkscape:connector-curvature="0" sodipodi:nodetypes="ccccc"/>
      <path inkscape:connector-curvature="0" style="fill:#000000;stroke:none" d="m 3175.3591,8050.7066 7.3451,0 0,0.4178 -7.3451,0 z" id="path150682" sodipodi:nodetypes="ccccc"/>
      <path sodipodi:nodetypes="ccsssccccccc" inkscape:connector-curvature="0" d="m 3154.091,8046.5281 0.91,0 c 0,0 0.2527,2.324 0.3791,3.4862 0.01,0.042 0.3247,0.045 0.6353,0.081 0.08,0.01 0.01,-1.2254 -0.035,-2.3491 -0.019,-0.5122 -0.09,-1.2443 -0.06,-1.5609 2.8635,-0.052 22.146,-0.011 24.934,0 0.017,0.2962 0.018,0.2276 0.01,0.325 -1.0165,0.011 -24.4147,-0.011 -24.4009,0 0.1459,1.4148 0.076,3.6729 0.2075,4.754 -0.8163,-0.014 -1.6576,0.045 -2.4496,0.045 z" style="fill:#000000;stroke:none" id="path150684"/>
      <path sodipodi:nodetypes="cccccccc" inkscape:connector-curvature="0" d="m 3179.2149,8046.9764 0,0.476 2.16,0 0.016,0.8008 0.5242,0 0,-0.8001 0,-0.4757 z" style="fill:#333333;fill-opacity:1;fill-rule:nonzero;stroke:none" id="path150686"/>
      <path id="path150688" style="fill:#333333;fill-opacity:1;fill-rule:nonzero;stroke:none" d="m 3179.215,8050.296 0,-0.4759 2.1599,0 0.016,-0.8008 0.5241,0 0,0.8 0,0.4759 z" inkscape:connector-curvature="0" sodipodi:nodetypes="cccccccc"/>
      <path sodipodi:nodetypes="ccccc" inkscape:connector-curvature="0" d="m 3154.0074,8051.8466 29.9242,-0.046 -0.1228,6.4996 -29.8014,0 z" style="fill:#808080;fill-opacity:1;stroke:#000000;stroke-width:0.43793881" id="path150690"/>
      <path inkscape:connector-curvature="0" id="path150692" d="m 3157.5791,8053.5181 7.2939,0 0,0.7428 -7.2939,0 z" style="fill:#000000;stroke:none" sodipodi:nodetypes="ccccc"/>
      <path id="path150694" d="m 3175.5363,8053.3824 0,3.2963 3.0983,0 0,-3.2963 -1.4201,0 0.7262,0.012 -0.016,0.105 0,3.0639 -1.0166,0 -0.016,0.093 -0.6616,0 0,-0.093 0,-3.0639 0.9682,0 0.016,-0.1162 -1.6783,0 z" style="fill:#000000;stroke:none" inkscape:connector-curvature="0" sodipodi:nodetypes="ccccccccccccccccc"/>
      <path inkscape:connector-curvature="0" style="fill:#000000;stroke:none" d="m 3166.2285,8053.5181 7.2939,0 0,0.7428 -7.2939,0 z" id="path150696" sodipodi:nodetypes="ccccc"/>
      <path inkscape:connector-curvature="0" style="fill:#000000;stroke:none" d="m 3157.7856,8054.9109 7.2939,0 0,0.4179 -7.2939,0 z" id="path150698" sodipodi:nodetypes="ccccc"/>
      <path id="path150700" d="m 3166.435,8054.9109 7.294,0 0,0.4179 -7.294,0 z" style="fill:#000000;stroke:none" inkscape:connector-curvature="0" sodipodi:nodetypes="ccccc"/>
      <path id="path150702" d="m 3157.9405,8056.0252 7.2939,0 0,0.4178 -7.2939,0 z" style="fill:#000000;stroke:none" inkscape:connector-curvature="0" sodipodi:nodetypes="ccccc"/>
      <path inkscape:connector-curvature="0" style="fill:#000000;stroke:none" d="m 3166.59,8056.0252 7.2939,0 0,0.4178 -7.2939,0 z" id="path150704" sodipodi:nodetypes="ccccc"/>
      <path inkscape:connector-curvature="0" style="fill:#000000;stroke:none" d="m 3157.9922,8057.0931 7.2939,0 0,0.4177 -7.2939,0 z" id="path150706" sodipodi:nodetypes="ccccc"/>
      <path id="path150708" d="m 3166.6416,8057.0931 7.2939,0 0,0.4177 -7.2939,0 z" style="fill:#000000;stroke:none" inkscape:connector-curvature="0" sodipodi:nodetypes="ccccc"/>
      <path inkscape:connector-curvature="0" style="fill:#000000;stroke:none" d="m 3175.4201,8057.0931 7.2939,0 0,0.4177 -7.2939,0 z" id="path150710" sodipodi:nodetypes="ccccc"/>
      <path sodipodi:nodetypes="ccsssccccccc" inkscape:connector-curvature="0" d="m 3154.0074,8052.9146 1.1963,0 c 0,0 0.251,2.324 0.3765,3.4861 0.01,0.042 0.3224,0.045 0.6308,0.081 0.079,0.011 0.01,-1.2255 -0.035,-2.349 -0.019,-0.5124 -0.09,-1.2444 -0.06,-1.561 2.8435,-0.052 21.9918,-0.01 24.7604,0 0.016,0.2962 0.018,0.2278 0.01,0.325 -1.0093,0.011 -24.2447,-0.01 -24.2309,0 0.1449,1.4149 0.076,3.6729 0.2061,4.7541 -0.8108,-0.014 -2.0672,-0.043 -2.8537,-0.043 z" style="fill:#000000;stroke:none" id="path150712"/>
      <path sodipodi:nodetypes="cccccccc" inkscape:connector-curvature="0" d="m 3179.2491,8053.3628 0,0.476 2.1449,0 0.016,0.8008 0.5205,0 0,-0.8 0,-0.4759 z" style="fill:#333333;fill-opacity:1;fill-rule:nonzero;stroke:none" id="path150714"/>
      <path id="path150716" style="fill:#333333;fill-opacity:1;fill-rule:nonzero;stroke:none" d="m 3179.2491,8056.6824 0,-0.4758 2.1449,0 0.016,-0.8009 0.5205,0 0,0.8001 0,0.4757 z" inkscape:connector-curvature="0" sodipodi:nodetypes="cccccccc"/>
      <path id="path150718" style="fill:#808080;stroke:#000000;stroke-width:0.43688199" d="m 3154.0074,8058.4881 29.862,-0.046 -0.061,6.4996 -29.8014,0 z" inkscape:connector-curvature="0" sodipodi:nodetypes="ccccc"/>
      <path sodipodi:nodetypes="ccccc" style="fill:#000000;stroke:none" d="m 3157.707,8060.1596 7.2588,0 0,0.7427 -7.2588,0 z" id="path150720" inkscape:connector-curvature="0"/>
      <path sodipodi:nodetypes="ccccccccccccccccc" inkscape:connector-curvature="0" style="fill:#000000;stroke:none" d="m 3175.5777,8060.0238 0,3.2964 3.0834,0 0,-3.2964 -1.4133,0 0.7227,0.012 -0.016,0.105 0,3.064 -1.0117,0 -0.016,0.093 -0.6585,0 0,-0.093 0,-3.064 0.9636,0 0.016,-0.1162 -1.6702,0 z" id="path150722"/>
      <path sodipodi:nodetypes="ccccc" id="path150724" d="m 3166.3147,8060.1596 7.2588,0 0,0.7427 -7.2588,0 z" style="fill:#000000;stroke:none" inkscape:connector-curvature="0"/>
      <path sodipodi:nodetypes="ccccc" id="path150726" d="m 3157.9126,8061.5523 7.2587,0 0,0.4179 -7.2587,0 z" style="fill:#000000;stroke:none" inkscape:connector-curvature="0"/>
      <path sodipodi:nodetypes="ccccc" inkscape:connector-curvature="0" style="fill:#000000;stroke:none" d="m 3166.5203,8061.5523 7.2588,0 0,0.4179 -7.2588,0 z" id="path150728"/>
      <path sodipodi:nodetypes="ccccc" inkscape:connector-curvature="0" style="fill:#000000;stroke:none" d="m 3158.0667,8062.6666 7.2588,0 0,0.4178 -7.2588,0 z" id="path150730"/>
      <path sodipodi:nodetypes="ccccc" id="path150732" d="m 3166.6745,8062.6666 7.2587,0 0,0.4178 -7.2587,0 z" style="fill:#000000;stroke:none" inkscape:connector-curvature="0"/>
      <path sodipodi:nodetypes="ccccc" id="path150734" d="m 3158.1181,8063.7344 7.2588,0 0,0.4179 -7.2588,0 z" style="fill:#000000;stroke:none" inkscape:connector-curvature="0"/>
      <path sodipodi:nodetypes="ccccc" inkscape:connector-curvature="0" style="fill:#000000;stroke:none" d="m 3166.7259,8063.7344 7.2587,0 0,0.4179 -7.2587,0 z" id="path150736"/>
      <path sodipodi:nodetypes="ccccc" id="path150738" d="m 3175.4621,8063.7344 7.2587,0 0,0.4179 -7.2587,0 z" style="fill:#000000;stroke:none" inkscape:connector-curvature="0"/>
      <path id="path150740" style="fill:#000000;stroke:none" d="m 3154.0074,8059.556 1.3357,0 c 0,0 0.2498,2.324 0.3747,3.4862 0.01,0.042 0.3208,0.045 0.6278,0.081 0.079,0.01 0.01,-1.2254 -0.035,-2.3491 -0.019,-0.5123 -0.09,-1.2444 -0.06,-1.5609 2.8299,-0.052 21.8859,-0.011 24.6411,0 0.016,0.2962 0.017,0.2276 0.01,0.3249 -1.0045,0.011 -24.1279,-0.011 -24.1142,0 0.1442,1.4148 0.075,3.6729 0.2051,4.7541 -0.8068,-0.014 -2.2025,-0.1316 -2.9852,-0.1316 z" inkscape:connector-curvature="0" sodipodi:nodetypes="ccsssccccccc"/>
      <path id="path150742" style="fill:#333333;fill-opacity:1;fill-rule:nonzero;stroke:none" d="m 3179.2726,8060.0042 0,0.4761 2.1346,0 0.016,0.8008 0.518,0 0,-0.8001 0,-0.4758 z" inkscape:connector-curvature="0" sodipodi:nodetypes="cccccccc"/>
      <path sodipodi:nodetypes="cccccccc" inkscape:connector-curvature="0" d="m 3179.2726,8063.3239 0,-0.476 2.1345,0 0.016,-0.8008 0.5179,0 0,0.8001 0,0.4758 z" style="fill:#333333;fill-opacity:1;fill-rule:nonzero;stroke:none" id="path150744"/>
      <path sodipodi:nodetypes="cccssccccccscccsccc" inkscape:connector-curvature="0" id="path150746" d="m 3188.2295,8031.7948 c -0.7615,0 -1.4036,1.7174 -1.4532,3.8499 l -0.6205,26.0317 c -0.05,2.1332 0.5285,3.8502 1.29,3.8502 l 5.5518,0 c 0.7615,0 1.4037,-1.717 1.4532,-3.8502 l 0.147,-6.2782 -0.8491,-0.2764 0,-12.0533 1.143,0.3208 0.1796,-7.7456 c 0.05,-2.133 -0.5284,-3.8497 -1.2899,-3.8497 l -5.5519,0 z m 2.727,13.6037 c 0.2416,0.031 0.427,0.1615 0.4082,1.5207 -0.019,1.3592 -0.2319,1.7847 -0.4735,1.7583 -0.2417,-0.031 -0.4107,-0.4907 -0.3919,-1.8499 0.019,-1.3589 0.2156,-1.4553 0.4572,-1.4291 z" style="fill:url(#linearGradient150816-2);fill-opacity:1;fill-rule:nonzero;stroke:#000000;stroke-width:0.46755612;stroke-miterlimit:4;stroke-dasharray:none"/>
      <path sodipodi:nodetypes="cccccccccc" inkscape:connector-curvature="0" inkscape:original-d="m 3190.3579,8035.2121 c 0.062,-1.7546 0.4414,-1.171 1.1191,-0.164 l 1.3653,3.7837 -0.3256,25.492 c -0.3058,1.3892 -0.6828,0.6232 -1.1238,0.2762 l -1.5769,-4.5157 c 0.3209,-1.1632 0.4055,-0.5716 0.9296,-0.1129 l 0.6884,1.0765 0.2954,-21.8612 z" inkscape:path-effect="#path-effect114909-4-2-8" id="path150748" d="m 3190.3579,8035.2121 1.1191,-0.164 1.3653,3.7837 -0.3256,25.492 -1.1238,0.2762 -1.5769,-4.5157 0.9296,-0.1129 0.6884,1.0765 0.2954,-21.8612 -1.3715,-3.9746" style="fill:#808080;fill-opacity:1;stroke:none"/>
      <path sodipodi:nodetypes="ccccccccc" inkscape:connector-curvature="0" inkscape:original-d="m 3190.2888,8040.6674 1.0251,2.1293 -0.2408,18.8508 -1.257,-1.5571 -0.038,3.0588 1.6211,1.4554 0.3584,-25.525 -1.4053,-3.8706 z" inkscape:path-effect="#path-effect114906-4-1-1" id="path150750" d="m 3190.2888,8040.6674 1.0251,2.1293 -0.2408,18.8508 -1.257,-1.5571 -0.038,3.0588 1.6211,1.4554 0.3584,-25.525 -1.4053,-3.8706 -0.064,5.4584" style="fill:#4d4d4d;fill-opacity:1;stroke:none"/>
      <path sodipodi:nodetypes="ccccc" inkscape:connector-curvature="0" d="m 3076.8263,8032.663 61.066,0 0.039,4.8436 -60.8082,0 z" style="fill:url(#linearGradient150818-5);fill-opacity:1;stroke:#1a1a1a;stroke-width:0.75868785" id="path150752"/>
      <path inkscape:connector-curvature="0" id="path150754" style="fill:#ffffff;fill-opacity:1;fill-rule:nonzero;stroke:#808080;stroke-width:0.46653545" d="m 3078.1898,8033.2463 1.581,0 c 0.2144,0 0.3999,0.233 0.416,0.5222 l 0.022,0.401 c 0.016,0.2893 -0.1437,0.5221 -0.3581,0.5221 l -1.581,0 c -0.2144,0 -0.3999,-0.2328 -0.416,-0.5221 l -0.022,-0.401 c -0.016,-0.2892 0.1437,-0.5222 0.3581,-0.5222 z" sodipodi:nodetypes="ssccssccs"/>
      <path sodipodi:nodetypes="ssccssccs" d="m 3081.4647,8033.2463 1.581,0 c 0.2144,0 0.4,0.233 0.416,0.5222 l 0.022,0.401 c 0.016,0.2893 -0.1437,0.5221 -0.3581,0.5221 l -1.581,0 c -0.2144,0 -0.3999,-0.2328 -0.416,-0.5221 l -0.022,-0.401 c -0.016,-0.2892 0.1436,-0.5222 0.358,-0.5222 z" style="fill:#ffffff;fill-opacity:1;fill-rule:nonzero;stroke:#808080;stroke-width:0.46653545" id="path150756" inkscape:connector-curvature="0"/>
      <path inkscape:connector-curvature="0" id="path150758" style="fill:#ffffff;fill-opacity:1;fill-rule:nonzero;stroke:#808080;stroke-width:0.46653545" d="m 3084.7729,8033.2463 1.581,0 c 0.2144,0 0.3999,0.233 0.416,0.5222 l 0.022,0.401 c 0.016,0.2893 -0.1437,0.5221 -0.3581,0.5221 l -1.581,0 c -0.2144,0 -0.3999,-0.2328 -0.416,-0.5221 l -0.022,-0.401 c -0.016,-0.2892 0.1436,-0.5222 0.358,-0.5222 z" sodipodi:nodetypes="ssccssccs"/>
      <path sodipodi:nodetypes="ssccssccs" d="m 3078.1898,8035.4789 1.581,0 c 0.2144,0 0.3999,0.2329 0.416,0.5222 l 0.022,0.401 c 0.016,0.2892 -0.1437,0.522 -0.3581,0.522 l -1.581,0 c -0.2144,0 -0.3999,-0.2328 -0.416,-0.522 l -0.022,-0.401 c -0.016,-0.2893 0.1437,-0.5222 0.3581,-0.5222 z" style="fill:#ffffff;fill-opacity:1;fill-rule:nonzero;stroke:#808080;stroke-width:0.46653545" id="path150760" inkscape:connector-curvature="0"/>
      <path inkscape:connector-curvature="0" id="path150762" style="fill:#ffffff;fill-opacity:1;fill-rule:nonzero;stroke:#808080;stroke-width:0.46653545" d="m 3081.4647,8035.4789 1.581,0 c 0.2144,0 0.4,0.2329 0.416,0.5222 l 0.022,0.401 c 0.016,0.2892 -0.1437,0.522 -0.3581,0.522 l -1.581,0 c -0.2144,0 -0.3999,-0.2328 -0.416,-0.522 l -0.022,-0.401 c -0.016,-0.2893 0.1436,-0.5222 0.358,-0.5222 z" sodipodi:nodetypes="ssccssccs"/>
      <path sodipodi:nodetypes="ssccssccs" d="m 3084.7729,8035.4789 1.581,0 c 0.2144,0 0.3999,0.2329 0.416,0.5222 l 0.022,0.401 c 0.016,0.2892 -0.1437,0.522 -0.3581,0.522 l -1.581,0 c -0.2144,0 -0.3999,-0.2328 -0.416,-0.522 l -0.022,-0.401 c -0.016,-0.2893 0.1436,-0.5222 0.358,-0.5222 z" style="fill:#ffffff;fill-opacity:1;fill-rule:nonzero;stroke:#808080;stroke-width:0.46653545" id="path150764" inkscape:connector-curvature="0"/>
      <path inkscape:connector-curvature="0" id="path150766" style="fill:#ffffff;fill-opacity:1;fill-rule:nonzero;stroke:#808080;stroke-width:0.46653545" d="m 3088.1363,8035.4789 1.581,0 c 0.2144,0 0.3999,0.2329 0.416,0.5222 l 0.022,0.401 c 0.016,0.2892 -0.1436,0.522 -0.358,0.522 l -1.581,0 c -0.2144,0 -0.4,-0.2328 -0.416,-0.522 l -0.022,-0.401 c -0.016,-0.2893 0.1437,-0.5222 0.3581,-0.5222 z" sodipodi:nodetypes="ssccssccs"/>
      <path sodipodi:nodetypes="ssccssccs" d="m 3091.4112,8035.4789 1.581,0 c 0.2144,0 0.4,0.2329 0.416,0.5222 l 0.022,0.401 c 0.016,0.2892 -0.1437,0.522 -0.3581,0.522 l -1.581,0 c -0.2144,0 -0.3999,-0.2328 -0.416,-0.522 l -0.022,-0.401 c -0.016,-0.2893 0.1437,-0.5222 0.3581,-0.5222 z" style="fill:#ffffff;fill-opacity:1;fill-rule:nonzero;stroke:#808080;stroke-width:0.46653545" id="path150768" inkscape:connector-curvature="0"/>
      <path inkscape:connector-curvature="0" id="path150770" style="fill:#ffffff;fill-opacity:1;fill-rule:nonzero;stroke:#808080;stroke-width:0.46653545" d="m 3094.7194,8035.4789 1.581,0 c 0.2144,0 0.3999,0.2329 0.416,0.5222 l 0.022,0.401 c 0.016,0.2892 -0.1436,0.522 -0.358,0.522 l -1.581,0 c -0.2144,0 -0.4,-0.2328 -0.416,-0.522 l -0.022,-0.401 c -0.016,-0.2893 0.1437,-0.5222 0.3581,-0.5222 z" sodipodi:nodetypes="ssccssccs"/>
      <path sodipodi:nodetypes="ssccssccs" d="m 3117.4035,8033.2463 1.581,0 c 0.2144,0 0.3999,0.233 0.416,0.5222 l 0.022,0.401 c 0.016,0.2893 -0.1436,0.5221 -0.358,0.5221 l -1.581,0 c -0.2144,0 -0.4,-0.2328 -0.416,-0.5221 l -0.022,-0.401 c -0.016,-0.2892 0.1437,-0.5222 0.3581,-0.5222 z" style="fill:#ffffff;fill-opacity:1;fill-rule:nonzero;stroke:#808080;stroke-width:0.46653545" id="path150772" inkscape:connector-curvature="0"/>
      <path inkscape:connector-curvature="0" id="path150774" style="fill:#ffffff;fill-opacity:1;fill-rule:nonzero;stroke:#808080;stroke-width:0.46653545" d="m 3120.6784,8033.2463 1.581,0 c 0.2144,0 0.4,0.233 0.416,0.5222 l 0.022,0.401 c 0.016,0.2893 -0.1437,0.5221 -0.3581,0.5221 l -1.581,0 c -0.2144,0 -0.3999,-0.2328 -0.416,-0.5221 l -0.022,-0.401 c -0.016,-0.2892 0.1437,-0.5222 0.3581,-0.5222 z" sodipodi:nodetypes="ssccssccs"/>
      <path sodipodi:nodetypes="ssccssccs" d="m 3123.9866,8033.2463 1.581,0 c 0.2144,0 0.3999,0.233 0.416,0.5222 l 0.022,0.401 c 0.016,0.2893 -0.1437,0.5221 -0.3581,0.5221 l -1.581,0 c -0.2144,0 -0.3999,-0.2328 -0.416,-0.5221 l -0.022,-0.401 c -0.016,-0.2892 0.1437,-0.5222 0.3581,-0.5222 z" style="fill:#ffffff;fill-opacity:1;fill-rule:nonzero;stroke:#808080;stroke-width:0.46653545" id="path150776" inkscape:connector-curvature="0"/>
      <path inkscape:connector-curvature="0" id="path150778" style="fill:#ffffff;fill-opacity:1;fill-rule:nonzero;stroke:#808080;stroke-width:0.46653545" d="m 3117.4035,8035.4789 1.581,0 c 0.2144,0 0.3999,0.2329 0.416,0.5222 l 0.022,0.401 c 0.016,0.2892 -0.1436,0.522 -0.358,0.522 l -1.581,0 c -0.2144,0 -0.4,-0.2328 -0.416,-0.522 l -0.022,-0.401 c -0.016,-0.2893 0.1437,-0.5222 0.3581,-0.5222 z" sodipodi:nodetypes="ssccssccs"/>
      <path sodipodi:nodetypes="ssccssccs" d="m 3120.6784,8035.4789 1.581,0 c 0.2144,0 0.4,0.2329 0.416,0.5222 l 0.022,0.401 c 0.016,0.2892 -0.1437,0.522 -0.3581,0.522 l -1.581,0 c -0.2144,0 -0.3999,-0.2328 -0.416,-0.522 l -0.022,-0.401 c -0.016,-0.2893 0.1437,-0.5222 0.3581,-0.5222 z" style="fill:#ffffff;fill-opacity:1;fill-rule:nonzero;stroke:#808080;stroke-width:0.46653545" id="path150780" inkscape:connector-curvature="0"/>
      <path inkscape:connector-curvature="0" id="path150782" style="fill:#ffffff;fill-opacity:1;fill-rule:nonzero;stroke:#808080;stroke-width:0.46653545" d="m 3123.9866,8035.4789 1.581,0 c 0.2144,0 0.3999,0.2329 0.416,0.5222 l 0.022,0.401 c 0.016,0.2892 -0.1437,0.522 -0.3581,0.522 l -1.581,0 c -0.2144,0 -0.3999,-0.2328 -0.416,-0.522 l -0.022,-0.401 c -0.016,-0.2893 0.1437,-0.5222 0.3581,-0.5222 z" sodipodi:nodetypes="ssccssccs"/>
      <path sodipodi:nodetypes="ssccssccs" d="m 3127.35,8035.4789 1.581,0 c 0.2144,0 0.3999,0.2329 0.416,0.5222 l 0.022,0.401 c 0.016,0.2892 -0.1436,0.522 -0.358,0.522 l -1.581,0 c -0.2144,0 -0.4,-0.2328 -0.416,-0.522 l -0.022,-0.401 c -0.016,-0.2893 0.1437,-0.5222 0.3581,-0.5222 z" style="fill:#ffffff;fill-opacity:1;fill-rule:nonzero;stroke:#808080;stroke-width:0.46653545" id="path150784" inkscape:connector-curvature="0"/>
      <path inkscape:connector-curvature="0" id="path150786" style="fill:#ffffff;fill-opacity:1;fill-rule:nonzero;stroke:#808080;stroke-width:0.46653545" d="m 3130.6249,8035.4789 1.581,0 c 0.2144,0 0.3999,0.2329 0.416,0.5222 l 0.022,0.401 c 0.016,0.2892 -0.1437,0.522 -0.3581,0.522 l -1.581,0 c -0.2144,0 -0.4,-0.2328 -0.416,-0.522 l -0.022,-0.401 c -0.016,-0.2893 0.1437,-0.5222 0.3581,-0.5222 z" sodipodi:nodetypes="ssccssccs"/>
      <path sodipodi:nodetypes="ssccssccs" d="m 3133.9331,8035.4789 1.581,0 c 0.2144,0 0.3999,0.2329 0.416,0.5222 l 0.022,0.401 c 0.016,0.2892 -0.1436,0.522 -0.358,0.522 l -1.581,0 c -0.2144,0 -0.4,-0.2328 -0.416,-0.522 l -0.022,-0.401 c -0.016,-0.2893 0.1437,-0.5222 0.3581,-0.5222 z" style="fill:#ffffff;fill-opacity:1;fill-rule:nonzero;stroke:#808080;stroke-width:0.46653545" id="path150788" inkscape:connector-curvature="0"/>
      <path id="path150790" style="fill:#ffff00;fill-opacity:1;fill-rule:nonzero;stroke:none" d="m 3149.0158,8032.8231 1.9595,0 0,4.4187 -1.9595,0 z" inkscape:connector-curvature="0"/>
      <path inkscape:connector-curvature="0" id="path150792" style="fill:#ffffff;fill-opacity:1;fill-rule:nonzero;stroke:#808080;stroke-width:0.46649647" d="m 3097.7189,8036.8948 1.5808,0 c 0.2144,0 0.3999,-0.2331 0.416,-0.5222 l 0.022,-0.401 c 0.016,-0.2892 -0.1436,-0.522 -0.358,-0.522 l -1.5809,0 c -0.2144,0 -0.3999,0.2328 -0.4159,0.522 l -0.022,0.401 c -0.016,0.2891 0.1436,0.5222 0.3581,0.5222 z" sodipodi:nodetypes="ssccssccs"/>
      <path sodipodi:nodetypes="ssccssccs" d="m 3100.9935,8036.8948 1.5809,0 c 0.2144,0 0.3999,-0.2331 0.4159,-0.5222 l 0.022,-0.401 c 0.016,-0.2892 -0.1436,-0.522 -0.358,-0.522 l -1.5809,0 c -0.2144,0 -0.3999,0.2328 -0.416,0.522 l -0.022,0.401 c -0.016,0.2891 0.1436,0.5222 0.358,0.5222 z" style="fill:#ffffff;fill-opacity:1;fill-rule:nonzero;stroke:#808080;stroke-width:0.46649647" id="path150794" inkscape:connector-curvature="0"/>
      <path inkscape:connector-curvature="0" id="path150796" style="fill:#ffffff;fill-opacity:1;fill-rule:nonzero;stroke:#808080;stroke-width:0.46649647" d="m 3104.3014,8036.8948 1.5809,0 c 0.2144,0 0.3999,-0.2331 0.4159,-0.5222 l 0.022,-0.401 c 0.016,-0.2892 -0.1436,-0.522 -0.358,-0.522 l -1.5809,0 c -0.2144,0 -0.3999,0.2328 -0.4159,0.522 l -0.022,0.401 c -0.016,0.2891 0.1436,0.5222 0.358,0.5222 z" sodipodi:nodetypes="ssccssccs"/>
      <path sodipodi:nodetypes="ssccssccs" d="m 3097.7189,8034.6623 1.5808,0 c 0.2144,0 0.3999,-0.2328 0.416,-0.5221 l 0.022,-0.4009 c 0.016,-0.2893 -0.1436,-0.5221 -0.358,-0.5221 l -1.5809,0 c -0.2144,0 -0.3999,0.2328 -0.4159,0.5221 l -0.022,0.4009 c -0.016,0.2893 0.1436,0.5221 0.3581,0.5221 z" style="fill:#ffffff;fill-opacity:1;fill-rule:nonzero;stroke:#808080;stroke-width:0.46649647" id="path150798" inkscape:connector-curvature="0"/>
      <path inkscape:connector-curvature="0" id="path150800" style="fill:#ffffff;fill-opacity:1;fill-rule:nonzero;stroke:#808080;stroke-width:0.46649647" d="m 3100.9935,8034.6623 1.5809,0 c 0.2144,0 0.3999,-0.2328 0.4159,-0.5221 l 0.022,-0.4009 c 0.016,-0.2893 -0.1436,-0.5221 -0.358,-0.5221 l -1.5809,0 c -0.2144,0 -0.3999,0.2328 -0.416,0.5221 l -0.022,0.4009 c -0.016,0.2893 0.1436,0.5221 0.358,0.5221 z" sodipodi:nodetypes="ssccssccs"/>
      <path sodipodi:nodetypes="ssccssccs" d="m 3104.3014,8034.6623 1.5809,0 c 0.2144,0 0.3999,-0.2328 0.4159,-0.5221 l 0.022,-0.4009 c 0.016,-0.2893 -0.1436,-0.5221 -0.358,-0.5221 l -1.5809,0 c -0.2144,0 -0.3999,0.2328 -0.4159,0.5221 l -0.022,0.4009 c -0.016,0.2893 0.1436,0.5221 0.358,0.5221 z" style="fill:#ffffff;fill-opacity:1;fill-rule:nonzero;stroke:#808080;stroke-width:0.46649647" id="path150802" inkscape:connector-curvature="0"/>
      <path inkscape:connector-curvature="0" id="path150804" style="fill:#ffffff;fill-opacity:1;fill-rule:nonzero;stroke:#808080;stroke-width:0.46649647" d="m 3107.6645,8034.6623 1.5809,0 c 0.2144,0 0.3999,-0.2328 0.4159,-0.5221 l 0.022,-0.4009 c 0.016,-0.2893 -0.1436,-0.5221 -0.358,-0.5221 l -1.5809,0 c -0.2144,0 -0.3999,0.2328 -0.416,0.5221 l -0.022,0.4009 c -0.016,0.2893 0.1436,0.5221 0.358,0.5221 z" sodipodi:nodetypes="ssccssccs"/>
      <path sodipodi:nodetypes="ssccssccs" d="m 3110.9392,8034.6623 1.5808,0 c 0.2144,0 0.3999,-0.2328 0.416,-0.5221 l 0.022,-0.4009 c 0.016,-0.2893 -0.1436,-0.5221 -0.358,-0.5221 l -1.5809,0 c -0.2144,0 -0.3999,0.2328 -0.4159,0.5221 l -0.022,0.4009 c -0.016,0.2893 0.1436,0.5221 0.358,0.5221 z" style="fill:#ffffff;fill-opacity:1;fill-rule:nonzero;stroke:#808080;stroke-width:0.46649647" id="path150806" inkscape:connector-curvature="0"/>
      <path inkscape:connector-curvature="0" id="path150808" style="fill:#ffffff;fill-opacity:1;fill-rule:nonzero;stroke:#808080;stroke-width:0.46649647" d="m 3114.2471,8034.6623 1.5808,0 c 0.2144,0 0.3999,-0.2328 0.416,-0.5221 l 0.022,-0.4009 c 0.016,-0.2893 -0.1437,-0.5221 -0.3581,-0.5221 l -1.5808,0 c -0.2144,0 -0.3999,0.2328 -0.416,0.5221 l -0.022,0.4009 c -0.016,0.2893 0.1437,0.5221 0.3581,0.5221 z" sodipodi:nodetypes="ssccssccs"/>
    </g>
  </g>
</svg>
