<?xml version="1.0" standalone="no"?>
<!DOCTYPE svg PUBLIC "-//W3C//DTD SVG 1.1//EN" "http://www.w3.org/Graphics/SVG/1.1/DTD/svg11.dtd" >
<svg xmlns="http://www.w3.org/2000/svg">
<defs>
  <font id="zabbix-icons" horiz-adv-x="1000">
    <font-face font-family="zabbix-icons"
      units-per-em="1000" ascent="1000"
      descent="0" />
    <missing-glyph horiz-adv-x="0" />
    <glyph glyph-name="alert-check"
      unicode="&#xEA01;"
      horiz-adv-x="1000" d="M824.9499999999999 900H175C133.7499833333334 900 100 866.2500166666666 100 825V100C184.85 217 300.7999833333333 300.0000166666668 361.0499833333333 300.0000166666668H824.9499999999999C866.1999833333333 300.0000166666668 900 333.75 900 375.0000166666668V825C900 866.2500166666666 866.1999833333333 900 824.9499999999999 900zM693.9999833333334 693.0999999999999L457.55 442.3000000000001C442.0999999999999 426.3 417.0999999999999 426.3 401.7 442.3000000000001L301.8499999999999 548.9500166666667C286.3999999999999 565.0000166666666 286.3999999999999 591 301.8499999999999 607C317.25 623.05 342.25 623.05 357.6499999999999 607L429.5999999999999 529.4500166666667L638.1999833333332 751.1000166666666C653.5999833333332 767.1500166666667 678.6499999999999 767.1500166666667 693.9999833333331 751.1000166666666C709.4499833333332 735.1500166666667 709.4499833333332 709.15 693.9999833333331 693.0999999999999z" />
    <glyph glyph-name="alert-more"
      unicode="&#xEA02;"
      horiz-adv-x="1000" d="M824.9499999999999 900H175C133.7500166666667 900 100 866.2500166666666 100 825V100C184.85 217 300.8 300.0000166666668 361.05 300.0000166666668H824.9499999999999C866.1999999999999 300.0000166666668 900 333.75 900 375.0000166666668V825C900 866.2500166666666 866.1999999999999 900 824.9499999999999 900zM299.2 550C271.6 550 249.2 572.4 249.2 600S271.6 650.0000166666666 299.2 650.0000166666666S349.2000166666667 627.6 349.2000166666667 600S326.8 550 299.2 550zM499.1999999999999 550C471.5999999999999 550 449.2 572.4 449.2 600S471.5999999999999 650.0000166666666 499.1999999999999 650.0000166666666S549.2000166666667 627.6 549.2000166666667 600S526.8 550 499.2 550zM699.2000166666664 550C671.6000166666664 550 649.1999999999998 572.4 649.1999999999998 600S671.6000166666664 650.0000166666666 699.2000166666664 650.0000166666666S749.1999999999999 627.6 749.1999999999999 600S726.8000166666666 550 699.2000166666664 550z" />
    <glyph glyph-name="alert-x"
      unicode="&#xEA03;"
      horiz-adv-x="1000" d="M180.8439333333333 900C140.286625 900 107.192525 866.8567983333334 107.192525 826.3486V100C190.51665 214.8959166666667 304.3183333333334 310.7887666666667 363.5339333333333 310.7887666666667H819.0601333333333C859.6176333333332 310.7887666666667 892.8074666666666 344.0278833333333 892.8074666666666 384.5360833333334V826.3486C892.8074666666666 866.9058966666666 859.6641333333333 900 819.1561333333334 900zM626.1088666666666 777.0558666666667C636.6503666666665 777.3242 647.2452999999999 773.1447000000001 655.0707499999999 764.5888666666667C669.8500833333333 748.4837 669.2444166666666 722.9458833333333 653.7290833333333 707.5282166666666L563.0074166666666 615.84755L563.3907499999999 615.4642166666666L549.0055833333332 601.1750499999999L654.5917499999999 496.9314833333333C670.0095833333334 481.41565 669.35475 456.8067666666667 653.2500833333332 442.0765C637.1449166666666 427.2975 611.7029666666666 427.9993333333333 596.2852999999999 443.5148333333334L504.6046666666666 534.2361166666667L504.2213333333333 533.8527833333333L493.001 545.1691166666667L481.7806666666667 533.8527833333333L481.3973333333333 534.2361166666667L389.7152666666667 443.5143833333334C374.2976 427.9982166666666 348.7596333333334 427.3922166666668 332.6546 442.1727166666667C316.5496000000001 456.9028833333334 315.8937833333334 481.4158833333335 331.3112666666667 496.9317000000001L436.8981333333334 601.2711833333334L422.6089666666668 615.46435L422.9923000000001 615.8476833333334L332.2702833333334 707.5283166666667C316.7541166666667 722.9459833333333 316.05245 748.388 330.8319500000001 764.4930833333334C338.1971166666667 772.5455833333334 348.0533666666667 776.7145833333334 357.9717333333334 776.9600833333334C367.8900666666667 777.2050833333334 377.9290000000001 773.5445833333333 385.6869166666667 765.8355833333334L492.9034 657.1810666666668L600.3117 765.8360833333334C607.5848666666667 773.0400833333333 616.8075333333333 776.8195833333334 626.1088833333333 777.0564166666668z" />
    <glyph glyph-name="alert"
      unicode="&#xEA04;"
      horiz-adv-x="1000" d="M900 375C900 333.8333333333334 866.1666666666666 300 825 300H360.8333333333333C300.6666666666667 300 185 217 100 100V825C100 866.1666666666666 133.6666666666667 900 175 900H825C866.1666666666666 900 900 866.1666666666667 900 825V375z" />
    <glyph glyph-name="arrow-back"
      unicode="&#xEA05;"
      horiz-adv-x="1000" d="M510.3675333333333 655.5796500000001C406.8255666666667 655.5796500000001 313.0177333333334 611.5759833333334 240.6783833333334 540.0366666666667L99.9999983333333 700.05V300.0166833333334H451.7626333333333L310.2841833333333 460.89675C364.6220333333333 512.4343666666666 433.7611333333333 544.4370333333334 510.3675333333333 544.4370333333334C648.7123833333334 544.4370333333334 766.3888666666666 441.7618166666668 807.3922666666666 299.9500166666667L900 334.6195666666668C845.7287833333334 520.90175 692.1159833333334 655.5796500000001 510.3675333333333 655.5796500000001z" />
    <glyph glyph-name="arrow-down"
      unicode="&#xEA06;"
      horiz-adv-x="1000" d="M900.0000000000009 498.6800000000003L620.0000000000009 498.6800000000003L620.0000000000009 898.6800000000002L380.0000000000009 898.6800000000002L380.000000000001 498.6800000000003L100.000000000001 498.6800000000003L500.000000000001 101.3200000000004z" />
    <glyph glyph-name="arrow-forward"
      unicode="&#xEA07;"
      horiz-adv-x="1000" d="M489.6324666666666 655.5796500000001C593.1744333333332 655.5796500000001 686.9822666666666 611.5759833333334 759.3216166666666 540.0366666666667L900 700.05V300.0166833333334H548.2373666666666L689.7158166666667 460.89675C635.3779666666666 512.4343666666666 566.2388666666667 544.4370333333334 489.6324666666666 544.4370333333334C351.2876166666666 544.4370333333334 233.6111333333333 441.7618166666668 192.6077333333333 299.9500166666667L99.9999983333333 334.6195666666667C154.271215 520.90175 307.8840166666667 655.5796500000001 489.6324666666666 655.5796500000001z" />
    <glyph glyph-name="arrow-left"
      unicode="&#xEA08;"
      horiz-adv-x="1000" d="M898.6799999999988 619.9999999999998L498.6799999999988 619.9999999999998L498.6799999999988 899.9999999999998L101.3199999999989 499.9999999999999L498.6799999999988 100L498.6799999999988 379.9999999999999L898.6799999999988 379.9999999999999z" />
    <glyph glyph-name="arrow-right-top"
      unicode="&#xEA09;"
      horiz-adv-x="1000" d="M900 215.2032166666667H398.3361833333334C347.7005000000001 215.2032166666667 306.1041666666667 256.9151166666667 306.1041666666667 307.5513666666667V547.7939833333334H100.0000016666667L337.0028 784.7967833333333L574.0056 547.7939833333334H365.35485V307.5513666666667C365.35485 288.7155666666667 379.50085 274.4539 398.3361833333333 274.4539H900z" />
    <glyph glyph-name="arrow-right"
      unicode="&#xEA0A;"
      horiz-adv-x="1000" d="M501.3199999999997 619.9999999999998L101.3199999999998 619.9999999999998L101.3199999999998 379.9999999999999L501.3199999999997 379.9999999999999L501.3199999999997 99.9999999999999L898.6799999999996 499.9999999999998L501.3199999999997 899.9999999999998z" />
    <glyph glyph-name="arrow-top-right"
      unicode="&#xEA0B;"
      horiz-adv-x="1000" d="M100 837.9629416666667V457.9340333333333C100 407.7124833333334 141.3707833333333 366.4562833333335 191.5929 366.4562833333335H664.9354166666666V162.0370666666667L900 397.1016500000001L664.9354166666666 632.1662333333334V425.2224333333334H191.5929C172.91115 425.2224333333334 158.7661333333333 439.2524333333334 158.7661333333333 457.9340333333333V837.9629416666667z" />
    <glyph glyph-name="arrow-up"
      unicode="&#xEA0C;"
      horiz-adv-x="1000" d="M899.9999999999961 501.3199999999998L499.9999999999962 898.6799999999997L99.9999999999962 501.3199999999998H379.9999999999962V101.3199999999997H619.9999999999961V501.3199999999997z" />
    <glyph glyph-name="arrows-left-right"
      unicode="&#xEA0D;"
      horiz-adv-x="1000" d="M99.9993083333333 669.4203616666666L330.5795683333334 892.037895V725.8936066666666H556.4725483333333L556.5290216666666 612.9471166666667L330.5795683333333 613.00359V446.7463566666667zM899.9992983333333 330.5808916666666L669.4190383333333 107.9633583333332V274.1076466666665H443.5260583333333L443.469585 387.0541366666665L669.4190383333333 386.9976633333331V553.2548966666665z" />
    <glyph glyph-name="arrows-top-bottom"
      unicode="&#xEA0E;"
      horiz-adv-x="1000" d="M446.7463566666667 330.580235L669.4203616666666 99.999975L892.0378949999999 330.580235H725.8936066666666V556.473215L612.9471166666666 556.5296883333333L613.0035899999999 330.580235zM553.2548966666667 669.419705L330.5808916666667 899.999965L107.9633583333333 669.419705H274.1076466666667V443.5267250000001L387.0541366666667 443.4702516666668L386.9976633333333 669.419705z" />
    <glyph glyph-name="bell-off"
      unicode="&#xEA0F;"
      horiz-adv-x="1000" d="M728.5715666666666 578.5714833333334C728.5715666666666 684.9143833333333 655.4858166666667 773.543 557.1429 799.0287333333333V842.8573266666667C557.1429 874.4573433333334 531.6000333333333 900.000215 500.0000166666667 900.000215C468.4 900.000215 442.8571166666668 874.4573433333334 442.8571166666668 842.8573266666667V799.0287333333333C442.1721166666668 798.8570666666667 441.6571166666667 798.5720666666667 440.9714500000001 798.4004L728.5716333333334 510.8000833333334zM500.0000166666666 99.9997833333334C563.1428999999999 99.9997833333334 614.2857833333333 151.1998000000002 614.2857833333333 214.2855500000001H385.71425C385.71425 151.1998000000002 436.9142666666666 99.9997833333334 500.0000166666666 99.9997833333334zM899.6002333333331 180.3998166666668L899.2002333333332 179.9414833333335L179.5998166666667 899.7133200000001L99.999775 819.8847000000001L280.4570333333334 639.4274666666668C275.0285333333334 619.9417500000001 271.4285333333334 599.82745 271.4285333333334 578.6274166666667V407.2570833333334L157.142675 292.9141666666667H626.9715166666666L819.7716166666667 100.0569333333334L900.0002166666667 180.0569666666668z" />
    <glyph glyph-name="bell"
      unicode="&#xEA10;"
      horiz-adv-x="1000" d="M499.9999833333333 100C563.1428500000001 100 614.2857166666666 151.1999999999999 614.2857166666666 214.2857166666667H385.7142833333334C385.7142833333334 151.1999999999999 436.9142833333333 100 499.9999833333333 100zM728.5713999999999 407.14285V578.5714166666667C728.5713999999999 684.9142833333333 655.5428333333333 773.5428666666667 557.1428333333333 799.0285666666666V842.8571333333333C557.1428333333333 874.4571333333333 531.5999833333333 900 499.9999833333333 900C468.3999833333334 900 442.8571333333333 874.4571333333333 442.8571333333333 842.8571333333333V799.0285666666666C344.45715 773.5428666666667 271.4857166666667 684.9142833333333 271.4857166666667 578.5714166666667V407.2000000000001L157.1428616666667 292.8571500000001H842.8571333333333z" />
    <glyph glyph-name="bullet-alt-down"
      unicode="&#xEA11;"
      horiz-adv-x="1000" d="M499.9694833333333 899.5754666666667A126.825005 126.825005 0 0 1 373.1899666666667 772.7959500000001A126.825005 126.825005 0 0 1 449.2404499999999 656.6101V290.8271000000001H350.7107166666666L499.9694833333333 99.6243000000001L649.3143666666666 290.8271000000001H550.6123833333332L550.6985166666666 656.6101A126.825005 126.825005 0 0 1 626.8351166666666 772.79595A126.825005 126.825005 0 0 1 499.9694833333333 899.5754666666667z" />
    <glyph glyph-name="bullet-alt-left"
      unicode="&#xEA12;"
      horiz-adv-x="1000" d="M899.9755833333332 500.0430500000001A126.825005 126.825005 0 0 1 773.1960666666666 626.8225666666667A126.825005 126.825005 0 0 1 657.0102166666667 550.7720833333334H291.2272166666667V649.3018166666668L100.0244166666667 500.0430500000001L291.2272166666667 350.6981666666668V449.4001500000002L657.0102166666667 449.3140166666668A126.825005 126.825005 0 0 1 773.1960666666666 373.1774166666668A126.825005 126.825005 0 0 1 899.9755833333332 500.0430500000001z" />
    <glyph glyph-name="bullet-alt-right"
      unicode="&#xEA13;"
      horiz-adv-x="1000" d="M100.0244166666667 499.95695A126.825005 126.825005 0 0 1 226.8039333333334 373.1774333333334A126.825005 126.825005 0 0 1 342.9897833333334 449.2279H708.7727833333333V350.6981666666667L899.9755833333332 499.95695L708.7727833333333 649.3018166666666V550.5998666666667L342.9897833333334 550.686A126.825005 126.825005 0 0 1 226.8039333333334 626.8225833333333A126.825005 126.825005 0 0 1 100.0244166666667 499.95695z" />
    <glyph glyph-name="bullet-alt-up"
      unicode="&#xEA14;"
      horiz-adv-x="1000" d="M500.0430333333333 100.0244166666668A126.825005 126.825005 0 0 1 626.82255 226.8039333333334A126.825005 126.825005 0 0 1 550.7720833333334 342.9897833333333V708.7727833333333H649.3018166666667L500.0430333333333 899.9755783333334L350.6981666666666 708.7727833333333H449.4001166666667L449.3139833333333 342.9897833333335A126.825005 126.825005 0 0 1 373.1773999999999 226.8039333333334A126.825005 126.825005 0 0 1 500.0430333333333 100.0244166666668z" />
    <glyph glyph-name="bullet-down"
      unicode="&#xEA15;"
      horiz-adv-x="1000" d="M500.2044166666645 99.6045666666703L350.9567566666645 290.8566666666703L449.4744166666645 290.8566666666703L449.4744166666645 544.5066666666703L550.9344166666646 544.5573966666702L550.8836866666645 290.8566666666703L649.5028066666645 290.8566666666703zM493.8631666666637 899.6166666666691A126.825 126.825 0 0 0 493.8631666666637 645.9666666666711A126.825 126.825 0 0 0 493.8631666666637 899.6166666666691" />
    <glyph glyph-name="bullet-left"
      unicode="&#xEA16;"
      horiz-adv-x="1000" d="M544.5573966666709 449.065583333334L290.856666666671 449.116313333334V350.4971933333341L99.6045666666709 499.7955833333341L290.856666666671 649.043243333334V550.525583333334H544.5066666666709zM899.6166666666691 506.1368333333363A126.825 126.825 0 0 0 645.966666666671 506.1368333333363A126.825 126.825 0 0 0 899.6166666666691 506.1368333333363" />
    <glyph glyph-name="bullet-right"
      unicode="&#xEA17;"
      horiz-adv-x="1000" d="M455.4933333333319 550.5255833333347L455.4426033333318 449.0655833333347L709.1433333333318 449.1163133333347V350.4971933333348L900.3954333333318 499.7955833333347L709.1433333333318 649.0432433333347V550.5255833333347zM100.3833333333309 506.1368333333363A126.825 126.825 0 0 1 354.0333333333289 506.1368333333363A126.825 126.825 0 0 1 100.3833333333309 506.1368333333363" />
    <glyph glyph-name="bullet-up"
      unicode="&#xEA18;"
      horiz-adv-x="1000" d="M449.1163133333345 709.1433333333299L350.4971933333345 709.1433333333299L499.7955833333345 900.39543333333L649.0432433333344 709.1433333333299L550.5255833333345 709.1433333333299L550.5255833333345 455.4933333333299L449.0655833333344 455.4426033333299zM506.1368333333362 100.3833333333309A126.825 126.825 0 0 0 506.1368333333362 354.033333333329A126.825 126.825 0 0 0 506.1368333333362 100.3833333333309" />
    <glyph glyph-name="calendar-check"
      unicode="&#xEA19;"
      horiz-adv-x="1000" d="M799.9564583333333 799.9811666666667V850.2780233333333C799.9564583333333 877.6263133333333 777.607855 899.9749166666667 750.2595650000001 899.9749166666667H749.6596000000001C722.31131 899.9749166666667 699.9627066666667 877.6263133333333 699.9627066666667 850.2780233333333V799.9811666666667H549.9720833333333V850.2780233333333C549.9720833333333 877.6263133333333 527.62348 899.9749166666667 500.27519 899.9749166666667H499.6752266666666C472.3269366666666 899.9749166666667 449.9783333333333 877.6263133333333 449.9783333333333 850.2780233333333V799.9811666666667H299.9877083333333V850.2780233333333C299.9877083333333 877.6263133333333 277.639105 899.9749166666667 250.2908149999999 899.9749166666667H249.69085C222.34256 899.9749166666667 199.9939566666666 877.6263133333333 199.9939566666666 850.2780233333333V799.9811666666667H100.0002066666666V161.1210983333334C100.0002066666666 127.5231983333334 127.4984883333333 100.0249166666669 161.0963883333333 100.0249166666669H838.9040216666666C872.5019216666667 100.0249166666669 900.0002049999999 127.5231983333334 900.0002049999999 161.1210983333334V799.9811666666667zM799.9564583333333 237.1163483333334C799.9564583333333 216.6176283333334 783.357495 200.0186666666667 762.8587766666667 200.0186666666667H237.0416433333334C216.5429233333334 200.0186666666667 199.9439600000001 216.6176283333334 199.9439600000001 237.1163483333334V699.9874166666667H799.9064600000002V237.1163483333334zM403.48124 309.4618266666668C418.9302733333333 293.4628266666668 443.9287116666667 293.4628266666668 459.3277483333333 309.4618266666668L695.7629699999999 560.24615C711.1620083333332 576.2951466666667 711.1620083333332 602.2935216666667 695.7629699999999 618.2925216666667C680.3639333333332 634.3415183333334 655.3654949999999 634.3415183333334 639.9664583333332 618.2925216666667L431.379495 396.6563766666667L359.48399 474.20153C344.0849516666666 490.2505266666667 319.0365183333333 490.2505266666667 303.6874766666666 474.20153C288.2384433333333 458.20253 288.2384433333333 432.204155 303.6874766666666 416.1551566666667z" />
    <glyph glyph-name="calendar-warning"
      unicode="&#xEA1A;"
      horiz-adv-x="1000" d="M799.86 800.0411666666641V850.3378133333308C799.86 877.6859899999974 777.51149 900.0344999999975 750.1633133333335 900.0344999999975H749.5633533333335C722.2151766666667 900.0344999999975 699.8666666666668 877.6859899999974 699.8666666666668 850.3378133333308V800.0411666666641H549.8766666666668V850.3378133333308C549.8766666666668 877.6859899999974 527.5281566666669 900.0344999999975 500.1799800000002 900.0344999999975H499.5800200000002C472.2318433333334 900.0344999999975 449.8833333333335 877.6859899999974 449.8833333333335 850.3378133333308V800.0411666666641H299.8933333333335V850.3378133333308C299.8933333333335 877.6859899999974 277.5448233333335 900.0344999999975 250.1966466666668 900.0344999999975H249.5966866666668C222.2485100000002 900.0344999999975 199.9000000000002 877.6859899999974 199.9000000000002 850.3378133333308V800.0411666666641H99.9066666666668V161.1837599999975C99.9066666666668 127.5859999999975 127.4048333333335 100.0878333333308 161.0025933333335 100.0878333333308H838.8074033333335C872.4051633333335 100.0878333333308 899.9033300000001 127.5859999999975 899.9033300000001 161.1837599999975V800.0411666666641zM799.86 237.1786933333308C799.86 216.6800599999974 783.2611066666667 200.081166666664 762.7624733333333 200.081166666664H236.94753C216.4488966666666 200.081166666664 199.8500033333333 216.6800599999974 199.8500033333333 237.1786933333308V700.0478333333315H799.8100033333333V237.1786933333315zM499.8799999999998 400.0678333333313C527.4781599999998 400.0678333333313 549.8766666666664 422.4663399999979 549.8766666666664 450.0644999999979V600.0544999999979C549.8766666666664 627.6526599999979 527.4781599999998 650.0511666666646 499.8799999999998 650.0511666666646S449.8833333333331 627.6526599999979 449.8833333333331 600.0544999999979V450.0644999999979C449.8833333333331 422.4663399999979 472.2818399999998 400.0678333333313 499.8799999999998 400.0678333333313zM449.883333333337 300.0744999999986A49.9966666666667 49.9966666666667 0 0 1 549.8766666666672 300.0744999999986A49.9966666666667 49.9966666666667 0 0 1 449.883333333337 300.0744999999986" />
    <glyph glyph-name="calendar"
      unicode="&#xEA1B;"
      horiz-adv-x="1000" d="M249.6833 900.0061033333334C222.3350333333333 900.0061033333334 199.9878 877.6588633333333 199.9878 850.3106016666667V800.0122H99.9938966666667V161.11925C99.9938966666667 127.5213833333334 127.4603483333334 100.0549333333332 161.0582133333333 100.0549333333332H838.8807499999999C872.4786166666665 100.0549333333332 900.0311999999999 127.5213833333334 900.0311999999999 161.11925V800.0122H799.9511666666666V850.3106016666667C799.9511666666666 877.6588633333333 777.6039333333333 900.0061033333334 750.2556666666666 900.0061033333334H749.6527833333332C722.3045166666666 900.0061033333334 699.9572833333332 877.6588633333333 699.9572833333332 850.3106016666667V800.0122H550.0094999999999V850.3106016666667C550.0094999999999 877.6588633333333 527.6622666666666 900.0061033333334 500.3139999999999 900.0061033333334H499.7110999999999C472.3628333333332 900.0061033333334 450.0156 877.6588633333333 450.0156 850.3106016666667V800.0122H299.9816833333333V850.3106016666667C299.9816833333333 877.6588633333333 277.63445 900.0061033333334 250.2861833333333 900.0061033333334H249.6833zM199.9016666666667 700.0183166666667H799.86505V237.0836000000002H799.9511666666667C799.9511666666667 216.5849166666667 783.3289166666667 200.0488333333334 762.8302666666667 200.0488333333334H237.0225666666667C216.52385 200.0488333333334 199.9016666666667 216.5849500000002 199.9016666666667 237.0836000000002V700.0183166666667zM279.4833666666667 576.4255166666667V488.2310666666667H367.6778166666666V576.4255166666668H279.4833666666666zM455.8722666666666 576.4255166666667V488.2310666666667H544.0667V576.4255166666668H455.8722666666666zM632.2611499999999 576.4255166666667V488.2310666666667H720.4556V576.4255166666668H632.2611499999999zM279.4833666666667 400.0366166666668V311.8421833333334H367.6778166666666V400.0366166666668H279.4833666666666zM455.8722666666666 400.0366166666668V311.8421833333334H544.0667V400.0366166666668H455.8722666666666zM632.2611499999999 400.0366166666668V311.8421833333334H720.4556V400.0366166666668H632.2611499999999z" />
    <glyph glyph-name="check"
      unicode="&#xEA1C;"
      horiz-adv-x="1000" d="M884.0623666666665 783.1867666666667C862.9122166666666 805.4869166666667 828.5119499999998 805.6369333333333 807.3117666666666 783.1867666666667L384.8584833333333 337.8332666666667L192.657 540.4348666666667C171.4568166666667 562.7850333333333 137.1065466666667 562.7850333333333 115.95638 540.4348666666667C94.7062133333333 518.0846833333333 94.6562133333333 481.8344000000001 115.95638 459.5842166666667L346.1581833333334 216.6823333333333C356.8583500000001 205.4821666666667 370.8583666666667 199.9821666666667 384.8584833333333 200.0321666666666C398.8584833333334 199.9821666666667 412.8587 205.4823333333334 423.5087833333334 216.6823333333333L884.0623666666665 702.3361166666666C905.3125499999998 724.6863 905.3125499999998 760.8365833333334 884.0623666666665 783.1867666666666z" />
    <glyph glyph-name="checkbox"
      unicode="&#xEA1D;"
      horiz-adv-x="1000" d="M829.4544000000001 900.0000016666667H170.4955833333333C131.7480166666667 900.0000016666667 100 868.3019833333333 100 829.5044V170.4956000000001C100 131.7480166666668 131.6980166666667 100 170.4955833333333 100H829.5043999999999C868.2519833333332 100 900 131.6980166666667 900 170.4956000000001V829.5044C899.9499999999999 868.3019833333333 868.2519833333332 900.0000016666667 829.4544000000001 900.0000016666667zM402.4310833333334 274.0891166666668L400.63025 275.8899500000001L398.8294333333333 274.0891166666668L211.7430166666667 461.1774166666667L282.4385833333333 531.8730166666667L400.5812 413.7304000000001L698.7625666666667 711.91175L769.4581499999999 641.2161666666667z" />
    <glyph glyph-name="chevron-double-down"
      unicode="&#xEA1E;"
      horiz-adv-x="1000" d="M99.9978733333333 519.3076166666667C100.0055666666667 500.6228333333334 107.3140733333333 481.9082166666667 121.9603566666667 467.6311833333333L499.9734666666666 100.0394833333334L877.9865666666667 467.6311833333333C907.3406666666666 496.1852499999999 907.3406666666666 542.4914833333332 877.9865666666667 570.98405C848.6324833333333 599.5381333333332 801.1455833333333 599.5381333333332 771.7914999999999 570.98405L499.9734666666666 306.6591000000001L228.1554333333333 570.98405C198.80135 599.5381333333333 151.3144783333334 599.5381333333333 121.9603566666667 570.98405C107.34484 556.6762166666667 99.99018 537.9923833333334 99.9978733333333 519.3076166666667zM99.9978733333333 826.8685166666667C100.0055666666667 808.1837333333333 107.3140733333333 789.4691166666667 121.9603566666667 775.1920833333334L499.9734666666666 407.6004000000001L877.9865666666667 775.1920833333334C907.3406666666666 803.74615 907.3406666666666 850.0523783333333 877.9865666666667 878.5449466666666C848.6324833333333 907.09903 801.1455833333333 907.09903 771.7914999999999 878.5449466666666L499.9734666666666 614.1338666666668L228.1554333333333 878.5449466666666C198.80135 907.09903 151.3144783333334 907.09903 121.9603566666667 878.5449466666666C107.34484 864.2371133333334 99.99018 845.55328 99.9978733333333 826.8685166666667z" />
    <glyph glyph-name="chevron-double-left"
      unicode="&#xEA1F;"
      horiz-adv-x="1000" d="M519.3076166666666 900.0021283333333C500.6228333333333 899.9944350000001 481.9082166666666 892.68593 467.6311833333333 878.0396450000001L100.0394933333333 500.0265333333334L467.6311833333333 122.0134333333333C496.1852499999999 92.6593333333334 542.4914833333333 92.6593333333334 570.98405 122.0134333333333C599.5381333333332 151.3675166666667 599.5381333333332 198.8544166666667 570.98405 228.2085000000001L306.6591 500.0265333333334L570.98405 771.8445666666667C599.5381333333332 801.19865 599.5381333333332 848.6855233333333 570.98405 878.0396450000001C556.6762166666666 892.6551616666667 537.9923833333332 900.0098216666667 519.3076166666666 900.0021283333333zM826.8685166666666 900.0021283333333C808.1837333333332 899.9944350000001 789.4691166666667 892.6859283333333 775.1920833333334 878.0396450000001L407.6003999999999 500.0265333333334L775.1920833333334 122.0134333333333C803.74615 92.6593333333334 850.0523833333333 92.6593333333334 878.54495 122.0134333333333C907.0990333333332 151.3675166666667 907.0990333333332 198.8544166666667 878.54495 228.2085000000001L614.1338666666667 500.0265333333334L878.54495 771.8445666666667C907.0990333333332 801.19865 907.0990333333332 848.6855233333333 878.54495 878.0396450000001C864.2371166666667 892.6551616666667 845.5532833333334 900.0098216666667 826.8685166666668 900.0021283333333z" />
    <glyph glyph-name="chevron-double-right"
      unicode="&#xEA20;"
      horiz-adv-x="1000" d="M480.6923833333333 900.0021283333333C499.3771666666666 899.9944350000001 518.0917833333333 892.6859283333333 532.3688166666667 878.0396450000001L899.9605166666666 500.0265333333334L532.3688166666667 122.0134333333333C503.81475 92.6593333333334 457.5085166666667 92.6593333333334 429.01595 122.0134333333333C400.4618666666667 151.3675166666667 400.4618666666667 198.8544166666667 429.01595 228.2085000000001L693.3408999999999 500.0265333333334L429.0159499999999 771.8445666666667C400.4618666666666 801.19865 400.4618666666666 848.6855233333333 429.0159499999999 878.0396450000001C443.3237833333332 892.6551616666667 462.0076166666666 900.0098216666667 480.6923833333332 900.0021283333333zM173.1314833333333 900.0021283333333C191.8162666666667 899.9944350000001 210.5308833333334 892.6859283333333 224.8079166666667 878.0396450000001L592.3996 500.0265333333334L224.8079166666667 122.0134333333333C196.25385 92.6593333333334 149.9476233333333 92.6593333333334 121.455055 122.0134333333333C92.9009716666667 151.3675166666667 92.9009716666667 198.8544166666667 121.455055 228.2085000000001L385.8661333333333 500.0265333333334L121.455055 771.8445666666667C92.9009716666667 801.19865 92.9009716666667 848.6855233333333 121.455055 878.0396450000001C135.7628883333333 892.6551616666667 154.4467216666667 900.0098216666667 173.1314833333333 900.0021283333333z" />
    <glyph glyph-name="chevron-double-up"
      unicode="&#xEA21;"
      horiz-adv-x="1000" d="M99.9978733333333 480.6923833333334C100.0055666666667 499.3771666666667 107.3140733333333 518.0917833333333 121.9603566666667 532.3688166666667L499.9734666666666 899.9605083333333L877.9865666666667 532.3688166666667C907.3406666666666 503.8147500000001 907.3406666666666 457.5085166666667 877.9865666666667 429.01595C848.6324833333333 400.4618666666668 801.1455833333333 400.4618666666668 771.7914999999999 429.01595L499.9734666666666 693.3409L228.1554333333333 429.01595C198.80135 400.4618666666668 151.3144783333334 400.4618666666668 121.9603566666667 429.01595C107.34484 443.3237833333334 99.99018 462.0076166666668 99.9978733333333 480.6923833333334zM99.9978733333333 173.1314833333335C100.0055666666667 191.8162666666668 107.3140733333333 210.5308833333334 121.9603566666667 224.8079166666667L499.9734666666666 592.3996000000001L877.9865666666667 224.8079166666667C907.3406666666666 196.2538500000001 907.3406666666666 149.9476166666667 877.9865666666667 121.45505C848.6324833333333 92.9009666666667 801.1455833333333 92.9009666666667 771.7914999999999 121.45505L499.9734666666666 385.8661333333333L228.1554333333333 121.45505C198.80135 92.9009666666667 151.3144783333334 92.9009666666667 121.9603566666667 121.45505C107.34484 135.7628833333333 99.99018 154.4467166666666 99.9978733333333 173.1314833333332z" />
    <glyph glyph-name="chevron-down"
      unicode="&#xEA22;"
      horiz-adv-x="1000" d="M878.02285 621.4473333333333L499.98845 253.8130333333334L122.0156 621.4473333333333C92.6614666666667 650.0014333333334 92.6614666666667 696.2788 122.0156 724.7713833333333C151.3697166666667 753.3255 198.8778833333333 753.3255 228.232 724.7713833333333L500.05 460.3996166666667L771.8679999999999 724.7713833333333C801.2221166666666 753.3255 848.73025 753.3255 878.0843999999998 724.7713833333333C907.3154499999998 696.1557166666666 907.3154499999998 650.0014333333334 878.02285 621.4473333333334z" />
    <glyph glyph-name="chevron-left"
      unicode="&#xEA23;"
      horiz-adv-x="1000" d="M621.4473333333333 878.0228516666666L253.8130333333333 499.9884500000001L621.4473333333333 122.0156000000001C650.0014333333334 92.6614666666667 696.2787999999999 92.6614666666667 724.7713833333332 122.0156000000001C753.3254999999998 151.3697166666667 753.3254999999998 198.8778833333333 724.7713833333332 228.232L460.3996166666666 500.0500000000001L724.7713833333332 771.868C753.3254999999998 801.2221166666667 753.3254999999998 848.7302516666667 724.7713833333332 878.0844016666667C696.1557166666665 907.3154516666668 650.0014333333332 907.3154516666668 621.4473333333332 878.0228516666667z" />
    <glyph glyph-name="chevron-right"
      unicode="&#xEA24;"
      horiz-adv-x="1000" d="M378.5526666666667 878.0228516666666L746.1869666666666 499.9884500000001L378.5526666666667 122.0156000000001C349.9985666666667 92.6614666666667 303.7212 92.6614666666667 275.2286166666667 122.0156000000001C246.6745 151.3697166666667 246.6745 198.8778833333333 275.2286166666667 228.232L539.6003833333333 500.0500000000001L275.2286166666667 771.868C246.6745 801.2221166666667 246.6745 848.7302516666666 275.2286166666667 878.0844016666666C303.8442833333334 907.3154516666666 349.9985666666667 907.3154516666666 378.5526666666667 878.0228516666666z" />
    <glyph glyph-name="chevron-up"
      unicode="&#xEA25;"
      horiz-adv-x="1000" d="M878.02285 378.5526666666667L499.98845 746.1869666666666L122.0156 378.5526666666667C92.6614666666667 349.9985666666667 92.6614666666667 303.7212000000001 122.0156 275.2286166666668C151.3697166666667 246.6745000000002 198.8778833333333 246.6745000000002 228.232 275.2286166666668L500.05 539.6003833333334L771.8679999999999 275.2286166666668C801.2221166666666 246.6745000000002 848.73025 246.6745000000002 878.0843999999998 275.2286166666668C907.3154499999998 303.8442833333335 907.3154499999998 349.9985666666668 878.02285 378.5526666666668z" />
    <glyph glyph-name="circle-check-filled"
      unicode="&#xEA26;"
      horiz-adv-x="1000" d="M500.0430666666666 900.01865A400.0000166666666 400.0000166666666 0 0 1 99.98135 500.0430666666667A400.0000166666666 400.0000166666666 0 0 1 500.0430666666666 99.9813499999999A400.0000166666666 400.0000166666666 0 0 1 900.0186499999999 500.0430666666666A400.0000166666666 400.0000166666666 0 0 1 500.0430666666666 900.01865zM678.4990166666666 683.4944L741.372 620.6214L415.0353333333333 294.2847333333333L413.3986666666666 295.8347333333333L411.8486666666666 294.2847333333333L245.5366333333333 460.5967166666666L308.4096333333333 523.4697166666666L413.3989166666666 418.3943z" />
    <glyph glyph-name="circle-check"
      unicode="&#xEA27;"
      horiz-adv-x="1000" d="M499.9694833333333 900.0061033333334C279.9697 900.0061033333334 99.9938966666666 720.0303 99.9938966666666 500.0305166666666C99.9938966666666 280.0307166666667 279.9697 99.9688 499.9694833333333 99.9688C719.9692833333332 99.9688 900.0311999999999 280.0307166666667 900.0311999999999 500.0305166666666C900.0311999999999 720.0302999999999 719.9692833333332 900.0061033333333 499.9694833333332 900.0061033333333zM499.9694833333333 819.9937666666667C675.9693166666666 819.9937666666667 820.0188499999999 676.0303166666667 820.0188499999999 500.0305166666667C820.0188499999999 324.0306833333334 675.9693166666666 179.9811500000001 499.9694833333333 179.9811500000001C323.9696833333333 179.9811500000001 180.0062333333333 324.0306833333334 180.0062333333333 500.0305166666667C180.0062333333333 676.0303166666667 323.9696833333333 819.9937666666667 499.9694833333333 819.9937666666667zM678.5115499999999 683.48185L413.41145 418.38175L308.4221666666667 523.4571666666667L245.5491833333334 460.5841666666666L411.8611666666667 294.2721833333333L413.41145 295.8224833333334L415.0478833333334 294.2721833333333L741.3845500000001 620.6088666666666L678.51155 683.4818499999999z" />
    <glyph glyph-name="circle-info-filled"
      unicode="&#xEA28;"
      horiz-adv-x="1000" d="M500 899.9999916666667C279.0666833333333 899.9999916666667 100 720.93335 100 499.95555C100 279.0222333333334 279.0666833333333 100.0000166666667 500 100.0000166666667C720.9333166666667 100.0000166666667 900 279.0222333333334 900 499.95555C900 720.9333333333334 720.9333166666667 899.9999916666667 500 899.9999916666667zM544.4444333333332 277.73335H455.5555666666666V544.4888833333333H544.4444333333332zM544.4444333333332 633.3333333333333H455.5555666666666V722.2222166666667H544.4444333333332z" />
    <glyph glyph-name="circle-info"
      unicode="&#xEA29;"
      horiz-adv-x="1000" d="M499.9694833333333 900.0061033333334C279.9697 900.0061033333334 99.9938966666666 720.0303 99.9938966666666 500.0305166666666C99.9938966666666 280.0307166666667 279.9697 99.9688 499.9694833333333 99.9688C719.9692833333332 99.9688 900.0311999999999 280.0307166666667 900.0311999999999 500.0305166666666C900.0311999999999 720.0302999999999 719.9692833333332 900.0061033333333 499.9694833333332 900.0061033333333zM499.9694833333333 819.9937666666667C675.9693166666666 819.9937666666667 820.0188499999999 676.0303166666667 820.0188499999999 500.0305166666667C820.0188499999999 324.0306833333334 675.9693166666666 179.9811500000001 499.9694833333333 179.9811500000001C323.9696833333333 179.9811500000001 180.0062333333333 324.0306833333334 180.0062333333333 500.0305166666667C180.0062333333333 676.0303166666667 323.9696833333333 819.9937666666667 499.9694833333333 819.9937666666667zM455.52775 722.2391833333334V633.3557166666667H544.4112166666666V722.2391833333334H455.52775zM455.52775 544.47225V277.7357333333333H544.4112166666666V544.47225H455.52775z" />
    <glyph glyph-name="circle-question-filled"
      unicode="&#xEA2A;"
      horiz-adv-x="1000" d="M499.9569333333333 900.0186516666666A400.0000166666666 400.0000166666666 0 0 1 99.9813483333333 500.0430500000001A400.0000166666666 400.0000166666666 0 0 1 499.9569333333333 99.9813500000001A400.0000166666666 400.0000166666666 0 0 1 900.0186500000001 500.0430500000001A400.0000166666666 400.0000166666666 0 0 1 499.9569333333333 900.0186516666666zM489.96615 747.2286666666666C509.6105666666667 747.2286666666666 527.9655333333334 744.6271666666667 545.4322 739.6495C562.8543833333333 734.5383333333334 578.1436333333334 727.1258333333334 591.1658333333334 717.1702500000001C604.188 707.3035833333333 614.4438666666667 695.0188333333333 621.99945 680.3077333333334C629.4661166666667 665.5965666666667 633.2821166666668 648.5313166666667 633.2821166666668 628.9758000000002C633.2821166666668 610.4869333333335 630.0304500000001 593.9831666666668 623.8081166666667 579.5386833333334C617.54145 565.0941833333335 609.59245 551.7977333333334 600.03695 539.5755833333335C590.4814500000001 527.3977500000001 580.2673000000001 516.6556333333335 569.2894833333334 507.2778166666668C558.2673166666668 497.8999833333334 547.9670333333335 488.4919833333334 538.4558833333334 479.11415C528.9003833333334 469.6919833333334 520.9958833333334 459.9641666666666 514.6847166666668 449.8308333333333C508.4180500000001 439.6975 505.2107166666667 428.5078166666667 505.2107166666667 416.2411666666667C505.2107166666667 405.8856666666667 506.6357166666667 396.4331666666668 509.2587166666667 388.0775C511.9253833333334 379.6773333333334 514.6463833333333 372.5401666666667 517.26855 366.7179166666667V366.6317833333334H440.7013C438.5236333333334 372.6317833333334 436.5334666666667 380.54195 434.8446333333333 390.2306833333334C433.1113 399.8306833333334 432.3469666666667 409.2277000000001 432.3469666666667 418.7388500000001C432.3469666666667 433.4055166666667 435.2626333333334 446.7048500000001 441.2181333333334 458.6158333333333C447.0848000000001 470.6158333333333 454.5528 481.8084 463.3528833333334 492.1193833333333C472.1528833333333 502.4748833333333 481.6805166666666 512.4029 491.9471666666666 522.0917166666666C502.2583333333333 531.6472166666666 511.7386 541.0998833333333 520.6275833333333 550.2553833333334C529.3830833333333 559.4108833333333 536.80675 568.9747333333333 542.7623333333333 579.10805C548.718 589.3302166666666 551.6335 600.3948666666666 551.6335 612.43935C551.6335 623.2393500000001 549.5295 632.6837333333333 545.174 640.8613833333334C540.8183333333334 648.8168833333333 534.8175 655.54855 527.1731833333333 661.01515C519.5731833333334 666.4373166666667 510.8541833333334 670.40365 501.0765833333333 673.15915C491.29875 675.7813166666667 480.7955833333333 677.1209833333332 469.6401 677.1209833333332C433.5512333333333 677.1209833333332 399.2983666666667 661.06465 366.6317333333334 628.9757666666667V712.60545C406.2761500000001 735.6276666666668 447.4328500000001 747.2286666666666 489.96615 747.2286666666666zM482.0424833333333 323.5680500000001C495.7758166666666 323.5680500000001 507.9019666666667 318.8318833333334 518.3021166666666 309.0985500000001C528.4799499999999 300.1652166666667 533.4604499999999 288.8976833333334 533.4604499999999 275.1643666666668C533.4604499999999 261.6532000000001 528.4797833333333 250.2995333333335 518.3021166666666 241.1440500000001C507.67995 231.7663833333335 495.5534666666666 227.1052166666668 482.0424833333333 227.1052166666668C468.2203166666666 227.1052166666668 456.0188833333333 231.7662166666668 445.3522166666667 241.1440500000001C435.1742166666667 250.2995500000002 430.1938833333334 261.6533833333335 430.1938833333334 275.1643666666668C430.1938833333334 288.8977 435.1745500000001 300.2095666666667 445.3522166666667 309.0985500000001C455.7522166666666 318.8318833333334 467.9981666666667 323.5680500000001 482.0424833333333 323.5680500000001z" />
    <glyph glyph-name="circle-question"
      unicode="&#xEA2B;"
      horiz-adv-x="1000" d="M499.9694833333333 900.0061033333334C279.9699166666666 900.0061033333334 99.9938966666666 720.0300833333333 99.9938966666666 500.0305166666666C99.9938966666666 280.0309333333334 279.9699166666666 99.9688 499.9694833333333 99.9688C719.9690666666667 99.9688 900.0311999999999 280.0309333333334 900.0311999999999 500.0305166666666C900.0311999999999 720.0300833333333 719.9690666666665 900.0061033333333 499.9694833333332 900.0061033333333zM499.9694833333333 819.9937666666667C675.9691333333334 819.9937666666667 820.0188499999999 676.0301333333333 820.0188499999999 500.0305166666667C820.0188499999999 324.0308666666666 675.9691333333334 179.9811500000001 499.9694833333333 179.9811500000001C323.9698666666667 179.9811500000001 180.0062333333333 324.0308666666666 180.0062333333333 500.0305166666667C180.0062333333333 676.0301333333334 323.9698666666667 819.9937666666667 499.9694833333333 819.9937666666667zM489.9786999999999 760.0491C447.4454166666667 760.0491 406.2885833333333 748.4480833333333 366.6442833333334 725.4258833333333V641.7962C399.3109166666667 673.8850166666666 433.5636833333334 689.9413999999999 469.65265 689.9413999999999C480.8079666666667 689.9413999999999 491.3108166666666 688.6013833333333 501.0891333333333 685.97955C510.8674666666666 683.22405 519.58575 679.25775 527.1857333333332 673.8355833333333C534.8299 668.3689166666666 540.8313666666667 661.63725 545.1863666666667 653.6817833333332C549.5430166666666 645.5041166666667 551.6459166666666 636.0597166666666 551.6459166666666 625.2597333333333C551.6459166666666 613.21525 548.7297833333333 602.1505999999999 542.7747999999999 591.9284333333333C536.8199666666666 581.7951166666666 529.39505 572.2312333333333 520.64005 563.0757666666666C511.7512333333333 553.9202666666665 502.2713 544.4676 491.9596333333333 534.9121166666666C481.6929833333332 525.2232833333333 472.1653333333333 515.2952666666666 463.3653499999999 504.9397833333333C454.5656833333333 494.6288333333333 447.0972666666666 483.4362166666666 441.2306 471.4362333333333C435.27395 459.5252666666667 432.3594833333333 446.2259 432.3594833333333 431.55925C432.3594833333333 422.0480833333334 433.1245166666666 412.6510500000001 434.8571833333333 403.0510833333334C436.5455166666667 393.3624166666667 438.5355166666666 385.4521666666667 440.7138333333333 379.4521833333333H517.2810833333333V379.5383000000001C514.6594166666666 385.36055 511.9378999999999 392.49775 509.2712333333333 400.8979000000001C506.6395833333332 409.25355 505.2232499999999 418.7060666666668 505.2232499999999 429.06155C505.2232499999999 441.3282000000001 508.4305999999999 452.5179166666667 514.6972666666666 462.6512333333334C521.0084333333333 472.7845333333333 528.9134333333333 482.5124000000001 538.4684166666666 491.9345500000001C547.9794166666666 501.3123666666667 558.2803666666666 510.7203666666667 569.3020333333333 520.0982C580.2798499999999 529.4759833333334 590.4945166666665 540.2181666666667 600.0494999999999 552.3959666666667C609.6056666666665 564.6180833333333 617.5539999999999 577.9146000000001 623.8206666666665 592.3590833333334C630.0423333333332 606.8035333333333 633.2946833333332 623.3073666666667 633.2946833333332 641.7962C633.2946833333332 661.3516833333333 629.4786499999999 678.4169833333333 622.0119833333332 693.1281166666668C614.4563333333332 707.8391833333333 604.2000333333333 720.124 591.1783833333333 729.9906333333333C578.1562333333333 739.9462166666667 562.8668999999999 747.35875 545.4447499999999 752.4698833333333C527.9782666666665 757.44755 509.6230166666666 760.0491 489.9786999999999 760.0491zM479.4711666666666 336.3884833333334C466.5155333333333 335.8325 455.1147166666667 331.0439166666667 445.3647166666667 321.9190833333335C435.1864 313.0300833333333 430.2063 301.7182000000002 430.2063 287.9848833333334C430.2063 274.4739000000002 435.1864 263.1200666666668 445.3647166666667 253.9645666666668C456.0313666666667 244.5867500000002 468.2333333333333 239.9258166666669 482.0549833333333 239.9258166666669C495.5659666666667 239.9258166666669 507.6929666666666 244.5869166666669 518.3146166666666 253.9645666666668C528.4929333333333 263.1200666666669 533.4730333333332 274.4737500000002 533.4730333333332 287.9848833333334C533.4730333333332 301.7182166666668 528.4929333333333 312.9857500000001 518.3146166666666 321.9190833333335C507.9144666666666 331.6524000000002 495.7883 336.3884833333334 482.0549833333333 336.3884833333334C481.1772166666666 336.3884833333334 480.3348666666666 336.4255500000002 479.4711666666666 336.3884833333334z" />
    <glyph glyph-name="circle-warning-filled"
      unicode="&#xEA2C;"
      horiz-adv-x="1000" d="M500 100.0000166666667C279.0666833333333 100.0000166666667 100 279.0666666666667 100 500.04445C100 720.9777833333333 279.0666833333333 899.9999916666667 500 899.9999916666667C720.9333166666667 899.9999916666667 900 720.9777833333333 900 500.04445C900 279.0666833333334 720.9333166666667 100.0000166666667 500.0000000000001 100.0000166666667zM544.4444333333333 722.2666666666667H455.5555666666667V455.5111166666667H544.4444333333333zM544.4444333333333 366.6666666666668H455.5555666666667V277.7777833333335H544.4444333333333z" />
    <glyph glyph-name="circle-warning"
      unicode="&#xEA2D;"
      horiz-adv-x="1000" d="M499.9694833333333 99.9688C279.9697 99.9688 99.9938966666666 279.9445999999999 99.9938966666666 499.9443833333333C99.9938966666666 719.9441833333333 279.9697 900.0061033333333 499.9694833333333 900.0061033333333C719.9692833333332 900.0061033333333 900.0311999999999 719.9441833333333 900.0311999999999 499.9443833333333C900.0311999999999 279.9445999999999 719.9692833333332 99.9688 499.9694833333332 99.9688zM499.9694833333333 179.9811333333333C675.9693166666666 179.9811333333333 820.0188499999999 323.9445833333334 820.0188499999999 499.9443833333333C820.0188499999999 675.9442166666665 675.9693166666666 819.9937499999999 499.9694833333333 819.9937499999999C323.9696833333333 819.9937499999999 180.0062333333333 675.9442166666665 180.0062333333333 499.9443833333333C180.0062333333333 323.9445833333332 323.9696833333333 179.9811333333333 499.9694833333333 179.9811333333333zM455.52775 277.7357166666667V366.6191833333334H544.4112166666666V277.7357166666667zM455.52775 455.50265V722.2391666666667H544.4112166666666V455.50265z" />
    <glyph glyph-name="clock"
      unicode="&#xEA2E;"
      horiz-adv-x="1000" d="M500.00002 899.9998033333334C280.0000216666667 899.9998033333334 100.0000233333334 719.9998033333334 100.0000233333334 499.9998066666667C100.0000233333334 279.9998083333335 280.0000233333334 99.9998099999999 500.00002 99.9998099999999C720.0000183333334 99.9998099999999 900.0000166666666 279.9998099999999 900.0000166666666 499.9998066666666C900.0000166666666 719.9998049999999 720.0000166666666 899.9998033333333 500.0000199999999 899.9998033333333zM500.00002 179.99981C324.00002 179.99981 180.0000233333333 323.9998083333334 180.0000233333333 499.9998066666667C180.0000233333333 675.9998066666667 324.0000216666667 819.9998033333334 500.00002 819.9998033333334C676.00002 819.9998033333334 820.0000166666666 675.999805 820.0000166666666 499.9998066666667C820.0000166666666 323.9998066666667 676.0000183333333 179.99981 500.00002 179.99981zM520.0000200000001 699.9998049999999H460.0000200000001V459.9998066666667L668.00002 331.9998066666667L700.0000183333334 383.9998066666667L520.0000183333334 491.9998066666667z" />
    <glyph glyph-name="cog-filled"
      unicode="&#xEA2F;"
      horiz-adv-x="1000" d="M500.08615 899.9940533333333C461.7711666666667 899.9940533333333 423.4313 877.6543033333334 410.2552833333334 832.9008166666667L405.5182833333334 816.88115A43.653435 43.653435 0 0 0 342.8175333333334 790.8706500000001L328.1758833333334 798.8805C246.1700166666667 843.4834383333333 156.5706516666667 753.7989666666667 201.2241166666667 671.8426L209.1477833333333 657.2009333333333A43.653435 43.653435 0 0 0 183.1373166666667 594.5002L167.11765 589.7632000000001C77.6107016666667 563.41165 77.6107016666667 436.5396500000001 167.11765 410.1876L183.1373166666667 405.5367666666667A43.653435 43.653435 0 0 0 209.1477833333333 342.7499166666667L201.13795 328.10825C156.5344683333333 246.1018666666667 246.1699833333334 156.3668833333333 328.17585 201.07035L342.8175166666667 208.9940166666666A43.653435 43.653435 0 0 0 405.5182500000001 183.0696666666667L410.2552500000001 167.1361666666667C436.6072833333334 77.6292 563.4787833333334 77.6292 589.83085 167.1361666666667L594.6539833333334 183.0696666666667A43.653435 43.653435 0 0 0 657.3547166666668 208.9940166666666L671.9963833333335 200.9841833333333C754.0027500000001 156.3312333333332 843.6516166666668 246.1518166666666 798.9481500000002 328.1081999999999L791.0244833333335 342.7498666666666A43.653435 43.653435 0 0 0 817.0349000000001 405.5367166666665L832.8824000000002 410.1875499999999C922.3893666666668 436.5396166666665 922.3893666666668 563.4115999999999 832.8824000000002 589.7631499999999L817.0349333333335 594.5002166666666A43.653435 43.653435 0 0 0 791.02445 657.2009499999999L799.0342833333334 671.8426166666666C843.68775 753.8489666666666 753.9528000000001 843.4478366666665 671.9964000000001 798.7943666666665L657.3547333333335 790.8706999999998A43.653435 43.653435 0 0 0 594.6540166666667 816.8811666666666L589.8308833333334 832.9008333333331C576.6548333333333 877.6543716666666 538.4016166666667 899.9940533333333 500.08615 899.9940533333333zM500.0000166666666 612.3285833333334A112.3088383333333 112.3088383333333 0 0 0 612.3101333333333 500.0184666666667A112.3135916666667 112.3135916666667 0 0 0 387.6898999999999 500.0184666666667A112.3088383333333 112.3088383333333 0 0 0 500.0000166666666 612.3285833333334z" />
    <glyph glyph-name="cog"
      unicode="&#xEA30;"
      horiz-adv-x="1000" d="M500.0475 899.9999933333334C461.7324833333333 899.9999933333334 423.3729666666667 877.6582266666667 410.1969333333333 832.9047L405.5116 816.8880333333334A43.653435 43.653435 0 0 0 342.8111166666666 790.9094166666666L328.1614666666666 798.9180333333334C246.1555166666666 843.5210266666667 156.5449649999999 753.8134833333334 201.1984833333333 671.8570333333334L209.1096499999999 657.2073666666668A43.653435 43.653435 0 0 0 183.1306166666666 594.5074500000001L167.1137833333333 589.8171166666668C77.6067366666666 563.4655333333334 77.6067366666666 436.5655500000002 167.1137833333333 410.2134833333335L183.1306166666666 405.5281500000001A43.653435 43.653435 0 0 0 209.1096499999999 342.7301833333335L201.1009833333333 328.0805166666668C156.4974483333333 246.0740500000002 246.1555166666666 156.4140000000002 328.1614666666666 201.1175166666668L342.8111333333332 209.0281833333335A43.653435 43.653435 0 0 0 405.5115666666666 183.0496333333334L410.1970666666666 167.1303C436.5491333333332 77.62325 563.4491166666666 77.62325 589.8011999999998 167.1303L594.5866999999998 183.0496333333334A43.653435 43.653435 0 0 0 657.2870333333332 209.0281333333335L671.9360333333332 201.0194666666668C753.9424833333333 156.3664833333335 843.6030333333333 246.1240333333335 798.8995166666665 328.0805000000001L790.9883333333333 342.7301500000001A43.653435 43.653435 0 0 0 816.9668833333334 405.5281000000001L832.8862166666668 410.2134333333335C922.3932666666666 436.5655166666668 922.3932666666666 563.4655 832.8862166666668 589.8170833333334L816.9669500000001 594.5074500000001A43.653435 43.653435 0 0 0 790.9884000000001 657.2073833333334L798.9970666666668 671.8570500000001C843.6505500000001 753.8635 753.8924833333334 843.4735433333334 671.9360166666668 798.8200333333334L657.2870166666668 790.9093666666668A43.653435 43.653435 0 0 0 594.5864333333335 816.8879666666668L589.8011000000001 832.9046333333334C576.6250333333334 877.6582266666667 538.3630166666666 899.9999933333334 500.0475 899.9999933333334zM500.0475 849.9960433333333C517.8988499999999 849.9960433333333 535.6973166666667 839.62021 541.8477833333333 818.7435833333334L546.6332833333333 802.72675A93.65737 93.65737 0 0 1 681.2138333333334 746.9603666666667L695.766 754.9690333333333C733.9689 775.7207166666667 775.8491999999999 734.0374333333333 755.0475666666666 695.7849166666667L747.0394 681.13525A93.65737 93.65737 0 0 1 802.9033000000001 546.5541499999999L818.7244666666668 541.8688166666666C860.4777333333334 529.5679833333334 860.4777333333334 470.4717166666667 818.7244666666668 458.1707333333333L802.8051333333334 453.4852333333333A93.65737 93.65737 0 0 1 747.0393 318.80665L755.0474666666667 304.25515C775.7991833333333 266.0521166666666 734.0189166666667 224.2688 695.7658833333332 245.07045L681.2137499999999 252.9815666666666A93.65737 93.65737 0 0 1 546.6331666666666 197.2151833333334L541.8476666666666 181.2958500000001C529.5466666666666 139.5425666666668 470.4505499999999 139.5425666666668 458.1495833333332 181.2958500000001L453.4643333333332 197.2151833333334A93.65737 93.65737 0 0 1 318.8837499999999 252.9815666666666L304.2340833333332 244.9729C266.0310833333333 224.2213166666666 224.2482833333332 266.0021 245.0494166666666 304.2551L253.0580833333333 318.8066A93.65737 93.65737 0 0 1 197.2921666666666 453.4853499999999L181.2749999999999 458.17085C139.5222149999999 470.4716833333333 139.5222149999999 529.5679499999999 181.2749999999999 541.8689333333332L197.2921666666666 546.5542666666665A93.65737 93.65737 0 0 1 253.0580666666666 681.1352666666667L245.0494166666666 695.7849166666665C224.2982999999999 733.9874166666666 265.9810666666666 775.7707166666665 304.2340999999999 754.9690833333333L318.8837666666666 746.9604166666666A93.65737 93.65737 0 0 1 453.4643333333332 802.7267833333333L458.1498333333332 818.7436166666666C464.3001833333332 839.6202433333333 482.1960999999999 849.9960433333333 500.0474999999999 849.9960433333333zM500.0475 662.2857833333333A162.3174633333333 162.3174633333333 0 1 1 500.0475 337.6512333333334A162.3174633333333 162.3174633333333 0 0 1 500.0475 662.2857833333333zM500.0475 612.2818500000001A112.3088383333333 112.3088383333333 0 0 0 612.3613333333333 499.9685166666667A112.3135916666667 112.3135916666667 0 0 0 387.73415 499.9685166666667A112.3088383333333 112.3088383333333 0 0 0 500.0475 612.2818500000001z" />
    <glyph glyph-name="collapse"
      unicode="&#xEA31;"
      horiz-adv-x="1000" d="M100 541.8666666666667L233.6666666666667 675.4666666666667L409.2 500L500 590.8L324.5333333333333 766.2666666666667L458.2666666666667 900H100zM100 300H166.6666666666667V233.3333333333333H100zM100 433.3333333333334H166.6666666666667V366.6666666666668H100zM100 166.6666666666668H166.6666666666667V100H100zM500 166.6666666666668H566.6666666666666V100H500zM633.3333333333333 166.6666666666668H700V100H633.3333333333334zM233.3333333333333 166.6666666666668H300V100H233.3333333333333zM366.6666666666667 166.6666666666668H433.3333333333333V100H366.6666666666667zM766.6666666666665 166.6666666666668H833.3333333333333V100H766.6666666666665zM833.3333333333333 233.3333333333335H900V166.6666666666668H833.3333333333333zM833.3333333333333 366.6666666666668H900V300H833.3333333333333zM833.3333333333333 500H900V433.3333333333334H833.3333333333333zM833.3333333333333 633.3333333333333H900V566.6666666666667H833.3333333333333zM833.3333333333333 766.6666666666667H900V700H833.3333333333333zM833.3333333333333 900H900V833.3333333333334H833.3333333333333zM700 900H766.6666666666667V833.3333333333334H700zM566.6666666666666 900H633.3333333333333V833.3333333333334H566.6666666666666z" />
    <glyph glyph-name="command"
      unicode="&#xEA32;"
      horiz-adv-x="1000" d="M483.6653766666666 278.8743233333335C483.6653766666666 307.6014133333335 506.980115 330.9161516666667 535.707205 330.9161516666667H847.958175C876.685265 330.9161516666667 900.0000033333333 307.6014133333335 900.0000033333333 278.8743233333335S876.685265 226.8324950000001 847.958175 226.8324950000001H535.707205C506.980115 226.8324950000001 483.6653766666666 250.1472333333334 483.6653766666666 278.8743233333335zM409.6618966666667 537.1058750000001L188.8484183333333 757.9193533333333C168.500065 778.2677083333333 135.5575866666667 778.2677083333333 115.2612733333333 757.9193533333333C94.9649616666667 737.5709983333334 94.9129183333333 704.62852 115.2612733333333 684.3322083333334L299.59343 500.00005L115.2612733333333 315.6678966666667C94.9129183333333 295.3195416666666 94.9129183333333 262.3770633333333 115.2612733333333 242.08075C135.6096283333334 221.732395 168.5521066666667 221.732395 188.8484183333334 242.08075L409.6618966666667 462.8942283333333C419.9141366666667 473.1464683333334 424.9101516666667 486.5732616666668 424.85811 500.0000516666666C424.9621933333333 513.4268433333334 419.9141366666667 526.853635 409.6618966666667 537.105875z" />
    <glyph glyph-name="copy"
      unicode="&#xEA33;"
      horiz-adv-x="1000" d="M564.2856999999999 371.4285666666667H242.8571333333333V292.8571666666667H564.2856999999999zM564.2856999999999 550.0000166666666H242.8571333333333V471.4285833333334H564.2856999999999zM292.8571333333333 892.85715V735.7143000000001H100V107.1428500000002H707.14285V264.2857166666668H900V892.85715zM614.2857 202.9714333333335H192.8571333333333V642.8571666666667H614.2857zM803.7714333333332 360.1142833333335H707.14285V735.7143000000001H385.7142833333334V786.9714333333334H803.7714333333332z" />
    <glyph glyph-name="dashboard"
      unicode="&#xEA34;"
      horiz-adv-x="1000" d="M151.0617716666667 813.07285C122.7596033333333 813.07285 99.999995 791.0370166666667 99.999995 763.6358833333334V236.3641C99.999995 208.9625333333334 122.7596033333333 186.92715 151.0617716666667 186.92715H848.9381999999999C877.2403833333332 186.92715 899.9999999999999 208.9629666666667 899.9999999999999 236.3641V763.6359C899.9999999999999 791.0374833333334 877.2403833333332 813.0728666666666 848.9381999999999 813.0728666666666zM155.598205 759.5018H464.9057V603.8694333333334H155.598205zM521.3938999999999 759.5018H844.04515V440.7441166666668H521.3938833333333zM155.5093866666667 560.0306166666667H464.6388166666667V241.2730000000002H155.5093866666667zM521.3938833333333 396.9053H844.2227666666666V241.2729999999999H521.3938833333333z" />
    <glyph glyph-name="download"
      unicode="&#xEA35;"
      horiz-adv-x="1000" d="M500.2581 791.9959333333334C497.7256 792.01795 495.3486 791.99945 493.2904333333333 791.9078333333333H492.5154333333334C474.996 791.9078333333333 460.9454166666667 777.7716666666666 460.9454166666667 760.2523666666667V550.0156833333333L353.84865 549.8390166666667V549.7509333333334C335.8690166666668 548.3509333333334 321.2669833333334 525.0445666666667 338.3653166666667 508.1166333333334L483.0532833333333 363.4285500000001C492.4726166666666 353.9888833333333 507.7851999999999 353.9888833333333 517.2038 363.4285500000001L661.8056666666666 508.1171166666667C678.56845 525.0534166666666 664.12675 548.1513333333332 646.2355833333332 549.5791999999999L646.7522499999999 550.0958666666666L539.6554833333332 549.9192V760.1550333333332C539.6554833333332 777.6753333333334 525.5189833333333 791.8109333333333 507.9995666666666 791.8109333333333C505.4582333333333 791.8990333333333 502.7900666666666 791.9430833333333 500.2577333333333 791.9875999999999zM125.0323133333333 458.0604666666667A25.001015 25.001015 0 0 1 100.0000216666667 433.0281833333335V308.03895A100.0040616666667 100.0040616666667 0 0 1 200.0428333333333 207.9956833333333H800.04305A100.0040616666667 100.0040616666667 0 0 1 899.9999833333333 308.03895V433.0281833333334A25.001015 25.001015 0 0 1 850.0217333333334 433.0281833333334V316.8990833333333H149.9782766666667V433.0281833333333A25.001015 25.001015 0 0 1 125.0323133333333 458.0604666666666z" />
    <glyph glyph-name="drag-handle"
      unicode="&#xEA36;"
      horiz-adv-x="1000" d="M544.4444333333333 100V188.8889H633.3333333333333V100zM544.4444333333333 366.6666833333333H633.3333333333333V277.7777833333334H544.4444333333332zM544.4444333333333 544.44445H633.3333333333333V455.5555499999999H544.4444333333332zM544.4444333333333 722.2222333333333H633.3333333333333V633.3333499999999H544.4444333333332zM544.4444333333333 900.0000033333333H633.3333333333333V811.1111166666666H544.4444333333332zM366.6666666666667 188.8889H455.5555666666667V100H366.6666666666667zM366.6666666666667 366.6666833333333H455.5555666666667V277.7777833333334H366.6666666666667zM366.6666666666667 544.44445H455.5555666666667V455.5555499999999H366.6666666666667zM366.6666666666667 722.2222333333333H455.5555666666667V633.3333499999999H366.6666666666667zM366.6666666666667 900.000005H455.5555666666667V811.1111166666666H366.6666666666667z" />
    <glyph glyph-name="envelope-filled"
      unicode="&#xEA37;"
      horiz-adv-x="1000" d="M500.025 403.0438566666667L876.5485316666666 779.56739C863.1976983333333 792.1681766666668 845.396585 800.0186666666667 825.6953533333333 800.0186666666667H174.3046433333333C154.653415 800.0186666666667 136.8023 792.1681766666668 123.451465 779.5673883333334zM703.08769 499.9999166666667L851.5969733333333 351.490635C866.2478866666665 336.8397183333333 866.2478866666665 313.088235 851.5969733333333 298.4373183333334C844.2965149999999 291.1368633333333 834.6959149999998 287.4366316666667 825.0953149999999 287.4366316666667C815.4947149999999 287.4366316666667 805.8941149999998 291.0868600000001 798.59366 298.43732L650.0843766666667 446.9466016666667L526.5766600000001 323.4388816666667C519.2762033333333 316.1384266666667 509.6756033333334 312.4381950000001 500.0750033333334 312.4381950000001C490.4744033333334 312.4381950000001 480.8738033333334 316.0884233333335 473.5733466666668 323.4388816666667L350.0656283333335 446.9466016666668L201.5563466666668 298.4373183333334C194.2558900000002 291.1368633333333 184.6552900000002 287.4366316666667 175.0546900000002 287.4366316666667C165.4540900000002 287.4366316666667 155.8534900000002 291.0868600000001 148.5530350000002 298.43732C133.9021183333335 313.0882366666666 133.9021183333335 336.83972 148.5530350000002 351.4906366666667L297.0623150000002 499.9999166666667L100 696.9622266666668V274.2858100000001C100 233.383255 133.45209 199.9811666666668 174.3046433333333 199.9811666666668H825.6953533333333C866.59791 199.9811666666668 899.9999966666666 233.4332566666667 899.9999966666666 274.2858100000001V696.9622266666668z" />
    <glyph glyph-name="envelope"
      unicode="&#xEA38;"
      horiz-adv-x="1000" d="M174.7768166666667 800.4553833333333C133.7509516666667 800.4553833333333 100.0000016666667 766.6737833333334 100.0000016666667 725.6107V274.3893166666668C100.0000016666667 233.3261833333334 133.7509516666667 199.5446000000001 174.7768166666667 199.5446000000001H825.2231999999999C866.2490666666665 199.5446000000001 899.9999999999999 233.3261833333334 899.9999999999999 274.3893166666668V725.6107C899.9999999999999 766.6737833333334 866.2490666666665 800.4553833333334 825.2231999999999 800.4553833333334zM174.7768166666667 746.109H825.2231999999999C830.9016999999999 746.109 835.8026999999998 744.012 839.4213666666665 740.5968333333333L500.5593166666666 401.4272166666667L161.18103 741.1997333333334C164.7325633333333 744.25275 169.4370666666667 746.1090666666666 174.7768166666667 746.109zM154.2970866666667 644.6509333333333L302.9041666666667 495.9950833333334L209.0244166666667 401.85785C194.7530833333333 387.5735166666667 194.7530833333333 364.4657500000001 209.0244166666667 350.1814166666667C216.13575 343.0147500000001 225.40125 339.5015833333333 234.7531666666667 339.5015833333333C244.105 339.5015833333333 253.45655 343.0635833333334 260.5679166666667 350.1814166666667L354.5337333333333 444.2325000000001L474.8305999999999 323.8264333333334C481.9419333333333 316.6597666666667 491.2934333333333 313.0604333333333 500.6453666666666 313.0604333333333C509.9972 313.0604333333333 519.3487666666666 316.7086000000001 526.46015 323.8264333333334L646.8430833333333 444.2325L740.7228333333333 350.1814166666666C747.8341666666666 343.01475 757.1856666666666 339.5015833333333 766.5375999999999 339.5015833333333C775.8894333333332 339.5015833333333 785.1549333333331 343.0635833333334 792.2663333333331 350.1814166666666C806.5376666666665 364.46575 806.5376666666665 387.5734666666666 792.2663333333331 401.85785L698.3865833333332 495.9950833333332L845.7029166666665 643.5312833333332V274.3893166666667C845.7029166666665 262.59265 837.0090833333331 253.8909833333334 825.2231999999999 253.8909833333334H174.7768166666667C162.9909333333333 253.8909833333334 154.2970866666667 262.59265 154.2970866666667 274.3893166666667z" />
    <glyph glyph-name="expand"
      unicode="&#xEA39;"
      horiz-adv-x="1000" d="M900 458.1333333333334L766.3333333333334 324.5333333333334L590.8 500L500 409.2000000000001L675.4666666666666 233.7333333333334L541.7333333333332 100H900zM900 566.6666666666667H833.3333333333333V900H900zM833.3333333333333 833.3333333333334H166.6666666666667V900H833.3333333333333zM166.6666666666667 166.6666666666668H100V900H166.6666666666667zM433.3333333333333 100H100V166.6666666666668H433.3333333333333z" />
    <glyph glyph-name="eye-alt-off"
      unicode="&#xEA3A;"
      horiz-adv-x="1000" d="M280.0001333333334 858.23432C276.5469666666667 858.1390116666666 273.1284 857.0450833333333 270.0954833333334 854.8753533333334L234.9555166666667 829.8122833333333C226.86775 824.0263333333334 225.03545 812.8369833333334 230.8214 804.7492166666666L699.7850166666666 149.2336666666666C705.5709666666664 141.1459000000001 716.7603166666667 139.3136 724.8480833333332 145.09955L759.9019333333332 170.1626166666667C767.9896999999999 175.9485666666667 769.822 187.1379333333334 764.0360499999999 195.2257000000002L699.1821333333332 285.9178333333334C827.4638499999998 366.9470833333335 900.0311999999999 500.0305166666668 900.0311999999999 500.0305166666668S749.9690833333332 775.0352666666668 499.9694833333332 775.0352666666668C452.2216166666666 775.0352666666668 408.1974833333333 764.8605333333335 368.1084499999999 748.5941500000001L295.0724333333333 850.7412383333333C291.4562166666667 855.7960933333334 285.7554166666667 858.39317 280.0001333333334 858.23432zM499.9694833333333 724.99525H500.0556166666667C606.0165666666667 724.9635333333333 694.0055166666666 666.6098833333334 758.4377666666667 602.1776A656.6498 656.6498 0 0 0 841.3784499999999 500.0305166666667C838.4794499999998 495.6805166666667 835.2963833333332 490.8970666666667 831.64605 485.6472500000001C814.8963 461.6474833333334 790.1877166666666 429.6330000000002 758.4377666666666 397.8834333333334C732.6266833333332 372.0726333333335 703.0044333333332 347.1776000000002 669.9849499999999 326.6560833333334L629.5911999999998 383.1556500000002A174.9999333333333 174.9999333333333 0 0 1 674.9803333333332 500.0305166666668A174.9999333333333 174.9999333333333 0 0 1 500.3139999999999 675.0413666666668A174.9999333333333 174.9999333333333 0 0 1 486.8781166666666 674.5246000000002A174.9999333333333 174.9999333333333 0 0 1 431.0675666666666 660.5719666666668L398.1669166666666 706.6501166666667C429.8760166666666 718.1429500000002 463.8637833333333 724.9844500000002 499.9694833333333 724.99525zM242.9653666666667 671.2517666666668C150.98952 593.3207500000001 99.9938966666667 500.0305166666667 99.9938966666667 500.0305166666667S249.9702833333334 225.0257666666667 499.9694833333333 225.0257666666667C520.1468 225.0257666666667 539.6878833333333 226.8137833333333 558.5360999999999 230.1072833333333L525.5493166666666 276.1854333333333C517.1588166666667 275.4387666666667 508.6013333333333 274.97965 499.9694833333333 274.97965C393.9699166666666 274.97965 306.0374666666666 333.4340500000001 241.5873166666667 397.8834333333333A656.6998 656.6998 0 0 0 158.56052 500.0305166666666H158.732775A656.6498 656.6498 0 0 0 241.67345 602.1776C251.2847666666666 611.8038333333333 261.5167 621.2454166666666 272.16255 630.4273833333333L242.9653666666667 671.2517666666666zM499.9694833333333 625.00135A125.000055 125.000055 0 0 0 599.7911166666667 424.8413166666667L461.21215 618.4556666666667A125.000055 125.000055 0 0 0 499.9694833333333 625.00135zM331.7627 547.1422A174.9999333333333 174.9999333333333 0 0 1 324.9586333333333 500.0305166666667A174.9999333333333 174.9999333333333 0 0 1 490.2370833333333 325.5364333333333L445.8814833333333 387.6342833333333A125.000055 125.000055 0 0 0 376.2044333333334 484.9582166666667L331.7627 547.1422z" />
    <glyph glyph-name="eye-alt"
      unicode="&#xEA3B;"
      horiz-adv-x="1000" d="M500 774.9999666666668C250.0002833333334 774.9999666666668 100 500 100 500S250.0002833333334 225.00005 500 225.00005C750.0001 225.00005 900 500 900 500S750.0001 774.99995 500 774.9999666666668zM500 724.9998666666668C605.9997833333333 724.9998666666668 693.9484333333332 666.5981666666667 758.3983333333333 602.1482666666667A656.6498 656.6498 0 0 0 841.4064166666666 500C838.5074166666665 495.65 835.2905833333332 490.8941666666666 831.6402499999999 485.6445166666667C814.8906 461.6446500000001 790.1483499999999 429.6013666666668 758.3983333333333 397.8517500000001C693.9480666666666 333.4022166666668 605.9496666666666 275.0001666666666 500 275.0001666666666C394.0002166666667 275.0001666666666 306.0515666666667 333.4022166666666 241.6012833333334 397.8517333333333A656.6998 656.6998 0 0 0 158.59395 500.0000166666666H158.7053166666667A656.6498 656.6498 0 0 0 241.7130166666667 602.1482833333332C306.0630666666667 666.5981833333333 394.0139666666667 724.9998833333333 500.01375 724.9998833333333zM486.914 674.5120333333334A174.9999333333333 174.9999333333333 0 0 1 325.0002666666667 500A174.9999333333333 174.9999333333333 0 0 1 674.9997999999999 500A174.9999333333333 174.9999333333333 0 0 1 486.914 674.5120333333333zM500 625.00005A125.0000566666667 125.0000566666667 0 0 0 500 374.9999666666667A125.0000566666667 125.0000566666667 0 0 0 500 625.00005z" />
    <glyph glyph-name="eye-off"
      unicode="&#xEA3C;"
      horiz-adv-x="1000" d="M478.80135 359.0087833333334C367.00835 371.3081166666667 289.6131833333333 477.8013666666667 316.4115166666666 587.3945333333334zM500.00005 314.1116C357.5589333333333 314.1116 233.2167 388.9069333333333 166.6708666666667 500.0499833333333C196.8689666666667 550.4968333333334 239.0163333333334 593.49415 289.3632 625.3421333333333L251.1155833333334 679.1388C193.0692166666667 641.8911166666667 144.32225 591.9942333333333 109.22447 533.3479C96.9251366666667 512.7991833333333 96.9251366666667 487.2507833333334 109.22447 466.7020666666667C187.51955 335.9602166666667 333.5104333333333 248.4657 499.95005 248.4657C518.34895 248.4657 536.7477333333334 249.5657 554.9966 251.7155333333333L510.5493666666666 314.2616C507.0997 314.1615999999999 503.5497 314.1113833333333 500.0001999999999 314.1113833333333zM890.7756333333332 466.7020666666666C844.6284999999999 389.6068666666667 774.9328666666665 327.6107499999999 691.3880666666665 289.6631333333334L758.2339166666666 195.669C763.5335833333332 188.2696666666667 761.6837499999998 178.0200833333333 754.1340833333331 172.8204166666666L725.3359333333333 152.97165C717.7864666666666 147.7719833333333 707.3871333333333 149.5718499999999 702.1374166666666 157.0214333333332L241.8661666666667 804.3309833333334C236.56645 811.73045 238.41635 821.9798833333334 245.96595 827.1795500000001L274.7641500000001 847.0282883333334C282.31365 852.228105 292.71295 850.4280883333333 297.9626833333334 842.9785216666667L375.0578666666667 734.5352833333334C414.8053833333334 745.6346166666667 456.70275 751.5341666666667 500.05005 751.5341666666667C666.48965 751.5341666666667 812.5305166666666 664.0396166666667 890.7756499999999 533.2977833333334C903.0748166666664 512.7490833333334 903.0748166666664 487.2506833333334 890.7756333333332 466.7020666666667zM833.3292166666666 499.9999666666666C771.9830499999999 602.4435833333332 661.58995 673.9890999999999 533.0979666666667 684.5884666666666C519.49875 670.7893166666665 511.09935 651.9904999999999 511.09935 631.2417833333333C511.09935 588.9444333333333 545.8971833333334 554.6965833333334 588.8944833333334 554.6965833333334C631.8418 554.6965833333334 666.6896333333333 588.9944333333333 666.6896333333333 631.2417833333333V631.2918C709.2369666666666 552.9966833333333 689.9381666666667 453.2029 615.3928166666666 396.55645L652.4905166666666 344.4097C728.63575 376.2077166666666 792.0818 431.1542833333333 833.3292166666666 499.9999666666666z" />
    <glyph glyph-name="eye"
      unicode="&#xEA3D;"
      horiz-adv-x="1000" d="M500.94575 749.64535C279.669 749.64535 100 560.5204 100 500.0002333333334C100 433.8061166666668 279.669 250.35465 500.94575 250.35465C720.3310166666666 250.35465 900 430.0236333333334 900 500.0002333333334C900 558.6289166666667 720.3310166666666 749.64535 500.94575 749.64535zM665.4848333333333 651.3004000000001C665.4848333333333 643.7354 667.3763333333333 638.0615666666667 667.3763333333333 632.388C667.3763333333333 588.8892333333334 633.3340166666667 554.8464333333334 589.83475 554.8464333333334C546.336 554.8464333333334 512.2937 592.6717166666667 512.2937 624.8230333333335C512.2937 656.9738500000001 517.9670333333333 670.2122833333335 533.0975833333333 685.3427000000001C587.9437666666666 681.5597 637.1165 664.5388166666668 665.4853333333333 651.2998833333335zM500.94575 310.8748000000001C323.16775 310.8748000000001 179.43255 450.8275166666667 179.43255 500.0002333333333C179.43255 530.2600833333332 239.9527166666667 600.2366833333333 330.7327 645.6264333333334C315.6028666666667 617.2580833333333 304.2553666666667 586.99775 304.2553666666667 551.06395C304.2553666666667 443.2625666666667 393.1438666666667 356.26505 500.94575 356.26505C606.8556666666666 356.26505 695.74465 443.2625666666667 695.74465 551.06395C695.74465 585.1067666666665 684.3971499999999 617.2580833333333 669.2673 645.6264333333334C760.0473000000001 600.2366833333333 820.5674666666666 528.3690666666666 820.5674666666666 500.0002333333333C820.5674666666666 447.0450333333333 676.83225 310.8748000000001 500.94575 310.8748000000001z" />
    <glyph glyph-name="filter-filled"
      unicode="&#xEA3E;"
      horiz-adv-x="1000" d="M862.4534833333332 884.5693416666667H137.5402516666667C104.247535 884.5693416666667 87.4363683333334 845.727825 111.004985 823.0382333333333L365.3701333333334 545.1594V235.6360500000002C365.3701333333334 223.8792166666667 371.3584666666667 212.8365666666667 381.3573 206.0791333333335L581.0586666666667 121.9683333333335C587.7611666666667 117.4633333333335 595.1778333333333 115.4306666666668 602.3747833333333 115.4306666666668C621.8231166666667 115.4306666666668 640.0625833333332 130.1541666666667 640.0625833333332 151.52525V545.1594L888.9338166666665 823.0382333333334C912.5573833333332 845.6728916666667 895.8560666666666 884.5693416666667 862.4534833333332 884.5693416666667z" />
    <glyph glyph-name="filter"
      unicode="&#xEA3F;"
      horiz-adv-x="1000" d="M771.9697999999999 807.6554666666666L582.8166166666666 596.47195L563.2035999999999 574.5514833333334V213.0013833333334L442.33895 263.8744166666667V575.0459666666667L422.1765166666667 597.0762833333333L229.3974000000001 807.6554666666666H771.9698000000001M862.4534833333333 884.5693416666667H137.5402516666667C104.247535 884.5693416666667 87.4363683333334 845.7278249999999 111.004985 823.0382333333333L365.3701333333334 545.1594V235.6360500000002C365.3701333333334 223.8792166666667 371.3584666666667 212.8365666666667 381.3573 206.0791333333335L581.0586666666667 121.9683333333335C587.7611666666667 117.4633333333335 595.1778333333333 115.4306666666668 602.3747833333333 115.4306666666668C621.8231166666667 115.4306666666668 640.0625833333332 130.1541666666667 640.0625833333332 151.52525V545.1594L888.9338166666665 823.0382333333334C912.5573833333332 845.6728916666667 895.8560666666666 884.5693416666667 862.4534833333332 884.5693416666667z" />
    <glyph glyph-name="fullscreen"
      unicode="&#xEA40;"
      horiz-adv-x="1000" d="M557.14279 634.9714666666666L634.97136 557.1428966666667L785.37136 707.5428966666667L899.99993 592.9143250000001V900.0000366666667H593.0285033333333L707.5427883333333 785.4286083333334zM99.9999366666667 407.0286116666668V100.0000433333333H407.028505L292.4570783333333 214.5714716666667L442.8570766666667 364.97147L365.0285066666667 442.8571833333333L214.6285066666667 292.4000416666667zM99.9999366666667 593.0286100000001L214.571365 707.542895L365.0285066666667 557.1428966666667L442.8570766666667 634.9714666666666L292.4570766666667 785.3714666666667L407.0856483333333 900.0000366666667H99.9999366666667zM707.5999316666666 214.6286133333333L592.9713616666667 100.0000433333333H899.99993V407.0286116666668L785.4285016666666 292.457185L635.0285033333333 442.8571833333333L557.14279 365.0286133333333z" />
    <glyph glyph-name="help"
      unicode="&#xEA41;"
      horiz-adv-x="1000" d="M525.9354666666667 329.1523666666667C522.0019 337.8863333333334 517.9347833333334 348.6205833333334 513.9344666666667 361.2217166666667C510.0009 373.7561833333333 507.9338333333333 387.8906000000001 507.9338333333333 403.4252333333334C507.9338333333333 421.8267666666667 512.6674999999999 438.6281666666667 522.0685 453.8294333333333C531.5358333333334 469.0307666666666 543.4035666666666 483.6319333333333 557.7380833333334 497.7664333333333C572.0059500000001 511.8342666666667 587.4739333333334 525.9688 604.0086166666667 540.0366333333334C620.4766666666667 554.1044833333333 635.8779499999999 570.23915 650.2124833333334 588.5073500000001C664.5468999999999 606.7755833333333 676.4813333333334 626.8438833333333 685.8821333333334 648.5123666666666C695.2163333333335 670.1809333333333 700.0167333333335 694.9162333333334 700.0167333333335 722.6518666666666C700.0167333333335 751.98765 694.3494833333335 777.5897833333333 683.1485500000001 799.6582999999999C671.8142833333334 821.7267833333333 656.4129833333335 840.0616666666666 636.87805 854.92955C617.3430666666667 869.86415 594.4078166666668 880.9984 568.2723333333333 888.6657166666666C542.0701166666666 896.133 514.4678166666666 900 484.9987 900C421.1933666666667 900 359.4549 882.5986166666667 299.98325 848.0623333333333V722.6518666666666C348.9873666666667 770.7892166666667 400.4583 794.8579 454.5961666666666 794.8579C471.3307833333333 794.8579 486.9988833333333 792.8570666666667 501.6667666666667 788.9240666666667C516.3346 784.7904 529.4024166666666 778.8565666666667 540.80335 770.7226166666667C552.27085 762.5217833333334 561.2717166666666 752.3210666666666 567.8056 740.38675C574.3394333333333 728.1855833333334 577.5397666666667 714.0512166666667 577.5397666666667 697.7831833333335C577.5397666666667 679.7150333333334 573.1392666666667 663.1803166666667 564.2052666666666 647.8456833333335C555.2710999999999 632.64435 544.2035333333333 618.2432000000001 531.0690833333333 604.5087333333333C517.7345833333333 590.7742333333334 503.5334666666667 576.6397333333334 488.0654833333333 562.3052C472.66415 547.7707 458.2630166666666 532.8360833333334 445.0619166666666 517.3014666666668C431.86075 501.8336333333334 420.7265333333333 485.0987666666667 411.9258166666667 467.0972666666668C402.9918166666667 449.2291833333334 398.5913166666666 429.2941166666667 398.5913166666666 407.2922833333335C398.5913166666666 393.0244500000001 399.7913166666667 378.8232333333334 402.39165 364.4220333333334C404.9251499999999 349.8875333333334 407.8588166666666 338.0865166666668 411.1258166666666 329.0857500000002H525.9354zM527.6004666666666 121.0683333333333C542.8684666666667 134.8028333333333 550.4025 151.8042333333333 550.4025 172.0726166666667C550.4025 192.6742666666667 542.8685 209.6090666666667 527.6004666666666 223.0101666666667C511.99895 237.6115000000001 493.79765 244.6787500000001 473.1959166666667 244.6787500000001C452.1275833333334 244.6787500000001 433.7926500000001 237.6114166666667 418.1913333333335 223.0101666666667C402.9233333333334 209.6756666666667 395.3893333333334 192.6743166666667 395.3893333333334 172.0726166666667C395.3893333333334 151.8043333333334 402.9233333333334 134.8028333333333 418.1913500000001 121.0683333333333C434.1926833333335 107.0005 452.4608833333334 100 473.1959333333334 100C493.3976833333335 100 511.5991333333334 107.0005 527.6004666666668 121.0683333333333z" />
    <glyph glyph-name="hierarchy"
      unicode="&#xEA42;"
      horiz-adv-x="1000" d="M399.9997833333333 725.0000500000001A74.9999483333333 74.9999483333333 0 0 0 474.9994833333333 799.9997833333334H524.9996166666666A74.9999483333333 74.9999483333333 0 0 0 599.9997833333332 725.0000500000001V674.9994833333333A74.9999483333333 74.9999483333333 0 0 0 524.9996166666666 600.0002166666668V550.0001166666667H799.9993333333333A24.9999816666667 24.9999816666667 0 0 0 824.9993833333334 525.00005V474.99995A24.9999816666667 24.9999816666667 0 0 0 774.9997166666666 474.99995V500H524.9996166666666V474.99995A25.0000666666667 25.0000666666667 0 0 0 474.9994833333333 474.99995V500H224.9998333333333V474.99995A24.9999816666667 24.9999816666667 0 0 0 175.0001666666667 474.99995V525.0000500000001A24.9999816666667 24.9999816666667 0 0 0 199.9997666666667 550.0001166666668H474.9994833333333V600.0002166666668A74.9999483333333 74.9999483333333 0 0 0 399.9997833333333 674.9994833333335zM524.9996166666666 649.9998833333334A24.9999816666667 24.9999816666667 0 0 1 549.99965 674.9994833333334V725.0000500000001A24.9999816666667 24.9999816666667 0 0 1 524.9996166666666 749.9996666666667H474.9994833333333A24.9999816666667 24.9999816666667 0 0 1 449.9998833333333 725.0000500000001V674.9994833333333A24.9999816666667 24.9999816666667 0 0 1 474.9994833333333 649.9998833333334zM100 325.0000666666668A74.9999483333333 74.9999483333333 0 0 0 175.0001666666667 399.9997666666668H225.0002833333333A74.9999483333333 74.9999483333333 0 0 0 299.99955 325.0000666666668V275.0004A74.9999483333333 74.9999483333333 0 0 0 225.0002833333333 200.0002333333333H175.0001666666667A74.9999483333333 74.9999483333333 0 0 0 100 275.0004zM175.0001666666667 350.0001166666667A24.9999816666667 24.9999816666667 0 0 1 150.0001 325.0000666666668V275.0004A24.9999816666667 24.9999816666667 0 0 1 175.0001666666667 250.0003333333334H225.0002833333333A24.9999816666667 24.9999816666667 0 0 1 250.0003333333333 275.0004V325.0000666666668A24.9999816666667 24.9999816666667 0 0 1 225.0002833333333 350.0001166666667zM399.9997833333334 325.0000666666668A74.9999483333333 74.9999483333333 0 0 0 474.9994833333333 399.9997666666668H524.9996166666666A74.9999483333333 74.9999483333333 0 0 0 599.9997833333333 325.0000666666668V275.0004A74.9999483333333 74.9999483333333 0 0 0 524.9996166666666 200.0002333333333H474.9994833333333A74.9999483333333 74.9999483333333 0 0 0 399.9997833333334 275.0004zM474.9994833333333 350.0001166666667A24.9999816666667 24.9999816666667 0 0 1 449.9998833333334 325.0000666666668V275.0004A24.9999816666667 24.9999816666667 0 0 1 474.9994833333333 250.0003333333334H524.9996166666666A24.9999816666667 24.9999816666667 0 0 1 549.99965 275.0004V325.0000666666668A24.9999816666667 24.9999816666667 0 0 1 524.9996166666666 350.0001166666667zM699.9995500000001 325.0000666666668A74.9999483333333 74.9999483333333 0 0 0 774.9997166666668 399.9997666666668H824.9993833333334A74.9999483333333 74.9999483333333 0 0 0 900 325.0000666666668V275.0004A74.9999483333333 74.9999483333333 0 0 0 824.9993833333334 200.0002333333333H774.9997166666666A74.9999483333333 74.9999483333333 0 0 0 699.9995499999999 275.0004zM774.9997166666668 350.0001166666667A24.9999816666667 24.9999816666667 0 0 1 749.9992166666668 325.0000666666668V275.0004A24.9999816666667 24.9999816666667 0 0 1 774.9997166666668 250.0003333333334H824.9993833333334A24.9999816666667 24.9999816666667 0 0 1 849.9999 275.0004V325.0000666666668A24.9999816666667 24.9999816666667 0 0 1 824.9993833333334 350.0001166666667z" />
    <glyph glyph-name="home"
      unicode="&#xEA43;"
      horiz-adv-x="1000" d="M420 150.0000000000001V397.05H580V150.0000000000001H779.9999999999999V479.3999833333334H899.9999999999999L500.0000166666666 849.9999983333333L100.0000016666667 479.3999833333334H220V150.0000000000001z" />
    <glyph glyph-name="i"
      unicode="&#xEA44;"
      horiz-adv-x="1000" d="M539.8576499999999 771.2571666666666C550.20065 758.5143333333333 567.2862 752.2285833333333 591.11475 752.2285833333333C616.4861833333333 752.2285833333333 636.2576166666666 761.2000833333333 650.3147833333334 779.0857333333333C664.3147833333334 796.9142999999999 671.4004166666667 816.85715 671.4004166666667 838.9142933333333C671.4004166666667 856.9714266666666 665.51475 871.6000016666667 653.80035 882.9714316666666C642.1431833333334 894.285715 626.0860666666666 899.9999933333334 605.8003666666667 899.9999933333334C581.9718 899.9999933333334 562.3718 892.1142766666667 547.1146666666667 876.2285666666667C531.8575 860.34285 524.2575333333334 841.2571449999999 524.2575333333334 818.9142833333333C524.31465 799.7142833333332 529.5147000000001 783.8285833333333 539.8577 771.2571666666666zM348.4862333333333 490.2286166666667C401.6862333333333 524.8571833333333 435.57195 542.1714833333333 450.4862333333333 542.1714833333333C459.4005666666666 542.1714833333333 463.9720666666666 537.1429833333333 463.9720666666666 527.0284833333334C463.9720666666666 506.5143 447.5722333333333 438.2285000000001 414.71495 322.3999500000001C399.9721166666667 270.5142833333333 390.2006166666667 233.8857166666667 385.7434833333334 212.8000166666667C381.22915 191.8286000000001 379.00065 172.8571500000001 379.00065 156.2286C379.00065 139.6572666666667 382.6576500000001 126.1714333333334 390.2006500000001 115.6571666666668C397.5719833333334 105.143 408.9434333333334 100 424.1435000000001 100C436.2006666666668 100 450.4863500000001 102.9143333333333 466.6577833333334 108.5713333333332C482.8291166666667 114.343 509.9149166666667 128.8572499999999 547.8577833333334 152.1144333333332C585.7434166666667 175.3715666666666 618.3148500000001 196.0572666666666 645.7434000000001 214.0572666666665L648.0862333333334 221.1429333333331L635.1719000000002 242.6857999999998L628.1432333333335 243.3141333333331C577.2290666666668 209.8286666666664 546.0290833333335 192.9143833333332 534.2576333333335 192.9143833333332C529.9718000000001 192.9143833333332 526.0863000000002 194.8582166666665 522.8289666666668 198.6858833333331C519.5146333333334 202.5143833333332 517.9148000000001 206.9717166666665 517.9148000000001 212.0002166666665C517.9148000000001 230.3430166666665 534.8291333333334 297.6573499999997 568.9433666666667 413.7716166666665C588.3718666666667 481.3716166666665 601.2290833333334 527.0287499999998 607.3433500000001 551.2573166666665C613.4005166666668 575.4858999999999 616.4291833333334 595.4287333333332 616.4291833333334 611.3715999999998C616.4291833333334 623.3144333333332 612.8863500000001 633.0858833333332 605.8576833333334 640.9144499999998C598.8290166666667 648.7431166666664 590.3720166666667 652.4572833333332 580.6577000000001 652.4572833333332C559.1148166666668 652.4572833333332 529.1719833333334 642.2287833333331 490.6005666666667 621.7715833333331C452.0862333333334 601.085883333333 398.4291000000001 566.1144166666663 329.6862333333335 516.6858499999997L328.5995666666668 509.6571833333331L340.2567333333334 490.7429166666664z" />
    <glyph glyph-name="list"
      unicode="&#xEA45;"
      horiz-adv-x="1000" d="M100.0000033333333 455.9027666666667H188.8889V544.0972166666667H100.0000033333333zM100.0000033333333 279.5138833333334H188.8889V367.7083333333334H100.0000033333333zM100.0000033333333 632.2916500000001H188.8889V720.4861166666667H100.0000033333333zM277.7778 455.9027666666667H900V544.0972166666667H277.7778zM277.7778 279.5138833333334H900V367.7083333333334H277.7778zM277.7778 720.4861166666667V632.2916500000001H900V720.4861166666667z" />
    <glyph glyph-name="lock"
      unicode="&#xEA46;"
      horiz-adv-x="1000" d="M757.1245 595.2217666666667H714.2704166666667V682.3012666666666C714.2704166666666 802.4641 618.2772833333333 900 500.0000166666666 900C381.72275 900 285.7296 802.4640999999999 285.7296 682.3012666666666V595.2217666666667H242.8755166666667C195.7360166666667 595.2217666666667 157.16735 556.0245500000001 157.16735 508.1422666666667V187.0795000000001C157.16735 139.1971833333335 195.7360166666667 100 242.8755166666667 100H757.1245C804.2639833333334 100 842.8326500000001 139.1971833333335 842.8326500000001 187.0795000000001V508.1422666666667C842.8326500000001 556.0245500000001 804.2639833333334 595.2217666666667 757.1245 595.2217666666667zM500.0000166666666 260.5599500000001C452.8604999999999 260.5599500000001 414.29185 299.75715 414.29185 347.6394500000001C414.29185 395.5217333333334 452.8604999999999 434.7189333333335 500.0000166666666 434.7189333333335C547.1394833333333 434.7189333333335 585.7081666666667 395.5217333333335 585.7081666666667 347.6394500000001C585.7081666666667 299.7000166666667 547.1394833333333 260.5599500000001 500.0000166666666 260.5599500000001zM632.8476499999999 595.2217666666668H367.15235V682.3012666666667C367.15235 756.7530833333334 426.7480833333333 817.26305 500.0000166666667 817.26305C573.2519166666666 817.26305 632.84765 756.7530833333334 632.84765 682.3012666666667z" />
    <glyph glyph-name="maximize"
      unicode="&#xEA47;"
      horiz-adv-x="1000" d="M707.5427833333332 785.4286083333334L557.1427833333332 634.9714666666666L634.9713533333332 557.1428966666667L785.3713533333332 707.5428966666667L899.9999233333332 592.9143250000001V900.0000366666667H593.0284966666666zM99.99993 407.0286116666668V100.0000433333333H407.0284983333334L292.4570716666667 214.5714716666667L442.85707 364.97147L365.0285 442.8571833333333L214.6285 292.4000416666667z" />
    <glyph glyph-name="menu"
      unicode="&#xEA48;"
      horiz-adv-x="1000" d="M100 842.8571416666666V728.5714333333333H899.9999999999999V842.8571416666666zM100 442.8571333333333H899.9999999999999V557.14285H100zM100 157.1428666666667H899.9999999999999V271.4285666666667H100z" />
    <glyph glyph-name="minimize"
      unicode="&#xEA49;"
      horiz-adv-x="1000" d="M671.7713533333333 749.6000316666667L557.1427833333333 864.2286V557.1428883333334H864.11421L749.599925 671.7143166666667L899.9999233333334 822.1714583333334L822.1713533333334 900.0000283333334zM177.8285 100.0000366666667L328.2285 250.4571783333335L442.8570699999999 135.8286083333335V442.8571766666668H135.8285016666667L250.3999283333334 328.2857483333335L99.99993 177.88575z" />
    <glyph glyph-name="more"
      unicode="&#xEA4A;"
      horiz-adv-x="1000" d="M799.9999999999999 600C744.7499999999999 600 700 555.2 700 500S744.75 400 799.9999999999999 400C855.1999999999999 400 899.9999999999999 444.8000000000001 899.9999999999999 500S855.1999999999999 600 799.9999999999999 600zM200 600C144.75 600 100 555.2 100 500S144.75 400 200 400C255.2 400 300 444.8000000000001 300 500S255.2 600 200 600zM500 600C444.75 600 400 555.2 400 500S444.75 400 500 400C555.1999999999999 400 600 444.8000000000001 600 500S555.1999999999999 600 500 600z" />
    <glyph glyph-name="pause"
      unicode="&#xEA4B;"
      horiz-adv-x="1000" d="M192.3077 100H376.9230666666667V900H192.3077zM623.0769166666666 900V100.0000000000001H807.6923166666667V900z" />
    <glyph glyph-name="pencil"
      unicode="&#xEA4C;"
      horiz-adv-x="1000" d="M817.8397333333334 899.9345666666667C804.1489 899.2812333333334 790.6900333333333 893.7370666666667 780.2359833333334 883.2830666666666L725.0985000000001 828.0353L817.9500166666667 735.6248833333334L882.3506000000001 800.0254500000001C899.6276833333335 817.3025500000001 899.6276833333335 845.0538333333334 882.3506000000001 862.3308166666667L860.9572666666668 883.28305C849.1393166666666 895.1309833333333 833.3560333333332 900.6750666666667 817.8397333333334 899.9345666666667zM691.4646333333333 794.5117L364.7199333333333 467.7669833333333L457.5714499999999 375.2463166666668L784.4264166666666 702.1012833333334zM329.7627666666667 432.6995666666667L281.46235 302.0237333333334C279.0910166666667 291.5219 288.6585166666667 282.0594 299.2166166666667 284.6002833333333L418.0930166666667 345.58235zM104.6915816666667 212.9215666666667V100H895.1424833333333V212.9215666666667z" />
    <glyph glyph-name="picture"
      unicode="&#xEA4D;"
      horiz-adv-x="1000" d="M811.0999833333333 899.9999983333333H188.8999833333333C139.9999966666667 899.9999983333333 99.9999983333333 860 99.9999983333333 811.1V188.9000166666667C99.9999983333333 140.0000166666668 139.9999966666667 100.0000000000001 188.8999833333334 100.0000000000001H811.0999833333334C859.9999833333333 100 900 140.0000166666668 900 188.9000166666667V811.1C900 860 859.9999833333333 899.9999983333333 811.0999833333333 899.9999983333333zM349.9999833333333 750C405.2499833333333 750 450 705.25 450 650C450 594.7500166666666 405.2499833333332 550 349.9999833333333 550S250 594.7500166666666 250 650C250 705.25 294.7499833333333 750 349.9999833333334 750zM188.8999833333333 233.35L344.45 433.3500166666668L455.5499833333333 349.5500000000001L611.0999999999999 600L811.0999833333333 233.35z" />
    <glyph glyph-name="play"
      unicode="&#xEA4E;"
      horiz-adv-x="1000" d="M192.3076833333333 900V100.0000000000001L807.6923166666667 499.9999833333335z" />
    <glyph glyph-name="plus"
      unicode="&#xEA4F;"
      horiz-adv-x="1000" d="M442.8571333333333 100H557.14285V900.0000083333333H442.8571333333333zM99.9999966666667 442.8571500000001H900V557.1428666666667H99.9999966666667z" />
    <glyph glyph-name="reload"
      unicode="&#xEA50;"
      horiz-adv-x="1000" d="M772.0571666666666 378.5714166666667C725.4285833333332 273.8285666666668 622.05715 200.0000000000001 500 200.0000000000001C334.34285 200.0000000000001 200 334.2857000000002 200 500C200 665.5999999999999 334.34285 800 500 800C582.9142833333333 800 656.9714333333333 765.4857333333333 711.0285833333334 710.9714333333334V710.9143L549.8857333333334 549.8857L900 550V900L782.4 782.45715C782.2857333333333 782.5142833333334 781.6566666666666 781.8854833333334 781.4866666666666 781.8854833333334C709.2571499999999 854.1714333333333 610.4 900 500 900C279.14285 900 100 720.85715 100 500C100 279.0285833333334 279.14285 100 500 100C678.4000166666667 100 827.8285833333332 217.3714166666667 879.4285666666666 378.5714166666667z" />
    <glyph glyph-name="report"
      unicode="&#xEA51;"
      horiz-adv-x="1000" d="M286.59745 899.999995C227.6632833333333 899.999995 179.8521833333333 849.9666866666666 179.8526333333333 788.2373833333334V211.7626C179.8521833333333 150.0323833333333 227.6632833333333 100 286.59745 100H713.4025499999999C772.3367333333333 100 820.1478166666665 150.0328333333333 820.1473833333331 211.7626V648.5110333333333L580.04815 899.999995zM286.59745 844.118705H580.04815V732.3560666666667C580.04815 686.0580666666667 615.8506833333332 648.5110166666667 660.0519666666665 648.5110166666667H766.7972333333331V211.7626000000001C766.7967999999997 180.8977333333336 742.8691999999999 155.8813000000003 713.4025499999999 155.8813000000003H286.59745C257.1308166666667 155.8813000000003 233.20365 180.897716666667 233.2032166666667 211.7626000000001V788.2373833333334C233.20365 819.1008833333333 257.1308166666667 844.1187033333333 286.59745 844.118705zM633.3987333333332 602.9779000000001C618.6648999999999 602.9779000000001 606.7018333333333 590.4925666666668 606.7013999999999 575.0603666666667V239.7263333333334C606.7013999999999 224.2936666666667 618.6645666666666 211.7626 633.3987333333332 211.7626H686.7493166666666C701.4831499999999 211.7626 713.4025499999999 224.2936000000001 713.4025499999999 239.7263333333334V575.0603666666666C713.4021166666665 590.4925833333333 701.4827166666665 602.9779 686.7493166666666 602.9779zM473.3028833333333 491.2152833333334C458.5690499999999 491.2152833333334 446.64965 478.6846166666667 446.64965 463.2515500000001V239.7263166666667C446.64965 224.29365 458.56915 211.7626 473.3028833333333 211.7626H526.6975666666666C541.4309 211.7626 553.3508166666667 224.2936000000001 553.3508166666667 239.7263166666667V463.2515500000001C553.3508166666667 478.6847166666666 541.4308166666666 491.2152833333334 526.6975666666666 491.2152833333334zM313.2511333333333 379.4526666666667C298.5178 379.4526666666667 286.5983333333334 366.9211666666668 286.5974500000001 351.4889333333333V239.7263166666667C286.5974500000001 224.29365 298.51745 211.7626 313.2511333333333 211.7626H366.6017166666667C381.33555 211.7626 393.2990666666667 224.2936000000001 393.2990666666667 239.7263166666667V351.4889333333333C393.2986166666667 366.92115 381.3350666666667 379.4526666666667 366.6017166666667 379.4526666666667z" />
    <glyph glyph-name="search"
      unicode="&#xEA52;"
      horiz-adv-x="1000" d="M694.1290666666666 376.4810166666666L676.4620166666666 358.7467833333334L627.9943499999999 407.2826333333334C727.5297333333332 525.0220833333333 722.9963333333333 700.8312166666667 611.7940166666666 812.037C494.5915833333333 929.1764383333332 304.7209833333333 929.376435 187.7185333333333 812.3036999999999C70.649455 695.2976 70.7827883333333 505.3544 187.9852 388.2149833333333C299.1875 276.9425166666668 474.9911499999999 272.47565 592.7269 372.01415L641.2612833333333 323.4782833333333L623.5275833333333 305.8106833333334L829.3318666666667 100L900 170.6703333333335zM258.65335 458.8186666666667C180.5183833333333 536.9560333333333 180.3184 663.4959666666666 258.3866833333334 741.6333333333333C336.3883166666667 819.6374 463.0575999999999 819.5040666666666 541.1925666666666 741.3666666666666C619.3275 663.2292833333333 619.3941833333333 536.6227 541.39255 458.6186333333334C463.3242666666666 380.5479000000001 336.7883166666667 380.6812500000001 258.65335 458.8186666666667z" />
    <glyph glyph-name="signout"
      unicode="&#xEA53;"
      horiz-adv-x="1000" d="M789.8907999999999 762.32185L719.0848999999998 691.5826333333333C768.5556833333333 639.1782666666667 799.9583166666665 570.1725333333334 799.9583166666665 492.9660833333333C799.9583166666665 330.1525166666667 665.5471166666665 198.1415166666667 499.9333333333332 198.1415166666667C334.3195333333332 198.1415166666667 199.9083166666665 330.1525166666667 199.9083166666665 492.9660833333333C199.9083166666665 570.1058499999999 231.3109499999999 639.1115833333333 280.7817333333332 691.51595L209.9758166666665 762.32185C142.1035083333332 692.0493333333334 99.9666583333332 597.5748000000001 99.9666583333332 493.0327666666667C99.9666583333333 275.9480166666667 279.1815833333333 100 499.9999833333333 100C720.9517166666666 100 900.0333333333333 276.0146666666666 900.0333333333333 493.0327666666667C899.8999666666666 597.5748000000001 857.6964666666665 692.0493333333334 789.8907999999999 762.32185zM566.5388833333333 900H433.1944166666667V499.9666666666667H566.5388833333333z" />
    <glyph glyph-name="speaker-off"
      unicode="&#xEA54;"
      horiz-adv-x="1000" d="M814.2857333333334 500C814.2857333333334 477.5428666666667 811.1429 456.0571666666667 806.6285666666666 434.9142833333334L876.1142499999999 365.4285833333334C891.3142499999999 407.4857166666667 899.9999666666666 452.5714500000001 899.9999666666666 499.9428833333334C899.9999666666666 681.0857166666667 779.3713833333333 833.3143 614.3999666666666 882.4571666666667V792.1714333333333C731.2570999999999 746.5714333333334 814.2856666666667 633.2571666666666 814.2857333333334 500zM614.4000333333333 696.2857333333334V627.14285L727.6000166666666 513.8857333333333C722.8000166666666 592.2285666666667 678.5142999999999 659.0857166666667 614.4000333333333 696.2857333333334zM882.8571666666667 197.0857166666667L196.57145 883.4285833333333L116.1714533333333 803.0857166666667L257.77145 661.4857166666666L246.1142833333333 650.00005H100.000025V350.00005H246.1143166666667L500.0000333333333 100V419.2000000000001L614.4000333333333 304.8000166666668V303.7133500000001C614.6283666666667 303.8276500000002 614.8583666666666 304.0566833333335 615.0850333333333 304.1716833333334L677.2004 242.0573000000001C657.6003999999999 228.6288000000001 636.85755 216.6858666666668 614.4003999999999 207.8287333333335V117.5430166666669C659.8289999999998 131.0858500000002 701.3718333333333 153.0858666666668 738.5146833333332 180.7430166666669L803.0289666666665 116.1715833333336L883.8289666666665 196.9715833333336L883.2572999999999 197.5999166666669zM500.0000333333333 900L420.1714666666667 821.4285833333333L500.0000333333333 741.5428666666667z" />
    <glyph glyph-name="speaker"
      unicode="&#xEA55;"
      horiz-adv-x="1000" d="M728.5713899999998 499.9999933333334C728.5713899999998 584.34285 682.2856766666666 656.857135 614.3428199999998 696.2857066666667V303.6571383333333C682.2856766666666 343.1428516666666 728.5713899999998 415.6571383333333 728.5713899999998 499.9999933333332zM499.9999633333333 99.9999966666667V899.99999L246.1142516666667 649.9999916666668H99.9999666666667V349.9999950000002H246.11425zM614.34282 882.5142766666667V792.2285616666667C731.2571033333332 746.5142783333333 814.285675 633.2571350000001 814.285675 499.9999933333334C814.285675 366.9714233333334 731.2571049999999 253.5999950000002 614.3428199999998 207.8285666666668V117.5428533333335C779.3713899999999 166.6857100000002 899.99996 318.9714233333335 899.99996 499.9999933333335C899.99996 681.1428483333334 779.3713899999999 833.3714183333335 614.34282 882.5142766666668z" />
    </font>
</defs>
</svg>
