<?xml version="1.0" encoding="UTF-8" standalone="no"?>
<!-- Generator: Adobe Illustrator 12.0.0, SVG Export Plug-In . SVG Version: 6.00 Build 51448)  -->

<svg
   xmlns:dc="http://purl.org/dc/elements/1.1/"
   xmlns:cc="http://creativecommons.org/ns#"
   xmlns:rdf="http://www.w3.org/1999/02/22-rdf-syntax-ns#"
   xmlns:svg="http://www.w3.org/2000/svg"
   xmlns="http://www.w3.org/2000/svg"
   xmlns:sodipodi="http://sodipodi.sourceforge.net/DTD/sodipodi-0.dtd"
   xmlns:inkscape="http://www.inkscape.org/namespaces/inkscape"
   version="1.1"
   id="Layer_1"
   width="114"
   height="928"
   viewBox="0 0 113.99999 928"
   style="overflow:visible"
   xml:space="preserve"
   inkscape:version="0.92.1 r15371"
   sodipodi:docname="icon-sprite.svg"><metadata
     id="metadata4401"><rdf:RDF><cc:Work
         rdf:about=""><dc:format>image/svg+xml</dc:format><dc:type
           rdf:resource="http://purl.org/dc/dcmitype/StillImage" /><dc:title /></cc:Work></rdf:RDF></metadata><defs
     id="defs4399" /><sodipodi:namedview
     pagecolor="#ffffff"
     bordercolor="#666666"
     borderopacity="1"
     objecttolerance="10"
     gridtolerance="10"
     guidetolerance="10"
     inkscape:pageopacity="0"
     inkscape:pageshadow="2"
     inkscape:window-width="1920"
     inkscape:window-height="1147"
     id="namedview4397"
     showgrid="false"
     inkscape:zoom="2.0344828"
     inkscape:cx="180.85243"
     inkscape:cy="263.24774"
     inkscape:window-x="-8"
     inkscape:window-y="-8"
     inkscape:window-maximized="1"
     inkscape:current-layer="Layer_1"><inkscape:grid
       type="xygrid"
       id="grid3785" /></sodipodi:namedview><rect
     y="903"
     style="fill:#ffffff"
     width="95"
     height="25"
     id="rect4195"
     x="0" /><rect
     y="864"
     style="fill:#ffffff"
     width="114"
     height="30"
     id="rect4197"
     x="0" /><path
     style="fill:#3c5563"
     d="m 20.913,19.853 -0.265,0.266 -0.728,-0.728 c 1.493,-1.766 1.425,-4.403 -0.243,-6.071 -1.758,-1.757 -4.606,-1.76 -6.361,-0.004 -1.756,1.755 -1.754,4.604 0.004,6.361 1.668,1.669 4.305,1.736 6.071,0.243 l 0.728,0.728 -0.266,0.265 3.088,3.087 1.06,-1.06 -3.088,-3.087 z m -6.532,-1.235 c -1.172,-1.172 -1.175,-3.07 -0.004,-4.242 1.17,-1.17 3.07,-1.168 4.242,0.004 1.172,1.172 1.173,3.071 0.003,4.241 -1.171,1.171 -3.069,1.169 -4.241,-0.003 z"
     id="path4199"
     inkscape:connector-curvature="0" /><path
     style="fill:#3c5563"
     d="m 18.388,56.563 c -0.059,-0.131 -0.12,-0.292 -0.18,-0.481 -0.059,-0.188 -0.09,-0.4 -0.09,-0.633 0,-0.276 0.071,-0.528 0.212,-0.756 0.142,-0.228 0.32,-0.447 0.535,-0.659 0.214,-0.211 0.446,-0.423 0.694,-0.634 0.247,-0.211 0.478,-0.453 0.693,-0.727 0.215,-0.274 0.394,-0.575 0.535,-0.9 C 20.928,51.447 21,51.076 21,50.66 21,50.22 20.916,49.836 20.747,49.505 20.577,49.174 20.346,48.899 20.053,48.676 19.76,48.452 19.416,48.285 19.024,48.17 18.631,48.058 18.217,48 17.775,48 16.817,48 15.892,48.261 15,48.779 l 0,1.881 c 0.735,-0.722 1.507,-1.083 2.319,-1.083 0.251,0 0.486,0.03 0.706,0.089 0.22,0.062 0.416,0.151 0.587,0.272 0.172,0.123 0.307,0.276 0.405,0.455 0.098,0.184 0.146,0.396 0.146,0.639 0,0.271 -0.066,0.519 -0.2,0.749 -0.134,0.228 -0.3,0.444 -0.497,0.65 -0.2,0.206 -0.413,0.418 -0.645,0.633 -0.231,0.218 -0.447,0.442 -0.645,0.675 -0.198,0.232 -0.365,0.483 -0.498,0.753 -0.134,0.268 -0.2,0.567 -0.2,0.897 0,0.214 0.019,0.427 0.057,0.643 0.038,0.218 0.082,0.395 0.131,0.53 l 1.722,0 z m 0.025,3.121 c 0.229,-0.206 0.342,-0.461 0.342,-0.765 0,-0.309 -0.113,-0.563 -0.342,-0.764 -0.234,-0.219 -0.507,-0.325 -0.816,-0.325 -0.316,0 -0.591,0.106 -0.825,0.325 -0.229,0.2 -0.342,0.455 -0.342,0.764 0,0.304 0.113,0.559 0.342,0.765 0.239,0.211 0.514,0.316 0.825,0.316 0.303,0 0.576,-0.105 0.816,-0.316 l 0,0 z"
     id="path4201"
     inkscape:connector-curvature="0" /><path
     style="fill:#3c5563"
     d="m 18,127.999 c -2.276,0 -4.363,0.802 -6,2.136 l 0,1.865 12,0 0,-1.865 c -1.636,-1.334 -3.724,-2.136 -6,-2.136 z m 0,-2 c 1.657,0 3,-1.343 3,-2.999 0,-1.657 -1.343,-3 -3,-3 -1.656,0 -3,1.343 -3,3 0,1.656 1.344,2.999 3,2.999 z"
     id="path4203"
     inkscape:connector-curvature="0" /><path
     style="fill:#ffffff"
     d="m 24.889,193.232 -2.01,2.01 -2.121,-2.121 2.01,-2.01 C 22.521,191.046 22.267,191 22,191 c -1.657,0 -3,1.343 -3,3 0,0.267 0.046,0.521 0.111,0.768 l -4.345,4.344 C 14.521,199.045 14.267,199 14,199 c -1.657,0 -3,1.343 -3,3 0,0.268 0.046,0.521 0.111,0.768 l 2.01,-2.01 2.121,2.121 -2.01,2.01 C 13.479,204.954 13.733,205 14,205 c 1.657,0 3,-1.343 3,-3 0,-0.267 -0.045,-0.521 -0.111,-0.768 l 4.346,-4.344 C 21.479,196.955 21.733,197 22,197 c 1.657,0 3,-1.343 3,-3 0,-0.268 -0.046,-0.521 -0.111,-0.768 z"
     id="path4205"
     inkscape:connector-curvature="0" /><path
     style="fill:#ffffff"
     d="m 11,372 0,2 14,0 0,-2 -14,0 z m 0,7 14,0 0,-2 -14,0 0,2 z m 0,5 14,0 0,-2 -14,0 0,2 z"
     id="path4207"
     inkscape:connector-curvature="0" /><path
     style="fill:#768d99"
     d="m 52.875,565.125 2,0 0,-14 -2,0 0,14 z m -6,-6 14,0 0,-2 -14,0 0,2 z"
     id="path4209"
     inkscape:connector-curvature="0" /><path
     style="fill:#ffffff"
     d="m 18.697,409.253 c 0.181,0.223 0.48,0.333 0.897,0.333 0.444,0 0.79,-0.157 1.036,-0.47 0.245,-0.313 0.369,-0.661 0.369,-1.047 0,-0.316 -0.103,-0.572 -0.308,-0.771 C 20.487,407.1 20.206,407 19.851,407 c -0.417,0 -0.76,0.138 -1.027,0.416 -0.267,0.278 -0.4,0.612 -0.4,1.003 0.001,0.336 0.092,0.614 0.273,0.834 z m -3.349,4.918 c 0.931,-0.606 1.524,-0.909 1.785,-0.909 0.156,0 0.236,0.088 0.236,0.265 0,0.359 -0.287,1.554 -0.862,3.581 -0.258,0.908 -0.429,1.549 -0.507,1.918 -0.079,0.367 -0.118,0.699 -0.118,0.99 0,0.29 0.064,0.526 0.196,0.71 0.129,0.184 0.328,0.274 0.594,0.274 0.211,0 0.461,-0.051 0.744,-0.15 0.283,-0.101 0.757,-0.355 1.421,-0.762 0.663,-0.407 1.233,-0.769 1.713,-1.084 l 0.041,-0.124 -0.226,-0.377 -0.123,-0.011 c -0.891,0.586 -1.437,0.882 -1.643,0.882 -0.075,0 -0.143,-0.034 -0.2,-0.101 -0.058,-0.067 -0.086,-0.145 -0.086,-0.233 0,-0.321 0.296,-1.499 0.893,-3.531 0.34,-1.183 0.565,-1.982 0.672,-2.406 0.105,-0.424 0.159,-0.773 0.159,-1.052 0,-0.209 -0.062,-0.38 -0.185,-0.517 -0.123,-0.137 -0.271,-0.202 -0.441,-0.202 -0.376,0 -0.901,0.179 -1.576,0.537 -0.674,0.362 -1.613,0.974 -2.816,1.839 l -0.019,0.123 0.204,0.331 0.144,0.009 z"
     id="path4211"
     inkscape:connector-curvature="0" /><g
     id="g4213"><path
       style="fill:#768d99"
       d="m 22,486 c 0,-1.476 -0.81,-2.745 -1.999,-3.436 l 0,6.871 C 21.19,488.745 22,487.476 22,486 Z"
       id="path4215"
       inkscape:connector-curvature="0" /><g
       id="g4217"><polygon
         style="fill:#768d99"
         points="18,493 18,479 13.557,483.375 11,483.375 11,488.625 13.557,488.625 "
         id="polygon4219" /><path
         style="fill:#768d99"
         d="m 20.001,479.306 0,1.58 c 2.046,0.8 3.499,2.782 3.499,5.114 0,2.328 -1.453,4.313 -3.499,5.113 l 0,1.58 C 22.889,491.833 25,489.168 25,486 c 0,-3.17 -2.111,-5.834 -4.999,-6.694 z"
         id="path4221"
         inkscape:connector-curvature="0" /></g></g><path
     style="fill:#768d99"
     d="m 23.5,522 c 0,0.393 -0.055,0.77 -0.134,1.139 l 1.216,1.216 C 24.848,523.618 25,522.829 25,522 c 0,-3.17 -2.111,-5.834 -4.998,-6.694 l 0,1.58 c 2.045,0.8 3.498,2.782 3.498,5.114 z m -3.498,-3.436 0,1.21 1.981,1.981 c -0.084,-1.369 -0.858,-2.539 -1.981,-3.191 z m 4.698,8.737 -12.01,-12.011 -1.407,1.406 2.478,2.478 -0.204,0.201 -2.557,0 0,5.25 2.557,0 L 18,529 l 0,-5.586 2.002,2.002 0,0.02 c 0.004,-0.002 0.008,-0.006 0.012,-0.008 l 1.087,1.087 c -0.343,0.235 -0.706,0.444 -1.099,0.599 l 0,1.58 c 0.795,-0.237 1.522,-0.622 2.172,-1.105 l 1.129,1.13 1.414,-1.414 -0.01,-0.011 -0.007,0.007 z M 18,515 16.603,516.375 18,517.772 18,515 Z"
     id="path4223"
     inkscape:connector-curvature="0" /><path
     style="fill:#768d99"
     d="m 18,565 c 1.105,0 2,-0.896 2,-2 l -4,0 c 0,1.104 0.896,2 2,2 z m 4,-5.375 0,-3 c 0,-1.861 -1.278,-3.412 -3,-3.858 L 19,552 c 0,-0.553 -0.447,-1 -1,-1 -0.553,0 -1,0.447 -1,1 l 0,0.767 c -1.722,0.446 -2.999,1.997 -2.999,3.858 l 0,2.999 -2,2.001 12,0 -2.001,-2 z"
     id="path4225"
     inkscape:connector-curvature="0" /><path
     style="fill:#768d99"
     d="m 22,592.625 c 0,-1.861 -1.279,-3.412 -3,-3.858 L 19,588 c 0,-0.553 -0.447,-1 -1,-1 -0.553,0 -1,0.447 -1,1 l 0,0.767 c -0.012,0.003 -0.021,0.008 -0.033,0.011 l 5.033,5.033 0,-1.186 z M 18,601 c 1.105,0 2,-0.896 2,-2 l -4,0 c 0,1.104 0.896,2 2,2 z m 6.993,-1.407 -0.007,0.008 -12.593,-12.596 -1.393,1.397 3.158,3.158 C 14.063,591.901 14,592.253 14,592.624 l 0,2.999 -2,2.001 8.222,0 3.374,3.376 1.404,-1.4 -0.007,-0.007 z"
     id="path4227"
     inkscape:connector-curvature="0" /><g
     id="g4229"><g
       id="g4231"><path
         style="fill:#768d99"
         d="m 24,628 c -1.104,0 -2,0.896 -2,2 0,1.104 0.896,2 2,2 1.104,0 2,-0.896 2,-2 0,-1.104 -0.896,-2 -2,-2 z m -12,0 c -1.104,0 -2,0.896 -2,2 0,1.104 0.896,2 2,2 1.104,0 2,-0.896 2,-2 0,-1.104 -0.896,-2 -2,-2 z m 6,0 c -1.104,0 -2,0.896 -2,2 0,1.104 0.896,2 2,2 1.104,0 2,-0.896 2,-2 0,-1.104 -0.896,-2 -2,-2 z"
         id="path4233"
         inkscape:connector-curvature="0" /></g></g><path
     style="fill:#768d99"
     d="M 24.143,667.974 18,662 l -6.142,5.974 c -0.478,0.464 -0.478,1.216 0,1.679 0.477,0.464 1.249,0.464 1.726,0 l 4.416,-4.297 4.417,4.296 c 0.477,0.464 1.249,0.464 1.726,0 0.477,-0.464 0.476,-1.214 0,-1.678 z"
     id="path4235"
     inkscape:connector-curvature="0" /><path
     style="fill:#768d99"
     d="M 11.857,700.026 18,706 l 6.142,-5.974 c 0.478,-0.464 0.478,-1.216 0,-1.679 -0.477,-0.463 -1.249,-0.463 -1.726,0 L 18,702.644 13.583,698.348 c -0.477,-0.463 -1.249,-0.463 -1.726,0 -0.477,0.463 -0.476,1.215 0,1.678 z"
     id="path4237"
     inkscape:connector-curvature="0" /><path
     style="fill:#acbbc2"
     d="m 18,729 c -4.971,0 -9,4.029 -9,9.001 0,4.971 4.029,8.999 9,8.999 4.971,0 9,-4.028 9,-8.999 C 27,733.029 22.971,729 18,729 Z m 1,14.001 -2,0 0,-6.002 2,0 0,6.002 z m 0,-8.001 -2,0 0,-2 2,0 0,2 z"
     id="path4239"
     inkscape:connector-curvature="0" /><g
     id="g4241"><rect
       x="17"
       y="811"
       style="fill:#acbbc2"
       width="2"
       height="2"
       id="rect4243" /><rect
       x="13"
       y="811"
       style="fill:#acbbc2"
       width="2"
       height="2"
       id="rect4245" /><rect
       x="13"
       y="807"
       style="fill:#acbbc2"
       width="2"
       height="2"
       id="rect4247" /><rect
       x="21"
       y="807"
       style="fill:#acbbc2"
       width="2"
       height="2"
       id="rect4249" /><rect
       x="21"
       y="811"
       style="fill:#acbbc2"
       width="2"
       height="2"
       id="rect4251" /><rect
       x="17"
       y="807"
       style="fill:#acbbc2"
       width="2"
       height="2"
       id="rect4253" /></g><path
     style="fill:#acbbc2"
     d="m 19,783 0,-2 2,0 0,2 -2,0 z m 0,-6 2,0 0,2 -2,0 0,-2 z m 0,-4 2,0 0,2 -2,0 0,-2 z m 0,-4 2,0 0,2 -2,0 0,-2 z m 0,-4 2,0 0,2 -2,0 0,-2 z m -4,16 2,0 0,2 -2,0 0,-2 z m 0,-4 2,0 0,2 -2,0 0,-2 z m 0,-4 2,0 0,2 -2,0 0,-2 z m 0,-4 2,0 0,2 -2,0 0,-2 z m 0,-4 2,0 0,2 -2,0 0,-2 z"
     id="path4255"
     inkscape:connector-curvature="0" /><path
     style="fill:#768d99"
     d="m 23.769,841.741 c -0.308,-0.321 -0.808,-0.321 -1.116,0 l -6.514,6.775 -2.791,-2.903 c -0.308,-0.321 -0.809,-0.321 -1.116,0 -0.309,0.32 -0.309,0.84 0,1.161 l 3.349,3.485 c 0.309,0.32 0.809,0.32 1.117,0 l 7.071,-7.357 c 0.308,-0.321 0.308,-0.84 0,-1.161 z"
     id="path4257"
     inkscape:connector-curvature="0" /><g
     id="g4259"><path
       style="fill:#d40000"
       d="m 57.021,876.399 c 0.679,-0.515 1.02,-1.305 1.02,-2.366 0,-1.054 -0.341,-1.839 -1.02,-2.36 -0.681,-0.522 -1.715,-0.782 -3.1,-0.782 l -4.205,0 0,6.285 4.205,0 c 1.386,0 2.42,-0.258 3.1,-0.777 z"
       id="path4261"
       inkscape:connector-curvature="0" /><path
       style="fill:#d40000"
       d="m 54.272,879.467 -4.556,0 0,7.643 4.556,0 c 1.528,0 2.661,-0.315 3.395,-0.942 0.734,-0.629 1.103,-1.593 1.103,-2.886 0,-1.303 -0.368,-2.266 -1.103,-2.885 -0.733,-0.619 -1.866,-0.93 -3.395,-0.93 z"
       id="path4263"
       inkscape:connector-curvature="0" /><path
       style="fill:#d40000"
       d="m 76.077,876.399 c 0.681,-0.515 1.019,-1.305 1.019,-2.366 0,-1.054 -0.338,-1.839 -1.019,-2.36 -0.68,-0.522 -1.714,-0.782 -3.102,-0.782 l -4.203,0 0,6.285 4.203,0 c 1.388,0 2.422,-0.258 3.102,-0.777 z"
       id="path4265"
       inkscape:connector-curvature="0" /><polygon
       style="fill:#d40000"
       points="30.278,881.731 37.994,881.731 34.131,871.351 "
       id="polygon4267" /><path
       style="fill:#d40000"
       d="m 0,864 0,30 114,0 0,-30 -114,0 z m 21.684,25.427 -17.134,0 0,-2.15 13.269,-16.33 -12.946,0 0,-2.374 16.487,0 0,2.15 -13.267,16.331 13.59,0 0,2.373 z m 19.107,0 -1.908,-5.349 -9.463,0 -1.911,5.349 -2.993,0 8.012,-20.854 3.219,0 7.997,20.854 -2.953,0 z m 19.06,-1.521 c -1.271,1.013 -3.086,1.521 -5.438,1.521 l -7.533,0 0,-20.854 7.253,0 c 2.162,0 3.831,0.445 5.004,1.34 1.169,0.893 1.756,2.166 1.756,3.813 0,1.275 -0.298,2.29 -0.899,3.047 -0.6,0.752 -1.482,1.224 -2.642,1.41 1.395,0.299 2.481,0.919 3.255,1.864 0.772,0.945 1.157,2.126 1.157,3.542 0,1.862 -0.637,3.302 -1.913,4.317 z m 19.056,0 c -1.272,1.013 -3.087,1.521 -5.439,1.521 l -7.532,0 0,-20.854 7.254,0 c 2.161,0 3.83,0.445 5.003,1.34 1.169,0.893 1.757,2.166 1.757,3.813 0,1.275 -0.299,2.29 -0.9,3.047 -0.602,0.752 -1.481,1.224 -2.642,1.41 1.395,0.299 2.478,0.919 3.251,1.864 0.776,0.945 1.161,2.126 1.161,3.542 -10e-4,1.862 -0.637,3.302 -1.913,4.317 z m 9.257,1.521 -2.838,0 0,-20.854 2.838,0 0,20.854 z m 18.163,0 -5.748,-8.728 -5.805,8.728 -3.019,0 7.319,-11.006 -6.489,-9.849 3.123,0 4.936,7.488 4.98,-7.488 3.018,0 -6.498,9.77 7.306,11.085 -3.123,0 z"
       id="path4269"
       inkscape:connector-curvature="0" /><path
       style="fill:#d40000"
       d="m 73.327,879.467 -4.555,0 0,7.643 4.555,0 c 1.529,0 2.658,-0.315 3.396,-0.942 0.734,-0.629 1.104,-1.593 1.104,-2.886 0,-1.303 -0.369,-2.266 -1.104,-2.885 -0.738,-0.619 -1.867,-0.93 -3.396,-0.93 z"
       id="path4271"
       inkscape:connector-curvature="0" /><polygon
       style="fill:#ffffff"
       points="95.709,868.572 92.586,868.572 99.075,878.421 91.756,889.427 94.774,889.427 100.579,880.699 106.327,889.427 109.45,889.427 102.145,878.342 108.643,868.572 105.625,868.572 100.645,876.061 "
       id="polygon4273" /><polygon
       style="fill:#ffffff"
       points="4.873,870.946 17.819,870.946 4.55,887.276 4.55,889.427 21.684,889.427 21.684,887.054 8.093,887.054 21.36,870.723 21.36,868.572 4.873,868.572 "
       id="polygon4275" /><path
       style="fill:#ffffff"
       d="m 32.527,868.572 -8.012,20.854 2.993,0 1.911,-5.349 9.463,0 1.908,5.349 2.952,0 -7.997,-20.854 -3.218,0 z m -2.249,13.159 3.853,-10.381 3.863,10.381 -7.716,0 z"
       id="path4277"
       inkscape:connector-curvature="0" /><path
       style="fill:#ffffff"
       d="m 57.352,878.183 c 1.159,-0.187 2.042,-0.658 2.642,-1.41 0.602,-0.757 0.899,-1.771 0.899,-3.047 0,-1.647 -0.587,-2.921 -1.756,-3.813 -1.173,-0.895 -2.842,-1.34 -5.004,-1.34 l -7.253,0 0,20.854 7.532,0 c 2.353,0 4.167,-0.508 5.438,-1.521 1.276,-1.016 1.913,-2.455 1.913,-4.317 0,-1.416 -0.385,-2.597 -1.157,-3.542 -0.773,-0.945 -1.86,-1.566 -3.254,-1.864 z m -7.635,-7.292 4.205,0 c 1.385,0 2.419,0.26 3.1,0.782 0.679,0.521 1.02,1.307 1.02,2.36 0,1.062 -0.341,1.852 -1.02,2.366 -0.681,0.519 -1.715,0.776 -3.1,0.776 l -4.205,0 0,-6.284 z m 7.95,15.276 c -0.733,0.627 -1.866,0.942 -3.395,0.942 l -4.556,0 0,-7.643 4.556,0 c 1.528,0 2.661,0.312 3.395,0.93 0.734,0.619 1.103,1.582 1.103,2.885 0,1.293 -0.369,2.257 -1.103,2.886 z"
       id="path4279"
       inkscape:connector-curvature="0" /><rect
       x="85.325996"
       y="868.57202"
       style="fill:#ffffff"
       width="2.8380001"
       height="20.854"
       id="rect4281" /><path
       style="fill:#ffffff"
       d="m 76.407,878.183 c 1.16,-0.187 2.04,-0.658 2.642,-1.41 0.602,-0.757 0.9,-1.771 0.9,-3.047 0,-1.647 -0.588,-2.921 -1.757,-3.813 -1.173,-0.895 -2.842,-1.34 -5.003,-1.34 l -7.254,0 0,20.854 7.532,0 c 2.353,0 4.167,-0.508 5.439,-1.521 1.275,-1.016 1.912,-2.455 1.912,-4.317 0,-1.416 -0.385,-2.597 -1.161,-3.542 -0.772,-0.945 -1.855,-1.566 -3.25,-1.864 z m -7.635,-7.292 4.203,0 c 1.388,0 2.422,0.26 3.102,0.782 0.681,0.521 1.019,1.307 1.019,2.36 0,1.062 -0.338,1.852 -1.019,2.366 -0.68,0.519 -1.714,0.776 -3.102,0.776 l -4.203,0 0,-6.284 z m 7.951,15.276 c -0.737,0.627 -1.866,0.942 -3.396,0.942 l -4.555,0 0,-7.643 4.555,0 c 1.529,0 2.658,0.312 3.396,0.93 0.734,0.619 1.104,1.582 1.104,2.885 -0.001,1.293 -0.37,2.257 -1.104,2.886 z"
       id="path4283"
       inkscape:connector-curvature="0" /></g><g
     id="g4285"><path
       style="fill:#d40000"
       d="m 47.521,913.339 c 0.559,-0.44 0.843,-1.101 0.843,-1.977 0,-0.887 -0.284,-1.541 -0.843,-1.971 -0.569,-0.429 -1.436,-0.651 -2.589,-0.651 l -3.5,0 0,5.245 3.5,0 c 1.154,0 2.02,-0.22 2.589,-0.646 z"
       id="path4287"
       inkscape:connector-curvature="0" /><path
       style="fill:#d40000"
       d="m 45.227,915.887 -3.795,0 0,6.361 3.795,0 c 1.276,0 2.216,-0.26 2.829,-0.775 0.614,-0.522 0.917,-1.332 0.917,-2.402 0,-1.089 -0.303,-1.895 -0.917,-2.402 -0.613,-0.526 -1.553,-0.782 -2.829,-0.782 z"
       id="path4289"
       inkscape:connector-curvature="0" /><path
       style="fill:#d40000"
       d="m 63.395,913.339 c 0.569,-0.44 0.852,-1.101 0.852,-1.977 0,-0.887 -0.282,-1.541 -0.852,-1.971 -0.563,-0.429 -1.426,-0.651 -2.582,-0.651 l -3.501,0 0,5.245 3.501,0 c 1.156,0 2.019,-0.22 2.582,-0.646 z"
       id="path4291"
       inkscape:connector-curvature="0" /><polygon
       style="fill:#d40000"
       points="25.231,917.78 31.658,917.78 28.444,909.125 "
       id="polygon4293" /><path
       style="fill:#d40000"
       d="m 0,903 0,25 95,0 0,-25 -95,0 z m 18.068,21.195 -14.278,0 0,-1.799 11.061,-13.6 -10.791,0 0,-1.985 13.738,0 0,1.798 -11.05,13.602 11.32,0 0,1.984 z m 15.923,0 -1.59,-4.458 -7.886,0 -1.589,4.458 -2.493,0 6.677,-17.384 2.681,0 6.661,17.384 -2.461,0 z m 15.886,-1.28 c -1.058,0.846 -2.576,1.28 -4.534,1.28 l -6.275,0 0,-17.384 6.043,0 c 1.804,0 3.194,0.371 4.172,1.117 0.974,0.744 1.459,1.799 1.459,3.182 0,1.053 -0.25,1.9 -0.751,2.527 -0.498,0.633 -1.232,1.02 -2.196,1.189 1.163,0.241 2.064,0.75 2.708,1.547 0.643,0.778 0.963,1.773 0.963,2.948 10e-4,1.548 -0.526,2.745 -1.589,3.594 z m 15.876,0 c -1.06,0.846 -2.568,1.28 -4.531,1.28 l -6.276,0 0,-17.384 6.044,0 c 1.799,0 3.19,0.371 4.168,1.117 0.974,0.744 1.469,1.799 1.469,3.182 0,1.053 -0.252,1.9 -0.752,2.527 -0.5,0.633 -1.234,1.02 -2.206,1.189 1.163,0.241 2.069,0.75 2.713,1.547 0.646,0.778 0.966,1.773 0.966,2.948 0.001,1.548 -0.527,2.745 -1.595,3.594 z m 7.716,1.28 -2.365,0 0,-17.384 2.365,0 0,17.384 z m 15.138,0 -4.792,-7.28 -4.84,7.28 -2.508,0 6.095,-9.183 -5.404,-8.201 2.604,0 4.109,6.244 4.148,-6.244 2.514,0 -5.413,8.136 6.09,9.248 -2.603,0 z"
       id="path4295"
       inkscape:connector-curvature="0" /><path
       style="fill:#d40000"
       d="m 61.109,915.887 -3.797,0 0,6.361 3.797,0 c 1.27,0 2.213,-0.26 2.83,-0.775 0.609,-0.522 0.918,-1.332 0.918,-2.402 0,-1.089 -0.309,-1.895 -0.918,-2.402 -0.617,-0.526 -1.561,-0.782 -2.83,-0.782 z"
       id="path4297"
       inkscape:connector-curvature="0" /><polygon
       style="fill:#ffffff"
       points="79.762,906.812 77.158,906.812 82.562,915.013 76.467,924.195 78.975,924.195 83.815,916.915 88.607,924.195 91.211,924.195 85.121,914.947 90.533,906.812 88.02,906.812 83.871,913.056 "
       id="polygon4299" /><polygon
       style="fill:#ffffff"
       points="4.06,908.797 14.851,908.797 3.79,922.396 3.79,924.195 18.068,924.195 18.068,922.211 6.748,922.211 17.798,908.609 17.798,906.812 4.06,906.812 "
       id="polygon4301" /><path
       style="fill:#ffffff"
       d="m 27.109,906.812 -6.677,17.384 2.493,0 1.589,-4.458 7.886,0 1.59,4.458 2.46,0 -6.661,-17.384 -2.68,0 z m -1.878,10.968 3.212,-8.655 3.214,8.655 -6.426,0 z"
       id="path4303"
       inkscape:connector-curvature="0" /><path
       style="fill:#ffffff"
       d="m 47.796,914.827 c 0.964,-0.17 1.699,-0.557 2.196,-1.189 0.5,-0.627 0.751,-1.475 0.751,-2.527 0,-1.383 -0.485,-2.438 -1.459,-3.182 -0.978,-0.746 -2.369,-1.117 -4.172,-1.117 l -6.043,0 0,17.384 6.275,0 c 1.958,0 3.476,-0.435 4.534,-1.28 1.063,-0.849 1.589,-2.046 1.589,-3.593 0,-1.175 -0.321,-2.17 -0.963,-2.948 -0.644,-0.798 -1.546,-1.307 -2.708,-1.548 z m -6.364,-6.087 3.5,0 c 1.154,0 2.02,0.223 2.589,0.651 0.559,0.43 0.843,1.084 0.843,1.971 0,0.876 -0.284,1.536 -0.843,1.977 -0.569,0.426 -1.436,0.646 -2.589,0.646 l -3.5,0 0,-5.245 z m 6.624,12.733 c -0.613,0.516 -1.552,0.775 -2.829,0.775 l -3.795,0 0,-6.361 3.795,0 c 1.276,0 2.216,0.256 2.829,0.781 0.614,0.508 0.917,1.313 0.917,2.402 0,1.071 -0.304,1.88 -0.917,2.403 z"
       id="path4305"
       inkscape:connector-curvature="0" /><rect
       x="71.103996"
       y="906.81201"
       style="fill:#ffffff"
       width="2.365"
       height="17.384001"
       id="rect4307" /><path
       style="fill:#ffffff"
       d="m 63.669,914.827 c 0.971,-0.17 1.706,-0.557 2.206,-1.189 0.5,-0.627 0.752,-1.475 0.752,-2.527 0,-1.383 -0.495,-2.438 -1.469,-3.182 -0.978,-0.746 -2.369,-1.117 -4.168,-1.117 l -6.044,0 0,17.384 6.276,0 c 1.963,0 3.471,-0.435 4.531,-1.28 1.068,-0.849 1.596,-2.046 1.596,-3.593 0,-1.175 -0.32,-2.17 -0.966,-2.948 -0.644,-0.798 -1.551,-1.307 -2.714,-1.548 z m -6.357,-6.087 3.501,0 c 1.156,0 2.019,0.223 2.582,0.651 0.569,0.43 0.852,1.084 0.852,1.971 0,0.876 -0.282,1.536 -0.852,1.977 -0.563,0.426 -1.426,0.646 -2.582,0.646 l -3.501,0 0,-5.245 z m 6.626,12.733 c -0.617,0.516 -1.56,0.775 -2.83,0.775 l -3.797,0 0,-6.361 3.797,0 c 1.27,0 2.213,0.256 2.83,0.781 0.609,0.508 0.918,1.313 0.918,2.402 0,1.071 -0.308,1.88 -0.918,2.403 z"
       id="path4309"
       inkscape:connector-curvature="0" /></g><path
     style="fill:#3c5563"
     d="m 23,84 -10,0 c -0.551,0 -1,0.447 -1,1 l 0,10 c 0,0.553 0.448,1 0.999,1 l 10,0 c 0.553,0 1,-0.447 1,-1 l 0,-10 C 24,84.447 23.552,84 23,84 Z m -1.982,9.82 -6.035,0 0,-1.232 3.54,-4.814 -3.328,0 0,-1.594 5.7,0 0,1.354 -3.444,4.693 3.567,0 0,1.593 z"
     id="path4311"
     inkscape:connector-curvature="0" /><g
     id="g4313"><polygon
       style="fill:#ffffff"
       points="19,231.638 20.362,233 22.994,230.368 25,232.374 25,227 19.628,227 21.632,229.005 "
       id="polygon4315" /><polygon
       style="fill:#ffffff"
       points="11,241 16.373,241 14.368,238.995 17,236.363 15.638,235 13.006,237.633 11,235.627 "
       id="polygon4317" /></g><g
     id="g4319"><polygon
       style="fill:#ffffff"
       points="19,263.626 19,269 24.372,269 22.368,266.995 25,264.362 23.638,263 21.006,265.632 "
       id="polygon4321" /><polygon
       style="fill:#ffffff"
       points="14.994,274.367 17,276.373 17,271 11.627,271 13.632,273.005 11,275.637 12.362,277 "
       id="polygon4323" /></g><path
     style="fill:#3c5563"
     d="m 22.35,158.064 -1.063,1.062 c 0.742,0.786 1.213,1.821 1.213,2.979 0,2.442 -2.016,4.422 -4.5,4.422 -2.484,0 -4.5,-1.979 -4.5,-4.422 0,-1.157 0.471,-2.192 1.213,-2.978 l -1.063,-1.062 c -1.018,1.054 -1.65,2.471 -1.65,4.039 0,3.256 2.688,5.896 6,5.896 3.314,0 6,-2.64 6,-5.896 0,-1.568 -0.633,-2.985 -1.65,-4.04 z M 19,156 l -2,0 0,6 2,0 0,-6 z"
     id="path4325"
     inkscape:connector-curvature="0" /><path
     style="fill:#ffffff"
     d="m 96.387625,56.563 c -0.059,-0.131 -0.12,-0.292 -0.18,-0.481 -0.059,-0.188 -0.09,-0.4 -0.09,-0.633 0,-0.276 0.071,-0.528 0.212,-0.756 0.142,-0.228 0.32,-0.447 0.535,-0.659 0.214,-0.211 0.446,-0.423 0.694,-0.634 0.247,-0.211 0.478,-0.453 0.693,-0.727 0.215,-0.274 0.394,-0.575 0.535,-0.9 0.141,-0.326 0.213,-0.697 0.213,-1.113 0,-0.44 -0.084,-0.824 -0.253,-1.155 -0.17,-0.331 -0.401,-0.606 -0.694,-0.829 -0.293,-0.224 -0.637,-0.391 -1.029,-0.506 -0.393,-0.112 -0.807,-0.17 -1.249,-0.17 -0.958,0 -1.883,0.261 -2.775,0.779 v 1.881 c 0.735,-0.722 1.507,-1.083 2.319,-1.083 0.251,0 0.486,0.03 0.706,0.089 0.22,0.062 0.416,0.151 0.587,0.272 0.172,0.123 0.307,0.276 0.405,0.455 0.098,0.184 0.146,0.396 0.146,0.639 0,0.271 -0.066,0.519 -0.2,0.749 -0.134,0.228 -0.3,0.444 -0.497,0.65 -0.2,0.206 -0.413,0.418 -0.645,0.633 -0.231,0.218 -0.447,0.442 -0.645,0.675 -0.198,0.232 -0.365,0.483 -0.498,0.753 -0.134,0.268 -0.2,0.567 -0.2,0.897 0,0.214 0.019,0.427 0.057,0.643 0.038,0.218 0.082,0.395 0.131,0.53 h 1.722 z m 0.025,3.121 c 0.229,-0.206 0.342,-0.461 0.342,-0.765 0,-0.309 -0.113,-0.563 -0.342,-0.764 -0.234,-0.219 -0.507,-0.325 -0.816,-0.325 -0.316,0 -0.591,0.106 -0.825,0.325 -0.229,0.2 -0.342,0.455 -0.342,0.764 0,0.304 0.113,0.559 0.342,0.765 0.239,0.211 0.514,0.316 0.825,0.316 0.303,0 0.576,-0.105 0.816,-0.316 z"
     id="path4327"
     inkscape:connector-curvature="0" /><path
     style="fill:#ffffff"
     d="m 96,127.999 c -2.276,0 -4.363,0.802 -6,2.136 l 0,1.865 12,0 0,-1.865 c -1.636,-1.334 -3.724,-2.136 -6,-2.136 z m 0,-2 c 1.657,0 3,-1.343 3,-2.999 0,-1.657 -1.343,-3 -3,-3 -1.656,0 -3,1.343 -3,3 0,1.656 1.344,2.999 3,2.999 z"
     id="path4329"
     inkscape:connector-curvature="0" /><path
     style="fill:#ffffff"
     d="M 101.00013,84 H 91.000124 c -0.551,0 -1,0.447 -1,1 v 10 c 0,0.553 0.448,1 0.999,1 h 10.000006 c 0.553,0 1,-0.447 1,-1 V 85 c 0.001,-0.553 -0.447,-1 -0.999,-1 z m -1.982006,9.82 h -6.035 v -1.232 l 3.54,-4.814 h -3.328 V 86.18 h 5.7 v 1.354 l -3.444,4.693 h 3.567 z"
     id="path4331"
     inkscape:connector-curvature="0" /><path
     style="fill:#ffffff"
     d="m 100.35,158.064 -1.063,1.062 c 0.742,0.786 1.213,1.821 1.213,2.979 0,2.442 -2.016,4.422 -4.5,4.422 -2.484,0 -4.5,-1.979 -4.5,-4.422 0,-1.157 0.471,-2.192 1.213,-2.978 l -1.063,-1.062 c -1.018,1.054 -1.65,2.471 -1.65,4.039 0,3.256 2.688,5.896 6,5.896 3.314,0 6,-2.64 6,-5.896 0,-1.568 -0.633,-2.985 -1.65,-4.04 z M 97,156 l -2,0 0,6 2,0 0,-6 z"
     id="path4333"
     inkscape:connector-curvature="0" /><path
     style="fill:#ffffff"
     d="m 22.761,452.125 c -0.816,1.833 -2.625,3.125 -4.761,3.125 -2.899,0 -5.25,-2.35 -5.25,-5.25 0,-2.898 2.351,-5.25 5.25,-5.25 1.451,0 2.747,0.604 3.693,1.558 l 0,0.001 -2.82,2.818 6.127,-0.002 0,-6.125 -2.058,2.057 c -0.001,-0.001 -0.013,0.01 -0.016,0.01 C 21.662,443.802 19.932,443 18,443 c -3.865,0 -7,3.135 -7,7 0,3.867 3.135,7 7,7 3.122,0 5.737,-2.054 6.64,-4.875 l -1.879,0 z"
     id="path4335"
     inkscape:connector-curvature="0" /><path
     style="fill:#acbbc2"
     d="m 61.5,837 -15,0 c -0.828,0 -1.5,0.672 -1.5,1.5 l 0,15 c 0,0.828 0.672,1.5 1.5,1.5 l 15,0 c 0.828,0 1.5,-0.672 1.5,-1.5 l 0,-15 c 0,-0.828 -0.672,-1.5 -1.5,-1.5 z m -0.5,16.002 -14,0 0,-12 14,0 0,12 z m -10,-9 -2,0 0,2 2,0 0,-2 z m 8,0 -2,0 0,2 2,0 0,-2 z m -4,0 -2,0 0,2 2,0 0,-2 z m 0,4 -2,0 0,2 2,0 0,-2 z m -4,0 -2,0 0,2 2,0 0,-2 z m 8,0 -2,0 0,2 2,0 0,-2 z"
     id="path4337"
     inkscape:connector-curvature="0" /><path
     style="fill:#f3a914"
     d="m 58.787,807.22 -2.186,2.185 -2.009,-2.009 2.186,-2.183 c -1.209,-0.447 -2.62,-0.192 -3.592,0.779 -1.02,1.02 -1.251,2.522 -0.708,3.768 L 49,813.233 50.768,815 l 3.48,-3.477 c 1.245,0.537 2.742,0.303 3.759,-0.715 0.972,-0.97 1.227,-2.379 0.78,-3.588 z"
     id="path4339"
     inkscape:connector-curvature="0" /><path
     style="fill:#768d99"
     d="m 55,777 0,-5.211 c 0.881,-0.387 1.5,-1.264 1.5,-2.289 0,-1.381 -1.121,-2.5 -2.5,-2.5 -1.383,0 -2.5,1.119 -2.5,2.5 0,1.025 0.617,1.904 1.5,2.289 l 0,5.211 -3,0 4,4 4,-4 -3,0 z"
     id="path4341"
     inkscape:connector-curvature="0" /><path
     style="fill:#768d99"
     d="m 53,735 0,5.211 c -0.881,0.387 -1.5,1.264 -1.5,2.289 0,1.381 1.121,2.5 2.5,2.5 1.383,0 2.5,-1.119 2.5,-2.5 0,-1.025 -0.617,-1.904 -1.5,-2.289 l 0,-5.211 3,0 -4,-4 -4,4 3,0 z"
     id="path4343"
     inkscape:connector-curvature="0" /><path
     style="fill:#768d99"
     d="m 61.681,695.711 c -0.423,-0.446 -1.111,-0.449 -1.535,0 l -8.449,8.907 -3.844,-4.052 c -0.424,-0.447 -1.111,-0.447 -1.534,0 -0.425,0.447 -0.426,1.172 0,1.617 l 4.604,4.858 c 0.214,0.224 0.494,0.334 0.774,0.333 0.28,10e-4 0.56,-0.109 0.773,-0.333 l 9.21,-9.713 c 0.426,-0.446 0.426,-1.17 10e-4,-1.617 z"
     id="path4345"
     inkscape:connector-curvature="0" /><path
     style="fill:#ffffff"
     d="m 98.912001,19.853 -0.265,0.266 -0.728,-0.728 c 1.493,-1.766 1.425,-4.403 -0.243,-6.071 -1.758,-1.757 -4.606,-1.76 -6.361,-0.004 -1.756,1.755 -1.754,4.604 0.004,6.361 1.668,1.669 4.305,1.736 6.071,0.243 l 0.728,0.728 -0.266,0.265 L 100.94,24 102,22.94 Z m -6.532,-1.235 c -1.172,-1.172 -1.175,-3.07 -0.004,-4.242 1.17,-1.17 3.07,-1.168 4.242,0.004 1.172,1.172 1.173,3.071 0.003,4.241 -1.171,1.171 -3.069,1.169 -4.241,-0.003 z"
     id="path4347"
     inkscape:connector-curvature="0" /><g
     id="g4349"><path
       style="fill:#ffffff"
       d="m 18,299 -2.102,4.7 -4.898,0.649 0.712,0.703 0,0 0.189,0.187 0,0 2.699,2.664 0,0 0,0 -0.927,5.097 0.866,-0.501 0,0 0.271,-0.156 0,0 3.19,-1.845 3.19,1.845 0,0 0.271,0.156 0,0 0.865,0.501 -0.927,-5.098 0,0 0,0 2.7,-2.664 0,0 0.189,-0.187 0,0 L 25,304.349 20.101,303.701 18,299 l 0,0 z m -4.844,6.071 2.873,-0.38 0.554,-0.073 0.228,-0.51 1.189,-2.658 1.188,2.658 0.228,0.51 0.554,0.073 2.874,0.38 -2.147,2.119 -0.376,0.37 0.094,0.521 0.54,2.971 -2.454,-1.42 -0.501,-0.289 -0.501,0.289 -2.455,1.42 0.54,-2.971 0.094,-0.521 -0.376,-0.37 -2.146,-2.119 0,0 z"
       id="path4351"
       inkscape:connector-curvature="0" /></g><g
     id="g4353"><path
       style="fill:#f3a914"
       d="m 16.241,338.158 c 0,0 -2.889,0.383 -4.163,0.552 0.926,0.914 3.062,3.021 3.062,3.021 0,0 -0.539,2.963 -0.781,4.296 1.149,-0.666 3.641,-2.107 3.641,-2.107 0,0 2.492,1.441 3.641,2.106 -0.242,-1.333 -0.781,-4.296 -0.781,-4.296 0,0 2.135,-2.106 3.062,-3.021 -1.274,-0.169 -4.163,-0.552 -4.163,-0.552 0,0 -1.199,-2.683 -1.759,-3.934 -0.56,1.253 -1.759,3.935 -1.759,3.935 z"
       id="path4355"
       inkscape:connector-curvature="0" /><path
       style="fill:#f3a914"
       d="m 18,333 -2.102,4.7 -4.898,0.649 0.712,0.703 0,0 0.189,0.187 0,0 2.699,2.664 0,0 0,0 -0.927,5.097 0.866,-0.501 0,0 0.271,-0.156 0,0 3.19,-1.845 3.19,1.845 0,0 0.271,0.156 0,0 0.865,0.501 -0.927,-5.098 0,0 0,0 2.7,-2.664 0,0 0.189,-0.187 0,0 L 25,338.349 20.101,337.701 18,333 l 0,0 z m -4.844,6.071 2.873,-0.38 0.554,-0.073 0.228,-0.51 1.189,-2.658 1.188,2.658 0.228,0.51 0.554,0.073 2.874,0.38 -2.147,2.119 -0.376,0.37 0.094,0.521 0.54,2.971 -2.454,-1.42 -0.501,-0.289 -0.501,0.289 -2.455,1.42 0.54,-2.971 0.094,-0.521 -0.376,-0.37 -2.146,-2.119 0,0 z"
       id="path4357"
       inkscape:connector-curvature="0" /></g><path
     style="fill:#ffffff"
     d="m 53,671 2,0 0,-6 -2,0 0,6 z m 0,-10 0,2 2,0 0,-2 -2,0 z"
     id="path4359"
     inkscape:connector-curvature="0" /><path
     style="fill:#768d99"
     d="M 59.112,629.979 61,629.507 c -0.185,-0.869 -0.529,-1.678 -0.997,-2.396 l -1.663,0.998 -1.447,-1.448 0.998,-1.663 c -0.72,-0.468 -1.528,-0.812 -2.397,-0.997 l -0.472,1.888 -2.045,0 L 52.505,624 c -0.868,0.186 -1.676,0.529 -2.396,0.997 l 0.998,1.663 -1.446,1.446 -1.663,-0.998 c -0.47,0.721 -0.813,1.529 -0.997,2.398 l 1.886,0.472 0,2.045 -1.887,0.472 c 0.184,0.869 0.527,1.676 0.996,2.396 l 1.664,-0.998 1.446,1.446 -0.998,1.663 c 0.721,0.47 1.528,0.813 2.396,0.997 l 0.472,-1.886 2.045,0 0.472,1.887 c 0.869,-0.184 1.678,-0.527 2.397,-0.997 l -0.999,-1.663 1.447,-1.446 1.664,0.998 c 0.468,-0.721 0.813,-1.527 0.997,-2.396 l -1.888,-0.472 0,-2.045 z m -5.113,3.067 c -1.129,0 -2.045,-0.914 -2.045,-2.045 0,-1.131 0.916,-2.045 2.045,-2.045 1.13,0 2.045,0.914 2.045,2.045 0,1.131 -0.915,2.045 -2.045,2.045 z"
     id="path4361"
     inkscape:connector-curvature="0" /><path
     style="fill:#768d99"
     d="m 56,588 0,-1 -4,0 0,1 -4,0 0,2 12,0 0,-2 -4,0 z m -7,11.5 c 0,0.828 0.672,1.5 1.5,1.5 l 7,0 c 0.828,0 1.5,-0.672 1.5,-1.5 l 0,-8.5 -10,0 0,8.5 z m 6.25,-6.5 1.5,0 0,6 -1.5,0 0,-6 z m -4,0 1.5,0 0,6 -1.5,0 0,-6 z"
     id="path4363"
     inkscape:connector-curvature="0" /><g
     id="g4365"><g
       id="g4367"><path
         style="fill:#768d99"
         d="m 55,524.25 -5.625,0 0,1.375 5.625,0 0,-1.375 z m 0,-3.125 -5.625,0 0,1.375 5.625,0 0,-1.375 z m -4.75,-6 0,2.75 -3.375,0 0,11 10.625,0 0,-2.75 3.375,0 0,-11 -10.625,0 z m 5.625,12.073 -7.375,0 0,-7.698 7.375,0 0,7.698 z m 3.316,-2.75 -1.691,0 0,-6.573 -5.625,0 0,-0.897 7.316,0 0,7.47 z"
         id="path4369"
         inkscape:connector-curvature="0" /></g></g><g
     style="display:none"
     id="g4371"><path
       style="display:inline;fill:#768d99"
       d="m 154.003,480.56 -0.989,-0.989 c -0.629,-0.72 -1.798,-0.72 -2.517,0 l -1.169,1.168 c 0,0.04 -0.021,0.083 -0.04,0.131 l -7.872,7.87 c 0,0.091 -0.09,0.181 -0.09,0.271 l -0.539,3.416 c -0.09,0.09 0,0.271 0.09,0.36 0.09,0 0.27,0.089 0.36,0.089 l 3.416,-0.449 c 0.09,0 0.18,0 0.27,-0.09 l 7.912,-7.911 c 0,-0.065 0.041,-0.145 0.065,-0.245 l 1.103,-1.104 c 0.719,-0.63 0.719,-1.799 0,-2.517 m -8.586,9.933 -2.248,-2.247 6.473,-6.473 2.247,2.247 -6.472,6.473 z m -0.943,0.945 -2.697,0.45 0.45,-2.698 0.314,-0.314 2.248,2.248 -0.315,0.314 z m 8.99,-8.991 -0.899,0.898 -2.248,-2.247 0.899,-0.899 c 0.36,-0.359 0.899,-0.359 1.259,0 l 0.989,0.988 c 0.359,0.361 0.359,0.9 0,1.26"
       id="path4373"
       inkscape:connector-curvature="0" /></g><g
     id="g4375"><path
       style="fill:#768d99"
       d="m 57.268,480.449 1.646,1.637 -5.789,5.789 -1.644,-1.638 5.787,-5.788 z m 3.381,-1.201 -0.379,-0.37 c -0.394,-0.395 -1.035,-0.395 -1.43,0 l -0.977,0.977 1.646,1.638 1.14,-1.14 c 0.306,-0.306 0.306,-0.799 0,-1.105 m -10.642,9.924 c -0.042,0.186 0.127,0.354 0.314,0.309 l 2.105,-1.081 -1.565,-1.543 -0.854,2.315 z"
       id="path4377"
       inkscape:connector-curvature="0" /></g><g
     style="display:none"
     id="g4379"><path
       style="display:inline;fill:#768d99"
       d="m 128.197,482.102 2.191,2.19 -5.546,5.545 -2.189,-2.19 5.544,-5.545 z m 3.853,-0.53 -0.977,-0.977 c -0.378,-0.378 -0.991,-0.378 -1.37,0 l -0.936,0.936 2.191,2.191 1.092,-1.092 c 0.293,-0.292 0.293,-0.765 0,-1.058 m -10.544,9.154 c -0.04,0.181 0.123,0.341 0.301,0.297 l 2.441,-0.592 -2.189,-2.191 -0.553,2.486 z"
       id="path4381"
       inkscape:connector-curvature="0" /></g><g
     id="g4383"><rect
       x="46.875"
       y="490.75"
       style="fill:#768d99"
       width="14"
       height="2"
       id="rect4385" /></g><g
     style="display:none"
     id="g4387"><path
       style="display:inline;fill:#768d99"
       d="m 136.464,517.804 -2.834,0 0,-2.518 c 0,-0.366 -0.295,-0.661 -0.661,-0.661 l -11.057,0 c -0.366,0 -0.661,0.295 -0.661,0.661 l 0,11.371 c 0,0.366 0.295,0.661 0.661,0.661 l 2.835,0 0,2.518 c 0,0.366 0.295,0.66 0.661,0.66 l 11.057,0 c 0.366,0 0.661,-0.294 0.661,-0.66 l 0,-11.372 c -0.001,-0.362 -0.296,-0.66 -0.662,-0.66 m -13.892,8.192 0,-10.049 9.732,0 0,1.856 -6.897,0 c -0.366,0 -0.661,0.294 -0.661,0.66 l 0,7.532 -2.174,0 z m 13.231,3.182 -9.735,0 0,-10.05 9.732,0 0,10.05 0.003,0 z"
       id="path4389"
       inkscape:connector-curvature="0" /><g
       style="display:inline"
       id="g4391"><path
         style="fill:#768d99"
         d="m 128.452,522.511 5.048,0 c 0.366,0 0.661,-0.295 0.661,-0.661 0,-0.366 -0.295,-0.661 -0.661,-0.661 l -5.048,0 c -0.366,0 -0.661,0.295 -0.661,0.661 0.001,0.363 0.295,0.661 0.661,0.661"
         id="path4393"
         inkscape:connector-curvature="0" /><path
         style="fill:#768d99"
         d="m 128.452,527.117 5.048,0 c 0.366,0 0.661,-0.295 0.661,-0.66 0,-0.366 -0.295,-0.661 -0.661,-0.661 l -5.048,0 c -0.366,0 -0.661,0.295 -0.661,0.661 0.001,0.365 0.295,0.66 0.661,0.66"
         id="path4395"
         inkscape:connector-curvature="0" /></g></g><path
     style="overflow:visible;fill:#0275b8;fill-opacity:1"
     d="m 97.9735,695.85681 -5.974,6.143 5.974,6.142 c 0.464,0.478 1.216,0.478 1.679,0 0.463,-0.477 0.463,-1.249 0,-1.726 l -4.297,-4.416 4.296,-4.417 c 0.463,-0.477 0.463,-1.249 0,-1.726 -0.463,-0.477 -1.215,-0.476 -1.678,0 z"
     id="path4237-4"
     inkscape:connector-curvature="0" /><path
     style="overflow:visible;fill:#ffffff"
     d="m 97.9735,729.35738 -5.974005,6.143 5.974005,6.142 c 0.464,0.478 1.216,0.478 1.679,0 0.463,-0.477 0.463,-1.249 0,-1.726 l -4.297005,-4.416 4.296005,-4.417 c 0.463,-0.477 0.463,-1.249 0,-1.726 -0.463,-0.477 -1.215,-0.476 -1.678,0 z"
     id="path4237-4-1"
     inkscape:connector-curvature="0" /></svg>