<svg id="b181ed9a-a564-4cae-b10e-e8147abe956a" data-name="Layer 1" xmlns="http://www.w3.org/2000/svg" width="424" height="935" viewBox="0 0 424 935">
  <title>icons-sprite_dec2017</title>
  <rect y="903" width="95" height="25" style="fill: #fff"/>
  <rect y="864" width="114" height="30" style="fill: #fff"/>
  <path d="M20.91,19.85l-.26.27-.73-.73a4.5,4.5,0,1,0-.53.53l.73.73-.27.26L22.94,24,24,22.94Zm-6.53-1.23a3,3,0,1,1,4.24,0A3,3,0,0,1,14.38,18.62Z" style="fill: #3c5563"/>
  <path d="M18.39,56.56a4.59,4.59,0,0,1-.18-.48,2.11,2.11,0,0,1-.09-.63,1.41,1.41,0,0,1,.21-.76,3.63,3.63,0,0,1,.53-.66q.32-.32.69-.63a5.1,5.1,0,0,0,.69-.73,4.09,4.09,0,0,0,.53-.9A2.79,2.79,0,0,0,21,50.66a2.51,2.51,0,0,0-.25-1.16,2.41,2.41,0,0,0-.69-.83,3.14,3.14,0,0,0-1-.51A4.51,4.51,0,0,0,17.78,48a5.45,5.45,0,0,0-2.78.78v1.88a3.3,3.3,0,0,1,2.32-1.08,2.73,2.73,0,0,1,.71.09,1.88,1.88,0,0,1,.59.27,1.35,1.35,0,0,1,.4.46,1.34,1.34,0,0,1,.15.64,1.46,1.46,0,0,1-.2.75,3.55,3.55,0,0,1-.5.65c-.2.21-.41.42-.64.63a8.31,8.31,0,0,0-.64.67,3.63,3.63,0,0,0-.5.75,2,2,0,0,0-.2.9,3.63,3.63,0,0,0,.06.64,3.18,3.18,0,0,0,.13.53Zm0,3.12a1,1,0,0,0,.34-.76,1,1,0,0,0-.34-.76,1.2,1.2,0,0,0-1.64,0,1,1,0,0,0-.34.76,1,1,0,0,0,.34.76,1.22,1.22,0,0,0,1.64,0Z" style="fill: #3c5563"/>
  <path d="M18,128a9.46,9.46,0,0,0-6,2.14V132H24v-1.87A9.46,9.46,0,0,0,18,128Zm0-2a3,3,0,1,0-3-3A3,3,0,0,0,18,126Z" style="fill: #3c5563"/>
  <path d="M24.89,193.23l-2,2-2.12-2.12,2-2a3,3,0,0,0-3.66,3.66l-4.34,4.34A2.93,2.93,0,0,0,14,199a3,3,0,0,0-3,3,3,3,0,0,0,.11.77l2-2,2.12,2.12-2,2A3,3,0,0,0,17,202a2.93,2.93,0,0,0-.11-.77l4.35-4.34A2.92,2.92,0,0,0,22,197a3,3,0,0,0,3-3A3,3,0,0,0,24.89,193.23Z" style="fill: #fff"/>
  <path d="M11,372v2H25v-2Zm0,7H25v-2H11Zm0,5H25v-2H11Z" style="fill: #fff"/>
  <path d="M18.7,409.25a1.09,1.09,0,0,0,.9.33,1.25,1.25,0,0,0,1-.47,1.66,1.66,0,0,0,.37-1,1,1,0,0,0-.31-.77,1.16,1.16,0,0,0-.84-.3,1.36,1.36,0,0,0-1,.42,1.4,1.4,0,0,0-.4,1A1.27,1.27,0,0,0,18.7,409.25Zm-3.35,4.92a5.11,5.11,0,0,1,1.79-.91c.16,0,.24.09.24.26a23.46,23.46,0,0,1-.86,3.58c-.26.91-.43,1.55-.51,1.92a4.79,4.79,0,0,0-.12,1,1.19,1.19,0,0,0,.2.71.68.68,0,0,0,.59.27,2.3,2.3,0,0,0,.74-.15,9.27,9.27,0,0,0,1.42-.76q1-.61,1.71-1.08l0-.12-.23-.38h-.12a5.31,5.31,0,0,1-1.64.88.26.26,0,0,1-.2-.1.34.34,0,0,1-.09-.23,24,24,0,0,1,.89-3.53c.34-1.18.56-2,.67-2.41a4.52,4.52,0,0,0,.16-1.05.74.74,0,0,0-.18-.52.57.57,0,0,0-.44-.2,3.73,3.73,0,0,0-1.58.54A27.93,27.93,0,0,0,15,413.71l0,.12.2.33Z" style="fill: #fff"/>
  <g>
    <path d="M22,486a4,4,0,0,0-2-3.44v6.87A4,4,0,0,0,22,486Z" style="fill: #768d99"/>
    <g>
      <polygon points="11 483.38 11 488.63 13.56 488.63 18 493 18 479 13.56 483.38 11 483.38" style="fill: #768d99"/>
      <path d="M20,479.31v1.58a5.49,5.49,0,0,1,0,10.23v1.58a7,7,0,0,0,0-13.39Z" style="fill: #768d99"/>
    </g>
  </g>
  <path d="M23.5,522a5.44,5.44,0,0,1-.13,1.14l1.22,1.22A6.91,6.91,0,0,0,25,522a7,7,0,0,0-5-6.69v1.58A5.49,5.49,0,0,1,23.5,522ZM20,518.56v1.21l2,2A4,4,0,0,0,20,518.56Zm4.7,8.74-12-12-1.41,1.41,2.48,2.48-.2.2H11v5.25h2.56L18,529v-5.59l2,2v0h0l1.09,1.09a5.51,5.51,0,0,1-1.1.6v1.58a7,7,0,0,0,2.17-1.11l1.13,1.13,1.41-1.41h0ZM18,515l-1.4,1.38,1.4,1.4Z" style="fill: #768d99"/>
  <path d="M18,565a2,2,0,0,0,2-2H16A2,2,0,0,0,18,565Zm4-5.37v-3a4,4,0,0,0-3-3.86V552a1,1,0,0,0-2,0v.77a4,4,0,0,0-3,3.86v3l-2,2H24Z" style="fill: #768d99"/>
  <path d="M22,592.63a4,4,0,0,0-3-3.86V588a1,1,0,0,0-2,0v.77h0l5,5ZM18,601a2,2,0,0,0,2-2H16A2,2,0,0,0,18,601Zm7-1.41h0L12.39,587,11,588.4l3.16,3.16a4,4,0,0,0-.16,1.06v3l-2,2h8.22L23.6,601l1.4-1.4Z" style="fill: #768d99"/>
  <path d="M24,628a2,2,0,1,0,2,2A2,2,0,0,0,24,628Zm-12,0a2,2,0,1,0,2,2A2,2,0,0,0,12,628Zm6,0a2,2,0,1,0,2,2A2,2,0,0,0,18,628Z" style="fill: #768d99"/>
  <path d="M24.14,668,18,662l-6.14,6a1.16,1.16,0,0,0,0,1.68,1.24,1.24,0,0,0,1.73,0l4.42-4.3,4.42,4.3a1.24,1.24,0,0,0,1.73,0A1.16,1.16,0,0,0,24.14,668Z" style="fill: #768d99"/>
  <path d="M11.86,700,18,706l6.14-6a1.16,1.16,0,0,0,0-1.68,1.25,1.25,0,0,0-1.73,0L18,702.64l-4.42-4.3a1.25,1.25,0,0,0-1.73,0A1.16,1.16,0,0,0,11.86,700Z" style="fill: #768d99"/>
  <path d="M18,729a9,9,0,1,0,9,9A9,9,0,0,0,18,729Zm1,14H17v-6h2Zm0-8H17v-2h2Z" style="fill: #acbbc2"/>
  <g>
    <rect x="17" y="811" width="2" height="2" style="fill: #acbbc2"/>
    <rect x="13" y="811" width="2" height="2" style="fill: #acbbc2"/>
    <rect x="13" y="807" width="2" height="2" style="fill: #acbbc2"/>
    <rect x="21" y="807" width="2" height="2" style="fill: #acbbc2"/>
    <rect x="21" y="811" width="2" height="2" style="fill: #acbbc2"/>
    <rect x="17" y="807" width="2" height="2" style="fill: #acbbc2"/>
  </g>
  <path d="M19,783v-2h2v2Zm0-6h2v2H19Zm0-4h2v2H19Zm0-4h2v2H19Zm0-4h2v2H19Zm-4,16h2v2H15Zm0-4h2v2H15Zm0-4h2v2H15Zm0-4h2v2H15Zm0-4h2v2H15Z" style="fill: #acbbc2"/>
  <path d="M23.77,841.74a.77.77,0,0,0-1.12,0l-6.51,6.78-2.79-2.9a.77.77,0,0,0-1.12,0,.84.84,0,0,0,0,1.16l3.35,3.49a.77.77,0,0,0,1.12,0l7.07-7.36A.84.84,0,0,0,23.77,841.74Z" style="fill: #768d99"/>
  <g>
    <path d="M57,876.4a3.25,3.25,0,0,0,0-4.73,5.06,5.06,0,0,0-3.1-.78H49.72v6.29h4.21A5.09,5.09,0,0,0,57,876.4Z" style="fill: #d40000"/>
    <path d="M54.27,879.47H49.72v7.64h4.56a5.14,5.14,0,0,0,3.39-.94,4.33,4.33,0,0,0,0-5.77A5.19,5.19,0,0,0,54.27,879.47Z" style="fill: #d40000"/>
    <path d="M76.08,876.4a3.25,3.25,0,0,0,0-4.73,5.06,5.06,0,0,0-3.1-.78h-4.2v6.29H73A5.09,5.09,0,0,0,76.08,876.4Z" style="fill: #d40000"/>
    <polygon points="30.28 881.73 37.99 881.73 34.13 871.35 30.28 881.73" style="fill: #d40000"/>
    <path d="M0,864v30H114V864Zm21.68,25.43H4.55v-2.15l13.27-16.33H4.87v-2.37H21.36v2.15L8.09,887.05H21.68Zm19.11,0-1.91-5.35H29.42l-1.91,5.35h-3l8-20.85h3.22l8,20.85Zm19.06-1.52a8.55,8.55,0,0,1-5.44,1.52H46.88V868.57h7.25a8.11,8.11,0,0,1,5,1.34,4.52,4.52,0,0,1,1.76,3.81,4.76,4.76,0,0,1-.9,3,4.05,4.05,0,0,1-2.64,1.41A5.55,5.55,0,0,1,60.61,880a5.41,5.41,0,0,1,1.16,3.54A5.2,5.2,0,0,1,59.85,887.91Zm19.06,0a8.55,8.55,0,0,1-5.44,1.52H65.94V868.57h7.25a8.11,8.11,0,0,1,5,1.34,4.52,4.52,0,0,1,1.76,3.81,4.76,4.76,0,0,1-.9,3,4.05,4.05,0,0,1-2.64,1.41A5.54,5.54,0,0,1,79.66,880a5.39,5.39,0,0,1,1.16,3.54A5.2,5.2,0,0,1,78.91,887.91Zm9.26,1.52H85.33V868.57h2.84Zm18.16,0-5.75-8.73-5.8,8.73h-3l7.32-11-6.49-9.85h3.12l4.94,7.49,5-7.49h3l-6.5,9.77,7.31,11.08Z" style="fill: #d40000"/>
    <path d="M73.33,879.47H68.77v7.64h4.55a5.15,5.15,0,0,0,3.4-.94,4.32,4.32,0,0,0,0-5.77A5.2,5.2,0,0,0,73.33,879.47Z" style="fill: #d40000"/>
    <polygon points="108.64 868.57 105.63 868.57 100.64 876.06 95.71 868.57 92.59 868.57 99.08 878.42 91.76 889.43 94.77 889.43 100.58 880.7 106.33 889.43 109.45 889.43 102.14 878.34 108.64 868.57" style="fill: #fff"/>
    <polygon points="21.36 870.72 21.36 868.57 4.87 868.57 4.87 870.95 17.82 870.95 4.55 887.28 4.55 889.43 21.68 889.43 21.68 887.05 8.09 887.05 21.36 870.72" style="fill: #fff"/>
    <path d="M32.53,868.57l-8,20.85h3l1.91-5.35h9.46l1.91,5.35h3l-8-20.85Zm-2.25,13.16,3.85-10.38L38,881.73Z" style="fill: #fff"/>
    <path d="M57.35,878.18A4.05,4.05,0,0,0,60,876.77a4.76,4.76,0,0,0,.9-3,4.52,4.52,0,0,0-1.76-3.81,8.11,8.11,0,0,0-5-1.34H46.88v20.85h7.53a8.55,8.55,0,0,0,5.44-1.52,5.2,5.2,0,0,0,1.91-4.32A5.41,5.41,0,0,0,60.61,880,5.55,5.55,0,0,0,57.35,878.18Zm-7.63-7.29h4.21a5.06,5.06,0,0,1,3.1.78,3.25,3.25,0,0,1,0,4.73,5.09,5.09,0,0,1-3.1.78H49.72Zm8,15.28a5.14,5.14,0,0,1-3.39.94H49.72v-7.64h4.56a5.19,5.19,0,0,1,3.39.93,4.33,4.33,0,0,1,0,5.77Z" style="fill: #fff"/>
    <rect x="85.33" y="868.57" width="2.84" height="20.85" style="fill: #fff"/>
    <path d="M76.41,878.18A4.05,4.05,0,0,0,79,876.77a4.76,4.76,0,0,0,.9-3,4.52,4.52,0,0,0-1.76-3.81,8.11,8.11,0,0,0-5-1.34H65.94v20.85h7.53a8.55,8.55,0,0,0,5.44-1.52,5.2,5.2,0,0,0,1.91-4.32A5.39,5.39,0,0,0,79.66,880,5.54,5.54,0,0,0,76.41,878.18Zm-7.63-7.29H73a5.06,5.06,0,0,1,3.1.78,3.25,3.25,0,0,1,0,4.73,5.09,5.09,0,0,1-3.1.78h-4.2Zm8,15.28a5.15,5.15,0,0,1-3.4.94H68.77v-7.64h4.55a5.2,5.2,0,0,1,3.4.93,4.32,4.32,0,0,1,0,5.77Z" style="fill: #fff"/>
  </g>
  <g>
    <path d="M47.52,913.34a2.37,2.37,0,0,0,.84-2,2.33,2.33,0,0,0-.84-2,4.29,4.29,0,0,0-2.59-.65h-3.5V914h3.5A4.32,4.32,0,0,0,47.52,913.34Z" style="fill: #d40000"/>
    <path d="M45.23,915.89h-3.8v6.36h3.8a4.32,4.32,0,0,0,2.83-.78,3,3,0,0,0,.92-2.4,3,3,0,0,0-.92-2.4A4.27,4.27,0,0,0,45.23,915.89Z" style="fill: #d40000"/>
    <path d="M63.4,913.34a2.34,2.34,0,0,0,.85-2,2.31,2.31,0,0,0-.85-2,4.25,4.25,0,0,0-2.58-.65h-3.5V914h3.5A4.27,4.27,0,0,0,63.4,913.34Z" style="fill: #d40000"/>
    <polygon points="25.23 917.78 31.66 917.78 28.44 909.13 25.23 917.78" style="fill: #d40000"/>
    <path d="M0,903v25H95V903Zm18.07,21.2H3.79v-1.8l11.06-13.6H4.06v-2H17.8v1.8l-11,13.6H18.07Zm15.92,0-1.59-4.46H24.51l-1.59,4.46H20.43l6.68-17.38h2.68l6.66,17.38Zm15.89-1.28a7.12,7.12,0,0,1-4.53,1.28H39.07V906.81h6a6.76,6.76,0,0,1,4.17,1.12,3.76,3.76,0,0,1,1.46,3.18,4,4,0,0,1-.75,2.53,3.41,3.41,0,0,1-2.2,1.19,4.32,4.32,0,0,1,3.67,4.5A4.33,4.33,0,0,1,49.88,922.92Zm15.88,0a7.11,7.11,0,0,1-4.53,1.28H54.95V906.81h6a6.76,6.76,0,0,1,4.17,1.12,3.77,3.77,0,0,1,1.47,3.18,4,4,0,0,1-.75,2.53,3.42,3.42,0,0,1-2.21,1.19,4.53,4.53,0,0,1,2.71,1.55,4.48,4.48,0,0,1,1,2.95A4.32,4.32,0,0,1,65.75,922.92Zm7.72,1.28H71.1V906.81h2.36Zm15.14,0-4.79-7.28L79,924.2H76.47L82.56,915l-5.4-8.2h2.6l4.11,6.24L88,906.81h2.51l-5.41,8.14,6.09,9.25Z" style="fill: #d40000"/>
    <path d="M61.11,915.89h-3.8v6.36h3.8a4.35,4.35,0,0,0,2.83-.78,3,3,0,0,0,.92-2.4,3,3,0,0,0-.92-2.4A4.29,4.29,0,0,0,61.11,915.89Z" style="fill: #d40000"/>
    <polygon points="90.53 906.81 88.02 906.81 83.87 913.06 79.76 906.81 77.16 906.81 82.56 915.01 76.47 924.2 78.97 924.2 83.81 916.91 88.61 924.2 91.21 924.2 85.12 914.95 90.53 906.81" style="fill: #fff"/>
    <polygon points="17.8 908.61 17.8 906.81 4.06 906.81 4.06 908.8 14.85 908.8 3.79 922.4 3.79 924.2 18.07 924.2 18.07 922.21 6.75 922.21 17.8 908.61" style="fill: #fff"/>
    <path d="M27.11,906.81,20.43,924.2h2.49l1.59-4.46H32.4L34,924.2h2.46l-6.66-17.38Zm-1.88,11,3.21-8.66,3.21,8.66Z" style="fill: #fff"/>
    <path d="M47.8,914.83a3.41,3.41,0,0,0,2.2-1.19,4,4,0,0,0,.75-2.53,3.76,3.76,0,0,0-1.46-3.18,6.76,6.76,0,0,0-4.17-1.12h-6V924.2h6.28a7.12,7.12,0,0,0,4.53-1.28,4.33,4.33,0,0,0,1.59-3.59,4.32,4.32,0,0,0-3.67-4.5Zm-6.36-6.09h3.5a4.29,4.29,0,0,1,2.59.65,2.33,2.33,0,0,1,.84,2,2.37,2.37,0,0,1-.84,2,4.32,4.32,0,0,1-2.59.65h-3.5Zm6.62,12.73a4.32,4.32,0,0,1-2.83.78h-3.8v-6.36h3.8a4.27,4.27,0,0,1,2.83.78,3,3,0,0,1,.92,2.4A3,3,0,0,1,48.06,921.47Z" style="fill: #fff"/>
    <rect x="71.1" y="906.81" width="2.36" height="17.38" style="fill: #fff"/>
    <path d="M63.67,914.83a3.42,3.42,0,0,0,2.21-1.19,4,4,0,0,0,.75-2.53,3.77,3.77,0,0,0-1.47-3.18A6.76,6.76,0,0,0,61,906.81h-6V924.2h6.28a7.11,7.11,0,0,0,4.53-1.28,4.32,4.32,0,0,0,1.6-3.59,4.48,4.48,0,0,0-1-2.95A4.53,4.53,0,0,0,63.67,914.83Zm-6.36-6.09h3.5a4.25,4.25,0,0,1,2.58.65,2.31,2.31,0,0,1,.85,2,2.34,2.34,0,0,1-.85,2,4.27,4.27,0,0,1-2.58.65h-3.5Zm6.63,12.73a4.35,4.35,0,0,1-2.83.78h-3.8v-6.36h3.8a4.29,4.29,0,0,1,2.83.78,3,3,0,0,1,.92,2.4A3,3,0,0,1,63.94,921.47Z" style="fill: #fff"/>
  </g>
  <path d="M23,84H13a1,1,0,0,0-1,1V95a1,1,0,0,0,1,1H23a1,1,0,0,0,1-1V85A1,1,0,0,0,23,84Zm-2,9.82H15V92.59l3.54-4.81H15.19V86.18h5.7v1.35l-3.44,4.69H21Z" style="fill: #3c5563"/>
  <g>
    <polygon points="25 227 19.63 227 21.63 229 19 231.64 20.36 233 22.99 230.37 25 232.37 25 227" style="fill: #fff"/>
    <polygon points="15.64 235 13.01 237.63 11 235.63 11 241 16.37 241 14.37 239 17 236.36 15.64 235" style="fill: #fff"/>
  </g>
  <g>
    <polygon points="25 264.36 23.64 263 21.01 265.63 19 263.63 19 269 24.37 269 22.37 267 25 264.36" style="fill: #fff"/>
    <polygon points="13.63 273 11 275.64 12.36 277 14.99 274.37 17 276.37 17 271 11.63 271 13.63 273" style="fill: #fff"/>
  </g>
  <path d="M22.35,158.06l-1.06,1.06a4.32,4.32,0,0,1,1.21,3,4.5,4.5,0,0,1-9,0,4.32,4.32,0,0,1,1.21-3l-1.06-1.06a5.79,5.79,0,0,0-1.65,4,6,6,0,0,0,12,0A5.8,5.8,0,0,0,22.35,158.06ZM19,156H17v6h2Z" style="fill: #3c5563"/>
  <path d="M96.39,56.56a4.59,4.59,0,0,1-.18-.48,2.11,2.11,0,0,1-.09-.63,1.41,1.41,0,0,1,.21-.76,3.63,3.63,0,0,1,.53-.66q.32-.32.69-.63a5.1,5.1,0,0,0,.69-.73,4.09,4.09,0,0,0,.53-.9A2.79,2.79,0,0,0,99,50.66a2.51,2.51,0,0,0-.25-1.16,2.41,2.41,0,0,0-.69-.83,3.14,3.14,0,0,0-1-.51A4.51,4.51,0,0,0,95.78,48a5.45,5.45,0,0,0-2.78.78v1.88a3.3,3.3,0,0,1,2.32-1.08,2.73,2.73,0,0,1,.71.09,1.88,1.88,0,0,1,.59.27,1.35,1.35,0,0,1,.4.46,1.34,1.34,0,0,1,.15.64,1.46,1.46,0,0,1-.2.75,3.55,3.55,0,0,1-.5.65c-.2.21-.41.42-.64.63a8.31,8.31,0,0,0-.64.67,3.63,3.63,0,0,0-.5.75,2,2,0,0,0-.2.9,3.63,3.63,0,0,0,.06.64,3.18,3.18,0,0,0,.13.53Zm0,3.12a1,1,0,0,0,.34-.76,1,1,0,0,0-.34-.76,1.2,1.2,0,0,0-1.64,0,1,1,0,0,0-.34.76,1,1,0,0,0,.34.76,1.22,1.22,0,0,0,1.64,0Z" style="fill: #fff"/>
  <path d="M96,128a9.46,9.46,0,0,0-6,2.14V132h12v-1.87A9.46,9.46,0,0,0,96,128Zm0-2a3,3,0,1,0-3-3A3,3,0,0,0,96,126Z" style="fill: #fff"/>
  <path d="M101,84H91a1,1,0,0,0-1,1V95a1,1,0,0,0,1,1h10a1,1,0,0,0,1-1V85A1,1,0,0,0,101,84Zm-2,9.82H93V92.59l3.54-4.81H93.19V86.18h5.7v1.35l-3.44,4.69H99Z" style="fill: #fff"/>
  <path d="M100.35,158.06l-1.06,1.06a4.32,4.32,0,0,1,1.21,3,4.5,4.5,0,0,1-9,0,4.32,4.32,0,0,1,1.21-3l-1.06-1.06a5.79,5.79,0,0,0-1.65,4,6,6,0,0,0,12,0A5.8,5.8,0,0,0,100.35,158.06ZM97,156H95v6h2Z" style="fill: #fff"/>
  <path d="M22.76,452.13a5.25,5.25,0,1,1-1.07-5.82h0l-2.82,2.82H25V443l-2.06,2.06h0a7,7,0,1,0,1.71,7.06Z" style="fill: #fff"/>
  <path d="M61.5,837h-15a1.5,1.5,0,0,0-1.5,1.5v15a1.5,1.5,0,0,0,1.5,1.5h15a1.5,1.5,0,0,0,1.5-1.5v-15A1.5,1.5,0,0,0,61.5,837ZM61,853H47V841H61Zm-10-9H49v2h2Zm8,0H57v2h2Zm-4,0H53v2h2Zm0,4H53v2h2Zm-4,0H49v2h2Zm8,0H57v2h2Z" style="fill: #acbbc2"/>
  <path d="M58.79,807.22,56.6,809.4l-2-2,2.19-2.18a3.4,3.4,0,0,0-4.3,4.55L49,813.23,50.77,815l3.48-3.48a3.4,3.4,0,0,0,4.54-4.3Z" style="fill: #f3a914"/>
  <path d="M55,777v-5.21a2.5,2.5,0,1,0-2,0V777H50l4,4,4-4Z" style="fill: #768d99"/>
  <path d="M53,735v5.21a2.5,2.5,0,1,0,2,0V735h3l-4-4-4,4Z" style="fill: #768d99"/>
  <path d="M61.68,695.71a1,1,0,0,0-1.54,0l-8.45,8.91-3.84-4.05a1,1,0,0,0-1.53,0,1.18,1.18,0,0,0,0,1.62l4.6,4.86a1.07,1.07,0,0,0,1.55,0l9.21-9.71A1.19,1.19,0,0,0,61.68,695.71Z" style="fill: #768d99"/>
  <path d="M98.91,19.85l-.26.27-.73-.73a4.5,4.5,0,1,0-.53.53l.73.73-.27.26L100.94,24,102,22.94Zm-6.53-1.23a3,3,0,1,1,4.24,0A3,3,0,0,1,92.38,18.62Z" style="fill: #fff"/>
  <path d="M174.39,56.56a4.59,4.59,0,0,1-.18-.48,2.11,2.11,0,0,1-.09-.63,1.41,1.41,0,0,1,.21-.76,3.63,3.63,0,0,1,.53-.66q.32-.32.69-.63a5.1,5.1,0,0,0,.69-.73,4.09,4.09,0,0,0,.53-.9,2.79,2.79,0,0,0,.21-1.11,2.51,2.51,0,0,0-.25-1.16,2.41,2.41,0,0,0-.69-.83,3.14,3.14,0,0,0-1-.51,4.51,4.51,0,0,0-1.25-.17,5.45,5.45,0,0,0-2.78.78v1.88a3.3,3.3,0,0,1,2.32-1.08,2.73,2.73,0,0,1,.71.09,1.88,1.88,0,0,1,.59.27,1.35,1.35,0,0,1,.4.46,1.34,1.34,0,0,1,.15.64,1.46,1.46,0,0,1-.2.75,3.55,3.55,0,0,1-.5.65c-.2.21-.41.42-.64.63a8.31,8.31,0,0,0-.64.67,3.63,3.63,0,0,0-.5.75,2,2,0,0,0-.2.9,3.63,3.63,0,0,0,.06.64,3.17,3.17,0,0,0,.13.53Zm0,3.12a1,1,0,0,0,.34-.76,1,1,0,0,0-.34-.76,1.2,1.2,0,0,0-1.64,0,1,1,0,0,0-.34.76,1,1,0,0,0,.34.76,1.22,1.22,0,0,0,1.64,0Z"/>
  <path d="M174,128a9.46,9.46,0,0,0-6,2.14V132h12v-1.87A9.46,9.46,0,0,0,174,128Zm0-2a3,3,0,1,0-3-3A3,3,0,0,0,174,126Z"/>
  <path d="M179,84H169a1,1,0,0,0-1,1V95a1,1,0,0,0,1,1h10a1,1,0,0,0,1-1V85A1,1,0,0,0,179,84Zm-2,9.82h-6V92.59l3.54-4.81h-3.33V86.18h5.7v1.35l-3.44,4.69H177Z"/>
  <path d="M178.35,158.06l-1.06,1.06a4.32,4.32,0,0,1,1.21,3,4.5,4.5,0,0,1-9,0,4.32,4.32,0,0,1,1.21-3l-1.06-1.06a5.79,5.79,0,0,0-1.65,4,6,6,0,0,0,12,0A5.8,5.8,0,0,0,178.35,158.06ZM175,156h-2v6h2Z"/>
  <path d="M176.91,19.85l-.26.27-.73-.73a4.5,4.5,0,1,0-.53.53l.73.73-.27.26L178.94,24,180,22.94Zm-6.53-1.23a3,3,0,1,1,4.24,0A3,3,0,0,1,170.38,18.62Z"/>
  <path d="M18,299l-2.1,4.7-4.9.65.71.7h0l.19.19h0l2.7,2.66h0l-.93,5.1.87-.5h0l.27-.16h0L18,310.5l3.19,1.84h0l.27.16h0l.87.5-.93-5.1h0l2.7-2.66h0l.19-.19h0l.71-.7-4.9-.65L18,299Zm-4.84,6.07,2.87-.38.55-.07.23-.51L18,301.45l1.19,2.66.23.51.55.07,2.87.38-2.15,2.12-.38.37.09.52.54,3-2.45-1.42-.5-.29-.5.29L15,311.05l.54-3,.09-.52-.38-.37-2.15-2.12Z" style="fill: #fff"/>
  <g>
    <path d="M16.24,338.16l-4.16.55,3.06,3-.78,4.3L18,343.92,21.64,346l-.78-4.3,3.06-3-4.16-.55L18,334.22Z" style="fill: #f3a914"/>
    <path d="M18,333l-2.1,4.7-4.9.65.71.7h0l.19.19h0l2.7,2.66h0l-.93,5.1.87-.5h0l.27-.16h0L18,344.5l3.19,1.84h0l.27.16h0l.87.5-.93-5.1h0l2.7-2.66h0l.19-.19h0l.71-.7-4.9-.65L18,333Zm-4.84,6.07,2.87-.38.55-.07.23-.51L18,335.45l1.19,2.66.23.51.55.07,2.87.38-2.15,2.12-.38.37.09.52.54,3-2.45-1.42-.5-.29-.5.29L15,345.05l.54-3,.09-.52-.38-.37-2.15-2.12Z" style="fill: #f3a914"/>
  </g>
  <path d="M53,671h2v-6H53Zm0-10v2h2v-2Z" style="fill: #fff"/>
  <path d="M59.11,630l1.89-.47a7.09,7.09,0,0,0-1-2.4l-1.66,1-1.45-1.45,1-1.66a7.13,7.13,0,0,0-2.4-1L55,625.89H53L52.5,624a7.14,7.14,0,0,0-2.4,1l1,1.66-1.45,1.45-1.66-1a7.06,7.06,0,0,0-1,2.4l1.89.47v2L47,632.5a7.07,7.07,0,0,0,1,2.4l1.66-1,1.45,1.45-1,1.66a7.06,7.06,0,0,0,2.4,1l.47-1.89h2l.47,1.89a7,7,0,0,0,2.4-1l-1-1.66,1.45-1.45,1.66,1a7.11,7.11,0,0,0,1-2.4L59.11,632ZM54,633a2,2,0,1,1,2-2A2,2,0,0,1,54,633Z" style="fill: #768d99"/>
  <path d="M56,588v-1H52v1H48v2H60v-2Zm-7,11.5a1.5,1.5,0,0,0,1.5,1.5h7a1.5,1.5,0,0,0,1.5-1.5V591H49Zm6.25-6.5h1.5v6h-1.5Zm-4,0h1.5v6h-1.5Z" style="fill: #768d99"/>
  <path id="9732a578-06aa-4f1a-b143-d1d4b42c0475" data-name="path4237-4" d="M98,695.86,92,702l6,6.14a1.16,1.16,0,0,0,1.68,0,1.25,1.25,0,0,0,0-1.73L95.36,702l4.3-4.42a1.25,1.25,0,0,0,0-1.73A1.16,1.16,0,0,0,98,695.86Z" style="fill: #0275b8"/>
  <path id="bcd289d7-3e91-4d35-a8ee-2156df3ab29c" data-name="path4237-4-1" d="M98,729.36l-6,6.14,6,6.14a1.16,1.16,0,0,0,1.68,0,1.25,1.25,0,0,0,0-1.73l-4.3-4.42,4.3-4.42a1.25,1.25,0,0,0,0-1.73A1.16,1.16,0,0,0,98,729.36Z" style="fill: #fff"/>
  <g>
    <path d="M181,486a4,4,0,0,0-2-3.44v6.87A4,4,0,0,0,181,486Z"/>
    <g>
      <polygon points="170 483.38 170 488.63 172.56 488.63 177 493 177 479 172.56 483.38 170 483.38"/>
      <path d="M179,479.31v1.58a5.49,5.49,0,0,1,0,10.23v1.58a7,7,0,0,0,0-13.39Z"/>
    </g>
  </g>
  <path d="M182.5,522a5.44,5.44,0,0,1-.13,1.14l1.22,1.22A6.91,6.91,0,0,0,184,522a7,7,0,0,0-5-6.69v1.58A5.49,5.49,0,0,1,182.5,522Zm-3.5-3.44v1.21l2,2A4,4,0,0,0,179,518.56Zm4.7,8.74-12-12-1.41,1.41,2.48,2.48-.2.2H170v5.25h2.56L177,529v-5.59l2,2v0h0l1.09,1.09a5.51,5.51,0,0,1-1.1.6v1.58a7,7,0,0,0,2.17-1.11l1.13,1.13,1.41-1.41h0ZM177,515l-1.4,1.38,1.4,1.4Z"/>
  <path d="M177,565a2,2,0,0,0,2-2h-4A2,2,0,0,0,177,565Zm4-5.37v-3a4,4,0,0,0-3-3.86V552a1,1,0,0,0-2,0v.77a4,4,0,0,0-3,3.86v3l-2,2h12Z"/>
  <path d="M181,592.63a4,4,0,0,0-3-3.86V588a1,1,0,0,0-2,0v.77h0l5,5ZM177,601a2,2,0,0,0,2-2h-4A2,2,0,0,0,177,601Zm7-1.41h0L171.39,587,170,588.4l3.16,3.16a4,4,0,0,0-.16,1.06v3l-2,2h8.22L182.6,601l1.4-1.4Z"/>
  <path d="M183,628a2,2,0,1,0,2,2A2,2,0,0,0,183,628Zm-12,0a2,2,0,1,0,2,2A2,2,0,0,0,171,628Zm6,0a2,2,0,1,0,2,2A2,2,0,0,0,177,628Z"/>
  <path d="M183.14,668,177,662l-6.14,6a1.16,1.16,0,0,0,0,1.68,1.24,1.24,0,0,0,1.73,0l4.42-4.3,4.42,4.3a1.24,1.24,0,0,0,1.73,0A1.16,1.16,0,0,0,183.14,668Z"/>
  <path d="M170.86,700l6.14,6,6.14-6a1.16,1.16,0,0,0,0-1.68,1.25,1.25,0,0,0-1.73,0l-4.42,4.3-4.42-4.3a1.25,1.25,0,0,0-1.73,0A1.16,1.16,0,0,0,170.86,700Z"/>
  <path d="M177,729a9,9,0,1,0,9,9A9,9,0,0,0,177,729Zm1,14h-2v-6h2Zm0-8h-2v-2h2Z"/>
  <g>
    <rect x="176" y="811" width="2" height="2"/>
    <rect x="172" y="811" width="2" height="2"/>
    <rect x="172" y="807" width="2" height="2"/>
    <rect x="180" y="807" width="2" height="2"/>
    <rect x="180" y="811" width="2" height="2"/>
    <rect x="176" y="807" width="2" height="2"/>
  </g>
  <path d="M178,783v-2h2v2Zm0-6h2v2h-2Zm0-4h2v2h-2Zm0-4h2v2h-2Zm0-4h2v2h-2Zm-4,16h2v2h-2Zm0-4h2v2h-2Zm0-4h2v2h-2Zm0-4h2v2h-2Zm0-4h2v2h-2Z"/>
  <path d="M182.77,841.74a.77.77,0,0,0-1.12,0l-6.51,6.78-2.79-2.9a.77.77,0,0,0-1.12,0,.84.84,0,0,0,0,1.16l3.35,3.49a.77.77,0,0,0,1.12,0l7.07-7.36A.84.84,0,0,0,182.77,841.74Z"/>
  <path d="M220.5,837h-15a1.5,1.5,0,0,0-1.5,1.5v15a1.5,1.5,0,0,0,1.5,1.5h15a1.5,1.5,0,0,0,1.5-1.5v-15A1.5,1.5,0,0,0,220.5,837Zm-.5,16H206V841h14Zm-10-9h-2v2h2Zm8,0h-2v2h2Zm-4,0h-2v2h2Zm0,4h-2v2h2Zm-4,0h-2v2h2Zm8,0h-2v2h2Z"/>
  <path d="M217.79,807.22l-2.19,2.18-2-2,2.19-2.18a3.4,3.4,0,0,0-4.3,4.55L208,813.23l1.77,1.77,3.48-3.48a3.4,3.4,0,0,0,4.54-4.3Z"/>
  <path d="M214,777v-5.21a2.5,2.5,0,1,0-2,0V777h-3l4,4,4-4Z"/>
  <path d="M212,735v5.21a2.5,2.5,0,1,0,2,0V735h3l-4-4-4,4Z"/>
  <path d="M220.68,695.71a1,1,0,0,0-1.54,0l-8.45,8.91-3.84-4.05a1,1,0,0,0-1.53,0,1.18,1.18,0,0,0,0,1.62l4.6,4.86a1.07,1.07,0,0,0,1.55,0l9.21-9.71A1.19,1.19,0,0,0,220.68,695.71Z"/>
  <path d="M212,671h2v-6h-2Zm0-10v2h2v-2Z" style="fill: #fff"/>
  <path d="M218.11,630l1.89-.47a7.09,7.09,0,0,0-1-2.4l-1.66,1-1.45-1.45,1-1.66a7.13,7.13,0,0,0-2.4-1l-.47,1.89h-2L211.5,624a7.14,7.14,0,0,0-2.4,1l1,1.66-1.45,1.45-1.66-1a7.06,7.06,0,0,0-1,2.4l1.89.47v2l-1.89.47a7.07,7.07,0,0,0,1,2.4l1.66-1,1.45,1.45-1,1.66a7.06,7.06,0,0,0,2.4,1l.47-1.89h2l.47,1.89a7,7,0,0,0,2.4-1l-1-1.66,1.45-1.45,1.66,1a7.11,7.11,0,0,0,1-2.4l-1.89-.47ZM213,633a2,2,0,1,1,2-2A2,2,0,0,1,213,633Z"/>
  <path d="M215,588v-1h-4v1h-4v2h12v-2Zm-7,11.5a1.5,1.5,0,0,0,1.5,1.5h7a1.5,1.5,0,0,0,1.5-1.5V591H208Zm6.25-6.5h1.5v6h-1.5Zm-4,0h1.5v6h-1.5Z"/>
  <path id="518bad3e-ad04-41d9-a61b-09e28dbe56bc" data-name="path4237-4" d="M257,695.86,251,702l6,6.14a1.16,1.16,0,0,0,1.68,0,1.25,1.25,0,0,0,0-1.73l-4.3-4.42,4.3-4.42a1.25,1.25,0,0,0,0-1.73A1.16,1.16,0,0,0,257,695.86Z"/>
  <path id="d564228b-5845-4fd8-96a0-25e7f748bd57" data-name="path4237-4-1" d="M257,729.36l-6,6.14,6,6.14a1.16,1.16,0,0,0,1.68,0,1.25,1.25,0,0,0,0-1.73l-4.3-4.42,4.3-4.42a1.25,1.25,0,0,0,0-1.73A1.16,1.16,0,0,0,257,729.36Z" style="fill: #fff"/>
  <circle cx="177.5" cy="297.5" r="15.5" style="opacity: 0.30000000000000004"/>
  <circle cx="177.5" cy="297.5" r="11.5" style="fill: #fff"/>
  <g>
    <circle cx="177.5" cy="257.5" r="15.5" style="opacity: 0.30000000000000004"/>
    <circle cx="177.5" cy="257.5" r="11.5" style="fill: #fff"/>
    <path d="M183.77,253.74a.77.77,0,0,0-1.12,0l-6.51,6.78-2.79-2.9a.77.77,0,0,0-1.12,0,.84.84,0,0,0,0,1.16l3.35,3.49a.77.77,0,0,0,1.12,0l7.07-7.36A.84.84,0,0,0,183.77,253.74Z"/>
  </g>
  <path d="M176,304h3v-7.2h-3Zm0-12v2.4h3V292Z"/>
  <g>
    <circle cx="135.5" cy="296.5" r="12.5" style="opacity: 0.30000000000000004"/>
    <circle cx="135.5" cy="296.5" r="9.27" style="fill: #fff"/>
    <path d="M134.29,301.74h2.42v-5.81h-2.42Zm0-9.68V294h2.42v-1.94Z"/>
  </g>
  <g>
    <g style="opacity: 0.30000000000000004">
      <path d="M181.33,326c-2.16-3.83-5.7-3.83-7.86,0L162.73,345c-2.16,3.83-.33,7,4.07,7H188c4.4,0,6.23-3.14,4.07-7Z"/>
    </g>
    <path d="M178.36,328c-.53-1-1.38-1-1.91,0l-10,18.42a1.09,1.09,0,0,0,1,1.76h19.84a1.09,1.09,0,0,0,1-1.76Z" style="fill: #fff"/>
    <path d="M179,334h-3v7.2h3Zm0,12v-2.4h-3V346Z"/>
  </g>
  <g>
    <g style="opacity: 0.30000000000000004">
      <path d="M139.46,328c-2.18-3.82-5.74-3.82-7.91,0L123,343c-2.18,3.82-.36,7,4,7h17c4.4,0,6.22-3.13,4-7Z"/>
    </g>
    <path d="M136.46,329.12c-.53-1-1.4-1-1.92,0l-8.65,15.77a1.09,1.09,0,0,0,1,1.75h17.15a1.09,1.09,0,0,0,1-1.75Z" style="fill: #fff"/>
    <path d="M136.92,334.18h-2.66v6.33h2.66Zm0,10.55v-2.11h-2.66v2.11Z"/>
  </g>
  <g>
    <g style="opacity: 0.30000000000000004">
      <path d="M131.54,387c2.18,3.82,5.74,3.82,7.91,0L148,372c2.18-3.82.36-7-4-7H127c-4.4,0-6.22,3.13-4,7Z"/>
    </g>
    <path d="M134.54,385.88c.53,1,1.4,1,1.92,0l8.65-15.77a1.09,1.09,0,0,0-1-1.75H126.92a1.09,1.09,0,0,0-1,1.75Z" style="fill: #fff"/>
    <path d="M136.74,370.27h-2.66v6.33h2.66Zm0,10.55v-2.11h-2.66v2.11Z"/>
  </g>
  <g>
    <g style="opacity: 0.30000000000000004">
      <path d="M173.47,389c2.16,3.83,5.7,3.83,7.86,0L192.07,370c2.16-3.83.33-7-4.07-7H166.8c-4.4,0-6.23,3.14-4.07,7Z"/>
    </g>
    <path d="M176.45,387c.53,1,1.38,1,1.91,0l10-18.42a1.09,1.09,0,0,0-1-1.76H167.48a1.09,1.09,0,0,0-1,1.76Z" style="fill: #fff"/>
    <path d="M178.8,369h-3v7.2h3Zm0,12v-2.4h-3V381Z"/>
  </g>
  <circle cx="177" cy="420" r="9" style="fill: #fff"/>
  <circle cx="87" cy="420" r="9" style="fill: #fff"/>
  <g>
    <rect x="176" y="423" width="2" height="2"/>
    <rect x="176" y="415" width="2" height="6"/>
  </g>
  <circle cx="147" cy="420" r="9" style="fill: #fff"/>
  <g>
    <rect x="146" y="415" width="2" height="2"/>
    <rect x="146" y="419" width="2" height="6"/>
  </g>
  <circle cx="117" cy="420" r="9" style="fill: #fff"/>
  <polygon points="214.78 422.73 210.22 415.27 207 410 203.78 415.27 199.22 422.73 196 428 218 428 214.78 422.73" style="fill: #fff"/>
  <polygon points="229.22 416.27 233.78 423.73 237 429 240.22 423.73 244.78 416.27 248 411 226 411 229.22 416.27" style="fill: #fff"/>
  <polygon points="270.73 411 263.27 411 258 416.27 258 423.73 263.27 429 270.73 429 276 423.73 276 416.27 270.73 411" style="fill: #fff"/>
  <g>
    <rect x="206" y="424" width="2" height="2"/>
    <rect x="206" y="416" width="2" height="6"/>
  </g>
  <g>
    <rect x="236" y="421" width="2" height="2"/>
    <rect x="236" y="413" width="2" height="6"/>
  </g>
  <polygon points="92.43 417.29 91.02 415.87 85.05 421.84 82.69 419.47 81.27 420.89 85.02 424.63 85.05 424.59 85.09 424.63 92.43 417.29"/>
  <path d="M117.39,423a4.59,4.59,0,0,1-.18-.48,2.11,2.11,0,0,1-.09-.63,1.41,1.41,0,0,1,.21-.76,3.63,3.63,0,0,1,.53-.66q.32-.32.69-.63a5.1,5.1,0,0,0,.69-.73,4.09,4.09,0,0,0,.53-.9,2.79,2.79,0,0,0,.21-1.11,2.51,2.51,0,0,0-.25-1.16,2.41,2.41,0,0,0-.69-.83,3.14,3.14,0,0,0-1-.51,4.51,4.51,0,0,0-1.25-.17,5.45,5.45,0,0,0-2.78.78v1.88a3.3,3.3,0,0,1,2.32-1.08,2.73,2.73,0,0,1,.71.09,1.88,1.88,0,0,1,.59.27,1.35,1.35,0,0,1,.4.46,1.34,1.34,0,0,1,.15.64,1.46,1.46,0,0,1-.2.75,3.55,3.55,0,0,1-.5.65c-.2.21-.41.42-.64.63a8.31,8.31,0,0,0-.64.67,3.63,3.63,0,0,0-.5.75,2,2,0,0,0-.2.9,3.63,3.63,0,0,0,.06.64,3.18,3.18,0,0,0,.13.53Zm0,2.82a1,1,0,0,0,.34-.76,1,1,0,0,0-.34-.76,1.2,1.2,0,0,0-1.64,0,1,1,0,0,0-.34.76,1,1,0,0,0,.34.76,1.22,1.22,0,0,0,1.64,0Z"/>
  <circle cx="177" cy="452" r="9"/>
  <circle cx="87" cy="452" r="9"/>
  <g>
    <rect x="176" y="455" width="2" height="2" style="fill: #fff"/>
    <rect x="176" y="447" width="2" height="6" style="fill: #fff"/>
  </g>
  <circle cx="147" cy="452" r="9"/>
  <g>
    <rect x="146" y="447" width="2" height="2" style="fill: #fff"/>
    <rect x="146" y="451" width="2" height="6" style="fill: #fff"/>
  </g>
  <circle cx="117" cy="452" r="9"/>
  <polygon points="214.78 454.73 210.22 447.27 207 442 203.78 447.27 199.22 454.73 196 460 218 460 214.78 454.73"/>
  <polygon points="229.22 448.27 233.78 455.73 237 461 240.22 455.73 244.78 448.27 248 443 226 443 229.22 448.27"/>
  <polygon points="270.73 443 263.27 443 258 448.27 258 455.73 263.27 461 270.73 461 276 455.73 276 448.27 270.73 443"/>
  <g>
    <rect x="206" y="456" width="2" height="2" style="fill: #fff"/>
    <rect x="206" y="448" width="2" height="6" style="fill: #fff"/>
  </g>
  <g>
    <rect x="236" y="453" width="2" height="2" style="fill: #fff"/>
    <rect x="236" y="445" width="2" height="6" style="fill: #fff"/>
  </g>
  <polygon points="92.43 449.29 91.02 447.87 85.05 453.84 82.69 451.47 81.27 452.89 85.02 456.63 85.05 456.59 85.09 456.63 92.43 449.29" style="fill: #fff"/>
  <path d="M117.39,455a4.59,4.59,0,0,1-.18-.48,2.11,2.11,0,0,1-.09-.63,1.41,1.41,0,0,1,.21-.76,3.63,3.63,0,0,1,.53-.66q.32-.32.69-.63a5.1,5.1,0,0,0,.69-.73,4.09,4.09,0,0,0,.53-.9,2.79,2.79,0,0,0,.21-1.11,2.51,2.51,0,0,0-.25-1.16,2.41,2.41,0,0,0-.69-.83,3.14,3.14,0,0,0-1-.51,4.51,4.51,0,0,0-1.25-.17,5.45,5.45,0,0,0-2.78.78v1.88a3.3,3.3,0,0,1,2.32-1.08,2.73,2.73,0,0,1,.71.09,1.88,1.88,0,0,1,.59.27,1.35,1.35,0,0,1,.4.46,1.34,1.34,0,0,1,.15.64,1.46,1.46,0,0,1-.2.75,3.55,3.55,0,0,1-.5.65c-.2.21-.41.42-.64.63a8.31,8.31,0,0,0-.64.67,3.63,3.63,0,0,0-.5.75,2,2,0,0,0-.2.9,3.63,3.63,0,0,0,.06.64,3.18,3.18,0,0,0,.13.53Zm0,2.82a1,1,0,0,0,.34-.76,1,1,0,0,0-.34-.76,1.2,1.2,0,0,0-1.64,0,1,1,0,0,0-.34.76,1,1,0,0,0,.34.76,1.22,1.22,0,0,0,1.64,0Z" style="fill: #fff"/>
  <rect x="262" y="419" width="10" height="3"/>
  <rect x="262" y="451" width="10" height="3" style="fill: #fff"/>
  <path d="M60.89,193.23l-2,2-2.12-2.12,2-2a3,3,0,0,0-3.66,3.66l-4.34,4.34A2.93,2.93,0,0,0,50,199a3,3,0,0,0-3,3,3,3,0,0,0,.11.77l2-2,2.12,2.12-2,2A3,3,0,0,0,53,202a2.93,2.93,0,0,0-.11-.77l4.35-4.34A2.92,2.92,0,0,0,58,197a3,3,0,0,0,3-3A3,3,0,0,0,60.89,193.23Z"/>
  <path d="M47,372v2H61v-2Zm0,7H61v-2H47Zm0,5H61v-2H47Z"/>
  <path d="M54.7,409.25a1.09,1.09,0,0,0,.9.33,1.25,1.25,0,0,0,1-.47,1.66,1.66,0,0,0,.37-1,1,1,0,0,0-.31-.77,1.16,1.16,0,0,0-.84-.3,1.36,1.36,0,0,0-1,.42,1.4,1.4,0,0,0-.4,1A1.27,1.27,0,0,0,54.7,409.25Zm-3.35,4.92a5.11,5.11,0,0,1,1.79-.91c.16,0,.24.09.24.26a23.46,23.46,0,0,1-.86,3.58c-.26.91-.43,1.55-.51,1.92a4.79,4.79,0,0,0-.12,1,1.19,1.19,0,0,0,.2.71.68.68,0,0,0,.59.27,2.3,2.3,0,0,0,.74-.15,9.27,9.27,0,0,0,1.42-.76q1-.61,1.71-1.08l0-.12-.23-.38h-.12a5.31,5.31,0,0,1-1.64.88.26.26,0,0,1-.2-.1.34.34,0,0,1-.09-.23,24,24,0,0,1,.89-3.53c.34-1.18.56-2,.67-2.41a4.52,4.52,0,0,0,.16-1.05.74.74,0,0,0-.18-.52.57.57,0,0,0-.44-.2,3.73,3.73,0,0,0-1.58.54A27.93,27.93,0,0,0,51,413.71l0,.12.2.33Z"/>
  <g>
    <polygon points="61 227 55.63 227 57.63 229 55 231.64 56.36 233 58.99 230.37 61 232.37 61 227"/>
    <polygon points="51.64 235 49.01 237.63 47 235.63 47 241 52.37 241 50.37 239 53 236.36 51.64 235"/>
  </g>
  <g>
    <polygon points="61 264.36 59.64 263 57.01 265.63 55 263.63 55 269 60.37 269 58.37 267 61 264.36"/>
    <polygon points="49.63 273 47 275.64 48.36 277 50.99 274.37 53 276.37 53 271 47.63 271 49.63 273"/>
  </g>
  <path d="M58.76,452.13a5.25,5.25,0,1,1-1.07-5.82h0l-2.82,2.82H61V443l-2.06,2.06h0a7,7,0,1,0,1.71,7.06Z"/>
  <path d="M54,301.45l1.19,2.66.23.51.55.07,2.87.38-2.15,2.12-.38.37.09.52.54,3-2.45-1.42-.5-.29-.5.29L51,311.05l.54-3,.09-.52-.38-.37-2.15-2.12,2.87-.38.55-.07.23-.51L54,301.45M54,299l-2.1,4.7-4.9.65,3.6,3.55-.93,5.1L54,310.5l4.33,2.5-.93-5.1,3.6-3.55-4.9-.65L54,299Z"/>
  <g>
    <polygon points="54 343.92 50.36 346.03 51.14 341.73 48.08 338.71 52.24 338.16 54 334.23 55.76 338.16 59.92 338.71 56.86 341.73 57.64 346.03 54 343.92" style="fill: #f3a914"/>
    <path d="M54,335.45l1.19,2.66.23.51.55.07,2.87.38-2.15,2.12-.38.37.09.52.54,3-2.45-1.42-.5-.29-.5.29L51,345.05l.54-3,.09-.52-.38-.37-2.15-2.12,2.87-.38.55-.07.23-.51L54,335.45M54,333l-2.1,4.7-4.9.65,3.6,3.55-.93,5.1L54,344.5l4.33,2.5-.93-5.1,3.6-3.55-4.9-.65L54,333Z" style="fill: #f3a914"/>
  </g>
  <g>
    <path d="M334,486a4,4,0,0,0-2-3.44v6.87A4,4,0,0,0,334,486Z" style="fill: #fff"/>
    <g>
      <polygon points="323 483.38 323 488.63 325.56 488.63 330 493 330 479 325.56 483.38 323 483.38" style="fill: #fff"/>
      <path d="M332,479.31v1.58a5.49,5.49,0,0,1,0,10.23v1.58a7,7,0,0,0,0-13.39Z" style="fill: #fff"/>
    </g>
  </g>
  <path d="M335.5,522a5.44,5.44,0,0,1-.13,1.14l1.22,1.22A6.91,6.91,0,0,0,337,522a7,7,0,0,0-5-6.69v1.58A5.49,5.49,0,0,1,335.5,522Zm-3.5-3.44v1.21l2,2A4,4,0,0,0,332,518.56Zm4.7,8.74-12-12-1.41,1.41,2.48,2.48-.2.2H323v5.25h2.56L330,529v-5.59l2,2v0h0l1.09,1.09a5.51,5.51,0,0,1-1.1.6v1.58a7,7,0,0,0,2.17-1.11l1.13,1.13,1.41-1.41h0ZM330,515l-1.4,1.38,1.4,1.4Z" style="fill: #fff"/>
  <path d="M330,565a2,2,0,0,0,2-2h-4A2,2,0,0,0,330,565Zm4-5.37v-3a4,4,0,0,0-3-3.86V552a1,1,0,0,0-2,0v.77a4,4,0,0,0-3,3.86v3l-2,2h12Z" style="fill: #fff"/>
  <path d="M334,592.63a4,4,0,0,0-3-3.86V588a1,1,0,0,0-2,0v.77h0l5,5ZM330,601a2,2,0,0,0,2-2h-4A2,2,0,0,0,330,601Zm7-1.41h0L324.39,587,323,588.4l3.16,3.16a4,4,0,0,0-.16,1.06v3l-2,2h8.22L335.6,601l1.4-1.4Z" style="fill: #fff"/>
  <path d="M336,628a2,2,0,1,0,2,2A2,2,0,0,0,336,628Zm-12,0a2,2,0,1,0,2,2A2,2,0,0,0,324,628Zm6,0a2,2,0,1,0,2,2A2,2,0,0,0,330,628Z" style="fill: #fff"/>
  <path d="M336.14,668,330,662l-6.14,6a1.16,1.16,0,0,0,0,1.68,1.24,1.24,0,0,0,1.73,0l4.42-4.3,4.42,4.3a1.24,1.24,0,0,0,1.73,0A1.16,1.16,0,0,0,336.14,668Z" style="fill: #fff"/>
  <path d="M323.86,700l6.14,6,6.14-6a1.16,1.16,0,0,0,0-1.68,1.25,1.25,0,0,0-1.73,0l-4.42,4.3-4.42-4.3a1.25,1.25,0,0,0-1.73,0A1.16,1.16,0,0,0,323.86,700Z" style="fill: #fff"/>
  <path d="M330,729a9,9,0,1,0,9,9A9,9,0,0,0,330,729Zm1,14h-2v-6h2Zm0-8h-2v-2h2Z" style="fill: #fff"/>
  <g>
    <rect x="329" y="811" width="2" height="2" style="fill: #fff"/>
    <rect x="325" y="811" width="2" height="2" style="fill: #fff"/>
    <rect x="325" y="807" width="2" height="2" style="fill: #fff"/>
    <rect x="333" y="807" width="2" height="2" style="fill: #fff"/>
    <rect x="333" y="811" width="2" height="2" style="fill: #fff"/>
    <rect x="329" y="807" width="2" height="2" style="fill: #fff"/>
  </g>
  <path d="M331,783v-2h2v2Zm0-6h2v2h-2Zm0-4h2v2h-2Zm0-4h2v2h-2Zm0-4h2v2h-2Zm-4,16h2v2h-2Zm0-4h2v2h-2Zm0-4h2v2h-2Zm0-4h2v2h-2Zm0-4h2v2h-2Z" style="fill: #fff"/>
  <path d="M335.77,841.74a.77.77,0,0,0-1.12,0l-6.51,6.78-2.79-2.9a.77.77,0,0,0-1.12,0,.84.84,0,0,0,0,1.16l3.35,3.49a.77.77,0,0,0,1.12,0l7.07-7.36A.84.84,0,0,0,335.77,841.74Z" style="fill: #fff"/>
  <path d="M373.5,837h-15a1.5,1.5,0,0,0-1.5,1.5v15a1.5,1.5,0,0,0,1.5,1.5h15a1.5,1.5,0,0,0,1.5-1.5v-15A1.5,1.5,0,0,0,373.5,837Zm-.5,16H359V841h14Zm-10-9h-2v2h2Zm8,0h-2v2h2Zm-4,0h-2v2h2Zm0,4h-2v2h2Zm-4,0h-2v2h2Zm8,0h-2v2h2Z" style="fill: #fff"/>
  <path d="M370.79,807.22l-2.19,2.18-2-2,2.19-2.18a3.4,3.4,0,0,0-4.3,4.55L361,813.23l1.77,1.77,3.48-3.48a3.4,3.4,0,0,0,4.54-4.3Z" style="fill: #fff"/>
  <path d="M367,777v-5.21a2.5,2.5,0,1,0-2,0V777h-3l4,4,4-4Z" style="fill: #fff"/>
  <path d="M365,735v5.21a2.5,2.5,0,1,0,2,0V735h3l-4-4-4,4Z" style="fill: #fff"/>
  <path d="M373.68,695.71a1,1,0,0,0-1.54,0l-8.45,8.91-3.84-4.05a1,1,0,0,0-1.53,0,1.18,1.18,0,0,0,0,1.62l4.6,4.86a1.07,1.07,0,0,0,1.55,0l9.21-9.71A1.19,1.19,0,0,0,373.68,695.71Z" style="fill: #fff"/>
  <path d="M365,671h2v-6h-2Zm0-10v2h2v-2Z"/>
  <path d="M371.11,630l1.89-.47a7.09,7.09,0,0,0-1-2.4l-1.66,1-1.45-1.45,1-1.66a7.13,7.13,0,0,0-2.4-1l-.47,1.89h-2L364.5,624a7.14,7.14,0,0,0-2.4,1l1,1.66-1.45,1.45-1.66-1a7.06,7.06,0,0,0-1,2.4l1.89.47v2l-1.89.47a7.07,7.07,0,0,0,1,2.4l1.66-1,1.45,1.45-1,1.66a7.06,7.06,0,0,0,2.4,1l.47-1.89h2l.47,1.89a7,7,0,0,0,2.4-1l-1-1.66,1.45-1.45,1.66,1a7.11,7.11,0,0,0,1-2.4l-1.89-.47ZM366,633a2,2,0,1,1,2-2A2,2,0,0,1,366,633Z" style="fill: #fff"/>
  <path d="M368,588v-1h-4v1h-4v2h12v-2Zm-7,11.5a1.5,1.5,0,0,0,1.5,1.5h7a1.5,1.5,0,0,0,1.5-1.5V591H361Zm6.25-6.5h1.5v6h-1.5Zm-4,0h1.5v6h-1.5Z" style="fill: #fff"/>
  <path id="b5d9620c-ab3e-4d3d-a82c-3875206f5031" data-name="path4237-4" d="M410,695.86,404,702l6,6.14a1.16,1.16,0,0,0,1.68,0,1.25,1.25,0,0,0,0-1.73l-4.3-4.42,4.3-4.42a1.25,1.25,0,0,0,0-1.73A1.16,1.16,0,0,0,410,695.86Z" style="fill: #fff"/>
  <path id="0fe7bbc5-6767-4dbc-964a-fa23b81674bc" data-name="path4237-4-1" d="M410,729.36l-6,6.14,6,6.14a1.16,1.16,0,0,0,1.68,0,1.25,1.25,0,0,0,0-1.73l-4.3-4.42,4.3-4.42a1.25,1.25,0,0,0,0-1.73A1.16,1.16,0,0,0,410,729.36Z"/>
  <g>
    <circle cx="135.5" cy="256.5" r="12.5" style="opacity: 0.30000000000000004"/>
    <circle cx="135.5" cy="256.5" r="9.27" style="fill: #fff"/>
    <path d="M141.62,252.74a.77.77,0,0,0-1.12,0L134,259.52l-2.79-2.9a.77.77,0,0,0-1.12,0,.84.84,0,0,0,0,1.16l3.35,3.49a.77.77,0,0,0,1.12,0l7.07-7.36A.84.84,0,0,0,141.62,252.74Z"/>
  </g>
  <path id="f6088205-1d8e-47a0-9792-033f16fb042e" data-name="path4209" d="M52.88,565.13h2v-14h-2Zm-6-6h14v-2h-14Z" style="fill: #768d99"/>
  <g id="d2fa47e6-a1ae-4693-9278-7c915ddf058f" data-name="g4365">
    <g id="c0e76274-8fc4-4e6e-ae57-aa16c921fccc" data-name="g4367">
      <path id="dd730c50-4667-4514-b3f8-ca78a50abc5d" data-name="path4369" d="M55,524.25H49.38v1.38H55Zm0-3.12H49.38v1.38H55Zm-4.75-6v2.75H46.88v11H57.5v-2.75h3.38v-11Zm5.63,12.07H48.5v-7.7h7.38Zm3.32-2.75H57.5v-6.57H51.88V517h7.32Z" style="fill: #768d99"/>
    </g>
  </g>
  <g id="0d1af4ee-26d4-4c35-bfae-c00027023fee" data-name="g4375">
    <path id="a8ecf34e-0f6c-409b-8be8-7504dfbd4e26" data-name="path4377" d="M57.27,480.45l1.65,1.64-5.79,5.79-1.64-1.64Zm3.38-1.2-.38-.37a1,1,0,0,0-1.43,0l-1,1,1.65,1.64,1.14-1.14a.78.78,0,0,0,0-1.11M50,489.17a.26.26,0,0,0,.31.31l2.1-1.08-1.56-1.54Z" style="fill: #768d99"/>
  </g>
  <g id="b37cd8ab-1846-4fa7-83b3-5c3b36e04b12" data-name="g4383">
    <rect id="dd97da14-fbbf-4c41-beca-f15be826034b" data-name="rect4385" x="46.88" y="490.75" width="14" height="2" style="fill: #768d99"/>
  </g>
  <path id="c1939c11-6e09-403a-8292-cadfb7aa9862" data-name="path4209" d="M211.88,565.13h2v-14h-2Zm-6-6h14v-2h-14Z"/>
  <g id="e12e878b-8cc5-42b4-b44c-63d20db63c9f" data-name="g4365">
    <g id="75efd40d-5211-4fd1-9909-6c11e3449c14" data-name="g4367">
      <path id="77786fc2-57ad-4ca8-98fe-e5570ea00e3f" data-name="path4369" d="M214,524.25h-5.62v1.38H214Zm0-3.12h-5.62v1.38H214Zm-4.75-6v2.75h-3.37v11H216.5v-2.75h3.38v-11Zm5.63,12.07H207.5v-7.7h7.38Zm3.32-2.75H216.5v-6.57h-5.62V517h7.32Z"/>
    </g>
  </g>
  <g id="5d273cd6-3b23-4092-9d0c-4f868c958b06" data-name="g4375">
    <path id="f5b40502-7f68-49af-99f2-1749b286d561" data-name="path4377" d="M216.27,480.45l1.65,1.64-5.79,5.79-1.64-1.64Zm3.38-1.2-.38-.37a1,1,0,0,0-1.43,0l-1,1,1.65,1.64,1.14-1.14a.78.78,0,0,0,0-1.11M209,489.17a.26.26,0,0,0,.31.31l2.1-1.08-1.56-1.54Z"/>
  </g>
  <g id="c06b0025-0fe9-4e50-a34e-9a0a1ecc8dff" data-name="g4383">
    <rect id="7170ccde-46e2-4e00-928b-fc5780affdbf" data-name="rect4385" x="205.88" y="490.75" width="14" height="2"/>
  </g>
  <path id="58b26536-dd1d-423d-9e47-4b943fc8b602" data-name="path4209" d="M364.88,565.13h2v-14h-2Zm-6-6h14v-2h-14Z" style="fill: #fff"/>
  <g id="d6d59d0f-8643-4f7c-9ba5-48a17641325c" data-name="g4365">
    <g id="7568cc6b-1cf2-44bb-94ec-7854579bab4c" data-name="g4367">
      <path id="60927f6c-5e30-4b8b-b43f-f350d2d6c840" data-name="path4369" d="M367,524.25h-5.62v1.38H367Zm0-3.12h-5.62v1.38H367Zm-4.75-6v2.75h-3.37v11H369.5v-2.75h3.38v-11Zm5.63,12.07H360.5v-7.7h7.38Zm3.32-2.75H369.5v-6.57h-5.62V517h7.32Z" style="fill: #fff"/>
    </g>
  </g>
  <g id="c7a85e6c-53de-4d17-a232-011787c20973" data-name="g4375">
    <path id="675819ec-17cb-40da-9b57-012bc0cb2764" data-name="path4377" d="M369.27,480.45l1.65,1.64-5.79,5.79-1.64-1.64Zm3.38-1.2-.38-.37a1,1,0,0,0-1.43,0l-1,1,1.65,1.64,1.14-1.14a.78.78,0,0,0,0-1.11M362,489.17a.26.26,0,0,0,.31.31l2.1-1.08-1.56-1.54Z" style="fill: #fff"/>
  </g>
  <g id="2d08be0d-ba4d-4443-afc3-ff8a5316c2ac" data-name="g4383">
    <rect id="fbf29e67-3e54-45fb-b513-f682bc7ed007" data-name="rect4385" x="358.88" y="490.75" width="14" height="2" style="fill: #fff"/>
  </g>
</svg>
