<svg id="58a6d248-a6d5-4208-862d-514650772ef6" data-name="Layer 1" xmlns="http://www.w3.org/2000/svg" width="424" height="935" viewBox="0 0 424 935">
  <defs>
    <style>
      .\30 789eb36-21d0-4eae-b05a-50af8118a218, .\31 8786cd9-6dc7-4241-b0bc-196ca0e0b66d {
        fill: #fff;
      }

      .\38 003d4ca-c78e-4108-b720-717a9609a63f {
        fill: #3c5563;
      }

      .bc99b27f-275e-437e-8cd6-ced61ce43153 {
        fill: #768d99;
      }

      .\38 bf71c8a-6ebe-4cc6-a426-f3b558cac1ca {
        fill: #acbbc2;
      }

      .b585c22d-c10a-4440-88ff-e2b4d94c1fa0 {
        fill: #d40000;
      }

      .b5ff4b46-7778-4185-9209-62e322069b7a {
        fill: #f3a914;
      }

      .\31 6b081af-233d-4832-ae6e-c799cace00d6 {
        fill: #0275b8;
      }

      .\37 2ceb99a-bec4-4f05-bd5e-03b05d015254 {
        opacity: 0.3;
      }

      .\31 8786cd9-6dc7-4241-b0bc-196ca0e0b66d, .ffe02a8f-c2bb-4f0c-a22b-162af482b76d {
        fill-opacity: 0.9;
      }
    </style>
  </defs>
  <title>icons-sprite.aiaaaaaa</title>
  <rect class="0789eb36-21d0-4eae-b05a-50af8118a218" y="903" width="95" height="25"/>
  <rect class="0789eb36-21d0-4eae-b05a-50af8118a218" y="864" width="114" height="30"/>
  <path class="8003d4ca-c78e-4108-b720-717a9609a63f" d="M20.91,19.85l-.26.27-.73-.73a4.5,4.5,0,1,0-.53.53l.73.73-.27.26L22.94,24,24,22.94Zm-6.53-1.23a3,3,0,1,1,4.24,0A3,3,0,0,1,14.38,18.62Z"/>
  <path class="8003d4ca-c78e-4108-b720-717a9609a63f" d="M18.39,56.56a4.13,4.13,0,0,1-.18-.48,2.08,2.08,0,0,1-.09-.63,1.43,1.43,0,0,1,.21-.76,3.56,3.56,0,0,1,.54-.66q.31-.31.69-.63a4.37,4.37,0,0,0,.69-.73,3.71,3.71,0,0,0,.54-.9A2.75,2.75,0,0,0,21,50.66a2.54,2.54,0,0,0-.25-1.16,2.31,2.31,0,0,0-.7-.82,3,3,0,0,0-1-.51A4.53,4.53,0,0,0,17.78,48a5.44,5.44,0,0,0-2.78.78v1.88a3.31,3.31,0,0,1,2.32-1.08,2.63,2.63,0,0,1,.7.09,1.78,1.78,0,0,1,.59.27,1.36,1.36,0,0,1,.41.45,1.47,1.47,0,0,1,.14.64,1.41,1.41,0,0,1-.2.75,3.36,3.36,0,0,1-.49.65c-.2.21-.42.42-.65.63a8.08,8.08,0,0,0-.64.68,3.38,3.38,0,0,0-.5.75,2,2,0,0,0-.2.9,3.47,3.47,0,0,0,.06.64,2.41,2.41,0,0,0,.13.53Zm0,3.12a1,1,0,0,0,.34-.76,1,1,0,0,0-.34-.76,1.13,1.13,0,0,0-.81-.33,1.18,1.18,0,0,0-.83.33,1,1,0,0,0-.34.76,1,1,0,0,0,.34.76,1.23,1.23,0,0,0,.83.32,1.2,1.2,0,0,0,.81-.32Z"/>
  <path class="8003d4ca-c78e-4108-b720-717a9609a63f" d="M18,128a9.48,9.48,0,0,0-6,2.13V132H24v-1.87A9.48,9.48,0,0,0,18,128Zm0-2a3,3,0,1,0-3-3A3,3,0,0,0,18,126Z"/>
  <path class="0789eb36-21d0-4eae-b05a-50af8118a218" d="M24.89,193.23l-2,2-2.12-2.12,2-2A3.25,3.25,0,0,0,22,191a3,3,0,0,0-3,3,3.25,3.25,0,0,0,.11.77l-4.34,4.34A2.81,2.81,0,0,0,14,199a3,3,0,0,0-3,3,3.25,3.25,0,0,0,.11.77l2-2,2.12,2.12-2,2A3.25,3.25,0,0,0,14,205a3,3,0,0,0,3-3,3.25,3.25,0,0,0-.11-.77l4.34-4.34A2.81,2.81,0,0,0,22,197a3,3,0,0,0,3-3A3.25,3.25,0,0,0,24.89,193.23Z"/>
  <path class="0789eb36-21d0-4eae-b05a-50af8118a218" d="M11,372v2H25v-2Zm0,7H25v-2H11Zm0,5H25v-2H11Z"/>
  <path class="0789eb36-21d0-4eae-b05a-50af8118a218" d="M18.7,409.25a1.06,1.06,0,0,0,.89.34,1.26,1.26,0,0,0,1-.47,1.64,1.64,0,0,0,.37-1.05,1,1,0,0,0-.31-.77,1.14,1.14,0,0,0-.84-.3,1.36,1.36,0,0,0-1,.42,1.41,1.41,0,0,0-.4,1A1.34,1.34,0,0,0,18.7,409.25Zm-3.35,4.92a5,5,0,0,1,1.78-.91q.24,0,.24.27a24,24,0,0,1-.86,3.58q-.39,1.36-.51,1.92a4.59,4.59,0,0,0-.12,1,1.22,1.22,0,0,0,.2.71.68.68,0,0,0,.59.27,2.36,2.36,0,0,0,.75-.15,10.21,10.21,0,0,0,1.42-.76c.66-.41,1.23-.77,1.71-1.09l0-.12-.22-.38h-.13a5.14,5.14,0,0,1-1.64.88.26.26,0,0,1-.2-.1.32.32,0,0,1-.09-.23,24,24,0,0,1,.9-3.53c.34-1.18.56-2,.67-2.41a4.79,4.79,0,0,0,.16-1.05.73.73,0,0,0-.19-.52.59.59,0,0,0-.44-.2,3.71,3.71,0,0,0-1.57.54A25.79,25.79,0,0,0,15,413.71l0,.12.2.33Z"/>
  <g>
    <path class="bc99b27f-275e-437e-8cd6-ced61ce43153" d="M22,486a4,4,0,0,0-2-3.44v6.88A4,4,0,0,0,22,486Z"/>
    <g>
      <polygon class="bc99b27f-275e-437e-8cd6-ced61ce43153" points="11 483.38 11 488.63 13.56 488.63 18 493 18 479 13.56 483.38 11 483.38"/>
      <path class="bc99b27f-275e-437e-8cd6-ced61ce43153" d="M20,479.31v1.58a5.48,5.48,0,0,1,0,10.22v1.58a7,7,0,0,0,0-13.38Z"/>
    </g>
  </g>
  <path class="bc99b27f-275e-437e-8cd6-ced61ce43153" d="M23.5,522a6.12,6.12,0,0,1-.13,1.14l1.21,1.21A6.75,6.75,0,0,0,25,522a7,7,0,0,0-5-6.69v1.58A5.48,5.48,0,0,1,23.5,522ZM20,518.56v1.21l2,2A4,4,0,0,0,20,518.56Zm4.7,8.74-12-12-1.41,1.41,2.48,2.47-.2.21H11v5.25h2.56L18,529v-5.59l2,2v0h0l1.09,1.08a4.88,4.88,0,0,1-1.1.6v1.58a6.84,6.84,0,0,0,2.17-1.1l1.13,1.13,1.42-1.42h0ZM18,515l-1.4,1.38,1.4,1.39Z"/>
  <path class="bc99b27f-275e-437e-8cd6-ced61ce43153" d="M18,565a2,2,0,0,0,2-2H16A2,2,0,0,0,18,565Zm4-5.37v-3a4,4,0,0,0-3-3.86V552a1,1,0,0,0-2,0v.77a4,4,0,0,0-3,3.86v3l-2,2H24Z"/>
  <path class="bc99b27f-275e-437e-8cd6-ced61ce43153" d="M22,592.63a4,4,0,0,0-3-3.86V588a1,1,0,0,0-2,0v.77h0l5,5ZM18,601a2,2,0,0,0,2-2H16A2,2,0,0,0,18,601Zm7-1.41h0L12.39,587,11,588.4l3.16,3.16a3.74,3.74,0,0,0-.16,1.07v3l-2,2h8.22L23.6,601l1.4-1.4Z"/>
  <path class="bc99b27f-275e-437e-8cd6-ced61ce43153" d="M24,628a2,2,0,1,0,2,2A2,2,0,0,0,24,628Zm-12,0a2,2,0,1,0,2,2A2,2,0,0,0,12,628Zm6,0a2,2,0,1,0,2,2A2,2,0,0,0,18,628Z"/>
  <path class="bc99b27f-275e-437e-8cd6-ced61ce43153" d="M24.14,668,18,662l-6.14,6a1.16,1.16,0,0,0,0,1.68,1.23,1.23,0,0,0,1.72,0L18,665.36l4.42,4.29a1.23,1.23,0,0,0,1.72,0A1.16,1.16,0,0,0,24.14,668Z"/>
  <path class="bc99b27f-275e-437e-8cd6-ced61ce43153" d="M11.86,700,18,706l6.14-6a1.16,1.16,0,0,0,0-1.68,1.23,1.23,0,0,0-1.72,0L18,702.64l-4.42-4.29a1.23,1.23,0,0,0-1.72,0A1.16,1.16,0,0,0,11.86,700Z"/>
  <path class="8bf71c8a-6ebe-4cc6-a426-f3b558cac1ca" d="M18,729a9,9,0,1,0,9,9A9,9,0,0,0,18,729Zm1,14H17v-6h2Zm0-8H17v-2h2Z"/>
  <g>
    <rect class="8bf71c8a-6ebe-4cc6-a426-f3b558cac1ca" x="17" y="811" width="2" height="2"/>
    <rect class="8bf71c8a-6ebe-4cc6-a426-f3b558cac1ca" x="13" y="811" width="2" height="2"/>
    <rect class="8bf71c8a-6ebe-4cc6-a426-f3b558cac1ca" x="13" y="807" width="2" height="2"/>
    <rect class="8bf71c8a-6ebe-4cc6-a426-f3b558cac1ca" x="21" y="807" width="2" height="2"/>
    <rect class="8bf71c8a-6ebe-4cc6-a426-f3b558cac1ca" x="21" y="811" width="2" height="2"/>
    <rect class="8bf71c8a-6ebe-4cc6-a426-f3b558cac1ca" x="17" y="807" width="2" height="2"/>
  </g>
  <path class="8bf71c8a-6ebe-4cc6-a426-f3b558cac1ca" d="M19,783v-2h2v2Zm0-6h2v2H19Zm0-4h2v2H19Zm0-4h2v2H19Zm0-4h2v2H19Zm-4,16h2v2H15Zm0-4h2v2H15Zm0-4h2v2H15Zm0-4h2v2H15Zm0-4h2v2H15Z"/>
  <path class="bc99b27f-275e-437e-8cd6-ced61ce43153" d="M23.77,841.74a.77.77,0,0,0-1.12,0l-6.51,6.78-2.79-2.91a.77.77,0,0,0-1.12,0,.84.84,0,0,0,0,1.16l3.35,3.49a.77.77,0,0,0,1.12,0l7.07-7.36A.84.84,0,0,0,23.77,841.74Z"/>
  <g>
    <path class="b585c22d-c10a-4440-88ff-e2b4d94c1fa0" d="M57,876.4a3.25,3.25,0,0,0,0-4.73,5.07,5.07,0,0,0-3.1-.78h-4.2v6.29h4.2A5.07,5.07,0,0,0,57,876.4Z"/>
    <path class="b585c22d-c10a-4440-88ff-e2b4d94c1fa0" d="M54.27,879.47H49.72v7.64h4.55a5.21,5.21,0,0,0,3.4-.94,3.62,3.62,0,0,0,1.1-2.89,3.57,3.57,0,0,0-1.1-2.88A5.21,5.21,0,0,0,54.27,879.47Z"/>
    <path class="b585c22d-c10a-4440-88ff-e2b4d94c1fa0" d="M76.08,876.4a3.25,3.25,0,0,0,0-4.73,5.09,5.09,0,0,0-3.1-.78H68.77v6.29H73A5.09,5.09,0,0,0,76.08,876.4Z"/>
    <polygon class="b585c22d-c10a-4440-88ff-e2b4d94c1fa0" points="30.28 881.73 37.99 881.73 34.13 871.35 30.28 881.73"/>
    <path class="b585c22d-c10a-4440-88ff-e2b4d94c1fa0" d="M0,864v30H114V864Zm21.68,25.43H4.55v-2.15L17.82,871H4.87v-2.38H21.36v2.15L8.09,887.05H21.68Zm19.11,0-1.91-5.35H29.42l-1.91,5.35h-3l8-20.86h3.22l8,20.86Zm19.06-1.52a8.57,8.57,0,0,1-5.44,1.52H46.88V868.57h7.25a8.18,8.18,0,0,1,5,1.34,4.52,4.52,0,0,1,1.75,3.82,4.74,4.74,0,0,1-.9,3,4,4,0,0,1-2.64,1.41,5.55,5.55,0,0,1,3.26,1.87,5.4,5.4,0,0,1,1.15,3.54A5.2,5.2,0,0,1,59.85,887.91Zm19.06,0a8.59,8.59,0,0,1-5.44,1.52H65.94V868.57h7.25a8.13,8.13,0,0,1,5,1.34A4.52,4.52,0,0,1,80,873.73a4.74,4.74,0,0,1-.9,3,4,4,0,0,1-2.64,1.41,5.56,5.56,0,0,1,3.25,1.87,5.41,5.41,0,0,1,1.16,3.54A5.23,5.23,0,0,1,78.91,887.91Zm9.25,1.52H85.33V868.57h2.83Zm18.17,0-5.75-8.73-5.81,8.73h-3l7.32-11-6.49-9.85h3.12l4.93,7.49,5-7.49h3l-6.5,9.77,7.31,11.09Z"/>
    <path class="b585c22d-c10a-4440-88ff-e2b4d94c1fa0" d="M73.33,879.47H68.77v7.64h4.56a5.16,5.16,0,0,0,3.39-.94,3.6,3.6,0,0,0,1.11-2.89,3.55,3.55,0,0,0-1.11-2.88A5.16,5.16,0,0,0,73.33,879.47Z"/>
    <polygon class="0789eb36-21d0-4eae-b05a-50af8118a218" points="108.64 868.57 105.63 868.57 100.64 876.06 95.71 868.57 92.59 868.57 99.08 878.42 91.76 889.43 94.77 889.43 100.58 880.7 106.33 889.43 109.45 889.43 102.14 878.34 108.64 868.57"/>
    <polygon class="0789eb36-21d0-4eae-b05a-50af8118a218" points="21.36 870.72 21.36 868.57 4.87 868.57 4.87 870.95 17.82 870.95 4.55 887.28 4.55 889.43 21.68 889.43 21.68 887.05 8.09 887.05 21.36 870.72"/>
    <path class="0789eb36-21d0-4eae-b05a-50af8118a218" d="M32.53,868.57l-8,20.86h3l1.91-5.35h9.46l1.91,5.35h3l-8-20.86Zm-2.25,13.16,3.85-10.38L38,881.73Z"/>
    <path class="0789eb36-21d0-4eae-b05a-50af8118a218" d="M57.35,878.18A4,4,0,0,0,60,876.77a4.74,4.74,0,0,0,.9-3,4.52,4.52,0,0,0-1.75-3.82,8.18,8.18,0,0,0-5-1.34H46.88v20.86h7.53a8.57,8.57,0,0,0,5.44-1.52,5.2,5.2,0,0,0,1.91-4.32,5.4,5.4,0,0,0-1.15-3.54A5.55,5.55,0,0,0,57.35,878.18Zm-7.63-7.29h4.2a5.07,5.07,0,0,1,3.1.78,3.25,3.25,0,0,1,0,4.73,5.07,5.07,0,0,1-3.1.78h-4.2Zm8,15.28a5.21,5.21,0,0,1-3.4.94H49.72v-7.64h4.55a5.21,5.21,0,0,1,3.4.93,3.57,3.57,0,0,1,1.1,2.88A3.62,3.62,0,0,1,57.67,886.17Z"/>
    <rect class="0789eb36-21d0-4eae-b05a-50af8118a218" x="85.33" y="868.57" width="2.84" height="20.85"/>
    <path class="0789eb36-21d0-4eae-b05a-50af8118a218" d="M76.41,878.18a4,4,0,0,0,2.64-1.41,4.74,4.74,0,0,0,.9-3,4.52,4.52,0,0,0-1.76-3.82,8.13,8.13,0,0,0-5-1.34H65.94v20.86h7.53a8.59,8.59,0,0,0,5.44-1.52,5.23,5.23,0,0,0,1.91-4.32,5.41,5.41,0,0,0-1.16-3.54A5.56,5.56,0,0,0,76.41,878.18Zm-7.64-7.29H73a5.09,5.09,0,0,1,3.1.78,3.25,3.25,0,0,1,0,4.73,5.09,5.09,0,0,1-3.1.78H68.77Zm8,15.28a5.16,5.16,0,0,1-3.39.94H68.77v-7.64h4.56a5.16,5.16,0,0,1,3.39.93,3.55,3.55,0,0,1,1.11,2.88A3.6,3.6,0,0,1,76.72,886.17Z"/>
  </g>
  <g>
    <path class="b585c22d-c10a-4440-88ff-e2b4d94c1fa0" d="M47.52,913.34a2.36,2.36,0,0,0,.84-2,2.33,2.33,0,0,0-.84-2,4.27,4.27,0,0,0-2.59-.65h-3.5V914h3.5A4.35,4.35,0,0,0,47.52,913.34Z"/>
    <path class="b585c22d-c10a-4440-88ff-e2b4d94c1fa0" d="M45.23,915.89h-3.8v6.36h3.8a4.33,4.33,0,0,0,2.83-.78,3,3,0,0,0,.91-2.4,3,3,0,0,0-.91-2.4A4.27,4.27,0,0,0,45.23,915.89Z"/>
    <path class="b585c22d-c10a-4440-88ff-e2b4d94c1fa0" d="M63.4,913.34a2.37,2.37,0,0,0,.85-2,2.34,2.34,0,0,0-.85-2,4.27,4.27,0,0,0-2.59-.65h-3.5V914h3.5A4.35,4.35,0,0,0,63.4,913.34Z"/>
    <polygon class="b585c22d-c10a-4440-88ff-e2b4d94c1fa0" points="25.23 917.78 31.66 917.78 28.44 909.13 25.23 917.78"/>
    <path class="b585c22d-c10a-4440-88ff-e2b4d94c1fa0" d="M0,903v25H95V903Zm18.07,21.2H3.79v-1.8l11.06-13.6H4.06v-2H17.8v1.8l-11,13.6H18.07Zm15.92,0-1.59-4.46H24.51l-1.58,4.46h-2.5l6.68-17.39h2.68l6.66,17.39Zm15.89-1.28a7.17,7.17,0,0,1-4.54,1.28H39.07V906.81h6a6.7,6.7,0,0,1,4.17,1.12,3.74,3.74,0,0,1,1.46,3.18,4,4,0,0,1-.75,2.53,3.43,3.43,0,0,1-2.19,1.19,4.32,4.32,0,0,1,3.67,4.49A4.35,4.35,0,0,1,49.88,922.92Zm15.87,0a7.14,7.14,0,0,1-4.53,1.28H55V906.81h6a6.74,6.74,0,0,1,4.17,1.12,3.77,3.77,0,0,1,1.47,3.18,4,4,0,0,1-.75,2.53,3.45,3.45,0,0,1-2.21,1.19,4.54,4.54,0,0,1,2.71,1.54,4.48,4.48,0,0,1,1,3A4.33,4.33,0,0,1,65.75,922.92Zm7.72,1.28H71.1V906.81h2.37Zm15.14,0-4.8-7.28L79,924.2H76.47L82.56,915l-5.4-8.2h2.6l4.11,6.25L88,906.81h2.51L85.12,915l6.09,9.25Z"/>
    <path class="b585c22d-c10a-4440-88ff-e2b4d94c1fa0" d="M61.11,915.89h-3.8v6.36h3.8a4.33,4.33,0,0,0,2.83-.78,3,3,0,0,0,.92-2.4,3,3,0,0,0-.92-2.4A4.27,4.27,0,0,0,61.11,915.89Z"/>
    <polygon class="0789eb36-21d0-4eae-b05a-50af8118a218" points="90.53 906.81 88.02 906.81 83.87 913.06 79.76 906.81 77.16 906.81 82.56 915.01 76.47 924.2 78.97 924.2 83.81 916.91 88.61 924.2 91.21 924.2 85.12 914.95 90.53 906.81"/>
    <polygon class="0789eb36-21d0-4eae-b05a-50af8118a218" points="17.8 908.61 17.8 906.81 4.06 906.81 4.06 908.8 14.85 908.8 3.79 922.4 3.79 924.2 18.07 924.2 18.07 922.21 6.75 922.21 17.8 908.61"/>
    <path class="0789eb36-21d0-4eae-b05a-50af8118a218" d="M27.11,906.81,20.43,924.2h2.5l1.58-4.46H32.4L34,924.2h2.46l-6.66-17.39Zm-1.88,11,3.21-8.65,3.22,8.65Z"/>
    <path class="0789eb36-21d0-4eae-b05a-50af8118a218" d="M47.8,914.83A3.43,3.43,0,0,0,50,913.64a4,4,0,0,0,.75-2.53,3.74,3.74,0,0,0-1.46-3.18,6.7,6.7,0,0,0-4.17-1.12h-6V924.2h6.27a7.17,7.17,0,0,0,4.54-1.28,4.35,4.35,0,0,0,1.59-3.6,4.32,4.32,0,0,0-3.67-4.49Zm-6.37-6.09h3.5a4.27,4.27,0,0,1,2.59.65,2.33,2.33,0,0,1,.84,2,2.36,2.36,0,0,1-.84,2,4.35,4.35,0,0,1-2.59.65h-3.5Zm6.63,12.73a4.33,4.33,0,0,1-2.83.78h-3.8v-6.36h3.8a4.27,4.27,0,0,1,2.83.78,3,3,0,0,1,.91,2.4A3,3,0,0,1,48.06,921.47Z"/>
    <rect class="0789eb36-21d0-4eae-b05a-50af8118a218" x="71.1" y="906.81" width="2.36" height="17.38"/>
    <path class="0789eb36-21d0-4eae-b05a-50af8118a218" d="M63.67,914.83a3.45,3.45,0,0,0,2.21-1.19,4,4,0,0,0,.75-2.53,3.77,3.77,0,0,0-1.47-3.18A6.74,6.74,0,0,0,61,906.81H55V924.2h6.27a7.14,7.14,0,0,0,4.53-1.28,4.33,4.33,0,0,0,1.6-3.6,4.48,4.48,0,0,0-1-3A4.54,4.54,0,0,0,63.67,914.83Zm-6.36-6.09h3.5a4.27,4.27,0,0,1,2.59.65,2.34,2.34,0,0,1,.85,2,2.37,2.37,0,0,1-.85,2,4.35,4.35,0,0,1-2.59.65h-3.5Zm6.63,12.73a4.33,4.33,0,0,1-2.83.78h-3.8v-6.36h3.8a4.27,4.27,0,0,1,2.83.78,3,3,0,0,1,.92,2.4A3,3,0,0,1,63.94,921.47Z"/>
  </g>
  <path class="8003d4ca-c78e-4108-b720-717a9609a63f" d="M23,84H13a1,1,0,0,0-1,1V95a1,1,0,0,0,1,1H23a1,1,0,0,0,1-1V85A1,1,0,0,0,23,84Zm-2,9.82H15V92.59l3.54-4.82H15.19V86.18H20.9v1.35l-3.45,4.7H21Z"/>
  <g>
    <polygon class="0789eb36-21d0-4eae-b05a-50af8118a218" points="25 227 19.63 227 21.63 229 19 231.64 20.36 233 22.99 230.37 25 232.37 25 227"/>
    <polygon class="0789eb36-21d0-4eae-b05a-50af8118a218" points="15.64 235 13.01 237.63 11 235.63 11 241 16.37 241 14.37 239 17 236.36 15.64 235"/>
  </g>
  <g>
    <polygon class="0789eb36-21d0-4eae-b05a-50af8118a218" points="25 264.36 23.64 263 21.01 265.63 19 263.63 19 269 24.37 269 22.37 267 25 264.36"/>
    <polygon class="0789eb36-21d0-4eae-b05a-50af8118a218" points="13.63 273 11 275.64 12.36 277 14.99 274.37 17 276.37 17 271 11.63 271 13.63 273"/>
  </g>
  <path class="8003d4ca-c78e-4108-b720-717a9609a63f" d="M22.35,158.06l-1.06,1.07a4.31,4.31,0,0,1,1.21,3,4.5,4.5,0,0,1-9,0,4.31,4.31,0,0,1,1.21-3l-1.06-1.06a5.77,5.77,0,0,0-1.65,4,6,6,0,0,0,12,0A5.81,5.81,0,0,0,22.35,158.06ZM19,156H17v6h2Z"/>
  <path class="0789eb36-21d0-4eae-b05a-50af8118a218" d="M96.39,56.56a4.13,4.13,0,0,1-.18-.48,2.08,2.08,0,0,1-.09-.63,1.43,1.43,0,0,1,.21-.76,3.56,3.56,0,0,1,.54-.66q.31-.31.69-.63a4.37,4.37,0,0,0,.69-.73,3.71,3.71,0,0,0,.54-.9A2.75,2.75,0,0,0,99,50.66a2.54,2.54,0,0,0-.25-1.16,2.31,2.31,0,0,0-.7-.82,3,3,0,0,0-1-.51A4.53,4.53,0,0,0,95.78,48a5.44,5.44,0,0,0-2.78.78v1.88a3.31,3.31,0,0,1,2.32-1.08,2.63,2.63,0,0,1,.7.09,1.78,1.78,0,0,1,.59.27,1.36,1.36,0,0,1,.41.45,1.47,1.47,0,0,1,.14.64,1.41,1.41,0,0,1-.2.75,3.36,3.36,0,0,1-.49.65c-.2.21-.42.42-.65.63a8.08,8.08,0,0,0-.64.68,3.38,3.38,0,0,0-.5.75,2,2,0,0,0-.2.9,3.47,3.47,0,0,0,.06.64,2.41,2.41,0,0,0,.13.53Zm0,3.12a1,1,0,0,0,.34-.76,1,1,0,0,0-.34-.76,1.13,1.13,0,0,0-.81-.33,1.18,1.18,0,0,0-.83.33,1,1,0,0,0-.34.76,1,1,0,0,0,.34.76,1.23,1.23,0,0,0,.83.32,1.2,1.2,0,0,0,.81-.32Z"/>
  <path class="0789eb36-21d0-4eae-b05a-50af8118a218" d="M96,128a9.48,9.48,0,0,0-6,2.13V132h12v-1.87A9.48,9.48,0,0,0,96,128Zm0-2a3,3,0,1,0-3-3A3,3,0,0,0,96,126Z"/>
  <path class="0789eb36-21d0-4eae-b05a-50af8118a218" d="M101,84H91a1,1,0,0,0-1,1V95a1,1,0,0,0,1,1h10a1,1,0,0,0,1-1V85A1,1,0,0,0,101,84Zm-2,9.82H93V92.59l3.54-4.82H93.19V86.18H98.9v1.35l-3.45,4.7H99Z"/>
  <path class="0789eb36-21d0-4eae-b05a-50af8118a218" d="M100.35,158.06l-1.06,1.07a4.31,4.31,0,0,1,1.21,3,4.5,4.5,0,0,1-9,0,4.31,4.31,0,0,1,1.21-3l-1.06-1.06a5.77,5.77,0,0,0-1.65,4,6,6,0,0,0,12,0A5.81,5.81,0,0,0,100.35,158.06ZM97,156H95v6h2Z"/>
  <path class="0789eb36-21d0-4eae-b05a-50af8118a218" d="M22.76,452.13A5.23,5.23,0,1,1,18,444.75a5.14,5.14,0,0,1,3.69,1.56h0l-2.82,2.82H25V443l-2.06,2.06h0a7,7,0,1,0,1.71,7.06Z"/>
  <path class="8bf71c8a-6ebe-4cc6-a426-f3b558cac1ca" d="M61.5,837h-15a1.5,1.5,0,0,0-1.5,1.5v15a1.5,1.5,0,0,0,1.5,1.5h15a1.5,1.5,0,0,0,1.5-1.5v-15A1.5,1.5,0,0,0,61.5,837ZM61,853H47V841H61Zm-10-9H49v2h2Zm8,0H57v2h2Zm-4,0H53v2h2Zm0,4H53v2h2Zm-4,0H49v2h2Zm8,0H57v2h2Z"/>
  <path class="b5ff4b46-7778-4185-9209-62e322069b7a" d="M58.79,807.22,56.6,809.4l-2-2,2.19-2.19a3.4,3.4,0,0,0-4.3,4.55L49,813.23,50.77,815l3.48-3.48a3.4,3.4,0,0,0,4.54-4.3Z"/>
  <path class="bc99b27f-275e-437e-8cd6-ced61ce43153" d="M55,777v-5.21a2.5,2.5,0,1,0-2,0V777H50l4,4,4-4Z"/>
  <path class="bc99b27f-275e-437e-8cd6-ced61ce43153" d="M53,735v5.21a2.5,2.5,0,1,0,2,0V735h3l-4-4-4,4Z"/>
  <path class="bc99b27f-275e-437e-8cd6-ced61ce43153" d="M61.68,695.71a1,1,0,0,0-1.53,0l-8.45,8.91-3.85-4a1,1,0,0,0-1.53,0,1.17,1.17,0,0,0,0,1.61l4.6,4.86a1.07,1.07,0,0,0,.78.34,1,1,0,0,0,.77-.34l9.21-9.71A1.18,1.18,0,0,0,61.68,695.71Z"/>
  <path class="0789eb36-21d0-4eae-b05a-50af8118a218" d="M98.91,19.85l-.26.27-.73-.73a4.5,4.5,0,1,0-.53.53l.73.73-.27.26L100.94,24,102,22.94Zm-6.53-1.23a3,3,0,1,1,4.24,0A3,3,0,0,1,92.38,18.62Z"/>
  <path d="M174.39,56.56a4.13,4.13,0,0,1-.18-.48,2.08,2.08,0,0,1-.09-.63,1.43,1.43,0,0,1,.21-.76,3.56,3.56,0,0,1,.54-.66q.31-.31.69-.63a4.37,4.37,0,0,0,.69-.73,3.71,3.71,0,0,0,.54-.9,2.75,2.75,0,0,0,.21-1.11,2.54,2.54,0,0,0-.25-1.16,2.31,2.31,0,0,0-.7-.82,3,3,0,0,0-1-.51,4.53,4.53,0,0,0-1.24-.17,5.44,5.44,0,0,0-2.78.78v1.88a3.31,3.31,0,0,1,2.32-1.08,2.63,2.63,0,0,1,.7.09,1.78,1.78,0,0,1,.59.27,1.36,1.36,0,0,1,.41.45,1.47,1.47,0,0,1,.14.64,1.41,1.41,0,0,1-.2.75,3.36,3.36,0,0,1-.49.65c-.2.21-.42.42-.65.63a8.08,8.08,0,0,0-.64.68,3.38,3.38,0,0,0-.5.75,2,2,0,0,0-.2.9,3.47,3.47,0,0,0,.06.64,2.41,2.41,0,0,0,.13.53Zm0,3.12a1,1,0,0,0,.34-.76,1,1,0,0,0-.34-.76,1.13,1.13,0,0,0-.81-.33,1.18,1.18,0,0,0-.83.33,1,1,0,0,0-.34.76,1,1,0,0,0,.34.76,1.23,1.23,0,0,0,.83.32,1.2,1.2,0,0,0,.81-.32Z"/>
  <path d="M174,128a9.48,9.48,0,0,0-6,2.13V132h12v-1.87A9.48,9.48,0,0,0,174,128Zm0-2a3,3,0,1,0-3-3A3,3,0,0,0,174,126Z"/>
  <path d="M179,84H169a1,1,0,0,0-1,1V95a1,1,0,0,0,1,1h10a1,1,0,0,0,1-1V85A1,1,0,0,0,179,84Zm-2,9.82h-6V92.59l3.54-4.82h-3.33V86.18h5.71v1.35l-3.45,4.7H177Z"/>
  <path d="M178.35,158.06l-1.06,1.07a4.31,4.31,0,0,1,1.21,3,4.5,4.5,0,0,1-9,0,4.31,4.31,0,0,1,1.21-3l-1.06-1.06a5.77,5.77,0,0,0-1.65,4,6,6,0,0,0,12,0A5.81,5.81,0,0,0,178.35,158.06ZM175,156h-2v6h2Z"/>
  <path d="M176.91,19.85l-.26.27-.73-.73a4.5,4.5,0,1,0-.53.53l.73.73-.27.26L178.94,24,180,22.94Zm-6.53-1.23a3,3,0,1,1,4.24,0A3,3,0,0,1,170.38,18.62Z"/>
  <path class="0789eb36-21d0-4eae-b05a-50af8118a218" d="M18,299l-2.1,4.7-4.9.65.71.7h0l.19.19h0l2.7,2.66h0l-.93,5.1.87-.5h0l.27-.16h0L18,310.5l3.19,1.84h0l.27.16h0l.87.5-.93-5.1h0l2.7-2.66h0l.19-.19h0l.71-.7-4.9-.65L18,299Zm-4.84,6.07,2.87-.38.55-.07.23-.51L18,301.45l1.19,2.66.23.51.55.07,2.87.38-2.14,2.12-.38.37.09.52.55,3-2.46-1.42-.5-.29-.5.29L15,311.05l.54-3,.1-.52-.38-.37-2.14-2.12Z"/>
  <g>
    <path class="b5ff4b46-7778-4185-9209-62e322069b7a" d="M16.24,338.16l-4.16.55,3.06,3s-.54,3-.78,4.3L18,343.92,21.64,346c-.24-1.34-.78-4.3-.78-4.3l3.06-3-4.16-.55L18,334.22Z"/>
    <path class="b5ff4b46-7778-4185-9209-62e322069b7a" d="M18,333l-2.1,4.7-4.9.65.71.7h0l.19.19h0l2.7,2.66h0l-.93,5.1.87-.5h0l.27-.16h0L18,344.5l3.19,1.84h0l.27.16h0l.87.5-.93-5.1h0l2.7-2.66h0l.19-.19h0l.71-.7-4.9-.65L18,333Zm-4.84,6.07,2.87-.38.55-.07.23-.51L18,335.45l1.19,2.66.23.51.55.07,2.87.38-2.14,2.12-.38.37.09.52.55,3-2.46-1.42-.5-.29-.5.29L15,345.05l.54-3,.1-.52-.38-.37-2.14-2.12Z"/>
  </g>
  <path class="0789eb36-21d0-4eae-b05a-50af8118a218" d="M53,671h2v-6H53Zm0-10v2h2v-2Z"/>
  <path class="bc99b27f-275e-437e-8cd6-ced61ce43153" d="M59.11,630l1.89-.47a7,7,0,0,0-1-2.4l-1.66,1-1.45-1.45,1-1.66a7.19,7.19,0,0,0-2.4-1L55,625.89H53L52.5,624a7.22,7.22,0,0,0-2.39,1l1,1.66-1.45,1.45-1.66-1a7,7,0,0,0-1,2.4l1.89.47v2L47,632.5a7,7,0,0,0,1,2.39l1.66-1,1.45,1.45-1,1.66a7,7,0,0,0,2.39,1l.48-1.89h2l.47,1.89a7,7,0,0,0,2.4-1l-1-1.66,1.45-1.45,1.66,1a7,7,0,0,0,1-2.39L59.11,632ZM54,633.05a2,2,0,1,1,2-2A2.05,2.05,0,0,1,54,633.05Z"/>
  <path class="bc99b27f-275e-437e-8cd6-ced61ce43153" d="M56,588v-1H52v1H48v2H60v-2Zm-7,11.5a1.5,1.5,0,0,0,1.5,1.5h7a1.5,1.5,0,0,0,1.5-1.5V591H49Zm6.25-6.5h1.5v6h-1.5Zm-4,0h1.5v6h-1.5Z"/>
  <path id="386570bb-0f9e-49f2-8943-e43041a26ec5" data-name="path4237-4-1" class="0789eb36-21d0-4eae-b05a-50af8118a218" d="M98,729.36l-6,6.14,6,6.14a1.16,1.16,0,0,0,1.68,0,1.23,1.23,0,0,0,0-1.72l-4.29-4.42,4.29-4.42a1.24,1.24,0,0,0,0-1.72A1.16,1.16,0,0,0,98,729.36Z"/>
  <path id="0cd363e9-aaaf-43cd-8b41-7bd43960efe7" data-name="path4237-4" class="16b081af-233d-4832-ae6e-c799cace00d6" d="M98,695.86,92,702l6,6.14a1.16,1.16,0,0,0,1.68,0,1.23,1.23,0,0,0,0-1.72L95.36,702l4.29-4.42a1.24,1.24,0,0,0,0-1.72A1.16,1.16,0,0,0,98,695.86Z"/>
  <path id="1ff37b19-e608-4455-afe4-1bb59a967865" data-name="path4237-4" d="M257,662.36l-6,6.14,6,6.14a1.16,1.16,0,0,0,1.68,0,1.24,1.24,0,0,0,0-1.73l-4.29-4.41,4.29-4.42a1.24,1.24,0,0,0,0-1.72A1.16,1.16,0,0,0,257,662.36Z"/>
  <path id="f850b3f7-cc8e-467b-9779-59d95c338c34" data-name="path4237-4" d="M253,641.14l6-6.14-6-6.14a1.16,1.16,0,0,0-1.68,0,1.23,1.23,0,0,0,0,1.72l4.29,4.42-4.29,4.42a1.23,1.23,0,0,0,0,1.72A1.16,1.16,0,0,0,253,641.14Z"/>
  <path id="037feddf-b4fa-4f57-8730-171ff60e165a" data-name="path4237-4" class="bc99b27f-275e-437e-8cd6-ced61ce43153" d="M98,662.36l-6,6.14,6,6.14a1.16,1.16,0,0,0,1.68,0,1.24,1.24,0,0,0,0-1.73l-4.29-4.41,4.29-4.42a1.24,1.24,0,0,0,0-1.72A1.16,1.16,0,0,0,98,662.36Z"/>
  <path id="5011e4f4-f7ac-4206-86d8-5ff786fc2797" data-name="path4237-4" class="bc99b27f-275e-437e-8cd6-ced61ce43153" d="M94,641.14l6-6.14-6-6.14a1.16,1.16,0,0,0-1.68,0,1.23,1.23,0,0,0,0,1.72L96.64,635l-4.29,4.42a1.23,1.23,0,0,0,0,1.72A1.16,1.16,0,0,0,94,641.14Z"/>
  <path id="ad85fde6-bc85-4ff7-a4cc-fe1e6048c1f6" data-name="path4237-4" class="0789eb36-21d0-4eae-b05a-50af8118a218" d="M410,662.36l-6,6.14,6,6.14a1.16,1.16,0,0,0,1.68,0,1.24,1.24,0,0,0,0-1.73l-4.29-4.41,4.29-4.42a1.24,1.24,0,0,0,0-1.72A1.16,1.16,0,0,0,410,662.36Z"/>
  <path id="7e0ff0bb-bfbf-4af3-963f-46ef34e1bca5" data-name="path4237-4" class="0789eb36-21d0-4eae-b05a-50af8118a218" d="M406,641.14l6-6.14-6-6.14a1.16,1.16,0,0,0-1.68,0,1.23,1.23,0,0,0,0,1.72l4.29,4.42-4.29,4.42a1.23,1.23,0,0,0,0,1.72A1.16,1.16,0,0,0,406,641.14Z"/>
  <g>
    <path d="M181,486a4,4,0,0,0-2-3.44v6.88A4,4,0,0,0,181,486Z"/>
    <g>
      <polygon points="170 483.38 170 488.63 172.56 488.63 177 493 177 479 172.56 483.38 170 483.38"/>
      <path d="M179,479.31v1.58a5.48,5.48,0,0,1,0,10.22v1.58a7,7,0,0,0,0-13.38Z"/>
    </g>
  </g>
  <path d="M182.5,522a6.12,6.12,0,0,1-.13,1.14l1.21,1.21A6.75,6.75,0,0,0,184,522a7,7,0,0,0-5-6.69v1.58A5.48,5.48,0,0,1,182.5,522Zm-3.5-3.44v1.21l2,2A4,4,0,0,0,179,518.56Zm4.7,8.74-12-12-1.41,1.41,2.48,2.47-.2.21H170v5.25h2.56L177,529v-5.59l2,2v0h0l1.09,1.08a4.88,4.88,0,0,1-1.1.6v1.58a6.84,6.84,0,0,0,2.17-1.1l1.13,1.13,1.42-1.42h0ZM177,515l-1.4,1.38,1.4,1.39Z"/>
  <path d="M177,565a2,2,0,0,0,2-2h-4A2,2,0,0,0,177,565Zm4-5.37v-3a4,4,0,0,0-3-3.86V552a1,1,0,0,0-2,0v.77a4,4,0,0,0-3,3.86v3l-2,2h12Z"/>
  <path d="M181,592.63a4,4,0,0,0-3-3.86V588a1,1,0,0,0-2,0v.77h0l5,5ZM177,601a2,2,0,0,0,2-2h-4A2,2,0,0,0,177,601Zm7-1.41h0L171.39,587,170,588.4l3.16,3.16a3.74,3.74,0,0,0-.16,1.07v3l-2,2h8.22L182.6,601l1.4-1.4Z"/>
  <path d="M183,628a2,2,0,1,0,2,2A2,2,0,0,0,183,628Zm-12,0a2,2,0,1,0,2,2A2,2,0,0,0,171,628Zm6,0a2,2,0,1,0,2,2A2,2,0,0,0,177,628Z"/>
  <path d="M183.14,668,177,662l-6.14,6a1.16,1.16,0,0,0,0,1.68,1.23,1.23,0,0,0,1.72,0l4.42-4.29,4.42,4.29a1.23,1.23,0,0,0,1.72,0A1.16,1.16,0,0,0,183.14,668Z"/>
  <path d="M170.86,700l6.14,6,6.14-6a1.16,1.16,0,0,0,0-1.68,1.23,1.23,0,0,0-1.72,0L177,702.64l-4.42-4.29a1.23,1.23,0,0,0-1.72,0A1.16,1.16,0,0,0,170.86,700Z"/>
  <path d="M177,729a9,9,0,1,0,9,9A9,9,0,0,0,177,729Zm1,14h-2v-6h2Zm0-8h-2v-2h2Z"/>
  <g>
    <rect x="176" y="811" width="2" height="2"/>
    <rect x="172" y="811" width="2" height="2"/>
    <rect x="172" y="807" width="2" height="2"/>
    <rect x="180" y="807" width="2" height="2"/>
    <rect x="180" y="811" width="2" height="2"/>
    <rect x="176" y="807" width="2" height="2"/>
  </g>
  <path d="M178,783v-2h2v2Zm0-6h2v2h-2Zm0-4h2v2h-2Zm0-4h2v2h-2Zm0-4h2v2h-2Zm-4,16h2v2h-2Zm0-4h2v2h-2Zm0-4h2v2h-2Zm0-4h2v2h-2Zm0-4h2v2h-2Z"/>
  <path d="M182.77,841.74a.77.77,0,0,0-1.12,0l-6.51,6.78-2.79-2.91a.77.77,0,0,0-1.12,0,.84.84,0,0,0,0,1.16l3.35,3.49a.77.77,0,0,0,1.12,0l7.07-7.36A.84.84,0,0,0,182.77,841.74Z"/>
  <path d="M220.5,837h-15a1.5,1.5,0,0,0-1.5,1.5v15a1.5,1.5,0,0,0,1.5,1.5h15a1.5,1.5,0,0,0,1.5-1.5v-15A1.5,1.5,0,0,0,220.5,837Zm-.5,16H206V841h14Zm-10-9h-2v2h2Zm8,0h-2v2h2Zm-4,0h-2v2h2Zm0,4h-2v2h2Zm-4,0h-2v2h2Zm8,0h-2v2h2Z"/>
  <path d="M217.79,807.22l-2.19,2.18-2-2,2.19-2.19a3.4,3.4,0,0,0-4.3,4.55L208,813.23l1.77,1.77,3.48-3.48a3.4,3.4,0,0,0,4.54-4.3Z"/>
  <path d="M214,777v-5.21a2.5,2.5,0,1,0-2,0V777h-3l4,4,4-4Z"/>
  <path d="M212,735v5.21a2.5,2.5,0,1,0,2,0V735h3l-4-4-4,4Z"/>
  <path d="M220.68,695.71a1,1,0,0,0-1.53,0l-8.45,8.91-3.85-4a1,1,0,0,0-1.53,0,1.17,1.17,0,0,0,0,1.61l4.6,4.86a1.07,1.07,0,0,0,.78.34,1,1,0,0,0,.77-.34l9.21-9.71A1.18,1.18,0,0,0,220.68,695.71Z"/>
  <path class="0789eb36-21d0-4eae-b05a-50af8118a218" d="M212,671h2v-6h-2Zm0-10v2h2v-2Z"/>
  <path d="M218.11,630l1.89-.47a7,7,0,0,0-1-2.4l-1.66,1-1.45-1.45,1-1.66a7.19,7.19,0,0,0-2.4-1l-.47,1.89h-2L211.5,624a7.22,7.22,0,0,0-2.39,1l1,1.66-1.45,1.45-1.66-1a7,7,0,0,0-1,2.4l1.89.47v2l-1.89.48a7,7,0,0,0,1,2.39l1.66-1,1.45,1.45-1,1.66a7,7,0,0,0,2.39,1l.48-1.89h2l.47,1.89a7,7,0,0,0,2.4-1l-1-1.66,1.45-1.45,1.66,1a7,7,0,0,0,1-2.39l-1.89-.48ZM213,633.05a2,2,0,1,1,2-2A2.05,2.05,0,0,1,213,633.05Z"/>
  <path d="M215,588v-1h-4v1h-4v2h12v-2Zm-7,11.5a1.5,1.5,0,0,0,1.5,1.5h7a1.5,1.5,0,0,0,1.5-1.5V591H208Zm6.25-6.5h1.5v6h-1.5Zm-4,0h1.5v6h-1.5Z"/>
  <path id="a77146cd-eecc-44a2-9356-045772ed85f5" data-name="path4237-4" d="M257,695.86,251,702l6,6.14a1.16,1.16,0,0,0,1.68,0,1.23,1.23,0,0,0,0-1.72L254.36,702l4.29-4.42a1.24,1.24,0,0,0,0-1.72A1.16,1.16,0,0,0,257,695.86Z"/>
  <path id="67ce93e7-a0f0-42ce-95a1-07c2cba06462" data-name="path4237-4-1" class="0789eb36-21d0-4eae-b05a-50af8118a218" d="M257,729.36l-6,6.14,6,6.14a1.16,1.16,0,0,0,1.68,0,1.23,1.23,0,0,0,0-1.72l-4.29-4.42,4.29-4.42a1.24,1.24,0,0,0,0-1.72A1.16,1.16,0,0,0,257,729.36Z"/>
  <g>
    <circle class="72ceb99a-bec4-4f05-bd5e-03b05d015254" cx="135.5" cy="296.5" r="12.5"/>
    <circle class="0789eb36-21d0-4eae-b05a-50af8118a218" cx="135.5" cy="296.5" r="9.27"/>
    <path d="M134.29,301.74h2.42v-5.8h-2.42Zm0-9.68V294h2.42v-1.94Z"/>
  </g>
  <g>
    <g class="72ceb99a-bec4-4f05-bd5e-03b05d015254">
      <path d="M139.46,328c-2.18-3.82-5.74-3.82-7.92,0L123,343.05c-2.18,3.82-.36,6.95,4,6.95h17c4.4,0,6.22-3.13,4-6.95Z"/>
    </g>
    <path class="0789eb36-21d0-4eae-b05a-50af8118a218" d="M136.46,329.12c-.53-1-1.39-1-1.92,0l-8.65,15.77c-.53,1-.07,1.76,1,1.76h17.16c1.1,0,1.56-.79,1-1.76Z"/>
    <path d="M136.92,334.18h-2.66v6.33h2.66Zm0,10.55v-2.11h-2.66v2.11Z"/>
  </g>
  <g>
    <g class="72ceb99a-bec4-4f05-bd5e-03b05d015254">
      <path d="M131.54,387.05c2.18,3.82,5.74,3.82,7.92,0L148,372c2.18-3.82.36-6.95-4-6.95H127c-4.4,0-6.22,3.13-4,6.95Z"/>
    </g>
    <path class="0789eb36-21d0-4eae-b05a-50af8118a218" d="M134.54,385.88c.53,1,1.39,1,1.92,0l8.65-15.77c.53-1,.07-1.76-1-1.76H126.92c-1.1,0-1.56.79-1,1.76Z"/>
    <path d="M136.74,370.27h-2.66v6.33h2.66Zm0,10.55v-2.11h-2.66v2.11Z"/>
  </g>
  <circle class="0789eb36-21d0-4eae-b05a-50af8118a218" cx="177" cy="420" r="9"/>
  <circle class="0789eb36-21d0-4eae-b05a-50af8118a218" cx="87" cy="420" r="9"/>
  <g>
    <rect x="176" y="423" width="2" height="2"/>
    <rect x="176" y="415" width="2" height="6"/>
  </g>
  <circle class="0789eb36-21d0-4eae-b05a-50af8118a218" cx="147" cy="420" r="9"/>
  <g>
    <rect x="146" y="415" width="2" height="2"/>
    <rect x="146" y="419" width="2" height="6"/>
  </g>
  <circle class="0789eb36-21d0-4eae-b05a-50af8118a218" cx="117" cy="420" r="9"/>
  <polygon class="0789eb36-21d0-4eae-b05a-50af8118a218" points="214.78 422.73 210.22 415.27 207 410 203.78 415.27 199.22 422.73 196 428 218 428 214.78 422.73"/>
  <polygon class="0789eb36-21d0-4eae-b05a-50af8118a218" points="229.22 416.27 233.78 423.73 237 429 240.22 423.73 244.78 416.27 248 411 226 411 229.22 416.27"/>
  <polygon class="0789eb36-21d0-4eae-b05a-50af8118a218" points="270.73 411 263.27 411 258 416.27 258 423.73 263.27 429 270.73 429 276 423.73 276 416.27 270.73 411"/>
  <g>
    <rect x="206" y="424" width="2" height="2"/>
    <rect x="206" y="416" width="2" height="6"/>
  </g>
  <g>
    <rect x="236" y="421" width="2" height="2"/>
    <rect x="236" y="413" width="2" height="6"/>
  </g>
  <polygon points="92.43 417.29 91.02 415.87 85.05 421.84 82.69 419.47 81.27 420.89 85.02 424.63 85.05 424.59 85.09 424.63 92.43 417.29"/>
  <path d="M117.39,423a4.13,4.13,0,0,1-.18-.48,2.08,2.08,0,0,1-.09-.63,1.43,1.43,0,0,1,.21-.76,3.26,3.26,0,0,1,.54-.66q.31-.32.69-.63a4.8,4.8,0,0,0,.69-.73,3.71,3.71,0,0,0,.54-.9,2.82,2.82,0,0,0,.21-1.11,2.51,2.51,0,0,0-.25-1.16,2.43,2.43,0,0,0-.7-.83,3,3,0,0,0-1-.5,4.53,4.53,0,0,0-1.24-.17,5.44,5.44,0,0,0-2.78.78v1.88a3.33,3.33,0,0,1,2.32-1.09,2.63,2.63,0,0,1,.7.09,1.89,1.89,0,0,1,.59.28,1.36,1.36,0,0,1,.41.45,1.44,1.44,0,0,1,.14.64,1.41,1.41,0,0,1-.2.75,3.69,3.69,0,0,1-.49.65c-.2.21-.42.42-.65.63a6.79,6.79,0,0,0-.64.68,3.38,3.38,0,0,0-.5.75,2,2,0,0,0-.2.9,3.55,3.55,0,0,0,.06.64,2.56,2.56,0,0,0,.13.53Zm0,2.82a1,1,0,0,0,.34-.76,1,1,0,0,0-.34-.76,1.13,1.13,0,0,0-.81-.33,1.18,1.18,0,0,0-.83.33,1,1,0,0,0-.34.76,1,1,0,0,0,.34.76,1.19,1.19,0,0,0,.83.32,1.16,1.16,0,0,0,.81-.32Z"/>
  <circle cx="177" cy="452" r="9"/>
  <circle cx="87" cy="452" r="9"/>
  <g>
    <rect class="0789eb36-21d0-4eae-b05a-50af8118a218" x="176" y="455" width="2" height="2"/>
    <rect class="0789eb36-21d0-4eae-b05a-50af8118a218" x="176" y="447" width="2" height="6"/>
  </g>
  <circle cx="147" cy="452" r="9"/>
  <g>
    <rect class="0789eb36-21d0-4eae-b05a-50af8118a218" x="146" y="447" width="2" height="2"/>
    <rect class="0789eb36-21d0-4eae-b05a-50af8118a218" x="146" y="451" width="2" height="6"/>
  </g>
  <circle cx="117" cy="452" r="9"/>
  <polygon points="214.78 454.73 210.22 447.27 207 442 203.78 447.27 199.22 454.73 196 460 218 460 214.78 454.73"/>
  <polygon points="229.22 448.27 233.78 455.73 237 461 240.22 455.73 244.78 448.27 248 443 226 443 229.22 448.27"/>
  <polygon points="270.73 443 263.27 443 258 448.27 258 455.73 263.27 461 270.73 461 276 455.73 276 448.27 270.73 443"/>
  <g>
    <rect class="0789eb36-21d0-4eae-b05a-50af8118a218" x="206" y="456" width="2" height="2"/>
    <rect class="0789eb36-21d0-4eae-b05a-50af8118a218" x="206" y="448" width="2" height="6"/>
  </g>
  <g>
    <rect class="0789eb36-21d0-4eae-b05a-50af8118a218" x="236" y="453" width="2" height="2"/>
    <rect class="0789eb36-21d0-4eae-b05a-50af8118a218" x="236" y="445" width="2" height="6"/>
  </g>
  <polygon class="0789eb36-21d0-4eae-b05a-50af8118a218" points="92.43 449.29 91.02 447.87 85.05 453.84 82.69 451.47 81.27 452.89 85.02 456.63 85.05 456.59 85.09 456.63 92.43 449.29"/>
  <path class="0789eb36-21d0-4eae-b05a-50af8118a218" d="M117.39,455a4.13,4.13,0,0,1-.18-.48,2.08,2.08,0,0,1-.09-.63,1.43,1.43,0,0,1,.21-.76,3.26,3.26,0,0,1,.54-.66q.31-.32.69-.63a4.8,4.8,0,0,0,.69-.73,3.71,3.71,0,0,0,.54-.9,2.82,2.82,0,0,0,.21-1.11,2.51,2.51,0,0,0-.25-1.16,2.43,2.43,0,0,0-.7-.83,3,3,0,0,0-1-.5,4.53,4.53,0,0,0-1.24-.17,5.44,5.44,0,0,0-2.78.78v1.88a3.33,3.33,0,0,1,2.32-1.09,2.63,2.63,0,0,1,.7.09,1.89,1.89,0,0,1,.59.28,1.36,1.36,0,0,1,.41.45,1.44,1.44,0,0,1,.14.64,1.41,1.41,0,0,1-.2.75,3.69,3.69,0,0,1-.49.65c-.2.21-.42.42-.65.63a6.79,6.79,0,0,0-.64.68,3.38,3.38,0,0,0-.5.75,2,2,0,0,0-.2.9,3.55,3.55,0,0,0,.06.64,2.56,2.56,0,0,0,.13.53Zm0,2.82a1,1,0,0,0,.34-.76,1,1,0,0,0-.34-.76,1.13,1.13,0,0,0-.81-.33,1.18,1.18,0,0,0-.83.33,1,1,0,0,0-.34.76,1,1,0,0,0,.34.76,1.19,1.19,0,0,0,.83.32,1.16,1.16,0,0,0,.81-.32Z"/>
  <rect x="262" y="419" width="10" height="3"/>
  <rect class="0789eb36-21d0-4eae-b05a-50af8118a218" x="262" y="451" width="10" height="3"/>
  <path d="M60.89,193.23l-2,2-2.12-2.12,2-2A3.25,3.25,0,0,0,58,191a3,3,0,0,0-3,3,3.25,3.25,0,0,0,.11.77l-4.34,4.34A2.81,2.81,0,0,0,50,199a3,3,0,0,0-3,3,3.25,3.25,0,0,0,.11.77l2-2,2.12,2.12-2,2A3.25,3.25,0,0,0,50,205a3,3,0,0,0,3-3,3.25,3.25,0,0,0-.11-.77l4.34-4.34A2.81,2.81,0,0,0,58,197a3,3,0,0,0,3-3A3.25,3.25,0,0,0,60.89,193.23Z"/>
  <path d="M47,372v2H61v-2Zm0,7H61v-2H47Zm0,5H61v-2H47Z"/>
  <path d="M54.7,409.25a1.06,1.06,0,0,0,.89.34,1.26,1.26,0,0,0,1-.47,1.64,1.64,0,0,0,.37-1.05,1,1,0,0,0-.31-.77,1.14,1.14,0,0,0-.84-.3,1.36,1.36,0,0,0-1,.42,1.41,1.41,0,0,0-.4,1A1.34,1.34,0,0,0,54.7,409.25Zm-3.35,4.92a5,5,0,0,1,1.78-.91q.24,0,.24.27a24,24,0,0,1-.86,3.58q-.39,1.36-.51,1.92a4.59,4.59,0,0,0-.12,1,1.22,1.22,0,0,0,.2.71.68.68,0,0,0,.59.27,2.36,2.36,0,0,0,.75-.15,10.21,10.21,0,0,0,1.42-.76c.66-.41,1.23-.77,1.71-1.09l0-.12-.22-.38h-.13a5.14,5.14,0,0,1-1.64.88.26.26,0,0,1-.2-.1.32.32,0,0,1-.09-.23,24,24,0,0,1,.9-3.53c.34-1.18.56-2,.67-2.41a4.79,4.79,0,0,0,.16-1.05.73.73,0,0,0-.19-.52.59.59,0,0,0-.44-.2,3.71,3.71,0,0,0-1.57.54A25.79,25.79,0,0,0,51,413.71l0,.12.2.33Z"/>
  <g>
    <polygon points="61 227 55.63 227 57.63 229 55 231.64 56.36 233 58.99 230.37 61 232.37 61 227"/>
    <polygon points="51.64 235 49.01 237.63 47 235.63 47 241 52.37 241 50.37 239 53 236.36 51.64 235"/>
  </g>
  <g>
    <polygon points="61 264.36 59.64 263 57.01 265.63 55 263.63 55 269 60.37 269 58.37 267 61 264.36"/>
    <polygon points="49.63 273 47 275.64 48.36 277 50.99 274.37 53 276.37 53 271 47.63 271 49.63 273"/>
  </g>
  <path d="M58.76,452.13A5.23,5.23,0,1,1,54,444.75a5.14,5.14,0,0,1,3.69,1.56h0l-2.82,2.82H61V443l-2.06,2.06h0a7,7,0,1,0,1.71,7.06Z"/>
  <path d="M54,301.45l1.19,2.66.23.51.55.07,2.87.38-2.14,2.12-.38.37.1.52.54,3-2.46-1.42-.5-.29-.5.29L51,311.05l.54-3,.1-.52-.38-.37-2.14-2.12,2.87-.38.55-.07.23-.51L54,301.45M54,299l-2.1,4.7-4.9.65,3.6,3.55-.93,5.1L54,310.5l4.33,2.5-.93-5.1,3.6-3.55-4.9-.65L54,299Z"/>
  <g>
    <polygon class="b5ff4b46-7778-4185-9209-62e322069b7a" points="54 343.92 50.36 346.03 51.14 341.73 48.08 338.71 52.24 338.16 54 334.23 55.76 338.16 59.92 338.71 56.86 341.73 57.64 346.03 54 343.92"/>
    <path class="b5ff4b46-7778-4185-9209-62e322069b7a" d="M54,335.45l1.19,2.66.23.51.55.07,2.87.38-2.14,2.12-.38.37.1.52.54,3-2.46-1.42-.5-.29-.5.29L51,345.05l.54-3,.1-.52-.38-.37-2.14-2.12,2.87-.38.55-.07.23-.51L54,335.45M54,333l-2.1,4.7-4.9.65,3.6,3.55-.93,5.1L54,344.5l4.33,2.5-.93-5.1,3.6-3.55-4.9-.65L54,333Z"/>
  </g>
  <g>
    <path class="0789eb36-21d0-4eae-b05a-50af8118a218" d="M334,486a4,4,0,0,0-2-3.44v6.88A4,4,0,0,0,334,486Z"/>
    <g>
      <polygon class="0789eb36-21d0-4eae-b05a-50af8118a218" points="323 483.38 323 488.63 325.56 488.63 330 493 330 479 325.56 483.38 323 483.38"/>
      <path class="0789eb36-21d0-4eae-b05a-50af8118a218" d="M332,479.31v1.58a5.48,5.48,0,0,1,0,10.22v1.58a7,7,0,0,0,0-13.38Z"/>
    </g>
  </g>
  <path class="0789eb36-21d0-4eae-b05a-50af8118a218" d="M335.5,522a6.12,6.12,0,0,1-.13,1.14l1.21,1.21A6.75,6.75,0,0,0,337,522a7,7,0,0,0-5-6.69v1.58A5.48,5.48,0,0,1,335.5,522Zm-3.5-3.44v1.21l2,2A4,4,0,0,0,332,518.56Zm4.7,8.74-12-12-1.41,1.41,2.48,2.47-.2.21H323v5.25h2.56L330,529v-5.59l2,2v0h0l1.09,1.08a4.88,4.88,0,0,1-1.1.6v1.58a6.84,6.84,0,0,0,2.17-1.1l1.13,1.13,1.42-1.42h0ZM330,515l-1.4,1.38,1.4,1.39Z"/>
  <path class="0789eb36-21d0-4eae-b05a-50af8118a218" d="M330,565a2,2,0,0,0,2-2h-4A2,2,0,0,0,330,565Zm4-5.37v-3a4,4,0,0,0-3-3.86V552a1,1,0,0,0-2,0v.77a4,4,0,0,0-3,3.86v3l-2,2h12Z"/>
  <path class="0789eb36-21d0-4eae-b05a-50af8118a218" d="M334,592.63a4,4,0,0,0-3-3.86V588a1,1,0,0,0-2,0v.77h0l5,5ZM330,601a2,2,0,0,0,2-2h-4A2,2,0,0,0,330,601Zm7-1.41h0L324.39,587,323,588.4l3.16,3.16a3.74,3.74,0,0,0-.16,1.07v3l-2,2h8.22L335.6,601l1.4-1.4Z"/>
  <path class="0789eb36-21d0-4eae-b05a-50af8118a218" d="M336,628a2,2,0,1,0,2,2A2,2,0,0,0,336,628Zm-12,0a2,2,0,1,0,2,2A2,2,0,0,0,324,628Zm6,0a2,2,0,1,0,2,2A2,2,0,0,0,330,628Z"/>
  <path class="0789eb36-21d0-4eae-b05a-50af8118a218" d="M336.14,668,330,662l-6.14,6a1.16,1.16,0,0,0,0,1.68,1.23,1.23,0,0,0,1.72,0l4.42-4.29,4.42,4.29a1.23,1.23,0,0,0,1.72,0A1.16,1.16,0,0,0,336.14,668Z"/>
  <path class="0789eb36-21d0-4eae-b05a-50af8118a218" d="M323.86,700l6.14,6,6.14-6a1.16,1.16,0,0,0,0-1.68,1.23,1.23,0,0,0-1.72,0L330,702.64l-4.42-4.29a1.23,1.23,0,0,0-1.72,0A1.16,1.16,0,0,0,323.86,700Z"/>
  <path class="0789eb36-21d0-4eae-b05a-50af8118a218" d="M330,729a9,9,0,1,0,9,9A9,9,0,0,0,330,729Zm1,14h-2v-6h2Zm0-8h-2v-2h2Z"/>
  <g>
    <rect class="0789eb36-21d0-4eae-b05a-50af8118a218" x="329" y="811" width="2" height="2"/>
    <rect class="0789eb36-21d0-4eae-b05a-50af8118a218" x="325" y="811" width="2" height="2"/>
    <rect class="0789eb36-21d0-4eae-b05a-50af8118a218" x="325" y="807" width="2" height="2"/>
    <rect class="0789eb36-21d0-4eae-b05a-50af8118a218" x="333" y="807" width="2" height="2"/>
    <rect class="0789eb36-21d0-4eae-b05a-50af8118a218" x="333" y="811" width="2" height="2"/>
    <rect class="0789eb36-21d0-4eae-b05a-50af8118a218" x="329" y="807" width="2" height="2"/>
  </g>
  <path class="0789eb36-21d0-4eae-b05a-50af8118a218" d="M331,783v-2h2v2Zm0-6h2v2h-2Zm0-4h2v2h-2Zm0-4h2v2h-2Zm0-4h2v2h-2Zm-4,16h2v2h-2Zm0-4h2v2h-2Zm0-4h2v2h-2Zm0-4h2v2h-2Zm0-4h2v2h-2Z"/>
  <path class="0789eb36-21d0-4eae-b05a-50af8118a218" d="M335.77,841.74a.77.77,0,0,0-1.12,0l-6.51,6.78-2.79-2.91a.77.77,0,0,0-1.12,0,.84.84,0,0,0,0,1.16l3.35,3.49a.77.77,0,0,0,1.12,0l7.07-7.36A.84.84,0,0,0,335.77,841.74Z"/>
  <path class="0789eb36-21d0-4eae-b05a-50af8118a218" d="M373.5,837h-15a1.5,1.5,0,0,0-1.5,1.5v15a1.5,1.5,0,0,0,1.5,1.5h15a1.5,1.5,0,0,0,1.5-1.5v-15A1.5,1.5,0,0,0,373.5,837Zm-.5,16H359V841h14Zm-10-9h-2v2h2Zm8,0h-2v2h2Zm-4,0h-2v2h2Zm0,4h-2v2h2Zm-4,0h-2v2h2Zm8,0h-2v2h2Z"/>
  <path class="0789eb36-21d0-4eae-b05a-50af8118a218" d="M370.79,807.22l-2.19,2.18-2-2,2.19-2.19a3.4,3.4,0,0,0-4.3,4.55L361,813.23l1.77,1.77,3.48-3.48a3.4,3.4,0,0,0,4.54-4.3Z"/>
  <path class="0789eb36-21d0-4eae-b05a-50af8118a218" d="M367,777v-5.21a2.5,2.5,0,1,0-2,0V777h-3l4,4,4-4Z"/>
  <path class="0789eb36-21d0-4eae-b05a-50af8118a218" d="M365,735v5.21a2.5,2.5,0,1,0,2,0V735h3l-4-4-4,4Z"/>
  <path class="0789eb36-21d0-4eae-b05a-50af8118a218" d="M373.68,695.71a1,1,0,0,0-1.53,0l-8.45,8.91-3.85-4a1,1,0,0,0-1.53,0,1.17,1.17,0,0,0,0,1.61l4.6,4.86a1.07,1.07,0,0,0,.78.34,1,1,0,0,0,.77-.34l9.21-9.71A1.18,1.18,0,0,0,373.68,695.71Z"/>
  <path d="M365,671h2v-6h-2Zm0-10v2h2v-2Z"/>
  <path class="0789eb36-21d0-4eae-b05a-50af8118a218" d="M371.11,630l1.89-.47a7,7,0,0,0-1-2.4l-1.66,1-1.45-1.45,1-1.66a7.19,7.19,0,0,0-2.4-1l-.47,1.89h-2L364.5,624a7.22,7.22,0,0,0-2.39,1l1,1.66-1.45,1.45-1.66-1a7,7,0,0,0-1,2.4l1.89.47v2l-1.89.48a7,7,0,0,0,1,2.39l1.66-1,1.45,1.45-1,1.66a7,7,0,0,0,2.39,1l.48-1.89h2l.47,1.89a7,7,0,0,0,2.4-1l-1-1.66,1.45-1.45,1.66,1a7,7,0,0,0,1-2.39l-1.89-.48ZM366,633.05a2,2,0,1,1,2-2A2.05,2.05,0,0,1,366,633.05Z"/>
  <path class="0789eb36-21d0-4eae-b05a-50af8118a218" d="M368,588v-1h-4v1h-4v2h12v-2Zm-7,11.5a1.5,1.5,0,0,0,1.5,1.5h7a1.5,1.5,0,0,0,1.5-1.5V591H361Zm6.25-6.5h1.5v6h-1.5Zm-4,0h1.5v6h-1.5Z"/>
  <path id="ef101c66-00a7-4dda-9c5c-c95d4a1c9289" data-name="path4237-4" class="0789eb36-21d0-4eae-b05a-50af8118a218" d="M410,695.86,404,702l6,6.14a1.16,1.16,0,0,0,1.68,0,1.23,1.23,0,0,0,0-1.72L407.36,702l4.29-4.42a1.24,1.24,0,0,0,0-1.72A1.16,1.16,0,0,0,410,695.86Z"/>
  <path id="c0535965-f321-46e0-9977-4e6c96accec4" data-name="path4237-4-1" d="M410,729.36l-6,6.14,6,6.14a1.16,1.16,0,0,0,1.68,0,1.23,1.23,0,0,0,0-1.72l-4.29-4.42,4.29-4.42a1.24,1.24,0,0,0,0-1.72A1.16,1.16,0,0,0,410,729.36Z"/>
  <g>
    <circle class="72ceb99a-bec4-4f05-bd5e-03b05d015254" cx="135.5" cy="256.5" r="12.5"/>
    <circle class="0789eb36-21d0-4eae-b05a-50af8118a218" cx="135.5" cy="256.5" r="9.27"/>
    <path d="M141.62,252.74a.77.77,0,0,0-1.12,0L134,259.52l-2.79-2.91a.77.77,0,0,0-1.12,0,.84.84,0,0,0,0,1.16l3.35,3.49a.77.77,0,0,0,1.12,0l7.07-7.36A.84.84,0,0,0,141.62,252.74Z"/>
  </g>
  <path id="86366c61-4d9a-4456-b111-7363fd9c778d" data-name="path4209" class="bc99b27f-275e-437e-8cd6-ced61ce43153" d="M52.88,565.13h2v-14h-2Zm-6-6h14v-2h-14Z"/>
  <g id="25359231-e967-42ce-b621-82831b5bd835" data-name="g4365">
    <g id="9d6b5a0d-a500-40ec-93d5-dc2e83e63f02" data-name="g4367">
      <path id="e8a67976-4c54-4c51-afe3-165c1b6af07b" data-name="path4369" class="bc99b27f-275e-437e-8cd6-ced61ce43153" d="M55,524.25H49.38v1.38H55Zm0-3.12H49.38v1.37H55Zm-4.75-6v2.75H46.88v11H57.5v-2.75h3.38v-11Zm5.63,12.07H48.5v-7.7h7.38Zm3.31-2.75H57.5v-6.57H51.88V517h7.31Z"/>
    </g>
  </g>
  <g id="621b43dc-4184-43eb-8dc4-13b6613ba5cf" data-name="g4375">
    <path id="5ff6837f-0e88-4c69-9eb8-c85c53657ba3" data-name="path4377" class="bc99b27f-275e-437e-8cd6-ced61ce43153" d="M57.27,480.45l1.64,1.64-5.78,5.79-1.65-1.64Zm3.38-1.2-.38-.37a1,1,0,0,0-1.43,0l-1,1,1.65,1.63,1.14-1.14a.78.78,0,0,0,0-1.1M50,489.17a.25.25,0,0,0,.31.31l2.11-1.08-1.57-1.54Z"/>
  </g>
  <g id="d23d122c-f501-4a4a-9700-f30fb62b3be8" data-name="g4383">
    <rect id="6fc4044e-7041-428c-a716-a45bb271529f" data-name="rect4385" class="bc99b27f-275e-437e-8cd6-ced61ce43153" x="46.88" y="490.75" width="14" height="2"/>
  </g>
  <path id="39ae0702-80fe-4e60-8f32-ccab3d916168" data-name="path4209" d="M211.88,565.13h2v-14h-2Zm-6-6h14v-2h-14Z"/>
  <g id="8e585464-f355-4662-b856-b03b68067ba3" data-name="g4365">
    <g id="c2cc6f93-93b7-4c7a-86d4-a8d031e694a0" data-name="g4367">
      <path id="628e85fd-0386-422e-b83e-05d808ce0254" data-name="path4369" d="M214,524.25h-5.62v1.38H214Zm0-3.12h-5.62v1.37H214Zm-4.75-6v2.75h-3.37v11H216.5v-2.75h3.38v-11Zm5.63,12.07H207.5v-7.7h7.38Zm3.31-2.75H216.5v-6.57h-5.62V517h7.31Z"/>
    </g>
  </g>
  <g id="a9568cd5-7cf5-487f-b893-ec424bc66bc4" data-name="g4375">
    <path id="921b5305-660e-4aa6-9d15-ce9955dbc9a5" data-name="path4377" d="M216.27,480.45l1.64,1.64-5.78,5.79-1.65-1.64Zm3.38-1.2-.38-.37a1,1,0,0,0-1.43,0l-1,1,1.65,1.63,1.14-1.14a.78.78,0,0,0,0-1.1M209,489.17a.25.25,0,0,0,.31.31l2.11-1.08-1.57-1.54Z"/>
  </g>
  <g id="74160d63-2d77-4623-a410-06dfa1e8c696" data-name="g4383">
    <rect id="afadcbdf-e1db-4242-b292-ebca8f2e3d30" data-name="rect4385" x="205.88" y="490.75" width="14" height="2"/>
  </g>
  <path id="72520212-fc53-458e-b230-05dbad3e244a" data-name="path4209" class="0789eb36-21d0-4eae-b05a-50af8118a218" d="M364.88,565.13h2v-14h-2Zm-6-6h14v-2h-14Z"/>
  <g id="446bcc4f-b2f0-43a8-ae37-27772fd928b3" data-name="g4365">
    <g id="81d14e70-bb05-4770-9a11-a86d83671f65" data-name="g4367">
      <path id="99623cb1-1966-4e23-9172-429e4d254c3c" data-name="path4369" class="0789eb36-21d0-4eae-b05a-50af8118a218" d="M367,524.25h-5.62v1.38H367Zm0-3.12h-5.62v1.37H367Zm-4.75-6v2.75h-3.37v11H369.5v-2.75h3.38v-11Zm5.63,12.07H360.5v-7.7h7.38Zm3.31-2.75H369.5v-6.57h-5.62V517h7.31Z"/>
    </g>
  </g>
  <g id="6da25191-d089-4911-bd07-5565f6a150b8" data-name="g4375">
    <path id="ebcf02af-da0b-4654-a8dc-b50efbd68039" data-name="path4377" class="0789eb36-21d0-4eae-b05a-50af8118a218" d="M369.27,480.45l1.64,1.64-5.78,5.79-1.65-1.64Zm3.38-1.2-.38-.37a1,1,0,0,0-1.43,0l-1,1,1.65,1.63,1.14-1.14a.78.78,0,0,0,0-1.1M362,489.17a.25.25,0,0,0,.31.31l2.11-1.08-1.57-1.54Z"/>
  </g>
  <g id="2cc3dc5b-9f65-4ca2-b0e8-60c17e4f28a5" data-name="g4383">
    <rect id="7b58bb62-0b36-4131-a572-2ada838fe8c3" data-name="rect4385" class="0789eb36-21d0-4eae-b05a-50af8118a218" x="358.88" y="490.75" width="14" height="2"/>
  </g>
  <g>
    <polygon points="91.63 227 93.63 229 91 231.64 92.36 233 94.99 230.37 97 232.37 97 227 91.63 227"/>
    <polygon points="87.64 235 85.01 237.63 83 235.63 83 241 88.37 241 86.37 239 89 236.36 87.64 235"/>
    <polygon points="88.37 227 83 227 83 232.37 85 230.37 87.64 233 89 231.64 86.37 229.01 88.37 227"/>
    <polygon points="92.36 235 91 236.36 93.63 238.99 91.63 241 97 241 97 235.63 95 237.63 92.36 235"/>
  </g>
  <g>
    <polygon class="0789eb36-21d0-4eae-b05a-50af8118a218" points="91.63 263 93.63 265 91 267.64 92.36 269 94.99 266.37 97 268.37 97 263 91.63 263"/>
    <polygon class="0789eb36-21d0-4eae-b05a-50af8118a218" points="87.64 271 85.01 273.63 83 271.63 83 277 88.37 277 86.37 275 89 272.36 87.64 271"/>
    <polygon class="0789eb36-21d0-4eae-b05a-50af8118a218" points="88.37 263 83 263 83 268.37 85 266.37 87.64 269 89 267.64 86.37 265.01 88.37 263"/>
    <polygon class="0789eb36-21d0-4eae-b05a-50af8118a218" points="92.36 271 91 272.36 93.63 274.99 91.63 277 97 277 97 271.63 95 273.63 92.36 271"/>
  </g>
  <g id="63c086b2-a3fd-4143-ad0e-c88609d39392" data-name="Page-1">
    <g id="7467158f-c57e-4185-ad88-af6a430e3906" data-name="Icons-Device">
      <g id="061d3ff4-9ac9-45bf-9d84-39b964240c59" data-name="access-time">
        <path id="0390a301-7d2c-448e-8162-31d223d7c677" data-name="Shape" class="ffe02a8f-c2bb-4f0c-a22b-162af482b76d" d="M258.16,587a7.16,7.16,0,1,0,7.15,7.16,7.18,7.18,0,0,0-7.15-7.16Zm0,12.88a5.73,5.73,0,1,1,5.72-5.72A5.75,5.75,0,0,1,258.16,599.88Zm.35-9.3h-1.07v4.29l3.72,2.29.57-.93-3.22-1.93Z"/>
      </g>
    </g>
  </g>
  <g id="609c0d4f-81bf-4809-825d-12620b4e3016" data-name="Page-1">
    <g id="b506159a-5fa0-4dc9-9150-32ff31b28750" data-name="Icons-Device">
      <g id="2c3569e9-2d61-4aa6-a354-77ee8fc7007f" data-name="access-time">
        <path id="5c7d0cb4-08af-4f0a-b7cb-7a56f74073a6" data-name="Shape" class="18786cd9-6dc7-4241-b0bc-196ca0e0b66d" d="M411.16,587a7.16,7.16,0,1,0,7.15,7.16,7.18,7.18,0,0,0-7.15-7.16Zm0,12.88a5.73,5.73,0,1,1,5.72-5.72A5.75,5.75,0,0,1,411.16,599.88Zm.35-9.3h-1.07v4.29l3.72,2.29.57-.93-3.22-1.93Z"/>
      </g>
    </g>
  </g>
  <g id="42533781-0979-4a5b-b3f1-54f55de4fb0f" data-name="Page-1">
    <g id="644a0ac4-32fa-4d8b-9df7-d1ccb12a213f" data-name="Icons-Device">
      <g id="09b71bf7-7794-456a-b979-1499f48c0026" data-name="access-time">
        <path id="521b2082-17ed-4cbb-b6c0-b691427df6b6" data-name="Shape" class="18786cd9-6dc7-4241-b0bc-196ca0e0b66d" d="M99.16,587a7.16,7.16,0,1,0,7.15,7.16A7.18,7.18,0,0,0,99.16,587Zm0,12.88a5.73,5.73,0,1,1,5.72-5.72A5.75,5.75,0,0,1,99.16,599.88Zm.35-9.3H98.44v4.29l3.72,2.29.57-.93-3.22-1.93Z"/>
      </g>
    </g>
  </g>
  <path class="0789eb36-21d0-4eae-b05a-50af8118a218" d="M258.21,52.56a4.78,4.78,0,0,0-4.38-4.51A5.05,5.05,0,0,0,248.05,52a4,4,0,0,0,0,.6h0v3.11A1.46,1.46,0,0,0,249.52,57H251V53.68h-1.76V52.55h0a2.15,2.15,0,0,1,0-.43,3.77,3.77,0,0,1,4.33-2.93,3.58,3.58,0,0,1,3.28,3.41h0v1.08h-1.75V57h1.61a2.32,2.32,0,0,1-.56.93,2.63,2.63,0,0,1-1.06.61,1,1,0,0,0-.78-.38h-.58a.88.88,0,1,0,0,1.75h.58a1,1,0,0,0,.9-.57,3.49,3.49,0,0,0,1.58-.88,3,3,0,0,0,.9-1.85,1.35,1.35,0,0,0,.45-1V52.55Z"/>
  <path d="M258.21,88.62a4.79,4.79,0,0,0-4.38-4.51A5.05,5.05,0,0,0,248.05,88a4,4,0,0,0,0,.6h0v3.12a1.45,1.45,0,0,0,1.52,1.37H251V89.75h-1.76V88.62h0a2,2,0,0,1,0-.43,3.78,3.78,0,0,1,4.33-2.94,3.59,3.59,0,0,1,3.28,3.42h0v1.08h-1.75V93.1h1.61a2.19,2.19,0,0,1-.56.93,2.54,2.54,0,0,1-1.06.62,1,1,0,0,0-.78-.38h-.58a.87.87,0,1,0,0,1.74h.58a1,1,0,0,0,.9-.57,3.4,3.4,0,0,0,1.58-.88,3,3,0,0,0,.9-1.85,1.33,1.33,0,0,0,.45-1V88.61Z"/>
  <path class="8003d4ca-c78e-4108-b720-717a9609a63f" d="M258.21,16.56a4.78,4.78,0,0,0-4.38-4.51A5.05,5.05,0,0,0,248.05,16a4,4,0,0,0,0,.6h0v3.11A1.46,1.46,0,0,0,249.52,21H251V17.68h-1.76V16.55h0a2.15,2.15,0,0,1,0-.43,3.77,3.77,0,0,1,4.33-2.93,3.58,3.58,0,0,1,3.28,3.41h0v1.08h-1.75V21h1.61a2.32,2.32,0,0,1-.56.93,2.63,2.63,0,0,1-1.06.61,1,1,0,0,0-.78-.38h-.58a.88.88,0,1,0,0,1.75h.58a1,1,0,0,0,.9-.57,3.49,3.49,0,0,0,1.58-.88,3,3,0,0,0,.9-1.85,1.35,1.35,0,0,0,.45-1V16.55Z"/>
</svg>
