<?xml version="1.0" encoding="UTF-8" standalone="no"?>
<!-- Created with Inkscape (http://www.inkscape.org/) -->
<svg xmlns:dc="http://purl.org/dc/elements/1.1/" xmlns:cc="http://creativecommons.org/ns#" xmlns:rdf="http://www.w3.org/1999/02/22-rdf-syntax-ns#" xmlns:svg="http://www.w3.org/2000/svg" xmlns="http://www.w3.org/2000/svg" xmlns:xlink="http://www.w3.org/1999/xlink" xmlns:sodipodi="http://sodipodi.sourceforge.net/DTD/sodipodi-0.dtd" xmlns:inkscape="http://www.inkscape.org/namespaces/inkscape" width="127.99999" height="119.29203" id="svg135659" version="1.1" inkscape:version="0.48.0 r9654" sodipodi:docname="Printer.svg">
  <defs id="defs135661">
    <filter inkscape:collect="always" id="filter76760-6" x="-0.041678306" width="1.0833566" y="-0.13272315" height="1.2654463" color-interpolation-filters="sRGB">
      <feGaussianBlur inkscape:collect="always" stdDeviation="3.0207789" id="feGaussianBlur76762-1"/>
    </filter>
    <linearGradient y2="7304.1592" x2="443.70435" y1="7314.8599" x1="443.70435" gradientUnits="userSpaceOnUse" id="linearGradient69341-8" xlink:href="#linearGradient76812-4" inkscape:collect="always"/>
    <linearGradient id="linearGradient76812-4">
      <stop id="stop76814-9" offset="0" style="stop-color:#000000;stop-opacity:1;"/>
      <stop style="stop-color:#bbbbbb;stop-opacity:1;" offset="0.61109358" id="stop76816-6"/>
      <stop id="stop76818-3" offset="1" style="stop-color:#000000;stop-opacity:1;"/>
    </linearGradient>
    <filter inkscape:collect="always" id="filter76754-7" x="-0.041822508" width="1.083645" y="-0.51368457" height="2.0273693" color-interpolation-filters="sRGB">
      <feGaussianBlur inkscape:collect="always" stdDeviation="4.1241809" id="feGaussianBlur76756-8"/>
    </filter>
    <linearGradient inkscape:collect="always" xlink:href="#linearGradient76598-2" id="linearGradient40342-8" gradientUnits="userSpaceOnUse" x1="460.97647" y1="7136.0518" x2="462.45685" y2="7371.2422"/>
    <linearGradient id="linearGradient76598-2">
      <stop style="stop-color:#f9f9f9;stop-opacity:1;" offset="0" id="stop76600-9"/>
      <stop style="stop-color:#5a5a5a;stop-opacity:1;" offset="1" id="stop76602-1"/>
    </linearGradient>
    <linearGradient inkscape:collect="always" xlink:href="#linearGradient76704-5" id="linearGradient40344-3" gradientUnits="userSpaceOnUse" x1="355.10181" y1="7299.9707" x2="355.76944" y2="7236.9707"/>
    <linearGradient id="linearGradient76704-5">
      <stop style="stop-color:#939393;stop-opacity:1;" offset="0" id="stop76706-9"/>
      <stop style="stop-color:#d6d6d6;stop-opacity:1;" offset="1" id="stop76708-8"/>
    </linearGradient>
    <linearGradient inkscape:collect="always" xlink:href="#linearGradient76606-0" id="linearGradient40346-4" gradientUnits="userSpaceOnUse" x1="378.5" y1="7283.9736" x2="378.5" y2="7253.7314"/>
    <linearGradient id="linearGradient76606-0">
      <stop style="stop-color:#1d1e1e;stop-opacity:1;" offset="0" id="stop76608-7"/>
      <stop style="stop-color:#c1c3c3;stop-opacity:1;" offset="1" id="stop76610-6"/>
    </linearGradient>
    <linearGradient inkscape:collect="always" xlink:href="#linearGradient40094-6" id="linearGradient40348-3" gradientUnits="userSpaceOnUse" x1="337.74893" y1="7269.7163" x2="337.74893" y2="7229.0669"/>
    <linearGradient id="linearGradient40094-6">
      <stop id="stop40096-1" offset="0" style="stop-color:#2d2d2d;stop-opacity:1;"/>
      <stop id="stop40098-5" offset="1" style="stop-color:#f5f5f5;stop-opacity:0.27450982;"/>
    </linearGradient>
    <linearGradient inkscape:collect="always" xlink:href="#linearGradient76812-4" id="linearGradient40340-4" gradientUnits="userSpaceOnUse" x1="443.70435" y1="7314.8599" x2="443.70435" y2="7304.1592"/>
    <linearGradient id="linearGradient135492">
      <stop id="stop135494" offset="0" style="stop-color:#000000;stop-opacity:1;"/>
      <stop style="stop-color:#bbbbbb;stop-opacity:1;" offset="0.61109358" id="stop135496"/>
      <stop id="stop135498" offset="1" style="stop-color:#000000;stop-opacity:1;"/>
    </linearGradient>
    <linearGradient inkscape:collect="always" xlink:href="#linearGradient76670-0" id="linearGradient40350-2" gradientUnits="userSpaceOnUse" gradientTransform="matrix(0.98898122,0,0,0.6650889,69.670762,2428.3565)" x1="375.6521" y1="7217.8555" x2="375.6521" y2="7191.9053"/>
    <linearGradient id="linearGradient76670-0">
      <stop id="stop76672-9" offset="0" style="stop-color:#c0c0c0;stop-opacity:1;"/>
      <stop style="stop-color:#dfdfdf;stop-opacity:1;" offset="0.35685185" id="stop76674-7"/>
      <stop id="stop76676-3" offset="1" style="stop-color:#9c9c9c;stop-opacity:1;"/>
    </linearGradient>
    <linearGradient inkscape:collect="always" xlink:href="#linearGradient76606-0" id="linearGradient40352-7" gradientUnits="userSpaceOnUse" x1="463.79178" y1="7251.1294" x2="464.58942" y2="7142.9424"/>
    <linearGradient id="linearGradient135510">
      <stop style="stop-color:#1d1e1e;stop-opacity:1;" offset="0" id="stop135512"/>
      <stop style="stop-color:#c1c3c3;stop-opacity:1;" offset="1" id="stop135514"/>
    </linearGradient>
    <linearGradient inkscape:collect="always" xlink:href="#linearGradient67848-1" id="linearGradient40354-4" gradientUnits="userSpaceOnUse" x1="455.6145" y1="7216.2612" x2="455.29156" y2="7298.7251" gradientTransform="matrix(1.0679109,0,0,1,-30.941203,0)"/>
    <linearGradient id="linearGradient67848-1">
      <stop style="stop-color:#ffffff;stop-opacity:1;" offset="0" id="stop67850-1"/>
      <stop id="stop67852-2" offset="0.67187059" style="stop-color:#9f9f9f;stop-opacity:1;"/>
      <stop style="stop-color:#ffffff;stop-opacity:1;" offset="1" id="stop67854-3"/>
    </linearGradient>
    <linearGradient inkscape:collect="always" xlink:href="#linearGradient76606-0" id="linearGradient40356-2" gradientUnits="userSpaceOnUse" x1="425.98798" y1="7223.8872" x2="424.01218" y2="7156.2358"/>
    <linearGradient id="linearGradient135522">
      <stop style="stop-color:#1d1e1e;stop-opacity:1;" offset="0" id="stop135524"/>
      <stop style="stop-color:#c1c3c3;stop-opacity:1;" offset="1" id="stop135526"/>
    </linearGradient>
    <linearGradient inkscape:collect="always" xlink:href="#linearGradient76598-2" id="linearGradient40358-6" gradientUnits="userSpaceOnUse" x1="444.30081" y1="7127.9019" x2="444.30081" y2="7170.8936"/>
    <linearGradient id="linearGradient135529">
      <stop style="stop-color:#f9f9f9;stop-opacity:1;" offset="0" id="stop135531"/>
      <stop style="stop-color:#5a5a5a;stop-opacity:1;" offset="1" id="stop135533"/>
    </linearGradient>
    <linearGradient inkscape:collect="always" xlink:href="#linearGradient76834-1" id="linearGradient40360-0" gradientUnits="userSpaceOnUse" gradientTransform="matrix(0.77806877,0,0,0.59593611,152.00841,2926.0057)" x1="375.00946" y1="7224.8975" x2="375.00946" y2="7192.3247"/>
    <linearGradient id="linearGradient76834-1">
      <stop id="stop76836-6" offset="0" style="stop-color:#000000;stop-opacity:1;"/>
      <stop style="stop-color:#bbbbbb;stop-opacity:1;" offset="0.4470056" id="stop76838-5"/>
      <stop id="stop76840-7" offset="1" style="stop-color:#000000;stop-opacity:1;"/>
    </linearGradient>
    <linearGradient inkscape:collect="always" xlink:href="#linearGradient76680-4" id="linearGradient40362-5" gradientUnits="userSpaceOnUse" gradientTransform="translate(4.0838175,0)" x1="1896.6582" y1="7396.7222" x2="1894.3082" y2="7398.7622"/>
    <linearGradient inkscape:collect="always" id="linearGradient76680-4">
      <stop style="stop-color:#3c3c3c;stop-opacity:1;" offset="0" id="stop76682-1"/>
      <stop style="stop-color:#3c3c3c;stop-opacity:0;" offset="1" id="stop76684-2"/>
    </linearGradient>
    <linearGradient inkscape:collect="always" xlink:href="#linearGradient76688-0" id="linearGradient40364-0" gradientUnits="userSpaceOnUse" gradientTransform="translate(4.0838175,0)" x1="1894.3082" y1="7398.7622" x2="1916.5155" y2="7412.7842"/>
    <linearGradient inkscape:collect="always" id="linearGradient76688-0">
      <stop style="stop-color:#b1b1b1;stop-opacity:1;" offset="0" id="stop76690-1"/>
      <stop style="stop-color:#b1b1b1;stop-opacity:0;" offset="1" id="stop76692-4"/>
    </linearGradient>
  </defs>
  <sodipodi:namedview id="base" pagecolor="#ffffff" bordercolor="#666666" borderopacity="1.0" inkscape:pageopacity="0.0" inkscape:pageshadow="2" inkscape:zoom="0.98994949" inkscape:cx="147.60167" inkscape:cy="150.92638" inkscape:document-units="px" inkscape:current-layer="g70720" showgrid="false" fit-margin-top="0" fit-margin-left="0" fit-margin-right="0" fit-margin-bottom="0" inkscape:window-width="1280" inkscape:window-height="968" inkscape:window-x="-4" inkscape:window-y="-4" inkscape:window-maximized="1"/>
  <metadata id="metadata135664">
    <rdf:RDF>
      <cc:Work rdf:about="">
        <dc:format>image/svg+xml</dc:format>
        <dc:type rdf:resource="http://purl.org/dc/dcmitype/StillImage"/>
        <dc:title/>
      </cc:Work>
    </rdf:RDF>
  </metadata>
  <g inkscape:label="Layer 1" inkscape:groupmode="layer" id="layer1" transform="translate(-321.71429,-498.43393)">
    <g transform="translate(853.71429,80.714243)" style="display:inline" id="g70720">
      <g id="g68677" style="display:inline" transform="matrix(0.47886735,0,0,0.47886735,-686.34131,-2978.8116)">
        <path sodipodi:nodetypes="ccccc" inkscape:connector-curvature="0" d="m 377.83277,7273.0359 154.67961,0 10.07627,54.624 -173.94827,0 z" style="opacity:0.57399101;fill:#2e2e2e;fill-opacity:1;fill-rule:nonzero;stroke:#cccccc;filter:url(#filter76760-6)" id="path78179" transform="matrix(1.0743927,0,0,1.1050228,-33.894401,-763.83437)"/>
        <path id="path78181" style="opacity:0.57399101;fill:url(#linearGradient69341-8);fill-opacity:1;fill-rule:nonzero;stroke:none;filter:url(#filter76754-7)" d="m 339.38384,7303.088 233.6104,-0.2221 c 0.90697,-10.1609 -4.48981,-11.8963 -4.30991,-14.0489 0.32004,-3.8895 -6.6368,-4.9977 -15.84263,-4.9977 l -192.6866,0 c -9.20582,0 -16.67273,0.3947 -15.91421,4.8156 -0.46153,4.4291 -6.42034,6.6514 -4.85705,14.4531 z" inkscape:connector-curvature="0" sodipodi:nodetypes="cccsscc" transform="matrix(1.0533058,0,0,2.7443518,-24.469778,-12752.93)"/>
        <path id="path78183" style="fill:#b3b3b3;fill-opacity:1;fill-rule:nonzero;stroke:none" d="m 294.86353,7149.9639 192.6866,0 c 9.20583,0 11.98244,7.6681 14.14214,16.617 7.17711,29.7389 6.32501,58.2861 7.07106,87.1509 0.32004,12.3822 -12.00737,15.9099 -21.2132,15.9099 l -192.6866,0 c -9.20582,0 -23.38594,-2.8967 -22.62742,-16.9706 1.51544,-28.1177 0.89041,-54.5231 6.71752,-86.0902 1.6711,-9.0529 6.70408,-16.617 15.9099,-16.617 z" inkscape:connector-curvature="0" sodipodi:nodetypes="sssssssss" transform="translate(65.29157,14.177646)"/>
        <path id="path78185" style="fill:url(#linearGradient40342-8);fill-opacity:1;fill-rule:nonzero;stroke:#000000;stroke-width:0.5;stroke-miterlimit:4;stroke-opacity:1;stroke-dasharray:none" d="m 375.41657,7093.0829 160.61244,0 0,79.5 -160.61244,0 z" inkscape:connector-curvature="0" sodipodi:nodetypes="ccccc"/>
        <path sodipodi:nodetypes="cccsscc" inkscape:connector-curvature="0" d="m 274.09227,7208.3002 233.6104,0.7071 c 0.90697,32.3471 0.88076,37.8716 1.06066,44.7245 0.32004,12.3822 -12.00737,15.9099 -21.2132,15.9099 l -192.6866,0 c -9.20582,0 -23.38594,-2.8967 -22.62742,-16.9706 -0.46153,-14.1 0.29287,-19.5341 1.85616,-44.3709 z" style="fill:url(#linearGradient40344-3);fill-opacity:1;fill-rule:nonzero;stroke:none" id="path78187" transform="translate(65.29157,14.177646)"/>
        <path transform="translate(65.29157,14.177646)" id="path78189" style="fill:url(#linearGradient40346-4);fill-opacity:1;fill-rule:nonzero;stroke:url(#linearGradient40348-3)" d="m 274.09227,7208.3002 233.6104,0.7071 c 0.90697,32.3471 0.88076,37.8716 1.06066,44.7245 0.32004,12.3822 -12.00737,15.9099 -21.2132,15.9099 l -192.6866,0 c -9.20582,0 -23.38594,-2.8967 -22.62742,-16.9706 -0.46153,-14.1 0.29287,-19.5341 1.85616,-44.3709 z" inkscape:connector-curvature="0" sodipodi:nodetypes="cccsscc"/>
        <path transform="matrix(1.0533058,0,0,2.7443518,-24.469778,-12752.93)" sodipodi:nodetypes="cccsscc" inkscape:connector-curvature="0" d="m 339.38384,7303.088 233.6104,-0.2221 c 0.90697,-10.1609 -4.48981,-11.8963 -4.30991,-14.0489 0.32004,-3.8895 -6.6368,-4.9977 -15.84263,-4.9977 l -192.6866,0 c -9.20582,0 -16.67273,0.3947 -15.91421,4.8156 -0.46153,4.4291 -6.42034,6.6514 -4.85705,14.4531 z" style="opacity:0.4;fill:url(#linearGradient40340-4);fill-opacity:1;fill-rule:nonzero;stroke:none;filter:url(#filter76754-7)" id="path67905"/>
        <path sodipodi:nodetypes="ccccc" inkscape:connector-curvature="0" d="m 572.16303,7214.5837 c 0.51856,3.1365 0.90254,9.0192 0.90336,13.2243 l -233.91988,0 c 0.18244,-2.977 0.36703,-8.0202 0.79731,-13.1681 77.31802,-0.019 154.9012,-0.038 232.21921,-0.056 z" style="fill:url(#linearGradient40350-2);fill-opacity:1;fill-rule:nonzero;stroke:none" id="path78191"/>
        <path id="path78193" style="fill:#535353;fill-opacity:1;fill-rule:nonzero;stroke:none" d="m 363.38126,7265.1555 184.2897,-1.0028 -0.13258,19.2633 -183.84776,0 z" inkscape:connector-curvature="0" sodipodi:nodetypes="ccccc"/>
        <path id="path78195" style="fill:url(#linearGradient40352-7);fill-opacity:1;fill-rule:nonzero;stroke:none" d="m 370.0546,7164.1413 2.12131,0 0,-28.0896 c 2.42698,0 4.82252,0 7.18697,0 l 2.0528,28.0896 148.01314,0 2.85568,-28.3284 7.07791,0 -0.0442,28.1533 2.20979,0 6.5,64.3684 -0.34367,36.219 c -2.51053,5.7957 -9.41238,7.3442 -15.1783,8.4603 l -154.33447,0.091 c -7.49851,0.1501 -13.5475,-4.5119 -14.78894,-7.8466 l 0.17198,-37.6738 z" inkscape:connector-curvature="0" sodipodi:nodetypes="ccccccccccccccccc"/>
        <path id="path78197-6" style="fill:url(#linearGradient40354-4);fill-opacity:1;fill-rule:nonzero;stroke:none" d="m 371.73481,7272.035 4.16035,0.9789 155.78768,0.022 6.05175,-0.9136 10.76055,55.5376 -185.76125,0 z" inkscape:connector-curvature="0" sodipodi:nodetypes="ccccccc"/>
        <path id="path78199" style="fill:url(#linearGradient40356-2);fill-opacity:1;fill-rule:nonzero;stroke:none" d="m 370.06931,7164.1413 171.48869,-0.25 4.87554,51.0176 -181.5824,-0.2684 z" inkscape:connector-curvature="0" sodipodi:nodetypes="ccccc"/>
        <path sodipodi:nodetypes="cccccccccccc" inkscape:connector-curvature="0" d="m 377.21145,7164.1157 4.15959,0 -2.22802,-28.0679 c 0.75793,0 1.16962,0 1.50273,0 l 3.49016,28.0679 143.73882,-0.2652 2.54302,-28.0488 1.8954,0 -0.6654,28.1393 2.01622,0 c -146.54105,-0.2361 -8.8736,-0.1846 -156.45259,0.1747 z" style="fill:url(#linearGradient40358-6);fill-opacity:1;fill-rule:nonzero;stroke:none" id="path78201"/>
        <path id="path78203" style="fill:url(#linearGradient40360-0);fill-opacity:1;fill-rule:nonzero;stroke:none" d="m 365.35096,7214.6337 181.23928,-0.081 c 1.57806,14.5239 0.0277,-0.307 1.44019,13.7673 l -184.47841,-0.7182 c -0.10892,-3.4553 0.62426,-7.7708 1.29923,-12.9674 z" inkscape:connector-curvature="0" sodipodi:nodetypes="cccccc"/>
        <rect style="fill:url(#linearGradient40362-5);fill-opacity:1;fill-rule:nonzero;stroke:url(#linearGradient40364-0);stroke-width:0.50492668;stroke-miterlimit:4;stroke-opacity:1;stroke-dasharray:none" id="rect78205" width="10.25" height="9.6881371" x="1903.2469" y="7402.3311" transform="matrix(1,0,-0.19611614,0.98058067,0,0)"/>
        <path sodipodi:type="arc" style="opacity:0.70852015;fill:#ffffff;fill-opacity:1;fill-rule:nonzero;stroke:#808080" id="path78207" sodipodi:cx="495.375" sodipodi:cy="7228.5303" sodipodi:rx="3.625" sodipodi:ry="3.625" d="m 499,7228.5303 c 0,2.002 -1.62297,3.625 -3.625,3.625 -2.00203,0 -3.625,-1.623 -3.625,-3.625 0,-2.0021 1.62297,-3.625 3.625,-3.625 2.00203,0 3.625,1.6229 3.625,3.625 z" transform="translate(65.29157,14.177646)"/>
        <path transform="translate(65.29157,26.707212)" d="m 499,7228.5303 c 0,2.002 -1.62297,3.625 -3.625,3.625 -2.00203,0 -3.625,-1.623 -3.625,-3.625 0,-2.0021 1.62297,-3.625 3.625,-3.625 2.00203,0 3.625,1.6229 3.625,3.625 z" sodipodi:ry="3.625" sodipodi:rx="3.625" sodipodi:cy="7228.5303" sodipodi:cx="495.375" id="path67907" style="opacity:0.70852015;fill:#ffdc2a;fill-opacity:1;fill-rule:nonzero;stroke:none" sodipodi:type="arc"/>
      </g>
      <path sodipodi:nodetypes="ccccc" inkscape:connector-curvature="0" d="m -450.42703,522.0321 18.9593,0 0.66291,4.77298 -19.48963,0 z" style="fill:#666666;fill-opacity:1;fill-rule:nonzero;stroke:none" id="rect39539"/>
      <g transform="matrix(-1,0,-0.1871345,-1,0,0)" style="font-size:4.66575718px;font-style:normal;font-variant:normal;font-weight:normal;font-stretch:normal;line-height:125%;letter-spacing:0px;word-spacing:0px;fill:#ffffff;fill-opacity:1;stroke:none;font-family:Arial;-inkscape-font-specification:Arial" id="text39543">
        <path d="m 530.55538,-522.77234 0,-0.41008 1.71093,-2.13923 c 0.1215,-0.15187 0.23693,-0.28401 0.34629,-0.3964 l -1.86357,0 0,-0.39413 2.39211,0 0,0.39413 -1.87496,2.31693 -0.20276,0.23465 2.1324,0 0,0.39413 z" id="path39756-6" inkscape:connector-curvature="0"/>
        <path d="m 533.30745,-522.77234 1.28263,-3.33984 0.47614,0 1.36692,3.33984 -0.50348,0 -0.38957,-1.01152 -1.39654,0 -0.36679,1.01152 z m 0.96368,-1.37148 1.13226,0 -0.34856,-0.92495 c -0.10632,-0.28097 -0.1853,-0.51183 -0.23693,-0.69257 -0.0425,0.21415 -0.10252,0.42679 -0.17998,0.6379 z" id="path39758-0" inkscape:connector-curvature="0"/>
        <path d="m 536.77259,-522.77234 0,-3.33984 1.25301,0 c 0.25516,0 0.45982,0.0338 0.61398,0.10138 0.15416,0.0676 0.2749,0.17162 0.36223,0.31211 0.0873,0.14049 0.131,0.28744 0.131,0.44083 0,0.14277 -0.0387,0.27719 -0.11619,0.40324 -0.0775,0.12607 -0.19441,0.22783 -0.35084,0.30528 0.202,0.0592 0.35729,0.16024 0.46589,0.303 0.10859,0.14277 0.16289,0.31136 0.16289,0.50577 0,0.15643 -0.033,0.30186 -0.0991,0.43627 -0.0661,0.13442 -0.1477,0.23807 -0.24491,0.31098 -0.0972,0.0729 -0.21908,0.12795 -0.36565,0.16517 -0.14656,0.0372 -0.32616,0.0558 -0.53879,0.0558 z m 0.44197,-1.93647 0.72219,0 c 0.19593,0 0.33642,-0.0129 0.42147,-0.0387 0.11239,-0.0334 0.19706,-0.0889 0.25402,-0.16631 0.0569,-0.0775 0.0854,-0.17466 0.0854,-0.29161 0,-0.11087 -0.0266,-0.20845 -0.0797,-0.29275 -0.0532,-0.0843 -0.1291,-0.142 -0.22782,-0.17314 -0.0987,-0.0311 -0.26807,-0.0467 -0.50804,-0.0467 l -0.66752,0 z m 0,1.54234 0.83155,0 c 0.14276,0 0.243,-0.005 0.30072,-0.0159 0.10176,-0.0182 0.18681,-0.0486 0.25516,-0.0911 0.0683,-0.0425 0.12454,-0.10442 0.16859,-0.18568 0.044,-0.0813 0.0661,-0.17504 0.0661,-0.28135 0,-0.12455 -0.0319,-0.23276 -0.0957,-0.32465 -0.0638,-0.0919 -0.15226,-0.15643 -0.26541,-0.19365 -0.11315,-0.0372 -0.27604,-0.0558 -0.48867,-0.0558 l -0.77232,0 z" id="path39760-7" inkscape:connector-curvature="0"/>
        <path d="m 539.88917,-522.77234 0,-3.33984 1.25301,0 c 0.25516,0 0.45982,0.0338 0.61398,0.10138 0.15416,0.0676 0.2749,0.17162 0.36223,0.31211 0.0873,0.14049 0.131,0.28744 0.131,0.44083 0,0.14277 -0.0387,0.27719 -0.11619,0.40324 -0.0775,0.12607 -0.19441,0.22783 -0.35084,0.30528 0.202,0.0592 0.35729,0.16024 0.46589,0.303 0.10859,0.14277 0.16289,0.31136 0.16289,0.50577 0,0.15643 -0.033,0.30186 -0.0991,0.43627 -0.0661,0.13442 -0.1477,0.23807 -0.24491,0.31098 -0.0972,0.0729 -0.21908,0.12795 -0.36565,0.16517 -0.14656,0.0372 -0.32616,0.0558 -0.53879,0.0558 z m 0.44197,-1.93647 0.72219,0 c 0.19593,0 0.33642,-0.0129 0.42147,-0.0387 0.11239,-0.0334 0.19706,-0.0889 0.25402,-0.16631 0.0569,-0.0775 0.0854,-0.17466 0.0854,-0.29161 0,-0.11087 -0.0266,-0.20845 -0.0797,-0.29275 -0.0532,-0.0843 -0.1291,-0.142 -0.22782,-0.17314 -0.0987,-0.0311 -0.26807,-0.0467 -0.50804,-0.0467 l -0.66752,0 z m 0,1.54234 0.83155,0 c 0.14276,0 0.243,-0.005 0.30072,-0.0159 0.10176,-0.0182 0.18681,-0.0486 0.25516,-0.0911 0.0683,-0.0425 0.12454,-0.10442 0.16859,-0.18568 0.044,-0.0813 0.0661,-0.17504 0.0661,-0.28135 0,-0.12455 -0.0319,-0.23276 -0.0957,-0.32465 -0.0638,-0.0919 -0.15226,-0.15643 -0.26541,-0.19365 -0.11315,-0.0372 -0.27604,-0.0558 -0.48867,-0.0558 l -0.77232,0 z" id="path39762-1" inkscape:connector-curvature="0"/>
        <path d="m 543.09916,-522.77234 0,-3.33984 0.44197,0 0,3.33984 z" id="path39764-7" inkscape:connector-curvature="0"/>
        <path d="m 543.97855,-522.77234 1.29174,-1.74055 -1.1391,-1.59929 0.52626,0 0.606,0.8566 c 0.12606,0.1777 0.21567,0.3144 0.26883,0.41008 0.0744,-0.1215 0.16251,-0.24832 0.26427,-0.38046 l 0.67207,-0.88622 0.4807,0 -1.17327,1.57423 1.2644,1.76561 -0.54677,0 -0.84066,-1.1915 c -0.0471,-0.0683 -0.0957,-0.14276 -0.1458,-0.22326 -0.0744,0.1215 -0.12758,0.20504 -0.15947,0.2506 l -0.83838,1.16416 z" id="path39766-7" inkscape:connector-curvature="0"/>
      </g>
    </g>
  </g>
</svg>
