<?xml version="1.0" encoding="UTF-8" standalone="no"?>
<!-- Created with Inkscape (http://www.inkscape.org/) -->

<svg
   xmlns:dc="http://purl.org/dc/elements/1.1/"
   xmlns:cc="http://creativecommons.org/ns#"
   xmlns:rdf="http://www.w3.org/1999/02/22-rdf-syntax-ns#"
   xmlns:svg="http://www.w3.org/2000/svg"
   xmlns="http://www.w3.org/2000/svg"
   xmlns:xlink="http://www.w3.org/1999/xlink"
   xmlns:sodipodi="http://sodipodi.sourceforge.net/DTD/sodipodi-0.dtd"
   xmlns:inkscape="http://www.inkscape.org/namespaces/inkscape"
   width="128.00603"
   height="26.677349"
   id="svg163767"
   version="1.1"
   inkscape:version="0.48.0 r9654"
   sodipodi:docname="New document 72">
  <defs
     id="defs163769">
    <linearGradient
       y2="7986.2241"
       x2="407.36697"
       y1="8015.7466"
       x1="407.2959"
       gradientTransform="matrix(1.0820341,0,0,1.0820341,1141.4661,-641.17195)"
       gradientUnits="userSpaceOnUse"
       id="linearGradient33761-8-3"
       xlink:href="#linearGradient42443-7-52-0-7-9"
       inkscape:collect="always" />
    <linearGradient
       id="linearGradient42443-7-52-0-7-9">
      <stop
         id="stop42445-53-8-3-8-0"
         offset="0"
         style="stop-color:#000000;stop-opacity:1;" />
      <stop
         style="stop-color:#bbbbbb;stop-opacity:1;"
         offset="0.3702293"
         id="stop42447-0-2-7-4-5-0" />
      <stop
         id="stop42449-3-19-2-9-6"
         offset="1"
         style="stop-color:#000000;stop-opacity:1;" />
    </linearGradient>
    <linearGradient
       inkscape:collect="always"
       xlink:href="#linearGradient42443-7-52-0-7-9"
       id="linearGradient33387-4-4"
       gradientUnits="userSpaceOnUse"
       gradientTransform="matrix(1.0820341,0,0,1.0820341,1140.5063,-641.17195)"
       x1="364.44846"
       y1="8003.1118"
       x2="393.69363"
       y2="8012.6118" />
    <linearGradient
       id="linearGradient163651">
      <stop
         id="stop163653"
         offset="0"
         style="stop-color:#000000;stop-opacity:1;" />
      <stop
         style="stop-color:#bbbbbb;stop-opacity:1;"
         offset="0.3702293"
         id="stop163655" />
      <stop
         id="stop163657"
         offset="1"
         style="stop-color:#000000;stop-opacity:1;" />
    </linearGradient>
    <inkscape:path-effect
       is_visible="true"
       id="path-effect45449-51-8-3-9-0"
       effect="spiro" />
    <inkscape:path-effect
       is_visible="true"
       id="path-effect45451-306-5-5-5-5"
       effect="spiro" />
    <linearGradient
       inkscape:collect="always"
       xlink:href="#linearGradient48206-5-6-8-6-4"
       id="linearGradient33354-7-6"
       gradientUnits="userSpaceOnUse"
       gradientTransform="matrix(1.0820341,0,-0.03023962,1.0816114,1143.3659,-641.17195)"
       x1="675.60059"
       y1="8005.3086"
       x2="675.54651"
       y2="7999.9312" />
    <linearGradient
       id="linearGradient48206-5-6-8-6-4">
      <stop
         style="stop-color:#ffffff;stop-opacity:1;"
         offset="0"
         id="stop48208-6-76-6-4-8" />
      <stop
         style="stop-color:#27343c;stop-opacity:1;"
         offset="1"
         id="stop48210-0-7-9-74-6" />
    </linearGradient>
    <linearGradient
       inkscape:collect="always"
       xlink:href="#linearGradient46818-2-5-4-29-6"
       id="linearGradient33342-1-0"
       gradientUnits="userSpaceOnUse"
       gradientTransform="matrix(1.0820341,0,0,1.0820341,1131.8061,-641.27598)"
       x1="596.23846"
       y1="8003.4058"
       x2="596.36462"
       y2="8010.4072" />
    <linearGradient
       inkscape:collect="always"
       id="linearGradient46818-2-5-4-29-6">
      <stop
         style="stop-color:#333333;stop-opacity:1;"
         offset="0"
         id="stop46820-7-5-2-0-0" />
      <stop
         style="stop-color:#333333;stop-opacity:0;"
         offset="1"
         id="stop46822-37-28-8-8-2" />
    </linearGradient>
    <linearGradient
       inkscape:collect="always"
       xlink:href="#linearGradient76654-2-7-9-5-1-5"
       id="linearGradient33300-6"
       gradientUnits="userSpaceOnUse"
       gradientTransform="matrix(1.0820341,0,0,1.0820341,1142.2435,-641.17195)"
       x1="491.4574"
       y1="8005.355"
       x2="471.42123"
       y2="8002.9468" />
    <linearGradient
       id="linearGradient76654-2-7-9-5-1-5">
      <stop
         style="stop-color:#000000;stop-opacity:1;"
         offset="0"
         id="stop76656-2-2-6-4-9-0" />
      <stop
         id="stop76664-9-25-9-0-8-2"
         offset="0.35685185"
         style="stop-color:#bbbbbb;stop-opacity:1;" />
      <stop
         style="stop-color:#000000;stop-opacity:1;"
         offset="1"
         id="stop76658-9-5-21-6-7-8" />
    </linearGradient>
    <inkscape:path-effect
       effect="spiro"
       id="path-effect45434-5-3-2-9-6"
       is_visible="true" />
    <inkscape:path-effect
       effect="spiro"
       id="path-effect45430-8-1-9-6-8"
       is_visible="true" />
    <inkscape:path-effect
       effect="spiro"
       id="path-effect4332-2-9"
       is_visible="true" />
  </defs>
  <sodipodi:namedview
     id="base"
     pagecolor="#ffffff"
     bordercolor="#666666"
     borderopacity="1.0"
     inkscape:pageopacity="0.0"
     inkscape:pageshadow="2"
     inkscape:zoom="0.35"
     inkscape:cx="150.44095"
     inkscape:cy="104.76837"
     inkscape:document-units="px"
     inkscape:current-layer="layer1"
     showgrid="false"
     fit-margin-top="0"
     fit-margin-left="0"
     fit-margin-right="0"
     fit-margin-bottom="0"
     inkscape:window-width="471"
     inkscape:window-height="431"
     inkscape:window-x="22"
     inkscape:window-y="29"
     inkscape:window-maximized="0" />
  <metadata
     id="metadata163772">
    <rdf:RDF>
      <cc:Work
         rdf:about="">
        <dc:format>image/svg+xml</dc:format>
        <dc:type
           rdf:resource="http://purl.org/dc/dcmitype/StillImage" />
        <dc:title></dc:title>
      </cc:Work>
    </rdf:RDF>
  </metadata>
  <g
     inkscape:label="Layer 1"
     inkscape:groupmode="layer"
     id="layer1"
     transform="translate(-224.55905,-610.4532)">
    <g
       transform="translate(-1305.8443,-7388.6507)"
       style="display:inline"
       id="g31319"
       inkscape:export-filename="C:\Documents and Settings\Elvis Čauss\Desktop\Zabbix Frontend\Default map icons\Large\Zabbix_server_3D.png"
       inkscape:export-xdpi="90"
       inkscape:export-ydpi="90">
      <path
         inkscape:connector-curvature="0"
         d="m 1536.1605,8008.3071 0.136,16.8934 116.5295,0.3783 -0.2699,-17.2934 -31.8128,-9.1815 -53.7545,0 z"
         style="fill:url(#linearGradient33761-8-3);fill-opacity:1;fill-rule:nonzero;stroke:none"
         id="path47635-7-3-1-0"
         sodipodi:nodetypes="ccccccc" />
      <path
         sodipodi:nodetypes="ccccc"
         id="path47637-4-5-0-4"
         style="fill:#3e424b;fill-opacity:1;fill-rule:nonzero;stroke:#7b7b7b;stroke-width:0.94771594;stroke-opacity:1"
         d="m 1536.6642,8008.7749 115.4487,0 0,16.5302 -115.4487,0 z"
         inkscape:connector-curvature="0" />
      <path
         inkscape:connector-curvature="0"
         d="m 1553.7254,8008.7749 62.1557,0 0,16.5302 -62.1557,0 z"
         style="fill:#474f51;fill-opacity:1;fill-rule:nonzero;stroke:#848484;stroke-width:0.86010271;stroke-opacity:1"
         id="path47645-2-1-4-7"
         sodipodi:nodetypes="ccccc" />
      <rect
         style="fill:#d40000;fill-opacity:1;fill-rule:nonzero;stroke:none"
         id="rect4314"
         width="15.593775"
         height="15.593775"
         x="1537.745"
         y="8009.1689"
         ry="0"
         inkscape:export-filename="C:\Documents and Settings\Elvis Čauss\Desktop\text4214.png"
         inkscape:export-xdpi="90"
         inkscape:export-ydpi="90" />
      <path
         inkscape:connector-curvature="0"
         id="path47647-5-9-5-7"
         d="m 1537.3686,8009.2565 c 0.7616,0 1.4037,0.8273 1.4533,1.8556 l 0.6205,12.5477 c 0.05,1.0281 -0.5285,1.8557 -1.29,1.8557 l -5.5518,0 c -0.7615,0 -1.4038,-0.8276 -1.4533,-1.8557 l -0.147,-3.0263 0.8491,-0.1333 0,-5.8098 -1.143,0.1544 -0.1796,-3.7333 c -0.05,-1.0281 0.5285,-1.8557 1.29,-1.8557 l 5.5518,0 z m -2.7269,6.075 c -0.2416,0.014 -0.427,0.5598 -0.4082,1.2151 0.019,0.655 0.2319,1.1613 0.4735,1.1487 0.2416,-0.014 0.4107,-0.538 0.3919,-1.193 -0.019,-0.6552 -0.2156,-1.1835 -0.4572,-1.1708 z"
         style="fill:url(#linearGradient33387-4-4);fill-opacity:1;fill-rule:nonzero;stroke:#000000;stroke-width:0.21640682;stroke-miterlimit:4;stroke-dasharray:none" />
      <path
         sodipodi:nodetypes="cccccccccc"
         inkscape:connector-curvature="0"
         inkscape:original-d="m 1535.2402,8010.9035 c -0.062,-0.846 -0.4414,-0.5646 -1.119,-0.079 l -1.3653,1.8238 0.3256,12.2874 c 0.3058,0.6698 0.6828,0.3005 1.1237,0.1333 l 1.577,-2.1767 c -0.3209,-0.5604 -0.4055,-0.2753 -0.9297,-0.054 l -0.6884,0.5188 -0.2953,-10.5374 z"
         inkscape:path-effect="#path-effect45449-51-8-3-9-0"
         id="path47649-7-02-5-4"
         d="m 1535.2402,8010.9035 -1.119,-0.079 -1.3653,1.8238 0.3256,12.2874 1.1237,0.1333 1.577,-2.1767 -0.9297,-0.054 -0.6884,0.5188 -0.2953,-10.5374 1.3714,-1.9162"
         style="fill:#808080;stroke:none" />
      <path
         sodipodi:nodetypes="ccccccccc"
         inkscape:connector-curvature="0"
         inkscape:original-d="m 1535.3094,8013.533 -1.0251,1.0264 0.2408,9.0864 1.257,-0.7507 0.038,1.4746 -1.6211,0.7015 -0.3584,-12.3035 1.4053,-1.8657 z"
         inkscape:path-effect="#path-effect45451-306-5-5-5-5"
         id="path47651-2-7-2-3"
         d="m 1535.3094,8013.533 -1.0251,1.0264 0.2408,9.0864 1.257,-0.7507 0.038,1.4746 -1.6211,0.7015 -0.3584,-12.3035 1.4053,-1.8657 0.064,2.631"
         style="fill:#4d4d4d;stroke:none" />
      <path
         id="path47653-8-8-8-1"
         style="fill:#808080;fill-opacity:1;stroke:#000000;stroke-width:0.44053429"
         d="m 1554.4013,8010.267 30.2538,0.049 0.1831,6.4038 -30.1838,-0.047 z"
         inkscape:connector-curvature="0"
         sodipodi:nodetypes="ccccc" />
      <path
         style="fill:#000000;stroke:none"
         d="m 1557.7193,8011.9384 7.3806,0 0,0.7427 -7.3806,0 z"
         id="path47655-6-3-2-3"
         inkscape:connector-curvature="0" />
      <path
         style="fill:#000000;stroke:none"
         d="m 1575.89,8011.8026 0,3.2964 3.1352,0 0,-2.8356 0,-0.2439 0,-0.2169 -1.437,0 0.7348,0.012 -0.016,0.105 0,3.064 -1.0287,0 -0.016,0.093 -0.6694,0 0,-0.093 0,-3.064 0.9797,0 0.016,-0.1161 z"
         id="path47657-2-7-7-6"
         inkscape:connector-curvature="0"
         sodipodi:nodetypes="cccccccccccccccccc" />
      <path
         id="path47659-8-3-8-3"
         d="m 1566.4716,8011.9384 7.3806,0 0,0.7427 -7.3806,0 z"
         style="fill:#000000;stroke:none"
         inkscape:connector-curvature="0" />
      <path
         id="path47661-6-53-9-0"
         d="m 1557.9283,8013.3311 7.3806,0 0,0.4179 -7.3806,0 z"
         style="fill:#000000;stroke:none"
         inkscape:connector-curvature="0" />
      <path
         inkscape:connector-curvature="0"
         style="fill:#000000;stroke:none"
         d="m 1566.6806,8013.3311 7.3806,0 0,0.4179 -7.3806,0 z"
         id="path47663-7-34-9-1" />
      <path
         inkscape:connector-curvature="0"
         style="fill:#000000;stroke:none"
         d="m 1558.0851,8014.4454 7.3806,0 0,0.4179 -7.3806,0 z"
         id="path47665-4-4-8-9" />
      <path
         id="path47667-1-1-7-0"
         d="m 1566.8373,8014.4454 7.3807,0 0,0.4179 -7.3807,0 z"
         style="fill:#000000;stroke:none"
         inkscape:connector-curvature="0" />
      <path
         id="path47669-0-9-2-4"
         d="m 1558.1373,8015.5133 7.3807,0 0,0.4178 -7.3807,0 z"
         style="fill:#000000;stroke:none"
         inkscape:connector-curvature="0" />
      <path
         inkscape:connector-curvature="0"
         style="fill:#000000;stroke:none"
         d="m 1566.8896,8015.5133 7.3806,0 0,0.4178 -7.3806,0 z"
         id="path47671-9-4-3-2" />
      <path
         id="path47673-8-36-7-9"
         d="m 1575.7725,8015.5133 7.3806,0 0,0.4178 -7.3806,0 z"
         style="fill:#000000;stroke:none"
         inkscape:connector-curvature="0" />
      <path
         id="path47675-7-3-0-3"
         style="fill:#000000;stroke:none"
         d="m 1554.4013,8011.3348 0.9144,0 c 0,0 0.254,2.324 0.381,3.4862 0,0.042 0.3262,0.045 0.6383,0.081 0.08,0.011 0.01,-1.2255 -0.035,-2.3491 -0.019,-0.5125 -0.091,-1.2445 -0.061,-1.561 2.8773,-0.052 22.2533,-0.01 25.0548,0 0.017,0.2962 0.018,0.2278 0.01,0.325 -1.0214,0.011 -24.5329,-0.01 -24.519,0 0.1466,1.415 0.077,3.6728 0.2085,4.7541 -0.8204,-0.014 -1.2738,0.045 -2.0696,0.045 z"
         inkscape:connector-curvature="0"
         sodipodi:nodetypes="ccsssccccccc" />
      <path
         sodipodi:nodetypes="ccccc"
         inkscape:connector-curvature="0"
         d="m 1584.8132,8010.2669 30.1103,-0.046 0.065,6.4995 -29.9797,0 z"
         style="fill:#808080;fill-opacity:1;stroke:#000000;stroke-width:0.44053429"
         id="path47689-0-2-5-1" />
      <path
         inkscape:connector-curvature="0"
         id="path47691-9-7-6-4"
         d="m 1588.1312,8011.9384 7.3806,0 0,0.7427 -7.3806,0 z"
         style="fill:#000000;stroke:none"
         sodipodi:nodetypes="ccccc" />
      <path
         id="path47693-7-1-2-8"
         d="m 1606.3019,8011.8026 0,3.2964 3.1351,0 0,-3.2964 -1.4369,0 0.7348,0.012 -0.016,0.105 0,3.0639 -1.0287,0 -0.016,0.093 -0.6695,0 0,-0.093 0,-3.0639 0.9798,0 0.016,-0.1162 -1.6983,0 z"
         style="fill:#000000;stroke:none"
         inkscape:connector-curvature="0"
         sodipodi:nodetypes="ccccccccccccccccc" />
      <path
         inkscape:connector-curvature="0"
         style="fill:#000000;stroke:none"
         d="m 1596.8835,8011.9384 7.3806,0 0,0.7427 -7.3806,0 z"
         id="path47695-3-0-1-2"
         sodipodi:nodetypes="ccccc" />
      <path
         inkscape:connector-curvature="0"
         style="fill:#000000;stroke:none"
         d="m 1588.3402,8013.3311 7.3806,0 0,0.4179 -7.3806,0 z"
         id="path47697-2-50-8-0"
         sodipodi:nodetypes="ccccc" />
      <path
         id="path47699-4-8-9-5"
         d="m 1597.0924,8013.3311 7.3807,0 0,0.4179 -7.3807,0 z"
         style="fill:#000000;stroke:none"
         inkscape:connector-curvature="0"
         sodipodi:nodetypes="ccccc" />
      <path
         id="path47701-8-0-5-5"
         d="m 1588.497,8014.4454 7.3806,0 0,0.4179 -7.3806,0 z"
         style="fill:#000000;stroke:none"
         inkscape:connector-curvature="0"
         sodipodi:nodetypes="ccccc" />
      <path
         inkscape:connector-curvature="0"
         style="fill:#000000;stroke:none"
         d="m 1597.2492,8014.4454 7.3806,0 0,0.4179 -7.3806,0 z"
         id="path47703-2-3-2-9"
         sodipodi:nodetypes="ccccc" />
      <path
         inkscape:connector-curvature="0"
         style="fill:#000000;stroke:none"
         d="m 1588.5492,8015.5133 7.3806,0 0,0.4178 -7.3806,0 z"
         id="path47705-5-8-9-3"
         sodipodi:nodetypes="ccccc" />
      <path
         id="path47707-4-6-2-2"
         d="m 1597.3015,8015.5133 7.3806,0 0,0.4178 -7.3806,0 z"
         style="fill:#000000;stroke:none"
         inkscape:connector-curvature="0"
         sodipodi:nodetypes="ccccc" />
      <path
         inkscape:connector-curvature="0"
         style="fill:#000000;stroke:none"
         d="m 1606.1843,8015.5133 7.3807,0 0,0.4178 -7.3807,0 z"
         id="path47709-9-7-6-8"
         sodipodi:nodetypes="ccccc" />
      <path
         sodipodi:nodetypes="ccsssccccccc"
         inkscape:connector-curvature="0"
         d="m 1584.8132,8011.3348 0.9144,0 c 0,0 0.254,2.324 0.3809,3.4862 0,0.042 0.3263,0.045 0.6384,0.081 0.08,0.011 0.01,-1.2255 -0.035,-2.3491 -0.019,-0.5125 -0.091,-1.2445 -0.061,-1.561 2.8773,-0.052 22.2533,-0.01 25.0548,0 0.017,0.2962 0.018,0.2278 0.01,0.325 -1.0214,0.011 -24.5329,-0.01 -24.519,0 0.1466,1.415 0.077,3.6728 0.2085,4.7541 -0.8204,-0.014 -1.6657,0.045 -2.4615,0.045 z"
         style="fill:#000000;stroke:none"
         id="path47711-6-3-6-7" />
      <path
         id="path47713-9-42-3-4"
         style="fill:#333333;fill-opacity:1;fill-rule:nonzero;stroke:none"
         d="m 1579.8231,8011.783 0,0.4761 2.1704,0 0.016,0.8008 0.5267,0 0,-0.8002 0,-0.4757 z"
         inkscape:connector-curvature="0"
         sodipodi:nodetypes="cccccccc" />
      <path
         sodipodi:nodetypes="cccccccc"
         inkscape:connector-curvature="0"
         d="m 1579.8231,8015.1026 0,-0.4758 2.1704,0 0.016,-0.801 0.5266,0 0,0.8002 0,0.4757 z"
         style="fill:#333333;fill-opacity:1;fill-rule:nonzero;stroke:none"
         id="path47715-3-1-9-8" />
      <path
         sodipodi:nodetypes="cccccccc"
         inkscape:connector-curvature="0"
         d="m 1610.0588,8011.783 0,0.4761 2.1705,0 0.016,0.8008 0.5267,0 0,-0.8002 0,-0.4757 z"
         style="fill:#333333;fill-opacity:1;fill-rule:nonzero;stroke:none"
         id="path47717-3-9-1-1" />
      <path
         id="path47719-2-2-2-4"
         style="fill:#333333;fill-opacity:1;fill-rule:nonzero;stroke:none"
         d="m 1610.0589,8015.1026 0,-0.4758 2.1703,0 0.016,-0.801 0.5267,0 0,0.8002 0,0.4757 z"
         inkscape:connector-curvature="0"
         sodipodi:nodetypes="cccccccc" />
      <path
         inkscape:connector-curvature="0"
         d="m 1616.6664,8011.5909 32.5924,0 -0.1165,4.1673 -32.5924,0 z"
         style="fill:url(#linearGradient33354-7-6);fill-opacity:1;stroke:#1a1a1a;stroke-width:0.51374948"
         id="path47721-7-9-0-3" />
      <path
         inkscape:connector-curvature="0"
         d="m 1646.844,8012.5236 0.4495,0 c 0.1014,0 0.1771,0.01 0.2271,0.019 0.067,0.017 0.1207,0.048 0.1608,0.093 0.04,0.044 0.065,0.099 0.076,0.163 0.011,0.064 0,0.1435 -0.019,0.2378 -0.02,0.083 -0.05,0.1542 -0.09,0.2141 -0.049,0.073 -0.1067,0.1325 -0.1743,0.1778 -0.051,0.034 -0.1154,0.061 -0.1927,0.08 -0.058,0.014 -0.1321,0.021 -0.2229,0.021 l -0.4628,0 z m 0.204,0.1702 -0.1644,0.6664 0.1836,0 c 0.069,0 0.1191,0 0.1511,-0.01 0.042,-0.01 0.078,-0.022 0.1096,-0.042 0.031,-0.02 0.061,-0.052 0.088,-0.097 0.028,-0.045 0.051,-0.1065 0.07,-0.1843 0.019,-0.078 0.026,-0.1374 0.019,-0.1791 -0.01,-0.041 -0.022,-0.074 -0.046,-0.097 -0.024,-0.023 -0.058,-0.039 -0.1021,-0.047 -0.033,-0.01 -0.099,-0.01 -0.1995,-0.01 z m -1.2773,0.836 -0.1872,-1.0062 0.2667,0 0.1246,0.7447 0.482,-0.7447 0.2609,0 -0.6844,1.0062 z m -1.2931,-1.0062 0.4495,0 c 0.1014,0 0.1771,0.01 0.2271,0.019 0.067,0.017 0.1207,0.048 0.1607,0.093 0.04,0.044 0.065,0.099 0.076,0.163 0.011,0.064 0,0.1435 -0.019,0.2378 -0.02,0.083 -0.051,0.1542 -0.09,0.2141 -0.048,0.073 -0.1066,0.1325 -0.1743,0.1778 -0.051,0.034 -0.1153,0.061 -0.1926,0.08 -0.058,0.014 -0.1321,0.021 -0.2229,0.021 l -0.4629,0 z m 0.2039,0.1702 -0.1643,0.6664 0.1836,0 c 0.069,0 0.119,0 0.1511,-0.01 0.042,-0.01 0.079,-0.022 0.1096,-0.042 0.031,-0.02 0.061,-0.052 0.088,-0.097 0.028,-0.045 0.051,-0.1065 0.07,-0.1843 0.019,-0.078 0.026,-0.1374 0.019,-0.1791 -0.01,-0.041 -0.022,-0.074 -0.046,-0.097 -0.024,-0.023 -0.058,-0.039 -0.1021,-0.047 -0.033,-0.01 -0.099,-0.01 -0.1996,-0.01 z"
         style="font-size:11.09256554px;font-style:normal;font-variant:normal;font-weight:bold;font-stretch:normal;line-height:125%;letter-spacing:0px;word-spacing:0px;fill:#ffffff;fill-opacity:1;stroke:none;font-family:Arial;-inkscape-font-specification:Arial Bold"
         id="path47725-9-2-0-5" />
      <path
         style="fill:#ffffff;stroke:none"
         d="m 1645.9959,8013.8394 c -1.116,0 -2.0207,0.1242 -2.0207,0.2784 0,0.1541 0.9047,0.2785 2.0207,0.2785 1.1161,0 2.0208,-0.1244 2.0208,-0.2785 0,-0.1542 -0.9047,-0.2784 -2.0208,-0.2784 z m 0,0.2013 c 0.3133,0 0.5673,0.035 0.5673,0.077 0,0.043 -0.254,0.077 -0.5673,0.077 -0.3132,0 -0.5672,-0.035 -0.5672,-0.077 0,-0.043 0.254,-0.077 0.5672,-0.077 z"
         id="path47727-0-2-9-5"
         inkscape:connector-curvature="0" />
      <text
         xml:space="preserve"
         style="font-size:0.66138339px;font-style:normal;font-variant:normal;font-weight:normal;font-stretch:normal;line-height:125%;letter-spacing:0px;word-spacing:0px;fill:#ffffff;fill-opacity:1;stroke:none;font-family:Arial;-inkscape-font-specification:Arial"
         x="1617.5879"
         y="8151.9688"
         id="text47729-5-5-4-2"
         sodipodi:linespacing="125%"
         transform="scale(1.0170762,0.9832105)"><tspan
           sodipodi:role="line"
           id="tspan47731-4-8-6-6"
           x="1617.5879"
           y="8151.9688">ROM</tspan></text>
      <path
         inkscape:connector-curvature="0"
         d="m 1634.776,8012.7561 c 0,0 -0.1,0 -0.1,0 0,0 0,-0.1239 0,-0.1239 0,0 0.1032,0 0.1032,0 0.05,0 0.075,0.019 0.075,0.057 0,0.044 -0.026,0.065 -0.078,0.065 z m 0.794,0.062 c -0.014,0.069 -0.051,0.1031 -0.1104,0.1031 -0.083,0 -0.1246,-0.05 -0.1246,-0.1513 0,-0.099 0.042,-0.1481 0.1246,-0.1481 0.059,0 0.095,0.025 0.1068,0.076 0,0 0.05,0 0.05,0 -0.017,-0.08 -0.069,-0.1204 -0.1567,-0.1204 -0.1187,0 -0.178,0.064 -0.178,0.1927 0,0.1286 0.057,0.1928 0.1709,0.1928 0.097,0 0.153,-0.048 0.1673,-0.1446 0,0 -0.05,0 -0.05,0 z m -1.6876,-0.241 c -0.1235,0 -0.1852,0.064 -0.1852,0.1928 0,0.1285 0.062,0.1928 0.1852,0.1928 0.1234,0 0.1851,-0.064 0.1851,-0.1928 0,-0.1286 -0.062,-0.1928 -0.1851,-0.1928 z m -0.299,0.241 c -0.012,0.069 -0.047,0.1031 -0.1068,0.1031 -0.085,0 -0.1282,-0.05 -0.1282,-0.1513 0,-0.099 0.041,-0.1481 0.1246,-0.1481 0.059,0 0.095,0.025 0.1068,0.076 0,0 0.05,0 0.05,0 -0.01,-0.08 -0.062,-0.1204 -0.1566,-0.1204 -0.1163,0 -0.1745,0.064 -0.1745,0.1927 0,0.1286 0.056,0.1928 0.1673,0.1928 0.097,0 0.1531,-0.048 0.1674,-0.1446 0,0 -0.05,0 -0.05,0 z m 2.371,-0.2307 c 0,0 -0.3061,0 -0.3061,0 0,0 0,0.045 0,0.045 0,0 0.1281,0 0.1281,0 0,0 0,0.3236 0,0.3236 0,0 0.05,0 0.05,0 0,0 0,-0.3236 0,-0.3236 0,0 0.1282,0 0.1282,0 0,0 0,-0.045 0,-0.045 z m -0.8295,0 c 0,0 -0.057,0 -0.057,0 0,0 -0.1423,0.3684 -0.1423,0.3684 0,0 0.053,0 0.053,0 0,0 0.039,-0.1068 0.039,-0.1068 0,0 0.153,0 0.153,0 0,0 0.036,0.1068 0.036,0.1068 0,0 0.057,0 0.057,0 0,0 -0.1388,-0.3684 -0.1388,-0.3684 z m -0.331,0 c 0,0 -0.1674,0 -0.1674,0 0,0 0,0.3684 0,0.3684 0,0 0.05,0 0.05,0 0,0 0,-0.155 0,-0.155 0,0 0.1175,0 0.1175,0 0.076,0 0.1139,-0.037 0.1139,-0.1102 0,-0.069 -0.038,-0.1032 -0.1139,-0.1032 z m -0.2778,0 c 0,0 -0.071,0 -0.071,0 0,0 -0.1104,0.3098 -0.1104,0.3098 0,0 -0.1068,-0.3098 -0.1068,-0.3098 0,0 -0.075,0 -0.075,0 0,0 0,0.3684 0,0.3684 0,0 0.05,0 0.05,0 0,0 0,-0.3064 0,-0.3064 0,0 0.1068,0.3064 0.1068,0.3064 0,0 0.05,0 0.05,0 0,0 0.1104,-0.3099 0.1104,-0.3099 0,0 0,0.093 0,0.093 0,0 0,0.217 0,0.217 0,0 0.05,0 0.05,0 0,0 0,-0.3684 0,-0.3684 z m -1.4312,0.065 c 0,-0.028 -0.014,-0.041 -0.043,-0.041 0,0 -0.388,0 -0.388,0 -0.028,0 -0.043,0.014 -0.043,0.041 0,0 0,0.3889 0,0.3889 0,0.018 -0.01,0.028 -0.028,0.028 0,0 -0.356,0 -0.356,0 -0.074,0 -0.1341,0.023 -0.1817,0.071 -0.048,0.047 -0.071,0.1061 -0.071,0.1773 0,0 0,0.8569 0,0.8569 0,0.069 0.024,0.1274 0.073,0.1756 0.049,0.048 0.1086,0.072 0.1799,0.072 0,0 0.8152,0 0.8152,0 0.029,0 0.043,-0.015 0.043,-0.045 0,0 0,-1.7243 0,-1.7243 z m 2.9586,1.2011 c 0,-0.03 -0.014,-0.045 -0.043,-0.045 0,0 -0.356,0 -0.356,0 -0.031,0 -0.046,0.015 -0.046,0.045 0,0 0,0.1996 0,0.1996 0,0.057 -0.029,0.086 -0.086,0.086 -0.059,0 -0.089,-0.029 -0.089,-0.086 0,0 0,-0.6124 0,-0.6124 0,-0.057 0.03,-0.086 0.089,-0.086 0.057,0 0.086,0.029 0.086,0.086 0,0 0,0.1616 0,0.1616 0,0.028 0.015,0.041 0.046,0.041 0,0 0.356,0 0.356,0 0.028,0 0.043,-0.014 0.043,-0.041 0,0 0,-0.2856 0,-0.2856 0,-0.069 -0.025,-0.1274 -0.075,-0.1755 -0.05,-0.048 -0.1104,-0.072 -0.1816,-0.072 0,0 -0.5482,0 -0.5482,0 -0.071,0 -0.1319,0.024 -0.1817,0.072 -0.05,0.048 -0.075,0.1067 -0.075,0.1755 0,0 0,0.8535 0,0.8535 0,0.071 0.024,0.1309 0.073,0.1791 0.049,0.048 0.1098,0.072 0.1834,0.072 0,0 0.5483,0 0.5483,0 0.073,0 0.1346,-0.024 0.1833,-0.072 0.049,-0.048 0.073,-0.1079 0.073,-0.1791 0,0 0,-0.3167 0,-0.3167 z m -1.1785,-0.072 c 0,-0.069 -0.025,-0.1273 -0.075,-0.1755 -0.05,-0.048 -0.1104,-0.072 -0.1816,-0.072 0,0 -0.3311,0 -0.3311,0 -0.036,0 -0.053,-0.017 -0.053,-0.052 0,-0.037 0.018,-0.055 0.053,-0.055 0,0 0.4984,0 0.4984,0 0.028,0 0.043,-0.014 0.043,-0.041 0,0 0,-0.2753 0,-0.2753 0,-0.028 -0.014,-0.042 -0.043,-0.042 0,0 -0.7049,0 -0.7049,0 -0.071,0 -0.1317,0.025 -0.1816,0.072 -0.05,0.048 -0.075,0.1066 -0.075,0.1754 0,0 0,0.3647 0,0.3647 0,0.069 0.025,0.1275 0.075,0.1757 0.05,0.048 0.1103,0.072 0.1816,0.072 0,0 0.3311,0 0.3311,0 0.045,0 0.068,0.023 0.068,0.069 0,0.042 -0.023,0.062 -0.068,0.062 0,0 -0.5447,0 -0.5447,0 -0.029,0 -0.043,0.015 -0.043,0.045 0,0 0,0.272 0,0.272 0,0.03 0.014,0.045 0.043,0.045 0,0 0.7512,0 0.7512,0 0.073,0 0.1347,-0.024 0.1833,-0.072 0.049,-0.048 0.073,-0.1078 0.073,-0.1789 0,0 0,-0.3891 0,-0.3891 z m 1.0788,1.1531 c 0,0 -0.2279,0 -0.2279,0 0,0 0,-0.1239 0,-0.1239 0,0 0.2064,0 0.2064,0 0,0 0,-0.041 0,-0.041 0,0 -0.2064,0 -0.2064,0 0,0 0,-0.1134 0,-0.1134 0,0 0.2243,0 0.2243,0 0,0 0,-0.045 0,-0.045 0,0 -0.2742,0 -0.2742,0 0,0 0,0.3648 0,0.3648 0,0 0.2778,0 0.2778,0 0,0 0,-0.041 0,-0.041 z m -0.3703,-0.1515 c 0,0 -0.1673,0 -0.1673,0 0,0 0,0.042 0,0.042 0,0 0.1175,0 0.1175,0 0,0.08 -0.039,0.1204 -0.1175,0.1204 -0.083,0 -0.1246,-0.05 -0.1246,-0.1514 0,-0.099 0.042,-0.148 0.1246,-0.148 0.062,0 0.099,0.024 0.1103,0.076 0,0 0.05,0 0.05,0 -0.01,-0.08 -0.063,-0.1205 -0.1602,-0.1205 -0.1187,0 -0.178,0.064 -0.178,0.1927 0,0.064 0.017,0.1126 0.052,0.1446 0.034,0.032 0.075,0.048 0.1229,0.048 0.057,0 0.099,-0.02 0.1247,-0.059 0,0 0.014,0.048 0.014,0.048 0,0 0.032,0 0.032,0 0,0 0,-0.1927 0,-0.1927 z m -0.4984,-0.1721 c 0,0 -0.057,0 -0.057,0 0,0 -0.1459,0.3648 -0.1459,0.3648 0,0 0.053,0 0.053,0 0,0 0.039,-0.1032 0.039,-0.1032 0,0 0.153,0 0.153,0 0,0 0.039,0.1032 0.039,0.1032 0,0 0.053,0 0.053,0 0,0 -0.1353,-0.3648 -0.1353,-0.3648 z m -0.2136,0.3579 c -0.012,0 -0.018,-0.017 -0.018,-0.038 0,0 0,-0.065 0,-0.065 0,-0.03 -0.018,-0.053 -0.046,-0.069 0.035,-0.018 0.053,-0.047 0.053,-0.086 0,-0.066 -0.042,-0.1001 -0.1247,-0.1001 0,0 -0.178,0 -0.178,0 0,0 0,0.3649 0,0.3649 0,0 0.053,0 0.053,0 0,0 0,-0.1549 0,-0.1549 0,0 0.1246,0 0.1246,0 0.043,0 0.065,0.022 0.068,0.065 0,0 0.01,0.089 0.01,0.089 0,0 0.064,-0.01 0.064,-0.01 z m -0.5519,-0.3682 c -0.1234,0 -0.1851,0.064 -0.1851,0.1927 0,0.055 0.017,0.101 0.05,0.1377 0.033,0.037 0.078,0.055 0.1353,0.055 0.1234,0 0.1851,-0.064 0.1851,-0.1928 0,-0.1285 -0.062,-0.1927 -0.1851,-0.1927 z m -0.1851,0.01 c 0,0 -0.3097,0 -0.3097,0 0,0 0,0.045 0,0.045 0,0 0.1317,0 0.1317,0 0,0 0,0.32 0,0.32 0,0 0.05,0 0.05,0 0,0 0,-0.32 0,-0.32 0,0 0.1282,0 0.1282,0 0,0 0,-0.045 0,-0.045 z m -0.4058,0.1652 c 0,0 -0.1068,-0.025 -0.1068,-0.025 -0.031,-0.01 -0.046,-0.022 -0.046,-0.045 0,-0.044 0.029,-0.065 0.085,-0.065 0.064,0 0.096,0.024 0.096,0.076 0,0 0.046,0 0.046,0 0,-0.078 -0.049,-0.117 -0.146,-0.117 -0.088,0 -0.1318,0.038 -0.1318,0.1135 0,0.046 0.027,0.074 0.082,0.086 0,0 0.075,0.017 0.075,0.017 0.055,0.012 0.082,0.033 0.082,0.065 0,0.041 -0.033,0.062 -0.1,0.062 -0.069,0 -0.1032,-0.029 -0.1032,-0.086 0,0 -0.046,0 -0.046,0 0,0.085 0.05,0.1275 0.1495,0.1275 0.1,0 0.1495,-0.037 0.1495,-0.1102 0,-0.053 -0.029,-0.086 -0.086,-0.1001 z m -0.5697,-0.1652 c 0,0 -0.057,0 -0.057,0 0,0 -0.1425,0.3648 -0.1425,0.3648 0,0 0.053,0 0.053,0 0,0 0.039,-0.1032 0.039,-0.1032 0,0 0.1532,0 0.1532,0 0,0 0.035,0.1032 0.035,0.1032 0,0 0.057,0 0.057,0 0,0 -0.1389,-0.3648 -0.1389,-0.3648 z m -0.1318,0 c 0,0 -0.3097,0 -0.3097,0 0,0 0,0.045 0,0.045 0,0 0.1318,0 0.1318,0 0,0 0,0.32 0,0.32 0,0 0.053,0 0.053,0 0,0 0,-0.32 0,-0.32 0,0 0.1246,0 0.1246,0 0,0 0,-0.045 0,-0.045 z m -0.4058,0 c 0,0 -0.061,0 -0.061,0 0,0 -0.1423,0.3648 -0.1423,0.3648 0,0 0.053,0 0.053,0 0,0 0.039,-0.1032 0.039,-0.1032 0,0 0.153,0 0.153,0 0,0 0.039,0.1032 0.039,0.1032 0,0 0.057,0 0.057,0 0,0 -0.1388,-0.3648 -0.1388,-0.3648 z m -0.3916,0 c 0,0 -0.1566,0 -0.1566,0 0,0 0,0.3648 0,0.3648 0,0 0.153,0 0.153,0 0.1069,0 0.1603,-0.062 0.1603,-0.1859 0,-0.1193 -0.052,-0.1789 -0.1567,-0.1789 z m 2.8125,-1.8068 c 0,0 0.064,-0.1618 0.064,-0.1618 0,0 0.053,0.1618 0.053,0.1618 0,0 -0.1175,0 -0.1175,0 z m -1.1499,0.1169 c -0.088,0 -0.1317,-0.05 -0.1317,-0.1514 0,-0.099 0.044,-0.148 0.1317,-0.148 0.088,0 0.1317,0.049 0.1317,0.148 0,0.101 -0.044,0.1514 -0.1317,0.1514 z m -0.9007,1.4215 c 0,0 -0.7548,0 -0.7548,0 -0.05,0 -0.091,-0.016 -0.1246,-0.048 -0.033,-0.032 -0.05,-0.072 -0.05,-0.1205 0,0 0,-0.8569 0,-0.8569 0,-0.048 0.017,-0.088 0.05,-0.1205 0.033,-0.032 0.075,-0.048 0.1246,-0.048 0,0 0.4202,0 0.4202,0 0.028,0 0.043,-0.015 0.043,-0.045 0,0 0,-0.389 0,-0.389 0,-0.018 0.01,-0.028 0.028,-0.028 0,0 0.2634,0 0.2634,0 0.017,0.016 0.025,0.024 0.025,0.028 0,0 0,1.6039 0,1.6039 0,0 -0.01,0.013 -0.025,0.024 z m 2.9318,-0.05 c -0.034,0.033 -0.077,0.05 -0.1263,0.05 0,0 -0.5483,0 -0.5483,0 -0.05,0 -0.093,-0.017 -0.1283,-0.05 -0.036,-0.033 -0.053,-0.074 -0.053,-0.1221 0,0 0,-0.8535 0,-0.8535 0,-0.048 0.018,-0.088 0.053,-0.1205 0.035,-0.032 0.078,-0.048 0.1283,-0.048 0,0 0.5483,0 0.5483,0 0.052,0 0.095,0.016 0.1281,0.047 0.033,0.031 0.05,0.072 0.05,0.1221 0,0 0,0.2271 0,0.2271 0,0.016 -0.01,0.024 -0.025,0.024 0,0 -0.2349,0 -0.2349,0 -0.017,0 -0.025,-0.01 -0.025,-0.024 0,0 0,-0.1032 0,-0.1032 0,-0.046 -0.016,-0.084 -0.048,-0.1153 -0.032,-0.031 -0.072,-0.046 -0.1193,-0.046 -0.047,0 -0.087,0.015 -0.1193,0.046 -0.032,0.031 -0.048,0.069 -0.048,0.1153 0,0 0,0.6126 0,0.6126 0,0.046 0.016,0.084 0.048,0.1153 0.032,0.031 0.072,0.046 0.1193,0.046 0.047,0 0.087,-0.015 0.1193,-0.046 0.032,-0.031 0.048,-0.07 0.048,-0.1153 0,0 0,-0.1445 0,-0.1445 0,-0.016 0.01,-0.024 0.025,-0.024 0,0 0.2349,0 0.2349,0 0.01,0 0.013,0.01 0.025,0.024 0,0 0,0.2615 0,0.2615 0,0.048 -0.017,0.089 -0.052,0.1222 z m -1.1785,0 c -0.034,0.033 -0.076,0.05 -0.1263,0.05 0,0 -0.6871,0 -0.6871,0 -0.019,0 -0.028,-0.01 -0.028,-0.024 0,0 0,-0.1548 0,-0.1548 0,-0.016 0.01,-0.024 0.028,-0.024 0,0 0.4806,0 0.4806,0 0.04,0 0.075,-0.014 0.1032,-0.041 0.028,-0.028 0.043,-0.061 0.043,-0.1001 0,-0.041 -0.014,-0.076 -0.041,-0.1032 -0.027,-0.028 -0.062,-0.041 -0.105,-0.041 0,0 -0.3311,0 -0.3311,0 -0.05,0 -0.092,-0.017 -0.1265,-0.05 -0.034,-0.033 -0.052,-0.074 -0.052,-0.1222 0,0 0,-0.3648 0,-0.3648 0,-0.048 0.017,-0.088 0.052,-0.1204 0.034,-0.032 0.077,-0.048 0.1265,-0.048 0,0 0.6408,0 0.6408,0 0.017,0 0.025,0.01 0.025,0.024 0,0 0,0.1514 0,0.1514 0,0.018 -0.01,0.028 -0.025,0.028 0,0 -0.4344,0 -0.4344,0 -0.088,0 -0.1317,0.044 -0.1317,0.1308 0,0.034 0.013,0.064 0.039,0.09 0.026,0.025 0.057,0.038 0.093,0.038 0,0 0.3312,0 0.3312,0 0.047,0 0.089,0.017 0.1246,0.052 0.035,0.034 0.053,0.075 0.053,0.1204 0,0 0,0.389 0,0.389 0,0.048 -0.017,0.089 -0.052,0.1223 z m -1.0805,0.1291 c 0,0 -0.388,0 -0.388,0 -0.028,0 -0.043,-0.015 -0.043,-0.045 0,0 0,-1.2666 0,-1.2666 0,-0.028 0.014,-0.041 0.043,-0.041 0,0 0.388,0 0.388,0 0.028,0 0.043,0.014 0.043,0.041 0,0 0,1.2666 0,1.2666 0,0.03 -0.014,0.045 -0.043,0.045 z m 1.0645,0.3545 c 0,0 -0.121,0 -0.121,0 0,0 0,-0.1239 0,-0.1239 0,0 0.1282,0 0.1282,0 0.045,0 0.068,0.021 0.068,0.062 0,0.041 -0.025,0.062 -0.075,0.062 z m 0.2635,0.048 c 0,0 0.06,-0.1618 0.06,-0.1618 0,0 0.057,0.1618 0.057,0.1618 0,0 -0.1175,0 -0.1175,0 z m -1.926,0 c 0,0 0.064,-0.1618 0.064,-0.1618 0,0 0.053,0.1618 0.053,0.1618 0,0 -0.1175,0 -0.1175,0 z m -0.5377,0 c 0,0 0.061,-0.1618 0.061,-0.1618 0,0 0.057,0.1618 0.057,0.1618 0,0 -0.1175,0 -0.1175,0 z m -0.3026,0.1102 c 0,0 -0.1,0 -0.1,0 0,0 0,-0.2823 0,-0.2823 0,0 0.092,0 0.092,0 0.078,0 0.1175,0.047 0.1175,0.1411 0,0.094 -0.037,0.1412 -0.1104,0.1412 z m 2.0934,0.01 c -0.088,0 -0.1317,-0.05 -0.1317,-0.1514 0,-0.099 0.044,-0.148 0.1317,-0.148 0.09,0 0.1353,0.049 0.1353,0.148 0,0.101 -0.045,0.1514 -0.1353,0.1514 z m -0.6907,-1.7724 c 0,-0.016 -0.01,-0.025 -0.025,-0.025 0,0 -0.2634,0 -0.2634,0 -0.017,0 -0.025,0.01 -0.025,0.025 0,0 0,1.1461 0,1.1461 0,0.016 0.01,0.024 0.025,0.024 0,0 0.2634,0 0.2634,0 0.017,0 0.025,-0.01 0.025,-0.024 0,0 0,-1.1461 0,-1.1461 z m -0.9256,0.2616 c 0,-0.043 -0.016,-0.081 -0.048,-0.1119 -0.032,-0.031 -0.071,-0.047 -0.1157,-0.047 -0.045,0 -0.083,0.016 -0.114,0.047 -0.031,0.031 -0.046,0.068 -0.046,0.1119 0,0 0,0.6297 0,0.6297 0,0.046 0.015,0.084 0.044,0.1137 0.03,0.03 0.068,0.045 0.1157,0.045 0.045,0 0.084,-0.015 0.1158,-0.046 0.032,-0.031 0.048,-0.068 0.048,-0.1118 0,0 0,-0.6297 0,-0.6297 z m -0.1638,0.7089 c -0.055,0 -0.082,-0.026 -0.082,-0.079 0,0 0,-0.6298 0,-0.6298 0,-0.053 0.027,-0.079 0.082,-0.079 0.052,0 0.078,0.026 0.078,0.079 0,0 0,0.6298 0,0.6298 0,0.053 -0.026,0.079 -0.078,0.079 z"
         style="fill:#ffffff;fill-opacity:1;fill-rule:evenodd;stroke:none"
         id="path47737-4-8-1-8" />
      <path
         id="path47739-5-0-4-9"
         style="fill:#00b7e8;fill-opacity:1;fill-rule:nonzero;stroke:none"
         d="m 1646.9797,8018.1653 1.9595,0 0,2.4741 -1.9595,0 z"
         inkscape:connector-curvature="0" />
      <path
         d="m 1644.563,8018.1652 1.9595,0 0,2.4742 -1.9595,0 z"
         style="fill:#e51d00;fill-opacity:1;fill-rule:nonzero;stroke:none"
         id="path47741-8-0-6-2"
         inkscape:connector-curvature="0" />
      <path
         id="path47743-2-9-6-9"
         style="fill:#999999;fill-opacity:1;fill-rule:nonzero;stroke:#1a1a1a;stroke-width:0.21079655;stroke-miterlimit:4"
         d="m 1642.8297,8018.1197 1.246,0 0,4.3671 -1.246,0 z"
         inkscape:connector-curvature="0" />
      <path
         inkscape:connector-curvature="0"
         d="m 1643.5882,8018.1197 0.4875,0 0,4.3671 -0.4875,0 z"
         style="fill:#999999;fill-opacity:1;fill-rule:nonzero;stroke:#1a1a1a;stroke-width:0.1318544;stroke-miterlimit:4"
         id="path47745-7-6-5-5" />
      <rect
         transform="matrix(1,0,-0.01802634,0.99983751,0,0)"
         y="8019.6079"
         x="1761.2012"
         height="4.8445239"
         width="24.429632"
         id="rect47747-2-1-6-9"
         style="fill:url(#linearGradient33342-1-0);fill-opacity:1;stroke:#1a1a1a;stroke-width:0.47956967" />
      <path
         inkscape:connector-curvature="0"
         id="path47749-6-6-1-4"
         style="fill:#ffffff;fill-opacity:1;fill-rule:nonzero;stroke:#808080;stroke-width:0.46653545"
         d="m 1617.9614,8018.9882 1.5809,0 c 0.2145,0 0.4,0.2331 0.416,0.5224 l 0.022,0.4009 c 0.016,0.2893 -0.1436,0.5221 -0.358,0.5221 l -1.581,0 c -0.2144,0 -0.4,-0.2328 -0.416,-0.5221 l -0.022,-0.4009 c -0.016,-0.2893 0.1436,-0.5224 0.3581,-0.5224 z"
         sodipodi:nodetypes="ssccssccs" />
      <path
         sodipodi:nodetypes="ssccssccs"
         d="m 1621.2363,8018.9882 1.581,0 c 0.2144,0 0.3999,0.2331 0.416,0.5224 l 0.022,0.4009 c 0.016,0.2893 -0.1437,0.5221 -0.3581,0.5221 l -1.581,0 c -0.2144,0 -0.3999,-0.2328 -0.416,-0.5221 l -0.022,-0.4009 c -0.016,-0.2893 0.1437,-0.5224 0.3581,-0.5224 z"
         style="fill:#ffffff;fill-opacity:1;fill-rule:nonzero;stroke:#808080;stroke-width:0.46653545"
         id="path47751-3-8-3-5"
         inkscape:connector-curvature="0" />
      <path
         inkscape:connector-curvature="0"
         id="path47753-8-9-5-0"
         style="fill:#ffffff;fill-opacity:1;fill-rule:nonzero;stroke:#808080;stroke-width:0.46653545"
         d="m 1624.5445,8018.9882 1.5809,0 c 0.2145,0 0.4,0.2331 0.416,0.5224 l 0.022,0.4009 c 0.016,0.2893 -0.1436,0.5221 -0.358,0.5221 l -1.581,0 c -0.2144,0 -0.4,-0.2328 -0.416,-0.5221 l -0.022,-0.4009 c -0.016,-0.2893 0.1436,-0.5224 0.3581,-0.5224 z"
         sodipodi:nodetypes="ssccssccs" />
      <path
         sodipodi:nodetypes="ccccc"
         inkscape:connector-curvature="0"
         d="m 1554.7258,8017.7084 30.1103,-0.046 0.1831,6.4518 -29.9925,2e-4 z"
         style="fill:#808080;fill-opacity:1;stroke:#000000;stroke-width:0.44053429"
         id="path47755-5-6-2-5" />
      <path
         inkscape:connector-curvature="0"
         id="path47757-5-8-6-8"
         d="m 1558.0438,8019.3798 7.3806,0 0,0.7426 -7.3806,0 z"
         style="fill:#000000;stroke:none" />
      <path
         sodipodi:nodetypes="cccccccccccccccccc"
         inkscape:connector-curvature="0"
         id="path47759-1-8-9-8"
         d="m 1576.2145,8019.2439 0,3.2965 3.1351,0 0,-2.8356 0,-0.2438 0,-0.2171 -1.4369,0 0.7348,0.012 -0.016,0.1049 0,3.0641 -1.0288,0 -0.016,0.093 -0.6695,0 0,-0.093 0,-3.0641 0.9798,0 0.016,-0.1161 z"
         style="fill:#000000;stroke:none" />
      <path
         inkscape:connector-curvature="0"
         style="fill:#000000;stroke:none"
         d="m 1566.796,8019.3798 7.3806,0 0,0.7426 -7.3806,0 z"
         id="path47761-4-4-4-0" />
      <path
         inkscape:connector-curvature="0"
         style="fill:#000000;stroke:none"
         d="m 1558.2528,8020.7725 7.3806,0 0,0.4179 -7.3806,0 z"
         id="path47763-5-0-6-1" />
      <path
         id="path47765-1-4-7-3"
         d="m 1567.005,8020.7725 7.3807,0 0,0.4179 -7.3807,0 z"
         style="fill:#000000;stroke:none"
         inkscape:connector-curvature="0" />
      <path
         id="path47767-8-3-3-2"
         d="m 1558.4095,8021.8868 7.3807,0 0,0.4179 -7.3807,0 z"
         style="fill:#000000;stroke:none"
         inkscape:connector-curvature="0" />
      <path
         inkscape:connector-curvature="0"
         style="fill:#000000;stroke:none"
         d="m 1567.1618,8021.8868 7.3806,0 0,0.4179 -7.3806,0 z"
         id="path47769-6-4-0-2" />
      <path
         inkscape:connector-curvature="0"
         style="fill:#000000;stroke:none"
         d="m 1558.4618,8022.9546 7.3806,0 0,0.4179 -7.3806,0 z"
         id="path47771-0-3-5-2" />
      <path
         id="path47773-0-7-8-7"
         d="m 1567.214,8022.9546 7.3807,0 0,0.4179 -7.3807,0 z"
         style="fill:#000000;stroke:none"
         inkscape:connector-curvature="0" />
      <path
         inkscape:connector-curvature="0"
         style="fill:#000000;stroke:none"
         d="m 1576.0969,8022.9546 7.3807,0 0,0.4179 -7.3807,0 z"
         id="path47775-4-4-9-0" />
      <path
         sodipodi:nodetypes="ccsssccccccc"
         inkscape:connector-curvature="0"
         d="m 1554.7258,8018.7762 0.9144,0 c 0,0 0.254,2.324 0.3809,3.4862 0,0.042 0.3263,0.045 0.6384,0.081 0.08,0.01 0.01,-1.2254 -0.035,-2.3492 -0.019,-0.5122 -0.091,-1.2443 -0.061,-1.5609 2.8774,-0.052 22.2533,-0.011 25.0548,0 0.017,0.2963 0.018,0.2276 0.01,0.325 -1.0213,0.011 -24.5329,-0.011 -24.519,0 0.1466,1.4148 0.077,3.6729 0.2086,4.7541 -0.8204,-0.014 -1.2738,0.045 -2.0697,0.045 z"
         style="fill:#000000;stroke:none"
         id="path47777-7-9-5-3" />
      <path
         id="path47791-7-5-2-1"
         style="fill:#808080;stroke:#000000;stroke-width:0.44053429"
         d="m 1584.8132,8017.7083 30.1103,-0.046 0.065,6.4996 -29.9797,0 z"
         inkscape:connector-curvature="0"
         sodipodi:nodetypes="ccccc" />
      <path
         sodipodi:nodetypes="ccccc"
         style="fill:#000000;stroke:none"
         d="m 1588.1312,8019.3798 7.3806,0 0,0.7426 -7.3806,0 z"
         id="path47793-6-9-1-3"
         inkscape:connector-curvature="0" />
      <path
         sodipodi:nodetypes="ccccccccccccccccc"
         inkscape:connector-curvature="0"
         style="fill:#000000;stroke:none"
         d="m 1606.3019,8019.2439 0,3.2965 3.1351,0 0,-3.2965 -1.4369,0 0.7348,0.012 -0.016,0.1049 0,3.064 -1.0287,0 -0.016,0.093 -0.6695,0 0,-0.093 0,-3.064 0.9798,0 0.016,-0.1162 -1.6983,0 z"
         id="path47795-4-7-8-3" />
      <path
         sodipodi:nodetypes="ccccc"
         id="path47797-8-1-0-7"
         d="m 1596.8835,8019.3798 7.3806,0 0,0.7426 -7.3806,0 z"
         style="fill:#000000;stroke:none"
         inkscape:connector-curvature="0" />
      <path
         sodipodi:nodetypes="ccccc"
         id="path47799-9-7-1-0"
         d="m 1588.3402,8020.7725 7.3806,0 0,0.4179 -7.3806,0 z"
         style="fill:#000000;stroke:none"
         inkscape:connector-curvature="0" />
      <path
         sodipodi:nodetypes="ccccc"
         inkscape:connector-curvature="0"
         style="fill:#000000;stroke:none"
         d="m 1597.0924,8020.7725 7.3807,0 0,0.4179 -7.3807,0 z"
         id="path47801-7-19-7-9" />
      <path
         sodipodi:nodetypes="ccccc"
         inkscape:connector-curvature="0"
         style="fill:#000000;stroke:none"
         d="m 1588.497,8021.8868 7.3806,0 0,0.4179 -7.3806,0 z"
         id="path47803-0-1-8-5" />
      <path
         sodipodi:nodetypes="ccccc"
         id="path47805-5-0-0-5"
         d="m 1597.2492,8021.8868 7.3806,0 0,0.4179 -7.3806,0 z"
         style="fill:#000000;stroke:none"
         inkscape:connector-curvature="0" />
      <path
         sodipodi:nodetypes="ccccc"
         id="path47807-4-76-0-8"
         d="m 1588.5492,8022.9546 7.3806,0 0,0.4179 -7.3806,0 z"
         style="fill:#000000;stroke:none"
         inkscape:connector-curvature="0" />
      <path
         sodipodi:nodetypes="ccccc"
         inkscape:connector-curvature="0"
         style="fill:#000000;stroke:none"
         d="m 1597.3015,8022.9546 7.3806,0 0,0.4179 -7.3806,0 z"
         id="path47809-2-2-3-3" />
      <path
         sodipodi:nodetypes="ccccc"
         id="path47811-5-1-0-7"
         d="m 1606.1843,8022.9546 7.3807,0 0,0.4179 -7.3807,0 z"
         style="fill:#000000;stroke:none"
         inkscape:connector-curvature="0" />
      <path
         id="path47813-2-9-4-8"
         style="fill:#000000;stroke:none"
         d="m 1584.8132,8018.7762 0.9144,0 c 0,0 0.254,2.324 0.3809,3.4862 0,0.042 0.3263,0.045 0.6384,0.081 0.08,0.01 0.01,-1.2254 -0.035,-2.3492 -0.019,-0.5122 -0.091,-1.2443 -0.061,-1.5609 2.8773,-0.052 22.2533,-0.011 25.0548,0 0.017,0.2963 0.018,0.2276 0.01,0.325 -1.0214,0.011 -24.5329,-0.011 -24.519,0 0.1466,1.4148 0.077,3.6729 0.2085,4.7541 -0.8204,-0.014 -1.6657,0.045 -2.4615,0.045 z"
         inkscape:connector-curvature="0"
         sodipodi:nodetypes="ccsssccccccc" />
      <path
         sodipodi:nodetypes="cccccccc"
         inkscape:connector-curvature="0"
         d="m 1580.1475,8019.2244 0,0.4761 2.1705,0 0.016,0.8008 0.5266,0 0,-0.8001 0,-0.4757 z"
         style="fill:#333333;fill-opacity:1;fill-rule:nonzero;stroke:none"
         id="path47815-1-5-0-3" />
      <path
         id="path47817-5-4-6-7"
         style="fill:#333333;fill-opacity:1;fill-rule:nonzero;stroke:none"
         d="m 1580.1476,8022.5441 0,-0.476 2.1703,0 0.016,-0.8008 0.5267,0 0,0.8001 0,0.4758 z"
         inkscape:connector-curvature="0"
         sodipodi:nodetypes="cccccccc" />
      <path
         id="path47819-6-5-8-9"
         style="fill:#333333;fill-opacity:1;fill-rule:nonzero;stroke:none"
         d="m 1610.0588,8019.2244 0,0.4761 2.1705,0 0.016,0.8008 0.5267,0 0,-0.8001 0,-0.4757 z"
         inkscape:connector-curvature="0"
         sodipodi:nodetypes="cccccccc" />
      <path
         sodipodi:nodetypes="cccccccc"
         inkscape:connector-curvature="0"
         d="m 1610.0589,8022.5441 0,-0.476 2.1703,0 0.016,-0.8008 0.5267,0 0,0.8001 0,0.4758 z"
         style="fill:#333333;fill-opacity:1;fill-rule:nonzero;stroke:none"
         id="path47821-0-4-6-3" />
      <path
         inkscape:connector-curvature="0"
         d="m 1646.9797,8021.5681 1.9595,0 0,1.082 -1.9595,0 z"
         style="fill:#00ff00;fill-opacity:1;fill-rule:nonzero;stroke:none"
         id="path47823-4-4-9-9" />
      <path
         inkscape:connector-curvature="0"
         id="path47825-1-48-2-1"
         style="fill:#ff6600;fill-opacity:1;fill-rule:nonzero;stroke:none"
         d="m 1644.563,8021.568 1.9595,0 0,1.0821 -1.9595,0 z" />
      <path
         sodipodi:nodetypes="ssccssccs"
         d="m 1617.9614,8021.2209 1.5809,0 c 0.2145,0 0.4,0.2329 0.416,0.5221 l 0.022,0.4011 c 0.016,0.2892 -0.1436,0.522 -0.358,0.522 l -1.581,0 c -0.2144,0 -0.4,-0.2328 -0.416,-0.522 l -0.022,-0.4011 c -0.016,-0.2892 0.1436,-0.5221 0.3581,-0.5221 z"
         style="fill:#ffffff;fill-opacity:1;fill-rule:nonzero;stroke:#808080;stroke-width:0.46653545"
         id="path47827-7-40-7-8"
         inkscape:connector-curvature="0" />
      <path
         inkscape:connector-curvature="0"
         id="path47829-2-3-5-2"
         style="fill:#ffffff;fill-opacity:1;fill-rule:nonzero;stroke:#808080;stroke-width:0.46653545"
         d="m 1621.2363,8021.2209 1.581,0 c 0.2144,0 0.3999,0.2329 0.416,0.5221 l 0.022,0.4011 c 0.016,0.2892 -0.1437,0.522 -0.3581,0.522 l -1.581,0 c -0.2144,0 -0.3999,-0.2328 -0.416,-0.522 l -0.022,-0.4011 c -0.016,-0.2892 0.1437,-0.5221 0.3581,-0.5221 z"
         sodipodi:nodetypes="ssccssccs" />
      <path
         sodipodi:nodetypes="ssccssccs"
         d="m 1624.5445,8021.2209 1.5809,0 c 0.2145,0 0.4,0.2329 0.416,0.5221 l 0.022,0.4011 c 0.016,0.2892 -0.1436,0.522 -0.358,0.522 l -1.581,0 c -0.2144,0 -0.4,-0.2328 -0.416,-0.522 l -0.022,-0.4011 c -0.016,-0.2892 0.1436,-0.5221 0.3581,-0.5221 z"
         style="fill:#ffffff;fill-opacity:1;fill-rule:nonzero;stroke:#808080;stroke-width:0.46653545"
         id="path47831-2-2-7-8"
         inkscape:connector-curvature="0" />
      <path
         inkscape:connector-curvature="0"
         id="path47833-2-4-6-0"
         style="fill:#ffffff;fill-opacity:1;fill-rule:nonzero;stroke:#808080;stroke-width:0.46653545"
         d="m 1627.9078,8021.2209 1.581,0 c 0.2144,0 0.4,0.2329 0.416,0.5221 l 0.022,0.4011 c 0.016,0.2892 -0.1436,0.522 -0.3581,0.522 l -1.5809,0 c -0.2144,0 -0.4,-0.2328 -0.416,-0.522 l -0.022,-0.4011 c -0.016,-0.2892 0.1436,-0.5221 0.3581,-0.5221 z"
         sodipodi:nodetypes="ssccssccs" />
      <path
         sodipodi:nodetypes="ssccssccs"
         d="m 1631.1828,8021.2209 1.5809,0 c 0.2145,0 0.4,0.2329 0.416,0.5221 l 0.022,0.4011 c 0.016,0.2892 -0.1436,0.522 -0.3581,0.522 l -1.5809,0 c -0.2144,0 -0.4,-0.2328 -0.416,-0.522 l -0.022,-0.4011 c -0.016,-0.2892 0.1436,-0.5221 0.358,-0.5221 z"
         style="fill:#ffffff;fill-opacity:1;fill-rule:nonzero;stroke:#808080;stroke-width:0.46653545"
         id="path47835-9-0-2-1"
         inkscape:connector-curvature="0" />
      <path
         inkscape:connector-curvature="0"
         id="path47837-9-2-3-8"
         style="fill:#ffffff;fill-opacity:1;fill-rule:nonzero;stroke:#808080;stroke-width:0.46653545"
         d="m 1634.4909,8021.2209 1.581,0 c 0.2144,0 0.4,0.2329 0.416,0.5221 l 0.022,0.4011 c 0.016,0.2892 -0.1436,0.522 -0.3581,0.522 l -1.581,0 c -0.2144,0 -0.3999,-0.2328 -0.4159,-0.522 l -0.022,-0.4011 c -0.016,-0.2892 0.1436,-0.5221 0.358,-0.5221 z"
         sodipodi:nodetypes="ssccssccs" />
      <path
         style="fill:url(#linearGradient33300-6);fill-opacity:1;fill-rule:nonzero;stroke:#000000;stroke-width:0.32461023;stroke-miterlimit:4;stroke-dasharray:none"
         d="m 1651.4087,8009.0126 c -0.7615,0 -1.4037,0.8277 -1.4533,1.8556 l -0.6205,12.5477 c -0.05,1.0282 0.5285,1.8557 1.29,1.8557 l 5.5518,0 c 0.7615,0 1.4037,-0.8275 1.4533,-1.8557 l 0.1469,-3.0263 -0.8491,-0.1331 0,-5.8099 1.143,0.1546 0.1797,-3.7334 c 0.05,-1.0281 -0.5285,-1.8556 -1.29,-1.8556 l -5.5518,0 z m 2.7269,6.075 c 0.2416,0.014 0.427,0.56 0.4082,1.2151 -0.019,0.6552 -0.2319,1.1616 -0.4735,1.1488 -0.2416,-0.014 -0.4107,-0.5377 -0.3919,-1.1929 0.019,-0.655 0.2156,-1.1835 0.4572,-1.171 z"
         id="path47639-2-7-6-4"
         inkscape:connector-curvature="0" />
      <path
         style="fill:#808080;fill-opacity:1;stroke:none"
         d="m 1653.537,8010.6598 1.1191,-0.079 1.3653,1.824 -0.3256,12.2872 -1.1238,0.1333 -1.5769,-2.1767 0.9296,-0.054 0.6884,0.5189 0.2954,-10.5373 -1.3715,-1.9164"
         id="path47641-0-8-4-8"
         inkscape:path-effect="#path-effect45434-5-3-2-9-6"
         inkscape:original-d="m 1653.537,8010.6598 c 0.062,-0.8459 0.4414,-0.5645 1.1191,-0.079 l 1.3653,1.824 -0.3256,12.2872 c -0.3058,0.6698 -0.6828,0.3004 -1.1238,0.1333 l -1.5769,-2.1767 c 0.3209,-0.5608 0.4055,-0.2756 0.9296,-0.054 l 0.6884,0.5189 0.2954,-10.5373 z"
         inkscape:connector-curvature="0"
         sodipodi:nodetypes="cccccccccc" />
      <path
         style="fill:#4d4d4d;fill-opacity:1;stroke:none"
         d="m 1653.4679,8013.2892 1.0251,1.0264 -0.2408,9.0862 -1.257,-0.7506 -0.038,1.4746 1.6211,0.7015 0.3584,-12.3034 -1.4053,-1.8656 -0.063,2.6309"
         id="path47643-7-6-2-6"
         inkscape:path-effect="#path-effect45430-8-1-9-6-8"
         inkscape:original-d="m 1653.4679,8013.2892 1.0251,1.0264 -0.2408,9.0862 -1.257,-0.7506 -0.038,1.4746 1.6211,0.7015 0.3584,-12.3034 -1.4053,-1.8656 z"
         inkscape:connector-curvature="0"
         sodipodi:nodetypes="ccccccccc" />
      <path
         style="fill:none;stroke:#ffffff;stroke-width:1.10487461px;stroke-linecap:butt;stroke-linejoin:miter;stroke-opacity:1"
         d="m 1540.4565,8011.3905 10.7304,0 -9.5579,11.1507 10.766,0"
         id="path4316"
         inkscape:path-effect="#path-effect4332-2-9"
         inkscape:original-d="m 1540.4565,8011.3905 10.7304,0 -9.5579,11.1507 c 0,0 11.6187,0 10.766,0"
         inkscape:connector-curvature="0"
         sodipodi:nodetypes="cccc"
         inkscape:export-filename="C:\Documents and Settings\Elvis Čauss\Desktop\text4214.png"
         inkscape:export-xdpi="90"
         inkscape:export-ydpi="90" />
    </g>
  </g>
</svg>
