<svg id="22905592-82e7-4ed5-bc3e-7a71795991a8" data-name="Layer 1" xmlns="http://www.w3.org/2000/svg" width="678" height="935" viewBox="0 0 678 935">
  <defs>
    <style>
      .c7ec7011-f16c-4810-8ae9-efdb2f043d8a {
        fill: #fff;
      }

      .f004e395-766a-468b-96d2-579408369a93 {
        fill: #3c5563;
      }

      .\30 bd7a84b-f7e9-47d1-9a8b-c6a088913ad5 {
        fill: #768d99;
      }

      .f11ec6a2-ca93-4945-896c-4e015ca7d177 {
        fill: #acbbc2;
      }

      .\38 3761e73-fc04-4b62-9e12-1675bb357a24 {
        fill: #d40000;
      }

      .\36 4e514c0-8baa-43b1-9cd4-69d410594819 {
        fill: #f3a914;
      }

      .bdf654c3-e7a3-414d-be46-fcba1ac2ed53 {
        fill: #0275b8;
      }

      .\33 12bf1ad-08ab-4a60-91dd-cec6a37f6609 {
        opacity: 0.3;
      }

      .\34 bb72f19-ed37-4f73-ad93-817a94b7636c {
        fill: #e33734;
      }

      .\31 6faa45e-9f98-48fa-bc80-d97026f610af {
        fill: #900;
      }

      .\39 868d4b9-b1ef-41fc-bbd6-4ba4bdc08945 {
        fill: #ff5050;
      }

      .ac3a2029-55e7-4e71-ae2b-e4259d3b5d74 {
        fill: #e45959;
      }

      .d72a667d-a0f6-4fbe-beb7-3889b13725e4 {
        fill: #59db8f;
      }

      .\32 c16d2cc-7b55-4c6f-b8c2-f1185c86b77b {
        fill: #429e47;
      }

      .c568f878-f812-4e1c-b487-fbcedb049868 {
        fill: #090;
      }

      .b6643c07-c483-4100-9b18-cacf684bc6b5 {
        fill: #23d545;
      }

      .\36 4ed0bb5-47d3-4e69-a217-ae4c80e2248d {
        fill: #e99003;
      }

      .ba531f00-59ba-402a-852f-c1888a707887 {
        fill: #af6b00;
      }

      .\32 796390e-c44a-4ffb-8204-42ff36abc52a {
        fill: #ffa20d;
      }
    </style>
  </defs>
  <title>icon-sprite</title>
  <rect class="c7ec7011-f16c-4810-8ae9-efdb2f043d8a" y="903" width="95" height="25"/>
  <rect class="c7ec7011-f16c-4810-8ae9-efdb2f043d8a" y="864" width="114" height="30"/>
  <path class="f004e395-766a-468b-96d2-579408369a93" d="M20.91,19.85l-.26.27-.73-.73a4.5,4.5,0,1,0-.53.53l.73.73-.27.26L22.94,24,24,22.94Zm-6.53-1.23a3,3,0,1,1,4.24,0A3,3,0,0,1,14.38,18.62Z"/>
  <path class="f004e395-766a-468b-96d2-579408369a93" d="M18.39,56.56a4.13,4.13,0,0,1-.18-.48,2.08,2.08,0,0,1-.09-.63,1.43,1.43,0,0,1,.21-.76,3.56,3.56,0,0,1,.54-.66q.31-.31.69-.63a4.37,4.37,0,0,0,.69-.73,3.71,3.71,0,0,0,.54-.9A2.75,2.75,0,0,0,21,50.66a2.54,2.54,0,0,0-.25-1.16,2.31,2.31,0,0,0-.7-.82,3,3,0,0,0-1-.51A4.53,4.53,0,0,0,17.78,48a5.44,5.44,0,0,0-2.78.78v1.88a3.31,3.31,0,0,1,2.32-1.08,2.63,2.63,0,0,1,.7.09,1.78,1.78,0,0,1,.59.27,1.36,1.36,0,0,1,.41.45,1.47,1.47,0,0,1,.14.64,1.41,1.41,0,0,1-.2.75,3.36,3.36,0,0,1-.49.65c-.2.21-.42.42-.65.63a8.08,8.08,0,0,0-.64.68,3.38,3.38,0,0,0-.5.75,2,2,0,0,0-.2.9,3.47,3.47,0,0,0,.06.64,2.41,2.41,0,0,0,.13.53Zm0,3.12a1,1,0,0,0,.34-.76,1,1,0,0,0-.34-.76,1.13,1.13,0,0,0-.81-.33,1.18,1.18,0,0,0-.83.33,1,1,0,0,0-.34.76,1,1,0,0,0,.34.76,1.23,1.23,0,0,0,.83.32,1.2,1.2,0,0,0,.81-.32Z"/>
  <path class="f004e395-766a-468b-96d2-579408369a93" d="M18,128a9.48,9.48,0,0,0-6,2.13V132H24v-1.87A9.48,9.48,0,0,0,18,128Zm0-2a3,3,0,1,0-3-3A3,3,0,0,0,18,126Z"/>
  <path class="c7ec7011-f16c-4810-8ae9-efdb2f043d8a" d="M24.89,193.23l-2,2-2.12-2.12,2-2A3.25,3.25,0,0,0,22,191a3,3,0,0,0-3,3,3.25,3.25,0,0,0,.11.77l-4.34,4.34A2.81,2.81,0,0,0,14,199a3,3,0,0,0-3,3,3.25,3.25,0,0,0,.11.77l2-2,2.12,2.12-2,2A3.25,3.25,0,0,0,14,205a3,3,0,0,0,3-3,3.25,3.25,0,0,0-.11-.77l4.34-4.34A2.81,2.81,0,0,0,22,197a3,3,0,0,0,3-3A3.25,3.25,0,0,0,24.89,193.23Z"/>
  <path class="c7ec7011-f16c-4810-8ae9-efdb2f043d8a" d="M11,372v2H25v-2Zm0,7H25v-2H11Zm0,5H25v-2H11Z"/>
  <path class="c7ec7011-f16c-4810-8ae9-efdb2f043d8a" d="M18.7,409.25a1.06,1.06,0,0,0,.89.34,1.26,1.26,0,0,0,1-.47,1.64,1.64,0,0,0,.37-1.05,1,1,0,0,0-.31-.77,1.14,1.14,0,0,0-.84-.3,1.36,1.36,0,0,0-1,.42,1.41,1.41,0,0,0-.4,1A1.34,1.34,0,0,0,18.7,409.25Zm-3.35,4.92a5,5,0,0,1,1.78-.91q.24,0,.24.27a24,24,0,0,1-.86,3.58q-.39,1.36-.51,1.92a4.59,4.59,0,0,0-.12,1,1.22,1.22,0,0,0,.2.71.68.68,0,0,0,.59.27,2.36,2.36,0,0,0,.75-.15,10.21,10.21,0,0,0,1.42-.76c.66-.41,1.23-.77,1.71-1.09l0-.12-.22-.38h-.13a5.14,5.14,0,0,1-1.64.88.26.26,0,0,1-.2-.1.32.32,0,0,1-.09-.23,24,24,0,0,1,.9-3.53c.34-1.18.56-2,.67-2.41a4.79,4.79,0,0,0,.16-1.05.73.73,0,0,0-.19-.52.59.59,0,0,0-.44-.2,3.71,3.71,0,0,0-1.57.54A25.79,25.79,0,0,0,15,413.71l0,.12.2.33Z"/>
  <g>
    <path class="0bd7a84b-f7e9-47d1-9a8b-c6a088913ad5" d="M22,486a4,4,0,0,0-2-3.44v6.88A4,4,0,0,0,22,486Z"/>
    <g>
      <polygon class="0bd7a84b-f7e9-47d1-9a8b-c6a088913ad5" points="11 483.38 11 488.63 13.56 488.63 18 493 18 479 13.56 483.38 11 483.38"/>
      <path class="0bd7a84b-f7e9-47d1-9a8b-c6a088913ad5" d="M20,479.31v1.58a5.48,5.48,0,0,1,0,10.22v1.58a7,7,0,0,0,0-13.38Z"/>
    </g>
  </g>
  <path class="0bd7a84b-f7e9-47d1-9a8b-c6a088913ad5" d="M23.5,522a6.12,6.12,0,0,1-.13,1.14l1.21,1.21A6.75,6.75,0,0,0,25,522a7,7,0,0,0-5-6.69v1.58A5.48,5.48,0,0,1,23.5,522ZM20,518.56v1.21l2,2A4,4,0,0,0,20,518.56Zm4.7,8.74-12-12-1.41,1.41,2.48,2.47-.2.21H11v5.25h2.56L18,529v-5.59l2,2v0h0l1.09,1.08a4.88,4.88,0,0,1-1.1.6v1.58a6.84,6.84,0,0,0,2.17-1.1l1.13,1.13,1.42-1.42h0ZM18,515l-1.4,1.38,1.4,1.39Z"/>
  <path class="0bd7a84b-f7e9-47d1-9a8b-c6a088913ad5" d="M18,565a2,2,0,0,0,2-2H16A2,2,0,0,0,18,565Zm4-5.37v-3a4,4,0,0,0-3-3.86V552a1,1,0,0,0-2,0v.77a4,4,0,0,0-3,3.86v3l-2,2H24Z"/>
  <path class="0bd7a84b-f7e9-47d1-9a8b-c6a088913ad5" d="M22,592.63a4,4,0,0,0-3-3.86V588a1,1,0,0,0-2,0v.77h0l5,5ZM18,601a2,2,0,0,0,2-2H16A2,2,0,0,0,18,601Zm7-1.41h0L12.39,587,11,588.4l3.16,3.16a3.74,3.74,0,0,0-.16,1.07v3l-2,2h8.22L23.6,601l1.4-1.4Z"/>
  <path class="0bd7a84b-f7e9-47d1-9a8b-c6a088913ad5" d="M24,628a2,2,0,1,0,2,2A2,2,0,0,0,24,628Zm-12,0a2,2,0,1,0,2,2A2,2,0,0,0,12,628Zm6,0a2,2,0,1,0,2,2A2,2,0,0,0,18,628Z"/>
  <path class="0bd7a84b-f7e9-47d1-9a8b-c6a088913ad5" d="M24.14,668,18,662l-6.14,6a1.16,1.16,0,0,0,0,1.68,1.23,1.23,0,0,0,1.72,0L18,665.36l4.42,4.29a1.23,1.23,0,0,0,1.72,0A1.16,1.16,0,0,0,24.14,668Z"/>
  <path class="0bd7a84b-f7e9-47d1-9a8b-c6a088913ad5" d="M11.86,700,18,706l6.14-6a1.16,1.16,0,0,0,0-1.68,1.23,1.23,0,0,0-1.72,0L18,702.64l-4.42-4.29a1.23,1.23,0,0,0-1.72,0A1.16,1.16,0,0,0,11.86,700Z"/>
  <path class="f11ec6a2-ca93-4945-896c-4e015ca7d177" d="M18,729a9,9,0,1,0,9,9A9,9,0,0,0,18,729Zm1,14H17v-6h2Zm0-8H17v-2h2Z"/>
  <path class="f11ec6a2-ca93-4945-896c-4e015ca7d177" d="M19,783v-2h2v2Zm0-6h2v2H19Zm0-4h2v2H19Zm0-4h2v2H19Zm0-4h2v2H19Zm-4,16h2v2H15Zm0-4h2v2H15Zm0-4h2v2H15Zm0-4h2v2H15Zm0-4h2v2H15Z"/>
  <path class="0bd7a84b-f7e9-47d1-9a8b-c6a088913ad5" d="M23.77,841.74a.77.77,0,0,0-1.12,0l-6.51,6.78-2.79-2.91a.77.77,0,0,0-1.12,0,.84.84,0,0,0,0,1.16l3.35,3.49a.77.77,0,0,0,1.12,0l7.07-7.36A.84.84,0,0,0,23.77,841.74Z"/>
  <g>
    <path class="83761e73-fc04-4b62-9e12-1675bb357a24" d="M57,876.4a3.25,3.25,0,0,0,0-4.73,5.07,5.07,0,0,0-3.1-.78h-4.2v6.29h4.2A5.07,5.07,0,0,0,57,876.4Z"/>
    <path class="83761e73-fc04-4b62-9e12-1675bb357a24" d="M54.27,879.47H49.72v7.64h4.55a5.21,5.21,0,0,0,3.4-.94,3.62,3.62,0,0,0,1.1-2.89,3.57,3.57,0,0,0-1.1-2.88A5.21,5.21,0,0,0,54.27,879.47Z"/>
    <path class="83761e73-fc04-4b62-9e12-1675bb357a24" d="M76.08,876.4a3.25,3.25,0,0,0,0-4.73,5.09,5.09,0,0,0-3.1-.78H68.77v6.29H73A5.09,5.09,0,0,0,76.08,876.4Z"/>
    <polygon class="83761e73-fc04-4b62-9e12-1675bb357a24" points="30.28 881.73 37.99 881.73 34.13 871.35 30.28 881.73"/>
    <path class="83761e73-fc04-4b62-9e12-1675bb357a24" d="M0,864v30H114V864Zm21.68,25.43H4.55v-2.15L17.82,871H4.87v-2.38H21.36v2.15L8.09,887.05H21.68Zm19.11,0-1.91-5.35H29.42l-1.91,5.35h-3l8-20.86h3.22l8,20.86Zm19.06-1.52a8.57,8.57,0,0,1-5.44,1.52H46.88V868.57h7.25a8.18,8.18,0,0,1,5,1.34,4.52,4.52,0,0,1,1.75,3.82,4.74,4.74,0,0,1-.9,3,4,4,0,0,1-2.64,1.41,5.55,5.55,0,0,1,3.26,1.87,5.4,5.4,0,0,1,1.15,3.54A5.2,5.2,0,0,1,59.85,887.91Zm19.06,0a8.59,8.59,0,0,1-5.44,1.52H65.94V868.57h7.25a8.13,8.13,0,0,1,5,1.34A4.52,4.52,0,0,1,80,873.73a4.74,4.74,0,0,1-.9,3,4,4,0,0,1-2.64,1.41,5.56,5.56,0,0,1,3.25,1.87,5.41,5.41,0,0,1,1.16,3.54A5.23,5.23,0,0,1,78.91,887.91Zm9.25,1.52H85.33V868.57h2.83Zm18.17,0-5.75-8.73-5.81,8.73h-3l7.32-11-6.49-9.85h3.12l4.93,7.49,5-7.49h3l-6.5,9.77,7.31,11.09Z"/>
    <path class="83761e73-fc04-4b62-9e12-1675bb357a24" d="M73.33,879.47H68.77v7.64h4.56a5.16,5.16,0,0,0,3.39-.94,3.6,3.6,0,0,0,1.11-2.89,3.55,3.55,0,0,0-1.11-2.88A5.16,5.16,0,0,0,73.33,879.47Z"/>
    <polygon class="c7ec7011-f16c-4810-8ae9-efdb2f043d8a" points="108.64 868.57 105.63 868.57 100.64 876.06 95.71 868.57 92.59 868.57 99.08 878.42 91.76 889.43 94.77 889.43 100.58 880.7 106.33 889.43 109.45 889.43 102.14 878.34 108.64 868.57"/>
    <polygon class="c7ec7011-f16c-4810-8ae9-efdb2f043d8a" points="21.36 870.72 21.36 868.57 4.87 868.57 4.87 870.95 17.82 870.95 4.55 887.28 4.55 889.43 21.68 889.43 21.68 887.05 8.09 887.05 21.36 870.72"/>
    <path class="c7ec7011-f16c-4810-8ae9-efdb2f043d8a" d="M32.53,868.57l-8,20.86h3l1.91-5.35h9.46l1.91,5.35h3l-8-20.86Zm-2.25,13.16,3.85-10.38L38,881.73Z"/>
    <path class="c7ec7011-f16c-4810-8ae9-efdb2f043d8a" d="M57.35,878.18A4,4,0,0,0,60,876.77a4.74,4.74,0,0,0,.9-3,4.52,4.52,0,0,0-1.75-3.82,8.18,8.18,0,0,0-5-1.34H46.88v20.86h7.53a8.57,8.57,0,0,0,5.44-1.52,5.2,5.2,0,0,0,1.91-4.32,5.4,5.4,0,0,0-1.15-3.54A5.55,5.55,0,0,0,57.35,878.18Zm-7.63-7.29h4.2a5.07,5.07,0,0,1,3.1.78,3.25,3.25,0,0,1,0,4.73,5.07,5.07,0,0,1-3.1.78h-4.2Zm8,15.28a5.21,5.21,0,0,1-3.4.94H49.72v-7.64h4.55a5.21,5.21,0,0,1,3.4.93,3.57,3.57,0,0,1,1.1,2.88A3.62,3.62,0,0,1,57.67,886.17Z"/>
    <rect class="c7ec7011-f16c-4810-8ae9-efdb2f043d8a" x="85.33" y="868.57" width="2.84" height="20.85"/>
    <path class="c7ec7011-f16c-4810-8ae9-efdb2f043d8a" d="M76.41,878.18a4,4,0,0,0,2.64-1.41,4.74,4.74,0,0,0,.9-3,4.52,4.52,0,0,0-1.76-3.82,8.13,8.13,0,0,0-5-1.34H65.94v20.86h7.53a8.59,8.59,0,0,0,5.44-1.52,5.23,5.23,0,0,0,1.91-4.32,5.41,5.41,0,0,0-1.16-3.54A5.56,5.56,0,0,0,76.41,878.18Zm-7.64-7.29H73a5.09,5.09,0,0,1,3.1.78,3.25,3.25,0,0,1,0,4.73,5.09,5.09,0,0,1-3.1.78H68.77Zm8,15.28a5.16,5.16,0,0,1-3.39.94H68.77v-7.64h4.56a5.16,5.16,0,0,1,3.39.93,3.55,3.55,0,0,1,1.11,2.88A3.6,3.6,0,0,1,76.72,886.17Z"/>
  </g>
  <g>
    <path class="83761e73-fc04-4b62-9e12-1675bb357a24" d="M47.52,913.34a2.36,2.36,0,0,0,.84-2,2.33,2.33,0,0,0-.84-2,4.27,4.27,0,0,0-2.59-.65h-3.5V914h3.5A4.35,4.35,0,0,0,47.52,913.34Z"/>
    <path class="83761e73-fc04-4b62-9e12-1675bb357a24" d="M45.23,915.89h-3.8v6.36h3.8a4.33,4.33,0,0,0,2.83-.78,3,3,0,0,0,.91-2.4,3,3,0,0,0-.91-2.4A4.27,4.27,0,0,0,45.23,915.89Z"/>
    <path class="83761e73-fc04-4b62-9e12-1675bb357a24" d="M63.4,913.34a2.37,2.37,0,0,0,.85-2,2.34,2.34,0,0,0-.85-2,4.27,4.27,0,0,0-2.59-.65h-3.5V914h3.5A4.35,4.35,0,0,0,63.4,913.34Z"/>
    <polygon class="83761e73-fc04-4b62-9e12-1675bb357a24" points="25.23 917.78 31.66 917.78 28.44 909.13 25.23 917.78"/>
    <path class="83761e73-fc04-4b62-9e12-1675bb357a24" d="M0,903v25H95V903Zm18.07,21.2H3.79v-1.8l11.06-13.6H4.06v-2H17.8v1.8l-11,13.6H18.07Zm15.92,0-1.59-4.46H24.51l-1.58,4.46h-2.5l6.68-17.39h2.68l6.66,17.39Zm15.89-1.28a7.17,7.17,0,0,1-4.54,1.28H39.07V906.81h6a6.7,6.7,0,0,1,4.17,1.12,3.74,3.74,0,0,1,1.46,3.18,4,4,0,0,1-.75,2.53,3.43,3.43,0,0,1-2.19,1.19,4.32,4.32,0,0,1,3.67,4.49A4.35,4.35,0,0,1,49.88,922.92Zm15.87,0a7.14,7.14,0,0,1-4.53,1.28H55V906.81h6a6.74,6.74,0,0,1,4.17,1.12,3.77,3.77,0,0,1,1.47,3.18,4,4,0,0,1-.75,2.53,3.45,3.45,0,0,1-2.21,1.19,4.54,4.54,0,0,1,2.71,1.54,4.48,4.48,0,0,1,1,3A4.33,4.33,0,0,1,65.75,922.92Zm7.72,1.28H71.1V906.81h2.37Zm15.14,0-4.8-7.28L79,924.2H76.47L82.56,915l-5.4-8.2h2.6l4.11,6.25L88,906.81h2.51L85.12,915l6.09,9.25Z"/>
    <path class="83761e73-fc04-4b62-9e12-1675bb357a24" d="M61.11,915.89h-3.8v6.36h3.8a4.33,4.33,0,0,0,2.83-.78,3,3,0,0,0,.92-2.4,3,3,0,0,0-.92-2.4A4.27,4.27,0,0,0,61.11,915.89Z"/>
    <polygon class="c7ec7011-f16c-4810-8ae9-efdb2f043d8a" points="90.53 906.81 88.02 906.81 83.87 913.06 79.76 906.81 77.16 906.81 82.56 915.01 76.47 924.2 78.97 924.2 83.81 916.91 88.61 924.2 91.21 924.2 85.12 914.95 90.53 906.81"/>
    <polygon class="c7ec7011-f16c-4810-8ae9-efdb2f043d8a" points="17.8 908.61 17.8 906.81 4.06 906.81 4.06 908.8 14.85 908.8 3.79 922.4 3.79 924.2 18.07 924.2 18.07 922.21 6.75 922.21 17.8 908.61"/>
    <path class="c7ec7011-f16c-4810-8ae9-efdb2f043d8a" d="M27.11,906.81,20.43,924.2h2.5l1.58-4.46H32.4L34,924.2h2.46l-6.66-17.39Zm-1.88,11,3.21-8.65,3.22,8.65Z"/>
    <path class="c7ec7011-f16c-4810-8ae9-efdb2f043d8a" d="M47.8,914.83A3.43,3.43,0,0,0,50,913.64a4,4,0,0,0,.75-2.53,3.74,3.74,0,0,0-1.46-3.18,6.7,6.7,0,0,0-4.17-1.12h-6V924.2h6.27a7.17,7.17,0,0,0,4.54-1.28,4.35,4.35,0,0,0,1.59-3.6,4.32,4.32,0,0,0-3.67-4.49Zm-6.37-6.09h3.5a4.27,4.27,0,0,1,2.59.65,2.33,2.33,0,0,1,.84,2,2.36,2.36,0,0,1-.84,2,4.35,4.35,0,0,1-2.59.65h-3.5Zm6.63,12.73a4.33,4.33,0,0,1-2.83.78h-3.8v-6.36h3.8a4.27,4.27,0,0,1,2.83.78,3,3,0,0,1,.91,2.4A3,3,0,0,1,48.06,921.47Z"/>
    <rect class="c7ec7011-f16c-4810-8ae9-efdb2f043d8a" x="71.1" y="906.81" width="2.36" height="17.38"/>
    <path class="c7ec7011-f16c-4810-8ae9-efdb2f043d8a" d="M63.67,914.83a3.45,3.45,0,0,0,2.21-1.19,4,4,0,0,0,.75-2.53,3.77,3.77,0,0,0-1.47-3.18A6.74,6.74,0,0,0,61,906.81H55V924.2h6.27a7.14,7.14,0,0,0,4.53-1.28,4.33,4.33,0,0,0,1.6-3.6,4.48,4.48,0,0,0-1-3A4.54,4.54,0,0,0,63.67,914.83Zm-6.36-6.09h3.5a4.27,4.27,0,0,1,2.59.65,2.34,2.34,0,0,1,.85,2,2.37,2.37,0,0,1-.85,2,4.35,4.35,0,0,1-2.59.65h-3.5Zm6.63,12.73a4.33,4.33,0,0,1-2.83.78h-3.8v-6.36h3.8a4.27,4.27,0,0,1,2.83.78,3,3,0,0,1,.92,2.4A3,3,0,0,1,63.94,921.47Z"/>
  </g>
  <path class="f004e395-766a-468b-96d2-579408369a93" d="M23,84H13a1,1,0,0,0-1,1V95a1,1,0,0,0,1,1H23a1,1,0,0,0,1-1V85A1,1,0,0,0,23,84Zm-2,9.82H15V92.59l3.54-4.82H15.19V86.18H20.9v1.35l-3.45,4.7H21Z"/>
  <g>
    <polygon class="c7ec7011-f16c-4810-8ae9-efdb2f043d8a" points="25 227 19.63 227 21.63 229 19 231.64 20.36 233 22.99 230.37 25 232.37 25 227"/>
    <polygon class="c7ec7011-f16c-4810-8ae9-efdb2f043d8a" points="15.64 235 13.01 237.63 11 235.63 11 241 16.37 241 14.37 239 17 236.36 15.64 235"/>
  </g>
  <g>
    <polygon class="c7ec7011-f16c-4810-8ae9-efdb2f043d8a" points="25 264.36 23.64 263 21.01 265.63 19 263.63 19 269 24.37 269 22.37 267 25 264.36"/>
    <polygon class="c7ec7011-f16c-4810-8ae9-efdb2f043d8a" points="13.63 273 11 275.64 12.36 277 14.99 274.37 17 276.37 17 271 11.63 271 13.63 273"/>
  </g>
  <path class="f004e395-766a-468b-96d2-579408369a93" d="M22.35,158.06l-1.06,1.07a4.31,4.31,0,0,1,1.21,3,4.5,4.5,0,0,1-9,0,4.31,4.31,0,0,1,1.21-3l-1.06-1.06a5.77,5.77,0,0,0-1.65,4,6,6,0,0,0,12,0A5.81,5.81,0,0,0,22.35,158.06ZM19,156H17v6h2Z"/>
  <path class="c7ec7011-f16c-4810-8ae9-efdb2f043d8a" d="M96.39,56.56a4.13,4.13,0,0,1-.18-.48,2.08,2.08,0,0,1-.09-.63,1.43,1.43,0,0,1,.21-.76,3.56,3.56,0,0,1,.54-.66q.31-.31.69-.63a4.37,4.37,0,0,0,.69-.73,3.71,3.71,0,0,0,.54-.9A2.75,2.75,0,0,0,99,50.66a2.54,2.54,0,0,0-.25-1.16,2.31,2.31,0,0,0-.7-.82,3,3,0,0,0-1-.51A4.53,4.53,0,0,0,95.78,48a5.44,5.44,0,0,0-2.78.78v1.88a3.31,3.31,0,0,1,2.32-1.08,2.63,2.63,0,0,1,.7.09,1.78,1.78,0,0,1,.59.27,1.36,1.36,0,0,1,.41.45,1.47,1.47,0,0,1,.14.64,1.41,1.41,0,0,1-.2.75,3.36,3.36,0,0,1-.49.65c-.2.21-.42.42-.65.63a8.08,8.08,0,0,0-.64.68,3.38,3.38,0,0,0-.5.75,2,2,0,0,0-.2.9,3.47,3.47,0,0,0,.06.64,2.41,2.41,0,0,0,.13.53Zm0,3.12a1,1,0,0,0,.34-.76,1,1,0,0,0-.34-.76,1.13,1.13,0,0,0-.81-.33,1.18,1.18,0,0,0-.83.33,1,1,0,0,0-.34.76,1,1,0,0,0,.34.76,1.23,1.23,0,0,0,.83.32,1.2,1.2,0,0,0,.81-.32Z"/>
  <path class="c7ec7011-f16c-4810-8ae9-efdb2f043d8a" d="M96,128a9.48,9.48,0,0,0-6,2.13V132h12v-1.87A9.48,9.48,0,0,0,96,128Zm0-2a3,3,0,1,0-3-3A3,3,0,0,0,96,126Z"/>
  <path class="c7ec7011-f16c-4810-8ae9-efdb2f043d8a" d="M101,84H91a1,1,0,0,0-1,1V95a1,1,0,0,0,1,1h10a1,1,0,0,0,1-1V85A1,1,0,0,0,101,84Zm-2,9.82H93V92.59l3.54-4.82H93.19V86.18H98.9v1.35l-3.45,4.7H99Z"/>
  <path class="c7ec7011-f16c-4810-8ae9-efdb2f043d8a" d="M100.35,158.06l-1.06,1.07a4.31,4.31,0,0,1,1.21,3,4.5,4.5,0,0,1-9,0,4.31,4.31,0,0,1,1.21-3l-1.06-1.06a5.77,5.77,0,0,0-1.65,4,6,6,0,0,0,12,0A5.81,5.81,0,0,0,100.35,158.06ZM97,156H95v6h2Z"/>
  <path class="f11ec6a2-ca93-4945-896c-4e015ca7d177" d="M61.5,837h-15a1.5,1.5,0,0,0-1.5,1.5v15a1.5,1.5,0,0,0,1.5,1.5h15a1.5,1.5,0,0,0,1.5-1.5v-15A1.5,1.5,0,0,0,61.5,837ZM61,853H47V841H61Zm-10-9H49v2h2Zm8,0H57v2h2Zm-4,0H53v2h2Zm0,4H53v2h2Zm-4,0H49v2h2Zm8,0H57v2h2Z"/>
  <path class="64e514c0-8baa-43b1-9cd4-69d410594819" d="M58.79,807.22,56.6,809.4l-2-2,2.19-2.19a3.4,3.4,0,0,0-4.3,4.55L49,813.23,50.77,815l3.48-3.48a3.4,3.4,0,0,0,4.54-4.3Z"/>
  <path class="0bd7a84b-f7e9-47d1-9a8b-c6a088913ad5" d="M55,777v-5.21a2.5,2.5,0,1,0-2,0V777H50l4,4,4-4Z"/>
  <path class="0bd7a84b-f7e9-47d1-9a8b-c6a088913ad5" d="M53,735v5.21a2.5,2.5,0,1,0,2,0V735h3l-4-4-4,4Z"/>
  <path class="0bd7a84b-f7e9-47d1-9a8b-c6a088913ad5" d="M61.68,695.71a1,1,0,0,0-1.53,0l-8.45,8.91-3.85-4a1,1,0,0,0-1.53,0,1.17,1.17,0,0,0,0,1.61l4.6,4.86a1.07,1.07,0,0,0,.78.34,1,1,0,0,0,.77-.34l9.21-9.71A1.18,1.18,0,0,0,61.68,695.71Z"/>
  <path class="c7ec7011-f16c-4810-8ae9-efdb2f043d8a" d="M98.91,19.85l-.26.27-.73-.73a4.5,4.5,0,1,0-.53.53l.73.73-.27.26L100.94,24,102,22.94Zm-6.53-1.23a3,3,0,1,1,4.24,0A3,3,0,0,1,92.38,18.62Z"/>
  <path d="M174.39,56.56a4.13,4.13,0,0,1-.18-.48,2.08,2.08,0,0,1-.09-.63,1.43,1.43,0,0,1,.21-.76,3.56,3.56,0,0,1,.54-.66q.31-.31.69-.63a4.37,4.37,0,0,0,.69-.73,3.71,3.71,0,0,0,.54-.9,2.75,2.75,0,0,0,.21-1.11,2.54,2.54,0,0,0-.25-1.16,2.31,2.31,0,0,0-.7-.82,3,3,0,0,0-1-.51,4.53,4.53,0,0,0-1.24-.17,5.44,5.44,0,0,0-2.78.78v1.88a3.31,3.31,0,0,1,2.32-1.08,2.63,2.63,0,0,1,.7.09,1.78,1.78,0,0,1,.59.27,1.36,1.36,0,0,1,.41.45,1.47,1.47,0,0,1,.14.64,1.41,1.41,0,0,1-.2.75,3.36,3.36,0,0,1-.49.65c-.2.21-.42.42-.65.63a8.08,8.08,0,0,0-.64.68,3.38,3.38,0,0,0-.5.75,2,2,0,0,0-.2.9,3.47,3.47,0,0,0,.06.64,2.41,2.41,0,0,0,.13.53Zm0,3.12a1,1,0,0,0,.34-.76,1,1,0,0,0-.34-.76,1.13,1.13,0,0,0-.81-.33,1.18,1.18,0,0,0-.83.33,1,1,0,0,0-.34.76,1,1,0,0,0,.34.76,1.23,1.23,0,0,0,.83.32,1.2,1.2,0,0,0,.81-.32Z"/>
  <path d="M174,128a9.48,9.48,0,0,0-6,2.13V132h12v-1.87A9.48,9.48,0,0,0,174,128Zm0-2a3,3,0,1,0-3-3A3,3,0,0,0,174,126Z"/>
  <path d="M179,84H169a1,1,0,0,0-1,1V95a1,1,0,0,0,1,1h10a1,1,0,0,0,1-1V85A1,1,0,0,0,179,84Zm-2,9.82h-6V92.59l3.54-4.82h-3.33V86.18h5.71v1.35l-3.45,4.7H177Z"/>
  <path d="M178.35,158.06l-1.06,1.07a4.31,4.31,0,0,1,1.21,3,4.5,4.5,0,0,1-9,0,4.31,4.31,0,0,1,1.21-3l-1.06-1.06a5.77,5.77,0,0,0-1.65,4,6,6,0,0,0,12,0A5.81,5.81,0,0,0,178.35,158.06ZM175,156h-2v6h2Z"/>
  <path d="M176.91,19.85l-.26.27-.73-.73a4.5,4.5,0,1,0-.53.53l.73.73-.27.26L178.94,24,180,22.94Zm-6.53-1.23a3,3,0,1,1,4.24,0A3,3,0,0,1,170.38,18.62Z"/>
  <path class="c7ec7011-f16c-4810-8ae9-efdb2f043d8a" d="M18,299l-2.1,4.7-4.9.65.71.7h0l.19.19h0l2.7,2.66h0l-.93,5.1.87-.5h0l.27-.16h0L18,310.5l3.19,1.84h0l.27.16h0l.87.5-.93-5.1h0l2.7-2.66h0l.19-.19h0l.71-.7-4.9-.65L18,299Zm-4.84,6.07,2.87-.38.55-.07.23-.51L18,301.45l1.19,2.66.23.51.55.07,2.87.38-2.14,2.12-.38.37.09.52.55,3-2.46-1.42-.5-.29-.5.29L15,311.05l.54-3,.1-.52-.38-.37-2.14-2.12Z"/>
  <g>
    <path class="64e514c0-8baa-43b1-9cd4-69d410594819" d="M16.24,338.16l-4.16.55,3.06,3s-.54,3-.78,4.3L18,343.92,21.64,346c-.24-1.34-.78-4.3-.78-4.3l3.06-3-4.16-.55L18,334.22Z"/>
    <path class="64e514c0-8baa-43b1-9cd4-69d410594819" d="M18,333l-2.1,4.7-4.9.65.71.7h0l.19.19h0l2.7,2.66h0l-.93,5.1.87-.5h0l.27-.16h0L18,344.5l3.19,1.84h0l.27.16h0l.87.5-.93-5.1h0l2.7-2.66h0l.19-.19h0l.71-.7-4.9-.65L18,333Zm-4.84,6.07,2.87-.38.55-.07.23-.51L18,335.45l1.19,2.66.23.51.55.07,2.87.38-2.14,2.12-.38.37.09.52.55,3-2.46-1.42-.5-.29-.5.29L15,345.05l.54-3,.1-.52-.38-.37-2.14-2.12Z"/>
  </g>
  <path class="c7ec7011-f16c-4810-8ae9-efdb2f043d8a" d="M53,671h2v-6H53Zm0-10v2h2v-2Z"/>
  <path class="0bd7a84b-f7e9-47d1-9a8b-c6a088913ad5" d="M59.11,630l1.89-.47a7,7,0,0,0-1-2.4l-1.66,1-1.45-1.45,1-1.66a7.19,7.19,0,0,0-2.4-1L55,625.89H53L52.5,624a7.22,7.22,0,0,0-2.39,1l1,1.66-1.45,1.45-1.66-1a7,7,0,0,0-1,2.4l1.89.47v2L47,632.5a7,7,0,0,0,1,2.39l1.66-1,1.45,1.45-1,1.66a7,7,0,0,0,2.39,1l.48-1.89h2l.47,1.89a7,7,0,0,0,2.4-1l-1-1.66,1.45-1.45,1.66,1a7,7,0,0,0,1-2.39L59.11,632ZM54,633.05a2,2,0,1,1,2-2A2.05,2.05,0,0,1,54,633.05Z"/>
  <path class="0bd7a84b-f7e9-47d1-9a8b-c6a088913ad5" d="M56,588v-1H52v1H48v2H60v-2Zm-7,11.5a1.5,1.5,0,0,0,1.5,1.5h7a1.5,1.5,0,0,0,1.5-1.5V591H49Zm6.25-6.5h1.5v6h-1.5Zm-4,0h1.5v6h-1.5Z"/>
  <path id="1a0e4a29-71b1-409b-a706-b9a6923be137" data-name="path4237-4-1" class="c7ec7011-f16c-4810-8ae9-efdb2f043d8a" d="M98,729.36l-6,6.14,6,6.14a1.16,1.16,0,0,0,1.68,0,1.23,1.23,0,0,0,0-1.72l-4.29-4.42,4.29-4.42a1.24,1.24,0,0,0,0-1.72A1.16,1.16,0,0,0,98,729.36Z"/>
  <path id="e41cbdae-5405-4c21-bb14-188351db14cd" data-name="path4237-4" class="bdf654c3-e7a3-414d-be46-fcba1ac2ed53" d="M98,695.86,92,702l6,6.14a1.16,1.16,0,0,0,1.68,0,1.23,1.23,0,0,0,0-1.72L95.36,702l4.29-4.42a1.24,1.24,0,0,0,0-1.72A1.16,1.16,0,0,0,98,695.86Z"/>
  <path id="ca634d7a-3043-4132-9eed-500401c865bf" data-name="path4237-4" d="M257,662.36l-6,6.14,6,6.14a1.16,1.16,0,0,0,1.68,0,1.24,1.24,0,0,0,0-1.73l-4.29-4.41,4.29-4.42a1.24,1.24,0,0,0,0-1.72A1.16,1.16,0,0,0,257,662.36Z"/>
  <path id="b243a0dd-fcfb-4043-989c-93e718b249fe" data-name="path4237-4" d="M253,641.14l6-6.14-6-6.14a1.16,1.16,0,0,0-1.68,0,1.23,1.23,0,0,0,0,1.72l4.29,4.42-4.29,4.42a1.23,1.23,0,0,0,0,1.72A1.16,1.16,0,0,0,253,641.14Z"/>
  <path id="1ad7ab0d-b05d-436f-8394-2c8dcc46a896" data-name="path4237-4" class="0bd7a84b-f7e9-47d1-9a8b-c6a088913ad5" d="M98,662.36l-6,6.14,6,6.14a1.16,1.16,0,0,0,1.68,0,1.24,1.24,0,0,0,0-1.73l-4.29-4.41,4.29-4.42a1.24,1.24,0,0,0,0-1.72A1.16,1.16,0,0,0,98,662.36Z"/>
  <path id="418eb75b-24a5-4426-be3f-74bba3440a34" data-name="path4237-4" class="0bd7a84b-f7e9-47d1-9a8b-c6a088913ad5" d="M94,641.14l6-6.14-6-6.14a1.16,1.16,0,0,0-1.68,0,1.23,1.23,0,0,0,0,1.72L96.64,635l-4.29,4.42a1.23,1.23,0,0,0,0,1.72A1.16,1.16,0,0,0,94,641.14Z"/>
  <path id="2e9ca5a4-0070-4e1d-85fb-7bbe90793ba8" data-name="path4237-4" class="c7ec7011-f16c-4810-8ae9-efdb2f043d8a" d="M410,662.36l-6,6.14,6,6.14a1.16,1.16,0,0,0,1.68,0,1.24,1.24,0,0,0,0-1.73l-4.29-4.41,4.29-4.42a1.24,1.24,0,0,0,0-1.72A1.16,1.16,0,0,0,410,662.36Z"/>
  <path id="1f2bb933-a27d-4add-bf5f-3b36e41cd680" data-name="path4237-4" class="c7ec7011-f16c-4810-8ae9-efdb2f043d8a" d="M406,641.14l6-6.14-6-6.14a1.16,1.16,0,0,0-1.68,0,1.23,1.23,0,0,0,0,1.72l4.29,4.42-4.29,4.42a1.23,1.23,0,0,0,0,1.72A1.16,1.16,0,0,0,406,641.14Z"/>
  <g>
    <path d="M181,486a4,4,0,0,0-2-3.44v6.88A4,4,0,0,0,181,486Z"/>
    <g>
      <polygon points="170 483.38 170 488.63 172.56 488.63 177 493 177 479 172.56 483.38 170 483.38"/>
      <path d="M179,479.31v1.58a5.48,5.48,0,0,1,0,10.22v1.58a7,7,0,0,0,0-13.38Z"/>
    </g>
  </g>
  <path d="M182.5,522a6.12,6.12,0,0,1-.13,1.14l1.21,1.21A6.75,6.75,0,0,0,184,522a7,7,0,0,0-5-6.69v1.58A5.48,5.48,0,0,1,182.5,522Zm-3.5-3.44v1.21l2,2A4,4,0,0,0,179,518.56Zm4.7,8.74-12-12-1.41,1.41,2.48,2.47-.2.21H170v5.25h2.56L177,529v-5.59l2,2v0h0l1.09,1.08a4.88,4.88,0,0,1-1.1.6v1.58a6.84,6.84,0,0,0,2.17-1.1l1.13,1.13,1.42-1.42h0ZM177,515l-1.4,1.38,1.4,1.39Z"/>
  <path d="M177,565a2,2,0,0,0,2-2h-4A2,2,0,0,0,177,565Zm4-5.37v-3a4,4,0,0,0-3-3.86V552a1,1,0,0,0-2,0v.77a4,4,0,0,0-3,3.86v3l-2,2h12Z"/>
  <path d="M181,592.63a4,4,0,0,0-3-3.86V588a1,1,0,0,0-2,0v.77h0l5,5ZM177,601a2,2,0,0,0,2-2h-4A2,2,0,0,0,177,601Zm7-1.41h0L171.39,587,170,588.4l3.16,3.16a3.74,3.74,0,0,0-.16,1.07v3l-2,2h8.22L182.6,601l1.4-1.4Z"/>
  <path d="M183,628a2,2,0,1,0,2,2A2,2,0,0,0,183,628Zm-12,0a2,2,0,1,0,2,2A2,2,0,0,0,171,628Zm6,0a2,2,0,1,0,2,2A2,2,0,0,0,177,628Z"/>
  <path d="M183.14,668,177,662l-6.14,6a1.16,1.16,0,0,0,0,1.68,1.23,1.23,0,0,0,1.72,0l4.42-4.29,4.42,4.29a1.23,1.23,0,0,0,1.72,0A1.16,1.16,0,0,0,183.14,668Z"/>
  <path d="M170.86,700l6.14,6,6.14-6a1.16,1.16,0,0,0,0-1.68,1.23,1.23,0,0,0-1.72,0L177,702.64l-4.42-4.29a1.23,1.23,0,0,0-1.72,0A1.16,1.16,0,0,0,170.86,700Z"/>
  <path d="M177,729a9,9,0,1,0,9,9A9,9,0,0,0,177,729Zm1,14h-2v-6h2Zm0-8h-2v-2h2Z"/>
  <path d="M178,783v-2h2v2Zm0-6h2v2h-2Zm0-4h2v2h-2Zm0-4h2v2h-2Zm0-4h2v2h-2Zm-4,16h2v2h-2Zm0-4h2v2h-2Zm0-4h2v2h-2Zm0-4h2v2h-2Zm0-4h2v2h-2Z"/>
  <path d="M182.77,841.74a.77.77,0,0,0-1.12,0l-6.51,6.78-2.79-2.91a.77.77,0,0,0-1.12,0,.84.84,0,0,0,0,1.16l3.35,3.49a.77.77,0,0,0,1.12,0l7.07-7.36A.84.84,0,0,0,182.77,841.74Z"/>
  <path d="M220.5,837h-15a1.5,1.5,0,0,0-1.5,1.5v15a1.5,1.5,0,0,0,1.5,1.5h15a1.5,1.5,0,0,0,1.5-1.5v-15A1.5,1.5,0,0,0,220.5,837Zm-.5,16H206V841h14Zm-10-9h-2v2h2Zm8,0h-2v2h2Zm-4,0h-2v2h2Zm0,4h-2v2h2Zm-4,0h-2v2h2Zm8,0h-2v2h2Z"/>
  <path d="M217.79,807.22l-2.19,2.18-2-2,2.19-2.19a3.4,3.4,0,0,0-4.3,4.55L208,813.23l1.77,1.77,3.48-3.48a3.4,3.4,0,0,0,4.54-4.3Z"/>
  <path d="M214,777v-5.21a2.5,2.5,0,1,0-2,0V777h-3l4,4,4-4Z"/>
  <path d="M212,735v5.21a2.5,2.5,0,1,0,2,0V735h3l-4-4-4,4Z"/>
  <path d="M220.68,695.71a1,1,0,0,0-1.53,0l-8.45,8.91-3.85-4a1,1,0,0,0-1.53,0,1.17,1.17,0,0,0,0,1.61l4.6,4.86a1.07,1.07,0,0,0,.78.34,1,1,0,0,0,.77-.34l9.21-9.71A1.18,1.18,0,0,0,220.68,695.71Z"/>
  <path class="c7ec7011-f16c-4810-8ae9-efdb2f043d8a" d="M212,671h2v-6h-2Zm0-10v2h2v-2Z"/>
  <path d="M218.11,630l1.89-.47a7,7,0,0,0-1-2.4l-1.66,1-1.45-1.45,1-1.66a7.19,7.19,0,0,0-2.4-1l-.47,1.89h-2L211.5,624a7.22,7.22,0,0,0-2.39,1l1,1.66-1.45,1.45-1.66-1a7,7,0,0,0-1,2.4l1.89.47v2l-1.89.48a7,7,0,0,0,1,2.39l1.66-1,1.45,1.45-1,1.66a7,7,0,0,0,2.39,1l.48-1.89h2l.47,1.89a7,7,0,0,0,2.4-1l-1-1.66,1.45-1.45,1.66,1a7,7,0,0,0,1-2.39l-1.89-.48ZM213,633.05a2,2,0,1,1,2-2A2.05,2.05,0,0,1,213,633.05Z"/>
  <path d="M215,588v-1h-4v1h-4v2h12v-2Zm-7,11.5a1.5,1.5,0,0,0,1.5,1.5h7a1.5,1.5,0,0,0,1.5-1.5V591H208Zm6.25-6.5h1.5v6h-1.5Zm-4,0h1.5v6h-1.5Z"/>
  <path id="30394df7-c043-4edc-8aa0-f6d090cde6b4" data-name="path4237-4" d="M257,695.86,251,702l6,6.14a1.16,1.16,0,0,0,1.68,0,1.23,1.23,0,0,0,0-1.72L254.36,702l4.29-4.42a1.24,1.24,0,0,0,0-1.72A1.16,1.16,0,0,0,257,695.86Z"/>
  <path id="63ce0696-2890-43ef-b57c-006c9de34d15" data-name="path4237-4-1" class="c7ec7011-f16c-4810-8ae9-efdb2f043d8a" d="M257,729.36l-6,6.14,6,6.14a1.16,1.16,0,0,0,1.68,0,1.23,1.23,0,0,0,0-1.72l-4.29-4.42,4.29-4.42a1.24,1.24,0,0,0,0-1.72A1.16,1.16,0,0,0,257,729.36Z"/>
  <g>
    <circle class="312bf1ad-08ab-4a60-91dd-cec6a37f6609" cx="135.5" cy="296.5" r="12.5"/>
    <circle class="c7ec7011-f16c-4810-8ae9-efdb2f043d8a" cx="135.5" cy="296.5" r="9.27"/>
    <path d="M134.29,301.74h2.42v-5.8h-2.42Zm0-9.68V294h2.42v-1.94Z"/>
  </g>
  <g>
    <g class="312bf1ad-08ab-4a60-91dd-cec6a37f6609">
      <path d="M139.46,328c-2.18-3.82-5.74-3.82-7.92,0L123,343.05c-2.18,3.82-.36,6.95,4,6.95h17c4.4,0,6.22-3.13,4-6.95Z"/>
    </g>
    <path class="c7ec7011-f16c-4810-8ae9-efdb2f043d8a" d="M136.46,329.12c-.53-1-1.39-1-1.92,0l-8.65,15.77c-.53,1-.07,1.76,1,1.76h17.16c1.1,0,1.56-.79,1-1.76Z"/>
    <path d="M136.92,334.18h-2.66v6.33h2.66Zm0,10.55v-2.11h-2.66v2.11Z"/>
  </g>
  <g>
    <g class="312bf1ad-08ab-4a60-91dd-cec6a37f6609">
      <path d="M131.54,387.05c2.18,3.82,5.74,3.82,7.92,0L148,372c2.18-3.82.36-6.95-4-6.95H127c-4.4,0-6.22,3.13-4,6.95Z"/>
    </g>
    <path class="c7ec7011-f16c-4810-8ae9-efdb2f043d8a" d="M134.54,385.88c.53,1,1.39,1,1.92,0l8.65-15.77c.53-1,.07-1.76-1-1.76H126.92c-1.1,0-1.56.79-1,1.76Z"/>
    <path d="M136.74,370.27h-2.66v6.33h2.66Zm0,10.55v-2.11h-2.66v2.11Z"/>
  </g>
  <circle class="c7ec7011-f16c-4810-8ae9-efdb2f043d8a" cx="177" cy="420" r="9"/>
  <circle class="c7ec7011-f16c-4810-8ae9-efdb2f043d8a" cx="87" cy="420" r="9"/>
  <g>
    <rect x="176" y="423" width="2" height="2"/>
    <rect x="176" y="415" width="2" height="6"/>
  </g>
  <circle class="c7ec7011-f16c-4810-8ae9-efdb2f043d8a" cx="147" cy="420" r="9"/>
  <g>
    <rect x="146" y="415" width="2" height="2"/>
    <rect x="146" y="419" width="2" height="6"/>
  </g>
  <circle class="c7ec7011-f16c-4810-8ae9-efdb2f043d8a" cx="117" cy="420" r="9"/>
  <polygon class="c7ec7011-f16c-4810-8ae9-efdb2f043d8a" points="214.78 422.73 210.22 415.27 207 410 203.78 415.27 199.22 422.73 196 428 218 428 214.78 422.73"/>
  <polygon class="c7ec7011-f16c-4810-8ae9-efdb2f043d8a" points="229.22 416.27 233.78 423.73 237 429 240.22 423.73 244.78 416.27 248 411 226 411 229.22 416.27"/>
  <polygon class="c7ec7011-f16c-4810-8ae9-efdb2f043d8a" points="270.73 411 263.27 411 258 416.27 258 423.73 263.27 429 270.73 429 276 423.73 276 416.27 270.73 411"/>
  <g>
    <rect x="206" y="424" width="2" height="2"/>
    <rect x="206" y="416" width="2" height="6"/>
  </g>
  <g>
    <rect x="236" y="421" width="2" height="2"/>
    <rect x="236" y="413" width="2" height="6"/>
  </g>
  <polygon points="92.43 417.29 91.02 415.87 85.05 421.84 82.69 419.47 81.27 420.89 85.02 424.63 85.05 424.59 85.09 424.63 92.43 417.29"/>
  <path d="M117.39,423a4.13,4.13,0,0,1-.18-.48,2.08,2.08,0,0,1-.09-.63,1.43,1.43,0,0,1,.21-.76,3.26,3.26,0,0,1,.54-.66q.31-.32.69-.63a4.8,4.8,0,0,0,.69-.73,3.71,3.71,0,0,0,.54-.9,2.82,2.82,0,0,0,.21-1.11,2.51,2.51,0,0,0-.25-1.16,2.43,2.43,0,0,0-.7-.83,3,3,0,0,0-1-.5,4.53,4.53,0,0,0-1.24-.17,5.44,5.44,0,0,0-2.78.78v1.88a3.33,3.33,0,0,1,2.32-1.09,2.63,2.63,0,0,1,.7.09,1.89,1.89,0,0,1,.59.28,1.36,1.36,0,0,1,.41.45,1.44,1.44,0,0,1,.14.64,1.41,1.41,0,0,1-.2.75,3.69,3.69,0,0,1-.49.65c-.2.21-.42.42-.65.63a6.79,6.79,0,0,0-.64.68,3.38,3.38,0,0,0-.5.75,2,2,0,0,0-.2.9,3.55,3.55,0,0,0,.06.64,2.56,2.56,0,0,0,.13.53Zm0,2.82a1,1,0,0,0,.34-.76,1,1,0,0,0-.34-.76,1.13,1.13,0,0,0-.81-.33,1.18,1.18,0,0,0-.83.33,1,1,0,0,0-.34.76,1,1,0,0,0,.34.76,1.19,1.19,0,0,0,.83.32,1.16,1.16,0,0,0,.81-.32Z"/>
  <circle cx="177" cy="452" r="9"/>
  <circle cx="87" cy="452" r="9"/>
  <g>
    <rect class="c7ec7011-f16c-4810-8ae9-efdb2f043d8a" x="176" y="455" width="2" height="2"/>
    <rect class="c7ec7011-f16c-4810-8ae9-efdb2f043d8a" x="176" y="447" width="2" height="6"/>
  </g>
  <circle cx="147" cy="452" r="9"/>
  <g>
    <rect class="c7ec7011-f16c-4810-8ae9-efdb2f043d8a" x="146" y="447" width="2" height="2"/>
    <rect class="c7ec7011-f16c-4810-8ae9-efdb2f043d8a" x="146" y="451" width="2" height="6"/>
  </g>
  <circle cx="117" cy="452" r="9"/>
  <polygon points="214.78 454.73 210.22 447.27 207 442 203.78 447.27 199.22 454.73 196 460 218 460 214.78 454.73"/>
  <polygon points="229.22 448.27 233.78 455.73 237 461 240.22 455.73 244.78 448.27 248 443 226 443 229.22 448.27"/>
  <polygon points="270.73 443 263.27 443 258 448.27 258 455.73 263.27 461 270.73 461 276 455.73 276 448.27 270.73 443"/>
  <g>
    <rect class="c7ec7011-f16c-4810-8ae9-efdb2f043d8a" x="206" y="456" width="2" height="2"/>
    <rect class="c7ec7011-f16c-4810-8ae9-efdb2f043d8a" x="206" y="448" width="2" height="6"/>
  </g>
  <g>
    <rect class="c7ec7011-f16c-4810-8ae9-efdb2f043d8a" x="236" y="453" width="2" height="2"/>
    <rect class="c7ec7011-f16c-4810-8ae9-efdb2f043d8a" x="236" y="445" width="2" height="6"/>
  </g>
  <polygon class="c7ec7011-f16c-4810-8ae9-efdb2f043d8a" points="92.43 449.29 91.02 447.87 85.05 453.84 82.69 451.47 81.27 452.89 85.02 456.63 85.05 456.59 85.09 456.63 92.43 449.29"/>
  <path class="c7ec7011-f16c-4810-8ae9-efdb2f043d8a" d="M117.39,455a4.13,4.13,0,0,1-.18-.48,2.08,2.08,0,0,1-.09-.63,1.43,1.43,0,0,1,.21-.76,3.26,3.26,0,0,1,.54-.66q.31-.32.69-.63a4.8,4.8,0,0,0,.69-.73,3.71,3.71,0,0,0,.54-.9,2.82,2.82,0,0,0,.21-1.11,2.51,2.51,0,0,0-.25-1.16,2.43,2.43,0,0,0-.7-.83,3,3,0,0,0-1-.5,4.53,4.53,0,0,0-1.24-.17,5.44,5.44,0,0,0-2.78.78v1.88a3.33,3.33,0,0,1,2.32-1.09,2.63,2.63,0,0,1,.7.09,1.89,1.89,0,0,1,.59.28,1.36,1.36,0,0,1,.41.45,1.44,1.44,0,0,1,.14.64,1.41,1.41,0,0,1-.2.75,3.69,3.69,0,0,1-.49.65c-.2.21-.42.42-.65.63a6.79,6.79,0,0,0-.64.68,3.38,3.38,0,0,0-.5.75,2,2,0,0,0-.2.9,3.55,3.55,0,0,0,.06.64,2.56,2.56,0,0,0,.13.53Zm0,2.82a1,1,0,0,0,.34-.76,1,1,0,0,0-.34-.76,1.13,1.13,0,0,0-.81-.33,1.18,1.18,0,0,0-.83.33,1,1,0,0,0-.34.76,1,1,0,0,0,.34.76,1.19,1.19,0,0,0,.83.32,1.16,1.16,0,0,0,.81-.32Z"/>
  <rect x="262" y="419" width="10" height="3"/>
  <rect class="c7ec7011-f16c-4810-8ae9-efdb2f043d8a" x="262" y="451" width="10" height="3"/>
  <path d="M60.89,193.23l-2,2-2.12-2.12,2-2A3.25,3.25,0,0,0,58,191a3,3,0,0,0-3,3,3.25,3.25,0,0,0,.11.77l-4.34,4.34A2.81,2.81,0,0,0,50,199a3,3,0,0,0-3,3,3.25,3.25,0,0,0,.11.77l2-2,2.12,2.12-2,2A3.25,3.25,0,0,0,50,205a3,3,0,0,0,3-3,3.25,3.25,0,0,0-.11-.77l4.34-4.34A2.81,2.81,0,0,0,58,197a3,3,0,0,0,3-3A3.25,3.25,0,0,0,60.89,193.23Z"/>
  <path d="M47,372v2H61v-2Zm0,7H61v-2H47Zm0,5H61v-2H47Z"/>
  <path d="M54.7,409.25a1.06,1.06,0,0,0,.89.34,1.26,1.26,0,0,0,1-.47,1.64,1.64,0,0,0,.37-1.05,1,1,0,0,0-.31-.77,1.14,1.14,0,0,0-.84-.3,1.36,1.36,0,0,0-1,.42,1.41,1.41,0,0,0-.4,1A1.34,1.34,0,0,0,54.7,409.25Zm-3.35,4.92a5,5,0,0,1,1.78-.91q.24,0,.24.27a24,24,0,0,1-.86,3.58q-.39,1.36-.51,1.92a4.59,4.59,0,0,0-.12,1,1.22,1.22,0,0,0,.2.71.68.68,0,0,0,.59.27,2.36,2.36,0,0,0,.75-.15,10.21,10.21,0,0,0,1.42-.76c.66-.41,1.23-.77,1.71-1.09l0-.12-.22-.38h-.13a5.14,5.14,0,0,1-1.64.88.26.26,0,0,1-.2-.1.32.32,0,0,1-.09-.23,24,24,0,0,1,.9-3.53c.34-1.18.56-2,.67-2.41a4.79,4.79,0,0,0,.16-1.05.73.73,0,0,0-.19-.52.59.59,0,0,0-.44-.2,3.71,3.71,0,0,0-1.57.54A25.79,25.79,0,0,0,51,413.71l0,.12.2.33Z"/>
  <g>
    <polygon points="61 227 55.63 227 57.63 229 55 231.64 56.36 233 58.99 230.37 61 232.37 61 227"/>
    <polygon points="51.64 235 49.01 237.63 47 235.63 47 241 52.37 241 50.37 239 53 236.36 51.64 235"/>
  </g>
  <g>
    <polygon points="61 264.36 59.64 263 57.01 265.63 55 263.63 55 269 60.37 269 58.37 267 61 264.36"/>
    <polygon points="49.63 273 47 275.64 48.36 277 50.99 274.37 53 276.37 53 271 47.63 271 49.63 273"/>
  </g>
  <path d="M54,301.45l1.19,2.66.23.51.55.07,2.87.38-2.14,2.12-.38.37.1.52.54,3-2.46-1.42-.5-.29-.5.29L51,311.05l.54-3,.1-.52-.38-.37-2.14-2.12,2.87-.38.55-.07.23-.51L54,301.45M54,299l-2.1,4.7-4.9.65,3.6,3.55-.93,5.1L54,310.5l4.33,2.5-.93-5.1,3.6-3.55-4.9-.65L54,299Z"/>
  <g>
    <polygon class="64e514c0-8baa-43b1-9cd4-69d410594819" points="54 343.92 50.36 346.03 51.14 341.73 48.08 338.71 52.24 338.16 54 334.23 55.76 338.16 59.92 338.71 56.86 341.73 57.64 346.03 54 343.92"/>
    <path class="64e514c0-8baa-43b1-9cd4-69d410594819" d="M54,335.45l1.19,2.66.23.51.55.07,2.87.38-2.14,2.12-.38.37.1.52.54,3-2.46-1.42-.5-.29-.5.29L51,345.05l.54-3,.1-.52-.38-.37-2.14-2.12,2.87-.38.55-.07.23-.51L54,335.45M54,333l-2.1,4.7-4.9.65,3.6,3.55-.93,5.1L54,344.5l4.33,2.5-.93-5.1,3.6-3.55-4.9-.65L54,333Z"/>
  </g>
  <g>
    <path class="c7ec7011-f16c-4810-8ae9-efdb2f043d8a" d="M334,486a4,4,0,0,0-2-3.44v6.88A4,4,0,0,0,334,486Z"/>
    <g>
      <polygon class="c7ec7011-f16c-4810-8ae9-efdb2f043d8a" points="323 483.38 323 488.63 325.56 488.63 330 493 330 479 325.56 483.38 323 483.38"/>
      <path class="c7ec7011-f16c-4810-8ae9-efdb2f043d8a" d="M332,479.31v1.58a5.48,5.48,0,0,1,0,10.22v1.58a7,7,0,0,0,0-13.38Z"/>
    </g>
  </g>
  <path class="c7ec7011-f16c-4810-8ae9-efdb2f043d8a" d="M335.5,522a6.12,6.12,0,0,1-.13,1.14l1.21,1.21A6.75,6.75,0,0,0,337,522a7,7,0,0,0-5-6.69v1.58A5.48,5.48,0,0,1,335.5,522Zm-3.5-3.44v1.21l2,2A4,4,0,0,0,332,518.56Zm4.7,8.74-12-12-1.41,1.41,2.48,2.47-.2.21H323v5.25h2.56L330,529v-5.59l2,2v0h0l1.09,1.08a4.88,4.88,0,0,1-1.1.6v1.58a6.84,6.84,0,0,0,2.17-1.1l1.13,1.13,1.42-1.42h0ZM330,515l-1.4,1.38,1.4,1.39Z"/>
  <path class="c7ec7011-f16c-4810-8ae9-efdb2f043d8a" d="M330,565a2,2,0,0,0,2-2h-4A2,2,0,0,0,330,565Zm4-5.37v-3a4,4,0,0,0-3-3.86V552a1,1,0,0,0-2,0v.77a4,4,0,0,0-3,3.86v3l-2,2h12Z"/>
  <path class="c7ec7011-f16c-4810-8ae9-efdb2f043d8a" d="M334,592.63a4,4,0,0,0-3-3.86V588a1,1,0,0,0-2,0v.77h0l5,5ZM330,601a2,2,0,0,0,2-2h-4A2,2,0,0,0,330,601Zm7-1.41h0L324.39,587,323,588.4l3.16,3.16a3.74,3.74,0,0,0-.16,1.07v3l-2,2h8.22L335.6,601l1.4-1.4Z"/>
  <path class="c7ec7011-f16c-4810-8ae9-efdb2f043d8a" d="M336,628a2,2,0,1,0,2,2A2,2,0,0,0,336,628Zm-12,0a2,2,0,1,0,2,2A2,2,0,0,0,324,628Zm6,0a2,2,0,1,0,2,2A2,2,0,0,0,330,628Z"/>
  <path class="c7ec7011-f16c-4810-8ae9-efdb2f043d8a" d="M336.14,668,330,662l-6.14,6a1.16,1.16,0,0,0,0,1.68,1.23,1.23,0,0,0,1.72,0l4.42-4.29,4.42,4.29a1.23,1.23,0,0,0,1.72,0A1.16,1.16,0,0,0,336.14,668Z"/>
  <path class="c7ec7011-f16c-4810-8ae9-efdb2f043d8a" d="M323.86,700l6.14,6,6.14-6a1.16,1.16,0,0,0,0-1.68,1.23,1.23,0,0,0-1.72,0L330,702.64l-4.42-4.29a1.23,1.23,0,0,0-1.72,0A1.16,1.16,0,0,0,323.86,700Z"/>
  <path class="c7ec7011-f16c-4810-8ae9-efdb2f043d8a" d="M330,729a9,9,0,1,0,9,9A9,9,0,0,0,330,729Zm1,14h-2v-6h2Zm0-8h-2v-2h2Z"/>
  <path class="c7ec7011-f16c-4810-8ae9-efdb2f043d8a" d="M331,783v-2h2v2Zm0-6h2v2h-2Zm0-4h2v2h-2Zm0-4h2v2h-2Zm0-4h2v2h-2Zm-4,16h2v2h-2Zm0-4h2v2h-2Zm0-4h2v2h-2Zm0-4h2v2h-2Zm0-4h2v2h-2Z"/>
  <path class="c7ec7011-f16c-4810-8ae9-efdb2f043d8a" d="M335.77,841.74a.77.77,0,0,0-1.12,0l-6.51,6.78-2.79-2.91a.77.77,0,0,0-1.12,0,.84.84,0,0,0,0,1.16l3.35,3.49a.77.77,0,0,0,1.12,0l7.07-7.36A.84.84,0,0,0,335.77,841.74Z"/>
  <path class="c7ec7011-f16c-4810-8ae9-efdb2f043d8a" d="M373.5,837h-15a1.5,1.5,0,0,0-1.5,1.5v15a1.5,1.5,0,0,0,1.5,1.5h15a1.5,1.5,0,0,0,1.5-1.5v-15A1.5,1.5,0,0,0,373.5,837Zm-.5,16H359V841h14Zm-10-9h-2v2h2Zm8,0h-2v2h2Zm-4,0h-2v2h2Zm0,4h-2v2h2Zm-4,0h-2v2h2Zm8,0h-2v2h2Z"/>
  <path class="c7ec7011-f16c-4810-8ae9-efdb2f043d8a" d="M370.79,807.22l-2.19,2.18-2-2,2.19-2.19a3.4,3.4,0,0,0-4.3,4.55L361,813.23l1.77,1.77,3.48-3.48a3.4,3.4,0,0,0,4.54-4.3Z"/>
  <path class="c7ec7011-f16c-4810-8ae9-efdb2f043d8a" d="M367,777v-5.21a2.5,2.5,0,1,0-2,0V777h-3l4,4,4-4Z"/>
  <path class="c7ec7011-f16c-4810-8ae9-efdb2f043d8a" d="M365,735v5.21a2.5,2.5,0,1,0,2,0V735h3l-4-4-4,4Z"/>
  <path class="c7ec7011-f16c-4810-8ae9-efdb2f043d8a" d="M373.68,695.71a1,1,0,0,0-1.53,0l-8.45,8.91-3.85-4a1,1,0,0,0-1.53,0,1.17,1.17,0,0,0,0,1.61l4.6,4.86a1.07,1.07,0,0,0,.78.34,1,1,0,0,0,.77-.34l9.21-9.71A1.18,1.18,0,0,0,373.68,695.71Z"/>
  <path d="M365,671h2v-6h-2Zm0-10v2h2v-2Z"/>
  <path class="c7ec7011-f16c-4810-8ae9-efdb2f043d8a" d="M371.11,630l1.89-.47a7,7,0,0,0-1-2.4l-1.66,1-1.45-1.45,1-1.66a7.19,7.19,0,0,0-2.4-1l-.47,1.89h-2L364.5,624a7.22,7.22,0,0,0-2.39,1l1,1.66-1.45,1.45-1.66-1a7,7,0,0,0-1,2.4l1.89.47v2l-1.89.48a7,7,0,0,0,1,2.39l1.66-1,1.45,1.45-1,1.66a7,7,0,0,0,2.39,1l.48-1.89h2l.47,1.89a7,7,0,0,0,2.4-1l-1-1.66,1.45-1.45,1.66,1a7,7,0,0,0,1-2.39l-1.89-.48ZM366,633.05a2,2,0,1,1,2-2A2.05,2.05,0,0,1,366,633.05Z"/>
  <path class="c7ec7011-f16c-4810-8ae9-efdb2f043d8a" d="M368,588v-1h-4v1h-4v2h12v-2Zm-7,11.5a1.5,1.5,0,0,0,1.5,1.5h7a1.5,1.5,0,0,0,1.5-1.5V591H361Zm6.25-6.5h1.5v6h-1.5Zm-4,0h1.5v6h-1.5Z"/>
  <path id="062f747f-7b3a-4784-99f7-fa9cde62f57c" data-name="path4237-4" class="c7ec7011-f16c-4810-8ae9-efdb2f043d8a" d="M410,695.86,404,702l6,6.14a1.16,1.16,0,0,0,1.68,0,1.23,1.23,0,0,0,0-1.72L407.36,702l4.29-4.42a1.24,1.24,0,0,0,0-1.72A1.16,1.16,0,0,0,410,695.86Z"/>
  <path id="0b035c5f-8dda-4532-a649-9616cbb65fbd" data-name="path4237-4-1" d="M410,729.36l-6,6.14,6,6.14a1.16,1.16,0,0,0,1.68,0,1.23,1.23,0,0,0,0-1.72l-4.29-4.42,4.29-4.42a1.24,1.24,0,0,0,0-1.72A1.16,1.16,0,0,0,410,729.36Z"/>
  <g>
    <circle class="312bf1ad-08ab-4a60-91dd-cec6a37f6609" cx="135.5" cy="256.5" r="12.5"/>
    <circle class="c7ec7011-f16c-4810-8ae9-efdb2f043d8a" cx="135.5" cy="256.5" r="9.27"/>
    <path d="M141.62,252.74a.77.77,0,0,0-1.12,0L134,259.52l-2.79-2.91a.77.77,0,0,0-1.12,0,.84.84,0,0,0,0,1.16l3.35,3.49a.77.77,0,0,0,1.12,0l7.07-7.36A.84.84,0,0,0,141.62,252.74Z"/>
  </g>
  <path id="d871ff68-400c-4fd2-a154-11a87e29ec89" data-name="path4209" class="0bd7a84b-f7e9-47d1-9a8b-c6a088913ad5" d="M52.88,565.13h2v-14h-2Zm-6-6h14v-2h-14Z"/>
  <g id="b4bd2773-198a-4e99-b244-f6fab543e203" data-name="g4365">
    <g id="61c20cfe-6118-494f-acb4-d806e0875c55" data-name="g4367">
      <path id="ed9cc9d0-84f1-49ab-9182-35dff538679f" data-name="path4369" class="0bd7a84b-f7e9-47d1-9a8b-c6a088913ad5" d="M55,524.25H49.38v1.38H55Zm0-3.12H49.38v1.37H55Zm-4.75-6v2.75H46.88v11H57.5v-2.75h3.38v-11Zm5.63,12.07H48.5v-7.7h7.38Zm3.31-2.75H57.5v-6.57H51.88V517h7.31Z"/>
    </g>
  </g>
  <g id="cd61f6a9-1b8f-40ba-9257-93ac9e81205e" data-name="g4375">
    <path id="3ca11eac-1e7a-49de-b867-7e0554d08211" data-name="path4377" class="0bd7a84b-f7e9-47d1-9a8b-c6a088913ad5" d="M57.27,480.45l1.64,1.64-5.78,5.79-1.65-1.64Zm3.38-1.2-.38-.37a1,1,0,0,0-1.43,0l-1,1,1.65,1.63,1.14-1.14a.78.78,0,0,0,0-1.1M50,489.17a.25.25,0,0,0,.31.31l2.11-1.08-1.57-1.54Z"/>
  </g>
  <g id="bd433f2f-efdd-435f-b192-23f43bc154bd" data-name="g4383">
    <rect id="545bd505-0d2b-4f20-9854-1e29fee33f6e" data-name="rect4385" class="0bd7a84b-f7e9-47d1-9a8b-c6a088913ad5" x="46.88" y="490.75" width="14" height="2"/>
  </g>
  <path id="bc033ba3-1760-4b8d-adb0-512dffb53424" data-name="path4209" d="M211.88,565.13h2v-14h-2Zm-6-6h14v-2h-14Z"/>
  <g id="4824523b-a01f-4c0a-8f85-44ba150f3a45" data-name="g4365">
    <g id="e5d7cf4d-e8d8-45ac-843f-6a237c5b7243" data-name="g4367">
      <path id="0ad10add-c194-4555-ba08-a9da4933a145" data-name="path4369" d="M214,524.25h-5.62v1.38H214Zm0-3.12h-5.62v1.37H214Zm-4.75-6v2.75h-3.37v11H216.5v-2.75h3.38v-11Zm5.63,12.07H207.5v-7.7h7.38Zm3.31-2.75H216.5v-6.57h-5.62V517h7.31Z"/>
    </g>
  </g>
  <g id="787a5df8-e47b-49ca-bb3a-5b8f358e7f65" data-name="g4375">
    <path id="0cc20cae-ad50-4634-9e6b-b5ff7f414e36" data-name="path4377" d="M216.27,480.45l1.64,1.64-5.78,5.79-1.65-1.64Zm3.38-1.2-.38-.37a1,1,0,0,0-1.43,0l-1,1,1.65,1.63,1.14-1.14a.78.78,0,0,0,0-1.1M209,489.17a.25.25,0,0,0,.31.31l2.11-1.08-1.57-1.54Z"/>
  </g>
  <g id="5c3eb563-32ec-45fc-b079-f4f476788d45" data-name="g4383">
    <rect id="17fcbd46-e0ef-4107-8138-d8553bd032d5" data-name="rect4385" x="205.88" y="490.75" width="14" height="2"/>
  </g>
  <path id="bada3e6a-d81a-435a-be13-848c3e41bd0e" data-name="path4209" class="c7ec7011-f16c-4810-8ae9-efdb2f043d8a" d="M364.88,565.13h2v-14h-2Zm-6-6h14v-2h-14Z"/>
  <g id="c22707e7-1934-4aa2-af30-5e3fcd3635ee" data-name="g4365">
    <g id="5778de69-59a2-4106-b9b4-3a6b8f13441f" data-name="g4367">
      <path id="74ceaed6-ee56-4854-8b1c-3f67993a144c" data-name="path4369" class="c7ec7011-f16c-4810-8ae9-efdb2f043d8a" d="M367,524.25h-5.62v1.38H367Zm0-3.12h-5.62v1.37H367Zm-4.75-6v2.75h-3.37v11H369.5v-2.75h3.38v-11Zm5.63,12.07H360.5v-7.7h7.38Zm3.31-2.75H369.5v-6.57h-5.62V517h7.31Z"/>
    </g>
  </g>
  <g id="b5ff9283-c471-4ca3-a850-1b1e9ce1877d" data-name="g4375">
    <path id="dd579bb1-ed07-4c95-9977-d3257cbed638" data-name="path4377" class="c7ec7011-f16c-4810-8ae9-efdb2f043d8a" d="M369.27,480.45l1.64,1.64-5.78,5.79-1.65-1.64Zm3.38-1.2-.38-.37a1,1,0,0,0-1.43,0l-1,1,1.65,1.63,1.14-1.14a.78.78,0,0,0,0-1.1M362,489.17a.25.25,0,0,0,.31.31l2.11-1.08-1.57-1.54Z"/>
  </g>
  <g id="5cfbbedd-dd5b-410f-800e-2e55341324c8" data-name="g4383">
    <rect id="98f0055a-5a0a-41e5-8bb3-585280a53754" data-name="rect4385" class="c7ec7011-f16c-4810-8ae9-efdb2f043d8a" x="358.88" y="490.75" width="14" height="2"/>
  </g>
  <g>
    <polygon points="91.63 227 93.63 229 91 231.64 92.36 233 94.99 230.37 97 232.37 97 227 91.63 227"/>
    <polygon points="87.64 235 85.01 237.63 83 235.63 83 241 88.37 241 86.37 239 89 236.36 87.64 235"/>
    <polygon points="88.37 227 83 227 83 232.37 85 230.37 87.64 233 89 231.64 86.37 229.01 88.37 227"/>
    <polygon points="92.36 235 91 236.36 93.63 238.99 91.63 241 97 241 97 235.63 95 237.63 92.36 235"/>
  </g>
  <g>
    <polygon class="c7ec7011-f16c-4810-8ae9-efdb2f043d8a" points="91.63 263 93.63 265 91 267.64 92.36 269 94.99 266.37 97 268.37 97 263 91.63 263"/>
    <polygon class="c7ec7011-f16c-4810-8ae9-efdb2f043d8a" points="87.64 271 85.01 273.63 83 271.63 83 277 88.37 277 86.37 275 89 272.36 87.64 271"/>
    <polygon class="c7ec7011-f16c-4810-8ae9-efdb2f043d8a" points="88.37 263 83 263 83 268.37 85 266.37 87.64 269 89 267.64 86.37 265.01 88.37 263"/>
    <polygon class="c7ec7011-f16c-4810-8ae9-efdb2f043d8a" points="92.36 271 91 272.36 93.63 274.99 91.63 277 97 277 97 271.63 95 273.63 92.36 271"/>
  </g>
  <g id="dfdeb9c3-e25d-404e-9764-f15e9bed2292" data-name="Shape">
    <path class="c7ec7011-f16c-4810-8ae9-efdb2f043d8a" d="M99,587a7,7,0,1,0,7,7,7,7,0,0,0-7-7Zm0,12.6a5.6,5.6,0,1,1,5.6-5.6A5.62,5.62,0,0,1,99,599.6Zm.35-9.1h-1v4.2l3.64,2.24.56-.91-3.15-1.89Z"/>
  </g>
  <g id="aad73bae-290b-4976-a3db-6ab1a1b0f0bd" data-name="Shape">
    <path class="c7ec7011-f16c-4810-8ae9-efdb2f043d8a" d="M411,587a7,7,0,1,0,7,7,7,7,0,0,0-7-7Zm0,12.6a5.6,5.6,0,1,1,5.6-5.6A5.62,5.62,0,0,1,411,599.6Zm.35-9.1H410.3v4.2l3.64,2.24.56-.91-3.15-1.89Z"/>
  </g>
  <g id="40b1fc34-d103-416b-becf-56ab30e17b92" data-name="Shape">
    <path d="M258,587a7,7,0,1,0,7,7,7,7,0,0,0-7-7Zm0,12.6a5.6,5.6,0,1,1,5.6-5.6A5.62,5.62,0,0,1,258,599.6Zm.35-9.1H257.3v4.2l3.64,2.24.56-.91-3.15-1.89Z"/>
  </g>
  <path class="c7ec7011-f16c-4810-8ae9-efdb2f043d8a" d="M258.21,52.56a4.78,4.78,0,0,0-4.38-4.51A5.05,5.05,0,0,0,248.05,52a4,4,0,0,0,0,.6h0v3.11A1.46,1.46,0,0,0,249.52,57H251V53.68h-1.76V52.55h0a2.15,2.15,0,0,1,0-.43,3.77,3.77,0,0,1,4.33-2.93,3.58,3.58,0,0,1,3.28,3.41h0v1.08h-1.75V57h1.61a2.32,2.32,0,0,1-.56.93,2.63,2.63,0,0,1-1.06.61,1,1,0,0,0-.78-.38h-.58a.88.88,0,1,0,0,1.75h.58a1,1,0,0,0,.9-.57,3.49,3.49,0,0,0,1.58-.88,3,3,0,0,0,.9-1.85,1.35,1.35,0,0,0,.45-1V52.55Z"/>
  <path d="M258.21,88.62a4.79,4.79,0,0,0-4.38-4.51A5.05,5.05,0,0,0,248.05,88a4,4,0,0,0,0,.6h0v3.12a1.45,1.45,0,0,0,1.52,1.37H251V89.75h-1.76V88.62h0a2,2,0,0,1,0-.43,3.78,3.78,0,0,1,4.33-2.94,3.59,3.59,0,0,1,3.28,3.42h0v1.08h-1.75V93.1h1.61a2.19,2.19,0,0,1-.56.93,2.54,2.54,0,0,1-1.06.62,1,1,0,0,0-.78-.38h-.58a.87.87,0,1,0,0,1.74h.58a1,1,0,0,0,.9-.57,3.4,3.4,0,0,0,1.58-.88,3,3,0,0,0,.9-1.85,1.33,1.33,0,0,0,.45-1V88.61Z"/>
  <path class="f004e395-766a-468b-96d2-579408369a93" d="M258.21,16.56a4.78,4.78,0,0,0-4.38-4.51A5.05,5.05,0,0,0,248.05,16a4,4,0,0,0,0,.6h0v3.11A1.46,1.46,0,0,0,249.52,21H251V17.68h-1.76V16.55h0a2.15,2.15,0,0,1,0-.43,3.77,3.77,0,0,1,4.33-2.93,3.58,3.58,0,0,1,3.28,3.41h0v1.08h-1.75V21h1.61a2.32,2.32,0,0,1-.56.93,2.63,2.63,0,0,1-1.06.61,1,1,0,0,0-.78-.38h-.58a.88.88,0,1,0,0,1.75h.58a1,1,0,0,0,.9-.57,3.49,3.49,0,0,0,1.58-.88,3,3,0,0,0,.9-1.85,1.35,1.35,0,0,0,.45-1V16.55Z"/>
  <g>
    <polygon class="0bd7a84b-f7e9-47d1-9a8b-c6a088913ad5" points="360 253 360 257 357.06 257 361 261.08 364.94 257 362 257 362 253 360 253"/>
    <polygon class="4bb72f19-ed37-4f73-ad93-817a94b7636c" points="356 255 356 251 358.94 251 355 246.92 351.06 251 354 251 354 255 356 255"/>
  </g>
  <path class="0bd7a84b-f7e9-47d1-9a8b-c6a088913ad5" d="M239.59,246H226.41a1.41,1.41,0,0,0-1.41,1.41v13.18a1.41,1.41,0,0,0,1.41,1.41h13.18a1.41,1.41,0,0,0,1.41-1.41V247.41A1.41,1.41,0,0,0,239.59,246Zm-8.54,12.52,0,0,0,0-3.74-3.74,1.41-1.42,2.36,2.37,6-6,1.41,1.42Z"/>
  <path class="0bd7a84b-f7e9-47d1-9a8b-c6a088913ad5" d="M340.63,248.32a1,1,0,0,0-1.53,0l-8.45,8.91-3.84-4.05a1,1,0,0,0-1.54,0,1.2,1.2,0,0,0,0,1.62l4.61,4.85a1,1,0,0,0,1.54,0l9.21-9.71A1.18,1.18,0,0,0,340.63,248.32Z"/>
  <path class="0bd7a84b-f7e9-47d1-9a8b-c6a088913ad5" d="M289.52,246h-13a1.5,1.5,0,0,0-1.5,1.5V262c1.69-2.34,4-4,5.22-4h9.28a1.51,1.51,0,0,0,1.5-1.5v-9A1.51,1.51,0,0,0,289.52,246Zm-2.62,4.14-4.73,5a.77.77,0,0,1-1.12,0l-2-2.13a.84.84,0,0,1,0-1.16.77.77,0,0,1,1.12,0l1.44,1.55,4.17-4.43a.77.77,0,0,1,1.12,0A.86.86,0,0,1,286.9,250.14Z"/>
  <path class="0bd7a84b-f7e9-47d1-9a8b-c6a088913ad5" d="M314.52,246h-13a1.5,1.5,0,0,0-1.5,1.5V262c1.69-2.34,4-4,5.22-4h9.28a1.51,1.51,0,0,0,1.5-1.5v-9A1.51,1.51,0,0,0,314.52,246ZM304,253a1,1,0,1,1,1-1A1,1,0,0,1,304,253Zm4,0a1,1,0,1,1,1-1A1,1,0,0,1,308,253Zm4,0a1,1,0,1,1,1-1A1,1,0,0,1,312,253Z"/>
  <g>
    <rect class="0bd7a84b-f7e9-47d1-9a8b-c6a088913ad5" x="261" y="254" width="2" height="8" rx="1" ry="1" transform="translate(520 -4) rotate(90)"/>
    <path class="0bd7a84b-f7e9-47d1-9a8b-c6a088913ad5" d="M256.58,253l-4.24-4.24a1,1,0,1,0-1.42,1.41l3.54,3.54-3.54,3.54a1,1,0,0,0,1.42,1.42l4.24-4.25a1,1,0,0,0,0-1.42Z"/>
  </g>
  <g>
    <polygon points="360 293 360 297 357.06 297 361 301.08 364.94 297 362 297 362 293 360 293"/>
    <polygon class="16faa45e-9f98-48fa-bc80-d97026f610af" points="356 295 356 291 358.94 291 355 286.92 351.06 291 354 291 354 295 356 295"/>
  </g>
  <path d="M239.59,286H226.41a1.41,1.41,0,0,0-1.41,1.41v13.18a1.41,1.41,0,0,0,1.41,1.41h13.18a1.41,1.41,0,0,0,1.41-1.41V287.41A1.41,1.41,0,0,0,239.59,286Zm-8.54,12.52,0,0,0,0-3.74-3.74,1.41-1.42,2.36,2.37,6-6,1.41,1.42Z"/>
  <path d="M340.63,288.32a1,1,0,0,0-1.53,0l-8.45,8.91-3.84-4.05a1,1,0,0,0-1.54,0,1.2,1.2,0,0,0,0,1.62l4.61,4.85a1,1,0,0,0,1.54,0l9.21-9.71A1.18,1.18,0,0,0,340.63,288.32Z"/>
  <path d="M289.52,286h-13a1.5,1.5,0,0,0-1.5,1.5V302c1.69-2.34,4-4,5.22-4h9.28a1.51,1.51,0,0,0,1.5-1.5v-9A1.51,1.51,0,0,0,289.52,286Zm-2.62,4.14-4.73,5a.77.77,0,0,1-1.12,0l-2-2.13a.84.84,0,0,1,0-1.16.77.77,0,0,1,1.12,0l1.44,1.55,4.17-4.43a.77.77,0,0,1,1.12,0A.86.86,0,0,1,286.9,290.14Z"/>
  <path d="M314.52,286h-13a1.5,1.5,0,0,0-1.5,1.5V302c1.69-2.34,4-4,5.22-4h9.28a1.51,1.51,0,0,0,1.5-1.5v-9A1.51,1.51,0,0,0,314.52,286ZM304,293a1,1,0,1,1,1-1A1,1,0,0,1,304,293Zm4,0a1,1,0,1,1,1-1A1,1,0,0,1,308,293Zm4,0a1,1,0,1,1,1-1A1,1,0,0,1,312,293Z"/>
  <g>
    <rect x="261" y="294" width="2" height="8" rx="1" ry="1" transform="translate(560 36) rotate(90)"/>
    <path d="M256.58,293l-4.24-4.24a1,1,0,0,0-1.42,1.41l3.54,3.54-3.54,3.54a1,1,0,0,0,1.42,1.42l4.24-4.25a1,1,0,0,0,0-1.42Z"/>
  </g>
  <g>
    <polygon class="c7ec7011-f16c-4810-8ae9-efdb2f043d8a" points="360 333 360 337 357.06 337 361 341.08 364.94 337 362 337 362 333 360 333"/>
    <polygon class="9868d4b9-b1ef-41fc-bbd6-4ba4bdc08945" points="356 335 356 331 358.94 331 355 326.92 351.06 331 354 331 354 335 356 335"/>
  </g>
  <g>
    <polygon class="0bd7a84b-f7e9-47d1-9a8b-c6a088913ad5" points="635 253 635 257 632.06 257 636 261.08 639.94 257 637 257 637 253 635 253"/>
    <polygon class="ac3a2029-55e7-4e71-ae2b-e4259d3b5d74" points="631 255 631 251 633.94 251 630 246.92 626.06 251 629 251 629 255 631 255"/>
  </g>
  <g>
    <polygon class="d72a667d-a0f6-4fbe-beb7-3889b13725e4" points="660 253 660 257 657.06 257 661 261.08 664.94 257 662 257 662 253 660 253"/>
    <polygon class="0bd7a84b-f7e9-47d1-9a8b-c6a088913ad5" points="656 255 656 251 658.94 251 655 246.92 651.06 251 654 251 654 255 656 255"/>
  </g>
  <g>
    <polygon class="2c16d2cc-7b55-4c6f-b8c2-f1185c86b77b" points="385 253 385 257 382.06 257 386 261.08 389.94 257 387 257 387 253 385 253"/>
    <polygon class="0bd7a84b-f7e9-47d1-9a8b-c6a088913ad5" points="381 255 381 251 383.94 251 380 246.92 376.06 251 379 251 379 255 381 255"/>
  </g>
  <g>
    <polygon class="c568f878-f812-4e1c-b487-fbcedb049868" points="385 293 385 297 382.06 297 386 301.08 389.94 297 387 297 387 293 385 293"/>
    <polygon points="381 295 381 291 383.94 291 380 286.92 376.06 291 379 291 379 295 381 295"/>
  </g>
  <g>
    <polygon class="b6643c07-c483-4100-9b18-cacf684bc6b5" points="385 333 385 337 382.06 337 386 341.08 389.94 337 387 337 387 333 385 333"/>
    <polygon class="c7ec7011-f16c-4810-8ae9-efdb2f043d8a" points="381 335 381 331 383.94 331 380 326.92 376.06 331 379 331 379 335 381 335"/>
  </g>
  <g>
    <polygon class="0bd7a84b-f7e9-47d1-9a8b-c6a088913ad5" points="410 253 410 257 407.06 257 411 261.08 414.94 257 412 257 412 253 410 253"/>
    <polygon class="0bd7a84b-f7e9-47d1-9a8b-c6a088913ad5" points="406 255 406 251 408.94 251 405 246.92 401.06 251 404 251 404 255 406 255"/>
  </g>
  <g>
    <polygon points="410 293 410 297 407.06 297 411 301.08 414.94 297 412 297 412 293 410 293"/>
    <polygon points="406 295 406 291 408.94 291 405 286.92 401.06 291 404 291 404 295 406 295"/>
  </g>
  <g>
    <polygon class="c7ec7011-f16c-4810-8ae9-efdb2f043d8a" points="410 333 410 337 407.06 337 411 341.08 414.94 337 412 337 412 333 410 333"/>
    <polygon class="c7ec7011-f16c-4810-8ae9-efdb2f043d8a" points="406 335 406 331 408.94 331 405 326.92 401.06 331 404 331 404 335 406 335"/>
  </g>
  <path class="c7ec7011-f16c-4810-8ae9-efdb2f043d8a" d="M239.59,326H226.41a1.41,1.41,0,0,0-1.41,1.41v13.18a1.41,1.41,0,0,0,1.41,1.41h13.18a1.41,1.41,0,0,0,1.41-1.41V327.41A1.41,1.41,0,0,0,239.59,326Zm-8.54,12.52,0,0,0,0-3.74-3.74,1.41-1.42,2.36,2.37,6-6,1.41,1.42Z"/>
  <path class="c7ec7011-f16c-4810-8ae9-efdb2f043d8a" d="M340.63,328.32a1,1,0,0,0-1.53,0l-8.45,8.91-3.84-4.05a1,1,0,0,0-1.54,0,1.2,1.2,0,0,0,0,1.62l4.61,4.85a1,1,0,0,0,1.54,0l9.21-9.71A1.18,1.18,0,0,0,340.63,328.32Z"/>
  <path class="c7ec7011-f16c-4810-8ae9-efdb2f043d8a" d="M289.52,326h-13a1.5,1.5,0,0,0-1.5,1.5V342c1.69-2.34,4-4,5.22-4h9.28a1.51,1.51,0,0,0,1.5-1.5v-9A1.51,1.51,0,0,0,289.52,326Zm-2.62,4.14-4.73,5a.77.77,0,0,1-1.12,0l-2-2.13a.84.84,0,0,1,0-1.16.77.77,0,0,1,1.12,0l1.44,1.55,4.17-4.43a.77.77,0,0,1,1.12,0A.86.86,0,0,1,286.9,330.14Z"/>
  <path class="c7ec7011-f16c-4810-8ae9-efdb2f043d8a" d="M314.52,326h-13a1.5,1.5,0,0,0-1.5,1.5V342c1.69-2.34,4-4,5.22-4h9.28a1.51,1.51,0,0,0,1.5-1.5v-9A1.51,1.51,0,0,0,314.52,326ZM304,333a1,1,0,1,1,1-1A1,1,0,0,1,304,333Zm4,0a1,1,0,1,1,1-1A1,1,0,0,1,308,333Zm4,0a1,1,0,1,1,1-1A1,1,0,0,1,312,333Z"/>
  <g>
    <rect class="c7ec7011-f16c-4810-8ae9-efdb2f043d8a" x="261" y="334" width="2" height="8" rx="1" ry="1" transform="translate(600 76) rotate(90)"/>
    <path class="c7ec7011-f16c-4810-8ae9-efdb2f043d8a" d="M256.58,333l-4.24-4.24a1,1,0,0,0-1.42,1.41l3.54,3.54-3.54,3.54a1,1,0,0,0,1.42,1.42l4.24-4.25a1,1,0,0,0,0-1.42Z"/>
  </g>
  <g>
    <polygon class="ac3a2029-55e7-4e71-ae2b-e4259d3b5d74" points="587 256.68 587 258.63 582 258.63 582 260.63 587 260.62 587 262.57 590.77 259.63 587 256.68"/>
    <circle class="ac3a2029-55e7-4e71-ae2b-e4259d3b5d74" cx="577.5" cy="259.5" r="2.5"/>
  </g>
  <g>
    <polygon class="64ed0bb5-47d3-4e69-a217-ae4c80e2248d" points="612 256.68 612 258.63 607 258.63 607 260.63 612 260.62 612 262.57 615.77 259.63 612 256.68"/>
    <circle class="64ed0bb5-47d3-4e69-a217-ae4c80e2248d" cx="602.5" cy="259.5" r="2.5"/>
  </g>
  <g>
    <path class="0bd7a84b-f7e9-47d1-9a8b-c6a088913ad5" d="M439,248v-1a1,1,0,0,0-1-1h0a1,1,0,0,0-1,1v1h-3v-1a1,1,0,0,0-1-1h0a1,1,0,0,0-1,1v1h-3v-1a1,1,0,0,0-1-1h0a1,1,0,0,0-1,1v1h-2v12.78a1.22,1.22,0,0,0,1.22,1.22h13.56a1.22,1.22,0,0,0,1.22-1.22V248Zm0,11.26a.74.74,0,0,1-.74.74H427.74a.74.74,0,0,1-.74-.74V250h12Z"/>
    <path class="0bd7a84b-f7e9-47d1-9a8b-c6a088913ad5" d="M431.07,257.81a.77.77,0,0,0,1.12,0l4.73-5a.87.87,0,0,0,0-1.17.77.77,0,0,0-1.12,0l-4.17,4.44-1.44-1.55a.77.77,0,0,0-1.12,0,.84.84,0,0,0,0,1.16Z"/>
  </g>
  <g>
    <path class="0bd7a84b-f7e9-47d1-9a8b-c6a088913ad5" d="M464,248v-1a1,1,0,0,0-1-1h0a1,1,0,0,0-1,1v1h-3v-1a1,1,0,0,0-1-1h0a1,1,0,0,0-1,1v1h-3v-1a1,1,0,0,0-1-1h0a1,1,0,0,0-1,1v1h-2v12.78a1.22,1.22,0,0,0,1.22,1.22h13.56a1.22,1.22,0,0,0,1.22-1.22V248Zm0,11.26a.74.74,0,0,1-.74.74H452.74a.74.74,0,0,1-.74-.74V250h12Z"/>
    <path class="0bd7a84b-f7e9-47d1-9a8b-c6a088913ad5" d="M458,256a1,1,0,0,0,1-1v-3a1,1,0,0,0-2,0v3A1,1,0,0,0,458,256Z"/>
    <circle class="0bd7a84b-f7e9-47d1-9a8b-c6a088913ad5" cx="458" cy="258" r="1"/>
  </g>
  <path class="0bd7a84b-f7e9-47d1-9a8b-c6a088913ad5" d="M491,256.5a1.51,1.51,0,0,1-1.5,1.5h-9.28c-1.2,0-3.52,1.66-5.22,4V247.5a1.51,1.51,0,0,1,1.5-1.5h13a1.51,1.51,0,0,1,1.5,1.5Z"/>
  <g>
    <polygon class="0bd7a84b-f7e9-47d1-9a8b-c6a088913ad5" points="512 256.68 512 258.63 507 258.63 507 260.63 512 260.62 512 262.57 515.77 259.63 512 256.68"/>
    <circle class="0bd7a84b-f7e9-47d1-9a8b-c6a088913ad5" cx="502.5" cy="259.5" r="2.5"/>
  </g>
  <g>
    <polygon class="4bb72f19-ed37-4f73-ad93-817a94b7636c" points="537 256.68 537 258.63 532 258.63 532 260.63 537 260.62 537 262.57 540.77 259.63 537 256.68"/>
    <circle class="4bb72f19-ed37-4f73-ad93-817a94b7636c" cx="527.5" cy="259.5" r="2.5"/>
  </g>
  <g>
    <path d="M439,288v-1a1,1,0,0,0-1-1h0a1,1,0,0,0-1,1v1h-3v-1a1,1,0,0,0-1-1h0a1,1,0,0,0-1,1v1h-3v-1a1,1,0,0,0-1-1h0a1,1,0,0,0-1,1v1h-2v12.78a1.22,1.22,0,0,0,1.22,1.22h13.56a1.22,1.22,0,0,0,1.22-1.22V288Zm0,11.26a.74.74,0,0,1-.74.74H427.74a.74.74,0,0,1-.74-.74V290h12Z"/>
    <path d="M431.07,297.81a.77.77,0,0,0,1.12,0l4.73-5a.87.87,0,0,0,0-1.17.77.77,0,0,0-1.12,0l-4.17,4.44-1.44-1.55a.77.77,0,0,0-1.12,0,.84.84,0,0,0,0,1.16Z"/>
  </g>
  <g>
    <path d="M464,288v-1a1,1,0,0,0-1-1h0a1,1,0,0,0-1,1v1h-3v-1a1,1,0,0,0-1-1h0a1,1,0,0,0-1,1v1h-3v-1a1,1,0,0,0-1-1h0a1,1,0,0,0-1,1v1h-2v12.78a1.22,1.22,0,0,0,1.22,1.22h13.56a1.22,1.22,0,0,0,1.22-1.22V288Zm0,11.26a.74.74,0,0,1-.74.74H452.74a.74.74,0,0,1-.74-.74V290h12Z"/>
    <path d="M458,296a1,1,0,0,0,1-1v-3a1,1,0,0,0-2,0v3A1,1,0,0,0,458,296Z"/>
    <circle cx="458" cy="298" r="1"/>
  </g>
  <path d="M491,296.5a1.51,1.51,0,0,1-1.5,1.5h-9.28c-1.2,0-3.52,1.66-5.22,4V287.5a1.51,1.51,0,0,1,1.5-1.5h13a1.51,1.51,0,0,1,1.5,1.5Z"/>
  <g>
    <polygon points="512 296.68 512 298.63 507 298.63 507 300.63 512 300.62 512 302.57 515.77 299.63 512 296.68"/>
    <circle cx="502.5" cy="299.5" r="2.5"/>
  </g>
  <g>
    <polygon class="16faa45e-9f98-48fa-bc80-d97026f610af" points="537 296.68 537 298.63 532 298.63 532 300.63 537 300.62 537 302.57 540.77 299.63 537 296.68"/>
    <circle class="16faa45e-9f98-48fa-bc80-d97026f610af" cx="527.5" cy="299.5" r="2.5"/>
  </g>
  <g>
    <path class="c7ec7011-f16c-4810-8ae9-efdb2f043d8a" d="M439,328v-1a1,1,0,0,0-1-1h0a1,1,0,0,0-1,1v1h-3v-1a1,1,0,0,0-1-1h0a1,1,0,0,0-1,1v1h-3v-1a1,1,0,0,0-1-1h0a1,1,0,0,0-1,1v1h-2v12.78a1.22,1.22,0,0,0,1.22,1.22h13.56a1.22,1.22,0,0,0,1.22-1.22V328Zm0,11.26a.74.74,0,0,1-.74.74H427.74a.74.74,0,0,1-.74-.74V330h12Z"/>
    <path class="c7ec7011-f16c-4810-8ae9-efdb2f043d8a" d="M431.07,337.81a.77.77,0,0,0,1.12,0l4.73-5a.87.87,0,0,0,0-1.17.77.77,0,0,0-1.12,0l-4.17,4.44-1.44-1.55a.77.77,0,0,0-1.12,0,.84.84,0,0,0,0,1.16Z"/>
  </g>
  <g>
    <path class="c7ec7011-f16c-4810-8ae9-efdb2f043d8a" d="M464,328v-1a1,1,0,0,0-1-1h0a1,1,0,0,0-1,1v1h-3v-1a1,1,0,0,0-1-1h0a1,1,0,0,0-1,1v1h-3v-1a1,1,0,0,0-1-1h0a1,1,0,0,0-1,1v1h-2v12.78a1.22,1.22,0,0,0,1.22,1.22h13.56a1.22,1.22,0,0,0,1.22-1.22V328Zm0,11.26a.74.74,0,0,1-.74.74H452.74a.74.74,0,0,1-.74-.74V330h12Z"/>
    <path class="c7ec7011-f16c-4810-8ae9-efdb2f043d8a" d="M458,336a1,1,0,0,0,1-1v-3a1,1,0,0,0-2,0v3A1,1,0,0,0,458,336Z"/>
    <circle class="c7ec7011-f16c-4810-8ae9-efdb2f043d8a" cx="458" cy="338" r="1"/>
  </g>
  <g>
    <path class="c7ec7011-f16c-4810-8ae9-efdb2f043d8a" d="M475.5,327.5a1,1,0,0,1,1-1h13a1,1,0,0,1,1,1v9a1,1,0,0,1-1,1h-9.28c-1.2,0-3.12,1.29-4.72,3.08Z"/>
    <path class="c7ec7011-f16c-4810-8ae9-efdb2f043d8a" d="M489.5,327a.51.51,0,0,1,.5.5v9a.51.51,0,0,1-.5.5h-9.28c-1.25,0-2.83,1-4.22,2.34V327.5a.51.51,0,0,1,.5-.5h13m0-1h-13a1.51,1.51,0,0,0-1.5,1.5V342c1.7-2.34,4-4,5.22-4h9.28a1.51,1.51,0,0,0,1.5-1.5v-9a1.51,1.51,0,0,0-1.5-1.5Z"/>
  </g>
  <g>
    <polygon class="c7ec7011-f16c-4810-8ae9-efdb2f043d8a" points="512 336.68 512 338.63 507 338.63 507 340.63 512 340.62 512 342.57 515.77 339.63 512 336.68"/>
    <circle class="c7ec7011-f16c-4810-8ae9-efdb2f043d8a" cx="502.5" cy="339.5" r="2.5"/>
  </g>
  <g>
    <polygon class="9868d4b9-b1ef-41fc-bbd6-4ba4bdc08945" points="537 336.68 537 338.63 532 338.63 532 340.63 537 340.62 537 342.57 540.77 339.63 537 336.68"/>
    <circle class="9868d4b9-b1ef-41fc-bbd6-4ba4bdc08945" cx="527.5" cy="339.5" r="2.5"/>
  </g>
  <g>
    <polygon class="64ed0bb5-47d3-4e69-a217-ae4c80e2248d" points="562 256.68 562 258.63 557 258.63 557 260.63 562 260.62 562 262.57 565.77 259.63 562 256.68"/>
    <circle class="64ed0bb5-47d3-4e69-a217-ae4c80e2248d" cx="552.5" cy="259.5" r="2.5"/>
  </g>
  <g>
    <polygon class="ba531f00-59ba-402a-852f-c1888a707887" points="562 296.68 562 298.63 557 298.63 557 300.63 562 300.62 562 302.57 565.77 299.63 562 296.68"/>
    <circle class="ba531f00-59ba-402a-852f-c1888a707887" cx="552.5" cy="299.5" r="2.5"/>
  </g>
  <g>
    <polygon class="2796390e-c44a-4ffb-8204-42ff36abc52a" points="562 336.68 562 338.63 557 338.63 557 340.63 562 340.62 562 342.57 565.77 339.63 562 336.68"/>
    <circle class="2796390e-c44a-4ffb-8204-42ff36abc52a" cx="552.5" cy="339.5" r="2.5"/>
  </g>
  <g>
    <path class="0bd7a84b-f7e9-47d1-9a8b-c6a088913ad5" d="M208,255.94l7.53-7.53a1.49,1.49,0,0,0-1-.41h-13a1.49,1.49,0,0,0-1,.41Z"/>
    <path class="0bd7a84b-f7e9-47d1-9a8b-c6a088913ad5" d="M212.06,254l3,3a.75.75,0,0,1,0,1.06.75.75,0,0,1-1.06,0l-3-3-2.47,2.47a.75.75,0,0,1-1.06,0L205,255.06l-3,3a.75.75,0,0,1-1.06,0,.75.75,0,0,1,0-1.06l3-3L200,250.06v8.45a1.49,1.49,0,0,0,1.49,1.49h13a1.49,1.49,0,0,0,1.49-1.49v-8.45Z"/>
  </g>
  <g>
    <path d="M208,295.94l7.53-7.53a1.49,1.49,0,0,0-1-.41h-13a1.49,1.49,0,0,0-1,.41Z"/>
    <path d="M212.06,294l3,3a.75.75,0,0,1,0,1.06.75.75,0,0,1-1.06,0l-3-3-2.47,2.47a.75.75,0,0,1-1.06,0L205,295.06l-3,3a.75.75,0,0,1-1.06,0,.75.75,0,0,1,0-1.06l3-3L200,290.06v8.45a1.49,1.49,0,0,0,1.49,1.49h13a1.49,1.49,0,0,0,1.49-1.49v-8.45Z"/>
  </g>
  <g>
    <path class="c7ec7011-f16c-4810-8ae9-efdb2f043d8a" d="M208,335.94l7.53-7.53a1.49,1.49,0,0,0-1-.41h-13a1.49,1.49,0,0,0-1,.41Z"/>
    <path class="c7ec7011-f16c-4810-8ae9-efdb2f043d8a" d="M212.06,334l3,3a.75.75,0,0,1,0,1.06.75.75,0,0,1-1.06,0l-3-3-2.47,2.47a.75.75,0,0,1-1.06,0L205,335.06l-3,3a.75.75,0,0,1-1.06,0,.75.75,0,0,1,0-1.06l3-3L200,330.06v8.45a1.49,1.49,0,0,0,1.49,1.49h13a1.49,1.49,0,0,0,1.49-1.49v-8.45Z"/>
  </g>
  <path class="c7ec7011-f16c-4810-8ae9-efdb2f043d8a" d="M103.67,552.53l-3.44,3.84-.36.4v6.58l-2.2-.93v-5.66l-.37-.4-3.51-3.83h9.88m1.65-1.4H92.12a.65.65,0,0,0-.48,1.12l4.63,5v5.64a.67.67,0,0,0,.29.54l3.63,1.53a.74.74,0,0,0,.39.12.67.67,0,0,0,.69-.66V557.3l4.53-5a.65.65,0,0,0-.48-1.12Z"/>
  <path class="c7ec7011-f16c-4810-8ae9-efdb2f043d8a" d="M415.67,552.53l-3.44,3.84-.36.4v6.58l-2.2-.93v-5.66l-.37-.4-3.51-3.83h9.88m1.65-1.4h-13.2a.65.65,0,0,0-.48,1.12l4.63,5v5.64a.67.67,0,0,0,.29.54l3.63,1.53a.74.74,0,0,0,.39.12.67.67,0,0,0,.69-.66V557.3l4.53-5a.65.65,0,0,0-.48-1.12Z"/>
  <path d="M263.23,552.53l-3.44,3.84-.36.4v6.58l-2.2-.93v-5.66l-.37-.4-3.51-3.83h9.88m1.65-1.4h-13.2a.65.65,0,0,0-.48,1.12l4.63,5v5.64a.67.67,0,0,0,.29.54l3.64,1.53a.68.68,0,0,0,.38.12.67.67,0,0,0,.69-.66V557.3l4.53-5a.65.65,0,0,0-.48-1.12Z"/>
</svg>
