<svg xmlns="http://www.w3.org/2000/svg" xmlns:xlink="http://www.w3.org/1999/xlink" version="1.1" id="Layer_1" width="114" height="928" viewBox="0 0 114 928" xml:space="preserve" style="enable-background:new 0 0 114 928;overflow:visible">
  <rect y="903" width="95" height="25" fill="#FFF"/>
  <rect y="864" width="114" height="30" fill="#FFF"/>
  <path d="M20.913 19.853l-0.265 0.266 -0.728-0.728c1.493-1.766 1.425-4.403-0.243-6.071 -1.758-1.757-4.606-1.76-6.361-0.004 -1.756 1.755-1.754 4.604 0.004 6.361 1.668 1.669 4.305 1.736 6.071 0.243l0.728 0.728 -0.266 0.265L22.941 24l1.06-1.06L20.913 19.853zM14.381 18.618c-1.172-1.172-1.175-3.07-0.004-4.242 1.17-1.17 3.07-1.168 4.242 0.004s1.173 3.071 0.003 4.241C17.451 19.792 15.553 19.79 14.381 18.618z" fill="#3C5563"/>
  <path d="M18.388 56.563c-0.059-0.131-0.12-0.292-0.18-0.481 -0.059-0.188-0.09-0.4-0.09-0.633 0-0.276 0.071-0.528 0.212-0.756 0.142-0.228 0.32-0.447 0.535-0.659 0.214-0.211 0.446-0.423 0.694-0.634 0.247-0.211 0.478-0.453 0.693-0.727 0.215-0.274 0.394-0.575 0.535-0.9C20.928 51.447 21 51.076 21 50.66c0-0.44-0.084-0.824-0.253-1.155 -0.17-0.331-0.401-0.606-0.694-0.829 -0.293-0.224-0.637-0.391-1.029-0.506C18.631 48.058 18.217 48 17.775 48c-0.958 0-1.883 0.261-2.775 0.779v1.881c0.735-0.722 1.507-1.083 2.319-1.083 0.251 0 0.486 0.03 0.706 0.089 0.22 0.062 0.416 0.151 0.587 0.272 0.172 0.123 0.307 0.276 0.405 0.455 0.098 0.184 0.146 0.396 0.146 0.639 0 0.271-0.066 0.519-0.2 0.749 -0.134 0.228-0.3 0.444-0.497 0.65 -0.2 0.206-0.413 0.418-0.645 0.633 -0.231 0.218-0.447 0.442-0.645 0.675 -0.198 0.232-0.365 0.483-0.498 0.753 -0.134 0.268-0.2 0.567-0.2 0.897 0 0.214 0.019 0.427 0.057 0.643 0.038 0.218 0.082 0.395 0.131 0.53H18.388zM18.413 59.684c0.229-0.206 0.342-0.461 0.342-0.765 0-0.309-0.113-0.563-0.342-0.764 -0.234-0.219-0.507-0.325-0.816-0.325 -0.316 0-0.591 0.106-0.825 0.325 -0.229 0.2-0.342 0.455-0.342 0.764 0 0.304 0.113 0.559 0.342 0.765C17.011 59.895 17.286 60 17.597 60 17.9 60 18.173 59.895 18.413 59.684L18.413 59.684z" fill="#3C5563"/>
  <path d="M18 127.999c-2.276 0-4.363 0.802-6 2.136V132h12v-1.865C22.364 128.801 20.276 127.999 18 127.999zM18 125.999c1.657 0 3-1.343 3-2.999 0-1.657-1.343-3-3-3 -1.656 0-3 1.343-3 3C15 124.656 16.344 125.999 18 125.999z" fill="#3C5563"/>
  <path d="M24.889 193.232l-2.01 2.01 -2.121-2.121 2.01-2.01C22.521 191.046 22.267 191 22 191c-1.657 0-3 1.343-3 3 0 0.267 0.046 0.521 0.111 0.768l-4.345 4.344C14.521 199.045 14.267 199 14 199c-1.657 0-3 1.343-3 3 0 0.268 0.046 0.521 0.111 0.768l2.01-2.01 2.121 2.121 -2.01 2.01C13.479 204.954 13.733 205 14 205c1.657 0 3-1.343 3-3 0-0.267-0.045-0.521-0.111-0.768l4.346-4.344C21.479 196.955 21.733 197 22 197c1.657 0 3-1.343 3-3C25 193.732 24.954 193.479 24.889 193.232z" fill="#FFF"/>
  <path d="M11 372v2h14v-2H11zM11 379h14v-2H11V379zM11 384h14v-2H11V384z" fill="#FFF"/>
  <path d="M18.697 409.253c0.181 0.223 0.48 0.333 0.897 0.333 0.444 0 0.79-0.157 1.036-0.47 0.245-0.313 0.369-0.661 0.369-1.047 0-0.316-0.103-0.572-0.308-0.771C20.487 407.1 20.206 407 19.851 407c-0.417 0-0.76 0.138-1.027 0.416s-0.4 0.612-0.4 1.003C18.425 408.755 18.516 409.033 18.697 409.253zM15.348 414.171c0.931-0.606 1.524-0.909 1.785-0.909 0.156 0 0.236 0.088 0.236 0.265 0 0.359-0.287 1.554-0.862 3.581 -0.258 0.908-0.429 1.549-0.507 1.918 -0.079 0.367-0.118 0.699-0.118 0.99 0 0.29 0.064 0.526 0.196 0.71 0.129 0.184 0.328 0.274 0.594 0.274 0.211 0 0.461-0.051 0.744-0.15 0.283-0.101 0.757-0.355 1.421-0.762 0.663-0.407 1.233-0.769 1.713-1.084l0.041-0.124 -0.226-0.377 -0.123-0.011c-0.891 0.586-1.437 0.882-1.643 0.882 -0.075 0-0.143-0.034-0.2-0.101 -0.058-0.067-0.086-0.145-0.086-0.233 0-0.321 0.296-1.499 0.893-3.531 0.34-1.183 0.565-1.982 0.672-2.406 0.105-0.424 0.159-0.773 0.159-1.052 0-0.209-0.062-0.38-0.185-0.517s-0.271-0.202-0.441-0.202c-0.376 0-0.901 0.179-1.576 0.537 -0.674 0.362-1.613 0.974-2.816 1.839L15 413.831l0.204 0.331L15.348 414.171z" fill="#FFF"/>
  <g>
    <path d="M22 486c0-1.476-0.81-2.745-1.999-3.436v6.871C21.19 488.745 22 487.476 22 486z" fill="#768D99"/>
    <g>
      <polygon points="11 483.375 11 488.625 13.557 488.625 18 493 18 479 13.557 483.375 " fill="#768D99"/>
      <path d="M20.001 479.306v1.58c2.046 0.8 3.499 2.782 3.499 5.114 0 2.328-1.453 4.313-3.499 5.113v1.58C22.889 491.833 25 489.168 25 486 25 482.83 22.889 480.166 20.001 479.306z" fill="#768D99"/>
    </g>
  </g>
  <path d="M23.5 522c0 0.393-0.055 0.77-0.134 1.139l1.216 1.216C24.848 523.618 25 522.829 25 522c0-3.17-2.111-5.834-4.998-6.694v1.58C22.047 517.686 23.5 519.668 23.5 522zM20.002 518.564v1.21l1.981 1.981C21.899 520.386 21.125 519.216 20.002 518.564zM24.7 527.301l-12.01-12.011 -1.407 1.406 2.478 2.478 -0.204 0.201H11v5.25h2.557L18 529v-5.586l2.002 2.002v0.02c0.004-0.002 0.008-0.006 0.012-0.008l1.087 1.087c-0.343 0.235-0.706 0.444-1.099 0.599v1.58c0.795-0.237 1.522-0.622 2.172-1.105l1.129 1.13 1.414-1.414 -0.01-0.011L24.7 527.301zM18 515l-1.397 1.375L18 517.772V515z" fill="#768D99"/>
  <path d="M18 565c1.105 0 2-0.896 2-2h-4C16 564.104 16.896 565 18 565zM22 559.625v-3c0-1.861-1.278-3.412-3-3.858V552c0-0.553-0.447-1-1-1s-1 0.447-1 1v0.767c-1.722 0.446-2.999 1.997-2.999 3.858v2.999l-2 2.001h12L22 559.625z" fill="#768D99"/>
  <path d="M22 592.625c0-1.861-1.279-3.412-3-3.858V588c0-0.553-0.447-1-1-1s-1 0.447-1 1v0.767c-0.012 0.003-0.021 0.008-0.033 0.011L22 593.811V592.625zM18 601c1.105 0 2-0.896 2-2h-4C16 600.104 16.896 601 18 601zM24.993 599.593l-0.007 0.008 -12.593-12.596L11 588.402l3.158 3.158c-0.095 0.341-0.158 0.693-0.158 1.064v2.999l-2 2.001h8.222L23.596 601 25 599.6 24.993 599.593z" fill="#768D99"/>
  <g>
    <g>
      <path d="M24 628c-1.104 0-2 0.896-2 2s0.896 2 2 2 2-0.896 2-2S25.104 628 24 628zM12 628c-1.104 0-2 0.896-2 2s0.896 2 2 2 2-0.896 2-2S13.104 628 12 628zM18 628c-1.104 0-2 0.896-2 2s0.896 2 2 2 2-0.896 2-2S19.104 628 18 628z" fill="#768D99"/>
    </g>
  </g>
  <path d="M24.143 667.974L18 662l-6.142 5.974c-0.478 0.464-0.478 1.216 0 1.679 0.477 0.464 1.249 0.464 1.726 0L18 665.356l4.417 4.296c0.477 0.464 1.249 0.464 1.726 0S24.619 668.438 24.143 667.974z" fill="#768D99"/>
  <path d="M11.857 700.026L18 706l6.142-5.974c0.478-0.464 0.478-1.216 0-1.679 -0.477-0.463-1.249-0.463-1.726 0L18 702.644l-4.417-4.296c-0.477-0.463-1.249-0.463-1.726 0S11.381 699.563 11.857 700.026z" fill="#768D99"/>
  <path d="M18 729c-4.971 0-9 4.029-9 9.001 0 4.971 4.029 8.999 9 8.999 4.971 0 9-4.028 9-8.999C27 733.029 22.971 729 18 729zM19 743.001h-2v-6.002h2V743.001zM19 735h-2v-2h2V735z" fill="#ACBBC2"/>
  <g>
    <rect x="17" y="811" width="2" height="2" fill="#ACBBC2"/>
    <rect x="13" y="811" width="2" height="2" fill="#ACBBC2"/>
    <rect x="13" y="807" width="2" height="2" fill="#ACBBC2"/>
    <rect x="21" y="807" width="2" height="2" fill="#ACBBC2"/>
    <rect x="21" y="811" width="2" height="2" fill="#ACBBC2"/>
    <rect x="17" y="807" width="2" height="2" fill="#ACBBC2"/>
  </g>
  <path d="M19 783v-2h2v2H19zM19 777h2v2h-2V777zM19 773h2v2h-2V773zM19 769h2v2h-2V769zM19 765h2v2h-2V765zM15 781h2v2h-2V781zM15 777h2v2h-2V777zM15 773h2v2h-2V773zM15 769h2v2h-2V769zM15 765h2v2h-2V765z" fill="#ACBBC2"/>
  <path d="M23.769 841.741c-0.308-0.321-0.808-0.321-1.116 0l-6.514 6.775 -2.791-2.903c-0.308-0.321-0.809-0.321-1.116 0 -0.309 0.32-0.309 0.84 0 1.161l3.349 3.485c0.309 0.32 0.809 0.32 1.117 0l7.071-7.357C24.077 842.581 24.077 842.062 23.769 841.741z" fill="#768D99"/>
  <g>
    <path d="M57.021 876.399c0.679-0.515 1.02-1.305 1.02-2.366 0-1.054-0.341-1.839-1.02-2.36 -0.681-0.522-1.715-0.782-3.1-0.782h-4.205v6.285h4.205C55.307 877.176 56.341 876.918 57.021 876.399z" fill="#D40000"/>
    <path d="M54.272 879.467h-4.556v7.643h4.556c1.528 0 2.661-0.315 3.395-0.942 0.734-0.629 1.103-1.593 1.103-2.886 0-1.303-0.368-2.266-1.103-2.885C56.934 879.778 55.801 879.467 54.272 879.467z" fill="#D40000"/>
    <path d="M76.077 876.399c0.681-0.515 1.019-1.305 1.019-2.366 0-1.054-0.338-1.839-1.019-2.36 -0.68-0.522-1.714-0.782-3.102-0.782h-4.203v6.285h4.203C74.363 877.176 75.397 876.918 76.077 876.399z" fill="#D40000"/>
    <polygon points="30.278 881.731 37.994 881.731 34.131 871.351 " fill="#D40000"/>
    <path d="M0 864v30h114v-30H0zM21.684 889.427H4.55v-2.15l13.269-16.33H4.873v-2.374H21.36v2.15L8.093 887.054h13.59V889.427zM40.791 889.427l-1.908-5.349H29.42l-1.911 5.349h-2.993l8.012-20.854h3.219l7.997 20.854H40.791zM59.851 887.906c-1.271 1.013-3.086 1.521-5.438 1.521H46.88v-20.854h7.253c2.162 0 3.831 0.445 5.004 1.34 1.169 0.893 1.756 2.166 1.756 3.813 0 1.275-0.298 2.29-0.899 3.047 -0.6 0.752-1.482 1.224-2.642 1.41 1.395 0.299 2.481 0.919 3.255 1.864 0.772 0.945 1.157 2.126 1.157 3.542C61.764 885.451 61.127 886.891 59.851 887.906zM78.907 887.906c-1.272 1.013-3.087 1.521-5.439 1.521h-7.532v-20.854h7.254c2.161 0 3.83 0.445 5.003 1.34 1.169 0.893 1.757 2.166 1.757 3.813 0 1.275-0.299 2.29-0.9 3.047 -0.602 0.752-1.481 1.224-2.642 1.41 1.395 0.299 2.478 0.919 3.251 1.864 0.776 0.945 1.161 2.126 1.161 3.542C80.819 885.451 80.183 886.891 78.907 887.906zM88.164 889.427h-2.838v-20.854h2.838V889.427zM106.327 889.427l-5.748-8.728 -5.805 8.728h-3.019l7.319-11.006 -6.489-9.849h3.123l4.936 7.488 4.98-7.488h3.018l-6.498 9.77 7.306 11.085H106.327z" fill="#D40000"/>
    <path d="M73.327 879.467h-4.555v7.643h4.555c1.529 0 2.658-0.315 3.396-0.942 0.734-0.629 1.104-1.593 1.104-2.886 0-1.303-0.369-2.266-1.104-2.885C75.985 879.778 74.856 879.467 73.327 879.467z" fill="#D40000"/>
    <polygon points="108.643 868.572 105.625 868.572 100.645 876.061 95.709 868.572 92.586 868.572 99.075 878.421 91.756 889.427 94.774 889.427 100.579 880.699 106.327 889.427 109.45 889.427 102.145 878.342 " fill="#FFF"/>
    <polygon points="21.36 870.723 21.36 868.572 4.873 868.572 4.873 870.946 17.819 870.946 4.55 887.276 4.55 889.427 21.684 889.427 21.684 887.054 8.093 887.054 " fill="#FFF"/>
    <path d="M32.527 868.572l-8.012 20.854h2.993l1.911-5.349h9.463l1.908 5.349h2.952l-7.997-20.854H32.527zM30.278 881.731l3.853-10.381 3.863 10.381H30.278z" fill="#FFF"/>
    <path d="M57.352 878.183c1.159-0.187 2.042-0.658 2.642-1.41 0.602-0.757 0.899-1.771 0.899-3.047 0-1.647-0.587-2.921-1.756-3.813 -1.173-0.895-2.842-1.34-5.004-1.34H46.88v20.854h7.532c2.353 0 4.167-0.508 5.438-1.521 1.276-1.016 1.913-2.455 1.913-4.317 0-1.416-0.385-2.597-1.157-3.542C59.833 879.102 58.746 878.481 57.352 878.183zM49.717 870.891h4.205c1.385 0 2.419 0.26 3.1 0.782 0.679 0.521 1.02 1.307 1.02 2.36 0 1.062-0.341 1.852-1.02 2.366 -0.681 0.519-1.715 0.776-3.1 0.776h-4.205V870.891zM57.667 886.167c-0.733 0.627-1.866 0.942-3.395 0.942h-4.556v-7.643h4.556c1.528 0 2.661 0.312 3.395 0.93 0.734 0.619 1.103 1.582 1.103 2.885C58.77 884.574 58.401 885.538 57.667 886.167z" fill="#FFF"/>
    <rect x="85.326" y="868.572" width="2.838" height="20.854" fill="#FFF"/>
    <path d="M76.407 878.183c1.16-0.187 2.04-0.658 2.642-1.41 0.602-0.757 0.9-1.771 0.9-3.047 0-1.647-0.588-2.921-1.757-3.813 -1.173-0.895-2.842-1.34-5.003-1.34h-7.254v20.854h7.532c2.353 0 4.167-0.508 5.439-1.521 1.275-1.016 1.912-2.455 1.912-4.317 0-1.416-0.385-2.597-1.161-3.542C78.885 879.102 77.802 878.481 76.407 878.183zM68.772 870.891h4.203c1.388 0 2.422 0.26 3.102 0.782 0.681 0.521 1.019 1.307 1.019 2.36 0 1.062-0.338 1.852-1.019 2.366 -0.68 0.519-1.714 0.776-3.102 0.776h-4.203V870.891zM76.723 886.167c-0.737 0.627-1.866 0.942-3.396 0.942h-4.555v-7.643h4.555c1.529 0 2.658 0.312 3.396 0.93 0.734 0.619 1.104 1.582 1.104 2.885C77.826 884.574 77.457 885.538 76.723 886.167z" fill="#FFF"/>
  </g>
  <g>
    <path d="M47.521 913.339c0.559-0.44 0.843-1.101 0.843-1.977 0-0.887-0.284-1.541-0.843-1.971 -0.569-0.429-1.436-0.651-2.589-0.651h-3.5v5.245h3.5C46.086 913.985 46.952 913.765 47.521 913.339z" fill="#D40000"/>
    <path d="M45.227 915.887h-3.795v6.361h3.795c1.276 0 2.216-0.26 2.829-0.775 0.614-0.522 0.917-1.332 0.917-2.402 0-1.089-0.303-1.895-0.917-2.402C47.443 916.143 46.503 915.887 45.227 915.887z" fill="#D40000"/>
    <path d="M63.395 913.339c0.569-0.44 0.852-1.101 0.852-1.977 0-0.887-0.282-1.541-0.852-1.971 -0.563-0.429-1.426-0.651-2.582-0.651h-3.501v5.245h3.501C61.969 913.985 62.832 913.765 63.395 913.339z" fill="#D40000"/>
    <polygon points="25.231 917.78 31.658 917.78 28.444 909.125 " fill="#D40000"/>
    <path d="M0 903v25h95v-25H0zM18.068 924.195H3.79v-1.799l11.061-13.6H4.06v-1.985h13.738v1.798l-11.05 13.602h11.32V924.195zM33.991 924.195l-1.59-4.458h-7.886l-1.589 4.458h-2.493l6.677-17.384h2.681l6.661 17.384H33.991zM49.877 922.915c-1.058 0.846-2.576 1.28-4.534 1.28h-6.275v-17.384h6.043c1.804 0 3.194 0.371 4.172 1.117 0.974 0.744 1.459 1.799 1.459 3.182 0 1.053-0.25 1.9-0.751 2.527 -0.498 0.633-1.232 1.02-2.196 1.189 1.163 0.241 2.064 0.75 2.708 1.547 0.643 0.778 0.963 1.773 0.963 2.948C51.467 920.869 50.94 922.066 49.877 922.915zM65.753 922.915c-1.06 0.846-2.568 1.28-4.531 1.28h-6.276v-17.384h6.044c1.799 0 3.19 0.371 4.168 1.117 0.974 0.744 1.469 1.799 1.469 3.182 0 1.053-0.252 1.9-0.752 2.527 -0.5 0.633-1.234 1.02-2.206 1.189 1.163 0.241 2.069 0.75 2.713 1.547 0.646 0.778 0.966 1.773 0.966 2.948C67.349 920.869 66.821 922.066 65.753 922.915zM73.469 924.195h-2.365v-17.384h2.365V924.195zM88.607 924.195l-4.792-7.28 -4.84 7.28h-2.508l6.095-9.183 -5.404-8.201h2.604l4.109 6.244 4.148-6.244h2.514l-5.413 8.136 6.09 9.248H88.607z" fill="#D40000"/>
    <path d="M61.109 915.887h-3.797v6.361h3.797c1.27 0 2.213-0.26 2.83-0.775 0.609-0.522 0.918-1.332 0.918-2.402 0-1.089-0.309-1.895-0.918-2.402C63.322 916.143 62.378 915.887 61.109 915.887z" fill="#D40000"/>
    <polygon points="90.533 906.812 88.02 906.812 83.871 913.056 79.762 906.812 77.158 906.812 82.562 915.013 76.467 924.195 78.975 924.195 83.815 916.915 88.607 924.195 91.211 924.195 85.121 914.947 " fill="#FFF"/>
    <polygon points="17.798 908.609 17.798 906.812 4.06 906.812 4.06 908.797 14.851 908.797 3.79 922.396 3.79 924.195 18.068 924.195 18.068 922.211 6.748 922.211 " fill="#FFF"/>
    <path d="M27.109 906.812l-6.677 17.384h2.493l1.589-4.458H32.4l1.59 4.458h2.46l-6.661-17.384H27.109zM25.231 917.78l3.212-8.655 3.214 8.655H25.231z" fill="#FFF"/>
    <path d="M47.796 914.827c0.964-0.17 1.699-0.557 2.196-1.189 0.5-0.627 0.751-1.475 0.751-2.527 0-1.383-0.485-2.438-1.459-3.182 -0.978-0.746-2.369-1.117-4.172-1.117h-6.043v17.384h6.275c1.958 0 3.476-0.435 4.534-1.28 1.063-0.849 1.589-2.046 1.589-3.593 0-1.175-0.321-2.17-0.963-2.948C49.86 915.577 48.958 915.068 47.796 914.827zM41.432 908.74h3.5c1.154 0 2.02 0.223 2.589 0.651 0.559 0.43 0.843 1.084 0.843 1.971 0 0.876-0.284 1.536-0.843 1.977 -0.569 0.426-1.436 0.646-2.589 0.646h-3.5V908.74zM48.056 921.473c-0.613 0.516-1.552 0.775-2.829 0.775h-3.795v-6.361h3.795c1.276 0 2.216 0.256 2.829 0.781 0.614 0.508 0.917 1.313 0.917 2.402C48.973 920.141 48.669 920.95 48.056 921.473z" fill="#FFF"/>
    <rect x="71.104" y="906.812" width="2.365" height="17.384" fill="#FFF"/>
    <path d="M63.669 914.827c0.971-0.17 1.706-0.557 2.206-1.189 0.5-0.627 0.752-1.475 0.752-2.527 0-1.383-0.495-2.438-1.469-3.182 -0.978-0.746-2.369-1.117-4.168-1.117h-6.044v17.384h6.276c1.963 0 3.471-0.435 4.531-1.28 1.068-0.849 1.596-2.046 1.596-3.593 0-1.175-0.32-2.17-0.966-2.948C65.739 915.577 64.832 915.068 63.669 914.827zM57.312 908.74h3.501c1.156 0 2.019 0.223 2.582 0.651 0.569 0.43 0.852 1.084 0.852 1.971 0 0.876-0.282 1.536-0.852 1.977 -0.563 0.426-1.426 0.646-2.582 0.646h-3.501V908.74zM63.938 921.473c-0.617 0.516-1.56 0.775-2.83 0.775h-3.797v-6.361h3.797c1.27 0 2.213 0.256 2.83 0.781 0.609 0.508 0.918 1.313 0.918 2.402C64.856 920.141 64.548 920.95 63.938 921.473z" fill="#FFF"/>
  </g>
  <path d="M23 84H13C12.449 84 12 84.447 12 85v10c0 0.553 0.448 1 0.999 1h10c0.553 0 1-0.447 1-1V85C24 84.447 23.552 84 23 84zM21.018 93.82h-6.035v-1.232l3.54-4.814h-3.328V86.18h5.7v1.354l-3.444 4.693h3.567V93.82z" fill="#3C5563"/>
  <g>
    <polygon points="25 227 19.628 227 21.632 229.005 19 231.638 20.362 233 22.994 230.368 25 232.374 " fill="#FFF"/>
    <polygon points="15.638 235 13.006 237.633 11 235.627 11 241 16.373 241 14.368 238.995 17 236.363 " fill="#FFF"/>
  </g>
  <g>
    <polygon points="25 264.362 23.638 263 21.006 265.632 19 263.626 19 269 24.372 269 22.368 266.995 " fill="#FFF"/>
    <polygon points="13.632 273.005 11 275.637 12.362 277 14.994 274.367 17 276.373 17 271 11.627 271 " fill="#FFF"/>
  </g>
  <path d="M22.35 158.064l-1.063 1.062c0.742 0.786 1.213 1.821 1.213 2.979 0 2.442-2.016 4.422-4.5 4.422s-4.5-1.979-4.5-4.422c0-1.157 0.471-2.192 1.213-2.978l-1.063-1.062c-1.018 1.054-1.65 2.471-1.65 4.039 0 3.256 2.688 5.896 6 5.896 3.314 0 6-2.64 6-5.896C24 160.536 23.367 159.119 22.35 158.064zM19 156h-2v6h2V156z" fill="#3C5563"/>
  <path d="M96.388 56.563c-0.059-0.131-0.12-0.292-0.18-0.481 -0.059-0.188-0.09-0.4-0.09-0.633 0-0.276 0.071-0.528 0.212-0.756 0.142-0.228 0.32-0.447 0.535-0.659 0.214-0.211 0.446-0.423 0.694-0.634 0.247-0.211 0.478-0.453 0.693-0.727 0.215-0.274 0.394-0.575 0.535-0.9C98.928 51.447 99 51.076 99 50.66c0-0.44-0.084-0.824-0.253-1.155 -0.17-0.331-0.401-0.606-0.694-0.829 -0.293-0.224-0.637-0.391-1.029-0.506C96.631 48.058 96.217 48 95.775 48c-0.958 0-1.883 0.261-2.775 0.779v1.881c0.735-0.722 1.507-1.083 2.319-1.083 0.251 0 0.486 0.03 0.706 0.089 0.22 0.062 0.416 0.151 0.587 0.272 0.172 0.123 0.307 0.276 0.405 0.455 0.098 0.184 0.146 0.396 0.146 0.639 0 0.271-0.066 0.519-0.2 0.749 -0.134 0.228-0.3 0.444-0.497 0.65 -0.2 0.206-0.413 0.418-0.645 0.633 -0.231 0.218-0.447 0.442-0.645 0.675 -0.198 0.232-0.365 0.483-0.498 0.753 -0.134 0.268-0.2 0.567-0.2 0.897 0 0.214 0.019 0.427 0.057 0.643 0.038 0.218 0.082 0.395 0.131 0.53H96.388zM96.413 59.684c0.229-0.206 0.342-0.461 0.342-0.765 0-0.309-0.113-0.563-0.342-0.764 -0.234-0.219-0.507-0.325-0.816-0.325 -0.316 0-0.591 0.106-0.825 0.325 -0.229 0.2-0.342 0.455-0.342 0.764 0 0.304 0.113 0.559 0.342 0.765C95.011 59.895 95.286 60 95.597 60 95.9 60 96.173 59.895 96.413 59.684L96.413 59.684z" fill="#FFF"/>
  <path d="M96 127.999c-2.276 0-4.363 0.802-6 2.136V132h12v-1.865C100.364 128.801 98.276 127.999 96 127.999zM96 125.999c1.657 0 3-1.343 3-2.999 0-1.657-1.343-3-3-3 -1.656 0-3 1.343-3 3C93 124.656 94.344 125.999 96 125.999z" fill="#FFF"/>
  <path d="M101 84H91C90.449 84 90 84.447 90 85v10c0 0.553 0.448 1 0.999 1h10c0.553 0 1-0.447 1-1V85C102 84.447 101.552 84 101 84zM99.018 93.82h-6.035v-1.232l3.54-4.814h-3.328V86.18h5.7v1.354l-3.444 4.693h3.567V93.82z" fill="#FFF"/>
  <path d="M100.35 158.064l-1.063 1.062c0.742 0.786 1.213 1.821 1.213 2.979 0 2.442-2.016 4.422-4.5 4.422s-4.5-1.979-4.5-4.422c0-1.157 0.471-2.192 1.213-2.978l-1.063-1.062c-1.018 1.054-1.65 2.471-1.65 4.039 0 3.256 2.688 5.896 6 5.896 3.314 0 6-2.64 6-5.896C102 160.536 101.367 159.119 100.35 158.064zM97 156h-2v6h2V156z" fill="#FFF"/>
  <path d="M22.761 452.125c-0.816 1.833-2.625 3.125-4.761 3.125 -2.899 0-5.25-2.35-5.25-5.25 0-2.898 2.351-5.25 5.25-5.25 1.451 0 2.747 0.604 3.693 1.558l0 0.001 -2.82 2.818L25 449.125V443l-2.058 2.057c-0.001-0.001-0.013 0.01-0.016 0.01C21.662 443.802 19.932 443 18 443c-3.865 0-7 3.135-7 7 0 3.867 3.135 7 7 7 3.122 0 5.737-2.054 6.64-4.875H22.761z" fill="#FFF"/>
  <path d="M61.5 837h-15c-0.828 0-1.5 0.672-1.5 1.5v15c0 0.828 0.672 1.5 1.5 1.5h15c0.828 0 1.5-0.672 1.5-1.5v-15C63 837.672 62.328 837 61.5 837zM61 853.002H47v-12h14V853.002zM51 844.002h-2v2h2V844.002zM59 844.002h-2v2h2V844.002zM55 844.002h-2v2h2V844.002zM55 848.002h-2v2h2V848.002zM51 848.002h-2v2h2V848.002zM59 848.002h-2v2h2V848.002z" fill="#ACBBC2"/>
  <path d="M58.787 807.22l-2.186 2.185 -2.009-2.009 2.186-2.183c-1.209-0.447-2.62-0.192-3.592 0.779 -1.02 1.02-1.251 2.522-0.708 3.768L49 813.233 50.768 815l3.48-3.477c1.245 0.537 2.742 0.303 3.759-0.715C58.979 809.838 59.234 808.429 58.787 807.22z" fill="#F3A914"/>
  <path d="M55 777v-5.211c0.881-0.387 1.5-1.264 1.5-2.289 0-1.381-1.121-2.5-2.5-2.5 -1.383 0-2.5 1.119-2.5 2.5 0 1.025 0.617 1.904 1.5 2.289V777h-3l4 4 4-4H55z" fill="#768D99"/>
  <path d="M53 735v5.211c-0.881 0.387-1.5 1.264-1.5 2.289 0 1.381 1.121 2.5 2.5 2.5 1.383 0 2.5-1.119 2.5-2.5 0-1.025-0.617-1.904-1.5-2.289V735h3l-4-4 -4 4H53z" fill="#768D99"/>
  <path d="M61.681 695.711c-0.423-0.446-1.111-0.449-1.535 0l-8.449 8.907 -3.844-4.052c-0.424-0.447-1.111-0.447-1.534 0 -0.425 0.447-0.426 1.172 0 1.617l4.604 4.858c0.214 0.224 0.494 0.334 0.774 0.333 0.28 0.001 0.56-0.109 0.773-0.333l9.21-9.713C62.106 696.882 62.106 696.158 61.681 695.711z" fill="#768D99"/>
  <path d="M98.912 19.853l-0.265 0.266 -0.728-0.728c1.493-1.766 1.425-4.403-0.243-6.071 -1.758-1.757-4.606-1.76-6.361-0.004 -1.756 1.755-1.754 4.604 0.004 6.361 1.668 1.669 4.305 1.736 6.071 0.243l0.728 0.728 -0.266 0.265L100.94 24l1.06-1.06L98.912 19.853zM92.38 18.618c-1.172-1.172-1.175-3.07-0.004-4.242 1.17-1.17 3.07-1.168 4.242 0.004s1.173 3.071 0.003 4.241C95.45 19.792 93.552 19.79 92.38 18.618z" fill="#FFF"/>
  <g>
    <path d="M18 299l-2.102 4.7L11 304.349l0.712 0.703 0 0 0.189 0.187 0 0 2.699 2.664 0 0 0 0L13.673 313l0.866-0.501 0 0 0.271-0.156 0 0L18 310.498l3.19 1.845 0 0 0.271 0.156 0 0L22.326 313l-0.927-5.098 0 0 0 0 2.7-2.664 0 0 0.189-0.187 0 0L25 304.349l-4.899-0.648L18 299 18 299zM13.156 305.071l2.873-0.38 0.554-0.073 0.228-0.51L18 301.45l1.188 2.658 0.228 0.51 0.554 0.073 2.874 0.38 -2.147 2.119 -0.376 0.37 0.094 0.521 0.54 2.971 -2.454-1.42L18 309.343l-0.501 0.289 -2.455 1.42 0.54-2.971 0.094-0.521 -0.376-0.37L13.156 305.071 13.156 305.071z" fill="#FFF"/>
  </g>
  <g>
    <path d="M16.241 338.158c0 0-2.889 0.383-4.163 0.552 0.926 0.914 3.062 3.021 3.062 3.021s-0.539 2.963-0.781 4.296C15.508 345.361 18 343.92 18 343.92s2.492 1.441 3.641 2.106c-0.242-1.333-0.781-4.296-0.781-4.296s2.135-2.106 3.062-3.021c-1.274-0.169-4.163-0.552-4.163-0.552s-1.199-2.683-1.759-3.934C17.44 335.476 16.241 338.158 16.241 338.158z" fill="#F3A914"/>
    <path d="M18 333l-2.102 4.7L11 338.349l0.712 0.703 0 0 0.189 0.187 0 0 2.699 2.664 0 0 0 0L13.673 347l0.866-0.501 0 0 0.271-0.156 0 0L18 344.498l3.19 1.845 0 0 0.271 0.156 0 0L22.326 347l-0.927-5.098 0 0 0 0 2.7-2.664 0 0 0.189-0.187 0 0L25 338.349l-4.899-0.648L18 333 18 333zM13.156 339.071l2.873-0.38 0.554-0.073 0.228-0.51L18 335.45l1.188 2.658 0.228 0.51 0.554 0.073 2.874 0.38 -2.147 2.119 -0.376 0.37 0.094 0.521 0.54 2.971 -2.454-1.42L18 343.343l-0.501 0.289 -2.455 1.42 0.54-2.971 0.094-0.521 -0.376-0.37L13.156 339.071 13.156 339.071z" fill="#F3A914"/>
  </g>
  <path d="M53 671h2v-6h-2V671zM53 661v2h2v-2H53z" fill="#FFF"/>
  <path d="M59.112 629.979L61 629.507c-0.185-0.869-0.529-1.678-0.997-2.396l-1.663 0.998 -1.447-1.448 0.998-1.663c-0.72-0.468-1.528-0.812-2.397-0.997l-0.472 1.888h-2.045L52.505 624c-0.868 0.186-1.676 0.529-2.396 0.997l0.998 1.663 -1.446 1.446 -1.663-0.998c-0.47 0.721-0.813 1.529-0.997 2.398l1.886 0.472v2.045L47 632.495c0.184 0.869 0.527 1.676 0.996 2.396l1.664-0.998 1.446 1.446 -0.998 1.663c0.721 0.47 1.528 0.813 2.396 0.997l0.472-1.886h2.045L55.493 638c0.869-0.184 1.678-0.527 2.397-0.997l-0.999-1.663 1.447-1.446 1.664 0.998c0.468-0.721 0.813-1.527 0.997-2.396l-1.888-0.472V629.979zM53.999 633.046c-1.129 0-2.045-0.914-2.045-2.045s0.916-2.045 2.045-2.045c1.13 0 2.045 0.914 2.045 2.045S55.129 633.046 53.999 633.046z" fill="#768D99"/>
  <path d="M56 588v-1h-4v1h-4v2h12v-2H56zM49 599.5c0 0.828 0.672 1.5 1.5 1.5h7c0.828 0 1.5-0.672 1.5-1.5V591H49V599.5zM55.25 593h1.5v6h-1.5V593zM51.25 593h1.5v6h-1.5V593z" fill="#768D99"/>
</svg>
