<svg xmlns="http://www.w3.org/2000/svg" width="114" height="30"><path fill="#d40000" d="M0 0h114v30H0z"/><path fill="#fff" stroke="#fff" stroke-width=".4" d="m94.774 25.427 5.805-8.728 5.748 8.728h3.123l-7.305-11.085 6.498-9.77h-3.018l-4.98 7.488-4.936-7.488h-3.123l6.489 9.849-7.319 11.006zm-73.09 0v-2.373H8.093L21.36 6.723V4.572H4.873v2.374h12.946L4.55 23.276v2.151zM32.527 4.572l-8.012 20.854h2.993l1.911-5.349h9.463l1.908 5.349h2.952L35.745 4.572zm-2.249 13.159L34.131 7.35l3.863 10.381zm27.074-3.548c1.159-.187 2.042-.658 2.642-1.41.602-.757.899-1.772.899-3.047 0-1.647-.587-2.921-1.756-3.813-1.173-.895-2.842-1.34-5.004-1.34H46.88v20.854h7.532c2.352 0 4.167-.508 5.438-1.521 1.276-1.016 1.913-2.455 1.913-4.317 0-1.416-.385-2.597-1.157-3.542-.773-.945-1.86-1.566-3.254-1.864zm-7.635-7.292h4.205c1.385 0 2.419.26 3.1.782.679.521 1.02 1.307 1.02 2.36 0 1.062-.341 1.852-1.02 2.366-.681.519-1.715.776-3.1.776h-4.205zm7.95 15.276c-.733.627-1.866.942-3.395.942h-4.556v-7.643h4.556c1.528 0 2.661.312 3.395.93.734.619 1.103 1.582 1.103 2.885 0 1.293-.369 2.257-1.103 2.886zM85.326 4.572h2.838v20.854h-2.838zm-8.919 9.611c1.16-.187 2.04-.658 2.642-1.41.602-.757.9-1.772.9-3.047 0-1.647-.588-2.921-1.757-3.813-1.173-.895-2.842-1.34-5.003-1.34h-7.254v20.854h7.532c2.353 0 4.167-.508 5.439-1.521 1.275-1.016 1.912-2.455 1.912-4.317 0-1.416-.385-2.597-1.161-3.542-.772-.945-1.855-1.566-3.25-1.864zm-7.635-7.292h4.203c1.388 0 2.422.26 3.102.782.681.521 1.019 1.307 1.019 2.36 0 1.062-.338 1.852-1.019 2.366-.68.519-1.714.776-3.102.776h-4.203zm7.951 15.276c-.737.627-1.866.942-3.396.942h-4.555v-7.643h4.555c1.529 0 2.658.312 3.396.93.734.619 1.104 1.582 1.104 2.885-.001 1.293-.37 2.257-1.104 2.886z"/></svg>
