<svg xmlns="http://www.w3.org/2000/svg" width="91" height="24"><path fill="#d40000" d="M0 0h91v24H0z"/><path fill="#fff" stroke="#fff" stroke-width=".2" d="m80.286 13.358 4.591 6.989h2.493l-5.833-8.878 5.184-7.81h-2.408L80.34 9.653l-3.937-5.994h-2.494l5.176 7.873-5.838 8.815h2.403zm-62.978 5.084H6.464L17.049 5.385V3.659H3.889v1.906h10.336L3.63 18.621v1.726h13.678zm8.66-14.783-6.396 16.688h2.388l1.522-4.28h7.554l1.523 4.28h2.357L28.535 3.659zm-1.799 10.53 3.077-8.309 3.079 8.309zm21.614-2.835c.924-.163 1.627-.534 2.104-1.142.479-.602.719-1.416.719-2.426 0-1.328-.464-2.34-1.398-3.054-.937-.716-2.269-1.073-3.997-1.073h-5.789v16.688h6.011c1.876 0 3.329-.417 4.343-1.229 1.018-.815 1.523-1.964 1.523-3.449 0-1.128-.307-2.083-.923-2.83-.615-.765-1.479-1.253-2.593-1.485zm-6.095-5.843h3.353c1.105 0 1.935.214 2.48.625.536.413.808 1.041.808 1.892 0 .841-.272 1.475-.808 1.898-.545.409-1.375.621-2.48.621h-3.353zm6.344 12.223c-.587.495-1.487.744-2.709.744h-3.635v-6.107h3.635c1.223 0 2.122.246 2.709.75.588.487.878 1.261.878 2.306.001 1.028-.29 1.805-.878 2.307zM68.11 3.659h2.265v16.688H68.11zm-7.121 7.695c.93-.163 1.634-.534 2.113-1.142.478-.602.72-1.416.72-2.426 0-1.328-.474-2.34-1.407-3.054-.937-.716-2.269-1.073-3.993-1.073h-5.789v16.688h6.012c1.88 0 3.325-.417 4.34-1.229 1.023-.815 1.529-1.964 1.529-3.449 0-1.128-.306-2.083-.926-2.83-.617-.765-1.486-1.253-2.599-1.485zm-6.091-5.843h3.354c1.107 0 1.934.214 2.473.625.545.413.816 1.041.816 1.892 0 .841-.27 1.475-.816 1.898-.54.409-1.366.621-2.473.621h-3.354zm6.348 12.223c-.591.495-1.494.744-2.71.744h-3.638v-6.107h3.638c1.216 0 2.12.246 2.71.75.584.487.879 1.261.879 2.306.001 1.028-.295 1.805-.879 2.307z"/></svg>
