<?xml version="1.0" encoding="UTF-8" standalone="no"?>
<!-- Created with Inkscape (http://www.inkscape.org/) -->

<svg
   xmlns:dc="http://purl.org/dc/elements/1.1/"
   xmlns:cc="http://creativecommons.org/ns#"
   xmlns:rdf="http://www.w3.org/1999/02/22-rdf-syntax-ns#"
   xmlns:svg="http://www.w3.org/2000/svg"
   xmlns="http://www.w3.org/2000/svg"
   xmlns:xlink="http://www.w3.org/1999/xlink"
   xmlns:sodipodi="http://sodipodi.sourceforge.net/DTD/sodipodi-0.dtd"
   xmlns:inkscape="http://www.inkscape.org/namespaces/inkscape"
   width="128"
   height="110.57062"
   id="svg147239"
   version="1.1"
   inkscape:version="0.48.0 r9654"
   sodipodi:docname="New document 48">
  <defs
     id="defs147241">
    <linearGradient
       inkscape:collect="always"
       xlink:href="#linearGradient4781-3-7-8"
       id="linearGradient90016"
       gradientUnits="userSpaceOnUse"
       gradientTransform="matrix(-0.80983721,0,0,0.8038584,1226.9301,1471.6998)"
       x1="460.23651"
       y1="-965.29681"
       x2="462.87714"
       y2="-965.26556" />
    <linearGradient
       id="linearGradient4781-3-7-8">
      <stop
         style="stop-color:#4e6271;stop-opacity:1;"
         offset="0"
         id="stop4783-2-2-1" />
      <stop
         style="stop-color:#b2bac0;stop-opacity:1;"
         offset="1"
         id="stop4785-5-5-0" />
    </linearGradient>
    <linearGradient
       inkscape:collect="always"
       xlink:href="#linearGradient4781-3-7-8"
       id="linearGradient90018"
       gradientUnits="userSpaceOnUse"
       gradientTransform="matrix(-0.73040689,0,0,0.67908035,1151.5983,1339.7766)"
       x1="460.23651"
       y1="-965.29681"
       x2="462.87714"
       y2="-965.26556" />
    <linearGradient
       id="linearGradient147164">
      <stop
         style="stop-color:#4e6271;stop-opacity:1;"
         offset="0"
         id="stop147166" />
      <stop
         style="stop-color:#b2bac0;stop-opacity:1;"
         offset="1"
         id="stop147168" />
    </linearGradient>
    <filter
       inkscape:collect="always"
       id="filter7142"
       x="-0.11329943"
       width="1.2265989"
       y="-0.22084211"
       height="1.4416842"
       color-interpolation-filters="sRGB">
      <feGaussianBlur
         inkscape:collect="always"
         stdDeviation="6.4468265"
         id="feGaussianBlur7144" />
    </filter>
    <linearGradient
       inkscape:collect="always"
       xlink:href="#linearGradient5801-7-0"
       id="linearGradient90020"
       gradientUnits="userSpaceOnUse"
       gradientTransform="matrix(0.73192656,0,0,0.73192656,663.92642,185.27729)"
       x1="158.86479"
       y1="706.07477"
       x2="319.51733"
       y2="742.35919" />
    <linearGradient
       id="linearGradient5801-7-0">
      <stop
         id="stop5803-7-9"
         offset="0"
         style="stop-color:#ffffff;stop-opacity:1;" />
      <stop
         id="stop5805-9-5"
         offset="1"
         style="stop-color:#27343c;stop-opacity:1;" />
    </linearGradient>
    <linearGradient
       inkscape:collect="always"
       xlink:href="#linearGradient5801-7-0"
       id="linearGradient90022"
       gradientUnits="userSpaceOnUse"
       gradientTransform="matrix(0.73192656,0,0,0.73192656,687.94538,195.67524)"
       x1="173.61505"
       y1="760.87512"
       x2="65.997429"
       y2="689.16925" />
    <linearGradient
       id="linearGradient147177">
      <stop
         id="stop147179"
         offset="0"
         style="stop-color:#ffffff;stop-opacity:1;" />
      <stop
         id="stop147181"
         offset="1"
         style="stop-color:#27343c;stop-opacity:1;" />
    </linearGradient>
    <linearGradient
       inkscape:collect="always"
       xlink:href="#linearGradient5801-7-0"
       id="linearGradient90024"
       gradientUnits="userSpaceOnUse"
       gradientTransform="matrix(0.73192656,0,0,0.73192656,687.94538,195.67524)"
       x1="319.22894"
       y1="667.52386"
       x2="188.08318"
       y2="761.83972" />
    <linearGradient
       id="linearGradient147184">
      <stop
         id="stop147186"
         offset="0"
         style="stop-color:#ffffff;stop-opacity:1;" />
      <stop
         id="stop147188"
         offset="1"
         style="stop-color:#27343c;stop-opacity:1;" />
    </linearGradient>
    <filter
       color-interpolation-filters="sRGB"
       inkscape:collect="always"
       id="filter5763-1"
       x="-0.068371981"
       width="1.136744"
       y="-0.13107832"
       height="1.2621566">
      <feGaussianBlur
         inkscape:collect="always"
         stdDeviation="0.29772692"
         id="feGaussianBlur5765-4" />
    </filter>
    <filter
       color-interpolation-filters="sRGB"
       inkscape:collect="always"
       id="filter5755-4"
       x="-0.07161101"
       width="1.143222"
       y="-0.14175981"
       height="1.2835196">
      <feGaussianBlur
         inkscape:collect="always"
         stdDeviation="0.31559987"
         id="feGaussianBlur5757-5" />
    </filter>
    <filter
       color-interpolation-filters="sRGB"
       inkscape:collect="always"
       id="filter5771-9"
       x="-0.072505891"
       width="1.1450118"
       y="-0.13837889"
       height="1.2767578">
      <feGaussianBlur
         inkscape:collect="always"
         stdDeviation="0.31063639"
         id="feGaussianBlur5773-5" />
    </filter>
    <filter
       color-interpolation-filters="sRGB"
       inkscape:collect="always"
       id="filter5775-6"
       x="-0.077720456"
       width="1.1554409"
       y="-0.14193143"
       height="1.2838629">
      <feGaussianBlur
         inkscape:collect="always"
         stdDeviation="0.32433816"
         id="feGaussianBlur5777-4" />
    </filter>
  </defs>
  <sodipodi:namedview
     id="base"
     pagecolor="#ffffff"
     bordercolor="#666666"
     borderopacity="1.0"
     inkscape:pageopacity="0.0"
     inkscape:pageshadow="2"
     inkscape:zoom="0.35"
     inkscape:cx="47.571431"
     inkscape:cy="100.99959"
     inkscape:document-units="px"
     inkscape:current-layer="layer1"
     showgrid="false"
     fit-margin-top="0"
     fit-margin-left="0"
     fit-margin-right="0"
     fit-margin-bottom="0"
     inkscape:window-width="471"
     inkscape:window-height="431"
     inkscape:window-x="22"
     inkscape:window-y="29"
     inkscape:window-maximized="0" />
  <metadata
     id="metadata147244">
    <rdf:RDF>
      <cc:Work
         rdf:about="">
        <dc:format>image/svg+xml</dc:format>
        <dc:type
           rdf:resource="http://purl.org/dc/dcmitype/StillImage" />
        <dc:title></dc:title>
      </cc:Work>
    </rdf:RDF>
  </metadata>
  <g
     inkscape:label="Layer 1"
     inkscape:groupmode="layer"
     id="layer1"
     transform="translate(-327.42857,-522.79116)">
    <g
       style="display:inline"
       transform="matrix(1.0365867,0,0,1.0365867,-452.88956,-164.77549)"
       id="g89934"
       inkscape:export-filename="C:\Documents and Settings\Elvis Čauss\Desktop\Zabbix Frontend\Default map icons\Large\Router.png"
       inkscape:export-xdpi="90"
       inkscape:export-ydpi="90">
      <path
         id="path89936"
         style="fill:url(#linearGradient90016);fill-opacity:1;fill-rule:nonzero;stroke:none"
         d="m 854.21341,671.15366 -3.54304,0 0,45.71044 3.54304,0 z"
         inkscape:connector-curvature="0" />
      <path
         inkscape:connector-curvature="0"
         d="m 815.43839,663.49443 -3.19553,0 0,38.61509 3.19553,0 z"
         style="fill:url(#linearGradient90018);fill-opacity:1;fill-rule:nonzero;stroke:none"
         id="path89938" />
      <path
         transform="matrix(0.73717782,0,0,0.84723082,662.48486,112.03885)"
         id="path89940"
         style="fill:#000000;fill-opacity:1;fill-rule:nonzero;stroke:none;filter:url(#filter7142)"
         d="m 190.21338,691.0295 84.30377,36.12543 -58.77787,33.93541 -77.78402,-44.90858 z"
         inkscape:connector-curvature="0"
         sodipodi:nodetypes="ccccc" />
      <path
         transform="matrix(0.8767213,0,0,1.4945194,522.98148,-459.78523)"
         d="m 333.57762,751.60089 c 0,0.0732 -0.81619,0.13258 -1.82301,0.13258 -1.00682,0 -1.82301,-0.0594 -1.82301,-0.13258 0,-0.0732 0.81619,-0.13258 1.82301,-0.13258 1.00682,0 1.82301,0.0594 1.82301,0.13258 z"
         sodipodi:ry="0.13258252"
         sodipodi:rx="1.8230097"
         sodipodi:cy="751.60089"
         sodipodi:cx="331.75461"
         id="path89942"
         style="fill:#4e6271;fill-opacity:1;fill-rule:nonzero;stroke:none"
         sodipodi:type="arc" />
      <path
         sodipodi:nodetypes="ccccc"
         inkscape:connector-curvature="0"
         d="m 803.83036,695.53899 61.02245,21.96231 -43.02108,24.83822 -56.93219,-32.86978 z"
         style="fill:url(#linearGradient90020);fill-opacity:1;fill-rule:nonzero;stroke:none"
         id="path89944" />
      <path
         sodipodi:nodetypes="ccccc"
         inkscape:connector-curvature="0"
         d="m 764.89955,709.46975 56.93216,32.86979 3e-5,14.57902 -56.93219,-33.53562 z"
         style="fill:url(#linearGradient90022);fill-opacity:1;fill-rule:nonzero;stroke:none"
         id="path89946" />
      <path
         sodipodi:nodetypes="ccc"
         inkscape:connector-curvature="0"
         d="m 775.95684,715.85367 34.00883,19.63501 c -21.14884,2.84547 -34.00883,-13.41638 -34.00883,-19.63501 z"
         style="fill:#8fa2b0;fill-opacity:1;fill-rule:nonzero;stroke:none"
         id="path89948" />
      <path
         sodipodi:nodetypes="ccccc"
         inkscape:connector-curvature="0"
         d="m 821.83174,742.33954 43.02108,-24.83824 0,14.57201 -43.02108,24.84525 z"
         style="fill:url(#linearGradient90024);fill-opacity:1;fill-rule:nonzero;stroke:none"
         id="path89950" />
      <path
         sodipodi:nodetypes="ccccc"
         inkscape:connector-curvature="0"
         d="m 808.40779,734.58926 28.92448,-15.68681 1.21803,0.44332 -28.84621,15.99189 z"
         style="fill:#4e6271;fill-opacity:1;fill-rule:nonzero;stroke:none"
         id="path89952" />
      <path
         id="path89954"
         style="fill:#4e6271;fill-opacity:1;fill-rule:nonzero;stroke:none"
         d="m 805.69557,733.02337 28.61043,-15.42026 1.60765,0.58514 -28.92178,15.58352 z"
         inkscape:connector-curvature="0"
         sodipodi:nodetypes="ccccc" />
      <path
         sodipodi:nodetypes="ccccc"
         inkscape:connector-curvature="0"
         d="m 803.03747,731.48871 28.44475,-15.08226 1.64019,0.59698 -28.78864,15.23369 z"
         style="fill:#4e6271;fill-opacity:1;fill-rule:nonzero;stroke:none"
         id="path89956" />
      <path
         id="path89958"
         style="fill:#4e6271;fill-opacity:1;fill-rule:nonzero;stroke:none"
         d="m 800.24822,729.87834 28.51957,-14.6337 1.48142,0.53919 -28.70468,14.84292 z"
         inkscape:connector-curvature="0"
         sodipodi:nodetypes="ccccc" />
      <path
         sodipodi:nodetypes="ccccc"
         inkscape:connector-curvature="0"
         d="m 797.536,728.31245 28.79029,-14.1938 1.46078,0.62006 -28.95477,14.32214 z"
         style="fill:#4e6271;fill-opacity:1;fill-rule:nonzero;stroke:none"
         id="path89960" />
      <path
         id="path89962"
         style="fill:#4e6271;fill-opacity:1;fill-rule:nonzero;stroke:none"
         d="m 794.8779,726.7778 28.84184,-13.76556 1.55911,0.6618 -29.10465,13.85216 z"
         inkscape:connector-curvature="0"
         sodipodi:nodetypes="ccccc" />
      <path
         id="path89964"
         style="fill:#4e6271;fill-opacity:1;fill-rule:nonzero;stroke:none"
         d="m 792.13837,725.19609 29.01404,-13.27362 1.45518,0.61768 -29.17292,13.40434 z"
         inkscape:connector-curvature="0"
         sodipodi:nodetypes="ccccc" />
      <path
         sodipodi:nodetypes="ccccc"
         inkscape:connector-curvature="0"
         d="m 789.42614,723.6302 28.88703,-12.91292 1.57495,0.66853 -29.16568,12.99279 z"
         style="fill:#4e6271;fill-opacity:1;fill-rule:nonzero;stroke:none"
         id="path89966" />
      <path
         id="path89968"
         style="fill:#4e6271;fill-opacity:1;fill-rule:nonzero;stroke:none"
         d="m 786.76804,722.09555 28.68149,-12.59382 1.44193,0.61207 -28.82712,12.73015 z"
         inkscape:connector-curvature="0"
         sodipodi:nodetypes="ccccc" />
      <path
         sodipodi:nodetypes="ccccc"
         inkscape:connector-curvature="0"
         d="m 783.9788,720.48518 28.24336,-12.35338 1.8606,0.78978 -28.80766,12.312 z"
         style="fill:#4e6271;fill-opacity:1;fill-rule:nonzero;stroke:none"
         id="path89970" />
      <path
         id="path89972"
         style="fill:#4e6271;fill-opacity:1;fill-rule:nonzero;stroke:none"
         d="m 781.26657,718.91929 27.80548,-12.02871 1.60698,0.58621 -28.11616,12.1909 z"
         inkscape:connector-curvature="0"
         sodipodi:nodetypes="ccccc" />
      <path
         sodipodi:nodetypes="ccccc"
         inkscape:connector-curvature="0"
         d="m 778.35283,717.21421 27.50459,-11.78408 1.89652,0.80503 -27.84917,11.89788 z"
         style="fill:#4e6271;fill-opacity:1;fill-rule:nonzero;stroke:none"
         id="path89974" />
      <path
         id="path89976"
         style="fill:#4e6271;fill-opacity:1;fill-rule:nonzero;stroke:none"
         d="m 775.69428,715.70213 27.09509,-11.57431 1.67015,0.70894 -27.46893,11.61377 z"
         inkscape:connector-curvature="0"
         sodipodi:nodetypes="ccccc" />
      <path
         sodipodi:nodetypes="ccccc"
         inkscape:connector-curvature="0"
         d="m 775.70955,715.71091 1.32445,0.76468 -0.12662,2.97056 c -0.40673,-1.00024 -0.82008,-1.78569 -1.19783,-3.72794 z"
         style="fill:#4e6271;fill-opacity:1;fill-rule:nonzero;stroke:none"
         id="path89978" />
      <path
         id="path89980"
         style="fill:#00bf00;fill-opacity:1;fill-rule:nonzero;stroke:none"
         d="m 778.34386,717.20735 1.55879,0.92446 -0.12662,5.84394 c -0.41187,-0.52006 -0.81628,-1.04755 -1.19783,-1.59791 z"
         inkscape:connector-curvature="0"
         sodipodi:nodetypes="ccccc" />
      <path
         sodipodi:nodetypes="ccccc"
         inkscape:connector-curvature="0"
         d="m 781.27009,718.92129 1.32445,0.76468 -0.12662,7.1963 c -0.40415,-0.38365 -0.80854,-0.76656 -1.19783,-1.19478 z"
         style="fill:#00bf00;fill-opacity:1;fill-rule:nonzero;stroke:none"
         id="path89982" />
      <path
         id="path89984"
         style="fill:#00bf00;fill-opacity:1;fill-rule:nonzero;stroke:none"
         d="m 783.95111,720.46918 1.32445,0.76468 -0.12662,7.92536 c -0.40236,-0.31226 -0.80303,-0.62622 -1.19783,-0.94605 z"
         inkscape:connector-curvature="0"
         sodipodi:nodetypes="ccccc" />
      <path
         sodipodi:nodetypes="ccccc"
         inkscape:connector-curvature="0"
         d="m 786.76062,722.09124 1.32445,0.76468 -0.12662,8.21413 c -0.39928,-0.24435 -0.79856,-0.49317 -1.19783,-0.7602 z"
         style="fill:#00bf00;fill-opacity:1;fill-rule:nonzero;stroke:none"
         id="path89986" />
      <path
         id="path89988"
         style="fill:#caca00;fill-opacity:1;fill-rule:nonzero;stroke:none"
         d="m 789.40493,723.61794 1.32445,0.76468 -0.12662,8.12836 c -0.39928,-0.19115 -0.79856,-0.39282 -1.19783,-0.61439 z"
         inkscape:connector-curvature="0"
         sodipodi:nodetypes="ccccc" />
      <path
         sodipodi:nodetypes="ccccc"
         inkscape:connector-curvature="0"
         d="m 792.08434,725.21064 1.32445,0.71894 -0.12662,7.74541 c -0.39654,-0.15917 -0.79379,-0.31906 -1.19783,-0.48573 z"
         style="fill:#caca00;fill-opacity:1;fill-rule:nonzero;stroke:none"
         id="path89990" />
      <path
         id="path89992"
         style="fill:#caca00;fill-opacity:1;fill-rule:nonzero;stroke:none"
         d="m 794.86354,726.76947 1.32445,0.76468 -0.12663,7.05906 c -0.39653,-0.11819 -0.79379,-0.2371 -1.19782,-0.36279 z"
         inkscape:connector-curvature="0"
         sodipodi:nodetypes="ccccc" />
      <path
         sodipodi:nodetypes="ccccc"
         inkscape:connector-curvature="0"
         d="m 797.52519,728.30617 1.32445,0.76468 -0.12663,6.14701 c -0.39927,-0.0789 -0.79855,-0.16289 -1.19782,-0.257 z"
         style="fill:#caca00;fill-opacity:1;fill-rule:nonzero;stroke:none"
         id="path89994" />
      <path
         id="path89996"
         style="fill:#00bf00;fill-opacity:1;fill-rule:nonzero;stroke:none"
         d="m 800.2121,729.85746 1.32445,0.76468 -0.12662,5.00164 c -0.39927,-0.0397 -0.79855,-0.0953 -1.19783,-0.16551 z"
         inkscape:connector-curvature="0"
         sodipodi:nodetypes="ccccc" />
      <path
         sodipodi:nodetypes="ccccc"
         inkscape:connector-curvature="0"
         d="m 803.03218,731.48564 1.32445,0.76468 -0.12662,3.56239 -1.19783,-0.054 z"
         style="fill:#00bf00;fill-opacity:1;fill-rule:nonzero;stroke:none"
         id="path89998" />
      <path
         id="path90000"
         style="fill:#4e6271;fill-opacity:1;fill-rule:nonzero;stroke:none"
         d="m 805.67747,733.01289 1.32445,0.76468 -0.12663,1.99561 c -0.39927,0.0323 -0.79855,0.0381 -1.19782,0.0403 z"
         inkscape:connector-curvature="0"
         sodipodi:nodetypes="ccccc" />
      <path
         sodipodi:nodetypes="ccccc"
         inkscape:connector-curvature="0"
         d="m 808.37008,734.56748 1.32445,0.76468 -0.004,0.19439 c -0.44026,0.0658 -0.88052,0.10509 -1.32077,0.14041 z"
         style="fill:#4e6271;fill-opacity:1;fill-rule:nonzero;stroke:none"
         id="path90002" />
      <path
         sodipodi:nodetypes="ccccc"
         inkscape:connector-curvature="0"
         d="m 803.51129,728.18183 3.83073,2.45466 -2.97986,1.617 -4.10311,-2.36893 z"
         style="fill:#1aff00;fill-opacity:1;fill-rule:nonzero;stroke:none"
         id="path90004" />
      <path
         sodipodi:nodetypes="ccccc"
         inkscape:connector-curvature="0"
         d="m 168.97267,729.02876 5.53505,3.29122 -4.85888,2.16006 -5.59196,-3.22851 z"
         style="fill:#1aff00;fill-opacity:1;fill-rule:nonzero;stroke:none;filter:url(#filter5763-1)"
         id="path90006"
         transform="matrix(0.73192656,0,0,0.73192656,663.92642,185.27729)" />
      <path
         sodipodi:nodetypes="ccccc"
         inkscape:connector-curvature="0"
         d="m 160.72395,724.79949 6.15668,3.30299 -4.80265,2.04013 -5.77449,-3.40035 z"
         style="fill:#1aff00;fill-opacity:1;fill-rule:nonzero;stroke:none;filter:url(#filter5755-4)"
         id="path90008"
         transform="matrix(0.73192656,0,0,0.73192656,663.92642,185.27729)" />
      <path
         sodipodi:nodetypes="ccccc"
         inkscape:connector-curvature="0"
         d="m 176.36093,733.32799 5.42473,3.1111 -4.80067,2.27648 -5.48163,-3.16481 z"
         style="fill:#ffff00;fill-opacity:1;fill-rule:nonzero;stroke:none;filter:url(#filter5771-9)"
         id="path90010"
         transform="matrix(0.73192656,0,0,0.73192656,663.92642,185.27729)" />
      <path
         sodipodi:nodetypes="ccccc"
         inkscape:connector-curvature="0"
         d="m 183.77308,737.49097 5.15796,3.14973 -4.56782,2.33469 -5.44771,-3.14523 z"
         style="fill:#ffff00;fill-opacity:1;fill-rule:nonzero;stroke:none;filter:url(#filter5775-6)"
         id="path90012"
         transform="matrix(0.73192656,0,0,0.73192656,663.92642,185.27729)" />
      <path
         sodipodi:type="arc"
         style="fill:#4e6271;fill-opacity:1;fill-rule:nonzero;stroke:none"
         id="path90014"
         sodipodi:cx="331.75461"
         sodipodi:cy="751.60089"
         sodipodi:rx="1.8230097"
         sodipodi:ry="0.13258252"
         d="m 333.57762,751.60089 c 0,0.0732 -0.81619,0.13258 -1.82301,0.13258 -1.00682,0 -1.82301,-0.0594 -1.82301,-0.13258 0,-0.0732 0.81619,-0.13258 1.82301,-0.13258 1.00682,0 1.82301,0.0594 1.82301,0.13258 z"
         transform="matrix(0.97206303,0,0,1.7691308,529.95238,-658.52373)" />
    </g>
  </g>
</svg>
