<?xml version="1.0" encoding="UTF-8" standalone="no"?>
<!-- Created with Inkscape (http://www.inkscape.org/) -->

<svg
   xmlns:dc="http://purl.org/dc/elements/1.1/"
   xmlns:cc="http://creativecommons.org/ns#"
   xmlns:rdf="http://www.w3.org/1999/02/22-rdf-syntax-ns#"
   xmlns:svg="http://www.w3.org/2000/svg"
   xmlns="http://www.w3.org/2000/svg"
   xmlns:xlink="http://www.w3.org/1999/xlink"
   xmlns:sodipodi="http://sodipodi.sourceforge.net/DTD/sodipodi-0.dtd"
   xmlns:inkscape="http://www.inkscape.org/namespaces/inkscape"
   width="128.0096"
   height="8.7264385"
   id="svg136394"
   version="1.1"
   inkscape:version="0.48.0 r9654"
   sodipodi:docname="New document 26">
  <defs
     id="defs136396">
    <linearGradient
       inkscape:collect="always"
       xlink:href="#linearGradient76654-2-5-8-08-7"
       id="linearGradient77341"
       gradientUnits="userSpaceOnUse"
       gradientTransform="matrix(1.0640224,0,0.04454039,0.50127099,-379.3982,3985.9438)"
       x1="491.4574"
       y1="8005.355"
       x2="471.42123"
       y2="8002.9468" />
    <linearGradient
       id="linearGradient76654-2-5-8-08-7">
      <stop
         style="stop-color:#000000;stop-opacity:1;"
         offset="0"
         id="stop76656-2-5-0-5-48" />
      <stop
         id="stop76664-9-1-9-1-5"
         offset="0.35685185"
         style="stop-color:#bbbbbb;stop-opacity:1;" />
      <stop
         style="stop-color:#000000;stop-opacity:1;"
         offset="1"
         id="stop76658-9-7-5-4-6" />
    </linearGradient>
    <inkscape:path-effect
       is_visible="true"
       id="path-effect150888"
       effect="spiro" />
    <inkscape:path-effect
       is_visible="true"
       id="path-effect150885"
       effect="spiro" />
    <linearGradient
       inkscape:collect="always"
       xlink:href="#linearGradient42443-09-4-2-2"
       id="linearGradient77343"
       gradientUnits="userSpaceOnUse"
       gradientTransform="matrix(1.0856538,0,-0.0337151,0.50565158,237.94435,3950.7794)"
       x1="364.44846"
       y1="8003.1118"
       x2="393.69363"
       y2="8012.6118" />
    <linearGradient
       id="linearGradient42443-09-4-2-2">
      <stop
         id="stop42445-48-8-2-42"
         offset="0"
         style="stop-color:#000000;stop-opacity:1;" />
      <stop
         style="stop-color:#bbbbbb;stop-opacity:1;"
         offset="0.3702293"
         id="stop42447-8-6-1-8" />
      <stop
         id="stop42449-2-8-9-0"
         offset="1"
         style="stop-color:#000000;stop-opacity:1;" />
    </linearGradient>
    <inkscape:path-effect
       effect="spiro"
       id="path-effect150878"
       is_visible="true" />
    <inkscape:path-effect
       effect="spiro"
       id="path-effect150875"
       is_visible="true" />
    <linearGradient
       inkscape:collect="always"
       xlink:href="#linearGradient46818-1-5-1-21"
       id="linearGradient77345"
       gradientUnits="userSpaceOnUse"
       gradientTransform="matrix(1.0539569,0,0,1.0539569,-27.252557,-440.24054)"
       x1="596.23846"
       y1="8003.4058"
       x2="596.36462"
       y2="8010.4072" />
    <linearGradient
       inkscape:collect="always"
       id="linearGradient46818-1-5-1-21">
      <stop
         style="stop-color:#333333;stop-opacity:1;"
         offset="0"
         id="stop46820-42-5-0-4" />
      <stop
         style="stop-color:#333333;stop-opacity:0;"
         offset="1"
         id="stop46822-3-8-9-7" />
    </linearGradient>
  </defs>
  <sodipodi:namedview
     id="base"
     pagecolor="#ffffff"
     bordercolor="#666666"
     borderopacity="1.0"
     inkscape:pageopacity="0.0"
     inkscape:pageshadow="2"
     inkscape:zoom="0.35"
     inkscape:cx="-132.42303"
     inkscape:cy="172.93585"
     inkscape:document-units="px"
     inkscape:current-layer="layer1"
     showgrid="false"
     fit-margin-top="0"
     fit-margin-left="0"
     fit-margin-right="0"
     fit-margin-bottom="0"
     inkscape:window-width="471"
     inkscape:window-height="431"
     inkscape:window-x="44"
     inkscape:window-y="58"
     inkscape:window-maximized="0" />
  <metadata
     id="metadata136399">
    <rdf:RDF>
      <cc:Work
         rdf:about="">
        <dc:format>image/svg+xml</dc:format>
        <dc:type
           rdf:resource="http://purl.org/dc/dcmitype/StillImage" />
        <dc:title></dc:title>
      </cc:Work>
    </rdf:RDF>
  </metadata>
  <g
     inkscape:label="Layer 1"
     inkscape:groupmode="layer"
     id="layer1"
     transform="translate(-507.42303,-696.57159)">
    <g
       style="display:inline"
       id="g151309"
       transform="matrix(1.0266398,0,0,1.0266398,138.25017,-7509.232)"
       inkscape:export-filename="C:\Documents and Settings\Elvis Čauss\Desktop\Zabbix Frontend\Default map icons\Large\Rackmountable_1U_server_2D.png"
       inkscape:export-xdpi="90"
       inkscape:export-ydpi="90">
      <path
         id="path143645-2"
         style="fill:#3e424b;fill-opacity:1;fill-rule:nonzero;stroke:#7b7b7b;stroke-width:0.89336765;stroke-opacity:1"
         d="m 365.6445,7993.3146 112.41737,0 0,7.6187 -112.41737,0 z"
         inkscape:connector-curvature="0"
         sodipodi:nodetypes="ccccc" />
      <path
         style="fill:url(#linearGradient77341);fill-opacity:1;fill-rule:nonzero;stroke:#000000;stroke-width:0.21909525;stroke-miterlimit:4;stroke-dasharray:none"
         d="m 477.36379,7993.2912 c -0.74882,0 -1.34622,0.3835 -1.3527,0.8596 l -0.0937,5.8129 c -0.006,0.4764 0.59608,0.8598 1.34491,0.8598 l 5.45939,0 c 0.74882,0 1.34627,-0.3834 1.35268,-0.8598 l 0.0199,-1.4019 -0.84048,-0.062 -0.23915,-2.6915 1.1304,0.072 0.0229,-1.7295 c 0.006,-0.4763 -0.59607,-0.8597 -1.34489,-0.8597 l -5.45939,0 z m 2.93159,2.8143 c 0.23848,0.01 0.44296,0.2595 0.45145,0.5629 0.008,0.3036 -0.18024,0.5382 -0.41837,0.5322 -0.23847,-0.01 -0.42596,-0.2491 -0.43446,-0.5526 -0.009,-0.3034 0.16328,-0.5483 0.40138,-0.5425 z"
         id="path143647-2"
         inkscape:connector-curvature="0" />
      <path
         style="fill:#808080;fill-opacity:1;stroke:none"
         d="m 479.52455,7994.0543 1.09723,-0.036 1.41762,0.8449 0.18563,5.6923 -1.09956,0.062 -1.64028,-1.0083 0.91188,-0.026 0.69831,0.2404 -0.14334,-4.8817 -1.42749,-0.8876"
         id="path143649-4"
         inkscape:path-effect="#path-effect150888"
         inkscape:original-d="m 479.52455,7994.0543 c 0.0258,-0.3919 0.41082,-0.2615 1.09723,-0.036 l 1.41762,0.8449 0.18563,5.6923 c -0.27316,0.3102 -0.65908,0.1392 -1.09956,0.062 l -1.64028,-1.0083 c 0.29248,-0.2598 0.38742,-0.1277 0.91188,-0.026 l 0.69831,0.2404 -0.14334,-4.8817 z"
         inkscape:connector-curvature="0"
         sodipodi:nodetypes="cccccccccc" />
      <path
         style="fill:#4d4d4d;fill-opacity:1;stroke:none"
         d="m 479.5648,7995.2724 1.05024,0.4755 0.13727,4.2094 -1.26699,-0.3477 0.0236,0.683 1.623,0.325 -0.154,-5.6998 -1.45871,-0.8642 0.0456,1.2188"
         id="path143651-2"
         inkscape:path-effect="#path-effect150885"
         inkscape:original-d="m 479.5648,7995.2724 1.05024,0.4755 0.13727,4.2094 -1.26699,-0.3477 0.0236,0.683 1.623,0.325 -0.154,-5.6998 -1.45871,-0.8642 z"
         inkscape:connector-curvature="0"
         sodipodi:nodetypes="ccccccccc" />
      <path
         inkscape:connector-curvature="0"
         d="m 365.64451,7993.3144 73.48309,0 0,7.6189 -73.48309,0 z"
         style="fill:#474f51;fill-opacity:1;fill-rule:nonzero;stroke:#848484;stroke-width:0.89338529;stroke-opacity:1"
         id="path143653-5"
         sodipodi:nodetypes="ccccc" />
      <path
         inkscape:connector-curvature="0"
         id="path143655-1"
         d="m 366.59557,7993.2609 c 0.76408,0 1.38262,0.3867 1.40034,0.8672 l 0.23161,5.8637 c 0.0176,0.4805 -0.58808,0.8672 -1.35214,0.8672 l -5.57042,0 c -0.76404,0 -1.38266,-0.3867 -1.40032,-0.8672 l -0.0532,-1.4143 0.85614,-0.063 0.18102,-2.7149 -1.15164,0.072 -0.0639,-1.7447 c -0.0178,-0.4803 0.58805,-0.8671 1.3521,-0.8671 l 5.57042,0 z m -2.92534,2.839 c -0.24309,0.01 -0.44589,0.2616 -0.44746,0.5678 -0.002,0.3062 0.19653,0.5427 0.43934,0.5368 0.24308,-0.01 0.42881,-0.2515 0.43038,-0.5575 0.002,-0.3061 -0.17945,-0.5531 -0.42226,-0.5471 z"
         style="fill:url(#linearGradient77343);fill-opacity:1;fill-rule:nonzero;stroke:#000000;stroke-width:0.14818402;stroke-miterlimit:4;stroke-dasharray:none" />
      <path
         sodipodi:nodetypes="cccccccccc"
         inkscape:connector-curvature="0"
         inkscape:original-d="m 364.40875,7994.0305 c -0.0353,-0.3953 -0.42529,-0.2638 -1.12034,-0.037 l -1.42669,0.8523 -0.0562,5.742 c 0.28596,0.3131 0.67573,0.1406 1.12332,0.063 l 1.65006,-1.0172 c -0.30451,-0.2619 -0.39831,-0.1287 -0.93104,-0.026 l -0.70688,0.2424 0.032,-4.9241 z"
         inkscape:path-effect="#path-effect150878"
         id="path143657-2"
         d="m 364.40875,7994.0305 -1.12034,-0.037 -1.42669,0.8523 -0.0562,5.742 1.12332,0.063 1.65006,-1.0172 -0.93104,-0.026 -0.70688,0.2424 0.032,-4.9241 1.43577,-0.8954"
         style="fill:#808080;stroke:none" />
      <path
         sodipodi:nodetypes="ccccccccc"
         inkscape:connector-curvature="0"
         inkscape:original-d="m 364.39617,7995.2595 -1.06048,0.4796 -0.0415,4.2462 1.28464,-0.3508 -0.008,0.6891 -1.64838,0.3278 0.0238,-5.7496 1.46817,-0.872 z"
         inkscape:path-effect="#path-effect150875"
         id="path143659-0"
         d="m 364.39617,7995.2595 -1.06048,0.4796 -0.0415,4.2462 1.28464,-0.3508 -0.008,0.6891 -1.64838,0.3278 0.0238,-5.7496 1.46817,-0.872 -0.0183,1.2297"
         style="fill:#4d4d4d;stroke:none" />
      <path
         id="path143661-3"
         style="fill:#00b7e8;fill-opacity:1;fill-rule:nonzero;stroke:none"
         d="m 471.7156,7994.9581 1.90862,0 0,2.4099 -1.90862,0 z"
         inkscape:connector-curvature="0" />
      <path
         d="m 468.90547,7994.958 1.9086,0 0,2.41 -1.9086,0 z"
         style="fill:#e51d00;fill-opacity:1;fill-rule:nonzero;stroke:none"
         id="path143663-9"
         inkscape:connector-curvature="0" />
      <path
         id="path143665-9"
         style="fill:#999999;fill-opacity:1;fill-rule:nonzero;stroke:#1a1a1a;stroke-width:0.20532669;stroke-miterlimit:4"
         d="m 466.79703,7994.9136 1.21366,0 0,4.2539 -1.21366,0 z"
         inkscape:connector-curvature="0" />
      <path
         inkscape:connector-curvature="0"
         d="m 467.53583,7994.9136 0.47486,0 0,4.2539 -0.47486,0 z"
         style="fill:#999999;fill-opacity:1;fill-rule:nonzero;stroke:#1a1a1a;stroke-width:0.12843297;stroke-miterlimit:4"
         id="path143667-5" />
      <rect
         transform="matrix(1,0,-0.01802634,0.99983751,0,0)"
         y="7995.9048"
         x="585.81073"
         height="4.7188153"
         width="23.795719"
         id="rect143669-4"
         style="fill:url(#linearGradient77345);fill-opacity:1;stroke:#1a1a1a;stroke-width:0.46712554" />
      <path
         inkscape:connector-curvature="0"
         id="path143671-4"
         style="fill:#ffffff;fill-opacity:1;fill-rule:nonzero;stroke:#808080;stroke-width:0.45442954"
         d="m 442.96371,7995.2727 1.53996,0 c 0.20885,0 0.38956,0.227 0.40519,0.5087 l 0.0217,0.3906 c 0.0157,0.2817 -0.13993,0.5085 -0.34877,0.5085 l -1.53997,0 c -0.20885,0 -0.38957,-0.2268 -0.4052,-0.5085 l -0.0217,-0.3906 c -0.0156,-0.2817 0.13993,-0.5087 0.34879,-0.5087 z"
         sodipodi:nodetypes="ssccssccs" />
      <path
         sodipodi:nodetypes="ssccssccs"
         d="m 446.15365,7995.2727 1.53997,0 c 0.20884,0 0.38957,0.227 0.40519,0.5087 l 0.0217,0.3906 c 0.0156,0.2817 -0.13992,0.5085 -0.34877,0.5085 l -1.53996,0 c -0.20886,0 -0.38957,-0.2268 -0.40521,-0.5085 l -0.0217,-0.3906 c -0.0157,-0.2817 0.13994,-0.5087 0.34878,-0.5087 z"
         style="fill:#ffffff;fill-opacity:1;fill-rule:nonzero;stroke:#808080;stroke-width:0.45442954"
         id="path143673-4"
         inkscape:connector-curvature="0" />
      <path
         inkscape:connector-curvature="0"
         id="path143675-3"
         style="fill:#ffffff;fill-opacity:1;fill-rule:nonzero;stroke:#808080;stroke-width:0.45442954"
         d="m 449.37599,7995.2727 1.53996,0 c 0.20885,0 0.38957,0.227 0.4052,0.5087 l 0.0216,0.3906 c 0.0156,0.2817 -0.13991,0.5085 -0.34876,0.5085 l -1.53997,0 c -0.20885,0 -0.38957,-0.2268 -0.4052,-0.5085 l -0.0216,-0.3906 c -0.0156,-0.2817 0.13992,-0.5087 0.34878,-0.5087 z"
         sodipodi:nodetypes="ssccssccs" />
      <path
         sodipodi:nodetypes="ccccc"
         inkscape:connector-curvature="0"
         d="m 369.77778,7994.026 29.32903,-0.045 0.17837,6.2844 -29.2143,2e-4 z"
         style="fill:#808080;fill-opacity:1;stroke:#000000;stroke-width:0.42910308"
         id="path143677-3" />
      <path
         inkscape:connector-curvature="0"
         id="path143679-2"
         d="m 373.0097,7995.654 7.1891,0 0,0.7235 -7.1891,0 z"
         style="fill:#000000;stroke:none" />
      <path
         sodipodi:nodetypes="cccccccccccccccccc"
         inkscape:connector-curvature="0"
         id="path143681-6"
         d="m 390.7089,7995.5218 0,3.2108 3.05379,0 0,-2.762 0,-0.2375 0,-0.2113 -1.39965,0 0.71572,0.012 -0.0159,0.1022 0,2.9846 -1.00203,0 -0.0159,0.091 -0.65211,0 0,-0.091 0,-2.9846 0.95431,0 0.0159,-0.1131 z"
         style="fill:#000000;stroke:none" />
      <path
         inkscape:connector-curvature="0"
         style="fill:#000000;stroke:none"
         d="m 381.53484,7995.654 7.1891,0 0,0.7235 -7.1891,0 z"
         id="path143683-4" />
      <path
         inkscape:connector-curvature="0"
         style="fill:#000000;stroke:none"
         d="m 373.21327,7997.0106 7.18911,0 0,0.4071 -7.18911,0 z"
         id="path143685-9" />
      <path
         id="path143687-2"
         d="m 381.73841,7997.0106 7.18912,0 0,0.4071 -7.18912,0 z"
         style="fill:#000000;stroke:none"
         inkscape:connector-curvature="0" />
      <path
         id="path143689-0"
         d="m 373.36597,7998.096 7.18911,0 0,0.407 -7.18911,0 z"
         style="fill:#000000;stroke:none"
         inkscape:connector-curvature="0" />
      <path
         inkscape:connector-curvature="0"
         style="fill:#000000;stroke:none"
         d="m 381.89111,7998.096 7.18912,0 0,0.407 -7.18912,0 z"
         id="path143691-3" />
      <path
         inkscape:connector-curvature="0"
         style="fill:#000000;stroke:none"
         d="m 373.41686,7999.1361 7.18912,0 0,0.407 -7.18912,0 z"
         id="path143693-7" />
      <path
         id="path143695-4"
         d="m 381.94201,7999.1361 7.18911,0 0,0.407 -7.18911,0 z"
         style="fill:#000000;stroke:none"
         inkscape:connector-curvature="0" />
      <path
         inkscape:connector-curvature="0"
         style="fill:#000000;stroke:none"
         d="m 390.59439,7999.1361 7.18912,0 0,0.407 -7.18912,0 z"
         id="path143697-1" />
      <path
         sodipodi:nodetypes="ccsssccccccc"
         inkscape:connector-curvature="0"
         d="m 369.77778,7995.0661 0.89068,0 c 0,0 0.2474,2.2637 0.37105,3.3957 0.005,0.041 0.31779,0.044 0.62179,0.079 0.078,0.01 0.006,-1.1936 -0.0344,-2.2881 -0.0189,-0.499 -0.0885,-1.2121 -0.0591,-1.5204 2.80269,-0.051 21.67587,-0.011 24.40467,0 0.0162,0.2885 0.0172,0.2217 0.009,0.3165 -0.99487,0.011 -23.89633,-0.011 -23.88279,0 0.1428,1.3781 0.0747,3.5776 0.20311,4.6307 -0.79906,-0.014 -1.24072,0.044 -2.01589,0.044 z"
         style="fill:#000000;stroke:none"
         id="path143699-9" />
      <path
         inkscape:connector-curvature="0"
         d="m 401.28774,7994.474 0.47458,-0.011 c 0.24733,-0.01 0.46443,0.1311 0.48672,0.3061 l 0.031,0.2424 c 0.0223,0.1749 -0.15884,0.3201 -0.40619,0.3255 l -0.47457,0.011 c -0.24734,0.011 -0.46444,-0.1312 -0.48676,-0.3061 l -0.0309,-0.2425 c -0.0223,-0.1748 0.15885,-0.32 0.40619,-0.3253 z"
         style="fill:#ffffff;fill-opacity:1;fill-rule:nonzero;stroke:#808080;stroke-width:0.39020622"
         id="path143701-3" />
      <path
         inkscape:connector-curvature="0"
         d="m 403.99722,7994.4151 0.47457,-0.011 c 0.24735,-0.011 0.46443,0.131 0.48675,0.306 l 0.0309,0.2425 c 0.0222,0.1748 -0.15886,0.3201 -0.40621,0.3254 l -0.47457,0.011 c -0.24734,0.01 -0.46443,-0.1311 -0.48674,-0.306 l -0.031,-0.2425 c -0.0223,-0.175 0.15885,-0.3201 0.40621,-0.3255 z"
         style="fill:#ffffff;fill-opacity:1;fill-rule:nonzero;stroke:#808080;stroke-width:0.39020622"
         id="path143703-0" />
      <path
         inkscape:connector-curvature="0"
         id="path143705-2"
         style="fill:#ffffff;fill-opacity:1;fill-rule:nonzero;stroke:#808080;stroke-width:0.39020622"
         d="m 401.33384,7996.5987 0.47458,-0.01 c 0.24733,-0.011 0.46443,0.1312 0.48673,0.3061 l 0.031,0.2425 c 0.0223,0.1748 -0.15884,0.3201 -0.4062,0.3254 l -0.47456,0.011 c -0.24735,0.011 -0.46445,-0.1311 -0.48677,-0.306 l -0.0309,-0.2425 c -0.0224,-0.1749 0.15885,-0.3202 0.40619,-0.3256 z" />
      <path
         inkscape:connector-curvature="0"
         id="path143707-5"
         style="fill:#ffffff;fill-opacity:1;fill-rule:nonzero;stroke:#808080;stroke-width:0.39020622"
         d="m 404.04332,7996.54 0.47457,-0.011 c 0.24735,-0.011 0.46444,0.1313 0.48675,0.3061 l 0.0309,0.2426 c 0.0222,0.1747 -0.15886,0.32 -0.4062,0.3253 l -0.47457,0.011 c -0.24734,0.01 -0.46444,-0.1312 -0.48674,-0.3061 l -0.031,-0.2425 c -0.0223,-0.1749 0.15884,-0.3201 0.4062,-0.3255 z" />
      <path
         d="m 401.38387,7998.9045 0.47457,-0.011 c 0.24734,-0.011 0.46444,0.1312 0.48673,0.3062 l 0.031,0.2424 c 0.0223,0.1751 -0.15884,0.3203 -0.40618,0.3256 l -0.47457,0.01 c -0.24735,0.011 -0.46445,-0.1312 -0.48678,-0.3062 l -0.0309,-0.2424 c -0.0223,-0.1749 0.15884,-0.3202 0.40619,-0.3255 z"
         style="fill:#ffffff;fill-opacity:1;fill-rule:nonzero;stroke:#808080;stroke-width:0.39020622"
         id="path143709-3"
         inkscape:connector-curvature="0" />
      <path
         d="m 404.09334,7998.8457 0.47458,-0.011 c 0.24734,-0.011 0.46443,0.1311 0.48676,0.3061 l 0.0309,0.2424 c 0.0222,0.1751 -0.15884,0.3203 -0.4062,0.3257 l -0.47456,0.011 c -0.24734,0.011 -0.46444,-0.1311 -0.48675,-0.3062 l -0.031,-0.2424 c -0.0223,-0.1749 0.15885,-0.3202 0.4062,-0.3255 z"
         style="fill:#ffffff;fill-opacity:1;fill-rule:nonzero;stroke:#808080;stroke-width:0.39020622"
         id="path143711-1"
         inkscape:connector-curvature="0" />
      <path
         id="path143713-1"
         style="fill:#808080;stroke:#000000;stroke-width:0.42910308"
         d="m 406.58427,7994.0259 29.32904,-0.045 0.0637,6.331 -29.20179,0 z"
         inkscape:connector-curvature="0"
         sodipodi:nodetypes="ccccc" />
      <path
         sodipodi:nodetypes="ccccc"
         style="fill:#000000;stroke:none"
         d="m 409.8162,7995.654 7.1891,0 0,0.7235 -7.1891,0 z"
         id="path143715-6"
         inkscape:connector-curvature="0" />
      <path
         sodipodi:nodetypes="ccccccccccccccccc"
         inkscape:connector-curvature="0"
         style="fill:#000000;stroke:none"
         d="m 427.5154,7995.5218 0,3.2108 3.05379,0 0,-3.2108 -1.39965,0 0.71574,0.012 -0.0159,0.1022 0,2.9845 -1.00201,0 -0.0159,0.091 -0.65211,0 0,-0.091 0,-2.9845 0.9543,0 0.0159,-0.1132 -1.65414,0 z"
         id="path143717-4" />
      <path
         sodipodi:nodetypes="ccccc"
         id="path143719-9"
         d="m 418.34134,7995.654 7.1891,0 0,0.7235 -7.1891,0 z"
         style="fill:#000000;stroke:none"
         inkscape:connector-curvature="0" />
      <path
         sodipodi:nodetypes="ccccc"
         id="path143721-2"
         d="m 410.01977,7997.0106 7.18913,0 0,0.4071 -7.18913,0 z"
         style="fill:#000000;stroke:none"
         inkscape:connector-curvature="0" />
      <path
         sodipodi:nodetypes="ccccc"
         inkscape:connector-curvature="0"
         style="fill:#000000;stroke:none"
         d="m 418.54491,7997.0106 7.18913,0 0,0.4071 -7.18913,0 z"
         id="path143723-9" />
      <path
         sodipodi:nodetypes="ccccc"
         inkscape:connector-curvature="0"
         style="fill:#000000;stroke:none"
         d="m 410.17247,7998.096 7.18911,0 0,0.407 -7.18911,0 z"
         id="path143725-6" />
      <path
         sodipodi:nodetypes="ccccc"
         id="path143727-2"
         d="m 418.69761,7998.096 7.18911,0 0,0.407 -7.18911,0 z"
         style="fill:#000000;stroke:none"
         inkscape:connector-curvature="0" />
      <path
         sodipodi:nodetypes="ccccc"
         id="path143729-9"
         d="m 410.22338,7999.1361 7.1891,0 0,0.407 -7.1891,0 z"
         style="fill:#000000;stroke:none"
         inkscape:connector-curvature="0" />
      <path
         sodipodi:nodetypes="ccccc"
         inkscape:connector-curvature="0"
         style="fill:#000000;stroke:none"
         d="m 418.74852,7999.1361 7.1891,0 0,0.407 -7.1891,0 z"
         id="path143731-8" />
      <path
         sodipodi:nodetypes="ccccc"
         id="path143733-1"
         d="m 427.40089,7999.1361 7.18911,0 0,0.407 -7.18911,0 z"
         style="fill:#000000;stroke:none"
         inkscape:connector-curvature="0" />
      <path
         id="path143735-1"
         style="fill:#000000;stroke:none"
         d="m 406.58427,7995.0661 0.89069,0 c 0,0 0.2474,2.2637 0.37106,3.3957 0.005,0.041 0.31779,0.044 0.62179,0.079 0.078,0.01 0.006,-1.1936 -0.0344,-2.2881 -0.0189,-0.499 -0.0885,-1.2121 -0.059,-1.5204 2.80269,-0.051 21.67587,-0.011 24.40467,0 0.0162,0.2885 0.0172,0.2217 0.009,0.3165 -0.99487,0.011 -23.89633,-0.011 -23.88279,0 0.1428,1.3781 0.0747,3.5776 0.20311,4.6307 -0.79906,-0.014 -1.62243,0.044 -2.39761,0.044 z"
         inkscape:connector-curvature="0"
         sodipodi:nodetypes="ccsssccccccc" />
      <path
         sodipodi:nodetypes="cccccccc"
         inkscape:connector-curvature="0"
         d="m 394.53988,7995.5027 0,0.4637 2.11414,0 0.0159,0.78 0.513,0 -0.003,-0.7793 0,-0.4634 z"
         style="fill:#333333;fill-opacity:1;fill-rule:nonzero;stroke:none"
         id="path143737-0" />
      <path
         id="path143739-1"
         style="fill:#333333;fill-opacity:1;fill-rule:nonzero;stroke:none"
         d="m 394.53996,7998.7362 0,-0.4636 2.11402,0 0.0159,-0.78 0.51296,0 -0.003,0.7793 0,0.4635 z"
         inkscape:connector-curvature="0"
         sodipodi:nodetypes="cccccccc" />
      <path
         id="path143741-7"
         style="fill:#333333;fill-opacity:1;fill-rule:nonzero;stroke:none"
         d="m 431.17483,7995.5027 0,0.4637 2.11414,0 0.0159,0.78 0.513,0 -0.003,-0.7793 0,-0.4634 z"
         inkscape:connector-curvature="0"
         sodipodi:nodetypes="cccccccc" />
      <path
         sodipodi:nodetypes="cccccccc"
         inkscape:connector-curvature="0"
         d="m 431.1749,7998.7362 0,-0.4636 2.11403,0 0.0159,-0.78 0.51296,0 -0.003,0.7793 0,0.4635 z"
         style="fill:#333333;fill-opacity:1;fill-rule:nonzero;stroke:none"
         id="path143743-5" />
      <path
         inkscape:connector-curvature="0"
         d="m 471.7156,7998.2726 1.90862,0 0,1.0539 -1.90862,0 z"
         style="fill:#00ff00;fill-opacity:1;fill-rule:nonzero;stroke:none"
         id="path143745-0" />
      <path
         inkscape:connector-curvature="0"
         id="path143747-3"
         style="fill:#ff6600;fill-opacity:1;fill-rule:nonzero;stroke:none"
         d="m 468.90547,7998.2725 1.9086,0 0,1.054 -1.9086,0 z" />
      <path
         sodipodi:nodetypes="ssccssccs"
         d="m 442.96371,7997.4474 1.53996,0 c 0.20885,0 0.38956,0.2268 0.40519,0.5086 l 0.0217,0.3906 c 0.0157,0.2817 -0.13993,0.5085 -0.34877,0.5085 l -1.53997,0 c -0.20885,0 -0.38957,-0.2268 -0.4052,-0.5085 l -0.0217,-0.3906 c -0.0156,-0.2818 0.13993,-0.5086 0.34879,-0.5086 z"
         style="fill:#ffffff;fill-opacity:1;fill-rule:nonzero;stroke:#808080;stroke-width:0.45442954"
         id="path143749-8"
         inkscape:connector-curvature="0" />
      <path
         inkscape:connector-curvature="0"
         id="path143751-8"
         style="fill:#ffffff;fill-opacity:1;fill-rule:nonzero;stroke:#808080;stroke-width:0.45442954"
         d="m 446.15365,7997.4474 1.53997,0 c 0.20884,0 0.38957,0.2268 0.40519,0.5086 l 0.0217,0.3906 c 0.0156,0.2817 -0.13992,0.5085 -0.34877,0.5085 l -1.53996,0 c -0.20886,0 -0.38957,-0.2268 -0.40521,-0.5085 l -0.0217,-0.3906 c -0.0157,-0.2818 0.13994,-0.5086 0.34878,-0.5086 z"
         sodipodi:nodetypes="ssccssccs" />
      <path
         sodipodi:nodetypes="ssccssccs"
         d="m 449.37599,7997.4474 1.53996,0 c 0.20885,0 0.38957,0.2268 0.4052,0.5086 l 0.0216,0.3906 c 0.0156,0.2817 -0.13991,0.5085 -0.34876,0.5085 l -1.53997,0 c -0.20885,0 -0.38957,-0.2268 -0.4052,-0.5085 l -0.0216,-0.3906 c -0.0156,-0.2818 0.13992,-0.5086 0.34878,-0.5086 z"
         style="fill:#ffffff;fill-opacity:1;fill-rule:nonzero;stroke:#808080;stroke-width:0.45442954"
         id="path143753-1"
         inkscape:connector-curvature="0" />
      <path
         inkscape:connector-curvature="0"
         id="path143755-5"
         style="fill:#ffffff;fill-opacity:1;fill-rule:nonzero;stroke:#808080;stroke-width:0.45442954"
         d="m 452.6521,7997.4474 1.53995,0 c 0.20886,0 0.38957,0.2268 0.4052,0.5086 l 0.0217,0.3906 c 0.0157,0.2817 -0.13992,0.5085 -0.34877,0.5085 l -1.53996,0 c -0.20886,0 -0.38958,-0.2268 -0.40521,-0.5085 l -0.0217,-0.3906 c -0.0156,-0.2818 0.13993,-0.5086 0.3488,-0.5086 z"
         sodipodi:nodetypes="ssccssccs" />
      <path
         sodipodi:nodetypes="ssccssccs"
         d="m 455.84203,7997.4474 1.53997,0 c 0.20884,0 0.38958,0.2268 0.40519,0.5086 l 0.0217,0.3906 c 0.0156,0.2817 -0.13993,0.5085 -0.34878,0.5085 l -1.53996,0 c -0.20886,0 -0.38957,-0.2268 -0.40521,-0.5085 l -0.0217,-0.3906 c -0.0157,-0.2818 0.13993,-0.5086 0.34877,-0.5086 z"
         style="fill:#ffffff;fill-opacity:1;fill-rule:nonzero;stroke:#808080;stroke-width:0.45442954"
         id="path143757-6"
         inkscape:connector-curvature="0" />
      <path
         inkscape:connector-curvature="0"
         id="path143759-0"
         style="fill:#ffffff;fill-opacity:1;fill-rule:nonzero;stroke:#808080;stroke-width:0.45442954"
         d="m 459.06437,7997.4474 1.53997,0 c 0.20884,0 0.38956,0.2268 0.40519,0.5086 l 0.0216,0.3906 c 0.0156,0.2817 -0.13992,0.5085 -0.34877,0.5085 l -1.53997,0 c -0.20885,0 -0.38957,-0.2268 -0.4052,-0.5085 l -0.0216,-0.3906 c -0.0156,-0.2818 0.13993,-0.5086 0.34878,-0.5086 z"
         sodipodi:nodetypes="ssccssccs" />
    </g>
  </g>
</svg>
