<?xml version="1.0" encoding="UTF-8" standalone="no"?>
<!-- Created with Inkscape (http://www.inkscape.org/) -->

<svg
   xmlns:dc="http://purl.org/dc/elements/1.1/"
   xmlns:cc="http://creativecommons.org/ns#"
   xmlns:rdf="http://www.w3.org/1999/02/22-rdf-syntax-ns#"
   xmlns:svg="http://www.w3.org/2000/svg"
   xmlns="http://www.w3.org/2000/svg"
   xmlns:xlink="http://www.w3.org/1999/xlink"
   xmlns:sodipodi="http://sodipodi.sourceforge.net/DTD/sodipodi-0.dtd"
   xmlns:inkscape="http://www.inkscape.org/namespaces/inkscape"
   width="128"
   height="113.03424"
   id="svg2"
   version="1.1"
   inkscape:version="0.48.0 r9654"
   sodipodi:docname="New document 1">
  <defs
     id="defs4">
    <linearGradient
       inkscape:collect="always"
       xlink:href="#linearGradient4781-3-7-2"
       id="linearGradient9076-3"
       gradientUnits="userSpaceOnUse"
       gradientTransform="matrix(-0.80983721,0,0,0.8038584,1226.9301,1471.6998)"
       x1="460.23651"
       y1="-965.29681"
       x2="462.87714"
       y2="-965.26556" />
    <linearGradient
       id="linearGradient4781-3-7-2">
      <stop
         style="stop-color:#4e6271;stop-opacity:1;"
         offset="0"
         id="stop4783-2-2-5" />
      <stop
         style="stop-color:#b2bac0;stop-opacity:1;"
         offset="1"
         id="stop4785-5-5-4" />
    </linearGradient>
    <linearGradient
       inkscape:collect="always"
       xlink:href="#linearGradient7732-1"
       id="linearGradient9078-0"
       gradientUnits="userSpaceOnUse"
       x1="80.671188"
       y1="917.11938"
       x2="91.550255"
       y2="917.73877" />
    <linearGradient
       inkscape:collect="always"
       id="linearGradient7732-1">
      <stop
         style="stop-color:#1b1b1b;stop-opacity:1;"
         offset="0"
         id="stop7734-3" />
      <stop
         style="stop-color:#1b1b1b;stop-opacity:0;"
         offset="1"
         id="stop7736-9" />
    </linearGradient>
    <filter
       inkscape:collect="always"
       id="filter7728-5"
       x="-0.054699458"
       width="1.1093988"
       y="-0.50930429"
       height="2.0186086"
       color-interpolation-filters="sRGB">
      <feGaussianBlur
         inkscape:collect="always"
         stdDeviation="0.52342113"
         id="feGaussianBlur7730-8" />
    </filter>
    <linearGradient
       inkscape:collect="always"
       xlink:href="#linearGradient4818-2-3-2"
       id="linearGradient9080-1"
       gradientUnits="userSpaceOnUse"
       gradientTransform="matrix(0.9919109,0,0,0.99082157,0.88429866,9.7527949)"
       x1="65.57148"
       y1="911.26953"
       x2="85.808258"
       y2="908.14453" />
    <linearGradient
       id="linearGradient4818-2-3-2">
      <stop
         style="stop-color:#4c4c4c;stop-opacity:1;"
         offset="0"
         id="stop4820-2-5-7" />
      <stop
         style="stop-color:#ffffff;stop-opacity:1;"
         offset="1"
         id="stop4822-8-6-9" />
    </linearGradient>
    <linearGradient
       inkscape:collect="always"
       xlink:href="#linearGradient4818-2-3-2"
       id="linearGradient9082-9"
       gradientUnits="userSpaceOnUse"
       gradientTransform="matrix(0.9088145,0,0,1.011806,8.2282575,-9.2582399)"
       x1="87.038445"
       y1="906.24481"
       x2="86.753571"
       y2="881.91229" />
    <linearGradient
       id="linearGradient123173">
      <stop
         style="stop-color:#4c4c4c;stop-opacity:1;"
         offset="0"
         id="stop123175" />
      <stop
         style="stop-color:#ffffff;stop-opacity:1;"
         offset="1"
         id="stop123177" />
    </linearGradient>
    <linearGradient
       inkscape:collect="always"
       xlink:href="#linearGradient4893-5-5-6"
       id="linearGradient9084-0"
       gradientUnits="userSpaceOnUse"
       gradientTransform="translate(0.19220976,1.3281291)"
       x1="76.602463"
       y1="912.10504"
       x2="75.851158"
       y2="883.29041" />
    <linearGradient
       id="linearGradient4893-5-5-6">
      <stop
         id="stop4895-5-7-1"
         offset="0"
         style="stop-color:#b5b5b5;stop-opacity:1;" />
      <stop
         style="stop-color:#a5a5a5;stop-opacity:1;"
         offset="0.6197595"
         id="stop4899-9-0-7" />
      <stop
         id="stop4897-6-1-7"
         offset="1"
         style="stop-color:#ffffff;stop-opacity:1;" />
    </linearGradient>
    <linearGradient
       inkscape:collect="always"
       xlink:href="#linearGradient4858-6-3-1"
       id="linearGradient9086-4"
       gradientUnits="userSpaceOnUse"
       gradientTransform="translate(0.19220976,1.3281291)"
       x1="71.191071"
       y1="894.60565"
       x2="85.760696"
       y2="890.11536" />
    <linearGradient
       inkscape:collect="always"
       id="linearGradient4858-6-3-1">
      <stop
         style="stop-color:#1e1e1e;stop-opacity:1;"
         offset="0"
         id="stop4860-8-7-9" />
      <stop
         style="stop-color:#1e1e1e;stop-opacity:0;"
         offset="1"
         id="stop4862-9-3-0" />
    </linearGradient>
    <filter
       color-interpolation-filters="sRGB"
       inkscape:collect="always"
       id="filter4943-0-1-3">
      <feGaussianBlur
         inkscape:collect="always"
         stdDeviation="0.3568344"
         id="feGaussianBlur4945-6-3-4" />
    </filter>
    <linearGradient
       inkscape:collect="always"
       xlink:href="#linearGradient4868-0-9-1"
       id="linearGradient9088-2"
       gradientUnits="userSpaceOnUse"
       gradientTransform="translate(0.19220976,1.3281291)"
       x1="84.448196"
       y1="888.54315"
       x2="62.066071"
       y2="889.41815" />
    <linearGradient
       id="linearGradient4868-0-9-1">
      <stop
         style="stop-color:#8c8c8c;stop-opacity:1;"
         offset="0"
         id="stop4870-6-6-7" />
      <stop
         id="stop4876-6-0-5"
         offset="0.18895134"
         style="stop-color:#353535;stop-opacity:1;" />
      <stop
         style="stop-color:#959595;stop-opacity:1;"
         offset="1"
         id="stop4872-3-2-3" />
    </linearGradient>
    <filter
       color-interpolation-filters="sRGB"
       inkscape:collect="always"
       id="filter5053-5-1-3">
      <feGaussianBlur
         inkscape:collect="always"
         stdDeviation="0.19085882"
         id="feGaussianBlur5055-4-9-2" />
    </filter>
    <linearGradient
       inkscape:collect="always"
       xlink:href="#linearGradient5098-8-8-4"
       id="linearGradient9090-9"
       gradientUnits="userSpaceOnUse"
       gradientTransform="translate(0.19220976,1.3281291)"
       x1="75.503571"
       y1="901.06091"
       x2="76.275017"
       y2="894.05725" />
    <linearGradient
       inkscape:collect="always"
       id="linearGradient5098-8-8-4">
      <stop
         style="stop-color:#000000;stop-opacity:1;"
         offset="0"
         id="stop5100-8-8-1" />
      <stop
         style="stop-color:#000000;stop-opacity:0;"
         offset="1"
         id="stop5102-4-7-2" />
    </linearGradient>
    <linearGradient
       inkscape:collect="always"
       xlink:href="#linearGradient5311-7-0-9"
       id="linearGradient9092-3"
       gradientUnits="userSpaceOnUse"
       gradientTransform="translate(0.19220976,1.3281291)"
       x1="71.333176"
       y1="896.18628"
       x2="75.074463"
       y2="878.22595" />
    <linearGradient
       id="linearGradient5311-7-0-9">
      <stop
         id="stop5313-3-9-0"
         offset="0"
         style="stop-color:#424242;stop-opacity:1;" />
      <stop
         id="stop5315-2-0-8"
         offset="1"
         style="stop-color:#818181;stop-opacity:1;" />
    </linearGradient>
    <filter
       inkscape:collect="always"
       id="filter7142-7"
       x="-0.11329943"
       width="1.2265989"
       y="-0.22084211"
       height="1.4416842"
       color-interpolation-filters="sRGB">
      <feGaussianBlur
         inkscape:collect="always"
         stdDeviation="6.4468265"
         id="feGaussianBlur7144-4" />
    </filter>
    <linearGradient
       inkscape:collect="always"
       xlink:href="#linearGradient5801-7-5"
       id="linearGradient9094-1"
       gradientUnits="userSpaceOnUse"
       gradientTransform="matrix(0.73192656,0,0,0.73192656,663.92642,185.27729)"
       x1="158.86479"
       y1="706.07477"
       x2="319.51733"
       y2="742.35919" />
    <linearGradient
       id="linearGradient5801-7-5">
      <stop
         id="stop5803-7-6"
         offset="0"
         style="stop-color:#ffffff;stop-opacity:1;" />
      <stop
         id="stop5805-9-8"
         offset="1"
         style="stop-color:#27343c;stop-opacity:1;" />
    </linearGradient>
    <linearGradient
       inkscape:collect="always"
       xlink:href="#linearGradient5801-7-5"
       id="linearGradient9096-4"
       gradientUnits="userSpaceOnUse"
       gradientTransform="matrix(0.73192656,0,0,0.73192656,687.94538,195.67524)"
       x1="173.61505"
       y1="760.87512"
       x2="65.997429"
       y2="689.16925" />
    <linearGradient
       id="linearGradient123212">
      <stop
         id="stop123214"
         offset="0"
         style="stop-color:#ffffff;stop-opacity:1;" />
      <stop
         id="stop123216"
         offset="1"
         style="stop-color:#27343c;stop-opacity:1;" />
    </linearGradient>
    <linearGradient
       inkscape:collect="always"
       xlink:href="#linearGradient5801-7-5"
       id="linearGradient9098-8"
       gradientUnits="userSpaceOnUse"
       gradientTransform="matrix(0.73192656,0,0,0.73192656,687.94538,195.67524)"
       x1="319.22894"
       y1="667.52386"
       x2="188.08318"
       y2="761.83972" />
    <linearGradient
       id="linearGradient123219">
      <stop
         id="stop123221"
         offset="0"
         style="stop-color:#ffffff;stop-opacity:1;" />
      <stop
         id="stop123223"
         offset="1"
         style="stop-color:#27343c;stop-opacity:1;" />
    </linearGradient>
    <filter
       color-interpolation-filters="sRGB"
       inkscape:collect="always"
       id="filter5763-1-0"
       x="-0.068371981"
       width="1.136744"
       y="-0.13107832"
       height="1.2621566">
      <feGaussianBlur
         inkscape:collect="always"
         stdDeviation="0.29772692"
         id="feGaussianBlur5765-4-7" />
    </filter>
    <filter
       color-interpolation-filters="sRGB"
       inkscape:collect="always"
       id="filter5755-4-7"
       x="-0.07161101"
       width="1.143222"
       y="-0.14175981"
       height="1.2835196">
      <feGaussianBlur
         inkscape:collect="always"
         stdDeviation="0.31559987"
         id="feGaussianBlur5757-5-4" />
    </filter>
    <filter
       color-interpolation-filters="sRGB"
       inkscape:collect="always"
       id="filter5771-9-3"
       x="-0.072505891"
       width="1.1450118"
       y="-0.13837889"
       height="1.2767578">
      <feGaussianBlur
         inkscape:collect="always"
         stdDeviation="0.31063639"
         id="feGaussianBlur5773-5-1" />
    </filter>
    <filter
       color-interpolation-filters="sRGB"
       inkscape:collect="always"
       id="filter5775-6-3"
       x="-0.077720456"
       width="1.1554409"
       y="-0.14193143"
       height="1.2838629">
      <feGaussianBlur
         inkscape:collect="always"
         stdDeviation="0.32433816"
         id="feGaussianBlur5777-4-6" />
    </filter>
  </defs>
  <sodipodi:namedview
     id="base"
     pagecolor="#ffffff"
     bordercolor="#666666"
     borderopacity="1.0"
     inkscape:pageopacity="0.0"
     inkscape:pageshadow="2"
     inkscape:zoom="0.35"
     inkscape:cx="127.57143"
     inkscape:cy="-6.3400181"
     inkscape:document-units="px"
     inkscape:current-layer="layer1"
     showgrid="false"
     fit-margin-top="0"
     fit-margin-left="0"
     fit-margin-right="0"
     fit-margin-bottom="0"
     inkscape:window-width="471"
     inkscape:window-height="431"
     inkscape:window-x="154"
     inkscape:window-y="203"
     inkscape:window-maximized="0" />
  <metadata
     id="metadata7">
    <rdf:RDF>
      <cc:Work
         rdf:about="">
        <dc:format>image/svg+xml</dc:format>
        <dc:type
           rdf:resource="http://purl.org/dc/dcmitype/StillImage" />
        <dc:title></dc:title>
      </cc:Work>
    </rdf:RDF>
  </metadata>
  <g
     inkscape:label="Layer 1"
     inkscape:groupmode="layer"
     id="layer1"
     transform="translate(-247.42857,-412.98792)">
    <g
       style="display:inline"
       transform="matrix(1.0365867,0,0,1.0365867,-532.88956,-272.1151)"
       id="g8964"
       inkscape:export-filename="C:\Documents and Settings\Elvis Čauss\Desktop\Zabbix Frontend\Default map icons\Large\Cryto-router.png"
       inkscape:export-xdpi="90"
       inkscape:export-ydpi="90">
      <path
         id="path8972"
         style="fill:url(#linearGradient9076-3);fill-opacity:1;fill-rule:nonzero;stroke:none"
         d="m 854.21341,671.15366 -3.54304,0 0,45.71044 3.54304,0 z"
         inkscape:connector-curvature="0" />
      <g
         transform="matrix(0.6511241,-0.01395205,0.01395205,0.6511241,648.12739,106.04178)"
         id="g8974">
        <g
           transform="matrix(1.7399471,0,0,1.7399471,113.54526,-679.68865)"
           id="g8976">
          <path
             transform="matrix(1.3934199,-0.09014543,0.09690169,2.1096565,-116.60103,-1009.4098)"
             sodipodi:nodetypes="ccccc"
             inkscape:connector-curvature="0"
             d="m 67.744509,914.95532 c 16.01462,0.88918 15.62697,1.21938 20.59089,2.32875 l -2.57497,1.07216 c -6.43216,-0.23924 -12.62335,-0.34722 -20.346901,-2.42182 z"
             style="opacity:0.37219729;fill:url(#linearGradient9078-0);fill-opacity:1;fill-rule:nonzero;stroke:none;filter:url(#filter7728-5)"
             id="path8978" />
          <path
             sodipodi:nodetypes="ccccc"
             inkscape:connector-curvature="0"
             d="m 65.553401,897.93807 c 5.5337,1.27812 13.423478,1.65192 20.197069,1.4243 l -2.88e-4,19.8419 C 78.790608,918.99206 72.203,918.629 65.429412,916.78914 z"
             style="fill:url(#linearGradient9080-1);fill-opacity:1;fill-rule:nonzero;stroke:#4d4d4d;stroke-width:0.49568304;stroke-miterlimit:4;stroke-dasharray:none"
             id="path8980" />
          <path
             sodipodi:nodetypes="ccccc"
             inkscape:connector-curvature="0"
             d="m 85.766095,899.16658 2.558591,-1.22501 -0.0039,20.15611 -2.324216,1.36735 z"
             style="fill:url(#linearGradient9082-9);fill-opacity:1;fill-rule:nonzero;stroke:none"
             id="path8982" />
          <path
             sodipodi:nodetypes="ccccc"
             inkscape:connector-curvature="0"
             d="m 67.640565,896.47478 c 16.084093,0.15821 15.694761,0.52999 20.680215,1.46943 l -2.58614,1.27224 c -6.460064,0.0624 -12.674206,0.24908 -20.431262,-1.58479 z"
             style="fill:#424242;fill-opacity:1;fill-rule:nonzero;stroke:none"
             id="path8984" />
          <path
             sodipodi:nodetypes="ccsccccscc"
             inkscape:connector-curvature="0"
             d="m 85.940441,898.47629 c -1.446119,0.4556 -3.6854,0.29015 -4.444855,-0.22817 -0.0951,-2.38924 0.02435,-4.22796 -0.415062,-6.02566 -1.14909,-4.70105 -5.071535,-4.53769 -6.959173,-3.4305 -1.047785,0.70434 -1.172903,1.36672 -1.506313,2.13427 -0.417274,1.18497 -0.645081,2.87399 -0.784855,6.82096 -1.307228,0.41139 -3.163743,0.34737 -4.227903,-0.35734 0.264165,-5.05119 0.229897,-9.20567 4.213284,-11.97646 2.549128,-1.77314 6.390368,-1.96299 9.215683,-0.53508 5.04357,2.50245 4.921657,9.3152 4.909194,13.59798 z"
             style="fill:url(#linearGradient9084-0);fill-opacity:1;fill-rule:nonzero;stroke:none"
             id="path8986" />
          <path
             id="path8988"
             style="fill:url(#linearGradient9086-4);fill-opacity:1;fill-rule:nonzero;stroke:none;filter:url(#filter4943-0-1-3)"
             d="m 82.252334,898.59057 c -0.367268,-0.11167 -0.466043,-0.17569 -0.756748,-0.34245 -0.0951,-2.38924 0.02435,-4.22796 -0.415062,-6.02566 -1.14909,-4.70105 -5.071535,-4.53769 -6.959173,-3.4305 -1.047785,0.70434 -1.172903,1.36672 -1.506313,2.13427 -0.417274,1.18497 -0.645081,2.87399 -0.784855,6.82096 -0.608009,0.19655 -1.313731,0.28799 -1.942822,0.2806 0.09555,-7.18886 1.912722,-10.57272 4.869938,-11.0339 4.157131,-0.6483 8.515223,1.69408 7.495035,11.59668 z"
             inkscape:connector-curvature="0"
             sodipodi:nodetypes="ccsccccsc" />
          <path
             id="path8990"
             style="fill:url(#linearGradient9088-2);fill-opacity:1;fill-rule:nonzero;stroke:none;filter:url(#filter5053-5-1-3)"
             d="m 76.31721,883.95313 c -0.995822,0.0446 -1.976963,0.26771 -2.90625,0.625 -0.909432,0.39243 -1.783947,0.90349 -2.5,1.59375 -0.865307,0.73417 -1.526371,1.68033 -1.986619,2.7135 -0.446678,0.86565 -0.653624,1.82073 -0.841048,2.76877 -0.203427,0.96712 -0.247263,1.9615 -0.31166,2.94556 -0.02125,0.93248 -0.09331,1.86193 -0.173173,2.79092 0.135417,0.0625 0.270833,0.125 0.40625,0.1875 -0.138016,-0.35664 0.04678,-0.72641 0,-1.09375 0.09674,-1.11642 0.21077,-2.23106 0.34375,-3.34375 0.164016,-1.04781 0.321442,-2.09846 0.59375,-3.125 0.338004,-0.97258 0.844625,-1.88515 1.515601,-2.66768 0.690807,-0.82474 1.511578,-1.55752 2.46162,-2.0699 0.779103,-0.45606 1.631602,-0.83317 2.543566,-0.88421 1.022891,-0.10838 2.083355,-0.23287 3.08076,0.0972 0.991734,0.25411 1.987713,0.57049 2.804703,1.21206 0.42392,0.45234 0.858588,0.90009 1.118895,1.47369 0.551331,0.82862 0.691368,1.83253 0.847462,2.7932 0.170285,1.0206 0.44843,2.02056 0.596143,3.04561 0.23056,1.06838 0.241639,2.16524 0.34375,3.25 -0.0024,0.83398 0.0099,1.67442 -0.125,2.5 0.603386,-0.10313 1.231104,-0.0641 1.8125,-0.28125 0.0124,-1.10074 -0.0079,-2.20086 -0.06204,-3.30034 -0.05439,-0.98791 -0.11089,-1.97851 -0.312959,-2.94966 -0.138156,-1.03978 -0.348864,-2.08573 -0.795357,-3.04098 -0.426208,-0.96093 -0.873087,-1.94781 -1.631342,-2.69552 -0.585169,-0.68264 -1.35478,-1.17821 -2.148507,-1.58861 -0.926727,-0.47863 -1.948421,-0.78973 -2.987294,-0.89364 -0.560763,-0.0713 -1.122909,-0.13743 -1.6875,-0.0625 z"
             inkscape:connector-curvature="0"
             sodipodi:nodetypes="cccsccccscc" />
          <path
             id="path8992"
             style="fill:url(#linearGradient9090-9);fill-opacity:1;fill-rule:nonzero;stroke:none"
             d="m 85.940441,898.47629 c -1.446119,0.4556 -3.6854,0.29015 -4.444855,-0.22817 -0.0951,-2.38924 0.02435,-4.22796 -0.415062,-6.02566 -1.14909,-4.70105 -5.071535,-4.53769 -6.959173,-3.4305 -1.047785,0.70434 -1.172903,1.36672 -1.506313,2.13427 -0.417274,1.18497 -0.645081,2.87399 -0.784855,6.82096 -1.307228,0.41139 -3.163743,0.34737 -4.227903,-0.35734 0.264165,-5.05119 0.229897,-9.20567 4.213284,-11.97646 2.549128,-1.77314 6.390368,-1.96299 9.215683,-0.53508 5.04357,2.50245 4.921657,9.3152 4.909194,13.59798 z"
             inkscape:connector-curvature="0"
             sodipodi:nodetypes="ccsccccscc" />
          <path
             sodipodi:nodetypes="ccsccccscc"
             inkscape:connector-curvature="0"
             d="m 85.940441,898.47629 c -1.446119,0.4556 -3.6854,0.29015 -4.444855,-0.22817 -0.0951,-2.38924 0.02435,-4.22796 -0.415062,-6.02566 -1.14909,-4.70105 -5.071535,-4.53769 -6.959173,-3.4305 -1.047785,0.70434 -1.172903,1.36672 -1.506313,2.13427 -0.417274,1.18497 -0.645081,2.87399 -0.784855,6.82096 -1.307228,0.41139 -3.163743,0.34737 -4.227903,-0.35734 0.264165,-5.05119 0.229897,-9.20567 4.213284,-11.97646 2.549128,-1.77314 6.390368,-1.96299 9.215683,-0.53508 5.04357,2.50245 4.921657,9.3152 4.909194,13.59798 z"
             style="fill:none;stroke:url(#linearGradient9092-3);stroke-width:0.2;stroke-miterlimit:4;stroke-opacity:1;stroke-dasharray:none"
             id="path8994" />
        </g>
      </g>
      <path
         transform="matrix(0.73717782,0,0,0.84723082,662.48486,112.03885)"
         id="path8996"
         style="fill:#000000;fill-opacity:1;fill-rule:nonzero;stroke:none;filter:url(#filter7142-7)"
         d="m 190.21338,691.0295 84.30377,36.12543 -58.77787,33.93541 -77.78402,-44.90858 z"
         inkscape:connector-curvature="0"
         sodipodi:nodetypes="ccccc" />
      <path
         sodipodi:nodetypes="ccccc"
         inkscape:connector-curvature="0"
         d="m 803.83036,695.53899 61.02245,21.96231 -43.02108,24.83822 -56.93219,-32.86978 z"
         style="fill:url(#linearGradient9094-1);fill-opacity:1;fill-rule:nonzero;stroke:none"
         id="path8998" />
      <path
         sodipodi:nodetypes="ccccc"
         inkscape:connector-curvature="0"
         d="m 764.89955,709.46975 56.93216,32.86979 3e-5,14.57902 -56.93219,-33.53562 z"
         style="fill:url(#linearGradient9096-4);fill-opacity:1;fill-rule:nonzero;stroke:none"
         id="path9000" />
      <path
         sodipodi:nodetypes="ccc"
         inkscape:connector-curvature="0"
         d="m 775.95684,715.85367 34.00883,19.63501 c -21.14884,2.84547 -34.00883,-13.41638 -34.00883,-19.63501 z"
         style="fill:#8fa2b0;fill-opacity:1;fill-rule:nonzero;stroke:none"
         id="path9002" />
      <path
         sodipodi:nodetypes="ccccc"
         inkscape:connector-curvature="0"
         d="m 821.83174,742.33954 43.02108,-24.83824 0,14.57201 -43.02108,24.84525 z"
         style="fill:url(#linearGradient9098-8);fill-opacity:1;fill-rule:nonzero;stroke:none"
         id="path9004" />
      <path
         sodipodi:nodetypes="ccccc"
         inkscape:connector-curvature="0"
         d="m 808.40779,734.58926 28.92448,-15.68681 1.21803,0.44332 -28.84621,15.99189 z"
         style="fill:#4e6271;fill-opacity:1;fill-rule:nonzero;stroke:none"
         id="path9006" />
      <path
         id="path9008"
         style="fill:#4e6271;fill-opacity:1;fill-rule:nonzero;stroke:none"
         d="m 805.69557,733.02337 28.61043,-15.42026 1.60765,0.58514 -28.92178,15.58352 z"
         inkscape:connector-curvature="0"
         sodipodi:nodetypes="ccccc" />
      <path
         sodipodi:nodetypes="ccccc"
         inkscape:connector-curvature="0"
         d="m 803.03747,731.48871 28.44475,-15.08226 1.64019,0.59698 -28.78864,15.23369 z"
         style="fill:#4e6271;fill-opacity:1;fill-rule:nonzero;stroke:none"
         id="path9010" />
      <path
         id="path9012"
         style="fill:#4e6271;fill-opacity:1;fill-rule:nonzero;stroke:none"
         d="m 800.24822,729.87834 28.51957,-14.6337 1.48142,0.53919 -28.70468,14.84292 z"
         inkscape:connector-curvature="0"
         sodipodi:nodetypes="ccccc" />
      <path
         sodipodi:nodetypes="ccccc"
         inkscape:connector-curvature="0"
         d="m 797.536,728.31245 28.79029,-14.1938 1.46078,0.62006 -28.95477,14.32214 z"
         style="fill:#4e6271;fill-opacity:1;fill-rule:nonzero;stroke:none"
         id="path9014" />
      <path
         id="path9016"
         style="fill:#4e6271;fill-opacity:1;fill-rule:nonzero;stroke:none"
         d="m 794.8779,726.7778 28.84184,-13.76556 1.55911,0.6618 -29.10465,13.85216 z"
         inkscape:connector-curvature="0"
         sodipodi:nodetypes="ccccc" />
      <path
         id="path9018"
         style="fill:#4e6271;fill-opacity:1;fill-rule:nonzero;stroke:none"
         d="m 792.13837,725.19609 29.01404,-13.27362 1.45518,0.61768 -29.17292,13.40434 z"
         inkscape:connector-curvature="0"
         sodipodi:nodetypes="ccccc" />
      <path
         sodipodi:nodetypes="ccccc"
         inkscape:connector-curvature="0"
         d="m 789.42614,723.6302 28.88703,-12.91292 1.57495,0.66853 -29.16568,12.99279 z"
         style="fill:#4e6271;fill-opacity:1;fill-rule:nonzero;stroke:none"
         id="path9020" />
      <path
         id="path9022"
         style="fill:#4e6271;fill-opacity:1;fill-rule:nonzero;stroke:none"
         d="m 786.76804,722.09555 28.68149,-12.59382 1.44193,0.61207 -28.82712,12.73015 z"
         inkscape:connector-curvature="0"
         sodipodi:nodetypes="ccccc" />
      <path
         sodipodi:nodetypes="ccccc"
         inkscape:connector-curvature="0"
         d="m 783.9788,720.48518 28.24336,-12.35338 1.8606,0.78978 -28.80766,12.312 z"
         style="fill:#4e6271;fill-opacity:1;fill-rule:nonzero;stroke:none"
         id="path9024" />
      <path
         id="path9026"
         style="fill:#4e6271;fill-opacity:1;fill-rule:nonzero;stroke:none"
         d="m 781.26657,718.91929 27.80548,-12.02871 1.60698,0.58621 -28.11616,12.1909 z"
         inkscape:connector-curvature="0"
         sodipodi:nodetypes="ccccc" />
      <path
         sodipodi:nodetypes="ccccc"
         inkscape:connector-curvature="0"
         d="m 778.35283,717.21421 27.50459,-11.78408 1.89652,0.80503 -27.84917,11.89788 z"
         style="fill:#4e6271;fill-opacity:1;fill-rule:nonzero;stroke:none"
         id="path9028" />
      <path
         id="path9030"
         style="fill:#4e6271;fill-opacity:1;fill-rule:nonzero;stroke:none"
         d="m 775.69428,715.70213 27.09509,-11.57431 1.67015,0.70894 -27.46893,11.61377 z"
         inkscape:connector-curvature="0"
         sodipodi:nodetypes="ccccc" />
      <path
         sodipodi:nodetypes="ccccc"
         inkscape:connector-curvature="0"
         d="m 775.70955,715.71091 1.32445,0.76468 -0.12662,2.97056 c -0.40673,-1.00024 -0.82008,-1.78569 -1.19783,-3.72794 z"
         style="fill:#4e6271;fill-opacity:1;fill-rule:nonzero;stroke:none"
         id="path9032" />
      <path
         id="path9034"
         style="fill:#00bf00;fill-opacity:1;fill-rule:nonzero;stroke:none"
         d="m 778.34386,717.20735 1.55879,0.92446 -0.12662,5.84394 c -0.41187,-0.52006 -0.81628,-1.04755 -1.19783,-1.59791 z"
         inkscape:connector-curvature="0"
         sodipodi:nodetypes="ccccc" />
      <path
         sodipodi:nodetypes="ccccc"
         inkscape:connector-curvature="0"
         d="m 781.27009,718.92129 1.32445,0.76468 -0.12662,7.1963 c -0.40415,-0.38365 -0.80854,-0.76656 -1.19783,-1.19478 z"
         style="fill:#00bf00;fill-opacity:1;fill-rule:nonzero;stroke:none"
         id="path9036" />
      <path
         id="path9038"
         style="fill:#00bf00;fill-opacity:1;fill-rule:nonzero;stroke:none"
         d="m 783.95111,720.46918 1.32445,0.76468 -0.12662,7.92536 c -0.40236,-0.31226 -0.80303,-0.62622 -1.19783,-0.94605 z"
         inkscape:connector-curvature="0"
         sodipodi:nodetypes="ccccc" />
      <path
         sodipodi:nodetypes="ccccc"
         inkscape:connector-curvature="0"
         d="m 786.76062,722.09124 1.32445,0.76468 -0.12662,8.21413 c -0.39928,-0.24435 -0.79856,-0.49317 -1.19783,-0.7602 z"
         style="fill:#00bf00;fill-opacity:1;fill-rule:nonzero;stroke:none"
         id="path9040" />
      <path
         id="path9042"
         style="fill:#caca00;fill-opacity:1;fill-rule:nonzero;stroke:none"
         d="m 789.40493,723.61794 1.32445,0.76468 -0.12662,8.12836 c -0.39928,-0.19115 -0.79856,-0.39282 -1.19783,-0.61439 z"
         inkscape:connector-curvature="0"
         sodipodi:nodetypes="ccccc" />
      <path
         sodipodi:nodetypes="ccccc"
         inkscape:connector-curvature="0"
         d="m 792.08434,725.21064 1.32445,0.71894 -0.12662,7.74541 c -0.39654,-0.15917 -0.79379,-0.31906 -1.19783,-0.48573 z"
         style="fill:#caca00;fill-opacity:1;fill-rule:nonzero;stroke:none"
         id="path9044" />
      <path
         id="path9046"
         style="fill:#caca00;fill-opacity:1;fill-rule:nonzero;stroke:none"
         d="m 794.86354,726.76947 1.32445,0.76468 -0.12663,7.05906 c -0.39653,-0.11819 -0.79379,-0.2371 -1.19782,-0.36279 z"
         inkscape:connector-curvature="0"
         sodipodi:nodetypes="ccccc" />
      <path
         sodipodi:nodetypes="ccccc"
         inkscape:connector-curvature="0"
         d="m 797.52519,728.30617 1.32445,0.76468 -0.12663,6.14701 c -0.39927,-0.0789 -0.79855,-0.16289 -1.19782,-0.257 z"
         style="fill:#caca00;fill-opacity:1;fill-rule:nonzero;stroke:none"
         id="path9048" />
      <path
         id="path9050"
         style="fill:#00bf00;fill-opacity:1;fill-rule:nonzero;stroke:none"
         d="m 800.2121,729.85746 1.32445,0.76468 -0.12662,5.00164 c -0.39927,-0.0397 -0.79855,-0.0953 -1.19783,-0.16551 z"
         inkscape:connector-curvature="0"
         sodipodi:nodetypes="ccccc" />
      <path
         sodipodi:nodetypes="ccccc"
         inkscape:connector-curvature="0"
         d="m 803.03218,731.48564 1.32445,0.76468 -0.12662,3.56239 -1.19783,-0.054 z"
         style="fill:#00bf00;fill-opacity:1;fill-rule:nonzero;stroke:none"
         id="path9052" />
      <path
         id="path9054"
         style="fill:#4e6271;fill-opacity:1;fill-rule:nonzero;stroke:none"
         d="m 805.67747,733.01289 1.32445,0.76468 -0.12663,1.99561 c -0.39927,0.0323 -0.79855,0.0381 -1.19782,0.0403 z"
         inkscape:connector-curvature="0"
         sodipodi:nodetypes="ccccc" />
      <path
         sodipodi:nodetypes="ccccc"
         inkscape:connector-curvature="0"
         d="m 808.37008,734.56748 1.32445,0.76468 -0.004,0.19439 c -0.44026,0.0658 -0.88052,0.10509 -1.32077,0.14041 z"
         style="fill:#4e6271;fill-opacity:1;fill-rule:nonzero;stroke:none"
         id="path9056" />
      <path
         sodipodi:nodetypes="ccccc"
         inkscape:connector-curvature="0"
         d="m 803.51129,728.18183 3.83073,2.45466 -2.97986,1.617 -4.10311,-2.36893 z"
         style="fill:#1aff00;fill-opacity:1;fill-rule:nonzero;stroke:none"
         id="path9058" />
      <path
         sodipodi:nodetypes="ccccc"
         inkscape:connector-curvature="0"
         d="m 168.97267,729.02876 5.53505,3.29122 -4.85888,2.16006 -5.59196,-3.22851 z"
         style="fill:#1aff00;fill-opacity:1;fill-rule:nonzero;stroke:none;filter:url(#filter5763-1-0)"
         id="path9060"
         transform="matrix(0.73192656,0,0,0.73192656,663.92642,185.27729)" />
      <path
         sodipodi:nodetypes="ccccc"
         inkscape:connector-curvature="0"
         d="m 160.72395,724.79949 6.15668,3.30299 -4.80265,2.04013 -5.77449,-3.40035 z"
         style="fill:#1aff00;fill-opacity:1;fill-rule:nonzero;stroke:none;filter:url(#filter5755-4-7)"
         id="path9062"
         transform="matrix(0.73192656,0,0,0.73192656,663.92642,185.27729)" />
      <path
         sodipodi:nodetypes="ccccc"
         inkscape:connector-curvature="0"
         d="m 176.36093,733.32799 5.42473,3.1111 -4.80067,2.27648 -5.48163,-3.16481 z"
         style="fill:#ffff00;fill-opacity:1;fill-rule:nonzero;stroke:none;filter:url(#filter5771-9-3)"
         id="path9064"
         transform="matrix(0.73192656,0,0,0.73192656,663.92642,185.27729)" />
      <path
         sodipodi:nodetypes="ccccc"
         inkscape:connector-curvature="0"
         d="m 183.77308,737.49097 5.15796,3.14973 -4.56782,2.33469 -5.44771,-3.14523 z"
         style="fill:#ffff00;fill-opacity:1;fill-rule:nonzero;stroke:none;filter:url(#filter5775-6-3)"
         id="path9066"
         transform="matrix(0.73192656,0,0,0.73192656,663.92642,185.27729)" />
      <path
         sodipodi:type="arc"
         style="fill:#4e6271;fill-opacity:1;fill-rule:nonzero;stroke:none"
         id="path9068"
         sodipodi:cx="331.75461"
         sodipodi:cy="751.60089"
         sodipodi:rx="1.8230097"
         sodipodi:ry="0.13258252"
         d="m 333.57762,751.60089 c 0,0.0732 -0.81619,0.13258 -1.82301,0.13258 -1.00682,0 -1.82301,-0.0594 -1.82301,-0.13258 0,-0.0732 0.81619,-0.13258 1.82301,-0.13258 1.00682,0 1.82301,0.0594 1.82301,0.13258 z"
         transform="matrix(0.97206303,0,0,1.7691308,529.95238,-658.52373)" />
    </g>
  </g>
</svg>
