<svg xmlns="http://www.w3.org/2000/svg" xmlns:xlink="http://www.w3.org/1999/xlink" version="1.1" id="Layer_1" width="114" height="894" viewBox="0 0 114 894" xml:space="preserve" style="enable-background:new 0 0 114 894;overflow:visible">
  <path d="M20.91 19.85l-0.26 0.27 -0.73-0.73c1.49-1.77 1.43-4.4-0.24-6.07 -1.76-1.76-4.61-1.76-6.36 0 -1.76 1.76-1.75 4.6 0 6.36 1.67 1.67 4.31 1.74 6.07 0.24l0.73 0.73 -0.27 0.27L22.94 24l1.06-1.06L20.91 19.85zM14.38 18.62c-1.17-1.17-1.17-3.07 0-4.24 1.17-1.17 3.07-1.17 4.24 0s1.17 3.07 0 4.24C17.45 19.79 15.55 19.79 14.38 18.62z" fill="#3C5563"/>
  <path d="M18.39 56.56c-0.06-0.13-0.12-0.29-0.18-0.48 -0.06-0.19-0.09-0.4-0.09-0.63 0-0.28 0.07-0.53 0.21-0.76 0.14-0.23 0.32-0.45 0.54-0.66 0.21-0.21 0.45-0.42 0.69-0.63 0.25-0.21 0.48-0.45 0.69-0.73 0.22-0.27 0.39-0.57 0.54-0.9C20.93 51.45 21 51.08 21 50.66c0-0.44-0.08-0.82-0.25-1.15 -0.17-0.33-0.4-0.61-0.69-0.83 -0.29-0.22-0.64-0.39-1.03-0.51C18.63 48.06 18.22 48 17.77 48c-0.96 0-1.88 0.26-2.77 0.78v1.88c0.74-0.72 1.51-1.08 2.32-1.08 0.25 0 0.49 0.03 0.71 0.09 0.22 0.06 0.42 0.15 0.59 0.27 0.17 0.12 0.31 0.28 0.41 0.46 0.1 0.18 0.15 0.4 0.15 0.64 0 0.27-0.07 0.52-0.2 0.75 -0.13 0.23-0.3 0.44-0.5 0.65 -0.2 0.21-0.41 0.42-0.64 0.63 -0.23 0.22-0.45 0.44-0.64 0.68 -0.2 0.23-0.36 0.48-0.5 0.75 -0.13 0.27-0.2 0.57-0.2 0.9 0 0.21 0.02 0.43 0.06 0.64 0.04 0.22 0.08 0.4 0.13 0.53H18.39zM18.41 59.68c0.23-0.21 0.34-0.46 0.34-0.76 0-0.31-0.11-0.56-0.34-0.76 -0.23-0.22-0.51-0.32-0.82-0.32 -0.32 0-0.59 0.11-0.82 0.33 -0.23 0.2-0.34 0.46-0.34 0.76 0 0.3 0.11 0.56 0.34 0.77C17.01 59.9 17.29 60 17.6 60 17.9 60 18.17 59.9 18.41 59.68L18.41 59.68z" fill="#3C5563"/>
  <path d="M18 128c-2.28 0-4.36 0.8-6 2.14V132h12v-1.86C22.36 128.8 20.28 128 18 128zM18 126c1.66 0 3-1.34 3-3 0-1.66-1.34-3-3-3 -1.66 0-3 1.34-3 3C15 124.66 16.34 126 18 126z" fill="#3C5563"/>
  <path d="M24.89 193.23l-2.01 2.01 -2.12-2.12 2.01-2.01C22.52 191.05 22.27 191 22 191c-1.66 0-3 1.34-3 3 0 0.27 0.05 0.52 0.11 0.77l-4.34 4.34C14.52 199.05 14.27 199 14 199c-1.66 0-3 1.34-3 3 0 0.27 0.05 0.52 0.11 0.77l2.01-2.01 2.12 2.12 -2.01 2.01C13.48 204.95 13.73 205 14 205c1.66 0 3-1.34 3-3 0-0.27-0.04-0.52-0.11-0.77l4.35-4.34C21.48 196.96 21.73 197 22 197c1.66 0 3-1.34 3-3C25 193.73 24.95 193.48 24.89 193.23z" fill="#FFF"/>
  <polygon points="25 341 11 341 11 343 25 343 " fill="#FFF"/>
  <path d="M11 372v2h14v-2H11zM11 379h14v-2H11V379zM11 384h14v-2H11V384z" fill="#FFF"/>
  <polygon points="25 305 19 305 19 299 17 299 17 305 11 305 11 307 17 307 17 313 19 313 19 307 25 307 " fill="#FFF"/>
  <path d="M18.7 409.25c0.18 0.22 0.48 0.33 0.9 0.33 0.44 0 0.79-0.16 1.04-0.47 0.25-0.31 0.37-0.66 0.37-1.05 0-0.32-0.1-0.57-0.31-0.77C20.49 407.1 20.21 407 19.85 407c-0.42 0-0.76 0.14-1.03 0.42s-0.4 0.61-0.4 1C18.43 408.76 18.52 409.03 18.7 409.25zM15.35 414.17c0.93-0.61 1.52-0.91 1.79-0.91 0.16 0 0.24 0.09 0.24 0.27 0 0.36-0.29 1.55-0.86 3.58 -0.26 0.91-0.43 1.55-0.51 1.92 -0.08 0.37-0.12 0.7-0.12 0.99 0 0.29 0.06 0.53 0.2 0.71 0.13 0.18 0.33 0.27 0.59 0.27 0.21 0 0.46-0.05 0.74-0.15 0.28-0.1 0.76-0.35 1.42-0.76 0.66-0.41 1.23-0.77 1.71-1.08l0.04-0.12 -0.23-0.38 -0.12-0.01c-0.89 0.59-1.44 0.88-1.64 0.88 -0.07 0-0.14-0.03-0.2-0.1 -0.06-0.07-0.09-0.14-0.09-0.23 0-0.32 0.3-1.5 0.89-3.53 0.34-1.18 0.56-1.98 0.67-2.41 0.11-0.42 0.16-0.77 0.16-1.05 0-0.21-0.06-0.38-0.18-0.52s-0.27-0.2-0.44-0.2c-0.38 0-0.9 0.18-1.58 0.54 -0.67 0.36-1.61 0.97-2.82 1.84L15 413.83l0.2 0.33L15.35 414.17z" fill="#FFF"/>
  <path d="M22 486c0-1.48-0.81-2.74-2-3.44v6.87C21.19 488.75 22 487.48 22 486z" fill="#768D99"/>
  <polygon points="11 483.38 11 488.63 13.56 488.63 18 493 18 479 13.56 483.38 " fill="#768D99"/>
  <path d="M20 479.31v1.58c2.05 0.8 3.5 2.78 3.5 5.11 0 2.33-1.45 4.31-3.5 5.11v1.58C22.89 491.83 25 489.17 25 486 25 482.83 22.89 480.17 20 479.31z" fill="#768D99"/>
  <path d="M23.5 522c0 0.39-0.05 0.77-0.13 1.14l1.22 1.22C24.85 523.62 25 522.83 25 522c0-3.17-2.11-5.83-5-6.69v1.58C22.05 517.69 23.5 519.67 23.5 522zM20 518.56v1.21l1.98 1.98C21.9 520.39 21.13 519.22 20 518.56zM24.7 527.3l-12.01-12.01 -1.41 1.41 2.48 2.48 -0.2 0.2H11v5.25h2.56L18 529v-5.59l2 2v0.02c0 0 0.01-0.01 0.01-0.01l1.09 1.09c-0.34 0.24-0.71 0.44-1.1 0.6v1.58c0.8-0.24 1.52-0.62 2.17-1.1l1.13 1.13 1.41-1.41 -0.01-0.01L24.7 527.3zM18 515l-1.4 1.38L18 517.77V515z" fill="#768D99"/>
  <path d="M18 565c1.11 0 2-0.9 2-2h-4C16 564.1 16.9 565 18 565zM22 559.63v-3c0-1.86-1.28-3.41-3-3.86V552c0-0.55-0.45-1-1-1s-1 0.45-1 1v0.77c-1.72 0.45-3 2-3 3.86v3l-2 2h12L22 559.63z" fill="#768D99"/>
  <path d="M22 592.63c0-1.86-1.28-3.41-3-3.86V588c0-0.55-0.45-1-1-1s-1 0.45-1 1v0.77c-0.01 0-0.02 0.01-0.03 0.01L22 593.81V592.63zM18 601c1.11 0 2-0.9 2-2h-4C16 600.1 16.9 601 18 601zM24.99 599.59l-0.01 0.01 -12.59-12.6L11 588.4l3.16 3.16c-0.09 0.34-0.16 0.69-0.16 1.06v3l-2 2h8.22L23.6 601 25 599.6 24.99 599.59z" fill="#768D99"/>
  <path d="M24 628c-1.1 0-2 0.9-2 2s0.9 2 2 2 2-0.9 2-2S25.1 628 24 628zM12 628c-1.1 0-2 0.9-2 2s0.9 2 2 2 2-0.9 2-2S13.1 628 12 628zM18 628c-1.1 0-2 0.9-2 2s0.9 2 2 2 2-0.9 2-2S19.1 628 18 628z" fill="#768D99"/>
  <path d="M24.14 667.97L18 662l-6.14 5.97c-0.48 0.46-0.48 1.22 0 1.68 0.48 0.46 1.25 0.46 1.73 0L18 665.36l4.42 4.3c0.48 0.46 1.25 0.46 1.73 0S24.62 668.44 24.14 667.97z" fill="#768D99"/>
  <path d="M11.86 700.03L18 706l6.14-5.97c0.48-0.46 0.48-1.22 0-1.68 -0.48-0.46-1.25-0.46-1.73 0L18 702.64l-4.42-4.3c-0.48-0.46-1.25-0.46-1.73 0S11.38 699.56 11.86 700.03z" fill="#768D99"/>
  <path d="M18 729c-4.97 0-9 4.03-9 9 0 4.97 4.03 9 9 9 4.97 0 9-4.03 9-9C27 733.03 22.97 729 18 729zM19 743h-2v-6h2V743zM19 735h-2v-2h2V735z" fill="#ACBBC2"/>
  <rect x="17" y="811" width="2" height="2" fill="#ACBBC2"/>
  <rect x="13" y="811" width="2" height="2" fill="#ACBBC2"/>
  <rect x="13" y="807" width="2" height="2" fill="#ACBBC2"/>
  <rect x="21" y="807" width="2" height="2" fill="#ACBBC2"/>
  <rect x="21" y="811" width="2" height="2" fill="#ACBBC2"/>
  <rect x="17" y="807" width="2" height="2" fill="#ACBBC2"/>
  <path d="M19 783v-2h2v2H19zM19 777h2v2h-2V777zM19 773h2v2h-2V773zM19 769h2v2h-2V769zM19 765h2v2h-2V765zM15 781h2v2h-2V781zM15 777h2v2h-2V777zM15 773h2v2h-2V773zM15 769h2v2h-2V769zM15 765h2v2h-2V765z" fill="#ACBBC2"/>
  <path d="M23.77 841.74c-0.31-0.32-0.81-0.32-1.12 0l-6.51 6.78 -2.79-2.9c-0.31-0.32-0.81-0.32-1.12 0 -0.31 0.32-0.31 0.84 0 1.16l3.35 3.49c0.31 0.32 0.81 0.32 1.12 0l7.07-7.36C24.08 842.58 24.08 842.06 23.77 841.74z" fill="#768D99"/>
  <path d="M57.02 876.4c0.68-0.51 1.02-1.3 1.02-2.37 0-1.05-0.34-1.84-1.02-2.36 -0.68-0.52-1.71-0.78-3.1-0.78h-4.2v6.29h4.21C55.31 877.18 56.34 876.92 57.02 876.4z" fill="#D40000"/>
  <path d="M54.27 879.47h-4.56v7.64h4.56c1.53 0 2.66-0.31 3.4-0.94 0.73-0.63 1.1-1.59 1.1-2.89 0-1.3-0.37-2.27-1.1-2.88C56.93 879.78 55.8 879.47 54.27 879.47z" fill="#D40000"/>
  <path d="M76.08 876.4c0.68-0.51 1.02-1.3 1.02-2.37 0-1.05-0.34-1.84-1.02-2.36 -0.68-0.52-1.71-0.78-3.1-0.78h-4.2v6.29h4.2C74.36 877.18 75.4 876.92 76.08 876.4z" fill="#D40000"/>
  <polygon points="30.28 881.73 37.99 881.73 34.13 871.35 " fill="#D40000"/>
  <path d="M0 864v30h114v-30H0zM21.68 889.43H4.55v-2.15l13.27-16.33H4.87v-2.37H21.36v2.15L8.09 887.05h13.59V889.43zM40.79 889.43l-1.91-5.35H29.42l-1.91 5.35h-2.99l8.01-20.85h3.22l8 20.85H40.79zM59.85 887.91c-1.27 1.01-3.09 1.52-5.44 1.52H46.88v-20.85h7.25c2.16 0 3.83 0.45 5 1.34 1.17 0.89 1.76 2.17 1.76 3.81 0 1.27-0.3 2.29-0.9 3.05 -0.6 0.75-1.48 1.22-2.64 1.41 1.4 0.3 2.48 0.92 3.26 1.86 0.77 0.95 1.16 2.13 1.16 3.54C61.76 885.45 61.13 886.89 59.85 887.91zM78.91 887.91c-1.27 1.01-3.09 1.52-5.44 1.52h-7.53v-20.85h7.25c2.16 0 3.83 0.45 5 1.34 1.17 0.89 1.76 2.17 1.76 3.81 0 1.27-0.3 2.29-0.9 3.05 -0.6 0.75-1.48 1.22-2.64 1.41 1.4 0.3 2.48 0.92 3.25 1.86 0.78 0.95 1.16 2.13 1.16 3.54C80.82 885.45 80.18 886.89 78.91 887.91zM88.16 889.43h-2.84v-20.85h2.84V889.43zM106.33 889.43l-5.75-8.73 -5.8 8.73h-3.02l7.32-11.01 -6.49-9.85h3.12l4.94 7.49 4.98-7.49h3.02l-6.5 9.77 7.31 11.09H106.33z" fill="#D40000"/>
  <path d="M73.33 879.47h-4.55v7.64h4.56c1.53 0 2.66-0.31 3.4-0.94 0.73-0.63 1.1-1.59 1.1-2.89 0-1.3-0.37-2.27-1.1-2.88C75.99 879.78 74.86 879.47 73.33 879.47z" fill="#D40000"/>
  <polygon points="108.64 868.57 105.63 868.57 100.65 876.06 95.71 868.57 92.59 868.57 99.08 878.42 91.76 889.43 94.77 889.43 100.58 880.7 106.33 889.43 109.45 889.43 102.15 878.34 " fill="#FFF"/>
  <polygon points="21.36 870.72 21.36 868.57 4.87 868.57 4.87 870.95 17.82 870.95 4.55 887.28 4.55 889.43 21.68 889.43 21.68 887.05 8.09 887.05 " fill="#FFF"/>
  <path d="M32.53 868.57l-8.01 20.85h2.99l1.91-5.35h9.46l1.91 5.35h2.95l-8-20.85H32.53zM30.28 881.73l3.85-10.38 3.86 10.38H30.28z" fill="#FFF"/>
  <path d="M57.35 878.18c1.16-0.19 2.04-0.66 2.64-1.41 0.6-0.76 0.9-1.77 0.9-3.05 0-1.65-0.59-2.92-1.76-3.81 -1.17-0.89-2.84-1.34-5-1.34H46.88v20.85h7.53c2.35 0 4.17-0.51 5.44-1.52 1.28-1.02 1.91-2.45 1.91-4.32 0-1.42-0.38-2.6-1.16-3.54C59.83 879.1 58.75 878.48 57.35 878.18zM49.72 870.89h4.21c1.39 0 2.42 0.26 3.1 0.78 0.68 0.52 1.02 1.31 1.02 2.36 0 1.06-0.34 1.85-1.02 2.37 -0.68 0.52-1.71 0.78-3.1 0.78h-4.2V870.89zM57.67 886.17c-0.73 0.63-1.87 0.94-3.39 0.94h-4.56v-7.64h4.56c1.53 0 2.66 0.31 3.4 0.93 0.73 0.62 1.1 1.58 1.1 2.89C58.77 884.57 58.4 885.54 57.67 886.17z" fill="#FFF"/>
  <rect x="85.33" y="868.57" width="2.84" height="20.85" fill="#FFF"/>
  <path d="M76.41 878.18c1.16-0.19 2.04-0.66 2.64-1.41 0.6-0.76 0.9-1.77 0.9-3.05 0-1.65-0.59-2.92-1.76-3.81 -1.17-0.89-2.84-1.34-5-1.34h-7.25v20.85h7.53c2.35 0 4.17-0.51 5.44-1.52 1.27-1.02 1.91-2.45 1.91-4.32 0-1.42-0.38-2.6-1.16-3.54C78.89 879.1 77.8 878.48 76.41 878.18zM68.77 870.89h4.2c1.39 0 2.42 0.26 3.1 0.78 0.68 0.52 1.02 1.31 1.02 2.36 0 1.06-0.34 1.85-1.02 2.37 -0.68 0.52-1.71 0.78-3.1 0.78h-4.2V870.89zM76.72 886.17c-0.74 0.63-1.87 0.94-3.4 0.94h-4.55v-7.64h4.56c1.53 0 2.66 0.31 3.4 0.93 0.73 0.62 1.1 1.58 1.1 2.89C77.83 884.57 77.46 885.54 76.72 886.17z" fill="#FFF"/>
  <path d="M23 84H13C12.45 84 12 84.45 12 85v10c0 0.55 0.45 1 1 1h10c0.55 0 1-0.45 1-1V85C24 84.45 23.55 84 23 84zM21.02 93.82h-6.03v-1.23l3.54-4.81h-3.33V86.18h5.7v1.35l-3.44 4.69h3.57V93.82z" fill="#3C5563"/>
  <polygon points="25 227 19.63 227 21.63 229.01 19 231.64 20.36 233 22.99 230.37 25 232.37 " fill="#FFF"/>
  <polygon points="15.64 235 13.01 237.63 11 235.63 11 241 16.37 241 14.37 239 17 236.36 " fill="#FFF"/>
  <polygon points="25 264.36 23.64 263 21.01 265.63 19 263.63 19 269 24.37 269 22.37 267 " fill="#FFF"/>
  <polygon points="13.63 273.01 11 275.64 12.36 277 14.99 274.37 17 276.37 17 271 11.63 271 " fill="#FFF"/>
  <path d="M22.35 158.06l-1.06 1.06c0.74 0.79 1.21 1.82 1.21 2.98 0 2.44-2.02 4.42-4.5 4.42s-4.5-1.98-4.5-4.42c0-1.16 0.47-2.19 1.21-2.98l-1.06-1.06c-1.02 1.05-1.65 2.47-1.65 4.04 0 3.26 2.69 5.9 6 5.9 3.31 0 6-2.64 6-5.9C24 160.54 23.37 159.12 22.35 158.06zM19 156h-2v6h2V156z" fill="#3C5563"/>
  <path d="M96.39 56.56c-0.06-0.13-0.12-0.29-0.18-0.48 -0.06-0.19-0.09-0.4-0.09-0.63 0-0.28 0.07-0.53 0.21-0.76 0.14-0.23 0.32-0.45 0.54-0.66 0.21-0.21 0.45-0.42 0.69-0.63 0.25-0.21 0.48-0.45 0.69-0.73 0.22-0.27 0.39-0.57 0.54-0.9C98.93 51.45 99 51.08 99 50.66c0-0.44-0.08-0.82-0.25-1.15 -0.17-0.33-0.4-0.61-0.69-0.83 -0.29-0.22-0.64-0.39-1.03-0.51C96.63 48.06 96.22 48 95.78 48c-0.96 0-1.88 0.26-2.77 0.78v1.88c0.74-0.72 1.51-1.08 2.32-1.08 0.25 0 0.49 0.03 0.71 0.09 0.22 0.06 0.42 0.15 0.59 0.27 0.17 0.12 0.31 0.28 0.41 0.46 0.1 0.18 0.15 0.4 0.15 0.64 0 0.27-0.07 0.52-0.2 0.75 -0.13 0.23-0.3 0.44-0.5 0.65 -0.2 0.21-0.41 0.42-0.64 0.63 -0.23 0.22-0.45 0.44-0.64 0.68 -0.2 0.23-0.36 0.48-0.5 0.75 -0.13 0.27-0.2 0.57-0.2 0.9 0 0.21 0.02 0.43 0.06 0.64 0.04 0.22 0.08 0.4 0.13 0.53H96.39zM96.41 59.68c0.23-0.21 0.34-0.46 0.34-0.76 0-0.31-0.11-0.56-0.34-0.76 -0.23-0.22-0.51-0.32-0.82-0.32 -0.32 0-0.59 0.11-0.82 0.33 -0.23 0.2-0.34 0.46-0.34 0.76 0 0.3 0.11 0.56 0.34 0.77C95.01 59.9 95.29 60 95.6 60 95.9 60 96.17 59.9 96.41 59.68L96.41 59.68z" fill="#FFF"/>
  <path d="M96 128c-2.28 0-4.36 0.8-6 2.14V132h12v-1.86C100.36 128.8 98.28 128 96 128zM96 126c1.66 0 3-1.34 3-3 0-1.66-1.34-3-3-3 -1.66 0-3 1.34-3 3C93 124.66 94.34 126 96 126z" fill="#FFF"/>
  <path d="M101 84H91C90.45 84 90 84.45 90 85v10c0 0.55 0.45 1 1 1h10c0.55 0 1-0.45 1-1V85C102 84.45 101.55 84 101 84zM99.02 93.82h-6.03v-1.23l3.54-4.81h-3.33V86.18h5.7v1.35l-3.44 4.69h3.57V93.82z" fill="#FFF"/>
  <path d="M100.35 158.06l-1.06 1.06c0.74 0.79 1.21 1.82 1.21 2.98 0 2.44-2.02 4.42-4.5 4.42s-4.5-1.98-4.5-4.42c0-1.16 0.47-2.19 1.21-2.98l-1.06-1.06c-1.02 1.05-1.65 2.47-1.65 4.04 0 3.26 2.69 5.9 6 5.9 3.31 0 6-2.64 6-5.9C102 160.54 101.37 159.12 100.35 158.06zM97 156h-2v6h2V156z" fill="#FFF"/>
  <path d="M22.76 452.13c-0.82 1.83-2.62 3.13-4.76 3.13 -2.9 0-5.25-2.35-5.25-5.25 0-2.9 2.35-5.25 5.25-5.25 1.45 0 2.75 0.6 3.69 1.56l0 0 -2.82 2.82L25 449.13V443l-2.06 2.06c0 0-0.01 0.01-0.02 0.01C21.66 443.8 19.93 443 18 443c-3.86 0-7 3.14-7 7 0 3.87 3.14 7 7 7 3.12 0 5.74-2.05 6.64-4.87H22.76z" fill="#FFF"/>
  <path d="M61.5 837h-15c-0.83 0-1.5 0.67-1.5 1.5v15c0 0.83 0.67 1.5 1.5 1.5h15c0.83 0 1.5-0.67 1.5-1.5v-15C63 837.67 62.33 837 61.5 837zM61 853H47v-12h14V853zM51 844h-2v2h2V844zM59 844h-2v2h2V844zM55 844h-2v2h2V844zM55 848h-2v2h2V848zM51 848h-2v2h2V848zM59 848h-2v2h2V848z" fill="#ACBBC2"/>
  <path d="M58.79 807.22l-2.19 2.19 -2.01-2.01 2.19-2.18c-1.21-0.45-2.62-0.19-3.59 0.78 -1.02 1.02-1.25 2.52-0.71 3.77L49 813.23 50.77 815l3.48-3.48c1.25 0.54 2.74 0.3 3.76-0.71C58.98 809.84 59.23 808.43 58.79 807.22z" fill="#F3A914"/>
  <path d="M55 777v-5.21c0.88-0.39 1.5-1.26 1.5-2.29 0-1.38-1.12-2.5-2.5-2.5 -1.38 0-2.5 1.12-2.5 2.5 0 1.02 0.62 1.9 1.5 2.29V777h-3l4 4 4-4H55z" fill="#768D99"/>
  <path d="M53 735v5.21c-0.88 0.39-1.5 1.26-1.5 2.29 0 1.38 1.12 2.5 2.5 2.5 1.38 0 2.5-1.12 2.5-2.5 0-1.02-0.62-1.9-1.5-2.29V735h3l-4-4 -4 4H53z" fill="#768D99"/>
  <path d="M61.68 695.71c-0.42-0.45-1.11-0.45-1.53 0l-8.45 8.91 -3.84-4.05c-0.42-0.45-1.11-0.45-1.53 0 -0.42 0.45-0.43 1.17 0 1.62l4.6 4.86c0.21 0.22 0.49 0.33 0.77 0.33 0.28 0 0.56-0.11 0.77-0.33l9.21-9.71C62.11 696.88 62.11 696.16 61.68 695.71z" fill="#768D99"/>
  <path d="M98.91 19.85l-0.26 0.27 -0.73-0.73c1.49-1.77 1.43-4.4-0.24-6.07 -1.76-1.76-4.61-1.76-6.36 0 -1.76 1.76-1.75 4.6 0 6.36 1.67 1.67 4.31 1.74 6.07 0.24l0.73 0.73 -0.27 0.27L100.94 24l1.06-1.06L98.91 19.85zM92.38 18.62c-1.17-1.17-1.17-3.07 0-4.24 1.17-1.17 3.07-1.17 4.24 0s1.17 3.07 0 4.24C95.45 19.79 93.55 19.79 92.38 18.62z" fill="#FFF"/>
</svg>
