<svg width="24" height="24" viewBox="0 0 24 24" xmlns="http://www.w3.org/2000/svg"><path fill-rule="evenodd" clip-rule="evenodd" d="M12 2.5C11.6504 2.5 11.3151 2.63888 11.0679 2.88609C10.8207 3.13329 10.6818 3.46858 10.6818 3.81818V3.97273L10.6818 3.97472C10.6803 4.36477 10.5647 4.74584 10.3493 5.07104C10.134 5.39624 9.8282 5.65137 9.46969 5.80502C9.41566 5.82818 9.35804 5.8416 9.29948 5.84474C8.96139 5.97212 8.59438 6.00578 8.23753 5.94107C7.84433 5.86978 7.48149 5.68232 7.19582 5.40289L7.19188 5.39903L7.13736 5.34446C7.01493 5.2219 6.86936 5.12448 6.70933 5.05814C6.54931 4.99181 6.37778 4.95766 6.20455 4.95766C6.03132 4.95766 5.85979 4.99181 5.69976 5.05814C5.53974 5.12448 5.39436 5.22171 5.27193 5.34427C5.14937 5.46669 5.05175 5.61246 4.98541 5.77249C4.91908 5.93251 4.88493 6.10404 4.88493 6.27727C4.88493 6.4505 4.91908 6.62203 4.98541 6.78206C5.05175 6.94208 5.14898 7.08746 5.27154 7.20989L5.33018 7.26853C5.60962 7.5542 5.79705 7.91705 5.86835 8.31026C5.9387 8.69828 5.89276 9.09832 5.73648 9.46013C5.59693 9.83052 5.35055 10.1513 5.02842 10.3817C4.702 10.6152 4.3129 10.745 3.91169 10.7544L3.9 10.7547L3.81818 10.7545C3.46858 10.7545 3.13329 10.8934 2.88609 11.1406C2.63888 11.3878 2.5 11.7231 2.5 12.0727C2.5 12.4223 2.63888 12.7576 2.88609 13.0048C3.13329 13.252 3.46858 13.3909 3.81818 13.3909H3.97472C4.36477 13.3925 4.74584 13.508 5.07104 13.7234C5.39551 13.9383 5.65022 14.2431 5.80398 14.6006C5.96446 14.9656 6.01221 15.3702 5.94107 15.7625C5.86978 16.1557 5.68232 16.5185 5.40289 16.8042L5.39903 16.8081L5.34446 16.8626C5.2219 16.9851 5.12448 17.1306 5.05814 17.2907C4.99181 17.4507 4.95766 17.6222 4.95766 17.7955C4.95766 17.9687 4.99181 18.1402 5.05814 18.3002C5.12448 18.4603 5.22171 18.6056 5.34427 18.7281C5.46669 18.8506 5.61246 18.9482 5.77249 19.0146C5.93251 19.0809 6.10404 19.1151 6.27727 19.1151C6.4505 19.1151 6.62203 19.0809 6.78206 19.0146C6.94208 18.9482 7.08746 18.851 7.20989 18.7285L7.26853 18.6698C7.5542 18.3904 7.91705 18.2029 8.31026 18.1317C8.69828 18.0613 9.09832 18.1072 9.46012 18.2635C9.83052 18.4031 10.1513 18.6494 10.3817 18.9716C10.6152 19.298 10.745 19.6871 10.7544 20.0883L10.7547 20.1L10.7545 20.1818C10.7545 20.5314 10.8934 20.8667 11.1406 21.1139C11.3878 21.3611 11.7231 21.5 12.0727 21.5C12.4223 21.5 12.7576 21.3611 13.0048 21.1139C13.252 20.8667 13.3909 20.5314 13.3909 20.1818V20.0273L13.3909 20.0253C13.3925 19.6352 13.508 19.2542 13.7234 18.929C13.9383 18.6045 14.2431 18.3498 14.6006 18.196C14.9655 18.0355 15.3701 17.9878 15.7625 18.0589C16.1557 18.1302 16.5185 18.3177 16.8042 18.5971L16.8081 18.601L16.8626 18.6555C16.9851 18.7781 17.1306 18.8755 17.2907 18.9419C17.4507 19.0082 17.6222 19.0423 17.7955 19.0423C17.9687 19.0423 18.1402 19.0082 18.3002 18.9419C18.4603 18.8755 18.6056 18.7783 18.7281 18.6557C18.8506 18.5333 18.9482 18.3875 19.0146 18.2275C19.0809 18.0675 19.1151 17.896 19.1151 17.7227C19.1151 17.5495 19.0809 17.378 19.0146 17.2179C18.9482 17.0579 18.851 16.9125 18.7285 16.7901L18.6698 16.7315C18.3904 16.4458 18.2029 16.0829 18.1317 15.6897C18.0605 15.2974 18.1083 14.8928 18.2688 14.5278C18.4225 14.1704 18.6772 13.8655 19.0017 13.6507C19.3269 13.4353 19.708 13.3197 20.098 13.3182L20.1 13.3182L20.1818 13.3182C20.5314 13.3182 20.8667 13.1793 21.1139 12.9321C21.3611 12.6849 21.5 12.3496 21.5 12C21.5 11.6504 21.3611 11.3151 21.1139 11.0679C20.8667 10.8207 20.5314 10.6818 20.1818 10.6818H20.0273L20.0253 10.6818C19.6352 10.6803 19.2542 10.5647 18.929 10.3493C18.6038 10.134 18.3486 9.8282 18.195 9.46969C18.1718 9.41566 18.1584 9.35804 18.1553 9.29948C18.0279 8.96139 17.9942 8.59438 18.0589 8.23753C18.1302 7.84433 18.3177 7.48149 18.5971 7.19582L18.601 7.19188L18.6555 7.13736C18.7781 7.01493 18.8755 6.86935 18.9419 6.70933C19.0082 6.54931 19.0423 6.37778 19.0423 6.20455C19.0423 6.03131 19.0082 5.85978 18.9419 5.69976C18.8755 5.53974 18.7783 5.39436 18.6557 5.27193C18.5333 5.14937 18.3875 5.05175 18.2275 4.98541C18.0675 4.91908 17.896 4.88493 17.7227 4.88493C17.5495 4.88493 17.378 4.91908 17.2179 4.98541C17.0579 5.05175 16.9125 5.14898 16.7901 5.27154L16.7315 5.33018C16.4458 5.60962 16.0829 5.79705 15.6897 5.86835C15.2974 5.93948 14.8928 5.89173 14.5279 5.73125C14.1704 5.57749 13.8656 5.32278 13.6507 4.99832C13.4353 4.67312 13.3197 4.29204 13.3182 3.90199L13.3182 3.9V3.81818C13.3182 3.46858 13.1793 3.13329 12.9321 2.88609C12.6849 2.63888 12.3496 2.5 12 2.5ZM10.3608 2.17898C10.7955 1.74424 11.3852 1.5 12 1.5C12.6148 1.5 13.2045 1.74424 13.6392 2.17898C14.0739 2.61372 14.3182 3.20336 14.3182 3.81818V3.89887C14.3191 4.09359 14.3769 4.28381 14.4844 4.44617C14.5921 4.60877 14.745 4.73633 14.9242 4.81316L14.9292 4.81527C15.112 4.89595 15.3147 4.92004 15.5113 4.88439C15.7071 4.84889 15.8878 4.75579 16.0304 4.61703L16.0826 4.56483C16.2979 4.34929 16.5536 4.1783 16.835 4.06164C17.1164 3.94498 17.4181 3.88493 17.7227 3.88493C18.0274 3.88493 18.329 3.94498 18.6105 4.06164C18.8917 4.17823 19.1472 4.34908 19.3624 4.56443C19.578 4.77973 19.749 5.0354 19.8656 5.31682C19.9823 5.59824 20.0423 5.8999 20.0423 6.20455C20.0423 6.50919 19.9823 6.81085 19.8656 7.09227C19.749 7.37369 19.578 7.62936 19.3624 7.84466L19.3103 7.89684C19.1715 8.0394 19.0784 8.22014 19.0429 8.41594C19.0072 8.61255 19.0313 8.81532 19.112 8.99812C19.134 9.04811 19.1477 9.10128 19.1526 9.15551C19.2305 9.30039 19.3432 9.42424 19.4811 9.51558C19.6435 9.6231 19.8337 9.68087 20.0284 9.68182H20.1818C20.7966 9.68182 21.3863 9.92605 21.821 10.3608C22.2558 10.7955 22.5 11.3852 22.5 12C22.5 12.6148 22.2558 13.2045 21.821 13.6392C21.3863 14.0739 20.7966 14.3182 20.1818 14.3182H20.1011C19.9064 14.3191 19.7162 14.3769 19.5538 14.4844C19.3912 14.5921 19.2637 14.745 19.1868 14.9242L19.1847 14.9292C19.1041 15.112 19.08 15.3147 19.1156 15.5113C19.1511 15.7071 19.2442 15.8878 19.3829 16.0304L19.4352 16.0826C19.6507 16.2979 19.8217 16.5536 19.9384 16.835C20.055 17.1164 20.1151 17.4181 20.1151 17.7227C20.1151 18.0274 20.055 18.329 19.9384 18.6105C19.8217 18.8918 19.6508 19.1474 19.4354 19.3626C19.2201 19.5781 18.9645 19.749 18.6832 19.8656C18.4018 19.9823 18.1001 20.0423 17.7955 20.0423C17.4908 20.0423 17.1892 19.9823 16.9077 19.8656C16.6263 19.749 16.3706 19.578 16.1553 19.3624L16.1031 19.3102C15.9606 19.1715 15.7798 19.0784 15.5841 19.0429C15.3875 19.0072 15.1847 19.0313 15.0019 19.112L14.997 19.1141C14.8177 19.191 14.6648 19.3185 14.5572 19.4811C14.4496 19.6435 14.3919 19.8337 14.3909 20.0284V20.1818C14.3909 20.7966 14.1467 21.3863 13.7119 21.821C13.2772 22.2558 12.6875 22.5 12.0727 22.5C11.4579 22.5 10.8683 22.2558 10.4335 21.821C9.99878 21.3863 9.75455 20.7966 9.75455 20.1818V20.1064C9.74885 19.9077 9.68404 19.7151 9.56833 19.5533C9.45159 19.3901 9.28846 19.2658 9.10014 19.1965C9.09025 19.1929 9.08048 19.189 9.07084 19.1847C8.88805 19.104 8.68527 19.08 8.48867 19.1156C8.29288 19.1511 8.11215 19.2442 7.96959 19.383L7.91739 19.4352C7.70209 19.6507 7.44642 19.8217 7.165 19.9384C6.88357 20.055 6.58192 20.1151 6.27727 20.1151C5.97263 20.1151 5.67097 20.055 5.38955 19.9384C5.10813 19.8217 4.85246 19.6507 4.63716 19.4352C4.42181 19.22 4.25096 18.9644 4.13437 18.6832C4.01771 18.4018 3.95766 18.1001 3.95766 17.7955C3.95766 17.4908 4.01771 17.1892 4.13437 16.9077C4.25103 16.6263 4.42202 16.3706 4.63755 16.1553L4.68976 16.1031C4.82852 15.9606 4.92162 15.7798 4.95712 15.5841C4.99276 15.3875 4.9687 15.1847 4.88802 15.0019L4.88586 14.997C4.80903 14.8177 4.68149 14.6648 4.51889 14.5572C4.35653 14.4496 4.16632 14.3919 3.9716 14.3909H3.81818C3.20336 14.3909 2.61372 14.1467 2.17898 13.7119C1.74424 13.2772 1.5 12.6875 1.5 12.0727C1.5 11.4579 1.74424 10.8683 2.17898 10.4335C2.61372 9.99878 3.20336 9.75455 3.81818 9.75455H3.89357C4.09231 9.74885 4.28489 9.68404 4.44667 9.56833C4.60988 9.45159 4.7342 9.28846 4.80346 9.10014C4.8071 9.09025 4.81104 9.08048 4.8153 9.07084C4.89597 8.88805 4.92004 8.68527 4.88439 8.48867C4.84889 8.29288 4.75579 8.11215 4.61702 7.96958L4.56483 7.91739C4.34929 7.70209 4.1783 7.44642 4.06164 7.165C3.94498 6.88358 3.88493 6.58192 3.88493 6.27727C3.88493 5.97263 3.94498 5.67097 4.06164 5.38955C4.17827 5.10821 4.34918 4.85261 4.56463 4.63736C4.77988 4.42191 5.03548 4.25099 5.31682 4.13437C5.59824 4.01771 5.8999 3.95766 6.20455 3.95766C6.50919 3.95766 6.81085 4.01771 7.09227 4.13437C7.37369 4.25103 7.62936 4.42202 7.84466 4.63755L7.89686 4.68975C8.03942 4.82852 8.22015 4.92162 8.41594 4.95712C8.61255 4.99276 8.81532 4.9687 8.99812 4.88802C9.04811 4.86596 9.10129 4.85228 9.15552 4.84744C9.3004 4.76951 9.42424 4.65681 9.51558 4.51889C9.6231 4.35653 9.68087 4.16632 9.68182 3.9716V3.81818C9.68182 3.20336 9.92605 2.61372 10.3608 2.17898ZM12 9.5C10.6193 9.5 9.5 10.6193 9.5 12C9.5 13.3807 10.6193 14.5 12 14.5C13.3807 14.5 14.5 13.3807 14.5 12C14.5 10.6193 13.3807 9.5 12 9.5ZM8.5 12C8.5 10.067 10.067 8.5 12 8.5C13.933 8.5 15.5 10.067 15.5 12C15.5 13.933 13.933 15.5 12 15.5C10.067 15.5 8.5 13.933 8.5 12Z" fill="#1F2C33"/></svg>
