<svg fill="none" version="1.1" viewBox="0 0 24 24" xmlns="http://www.w3.org/2000/svg">
 <path d="m7.6428 3.9038c1.219-1.219 2.8723-1.9038 4.5962-1.9038s3.3772 0.68482 4.5962 1.9038c1.219 1.219 1.9038 2.8723 1.9038 4.5962 0 3.0014 0.7558 5.0249 1.5749 6.3413l0.0062 0.01c0.3621 0.5818 0.641 1.03 0.8271 1.353 0.0932 0.1617 0.1705 0.3045 0.2247 0.4239 0.0271 0.0596 0.0531 0.1235 0.0722 0.1878 0.0168 0.0562 0.0411 0.1535 0.0319 0.2655-0.0093 0.114-0.0299 0.2624-0.1119 0.41-0.0821 0.1476-0.1971 0.2435-0.289 0.3117-0.1437 0.1066-0.3211 0.1362-0.4134 0.1499-0.1204 0.0178-0.2664 0.0279-0.4297 0.0342-0.3254 0.0127-0.7816 0.0127-1.3687 0.0127h-13.249c-0.5871 0-1.0433 0-1.3688-0.0127-0.16329-0.0063-0.30923-0.0164-0.42964-0.0342-0.09232-0.0137-0.26975-0.0433-0.41347-0.1499-0.09185-0.0682-0.20691-0.1641-0.28892-0.3117-0.08202-0.1476-0.10266-0.296-0.11198-0.41-0.00917-0.112 0.01517-0.2093 0.03191-0.2655 0.01914-0.0643 0.04517-0.1282 0.07224-0.1878 0.05419-0.1194 0.13145-0.2622 0.22465-0.4239 0.18618-0.323 0.4651-0.7712 0.82719-1.3532l0.00616-0.0098c0.81909-1.3164 1.5749-3.3399 1.5749-6.3413 0-1.7239 0.68482-3.3772 1.9038-4.5962zm4.5962-0.90381c-1.4587 0-2.8576 0.57946-3.8891 1.6109s-1.6109 2.4304-1.6109 3.8891c0 3.1789-0.80329 5.387-1.7258 6.8696-0.36945 0.5937-0.63933 1.0276-0.816 1.3341-0.06493 0.1126-0.11336 0.2014-0.14793 0.2702 0.06054 0.0055 0.13802 0.0104 0.23568 0.0142 0.30347 0.0118 0.74006 0.0119 1.3429 0.0119h13.222c0.6028 0 1.0394-1e-4 1.3429-0.0119 0.0976-0.0038 0.1751-0.0087 0.2357-0.0142-0.0346-0.0688-0.083-0.1576-0.148-0.2702-0.1766-0.3065-0.4465-0.7404-0.816-1.3341-0.9225-1.4826-1.7258-3.6907-1.7258-6.8696 0-1.4587-0.5794-2.8576-1.6109-3.8891-1.0314-1.0314-2.4304-1.6109-3.8891-1.6109zm8.2467 14.102c1e-3 0.0032 6e-4 0.0026-4e-4 -0.0015zm-16.493-0.0016c-0.00103 0.0042-0.00146 0.0049-4.8e-4 0.0016 1.1e-4 -4e-4 2.7e-4 -9e-4 4.8e-4 -0.0016zm5.2255 3.0692c0.18274-0.207 0.49871-0.2267 0.70574-0.044 0.61733 0.5449 1.4269 0.8749 2.3149 0.8749s1.6977-0.33 2.315-0.8749c0.207-0.1827 0.523-0.163 0.7057 0.044 0.1828 0.2071 0.1631 0.523-0.044 0.7058-0.793 0.6999-1.8358 1.1251-2.9767 1.1251s-2.1837-0.4252-2.9767-1.1251c-0.20704-0.1828-0.22674-0.4987-0.04401-0.7058z" clip-rule="evenodd" fill="#1F2C33"/>
</svg>
