<svg width="6mm" height="6mm" viewBox="0 0 6 6" xmlns="http://www.w3.org/2000/svg"><path style="fill:#000;stroke-width:.294606" d="M1.0850636.6C.84171975.6.64315515.79885921.64315515 1.0419084V5.4C1.1430999 4.7106245 1.82591 4.1352674 2.1812036 4.1352674h2.7331572c.243345 0 .442484-.1994347.442484-.4424839V1.0419084C5.3568448.79856462 5.1579848.6 4.9149368.6Zm2.6715896.7376648c.063249-.00161.1268186.023467.1737713.074802.088676.096631.085042.2498579-.00805.3423639l-.54433.550084.0023.0023-.086311.085735.633517.6254614c.092507.093095.088578.2407483-.00805.3291299-.096631.088674-.2492827.084463-.3417887-.00863l-.5500838-.5443277-.0023.0023-.067322-.067898-.067322.067898-.0023-.0023-.5500924.5443304c-.092506.093097-.2457338.096733-.342364.00805-.09663-.088381-.1005649-.235459-.00806-.3285539l.6335212-.6260369-.085735-.085159.0023-.0023-.5443321-.5500838c-.093097-.092506-.097307-.2451581-.00863-.3417886.044191-.048315.1033285-.073329.1628387-.074802.05951-.00147.1197436.020493.1662911.066747l.6432989.6519271.6444498-.6519301c.043639-.043224.098975-.065901.1547831-.067322z"/></svg>