<svg width="6mm" height="6mm" viewBox="0 0 6 6" xmlns="http://www.w3.org/2000/svg"><path style="fill:#000;stroke-width:.3" d="M4.9497.6H1.05C.8024999.6.6.8024999.6 1.05V5.4c.5091-.702 1.2047999-1.2000001 1.5662999-1.2000001H4.9497c.2474999 0 .4503-.2024999.4503-.45V1.05C5.4.8024999 5.1971999.6 4.9497.6Zm-.7857001 1.2414L2.7453 3.3462c-.0927.096-.2427.096-.3351 0l-.5991-.6399001c-.0927-.0963-.0927-.2522999 0-.3482999.0924-.0963.2424-.0963.3348 0l.4317.4652999 1.2515999-1.3299c.0924-.0963.2427001-.0963.3348 0 .0927.0957.0927.2517001 0 .3480001z"/></svg>