<svg width="6mm" height="6mm" viewBox="0 0 6 6" xmlns="http://www.w3.org/2000/svg"><path d="M4.9497.6H1.05C.8025001.6.6.8024999.6 1.05V5.4c.5091-.702 1.2048-1.2000001 1.5663-1.2000001h2.7834c.2475 0 .4503-.2024999.4503-.45V1.05C5.4.8024999 5.1972.6 4.9497.6ZM1.7952 2.7c-.1656 0-.3-.1344-.3-.3s.1344-.3000001.3-.3000001S2.0952001 2.2344 2.0952001 2.4 1.9608 2.7 1.7952 2.7zm1.2 0c-.1656 0-.3-.1344-.3-.3s.1344-.3000001.3-.3000001S3.2952001 2.2344 3.2952001 2.4 3.1608 2.7 2.9952 2.7zm1.2000001 0c-.1656 0-.3000001-.1344-.3000001-.3s.1344001-.3000001.3000001-.3000001S4.4952 2.2344 4.4952 2.4s-.1343999.3-.2999999.3z" style="stroke-width:.3"/></svg>