<svg width="6mm" height="6mm" viewBox="0 0 6 6" xmlns="http://www.w3.org/2000/svg"><path d="M4.3714294 2.5285711c0-.6380574-.4385145-1.1698291-1.028572-1.3227435V.94285604c0-.1896001-.1532572-.34285733-.3428573-.34285733-.1896001 0-.3428574.15325723-.3428574.34285733v.26297156c-.00411.00103-.0072.00274-.011314.00377l1.7256011 1.7256019ZM3.0000001 5.4000013c.3788573 0 .6857146-.3072001.6857146-.6857146H2.3142855c0 .3785145.3072001.6857146.6857146.6857146zm2.3976013-.4824002-.0024.00275L1.0775989.60172008l-.47760025.47897172L1.6827422 2.1634352c-.032571.1169143-.054171.2376001-.054171.3648003v1.028222l-.68571515.6860575H3.7618291l1.1568006 1.1571434.4813716-.4800002Z" style="stroke-width:.342857"/></svg>