<svg width="6mm" height="6mm" viewBox="0 0 6 6" xmlns="http://www.w3.org/2000/svg"><path style="stroke-width:.299981" d="M1.4980998.59996338c-.1640896 0-.298173.13408344-.298173.29817301v.30179041H.59996338v3.8333577c0 .2015872.16479871.3663859.3663859.3663859H5.0332845c.2015872 0 .3669027-.1647987.3669027-.3663859V1.1999268H4.799707V.89813639c0-.16408957-.1340834-.29817301-.298173-.29817301h-.0036173c-.1640896 0-.298173.13408344-.298173.29817301v.30179041H3.300057V.89813639c0-.16408957-.1340834-.29817301-.298173-.29817301h-.0036174c-.1640896 0-.298173.13408344-.298173.29817301v.30179041h-.9002035V.89813639c0-.16408957-.1340834-.29817301-.298173-.29817301h-.0036173zM1.19941 1.7998901h3.5997803v2.7776083h.0005167c0 .1229921-.0997335.2222086-.2227254.2222086H1.4221354c-.1229923 0-.2227254-.0992167-.2227254-.2222086V1.7998901zm.4774902.7415568v.5291667h.5291667v-.5291667h-.5291667zm1.0583334 0v.5291667h.5291666v-.5291667h-.5291666zm1.0583333 0v.5291667h.5291667v-.5291667h-.5291667zM1.6769002 3.5997803v.5291666h.5291667v-.5291666h-.5291667zm1.0583334 0v.5291666h.5291666v-.5291666h-.5291666zm1.0583333 0v.5291666h.5291667v-.5291666h-.5291667z"/></svg>