<svg width="6mm" height="6mm" viewBox="0 0 6 6" xmlns="http://www.w3.org/2000/svg"><path d="M4.79973875 1.200113V.89833186c0-.16408974-.13409162-.29818136-.29818136-.29818136H4.4979576c-.16408974 0-.29818136.13409162-.29818136.29818136V1.200113H3.2998325V.89833186c0-.16408974-.13409162-.29818136-.29818136-.29818136h-.00359978c-.16408974 0-.29818136.13409162-.29818136.29818136V1.200113h-.89994375V.89833186c0-.16408974-.13409162-.29818136-.29818136-.29818136H1.4981451c-.16408974 0-.29818136.13409162-.29818136.29818136V1.200113h-.5999625v3.83316041c0 .2015874.16498969.36657709.36657709.36657709h4.0668458c.2015874 0 .3665771-.16498969.3665771-.36657709V1.200113Zm0 3.37718891c0 .12299232-.09959378.22258609-.22258609.22258609h-3.1549028c-.12299232 0-.2225861-.09959377-.2225861-.22258609V1.8000755h3.599775v2.77722641z"/><path d="M2.42088744 4.14322904c.0926942.095994.24268483.095994.33507905 0L4.17457782 2.6385231c.09239423-.09629398.09239423-.25228423 0-.34827823-.09239422-.09629398-.24238485-.09629398-.33477907 0L2.58827697 3.62006174l-.43137303-.46527092c-.09239423-.09629398-.24268483-.09629398-.33477908 0-.0926942.095994-.0926942.25198425 0 .34827824z"/></svg>