<svg width="6mm" height="6mm" viewBox="0 0 6 6" xmlns="http://www.w3.org/2000/svg"><g transform="translate(-134.39156 -85.194487) scale(.29998)"><path d="M464 288v-1.006c0-.547-.447-.994-.994-.994h-.012c-.547 0-.994.447-.994.994V288h-3v-1.006c0-.547-.447-.994-.994-.994h-.012c-.547 0-.994.447-.994.994V288h-3v-1.006c0-.547-.447-.994-.994-.994h-.012c-.547 0-.994.447-.994.994V288h-2v12.778c0 .672.55 1.222 1.222 1.222h13.557c.672 0 1.222-.55 1.222-1.222V288Zm0 11.258c0 .41-.332.742-.742.742h-10.517c-.41 0-.742-.332-.742-.742V290h12v9.258z"/><path d="M458 296c.552 0 1-.448 1-1v-3c0-.552-.448-1-1-1s-1 .448-1 1v3c0 .552.448 1 1 1z"/><circle cx="458" cy="298" r="1"/></g></svg>