<svg width="24" height="24" viewBox="0 0 6.35 6.35" xmlns="http://www.w3.org/2000/svg"><path d="M5.4969617 3.0459615a.264.264 0 0 1-.078.187l-1.87 1.871-.188.187-.187.187-.187-.187-.187-.187-1.87000003-1.871a.26410462.26410462 0 1 1 .37300003-.374l1.871 1.87 1.87-1.87a.264.264 0 0 1 .453.187zm0-1.886a.264.264 0 0 1-.078.187l-1.87 1.87-.188.187-.187.188-.187-.188-.187-.187-1.87000003-1.87A.265.265 0 1 1 1.3029617.97196146l1.871 1.87100004 1.87-1.87000004a.264.264 0 0 1 .454.18600004z" style="fill:#000;stroke-width:.264583;stroke-linecap:square;stroke-miterlimit:10"/></svg>