<svg xmlns="http://www.w3.org/2000/svg" width="24" height="24" viewBox="0 0 6.35 6.35"><path d="M3.303.852a.264.264 0 0 0-.187.078L1.245 2.8l-.187.188-.187.187.187.187.187.187 1.871 1.87a.264.264 0 1 0 .374-.373L1.62 3.175l1.87-1.87a.264.264 0 0 0-.187-.453zm1.886 0a.264.264 0 0 0-.187.078L3.132 2.8l-.187.188-.188.187.188.187.187.187 1.87 1.87a.265.265 0 1 0 .375-.373L3.506 3.175l1.87-1.87A.264.264 0 0 0 5.19.851z" style="fill:#000;stroke-width:.264583;stroke-linecap:square;stroke-miterlimit:10"/></svg>