<svg viewBox="0 0 16 16" xmlns="http://www.w3.org/2000/svg"><path d="m7.3536 2.6464c0.19527 0.19526 0.19527 0.51184 0 0.7071l-4.6464 4.6464 4.6464 4.6464c0.19527 0.1953 0.19527 0.5119 0 0.7072-0.19526 0.1952-0.51184 0.1952-0.7071 0l-5-5c-0.19527-0.19526-0.19527-0.51184 0-0.7071l5-5c0.19526-0.19527 0.51184-0.19527 0.7071 0zm7 0c0.1952 0.19526 0.1952 0.51184 0 0.7071l-4.6465 4.6464 4.6465 4.6464c0.1952 0.1953 0.1952 0.5119 0 0.7072-0.1953 0.1952-0.5119 0.1952-0.7072 0l-5-5c-0.19527-0.19526-0.19527-0.51184 0-0.7071l5-5c0.1953-0.19527 0.5119-0.19527 0.7072 0z" clip-rule="evenodd" fill="#1F2C33"/></svg>
