<svg viewBox="0 0 16 16" xmlns="http://www.w3.org/2000/svg"><path d="m1.6464 2.6464c0.19526-0.19527 0.51184-0.19527 0.7071 0l5 5c0.09377 0.09377 0.14645 0.22094 0.14645 0.35355s-0.05268 0.25979-0.14645 0.35355l-5 5c-0.19526 0.1952-0.51184 0.1952-0.7071 0-0.19527-0.1953-0.19527-0.5119 0-0.7072l4.6464-4.6464-4.6464-4.6464c-0.19526-0.19526-0.19526-0.51184 0-0.7071zm7 0c0.19526-0.19526 0.51184-0.19526 0.7071 0l5 5c0.1952 0.19526 0.1952 0.51184 0 0.7071l-5 5c-0.19526 0.1952-0.51184 0.1952-0.7071 0-0.19527-0.1953-0.19527-0.5119 0-0.7072l4.6464-4.6464-4.6464-4.6464c-0.19526-0.19526-0.19526-0.51184 0-0.7071z" clip-rule="evenodd" fill="#1F2C33"/></svg>
