<svg width="24" height="24" viewBox="0 0 6.35 6.35" xmlns="http://www.w3.org/2000/svg"><path d="M5.4969617 3.3145251a.264.264 0 0 0-.078-.187l-1.87-1.871-.188-.187-.187-.18700001-.187.18700001-.187.187-1.87000003 1.871a.26410463.26410463 0 1 0 .37300003.374l1.871-1.87 1.87 1.87a.264.264 0 0 0 .453-.187zm0 1.886a.264.264 0 0 0-.078-.187l-1.87-1.87-.188-.187-.187-.188-.187.188-.187.187-1.87000003 1.87a.265.265 0 1 0 .37300003.375l1.871-1.871 1.87 1.87a.264.264 0 0 0 .454-.186z" style="fill:#000;stroke-width:.264583;stroke-linecap:square;stroke-miterlimit:10"/></svg>