<svg width="24" height="24" viewBox="0 0 6.35 6.35" xmlns="http://www.w3.org/2000/svg"><path d="M3.0344367.852a.264.264 0 0 1 .187.078l1.871 1.87.187.188.187.187-.187.187-.187.187-1.871 1.87a.26410462.26410462 0 1 1-.374-.373l1.87-1.871-1.87-1.87a.264.264 0 0 1 .187-.453zm-1.886 0a.264.264 0 0 1 .187.078l1.87 1.87.187.188.188.187-.188.187-.187.187-1.87 1.87a.265.265 0 1 1-.37500004-.373L2.8314367 3.175.96143666 1.305A.264.264 0 0 1 1.1474367.851Z" style="fill:#000;stroke-width:.264583;stroke-linecap:square;stroke-miterlimit:10"/></svg>