<svg width="6mm" height="6mm" viewBox="0 0 6 6" xmlns="http://www.w3.org/2000/svg"><path style="fill:#000;stroke-width:.349999" d="M2.9998169.59996338c-1.3199987 0-2.39985352 1.07985482-2.39985352 2.39985352 0 1.3199988 1.07985482 2.4003703 2.39985352 2.4003703 1.3199988 0 2.4003703-1.0803715 2.4003703-2.4003703 0-1.3199987-1.0803715-2.39985352-2.4003703-2.39985352zm0 .48007402c1.055999 0 1.9202962.8637807 1.9202962 1.9197795 0 1.055999-.8642972 1.9202962-1.9202962 1.9202962-1.0559988 0-1.9197795-.8642972-1.9197795-1.9202962 0-1.0559988.8637807-1.9197795 1.9197795-1.9197795zm1.0712524.8190715L2.4804687 3.4897095 1.850533 2.859257l-.3772379.377238.9978719.9978719.0093017-.0093018.0098186.0093018 1.95802-1.9580201-.377238-.3772379z"/></svg>