<svg width="6mm" height="6mm" viewBox="0 0 6 6" xmlns="http://www.w3.org/2000/svg"><path style="fill:#000;stroke-width:.349999" d="M2.9998169.59996338c-1.3199974 0-2.39985352 1.07985612-2.39985352 2.39985352 0 1.3199975 1.07985612 2.4003703 2.39985352 2.4003703 1.3199975 0 2.4003703-1.0803728 2.4003703-2.4003703 0-1.3199974-1.0803728-2.39985352-2.4003703-2.39985352zm0 .48007402c1.0559979 0 1.9202962.8637818 1.9202962 1.9197795 0 1.0559979-.8642983 1.9202962-1.9202962 1.9202962-1.0559977 0-1.9197795-.8642983-1.9197795-1.9202962 0-1.0559977.8637818-1.9197795 1.9197795-1.9197795zm-.0599447.359668c-.2551997 0-.5021407.0696061-.7400065.2077393v.5017781c.1959998-.1925329.4015164-.2888712.6180502-.2888712.0669319 0 .129949.0080401.1886189.0237711.05867.016533.1109797.0403308.1565796.0728638.045865.0328.0818738.07319.1080038.1209228.0261399.049066.0387573.1057324.0387573.1705323 0 .0722669-.0174968.1386548-.0532267.1999878-.035729.0607999-.0802785.1181832-.1328085.173116-.0533329.054933-.1102125.111649-.1720825.1689819-.0615999.058133-.1187658.1177011-.1715657.179834-.052798.0618657-.0976085.1290214-.1328085.2010213-.0357399.0714658-.0532267.151262-.0532267.2392619 0 .057067.0045902.1134492.0149862.171049.01013.058132.02207.1055935.0351399.1415934h.4594035v-.0005167c-.01573-.0349335-.0320591-.0777567-.0480591-.1281576-.0157899-.0501339-.0242879-.106849-.0242879-.1689819 0-.0735999.0192441-.1407382.0568441-.2015381.037867-.0607998.085297-.119167.1426269-.1756999.057066-.0562669.1188717-.1127149.1850017-.1689819.0658669-.0562667.1271549-.1207198.1844848-.1937866.057337-.0733327.105027-.1531118.142627-.2397787.03733-.0866667.0568441-.1856897.0568441-.2966227 0-.1173329-.0228962-.2197247-.0676962-.3079915-.0453339-.0882664-.1068717-.1619753-.1850016-.2211751-.0781329-.0597335-.1698689-.1042087-.2744018-.1348755-.1047989-.029866-.2149304-.0454753-.3327963-.0454753zM2.876827 3.9816691c-.0777338.0033359-.1461387.0320674-.2046387.0868164-.0610699.053334-.0909505.1212053-.0909505.2036052 0 .0810659.0298806.1491889.0909505.2041219.0639999.0562669.1372117.0842325.2201416.0842325.0810659 0 .1538279-.0279666.2175578-.0842325.0610699-.054933.0909505-.1230551.0909505-.2041219 0-.0824-.0298806-.1500052-.0909505-.2036052-.0624009-.0583999-.1351579-.0868164-.2175578-.0868164-.0052666 0-.0103207-.0002224-.0155029 0z"/></svg>