<svg width="6mm" height="6mm" viewBox="0 0 6 6" xmlns="http://www.w3.org/2000/svg"><path style="stroke-width:.342857" d="M2.9998169.59996338c-1.3199987 0-2.39985352 1.07985482-2.39985352 2.39985352 0 1.3199988 1.07985482 2.4003703 2.39985352 2.4003703 1.3199988 0 2.4003703-1.0803715 2.4003703-2.4003703 0-1.3199987-1.0803715-2.39985352-2.4003703-2.39985352zm0 .48007402c1.055999 0 1.9202962.8637807 1.9202962 1.9197795 0 1.055999-.8642972 1.9202962-1.9202962 1.9202962-1.0559988 0-1.9197795-.8642972-1.9197795-1.9202962 0-1.0559988.8637807-1.9197795 1.9197795-1.9197795zm-.2666504.5865275v.5333008h.5333008v-.5333008h-.5333008zm0 1.0666016v1.6004191h.5333008V2.7331665h-.5333008z"/></svg>