<svg width="6mm" height="6mm" viewBox="0 0 6 6" xmlns="http://www.w3.org/2000/svg"><path style="stroke-width:.342857" d="M2.9998169 5.4001872c-1.3199987 0-2.39985352-1.0798548-2.39985352-2.3998535 0-1.3199988 1.07985482-2.40037032 2.39985352-2.40037032 1.3199988 0 2.4003703 1.08037152 2.4003703 2.40037032 0 1.3199987-1.0803715 2.3998535-2.4003703 2.3998535zm0-.480074c1.055999 0 1.9202962-.8637807 1.9202962-1.9197795 0-1.055999-.8642972-1.9202962-1.9202962-1.9202962-1.0559988 0-1.9197795.8642972-1.9197795 1.9202962 0 1.0559988.8637807 1.9197795 1.9197795 1.9197795zm-.2666504-.5865275v-.5333008h.5333008v.5333008zm0-1.0666016V1.666565h.5333008v1.6004191z"/></svg>