<svg width="6mm" height="6mm" viewBox="0 0 6 6" xmlns="http://www.w3.org/2000/svg"><path style="stroke-width:.266666" d="M2.9997416.59988809A2.4000001 2.4000001 0 0 0 .59988809 2.9997417 2.4000001 2.4000001 0 0 0 2.9997416 5.4001119a2.4000001 2.4000001 0 0 0 2.4003703-2.4003702A2.4000001 2.4000001 0 0 0 2.9997416.59988809Zm-.0599447.91673991c.1178665 0 .2279963.015609.3327963.045475.1045331.030667.1962686.075142.2744018.1348755.078133.0592.1396682.1329085.1850017.2211751.0448.088267.067696.1906585.067696.3079916 0 .1109332-.01951.2099558-.056844.2966227-.0376.086667-.085294.1664457-.142627.2397786-.057333.073067-.1186179.1375197-.1844848.1937866-.066133.056267-.1279347.112715-.1850016.168982-.057333.056533-.10476.1148999-.142627.1756999-.0376.0608-.056844.1279381-.056844.201538 0 .062133.00855.118848.024288.168982.016.050401.032326.093224.048059.1281575v.0005168h-.4594035c-.013066-.036-.025007-.083461-.03514-.1415934-.0104-.0576-.014986-.1139821-.014986-.171049 0-.088.017494-.167796.053227-.2392619.0352-.072.080008-.1391554.1328085-.2010213.0528-.062133.1099658-.1217011.1715657-.179834.061867-.057333.1187486-.114049.1720825-.168982.052533-.054933.097075-.1123161.1328085-.173116.035734-.061333.053227-.1277209.053227-.1999878 0-.0648-.012624-.1214663-.038757-.1705322-.026134-.047733-.062139-.088123-.1080049-.1209226-.0456-.032533-.097914-.056331-.1565796-.072864-.058667-.015733-.121686-.023771-.1886189-.023771-.2165332 0-.4220504.096338-.6180502.2888713v-.5017781c.2378665-.1381333.4848067-.2077393.7400065-.2077393Zm-.047542 2.5419637c.0824 0 .1551569.028417.2175578.086817.061067.0536.09095.1212052.09095.2036051 0 .081067-.029884.149189-.09095.2041219-.063733.056266-.1364919.084233-.2175578.084233-.082933 0-.1561416-.027966-.2201416-.084233-.061068-.054933-.09095-.123056-.09095-.2041219 0-.0824.029884-.1502712.09095-.2036051.0624-.0584.1358757-.086817.2201416-.086817z"/></svg>