<svg width="6mm" height="6mm" viewBox="0 0 6 6" xmlns="http://www.w3.org/2000/svg"><path d="M3.00000012.60000118c-1.31999999 0-2.39999998 1.08-2.39999998 2.39999998 0 1.31999999 1.08 2.39999998 2.39999998 2.39999998 1.31999999 0 2.39999998-1.08 2.39999998-2.39999998 0-1.31999999-1.08-2.39999998-2.39999998-2.39999998zm0 4.31999996c-1.056 0-1.91999998-.86399999-1.91999998-1.91999998 0-1.056.86399999-1.91999998 1.91999998-1.91999998 1.056 0 1.91999998.86399999 1.91999998 1.91999998 0 1.056-.86399999 1.91999998-1.91999998 1.91999998zm.12-3.11999997h-.36v1.43999999l1.248.768.19199999-.312-1.08-.648z"/></svg>