<svg width="6mm" height="6mm" viewBox="0 0 6 6" xmlns="http://www.w3.org/2000/svg"><path style="fill:#000;fill-opacity:1;stroke-width:.300023" d="M3.0005169.60003568c-.2298899 0-.4599291.1340385-.5389852.40255942l-.028422.096118a.26192061.26192061 0 0 1-.3762045.156063l-.0878499-.0480591c-.4920352-.26761763-1.02963139.2704892-.7617106.7622274l.047542.08785a.26192061.26192061 0 0 1-.1560628.3762044l-.096118.028422c-.53704169.1581093-.53704169.9193413 0 1.0774536l.096118.027905a.26192061.26192061 0 0 1 .1560628.3767211l-.048059.08785c-.26762089.4920383.2701922 1.0304482.7622274.7622274l.08785-.047542a.26192061.26192061 0 0 1 .3762044.1555461l.028422.095601c.1581122.5370418.9193412.5370418 1.0774536 0l.0289388-.095601a.26192061.26192061 0 0 1 .3762044-.1555461l.08785.048059c.4920382.2679177 1.0299314-.2710058.7617106-.7627441l-.047542-.08785a.26192061.26192061 0 0 1 .1560625-.3767211l.095085-.027905c.5370418-.1581124.5370418-.9193443 0-1.0774536l-.0950848-.0284224a.26192061.26192061 0 0 1-.1560629-.3762044l.048059-.08785c.2679208-.4920381-.2704889-1.02963132-.7622273-.7617105l-.08785.047542a.26192061.26192061 0 0 1-.3762043-.1560628l-.0289388-.096118C3.459929.73407377 3.2304097.60003568 3.0005169.60003568ZM3.0000001 2.3260285a.67385303.67385303 0 0 1 .6738607.6738607.67388155.67388155 0 0 1-1.3477214 0 .67385303.67385303 0 0 1 .6738607-.6738607z"/></svg>