<svg width="6mm" height="6mm" viewBox="0 0 6 6" xmlns="http://www.w3.org/2000/svg"><path d="M3.000285.60000004c-.2298901 0-.4600472.1340506-.5391034.40257176l-.028112.0961a.26192061.26192061 0 0 1-.3762029.1558717l-.0878979-.0480517c-.4920357-.26761796-1.02969901.2706273-.7617779.762366l.047467.087898a.26192061.26192061 0 0 1-.1558742.3761995l-.096101.028142c-.53704228.1581095-.53704228.9195094 0 1.0776218l.096101.028112a.26192061.26192061 0 0 1 .1558742.3767878l-.048052.087898c-.26762121.4920388.2703272 1.0299991.7623629.761778l.087898-.047464a.26192061.26192061 0 0 1 .3762026.1558713l.028113.095516c.1581124.5370423.9195123.5370423 1.0776248 0l.028713-.095516a.26192061.26192061 0 0 1 .376202-.155871l.087894.048052c.4920387.2679179 1.030002-.2706274.7617809-.7623662L4.74593 3.9436191a.26192061.26192061 0 0 1 .1558713-.3767877l.095516-.028112c.5370423-.1581125.5370423-.9195124 0-1.0776219l-.0955156-.0281422a.26192061.26192061 0 0 1-.1558713-.3761996l.048052-.087898c.2679209-.4920387-.2706275-1.02969896-.7623663-.7617779l-.087894.047464a.26192061.26192061 0 0 1-.3762035-.1558716l-.028712-.0961C3.4597502.73405064 3.2301781.60000004 3.000285.60000004Zm0 .3000237c.1071081 0 .2138989.062255.2508017.18751476l.028713.096101a.56194422.56194422 0 0 0 .8074833.3345983l.087313-.048052c.2292174-.1245101.4804992.1255896.3556894.3551047l-.048049.087898a.56194422.56194422 0 0 0 .3351834.8074866l.094927.028112c.2505196.073805.2505196.4283826 0 .5021885l-.095516.028113a.56194422.56194422 0 0 0-.334595.8080715l.048049.087309c.1245103.2292182-.1261713.4799181-.3556895.3551082l-.0873128-.0474667a.56194422.56194422 0 0 0-.8074835.3345983l-.028713.095516c-.073806.2505197-.4283827.2505197-.5021885 0l-.0281115-.095516a.56194422.56194422 0 0 0-.8074835-.3345983l-.087898.048052c-.229218.1245095-.4799148-.1261752-.355108-.3556932l.048052-.087309a.56194422.56194422 0 0 0-.3345955-.8080725l-.096103-.028113c-.25051671-.073805-.25051671-.4283826 0-.5021885l.096103-.028112a.56194422.56194422 0 0 0 .3345954-.807486l-.0480519-.0878979c-.1245067-.229215.1255899-.4799148.3551081-.355105l.087898.048052a.56194422.56194422 0 0 0 .8074834-.3345982l.028113-.096101c.0369021-.12525976.1442776-.18751456.251386-.18751456Zm0 1.12626156a.97390478.97390478 0 1 0 0 1.9478073.97390478.97390478 0 0 0 0-1.9478073zm0 .3000236a.67385303.67385303 0 0 1 .673883.67388.67388155.67388155 0 0 1-1.3477631 0 .67385303.67385303 0 0 1 .6738801-.67388z" style="fill:#000;fill-opacity:1;stroke-width:.300023"/></svg>