<svg viewBox="0 0 16 16" xmlns="http://www.w3.org/2000/svg"><path d="m11.73 3.0233c-0.2806-0.02293-0.6418-0.02332-1.1634-0.02332-0.2762 0-0.5-0.22386-0.5-0.5s0.2238-0.5 0.5-0.5h0.0212c0.4954-1e-5 0.8975-1e-5 1.2236 0.02664 0.3366 0.0275 0.6362 0.08587 0.9145 0.22768 0.439 0.2237 0.796 0.58066 1.0197 1.0197 0.1418 0.27832 0.2002 0.57784 0.2277 0.91447 0.0266 0.32615 0.0266 0.72825 0.0266 1.2236v5.1758c0 0.4954 0 0.8975-0.0266 1.2236-0.0275 0.3366-0.0859 0.6362-0.2277 0.9145-0.2237 0.439-0.5807 0.796-1.0197 1.0197-0.2783 0.1418-0.5779 0.2002-0.9145 0.2277-0.3261 0.0266-0.7282 0.0266-1.2236 0.0266h-5.1758c-0.49539 0-0.89749 0-1.2236-0.0266-0.33664-0.0275-0.63615-0.0859-0.91447-0.2277-0.43904-0.2237-0.796-0.5807-1.0197-1.0197-0.14181-0.2783-0.20018-0.5779-0.22768-0.9145-0.02665-0.3261-0.02665-0.7282-0.02664-1.2236v-0.0212c0-0.2762 0.22386-0.5 0.5-0.5s0.5 0.2238 0.5 0.5c0 0.5216 3.9e-4 0.8828 0.02332 1.1634 0.02245 0.2748 0.06399 0.428 0.122 0.5419 0.12784 0.2509 0.33181 0.4548 0.58269 0.5827 0.11385 0.058 0.26712 0.0995 0.54191 0.122 0.28063 0.0229 0.64178 0.0233 1.1634 0.0233h5.1334c0.5216 0 0.8828-4e-4 1.1634-0.0233 0.2748-0.0225 0.428-0.064 0.5419-0.122 0.2509-0.1279 0.4548-0.3318 0.5827-0.5827 0.058-0.1139 0.0995-0.2671 0.122-0.5419 0.0229-0.2806 0.0233-0.6418 0.0233-1.1634v-5.1334c0-0.52163-4e-4 -0.88278-0.0233-1.1634-0.0225-0.27479-0.064-0.42806-0.122-0.54191-0.1279-0.25088-0.3318-0.45485-0.5827-0.58269-0.1139-0.05801-0.2671-0.09955-0.5419-0.122zm-9.7301-0.52331c0-0.27615 0.22385-0.5 0.5-0.5h3.6667c0.27614 0 0.5 0.22385 0.5 0.5 0 0.27614-0.22386 0.5-0.5 0.5h-2.4596l4.6464 4.6464c0.19527 0.19526 0.19527 0.51184 0 0.7071-0.19526 0.19527-0.51184 0.19527-0.7071 0l-4.6464-4.6464v2.4596c0 0.27615-0.22386 0.5-0.5 0.5s-0.5-0.22386-0.5-0.5l1e-5 -3.6667z" clip-rule="evenodd" fill="#1F2C33"/></svg>
