<svg width="6mm" height="6mm" viewBox="0 0 6 6" xmlns="http://www.w3.org/2000/svg"><path d="M2.90199226 4.32675406c0-.17236254.13988843-.31225097.31225097-.31225097h1.87350582c.17236254 0 .31225097.13988843.31225097.31225097s-.13988843.31225097-.31225097.31225097H3.21424323c-.17236254 0-.31225097-.13988843-.31225097-.31225097zM2.45797138 2.77736475 1.13309051 1.45248388c-.12209012-.12209013-.31974499-.12209013-.44152287 0-.12177787.12209013-.12209013.319745 0 .44152287L1.79756058 2.9999997.69156764 4.10599262c-.12209013.12209013-.12209013.319745 0 .44152288.12209013.12209013.319745.12209013.44152287 0l1.32488087-1.32488087c.06151344-.06151344.09148953-.1420742.09117728-.22263494.0006245-.08056075-.02966384-.1611215-.09117728-.22263494z"/></svg>