<svg width="4" height="14" viewBox="0 0 4 14" fill="none" xmlns="http://www.w3.org/2000/svg">
<path d="M3.75 12.25C3.75 11.2831 2.966 10.5 2 10.5C1.034 10.5 0.25 11.2831 0.25 12.25C0.25 13.216 1.034 14 2 14C2.966 14 3.75 13.216 3.75 12.25ZM3.75 1.75C3.75 0.783125 2.966 4.22252e-08 2 0C1.034 -4.22252e-08 0.250001 0.783125 0.25 1.75C0.25 2.716 1.034 3.5 2 3.5C2.966 3.5 3.75 2.716 3.75 1.75ZM3.75 7C3.75 6.03312 2.966 5.25 2 5.25C1.034 5.25 0.25 6.03312 0.25 7C0.25 7.966 1.034 8.75 2 8.75C2.966 8.75 3.75 7.966 3.75 7Z" fill="#768D99"/>
</svg>
