<svg fill="none" version="1.1" viewBox="0 0 24 24" xmlns="http://www.w3.org/2000/svg">
 <path d="m20 5v4c0 0.55228-0.4477 1-1 1h-4c-0.5523 0-1-0.44772-1-1v-4c0-0.55228 0.4477-1 1-1h4c0.5523 0 1 0.44772 1 1zm-10 0v4c0 0.55228-0.44772 1-1 1h-4c-0.55228 0-1-0.44772-1-1v-4c0-0.55228 0.44772-1 1-1h4c0.55228 0 1 0.44772 1 1zm9 9h-4c-0.5523 0-1 0.4477-1 1v4c0 0.5523 0.4477 1 1 1h4c0.5523 0 1-0.4477 1-1v-4c0-0.5523-0.4477-1-1-1zm-9 1v4c0 0.5523-0.44772 1-1 1h-4c-0.55228 0-1-0.4477-1-1v-4c0-0.5523 0.44772-1 1-1h4c0.55228 0 1 0.4477 1 1zm-5-12c-1.1046 0-2 0.89543-2 2v4c0 1.1046 0.89543 2 2 2h4c1.1046 0 2-0.8954 2-2v-4c0-1.1046-0.8954-2-2-2zm10 0c-1.1046 0-2 0.89543-2 2v4c0 1.1046 0.8954 2 2 2h4c1.1046 0 2-0.8954 2-2v-4c0-1.1046-0.8954-2-2-2zm-2 12c0-1.1046 0.8954-2 2-2h4c1.1046 0 2 0.8954 2 2v4c0 1.1046-0.8954 2-2 2h-4c-1.1046 0-2-0.8954-2-2zm-8-2c-1.1046 0-2 0.8954-2 2v4c0 1.1046 0.89543 2 2 2h4c1.1046 0 2-0.8954 2-2v-4c0-1.1046-0.8954-2-2-2z" clip-rule="evenodd" fill="#1f2c33"/>
</svg>
