<svg viewBox="0 0 24 24" xmlns="http://www.w3.org/2000/svg"><g fill="#1f2c33"><path d="m9.4828 3c-0.26662 0-0.48276 0.22386-0.48276 0.5s0.21614 0.5 0.48276 0.5h9.1724c1.8663 0 3.3793 1.567 3.3793 3.5v10c0 0.2761 0.2162 0.5 0.4828 0.5s0.4827-0.2239 0.4827-0.5v-10c0-2.4853-1.9452-4.5-4.3448-4.5z"/><path d="m10 10.5v4.7929l-2.1464-2.1465c-0.19526-0.1952-0.51184-0.1952-0.7071 0-0.19527 0.1953-0.19527 0.5119 0 0.7072l3 3c0.1953 0.1952 0.5119 0.1952 0.7072 0l3-3c0.1952-0.1953 0.1952-0.5119 0-0.7072-0.1953-0.1952-0.5119-0.1952-0.7072 0l-2.1464 2.1465v-4.7929c0-0.2761-0.2239-0.5-0.5-0.5s-0.5 0.2239-0.5 0.5z"/><path d="m3 6c-1.1046 0-2 0.89543-2 2v11c0 1.1046 0.89543 2 2 2h15c1.1046 0 2-0.8954 2-2v-11c0-1.1046-0.8954-2-2-2zm16 2v11c0 0.5523-0.4477 1-1 1h-15c-0.55228 0-1-0.4477-1-1v-11c0-0.55228 0.44772-1 1-1h15c0.5523 0 1 0.44772 1 1z" clip-rule="evenodd"/></g></svg>
