<svg width="6mm" height="6mm" viewBox="0 0 6 6" xmlns="http://www.w3.org/2000/svg"><path style="fill:#000;fill-opacity:1;stroke-width:.300012" d="M3.0015486 1.2480244c-.015195-.0001321-.029457-.0000211-.041806.0005286h-.00465c-.1051166 0-.1894201.084817-.1894201.1899328v1.2614201l-.6425806.00106v.0005285c-.1078778.0084-.19549.1482382-.0929.2498058l.8681278.8681285c.056516.056638.1483915.056638.2049031 0l.8676112-.8681314c.1005767-.1016178.0139265-.2402053-.0934205-.2487725l.0031-.0031-.6425806.00106v-1.261415c0-.1051218-.084819-.1899354-.1899355-.1899354-.015248-.0005286-.031257-.0007929-.046451-.00106zM.75019388 3.2516372a.15000609.15000609 0 0 0-.15019375.1501937v.7499354a.60002437.60002437 0 0 0 .60025687.6002596h3.6000013a.60002437.60002437 0 0 0 .5997416-.6002596v-.7499354a.15000609.15000609 0 0 0-.2998695 0v.6967746H.89986966v-.6967746a.15000609.15000609 0 0 0-.14967578-.1501937Z"/></svg>