<svg width="6mm" height="6mm" viewBox="0 0 6 6" xmlns="http://www.w3.org/2000/svg"><path style="fill:#000;fill-opacity:1;stroke:none;stroke-width:.297419;stroke-dasharray:none;stroke-opacity:1" d="M1.0486609 1.1972677c-.24615519 0-.44866089.2026896-.44866089.4490681v2.7073283c0 .2463788.2025057.4490683.44866089.4490683h3.9026783c.2461552 0 .4486608-.2026895.4486608-.4490683V1.6463358c0-.2463785-.2025056-.4490681-.4486608-.4490681Zm0 .3260783h3.9026783c.034071 0 .063477.012582.085189.033073L3.0033559 3.5914367.96708618 1.5528016c.0213092-.0183181.04953622-.029456.08157472-.0294556Zm-.12287838.6087484.89164248.8919351-.5632785.5648234c-.085628.085706-.085628.2243526 0 .3100586.042668.043.098261.064079.1543725.064079.056111 0 .1122203-.021372.1548885-.064079l.5637949-.5643065.7217812.7224364c.042668.043.098777.064596.1548886.064596.056111 0 .1122204-.021889.1548887-.064596l.7222976-.7224364.5632785.5643065c.042668.043.098777.064079.1548886.064079.056111 0 .111704-.021372.1543724-.064079.085628-.085706.085628-.2243523 0-.3100586l-.5632785-.5648234.883898-.8852172v2.2148518c0 .07078-.052163.12299-.1228783.12299H1.0486609c-.0707153 0-.12287838-.05221-.12287838-.12299z"/></svg>