<svg width="6mm" height="6mm" viewBox="0 0 6 6" xmlns="http://www.w3.org/2000/svg"><path d="m3.00015 3.58173686 2.25914119-2.2591412c-.080105-.07560472-.18691168-.12270766-.30511907-.12270766H1.04582786c-.11790737 0-.22501406.04710294-.30511907.12270767z"/><path d="m4.21852614 3.0000005.8910557.89105569c.08790548.0879055.08790548.2304144 0 .3183199-.04380275.04380273-.10140635.06600412-.15900995.06600412-.0576036 0-.1152072-.02190137-.15900993-.06600413l-.8910557-.89105569-.7410463.74104632c-.04380274.04380273-.10140634.06600412-.15900994.06600412-.0576036 0-.1152072-.02190137-.15900994-.06600412l-.74104631-.74104632-.89105569.8910557c-.04380274.04380273-.10140634.06600412-.15900994.06600412-.0576036 0-.1152072-.02190137-.15900993-.06600413-.0879055-.0879055-.0879055-.2304144 0-.3183199l.89105568-.89105568L.6 1.81822664v2.5360585c0 .24541533.20071254.44582786.44582786.44582786h3.90834426c.24541534 0 .44582786-.20071254.44582786-.44582786v-2.5360585z"/></svg>