<svg viewBox="0 0 16 16" xmlns="http://www.w3.org/2000/svg"><path d="m5.4121 14h0.02119c0.27615 0 0.5-0.2239 0.5-0.5s-0.22385-0.5-0.5-0.5c-0.52163 0-0.88278-4e-4 -1.1634-0.0233-0.27479-0.0225-0.42806-0.064-0.54191-0.122-0.25088-0.1279-0.45485-0.3318-0.58269-0.5827-0.05801-0.1139-0.09955-0.2671-0.122-0.5419-0.02293-0.2806-0.02332-0.6418-0.02332-1.1634v-5.1334c0-0.52163 3.9e-4 -0.88278 0.02332-1.1634 0.02245-0.27479 0.064-0.42806 0.12201-0.54191 0.12783-0.25088 0.3318-0.45485 0.58268-0.58269 0.11386-0.05801 0.26712-0.09955 0.54191-0.122 0.28063-0.02293 0.64178-0.02332 1.1634-0.02332h5.1334c0.5216 0 0.8828 3.9e-4 1.1634 0.02332 0.2748 0.02245 0.428 0.06399 0.5419 0.12201 0.2509 0.12783 0.4548 0.3318 0.5827 0.58268 0.058 0.11386 0.0995 0.26712 0.122 0.54191 0.0229 0.28063 0.0233 0.64178 0.0233 1.1634 0 0.27615 0.2239 0.5 0.5 0.5s0.5-0.22385 0.5-0.49999v-0.02121c0-0.49539 0-0.89749-0.0266-1.2236-0.0275-0.33663-0.0859-0.63615-0.2277-0.91447-0.2237-0.43904-0.5807-0.796-1.0197-1.0197-0.2783-0.14181-0.5779-0.20018-0.9145-0.22768-0.3261-0.02665-0.7282-0.02664-1.2236-0.02664h-5.1758c-0.49539-1e-5 -0.89749-1e-5 -1.2236 0.02664-0.33663 0.0275-0.63615 0.08587-0.91447 0.22768-0.43904 0.2237-0.796 0.58066-1.0197 1.0197-0.14181 0.27832-0.20018 0.57783-0.22768 0.91447-0.02665 0.32615-0.02664 0.72826-0.02664 1.2236v5.1758c-1e-5 0.4954-1e-5 0.8975 0.02664 1.2236 0.0275 0.3366 0.08587 0.6362 0.22768 0.9145 0.2237 0.439 0.58066 0.796 1.0197 1.0197 0.27832 0.1418 0.57783 0.2002 0.91447 0.2277 0.32615 0.0266 0.72826 0.0266 1.2236 0.0266zm3.9212-0.5c0 0.2761 0.22386 0.5 0.5 0.5h3.6667c0.2761 0 0.5-0.2239 0.5-0.5v-3.6667c0-0.27614-0.2239-0.5-0.5-0.5-0.2762 0-0.5 0.22386-0.5 0.5v2.4596l-4.6464-4.6464c-0.19526-0.19527-0.51184-0.19527-0.7071 0-0.19526 0.19526-0.19526 0.51184 0 0.7071l4.6464 4.6464h-2.4596c-0.27614 0-0.5 0.2239-0.5 0.5z" clip-rule="evenodd" fill="#1F2C33"/></svg>
