<svg width="6mm" height="6mm" viewBox="0 0 6 6" xmlns="http://www.w3.org/2000/svg"><path d="M2.8728081 3.8459473c-.670758-.073796-1.135129-.7127555-.974339-1.3703145Zm.1271922.2693831c-.8546467 0-1.6007001-.448772-1.9999751-1.1156303.1811886-.3026811.4340728-.560665.736154-.7517529l-.2294857-.32278c-.3482782.2234861-.64076.5228674-.85134668.8747454-.073796.1232923-.073796.2765827 0 .399875.46977048.7844511 1.34571578 1.3094182 2.34435348 1.3094182.1103934 0 .2207861-.0066.3302793-.019499l-.2666834-.3752764c-.020698.0006-.041998.0009013-.063295.0009013zm2.3446535-.9155428c-.2768828.4625712-.6950566.8345479-1.1963254 1.0622336l.4010751.5639648c.031798.044396.020699.1058935-.024599.1370915l-.1727889.1190926c-.0452968.031198-.1076928.0203988-.1391911-.0242987L1.451197 1.1740141c-.0317983-.0443968-.0206989-.1058934.0245987-.1370914l.1727892-.11909243c.045297-.0311989.1076928-.0203988.1391912.0242986l.4625711.65065943c.2384851-.066596.4898693-.1019933.7499531-.1019933.9986376 0 1.8748828.5249673 2.3443536 1.3094183.073795.1232922.073795.2762826-1e-7 .3995743zm-.3446785-.1997874c-.368077-.6146617-1.0304356-1.0439348-1.8013875-1.107531-.0815953.0827949-.1319917.1955878-.1319917.3200801 0 .2537841.208787.4592712.4667708.4592712.2576839 0 .4667709-.2057871.4667709-.4592712v-.0003001c.255284.4697707.1394912 1.0685334-.3077809 1.4084121l.2225862.3128805c.4568714-.1907881.8375477-.5204675 1.0850322-.9335416Z" style="stroke-width:.299981"/></svg>