<svg width="6mm" height="6mm" viewBox="0 0 6 6" xmlns="http://www.w3.org/2000/svg"><path style="fill:#000;fill-opacity:1;stroke-width:.3" d="M1.6800008.85059408c-.020719.00057185-.0412304.00713542-.0594279.0201538l-.2108398.15037842c-.0485266.0347157-.0595204.1018518-.0248047.1503784L4.1987101 5.104598c.0347157.0485266.1018518.0595204.1503784.0248047l.2103231-.1503784c.0485266-.0347157.0595204-.1018519.0248047-.1503785l-.3891235-.5441528c.7696903-.4861755 1.2050944-1.2846761 1.2050944-1.2846761s-.9003727-1.6500285-2.4003703-1.6500285c-.2864872 0-.550632.0610484-.7911662.1586467L1.7704346.89555257C1.7487373.86522344 1.7145325.84964098 1.6800008.85059408zm1.3198161.79943442h.0005168c.6357657.0001903 1.1636994.3503122 1.5502929.7369059a3.9398988 3.9398988 0 0 1 .4976441.6128825c-.017394.0261-.0364924.0548007-.0583944.0862996-.1004985.1439986-.24875.3360855-.4392497.5265829-.1548665.1548648-.3326.304235-.5307169.4273641l-.2423625-.3389974a1.0499996 1.0499996 0 0 0 .2723348-.7012492 1.0499996 1.0499996 0 0 0-1.047998-1.0500651 1.0499996 1.0499996 0 0 0-.0806153.0031006 1.0499996 1.0499996 0 0 0-.3348633.0837158l-.1974039-.2764689c.1902546-.068957.3941812-.110006.6108154-.1100708zm-1.5420247.3224609C.90593712 2.4400755.59996338 2.9998169.59996338 2.9998169S1.4998217 4.6498454 2.9998169 4.6498454c.1210639 0 .2383104-.0107281.3513997-.0304891l-.1979207-.2764689c-.050343.00448-.1016879.0072347-.153479.0072347-.6359974 0-1.1635921-.3507264-1.550293-.7374227a3.9401988 3.9401988 0 0 1-.49816078-.6128825h.00103353a3.9398988 3.9398988 0 0 1 .49764405-.6128825c.0576679-.0577574.1190595-.1144069.1829346-.1694987l-.1751831-.2449463zm1.5420247.2775025a.75000033.75000033 0 0 1 .5989298 1.2009602L2.7672729 2.289266a.75000033.75000033 0 0 1 .232544-.0392741zm-1.0092407.4671549a1.0499996 1.0499996 0 0 0-.0408244.2826701 1.0499996 1.0499996 0 0 0 .9916707 1.0469645l-.2661336-.3725871a.75000033.75000033 0 0 1-.4180623-.5839436l-.2666504-.3731039z"/></svg>