<svg width="6mm" height="6mm" viewBox="0 0 6 6" xmlns="http://www.w3.org/2000/svg"><path d="M3 1.3500002C1.5000017 1.3500002.6 3 .6 3S1.5000017 4.6499997 3 4.6499997C4.5000006 4.6499997 5.4 3 5.4 3S4.5000006 1.3500003 3 1.3500002Zm0 .3000006c.6359987 0 1.1636906.3504102 1.55039.7371096A3.9398988 3.9398988 0 0 1 5.0484385 3c-.017394.0261-.036695.054635-.058597.0861329-.1004979.1439992-.2489514.3362589-.4394515.5267566-.3867016.3866972-.914692.7371095-1.55039.7371095-.6359987 0-1.1636906-.3504123-1.5503923-.7371094a3.9401988 3.9401988 0 0 1-.498044-.6128897h.0006682a3.9398988 3.9398988 0 0 1 .4980462-.6128896c.3861003-.3866994.9138057-.7371096 1.5498044-.7371096Zm-.078516.302927A1.0499996 1.0499996 0 0 0 1.9500016 3a1.0499996 1.0499996 0 0 0 2.0999972 0A1.0499996 1.0499996 0 0 0 2.921484 1.9529278ZM3 2.2499997a.75000034.75000034 0 0 1 0 1.5000005.75000034.75000034 0 0 1 0-1.5000005Z" style="fill:#000;fill-opacity:1;stroke-width:.3"/></svg>