<svg width="6mm" height="6mm" viewBox="0 0 6 6" xmlns="http://www.w3.org/2000/svg"><path d="M3.0056745 1.5021279C1.678014 1.5021279.6 2.6368776.6 2.9999986c0 .3971647 1.078014 1.4978735 2.4056745 1.4978735C4.3219861 4.4978721 5.4 3.4198582 5.4 2.9999986c0-.3517721-1.0780139-1.4978707-2.3943255-1.4978707Zm.9872345.5900697c0 .04539.011349.079433.011349.1134744 0 .2609926-.2042539.4652494-.4652495.4652494-.2609925 0-.4652463-.2269517-.4652463-.4198596 0-.1929049.03404-.2723355.1248233-.363118.3290771.022698.6241135.1248233.7943265.2042569zm-.9872345 2.0425536c-1.066668 0-1.9290792-.8397163-1.9290792-1.1347526 0-.1815591.363121-.6014187.9078009-.8737572-.090779.1702101-.158864.3517721-.158864.5673749 0 .6468083.533331 1.1687934 1.1801423 1.1687934.6354595 0 1.1687934-.5219851 1.1687934-1.1687934 0-.2042569-.068085-.3971648-.1588641-.5673749.54468.2723385.907801.7035442.907801.8737572 0 .3177312-.8624113 1.1347526-1.9177303 1.1347526z" style="fill:#000;fill-opacity:1;stroke-width:.0113475"/></svg>