<svg xmlns="http://www.w3.org/2000/svg" width="40" height="40"><path fill="#1F2C33" fill-rule="evenodd" d="M7.311 5H31.69c.907 0 1.622 0 2.166.049.536.048 1.016.15 1.367.439a2.13 2.13 0 0 1 .776 1.73c-.018.455-.262.88-.584 1.31-.326.437-.803.968-1.408 1.641l-9.369 10.435c-.262.292-.34.383-.395.48a1.13 1.13 0 0 0-.118.308c-.024.11-.027.23-.027.62V30.806c0 .258.001.506-.084.732a1.315 1.315 0 0 1-.349.514c-.178.162-.41.254-.65.349l-.056.022-5.593 2.23a9.37 9.37 0 0 1-.73.27c-.208.062-.44.106-.68.056a1.32 1.32 0 0 1-.832-.56c-.137-.206-.181-.437-.2-.654-.02-.21-.02-.472-.02-.776V22.012c0-.39-.003-.51-.027-.62a1.13 1.13 0 0 0-.118-.307c-.055-.098-.133-.19-.395-.48l-9.37-10.436c-.604-.673-1.08-1.204-1.407-1.64-.322-.431-.566-.856-.584-1.311a2.13 2.13 0 0 1 .776-1.73c.351-.29.83-.391 1.367-.44C5.69 5 6.405 5 7.311 5ZM5.235 6.045c-.507.045-.72.13-.822.215a1.13 1.13 0 0 0-.412.918c.005.131.082.345.386.751.296.397.743.895 1.369 1.592l9.351 10.415.033.037c.215.24.374.416.49.622.102.18.177.376.222.58.051.23.051.467.051.789V32.966c0 .332 0 .548.015.707a.9.9 0 0 0 .034.184l.004.007a.32.32 0 0 0 .201.135s.041.01.194-.036c.154-.046.355-.125.665-.249l5.572-2.22c.334-.134.378-.16.405-.184a.318.318 0 0 0 .084-.123c.012-.033.02-.083.02-.442v-8.781c0-.322 0-.56.051-.79.045-.203.12-.398.222-.58.116-.205.275-.382.49-.622l.033-.036 9.351-10.415c.627-.697 1.073-1.195 1.369-1.592.304-.406.38-.62.386-.751a1.13 1.13 0 0 0-.412-.918c-.103-.085-.315-.17-.822-.215C33.272 6 32.601 6 31.662 6H7.338c-.94 0-1.61 0-2.103.045Z" clip-rule="evenodd"/></svg>
