<svg viewBox="0 0 24 24" xmlns="http://www.w3.org/2000/svg"><path d="m4.3537 2h15.293c0.5423-2e-5 1.0154-5e-5 1.3861 0.03294 0.3554 0.03162 0.8375 0.10545 1.2283 0.42472 0.4881 0.39891 0.7631 1.0037 0.7377 1.6363-0.0204 0.50801-0.2901 0.91769-0.5035 1.2012-0.2229 0.29608-0.5388 0.64547-0.9 1.045l-5.875 6.4983c-0.0827 0.0914-0.1239 0.1373-0.1527 0.172-0.0015 0.0019-3e-3 0.0036-0.0042 0.0052-1e-4 0.0016-2e-4 0.0033-3e-4 0.0052-0.0019 0.0445-0.0021 0.1056-0.0021 0.2284v5.4199c0 0.0112 1e-4 0.0241 3e-4 0.0387 0.0015 0.1395 0.0045 0.428-0.0969 0.6971-0.0853 0.2262-0.2236 0.4279-0.4025 0.5888-0.2119 0.1906-0.4795 0.2933-0.6112 0.3439-0.0138 0.0053-0.0261 0.01-0.0367 0.0142l-3.5105 1.3897c-0.1632 0.0647-0.3419 0.1355-0.4991 0.1819-0.169 0.0499-0.44292 0.114-0.75809 0.0491-0.38736-0.0796-0.73024-0.308-0.95205-0.6391-0.18113-0.2704-0.22347-0.5513-0.2396-0.7271-0.01495-0.163-0.01489-0.3547-0.01484-0.5282v-6.8289c0-0.1228-2.1e-4 -0.1839-0.00212-0.2284-8e-5 -0.0019-1.7e-4 -0.0036-2.5e-4 -0.0052-0.00129-0.0016-0.00271-0.0033-0.00425-0.0052-0.02874-0.0347-0.06999-0.0806-0.15265-0.172l-5.8445-6.4645c-0.01019-0.01127-0.02034-0.0225-0.03046-0.03369-0.36125-0.39953-0.67719-0.74895-0.90005-1.045-0.21339-0.2835-0.48313-0.69318-0.50351-1.2012-0.025388-0.63257 0.24955-1.2374 0.73773-1.6363 0.39072-0.31927 0.87287-0.3931 1.2282-0.42472 0.37071-0.03299 0.84378-0.03296 1.3861-0.03294zm-1.2506 2.0924c0.16188 0.21507 0.41542 0.49696 0.81615 0.9402l5.8445 6.4645c0.01045 0.0116 0.0212 0.0234 0.0322 0.0355 0.12047 0.1326 0.27098 0.2983 0.38278 0.4957 0.0972 0.1715 0.1686 0.3564 0.2119 0.5489 0.0499 0.2219 0.0493 0.446 0.0489 0.6242 0 0.0163-1e-4 0.0323-1e-4 0.0478v6.5248l3.1212-1.2355v-5.2893c0-0.0155-1e-4 -0.0315-1e-4 -0.0478-4e-4 -0.1782-1e-3 -0.4023 0.0489-0.6242 0.0433-0.1925 0.1147-0.3774 0.2119-0.5489 0.1118-0.1974 0.2623-0.3631 0.3828-0.4957 0.011-0.0121 0.0217-0.0239 0.0322-0.0355l5.8445-6.4645c0.4007-0.44323 0.6543-0.72513 0.8161-0.9402 0.0162-0.0215 0.0304-0.04094 0.0427-0.05839-0.0243-0.00304-0.0524-0.00608-0.0844-0.00893-0.271-0.02411-0.6533-0.02507-1.2539-0.02507h-15.203c-0.60059 0-0.98291 9.6e-4 -1.2539 0.02507-0.03207 0.00285-0.0601 0.00589-0.08443 0.00893 0.01233 0.01745 0.02647 0.03689 0.04265 0.05839z" clip-rule="evenodd" fill="#1f2c33"/></svg>
