<svg xmlns="http://www.w3.org/2000/svg" viewBox="0 0 24 24"><path fill="#1f2c33" d="M4.354 2h15.293c.542 0 1.015 0 1.386.033.355.032.837.105 1.228.425A2.01 2.01 0 0 1 23 4.094c-.02.508-.29.918-.504 1.201-.223.296-.539.646-.9 1.045l-5.875 6.498a6.19 6.19 0 0 0-.152.172l-.005.006v.005a6.2 6.2 0 0 0-.002.228v5.459c.002.14.005.428-.097.697a1.507 1.507 0 0 1-.402.589c-.212.19-.48.293-.611.344l-.037.014-3.51 1.39a6.214 6.214 0 0 1-.5.181c-.169.05-.443.114-.758.05a1.512 1.512 0 0 1-.952-.64 1.532 1.532 0 0 1-.24-.727c-.014-.163-.014-.354-.014-.528V13.25c0-.123 0-.184-.002-.228v-.005l-.005-.006a6.124 6.124 0 0 0-.152-.172L2.436 6.374l-.03-.034c-.362-.4-.678-.749-.9-1.045-.214-.283-.484-.693-.504-1.2a2.01 2.01 0 0 1 .738-1.637c.39-.32.873-.393 1.228-.425C3.338 2 3.812 2 4.354 2zm-1.25 2.092c.161.215.415.497.815.94l5.845 6.465.032.036c.12.132.27.298.383.495.097.172.168.357.212.55.05.221.049.445.049.623v6.573l3.12-1.236v-5.337c0-.178 0-.402.05-.624.043-.192.114-.377.211-.549a2.813 2.813 0 0 1 .415-.53l5.845-6.465c.4-.444.654-.726.816-.94l.043-.059a2.392 2.392 0 0 0-.085-.009c-.27-.024-.653-.025-1.254-.025H4.398c-.6 0-.983.001-1.254.025l-.084.009c.012.017.026.037.043.058z" clip-rule="evenodd"/></svg>
