<svg width="40" height="40" viewBox="0 0 40 40" xmlns="http://www.w3.org/2000/svg"><path fill-rule="evenodd" clip-rule="evenodd" d="M7.31125 5H31.6888C32.5956 5 33.3108 4.99999 33.8547 5.04872C34.3913 5.09679 34.8707 5.19834 35.2223 5.48769C35.7375 5.91158 36.0249 6.55147 35.9983 7.21779C35.9802 7.67305 35.7358 8.0976 35.4139 8.5282C35.0876 8.96471 34.6107 9.49596 34.0061 10.1693L24.637 20.6043C24.3752 20.8958 24.2969 20.9872 24.242 21.0848C24.1878 21.1811 24.1481 21.2847 24.124 21.3924C24.0997 21.5013 24.0969 21.6213 24.0969 22.0125V30.7447C24.0969 30.7648 24.097 30.7849 24.097 30.8049C24.0975 31.0628 24.098 31.3114 24.0135 31.5371C23.9398 31.734 23.82 31.9103 23.6642 32.0513C23.4857 32.213 23.2545 32.3046 23.014 32.3999C22.9954 32.4073 22.9767 32.4147 22.958 32.4222L17.3654 34.6514C17.082 34.7644 16.8384 34.8615 16.6357 34.9218C16.4268 34.9839 16.1959 35.0284 15.9544 34.9784C15.6144 34.908 15.3156 34.7066 15.1232 34.4174C14.9864 34.2117 14.9419 33.9807 14.9222 33.764C14.9031 33.5538 14.9031 33.2922 14.9031 32.9881V22.0125C14.9031 21.6213 14.9003 21.5013 14.876 21.3924C14.8519 21.2847 14.8122 21.1811 14.758 21.0848C14.7032 20.9872 14.6248 20.8958 14.363 20.6043L4.99393 10.1693C4.38934 9.49595 3.91236 8.9647 3.58607 8.5282C3.26419 8.0976 3.01983 7.67305 3.00169 7.21779C2.97514 6.55147 3.26252 5.91158 3.77768 5.48769C4.12934 5.19834 4.60874 5.09679 5.14532 5.04872C5.68917 4.99999 6.4044 5 7.31125 5ZM5.23455 6.04473C4.72813 6.0901 4.51568 6.17545 4.41306 6.25989C4.13896 6.48543 3.98684 6.82511 4.0009 7.17797C4.00613 7.30932 4.08333 7.52319 4.38703 7.92948C4.68311 8.32558 5.12953 8.82351 5.75592 9.52116L15.1071 19.9362C15.1181 19.9485 15.129 19.9606 15.1397 19.9725C15.3554 20.2125 15.514 20.389 15.6296 20.5945C15.7316 20.7759 15.8066 20.9713 15.8519 21.1745C15.9033 21.4045 15.9032 21.6416 15.9031 21.9638C15.9031 21.9798 15.9031 21.9961 15.9031 22.0125V32.9657C15.9031 33.2985 15.9036 33.514 15.9181 33.6733C15.925 33.7493 15.934 33.7972 15.9425 33.8278C15.9465 33.8424 15.95 33.8514 15.9523 33.8566C15.9544 33.8615 15.9557 33.8634 15.9558 33.8636C16.002 33.9331 16.0743 33.982 16.1571 33.9992C16.1574 33.9992 16.198 34.0087 16.3506 33.9633C16.5046 33.9175 16.7058 33.8378 17.0159 33.7143L22.5877 31.4933C22.9223 31.3599 22.9664 31.3341 22.993 31.3101C23.0306 31.276 23.0593 31.2336 23.077 31.1865C23.0893 31.1536 23.0969 31.1041 23.0969 30.7447V22.0125C23.0969 21.9961 23.0969 21.9798 23.0969 21.9638C23.0968 21.6416 23.0967 21.4045 23.1481 21.1745C23.1934 20.9713 23.2684 20.7759 23.3704 20.5945C23.486 20.389 23.6446 20.2125 23.8603 19.9725C23.871 19.9606 23.8819 19.9485 23.8929 19.9362L33.2441 9.52116C33.8705 8.82351 34.3169 8.32558 34.613 7.92948C34.9167 7.52319 34.9939 7.30932 34.9991 7.17797C35.0132 6.82511 34.861 6.48543 34.5869 6.25989C34.4843 6.17545 34.2719 6.0901 33.7654 6.04473C33.2716 6.00049 32.6014 6 31.6621 6H7.33792C6.39858 6 5.72837 6.00049 5.23455 6.04473Z" fill="#1F2C33"/></svg>
