<svg width="14" height="15" viewBox="0 0 14 15" fill="none" xmlns="http://www.w3.org/2000/svg">
<path fill-rule="evenodd" clip-rule="evenodd" d="M12.3398 12.0936L12.3398 14.0822L11.0117 14.0822L11.0117 12.0936C10.0516 11.8079 9.35149 10.9185 9.35149 9.86563C9.35149 8.81274 10.0516 7.92336 11.0117 7.63763L11.0117 0.800781L12.3398 0.800781L12.3398 7.63763C13.2999 7.92336 14 8.81274 14 9.86563C14 10.9185 13.2999 11.8079 12.3398 12.0936ZM12.3398 9.12316C12.1636 8.96543 11.9309 8.86952 11.6757 8.86952C11.4351 8.86952 11.2143 8.95489 11.0421 9.09699C11.0318 9.10551 11.0216 9.11424 11.0117 9.12316C10.8079 9.30556 10.6796 9.57062 10.6796 9.86563C10.6796 10.1606 10.8079 10.4257 11.0117 10.6081C11.1879 10.7658 11.4206 10.8617 11.6757 10.8617C11.9164 10.8617 12.1372 10.7764 12.3094 10.6343C12.3197 10.6258 12.3298 10.617 12.3398 10.6081C12.5436 10.4257 12.6719 10.1606 12.6719 9.86563C12.6719 9.57062 12.5436 9.30556 12.3398 9.12316Z" fill="#1F2C33"/>
<path fill-rule="evenodd" clip-rule="evenodd" d="M7.67639 2.78938L7.67639 0.800781L6.34825 0.800781L6.34825 2.78938C5.38817 3.07511 4.68807 3.96449 4.68807 5.01738C4.68807 6.07028 5.38817 6.95965 6.34825 7.24539L6.34825 14.0822L7.67639 14.0822L7.67639 7.24539C8.63647 6.95965 9.33658 6.07028 9.33658 5.01738C9.33658 3.96449 8.63647 3.07511 7.67639 2.78938ZM7.67639 5.75985C7.50016 5.91758 7.26744 6.01349 7.01232 6.01349C6.77164 6.01349 6.55089 5.92813 6.3787 5.78603C6.36838 5.77751 6.35822 5.76878 6.34825 5.75985C6.14446 5.57746 6.01621 5.3124 6.01621 5.01738C6.01621 4.72237 6.14446 4.45731 6.34825 4.27491C6.52448 4.11718 6.7572 4.02127 7.01232 4.02127C7.25301 4.02127 7.47375 4.10664 7.64594 4.24874C7.65627 4.25726 7.66642 4.26599 7.67639 4.27491C7.88018 4.45731 8.00843 4.72237 8.00843 5.01738C8.00843 5.3124 7.88018 5.57746 7.67639 5.75985Z" fill="#1F2C33"/>
<path fill-rule="evenodd" clip-rule="evenodd" d="M2.98833 12.0936L2.98833 14.0822L1.66018 14.0822L1.66018 12.0936C0.700101 11.8079 -4.42261e-07 10.9185 -3.96237e-07 9.86563C-3.50214e-07 8.81274 0.700102 7.92336 1.66018 7.63763L1.66018 0.800781L2.98833 0.800781L2.98833 7.63763C3.94841 7.92336 4.64851 8.81274 4.64851 9.86563C4.64851 10.9185 3.94841 11.8079 2.98833 12.0936ZM2.98833 9.12316C2.8121 8.96543 2.57937 8.86952 2.32425 8.86952C2.08357 8.86952 1.86282 8.95488 1.69064 9.09699C1.68031 9.10551 1.67015 9.11424 1.66018 9.12316C1.45639 9.30556 1.32814 9.57062 1.32814 9.86563C1.32814 10.1606 1.45639 10.4257 1.66018 10.6081C1.83641 10.7658 2.06913 10.8617 2.32425 10.8617C2.56494 10.8617 2.78569 10.7764 2.95787 10.6343C2.9682 10.6258 2.97835 10.617 2.98833 10.6081C3.19211 10.4257 3.32036 10.1606 3.32036 9.86563C3.32036 9.57062 3.19211 9.30556 2.98833 9.12316Z" fill="#1F2C33"/>
</svg>
