<svg width="6mm" height="6mm" viewBox="0 0 6 6" xmlns="http://www.w3.org/2000/svg"><path d="M3.1556128 4.0250858c-.0236014-.0524038-.0480041-.1168093-.072006-.1924161-.0236014-.0752068-.0360038-.1600133-.0360038-.2532211 0-.1104092.028402-.2112176.084808-.3024252.056804-.091208.1280104-.178815.2140175-.263622.0856072-.084407.1784151-.1692142.2776232-.2536212.0988083-.0844071.191216-.1812151.2772232-.2908243.0860065-.1096094.1576131-.2300192.2140179-.3600301.0560052-.1300114.0848076-.2784232.0848076-.444837 0-.1760147-.0340035-.3296275-.1012091-.4620386-.0680056-.1324109-.1604134-.2424202-.277623-.3316275-.1172099-.0896076-.2548214-.1564131-.4116343-.202417C3.2524207.623202 3.0868069.6 2.9099922.6c-.382832 0-.7532628.1044083-1.1100927.311626v.7524628c.2940247-.2888241.6028503-.4332362.9276775-.4332362.1004077 0 .1944163.012005.2824236.035603.088007.024802.1664139.060405.2348195.1092087.068805.049205.1228102.1104093.1620135.1820152.039203.073207.058405.1580132.058405.2556214 0 .1084089-.026403.2076172-.080007.299625-.053605.091208-.1200104.1776149-.1988171.2600217-.080007.082407-.1652137.167214-.2580216.2532212-.092408.087207-.1788148.1768147-.2580214.2700224-.079207.092807-.1460123.1932162-.1988166.3012252-.053604.1072085-.080007.2268189-.080007.3588299 0 .085607.0072.1708143.022802.2572215.015201.087207.032803.1580131.052405.2120177h.6888575Zm.00999 1.2485042c.091608-.082407.1368122-.1844154.1368122-.3060257 0-.1236099-.045204-.2252187-.1368122-.3056253-.0936091-.087608-.2028169-.1300115-.3264273-.1300115-.12641 0-.2364196.042404-.3300275.1300115-.091608.080007-.136812.1820151-.136812.3056253 0 .1216097.045204.2236187.1368121.3060257.096008.084407.2056172.12641.3300275.12641.1212105 0 .2304192-.042003.3264272-.12641Z" style="stroke-width:.400033"/></svg>