<svg viewBox="0 0 16 16" xmlns="http://www.w3.org/2000/svg"><g fill="#1F2C33"><path d="m7.1333 5.2177c0.32576-0.19145 0.70876-0.26143 1.0812-0.19755s0.71021 0.2575 0.95355 0.54656c0.24334 0.28907 0.37652 0.65493 0.37596 1.0328-5.5e-4 0.36417-0.09568 0.54127-0.19661 0.65645-0.1237 0.14117-0.29269 0.2376-0.56643 0.39381l-0.00783 0.00447c-0.25196 0.14379-0.59036 0.33914-0.84983 0.67499-0.27204 0.35214-0.4233 0.80873-0.4233 1.421 0 0.2761 0.22385 0.5 0.5 0.5 0.27614 0 0.5-0.2239 0.5-0.5 0-0.4377 0.10389-0.66627 0.21466-0.80966 0.12335-0.15967 0.29542-0.27019 0.55412-0.41782l0.05533-0.03141c0.22867-0.12949 0.53662-0.30386 0.77536-0.57637 0.2826-0.3225 0.4437-0.74383 0.4445-1.314 9e-4 -0.61401-0.2155-1.2085-0.61091-1.6783-0.39542-0.46973-0.94433-0.78437-1.5495-0.88817s-1.2276 0.00992-1.7569 0.32103c-0.52936 0.31111-0.93153 0.79953-1.1353 1.3788-0.09164 0.2605 0.04525 0.54596 0.30574 0.63759 0.2605 0.09164 0.54596-0.04525 0.63759-0.30574 0.12539-0.35645 0.37289-0.65701 0.69865-0.84847z"/><path d="m8.0001 10.75c-0.41422 0-0.75 0.3358-0.75 0.75s0.33578 0.75 0.75 0.75h0.01c0.41421 0 0.75-0.3358 0.75-0.75s-0.33579-0.75-0.75-0.75h-0.01z"/><path d="m8 15c3.866 0 7-3.134 7-7 0-3.866-3.134-7-7-7-3.866 0-7 3.134-7 7 0 3.866 3.134 7 7 7zm6-7c0 3.3137-2.6863 6-6 6-3.3137 0-6-2.6863-6-6 0-3.3137 2.6863-6 6-6 3.3137 0 6 2.6863 6 6z" clip-rule="evenodd"/></g></svg>
