<svg viewBox="0 0 24 24" xmlns="http://www.w3.org/2000/svg"><g fill="#1F2C33"><path d="m10.653 7.8402c0.509-0.29915 1.1074-0.4085 1.6893-0.30868 0.5819 0.09981 1.1097 0.40234 1.49 0.85401 0.3802 0.45167 0.5883 1.0233 0.5874 1.6137-8e-4 0.56434-0.1509 0.86974-0.334 1.0786-0.2007 0.2291-0.4705 0.383-0.8402 0.5939l-0.0351 0.02c-0.3614 0.2062-0.8092 0.4671-1.1507 0.9092-0.3541 0.4583-0.56 1.0617-0.56 1.899 0 0.2761 0.2239 0.5 0.5 0.5s0.5-0.2239 0.5-0.5c0-0.6627 0.1586-1.0381 0.3514-1.2877 0.2053-0.2658 0.4868-0.4419 0.8549-0.652l0.0765-0.0434c0.3302-0.1873 0.7394-0.4193 1.0553-0.7799 0.3648-0.4163 0.5808-0.9659 0.5819-1.7363 0.0012-0.82651-0.2901-1.6268-0.8224-2.2592s-1.2712-1.0559-2.0859-1.1956-1.6525 0.01335-2.3651 0.43216c-0.71259 0.4188-1.254 1.0763-1.5283 1.856-0.09163 0.26049 0.04525 0.54595 0.30575 0.63759 0.26049 0.09163 0.54595-0.04525 0.63759-0.30575 0.19592-0.55694 0.58263-1.0266 1.0916-1.3257z"/><path d="m12 16.25c-0.4142 0-0.75 0.3358-0.75 0.75s0.3358 0.75 0.75 0.75h0.01c0.4142 0 0.75-0.3358 0.75-0.75s-0.3358-0.75-0.75-0.75h-0.01z"/><path d="m12 1.5c-5.799 0-10.5 4.701-10.5 10.5 0 5.799 4.701 10.5 10.5 10.5 5.799 0 10.5-4.701 10.5-10.5 0-5.799-4.701-10.5-10.5-10.5zm-9.5 10.5c0-5.2467 4.2533-9.5 9.5-9.5 5.2467 0 9.5 4.2533 9.5 9.5 0 5.2467-4.2533 9.5-9.5 9.5-5.2467 0-9.5-4.2533-9.5-9.5z" clip-rule="evenodd"/></g></svg>
