<svg xmlns="http://www.w3.org/2000/svg" width="24" height="24" viewBox="0 0 6.35 6.35"><path d="M2.91 1.323a.264.264 0 0 0-.264.264v.53c0 .146.118.264.264.264h.133v.53H1.299l-.003.002-.01.003h-.002l-.01.004H1.27a.124.124 0 0 0-.005.003l-.006.003-.006.004c-.002 0-.003.002-.005.003a.13.13 0 0 0-.005.004l-.005.003-.005.005-.005.004-.004.005-.004.004-.004.006a.13.13 0 0 0-.004.005c0 .002-.002.003-.003.005l-.003.006a.121.121 0 0 0-.004.008L1.2 2.99l-.001.003L1.196 3v.003l-.003.01v.003a.132.132 0 0 0-.002.01v.007l-.001.006v.268a.132.132 0 1 0 .264 0v-.132h1.588v.132a.132.132 0 1 0 .264 0v-.132h1.588v.132a.132.132 0 1 0 .264 0V3.03l-.001-.006a.13.13 0 0 0-.004-.02l-.003-.008-.002-.004a.132.132 0 0 0-.074-.072l-.01-.003a.13.13 0 0 0-.038-.006h-1.72v-.53h.133a.264.264 0 0 0 .264-.263v-.53a.264.264 0 0 0-.264-.264h-.53zm0 .264h.53v.53h-.53zM1.058 3.704a.264.264 0 0 0-.264.265v.529c0 .146.118.264.264.264h.53a.264.264 0 0 0 .264-.264v-.53a.264.264 0 0 0-.265-.264zm1.852 0a.264.264 0 0 0-.264.265v.529c0 .146.118.264.264.264h.53a.264.264 0 0 0 .264-.264v-.53a.264.264 0 0 0-.264-.264zm1.853 0a.264.264 0 0 0-.265.265v.529c0 .146.118.264.264.264h.53a.264.264 0 0 0 .264-.264v-.53a.264.264 0 0 0-.264-.264h-.53zm-3.705.265h.53v.529h-.53v-.53zm1.852 0h.53v.529h-.53v-.53zm1.853 0h.529v.529h-.53v-.53z" style="fill:#000;stroke:none;stroke-width:.259684;stroke-linecap:square;stroke-miterlimit:10"/></svg>
