<svg width="6mm" height="6mm" viewBox="0 0 6 6" xmlns="http://www.w3.org/2000/svg"><path d="M3.2391459 1.372457c.062058.076457.1645713.1141715.3075426.1141715.1522286 0 .2708572-.053829.3552002-.1611429.084-.1069714.1265138-.2266285.1265138-.35897136 0-.1083428-.035314-.19611425-.1056004-.26434283-.069943-.0678857-.1662857-.10217137-.2879999-.10217137-.1429714 0-.2605714.0473143-.3521142.14262856-.091543.0953143-.1371428.20982853-.1371428.3438857.0003427.1152.031543.2105142.093601.2859427zM2.0909174 3.0586283c.3192-.2077714.5225143-.3116572.612-.3116572.053486 0 .080915.030171.080915.090858 0 .1230851-.098399.5327999-.2955427 1.2277712-.088457.311314-.147086.5310854-.1738288.6575996-.027086.1258285-.040457.2396572-.040457.3394285 0 .099428.021942.180343.0672.2434286.044228.063085.1124567.093943.2036571.093943.072343 0 .1580571-.017486.2550857-.051428.097028-.03463.2595428-.1217155.4872-.2612586.2273138-.1395428.4227424-.263657.5873137-.371657l.014057-.042514-.077486-.1292572-.042172-.00377c-.305485.2009128-.4926849.3023985-.5633136.3023985-.025715 0-.049028-.011663-.068572-.034629-.019886-.022971-.029485-.049715-.029485-.079886 0-.1100568.101486-.5139428.3061714-1.2106284.116571-.4056.1937143-.6795428.2303999-.8249142.036343-.1453715.054515-.2650285.054515-.3606857 0-.071657-.021257-.1302857-.063429-.1772571-.042172-.046972-.092914-.069257-.1511999-.069257-.1292573 0-.3089143.061371-.5403428.1841142-.231086.1241142-.5530288.333943-.965486.6305144l-.00652.042172.069943.1134856z" style="stroke-width:.342857"/></svg>