<svg viewBox="0 0 24 24" xmlns="http://www.w3.org/2000/svg"><g fill="#1F2C33"><path d="m12.051 5.8653c0.0023-0.27613-0.2197-0.50186-0.4958-0.50417s-0.5019 0.21966-0.5042 0.49579l-0.0079 0.94445c-0.0023 0.27613 0.2197 0.50186 0.4958 0.50417 0.2762 0.00231 0.5019-0.21966 0.5042-0.4958l0.0079-0.94444z"/><path d="m12.028 8.6986c0.0023-0.27613-0.2197-0.50186-0.4958-0.50417-0.2762-0.00231-0.5019 0.21966-0.5042 0.4958l-0.0079 0.94444c-0.0023 0.27613 0.2197 0.5019 0.4958 0.5042s0.5018-0.21969 0.5042-0.49582l0.0079-0.94445z"/><path d="m14.228 12.937c-0.2416-0.1336-0.5459-0.0461-0.6795 0.1956-0.1337 0.2416-0.0461 0.5458 0.1955 0.6795l0.9944 0.55c0.2417 0.1336 0.5459 0.0461 0.6795-0.1956 0.1337-0.2416 0.0461-0.5459-0.1955-0.6795l-0.9944-0.55z"/><path d="m17.211 14.587c-0.2416-0.1336-0.5459-0.0461-0.6795 0.1956-0.1337 0.2416-0.0461 0.5459 0.1955 0.6795l0.9944 0.55c0.2417 0.1336 0.5459 0.0461 0.6795-0.1956 0.1337-0.2416 0.0461-0.5458-0.1955-0.6795l-0.9944-0.55z"/><path d="m9.3454 13.809c0.23968-0.1371 0.3228-0.4426 0.18565-0.6823-0.13714-0.2397-0.44262-0.3228-0.6823-0.1856l-0.96115 0.5499c-0.23968 0.1372-0.3228 0.4427-0.18565 0.6823 0.13714 0.2397 0.44262 0.3228 0.6823 0.1857l0.96115-0.55z"/><path d="m6.462 15.459c0.23968-0.1372 0.32279-0.4427 0.18565-0.6823-0.13715-0.2397-0.44262-0.3228-0.6823-0.1857l-0.96115 0.55c-0.23968 0.1371-0.3228 0.4426-0.18566 0.6823 0.13715 0.2397 0.44262 0.3228 0.6823 0.1856l0.96116-0.5499z"/></g><path d="m10.934 2.2463c0.177-0.07142 0.3593-0.1223 0.5661-0.1223 0.2068 1e-5 0.3891 0.0509 0.566 0.12232 0.1631 0.06583 0.3481 0.16064 0.5566 0.26756l7.0376 3.607c0.2473 0.12672 0.4654 0.23851 0.6379 0.35047 0.1868 0.12128 0.3553 0.26427 0.4813 0.47047s0.1764 0.42136 0.1991 0.64293c0.021 0.2045 0.021 0.44958 0.021 0.72742v8.0336c0 0.2679 0 0.5045-0.0198 0.7024-0.0214 0.2144-0.0688 0.4229-0.1874 0.6244s-0.2778 0.3443-0.4548 0.4671c-0.1634 0.1134-0.3702 0.2283-0.6044 0.3584l-6.0687 3.3717c-0.4569 0.2538-0.8307 0.4615-1.1549 0.603-0.3389 0.148-0.6577 0.2396-1.0095 0.2396s-0.6706-0.0916-1.0096-0.2395c-0.3242-0.1415-0.69785-0.3491-1.1548-0.603l-6.0696-3.3718c-0.2342-0.1301-0.44104-0.245-0.60444-0.3583-0.17708-0.1229-0.33629-0.2657-0.45486-0.4672s-0.16603-0.41-0.18746-0.6245c-0.01977-0.1979-0.01975-0.4345-0.01973-0.7023l1.5e-4 -8.0335c-1e-5 -0.27787-2e-5 -0.52297 0.02097-0.72749 0.02274-0.22157 0.07314-0.43673 0.19917-0.64293s0.29452-0.34919 0.48134-0.47047c0.17243-0.11195 0.39056-0.22373 0.63785-0.35045l7.0383-3.6071c0.2086-0.1069 0.3935-0.20171 0.5566-0.26753zm0.2032 1.0044c-0.0862 0.04171-0.1897 0.0946-0.3213 0.16204l-7.0003 3.5876c-0.09228 0.04729-0.17297 0.08872-0.24415 0.12595l7.5381 4.0935c0.0924-0.1181 0.2366-0.1935 0.3981-0.1921 0.1529 0.0013 0.2892 0.071 0.38 0.1799 0.0861-0.0485 0.1801-0.1013 0.2811-0.158 0.5707-0.3204 1.3678-0.7661 2.2734-1.2671 1.5267-0.8446 3.3657-1.8486 4.9491-2.6753-0.0619-0.0322-0.1307-0.06751-0.2075-0.10689l-6.9996-3.5876c-0.0502-0.02573-0.0963-0.04934-0.1389-0.07102 0.017 0.05099 0.026 0.10562 0.0255 0.16238l-4e-3 0.47222c-0.0023 0.27613-0.228 0.49811-0.5041 0.49579-0.2762-0.00231-0.4982-0.22803-0.4958-0.50417l0.0039-0.47222c8e-4 -0.08925 0.0248-0.17285 0.0664-0.24504zm1.2971 9.2662c-0.0906 0.1639-0.2598 0.2569-0.4347 0.2581l3e-4 8.8268c0.0349-0.0137 0.0714-0.0288 0.1097-0.0456 0.2752-0.1201 0.6072-0.3039 1.0902-0.5723l6.0283-3.3492c0.2594-0.1442 0.4219-0.2351 0.5393-0.3166 0.0633-0.0439 0.1017-0.0773 0.1265-0.1041l-0.1839-0.1017c-0.2416-0.1337-0.3292-0.4379-0.1955-0.6796 0.0993-0.1796 0.293-0.2741 0.4851-0.2558v-7.8417c0-0.16952-2e-4 -0.30431-0.0029-0.41584-1.6024 0.83375-3.4981 1.8684-5.0704 2.7382-0.9034 0.4998-1.6986 0.9444-2.268 1.2641-0.0768 0.0431-0.1496 0.084-0.2179 0.1224 0.0745 0.1436 0.0781 0.3207-0.0061 0.4729zm-1.8492 0.0063c-0.084-0.1467-0.0854-0.3182-0.0189-0.4605l-7.5643-4.1078c-0.00197 0.10438-0.00213 0.22839-0.00213 0.38029l-1.5e-4 7.9524 0.08187-0.0469c0.23967-0.1371 0.54515-0.054 0.6823 0.1857 0.13714 0.2397 0.05402 0.5451-0.18566 0.6823l-0.35517 0.2032c0.0029 0.0021 0.00584 0.0041 0.00884 0.0062 0.11746 0.0815 0.27993 0.1724 0.53939 0.3166l6.0291 3.3493c0.48302 0.2683 0.81502 0.4522 1.0902 0.5723 0.0382 0.0166 0.0746 0.0317 0.1094 0.0454l-3e-4 -8.8271c-0.1664-0.0066-0.3257-0.0962-0.4145-0.2514z" clip-rule="evenodd" fill="#1f2c33"/></svg>
