<svg viewBox="0 0 16 16" xmlns="http://www.w3.org/2000/svg"><g fill="#1F2C33"><path d="m10.531 8.8114c-0.2424-0.13223-0.54615-0.0429-0.67838 0.19952-0.13223 0.24243-0.0429 0.54615 0.19948 0.67838l0.9167 0.50004c0.2424 0.1322 0.5461 0.0429 0.6784-0.19956 0.1322-0.24243 0.0429-0.54615-0.1995-0.67838l-0.9167-0.5z"/><path d="m5.9478 9.6893c0.24242-0.13223 0.33175-0.43595 0.19952-0.67838-0.13223-0.24242-0.43595-0.33175-0.67837-0.19952l-0.91667 0.5c-0.24242 0.13223-0.33175 0.43595-0.19952 0.67838 0.13223 0.24246 0.43595 0.33176 0.67837 0.19956l0.91667-0.50004z"/><path d="m8.5 4.5003c0-0.27614-0.22386-0.5-0.5-0.5s-0.5 0.22386-0.5 0.5v1c0 0.27614 0.22386 0.5 0.5 0.5s0.5-0.22386 0.5-0.5v-1z"/></g><path d="m7.0556 1.0063c0.4623-0.24766 0.69346-0.37149 0.94444-0.37149s0.48214 0.12383 0.94444 0.37149l5 2.6786c0.5144 0.27554 0.7715 0.4133 0.9136 0.65052 0.142 0.23722 0.142 0.52896 0.142 1.1124v5.105c0 0.5835 0 0.8753-0.142 1.1125-0.1421 0.2372-0.3992 0.375-0.9136 0.6505l-5 2.6786c-0.4623 0.2476-0.69346 0.3715-0.94444 0.3715s-0.48214-0.1239-0.94444-0.3715l-5-2.6786c-0.51433-0.2755-0.7715-0.4133-0.91353-0.6505s-0.14203-0.529-0.14203-1.1125v-5.105c0-0.58348 0-0.87522 0.14203-1.1124s0.3992-0.37498 0.91353-0.65052zm1.8683 7.0616c0.05199 0.13283 0.04707 0.28687-0.02658 0.4219-0.08354 0.15316-0.23554 0.24521-0.39728 0.25889v5.3494l4.8773-2.6129c-0.0398-0.0101-0.079-0.0253-0.1167-0.0458l-0.4584-0.25c-0.2424-0.1323-0.3317-0.436-0.1995-0.6784 0.1323-0.2424 0.436-0.3318 0.6784-0.1995l0.4583 0.25c0.15 0.0818 0.2414 0.2293 0.258 0.3873 0.0022-0.0974 0.0026-0.2234 0.0026-0.3959l-1e-4 -5.2396zm-6.9237-2.7546-1.2e-4 5.2396c0 0.1724 3.6e-4 0.2984 0.00263 0.3959 0.01655-0.158 0.10793-0.3055 0.25794-0.3873l0.45834-0.25c0.24242-0.1323 0.54614-0.0429 0.67837 0.1995s0.0429 0.5461-0.19952 0.6784l-0.45833 0.25c-0.03773 0.0205-0.07693 0.0357-0.11674 0.0458l4.8773 2.6129v-5.3494c-0.16174-0.01368-0.31374-0.10573-0.39728-0.25889-0.07365-0.13503-0.07857-0.28907-0.02658-0.4219zm11.375-0.79882-4.886-2.6175c0.00702 0.03337 0.01071 0.06796 0.01071 0.10342v0.5c0 0.27614-0.22386 0.5-0.5 0.5s-0.5-0.22386-0.5-0.5v-0.5c0-0.03546 0.00369-0.07005 0.01071-0.10342l-4.886 2.6175 4.9679 2.696c0.09066-0.12714 0.23934-0.21004 0.40739-0.21004s0.31673 0.0829 0.40739 0.21004z" clip-rule="evenodd" fill="#1f2c33"/></svg>
