<svg fill="none" version="1.1" viewBox="0 0 24 24" xmlns="http://www.w3.org/2000/svg">
 <path d="m12.802 2.0308c-0.1994-0.041-0.405-0.041-0.6044 0-0.2274 0.04677-0.4341 0.16191-0.6688 0.29271l-7.5006 4.167c-0.24804 0.1374-0.46628 0.25828-0.63142 0.43748-0.14472 0.15704-0.25423 0.34316-0.32123 0.54593-0.07645 0.23139-0.07613 0.48087-0.07577 0.76442v8.2355c-3.6e-4 0.2835-6.8e-4 0.533 0.07577 0.7644 0.067 0.2028 0.17651 0.3889 0.32123 0.5459 0.16514 0.1792 0.38338 0.3001 0.63143 0.4375l7.5005 4.167c0.2348 0.1308 0.4415 0.246 0.6689 0.2927 0.1994 0.041 0.405 0.041 0.6044 0 0.2273-0.0467 0.434-0.1619 0.6688-0.2927l7.5006-4.167c0.248-0.1374 0.4663-0.2582 0.6314-0.4375 0.1447-0.157 0.2543-0.3431 0.3213-0.5459 0.0764-0.2314 0.0761-0.4809 0.0757-0.7644v-8.2355c4e-4 -0.28356 7e-4 -0.53304-0.0757-0.76444-0.067-0.20276-0.1766-0.38888-0.3213-0.54592-0.1651-0.17921-0.3834-0.30009-0.6314-0.43748l-7.5006-4.167c-0.2348-0.1308-0.4414-0.24594-0.6688-0.29271zm-0.4029 0.9795c0.0664-0.01367 0.1349-0.01367 0.2014 0 0.0573 0.01179 0.1216 0.04127 0.4335 0.21455l7.4361 4.1312-3.1504 1.7502-7.9209-4.4555 2.5668-1.426c0.3119-0.17328 0.3761-0.20276 0.4335-0.21455zm3.8944 6.6661-3.7938 2.1076-7.9703-4.428 3.8432-2.1352zm-3.2938 2.9738 7.9999-4.4444 2e-4 0.09166v8.1171c0 0.377-6e-3 0.4517-0.0253 0.5099-0.0223 0.0676-0.0588 0.1296-0.107 0.182-0.0416 0.0451-0.1039 0.0866-0.4335 0.2697l-7.4342 4.1301zm-1 0 1e-4 8.8561-7.4342-4.1301c-0.32961-0.1831-0.39191-0.2246-0.43348-0.2697-0.04824-0.0524-0.08474-0.1144-0.10707-0.182-0.01924-0.0582-0.02524-0.1329-0.02524-0.5099v-8.1171l1.4e-4 -0.09162z" clip-rule="evenodd" fill="#1f2c33"/>
</svg>
