<svg fill="none" version="1.1" viewBox="0 0 12 12" xmlns="http://www.w3.org/2000/svg">
    <path d="m11 8.1206v-0.02065c0-0.27614-0.2239-0.5-0.5-0.5s-0.5 0.22386-0.5 0.5c0 0.42829-3.9e-4 0.71944-0.01878 0.94448-0.01791 0.21921-0.05037 0.33131-0.09021 0.40951-0.09588 0.18816-0.24886 0.34114-0.43702 0.43702-0.0782 0.03984-0.1903 0.0723-0.40951 0.09021-0.22504 0.01839-0.51619 0.01878-0.94448 0.01878h-4.2c-0.42829 0-0.71944-3.9e-4 -0.94448-0.01878-0.21921-0.01791-0.33131-0.05037-0.40951-0.09021-0.18816-0.09588-0.34114-0.24886-0.43702-0.43702-0.03984-0.0782-0.0723-0.1903-0.09021-0.40951-0.01839-0.22504-0.01878-0.51619-0.01878-0.94448v-4.2c0-0.42829 3.9e-4 -0.71944 0.01878-0.94448 0.01791-0.21921 0.05037-0.33131 0.09021-0.40951 0.09588-0.18816 0.24886-0.34114 0.43702-0.43702 0.0782-0.03984 0.1903-0.0723 0.40951-0.09021 0.22504-0.01839 0.51619-0.01878 0.94448-0.01878 0.27614 0 0.5-0.22386 0.5-0.5s-0.22386-0.5-0.5-0.5h-0.02066c-0.40248-6e-6 -0.73466-1.1e-5 -1.0052 0.0221-0.28105 0.02296-0.5394 0.07224-0.78207 0.19589-0.37633 0.19174-0.68229 0.4977-0.87403 0.87403-0.12365 0.24267-0.17293 0.50102-0.19589 0.78207-0.022111 0.27059-0.022106 0.60277-0.0221 1.0052v4.2413c-6e-6 0.40248-1.1e-5 0.73466 0.0221 1.0052 0.02296 0.28105 0.07224 0.5394 0.19589 0.78207 0.19174 0.37632 0.4977 0.68232 0.87403 0.87402 0.24267 0.1237 0.50102 0.1729 0.78207 0.1959 0.27059 0.0221 0.60277 0.0221 1.0053 0.0221h4.2413c0.40248 0 0.73467 0 1.0053-0.0221 0.28105-0.023 0.5394-0.0722 0.78207-0.1959 0.37632-0.1917 0.68232-0.4977 0.87402-0.87402 0.1237-0.24267 0.1729-0.50102 0.1959-0.78207 0.0221-0.27059 0.0221-0.60278 0.0221-1.0053zm-0.5-3.1206c0.2761 0 0.5-0.22386 0.5-0.5v-3c0-0.27614-0.2239-0.5-0.5-0.5h-3c-0.27615 0-0.5 0.22386-0.5 0.5-1e-5 0.27614 0.22385 0.5 0.49999 0.5h1.7929l-3.6464 3.6464c-0.19527 0.19526-0.19527 0.51184 0 0.7071 0.19526 0.19527 0.51184 0.19527 0.7071 0l3.6464-3.6464v1.7929c0 0.27614 0.2239 0.5 0.5 0.5z" clip-rule="evenodd" fill="#1F2C33"/>
</svg>
