<svg xmlns="http://www.w3.org/2000/svg" width="18" height="18" fill="none"><path fill="#1F2C33" fill-rule="evenodd" d="M5.945 2h.022a.5.5 0 0 1 0 1c-.615 0-1.046 0-1.383.028-.33.027-.524.077-.674.154-.314.16-.569.414-.728.728-.077.15-.127.344-.154.674C3 4.921 3 5.352 3 5.967v6.066c0 .615 0 1.046.028 1.383.027.33.077.524.154.674.16.314.414.569.728.728.15.077.344.127.674.154.337.028.768.028 1.383.028h6.066c.615 0 1.046 0 1.383-.028.33-.027.524-.077.674-.154.314-.16.569-.414.728-.728.077-.15.127-.344.154-.674.028-.337.028-.768.028-1.383a.5.5 0 0 1 1 0v.022c0 .588 0 1.06-.031 1.442-.032.392-.1.733-.26 1.047-.255.502-.663.91-1.165 1.165-.314.16-.655.228-1.047.26-.382.031-.854.031-1.442.031h-6.11c-.588 0-1.06 0-1.442-.031-.392-.032-.733-.1-1.047-.26a2.667 2.667 0 0 1-1.165-1.165c-.16-.314-.228-.655-.26-1.047C2 13.115 2 12.643 2 12.055v-6.11c0-.588 0-1.06.031-1.442.032-.392.1-.733.26-1.047.255-.502.663-.91 1.165-1.165.314-.16.655-.228 1.047-.26C4.885 2 5.357 2 5.945 2Zm4.722.5a.5.5 0 0 1 .5-.5H15.5a.5.5 0 0 1 .5.5v4.333a.5.5 0 0 1-1 0V3.707L9.354 9.354a.5.5 0 1 1-.708-.708L14.293 3h-3.126a.5.5 0 0 1-.5-.5Z" clip-rule="evenodd"/></svg>