<svg width="6mm" height="6mm" viewBox="0 0 6 6" xmlns="http://www.w3.org/2000/svg"><path d="M4.542747 2.4286694h-.2571245v-.522477C4.2856225 1.1852154 3.7096637.6 3.0000001.6c-.7096636 0-1.2856225.5852154-1.2856225 1.3061924v.522477h-.2571245c-.282837 0-.514249.2351833-.514249.522477V4.877523c0 .2872939.231412.522477.514249.522477H4.542747c.2828369 0 .5142489-.2351831.5142489-.522477V2.9511464c0-.2872937-.231412-.522477-.5142489-.522477zM3.0000001 4.4366403c-.2828371 0-.514249-.2351832-.514249-.522477 0-.2872937.2314119-.5224769.514249-.5224769.2828368 0 .5142489.2351832.5142489.5224769 0 .2876366-.2314121.522477-.5142489.522477zm.7970858-2.0079709H2.2029141v-.522477c0-.4467109.3575744-.8097707.797086-.8097707.4395114 0 .7970858.3630598.7970858.8097707z" style="stroke-width:.342832"/></svg>