<svg width="24" height="24" viewBox="0 0 24 24" xmlns="http://www.w3.org/2000/svg"><path fill-rule="evenodd" clip-rule="evenodd" d="M14.6111 6C12.6167 6 11 7.61675 11 9.61111C11 11.6055 12.6167 13.2222 14.6111 13.2222C15.428 13.2222 16.1815 12.951 16.7866 12.4936L19.1464 14.8536C19.3417 15.0488 19.6583 15.0488 19.8535 14.8536C20.0488 14.6583 20.0488 14.3417 19.8536 14.1465L17.4937 11.7865C17.951 11.1815 18.2222 10.428 18.2222 9.61111C18.2222 7.61675 16.6055 6 14.6111 6ZM12 9.61111C12 8.16903 13.169 7 14.6111 7C16.0532 7 17.2222 8.16903 17.2222 9.61111C17.2222 11.0532 16.0532 12.2222 14.6111 12.2222C13.169 12.2222 12 11.0532 12 9.61111Z" fill="#1F2C33"/><path d="M4 9.5C4 9.22386 4.22386 9 4.5 9C4.77614 9 5 9.22386 5 9.5V14.5C5 14.7761 4.77614 15 4.5 15C4.22386 15 4 14.7761 4 14.5V9.5Z" fill="#1F2C33"/><path d="M7.5 11C7.22386 11 7 11.2239 7 11.5V14.5C7 14.7761 7.22386 15 7.5 15C7.77614 15 8 14.7761 8 14.5V11.5C8 11.2239 7.77614 11 7.5 11Z" fill="#1F2C33"/><path fill-rule="evenodd" clip-rule="evenodd" d="M17.7222 3H6.27779C5.45652 3 4.80955 2.99999 4.28889 3.04253C3.75771 3.08593 3.31414 3.17609 2.91103 3.38148C2.25247 3.71703 1.71703 4.25247 1.38148 4.91103C1.17609 5.31414 1.08593 5.75771 1.04253 6.28889C0.999994 6.80955 0.999997 7.45652 1 8.27779V12.7222C0.999997 13.5435 0.999994 14.1905 1.04253 14.7111C1.08593 15.2423 1.17609 15.6859 1.38148 16.089C1.71703 16.7475 2.25247 17.283 2.91103 17.6185C3.31414 17.8239 3.75771 17.9141 4.28889 17.9575C4.80951 18 5.45644 18 6.27764 18H17.7222C18.5434 18 19.1905 18 19.7111 17.9575C20.2423 17.9141 20.6859 17.8239 21.089 17.6185C21.7475 17.283 22.283 16.7475 22.6185 16.089C22.8239 15.6859 22.9141 15.2423 22.9575 14.7111C23 14.1905 23 13.5435 23 12.7222V8.27778C23 7.45651 23 6.80954 22.9575 6.28889C22.9141 5.75771 22.8239 5.31414 22.6185 4.91103C22.283 4.25247 21.7475 3.71703 21.089 3.38148C20.6859 3.17609 20.2423 3.08593 19.7111 3.04253C19.1905 2.99999 18.5435 3 17.7222 3ZM3.36502 4.27248C3.60366 4.15089 3.90099 4.07756 4.37032 4.03921C4.8455 4.00039 5.45167 4 6.3 4H17.7C18.5483 4 19.1545 4.00039 19.6297 4.03921C20.099 4.07756 20.3963 4.15089 20.635 4.27248C21.1054 4.51217 21.4878 4.89462 21.7275 5.36502C21.8491 5.60366 21.9224 5.90099 21.9608 6.37032C21.9996 6.8455 22 7.45167 22 8.3V12.7C22 13.5483 21.9996 14.1545 21.9608 14.6297C21.9224 15.099 21.8491 15.3963 21.7275 15.635C21.4878 16.1054 21.1054 16.4878 20.635 16.7275C20.3963 16.8491 20.099 16.9224 19.6297 16.9608C19.1545 16.9996 18.5483 17 17.7 17H6.3C5.45167 17 4.8455 16.9996 4.37032 16.9608C3.90099 16.9224 3.60366 16.8491 3.36502 16.7275C2.89462 16.4878 2.51217 16.1054 2.27248 15.635C2.15089 15.3963 2.07756 15.099 2.03921 14.6297C2.00039 14.1545 2 13.5483 2 12.7V8.3C2 7.45167 2.00039 6.8455 2.03921 6.37032C2.07756 5.90099 2.15089 5.60366 2.27248 5.36502C2.51217 4.89462 2.89462 4.51217 3.36502 4.27248Z" fill="#1F2C33"/><path d="M8.5 20C8.22386 20 8 20.2239 8 20.5C8 20.7761 8.22386 21 8.5 21H15.5C15.7761 21 16 20.7761 16 20.5C16 20.2239 15.7761 20 15.5 20H8.5Z" fill="#1F2C33"/><path d="M10.5 13.9936C10.2239 13.9936 10 14.2175 10 14.4936C10 14.7698 10.2239 14.9936 10.5 14.9936C10.7761 14.9936 11 14.7698 11 14.4936C11 14.2175 10.7761 13.9936 10.5 13.9936Z" fill="#1F2C33"/><path d="M10.5 12.9936C10.2239 12.9936 10 13.2175 10 13.4936V14.4936C10 14.7698 10.2239 14.9936 10.5 14.9936C10.7761 14.9936 11 14.7698 11 14.4936V13.4936C11 13.2175 10.7761 12.9936 10.5 12.9936Z" fill="#1F2C33"/></svg>
