<svg width="6mm" height="6mm" viewBox="0 0 6 6" xmlns="http://www.w3.org/2000/svg"><path d="M4.8665999.60000001h-3.7332C.83999998.60000001.59999999.84.59999999 1.1334v3.7331999c0 .2934.23999999.5334001.53339991.5334001h3.7332C5.1599999 5.4 5.4 5.1599999 5.4 4.8665999V1.1334C5.4.84 5.1599999.60000001 4.8665999.60000001ZM2.0999999 1.5c.3315 0 .6000001.2685.6000001.6 0 .3314999-.2685001.6-.6000001.6S1.5 2.4314999 1.5 2.1c0-.3315.2684999-.6.5999999-.6Zm-.9666 3.0999L2.0667 3.3998999l.6665999.5028001L3.6666 2.4l1.1999999 2.1999Z" style="stroke-width:.3"/></svg>