<svg xmlns="http://www.w3.org/2000/svg" width="20" height="20" fill="none"><path fill="#94969c" fill-rule="evenodd" d="M9.25 12.129v2.24a2.423 2.423 0 0 0-1.548 1.548H2.5a.75.75 0 0 0 0 1.5h5.202a2.418 2.418 0 0 0 4.596 0H17.5a.75.75 0 0 0 0-1.5h-5.202a2.423 2.423 0 0 0-1.548-1.548v-2.24a.75.75 0 0 0-1.5 0zm1.667 4.538a.917.917 0 1 1-1.834 0 .917.917 0 0 1 1.834 0zM1.25 6c0 .967.783 1.75 1.75 1.75h14A1.75 1.75 0 0 0 18.75 6V3A1.75 1.75 0 0 0 17 1.25H3A1.75 1.75 0 0 0 1.25 3ZM17 2.75a.25.25 0 0 1 .25.25v3a.25.25 0 0 1-.25.25H3A.25.25 0 0 1 2.75 6V3A.25.25 0 0 1 3 2.75Z" clip-rule="evenodd" style="fill-rule:nonzero"/><path fill="#94969C" fill-rule="evenodd" d="M3.75 4.5a.75.75 0 1 1 1.5 0 .75.75 0 0 1-1.5 0ZM3.75 9.5a.75.75 0 1 1 1.5 0 .75.75 0 0 1-1.5 0Z" clip-rule="evenodd"/><path fill="#94969c" fill-rule="evenodd" d="M1.25 11c0 .967.783 1.75 1.75 1.75h14A1.75 1.75 0 0 0 18.75 11V8A1.75 1.75 0 0 0 17 6.25H3A1.75 1.75 0 0 0 1.25 8ZM17 7.75a.25.25 0 0 1 .25.25v3a.25.25 0 0 1-.25.25H3a.25.25 0 0 1-.25-.25V8A.25.25 0 0 1 3 7.75Z" clip-rule="evenodd" style="fill-rule:nonzero"/></svg>