<svg xmlns="http://www.w3.org/2000/svg" width="20" height="20" fill="none"><path fill="#94969C" fill-rule="evenodd" d="M10 15.75a.917.917 0 1 1 0 1.833.917.917 0 0 1 0-1.833Zm-7-11h14a.25.25 0 0 1 .25.25v3a.25.25 0 0 1-.25.25H3A.25.25 0 0 1 2.75 8V5A.25.25 0 0 1 3 4.75ZM1.25 5v3c0 .967.783 1.75 1.75 1.75h6.25v4.619a2.423 2.423 0 0 0-1.548 1.548H2.5a.75.75 0 0 0 0 1.5h5.202a2.418 2.418 0 0 0 4.596 0H17.5a.75.75 0 0 0 0-1.5h-5.202a2.423 2.423 0 0 0-1.548-1.548V9.75H17A1.75 1.75 0 0 0 18.75 8V5A1.75 1.75 0 0 0 17 3.25H3A1.75 1.75 0 0 0 1.25 5Z" clip-rule="evenodd" style="fill-rule:nonzero"/><path fill="#94969C" fill-rule="evenodd" d="M3.75 6.5a.75.75 0 1 1 1.5 0 .75.75 0 0 1-1.5 0Z" clip-rule="evenodd"/></svg>