<svg width="6mm" height="6mm" viewBox="0 0 6 6" xmlns="http://www.w3.org/2000/svg"><path d="M4.632343 3.7285715C4.3525715 4.3570286 3.7323429 4.8 3 4.8c-.9939429 0-1.8-.8057142-1.8-1.8 0-.9936.8060571-1.8 1.8-1.8.4974857 0 .9418286.2070856 1.2661715.5341714v.0003428l-.9668571.9661716L5.4 2.7V.6l-.7056.7052571c-.0006856-.0003428-.00446.00343-.00548.00343C4.2555429.8749714 3.6624.6 3 .6 1.6748571.6.6 1.6748571.6 3 .6 4.3258285 1.6748571 5.4 3 5.4c1.0704001 0 1.9669715-.7042285 2.2765714-1.6714285Z" style="stroke-width:.342857"/></svg>