<svg viewBox="0 0 24 24" xmlns="http://www.w3.org/2000/svg"><path d="m14 3.1129v3.8065c0 0.26357 0 0.49094 0.0153 0.67823 0.0161 0.19767 0.0518 0.39428 0.1482 0.58347 0.1438 0.28224 0.3733 0.51171 0.6555 0.65552 0.1892 0.0964 0.3858 0.13206 0.5835 0.14821 0.1873 0.0153 0.4147 0.01529 0.6782 0.01528h3.8065c0.0163 0.05244 0.0309 0.10545 0.0437 0.15896 0.0659 0.27433 0.0691 0.57163 0.0691 1.3292v7.2118c0 0.8483-4e-4 1.4545-0.0392 1.9297-0.0384 0.4693-0.1117 0.7667-0.2333 1.0053-0.2397 0.4704-0.6221 0.8528-1.0925 1.0925-0.2387 0.1216-0.536 0.195-1.0053 0.2333-0.4752 0.0388-1.0814 0.0392-1.9297 0.0392h-6.4c-0.84833 0-1.4545-4e-4 -1.9297-0.0392-0.46933-0.0383-0.76666-0.1117-1.0053-0.2333-0.4704-0.2397-0.85285-0.6221-1.0925-1.0925-0.12159-0.2386-0.19492-0.536-0.23327-1.0053-0.03882-0.4752-0.03921-1.0814-0.03921-1.9297v-10.4c0-0.84833 3.9e-4 -1.4545 0.03921-1.9297 0.03835-0.46933 0.11168-0.76666 0.23327-1.0053 0.23969-0.47041 0.62214-0.85286 1.0925-1.0925 0.23864-0.12159 0.53597-0.19493 1.0053-0.23328 0.47517-0.03882 1.0814-0.03921 1.9297-0.03921h3.2118c0.7575 0 1.0548 0.00322 1.3292 0.06908 0.0535 0.01285 0.1065 0.02745 0.159 0.04377zm0.6993-0.802c-0.2008-0.09079-0.41-0.16255-0.6249-0.21414-0.4035-0.09687-0.826-0.09681-1.4983-0.09671h-3.2983c-0.82127 0-1.4682 0-1.9889 0.04253-0.53118 0.0434-0.97475 0.13356-1.3779 0.33895-0.65856 0.33556-1.194 0.87099-1.5296 1.5296-0.20539 0.40311-0.29555 0.84669-0.33895 1.3779-0.04254 0.52066-0.04253 1.1676-0.04253 1.9889v10.444c0 0.8213-1e-5 1.4683 0.04253 1.9889 0.0434 0.5312 0.13356 0.9748 0.33895 1.3779 0.33555 0.6585 0.87099 1.194 1.5296 1.5295 0.40311 0.2054 0.84668 0.2956 1.3779 0.339 0.52065 0.0425 1.1676 0.0425 1.9889 0.0425h6.4444c0.8213 0 1.4683 0 1.9889-0.0425 0.5312-0.0434 0.9748-0.1336 1.3779-0.339 0.6585-0.3355 1.194-0.871 1.5295-1.5295 0.2054-0.4031 0.2956-0.8467 0.339-1.3779 0.0425-0.5206 0.0425-1.1676 0.0425-1.9889v-7.2983c1e-4 -0.6723 2e-4 -1.0948-0.0967-1.4983-0.0514-0.21417-0.1229-0.42269-0.2132-0.62285-0.0027-0.00636-0.0056-0.01266-0.0086-0.01888-0.0582-0.12696-0.1241-0.25051-0.1973-0.36995-0.2168-0.35379-0.5156-0.65253-0.991-1.1278-0.015-0.01499-0.0302-0.03015-0.0455-0.0455l-3.1883-3.1882c-0.0153-0.01535-0.0305-0.03052-0.0455-0.04551-0.4753-0.47545-0.774-0.77427-1.1278-0.99107-0.12-0.07355-0.2442-0.13968-0.3718-0.19811-5e-3 -0.00235-0.0099-0.00461-0.015-0.0068zm0.853 1.9486 3.1883 3.1882c0.2374 0.23743 0.4104 0.41137 0.5424 0.5524h-3.183c-0.2883 0-0.4744-3.9e-4 -0.6161-0.01196-0.1358-0.0111-0.1862-0.02994-0.2109-0.04253-0.0941-0.04794-0.1706-0.12443-0.2185-0.21851-0.0126-0.02472-0.0314-0.07508-0.0425-0.21091-0.0116-0.14167-0.012-0.32781-0.012-0.61609v-3.183c0.141 0.13192 0.3149 0.30495 0.5523 0.54234zm-3.5523 6.7406v7.5c0 0.2762 0.2239 0.5 0.5 0.5s0.5-0.2238 0.5-0.5v-7.5c0-0.2761-0.2239-0.5-0.5-0.5s-0.5 0.2239-0.5 0.5zm4 2.5v5c0 0.2762 0.2239 0.5 0.5 0.5s0.5-0.2238 0.5-0.5v-5c0-0.2761-0.2239-0.5-0.5-0.5s-0.5 0.2239-0.5 0.5zm-8 2v3c0 0.2762 0.22386 0.5 0.5 0.5s0.5-0.2238 0.5-0.5v-3c0-0.2761-0.22386-0.5-0.5-0.5s-0.5 0.2239-0.5 0.5z" clip-rule="evenodd" fill="#1f2c33"/></svg>
