<svg xmlns="http://www.w3.org/2000/svg" width="24" height="24" viewBox="0 0 6.35 6.35"><path d="M1.72.794a.528.528 0 0 0-.53.529v3.704c0 .293.237.53.53.53h2.91c.293 0 .53-.237.53-.53V2.381L3.571.794zm.143.403h1.709v.655c0 .293.236.53.529.53h.673V4.9a.264.264 0 0 1-.265.265H1.863A.264.264 0 0 1 1.6 4.9v-3.44c0-.146.118-.264.264-.264zM3.83 2.646a.132.132 0 0 0-.126.132V4.63c0 .073.06.133.132.133h.265a.132.132 0 0 0 .132-.133V2.778a.132.132 0 0 0-.132-.132H3.83zm-.794.529a.132.132 0 0 0-.126.132V4.63c0 .073.06.132.133.132h.264a.132.132 0 0 0 .133-.132V3.307a.132.132 0 0 0-.133-.132h-.271zm-.792.53a.132.132 0 0 0-.127.13v.797c0 .072.06.13.134.13h.26a.132.132 0 0 0 .135-.13v-.797c0-.073-.06-.13-.135-.13h-.267z" style="fill:#000;stroke-width:.256181;stroke-linecap:square;stroke-miterlimit:10;stroke:none"/></svg>
