<svg viewBox="0 0 16 16" xmlns="http://www.w3.org/2000/svg"><path d="m6.6667 2.5c-2.3012 0-4.1667 1.8655-4.1667 4.1667 0 2.3012 1.8655 4.1666 4.1667 4.1666 2.3012 0 4.1666-1.8654 4.1666-4.1666 0-2.3012-1.8654-4.1667-4.1666-4.1667zm-5.1667 4.1667c0-2.8535 2.3132-5.1667 5.1667-5.1667s5.1666 2.3132 5.1666 5.1667c0 1.2467-0.4415 2.3902-1.1767 3.2828l3.697 3.6971c0.1952 0.1952 0.1952 0.5118 0 0.7071-0.1953 0.1952-0.5119 0.1952-0.7072 0l-3.6969-3.6971c-0.89257 0.7353-2.0361 1.1768-3.2828 1.1768-2.8535 0-5.1667-2.3132-5.1667-5.1666z" clip-rule="evenodd" fill="#1F2C33"/></svg>
