<svg width="6mm" height="6mm" viewBox="0 0 6 6" xmlns="http://www.w3.org/2000/svg"><path style="fill:#000;stroke-width:.400014" d="m4.1647744 3.7411139-.1060023.1064054-.290806-.2912151c.5972123-.7064367.5700119-1.7612915-.097202-2.4285262-.7032146-.70283663-1.8424382-.70403661-2.5444529-.0016002-.70241447.7020366-.70161447 1.8416958.0016 2.5445323.6672138.6676348 1.7220357.694436 2.4284502.097205l.2912063.2912152-.1064022.1060056L4.9759912 5.4 5.4 4.975978ZM1.5519201 3.247088c-.4688098-.4688242-.4700097-1.2280638-.0016-1.696888.4680098-.4680244 1.2280255-.4672244 1.6968353.0016.4688096.4688243.4692097 1.2284638.0011999 1.6964882-.4684097.4684244-1.2276254.4676243-1.6964352-.0012002Z"/></svg>