<svg width="40" height="40" viewBox="0 0 40 40" xmlns="http://www.w3.org/2000/svg"><path fill-rule="evenodd" clip-rule="evenodd" d="M16.6667 5.5C10.4995 5.5 5.5 10.4995 5.5 16.6667C5.5 22.8338 10.4995 27.8333 16.6667 27.8333C22.8338 27.8333 27.8333 22.8338 27.8333 16.6667C27.8333 10.4995 22.8338 5.5 16.6667 5.5ZM4.5 16.6667C4.5 9.9472 9.9472 4.5 16.6667 4.5C23.3861 4.5 28.8333 9.9472 28.8333 16.6667C28.8333 19.8465 27.6135 22.7414 25.6162 24.9089L35.3536 34.6464C35.5488 34.8417 35.5488 35.1583 35.3535 35.3536C35.1583 35.5488 34.8417 35.5488 34.6464 35.3535L24.9091 25.6161C22.7415 27.6134 19.8466 28.8333 16.6667 28.8333C9.9472 28.8333 4.5 23.3861 4.5 16.6667Z" fill="#1F2C33"/></svg>
