<svg width="24" height="24" viewBox="0 0 24 24" fill="none" xmlns="http://www.w3.org/2000/svg">
<path fill-rule="evenodd" clip-rule="evenodd" d="M12.1001 2C11.8276 1.99999 11.5926 1.99998 11.3992 2.0163C11.195 2.03353 10.9921 2.07161 10.7981 2.17435C10.5324 2.31505 10.3151 2.53237 10.1744 2.79811C10.0716 2.99215 10.0335 3.195 10.0163 3.39922C9.99998 3.59259 9.99999 3.82762 10 4.10007V4.89994C9.99999 5.17238 9.99998 5.40741 10.0163 5.60079C10.0335 5.805 10.0716 6.00785 10.1744 6.2019C10.3151 6.46763 10.5324 6.68495 10.7981 6.82565C10.9921 6.92839 11.195 6.96647 11.3992 6.9837C11.5926 7.00002 11.8276 7.00001 12.1001 7H12.8999C13.1724 7.00001 13.4074 7.00002 13.6008 6.9837C13.805 6.96647 14.0079 6.92839 14.2019 6.82565C14.4676 6.68495 14.6849 6.46763 14.8256 6.2019C14.9284 6.00785 14.9665 5.805 14.9837 5.60079C15 5.40741 15 5.17238 15 4.89993V4.10007C15 3.82762 15 3.59259 14.9837 3.39922C14.9665 3.195 14.9284 2.99215 14.8256 2.79811C14.6849 2.53237 14.4676 2.31505 14.2019 2.17435C14.0079 2.07161 13.805 2.03353 13.6008 2.0163C13.4074 1.99998 13.1724 1.99999 12.9 2H12.1001ZM11.266 3.05812C11.2915 3.04462 11.3432 3.02459 11.4833 3.01276C11.6296 3.00042 11.822 3 12.12 3H12.88C13.178 3 13.3704 3.00042 13.5167 3.01276C13.6568 3.02459 13.7085 3.04462 13.734 3.05812C13.8225 3.10502 13.895 3.17746 13.9419 3.26604C13.9554 3.29152 13.9754 3.34317 13.9872 3.4833C13.9996 3.62958 14 3.822 14 4.12V4.88C14 5.178 13.9996 5.37043 13.9872 5.5167C13.9754 5.65684 13.9554 5.70848 13.9419 5.73397C13.895 5.82255 13.8225 5.89498 13.734 5.94188C13.7085 5.95538 13.6568 5.97542 13.5167 5.98724C13.3704 5.99959 13.178 6 12.88 6H12.12C11.822 6 11.6296 5.99959 11.4833 5.98724C11.3432 5.97542 11.2915 5.95538 11.266 5.94188C11.1775 5.89498 11.105 5.82255 11.0581 5.73397C11.0446 5.70848 11.0246 5.65684 11.0128 5.5167C11.0004 5.37043 11 5.178 11 4.88V4.12C11 3.822 11.0004 3.62958 11.0128 3.4833C11.0246 3.34317 11.0446 3.29152 11.0581 3.26604C11.105 3.17746 11.1775 3.10502 11.266 3.05812Z" fill="#1F2C33"/>
<path d="M13 9.5C13 9.22386 12.7761 9 12.5 9C12.2239 9 12 9.22386 12 9.5V11H9.27778C8.4565 11 7.80953 11 7.28887 11.0425C6.75769 11.0859 6.31411 11.1761 5.91101 11.3815C5.25245 11.717 4.71701 12.2525 4.38146 12.911C4.21496 13.2378 4.09848 13.4724 4.04543 13.8622C3.99995 14.1963 3.99997 13.6556 4 14.4374L4 14.5C4 14.7761 4.22386 15 4.5 15C4.77614 15 5 14.7761 5 14.5C5 13.6399 5.00124 14.2546 5.0363 13.997C5.06498 13.7863 5.11198 13.68 5.27246 13.365C5.51215 12.8946 5.8946 12.5122 6.365 12.2725C6.60364 12.1509 6.90097 12.0776 7.3703 12.0392C7.84547 12.0004 8.45165 12 9.29998 12H12V14.5C12 14.7761 12.2239 15 12.5 15C12.7761 15 13 14.7761 13 14.5V12H15.7C16.5483 12 17.1545 12.0004 17.6297 12.0392C18.099 12.0776 18.3963 12.1509 18.635 12.2725C19.1054 12.5122 19.4878 12.8946 19.7275 13.365C19.888 13.68 19.935 13.7863 19.9637 13.9971C19.9987 14.2546 20 13.64 20 14.5C20 14.7761 20.2239 15 20.5 15C20.7761 15 21 14.7761 21 14.5V14.438C21 13.6558 21 14.1964 20.9545 13.8622C20.9015 13.4724 20.785 13.2378 20.6185 12.911C20.2829 12.2525 19.7475 11.717 19.0889 11.3815C18.6858 11.1761 18.2423 11.0859 17.7111 11.0425C17.1904 11 16.5435 11 15.7222 11H13V9.5Z" fill="#1F2C33"/>
<path fill-rule="evenodd" clip-rule="evenodd" d="M12.1001 17H12.8999C13.1724 17 13.4074 17 13.6008 17.0163C13.805 17.0335 14.0079 17.0716 14.2019 17.1744C14.4676 17.3151 14.6849 17.5324 14.8256 17.7981C14.9284 17.9922 14.9665 18.195 14.9837 18.3992C15 18.5926 15 18.8276 15 19.1001V19.8999C15 20.1724 15 20.4074 14.9837 20.6008C14.9665 20.805 14.9284 21.0079 14.8256 21.2019C14.6849 21.4676 14.4676 21.685 14.2019 21.8257C14.0079 21.9284 13.805 21.9665 13.6008 21.9837C13.4074 22 13.1724 22 12.8999 22H12.1001C11.8276 22 11.5926 22 11.3992 21.9837C11.195 21.9665 10.9921 21.9284 10.7981 21.8257C10.5324 21.685 10.3151 21.4676 10.1744 21.2019C10.0716 21.0079 10.0335 20.805 10.0163 20.6008C9.99998 20.4074 9.99999 20.1724 10 19.8999V19.1001C9.99999 18.8276 9.99998 18.5926 10.0163 18.3992C10.0335 18.195 10.0716 17.9922 10.1744 17.7981C10.3151 17.5324 10.5324 17.3151 10.7981 17.1744C10.9921 17.0716 11.195 17.0335 11.3992 17.0163C11.5926 17 11.8276 17 12.1001 17ZM11.4833 18.0128C11.3432 18.0246 11.2915 18.0446 11.266 18.0581C11.1775 18.105 11.105 18.1775 11.0581 18.266C11.0446 18.2915 11.0246 18.3432 11.0128 18.4833C11.0004 18.6296 11 18.822 11 19.12V19.88C11 20.178 11.0004 20.3704 11.0128 20.5167C11.0246 20.6568 11.0446 20.7085 11.0581 20.734C11.105 20.8225 11.1775 20.895 11.266 20.9419C11.2915 20.9554 11.3432 20.9754 11.4833 20.9872C11.6296 20.9996 11.822 21 12.12 21H12.88C13.178 21 13.3704 20.9996 13.5167 20.9872C13.6568 20.9754 13.7085 20.9554 13.734 20.9419C13.8225 20.895 13.895 20.8225 13.9419 20.734C13.9554 20.7085 13.9754 20.6568 13.9872 20.5167C13.9996 20.3704 14 20.178 14 19.88V19.12C14 18.822 13.9996 18.6296 13.9872 18.4833C13.9754 18.3432 13.9554 18.2915 13.9419 18.266C13.895 18.1775 13.8225 18.105 13.734 18.0581C13.7085 18.0446 13.6568 18.0246 13.5167 18.0128C13.3704 18.0004 13.178 18 12.88 18H12.12C11.822 18 11.6296 18.0004 11.4833 18.0128Z" fill="#1F2C33"/>
<path fill-rule="evenodd" clip-rule="evenodd" d="M4.10007 17H4.89993C5.17238 17 5.40741 17 5.60079 17.0163C5.805 17.0335 6.00785 17.0716 6.2019 17.1744C6.46763 17.3151 6.68495 17.5324 6.82565 17.7981C6.92839 17.9922 6.96647 18.195 6.9837 18.3992C7.00002 18.5926 7.00001 18.8276 7 19.1V19.8999C7.00001 20.1724 7.00002 20.4074 6.9837 20.6008C6.96647 20.805 6.92839 21.0079 6.82565 21.2019C6.68495 21.4676 6.46763 21.685 6.2019 21.8257C6.00785 21.9284 5.805 21.9665 5.60079 21.9837C5.40741 22 5.17238 22 4.89993 22H4.10007C3.82762 22 3.59259 22 3.39921 21.9837C3.195 21.9665 2.99215 21.9284 2.79811 21.8257C2.53237 21.685 2.31505 21.4676 2.17435 21.2019C2.07161 21.0079 2.03353 20.805 2.0163 20.6008C1.99998 20.4074 1.99999 20.1724 2 19.9V19.1001C1.99999 18.8276 1.99998 18.5926 2.0163 18.3992C2.03353 18.195 2.07161 17.9922 2.17435 17.7981C2.31505 17.5324 2.53237 17.3151 2.79811 17.1744C2.99215 17.0716 3.195 17.0335 3.39921 17.0163C3.59259 17 3.82762 17 4.10007 17ZM3.4833 18.0128C3.34316 18.0246 3.29152 18.0446 3.26604 18.0581C3.17746 18.105 3.10502 18.1775 3.05812 18.266C3.04462 18.2915 3.02458 18.3432 3.01276 18.4833C3.00042 18.6296 3 18.822 3 19.12V19.88C3 20.178 3.00042 20.3704 3.01276 20.5167C3.02458 20.6568 3.04462 20.7085 3.05812 20.734C3.10502 20.8225 3.17746 20.895 3.26604 20.9419C3.29152 20.9554 3.34316 20.9754 3.4833 20.9872C3.62957 20.9996 3.822 21 4.12 21H4.88C5.178 21 5.37043 20.9996 5.5167 20.9872C5.65684 20.9754 5.70848 20.9554 5.73397 20.9419C5.82254 20.895 5.89498 20.8225 5.94188 20.734C5.95538 20.7085 5.97542 20.6568 5.98724 20.5167C5.99958 20.3704 6 20.178 6 19.88V19.12C6 18.822 5.99958 18.6296 5.98724 18.4833C5.97542 18.3432 5.95538 18.2915 5.94188 18.266C5.89498 18.1775 5.82254 18.105 5.73397 18.0581C5.70848 18.0446 5.65684 18.0246 5.5167 18.0128C5.37043 18.0004 5.178 18 4.88 18H4.12C3.822 18 3.62957 18.0004 3.4833 18.0128Z" fill="#1F2C33"/>
<path fill-rule="evenodd" clip-rule="evenodd" d="M20.1001 17C19.8276 17 19.5926 17 19.3992 17.0163C19.195 17.0335 18.9921 17.0716 18.7981 17.1744C18.5324 17.3151 18.3151 17.5324 18.1744 17.7981C18.0716 17.9922 18.0335 18.195 18.0163 18.3992C18 18.5926 18 18.8276 18 19.1001V19.8999C18 20.1724 18 20.4074 18.0163 20.6008C18.0335 20.805 18.0716 21.0079 18.1744 21.2019C18.3151 21.4676 18.5324 21.685 18.7981 21.8257C18.9921 21.9284 19.195 21.9665 19.3992 21.9837C19.5926 22 19.8276 22 20.1001 22H20.8999C21.1724 22 21.4074 22 21.6008 21.9837C21.805 21.9665 22.0079 21.9284 22.2019 21.8257C22.4676 21.685 22.6849 21.4676 22.8256 21.2019C22.9284 21.0079 22.9665 20.805 22.9837 20.6008C23 20.4074 23 20.1724 23 19.8999V19.1001C23 18.8276 23 18.5926 22.9837 18.3992C22.9665 18.195 22.9284 17.9922 22.8256 17.7981C22.6849 17.5324 22.4676 17.3151 22.2019 17.1744C22.0079 17.0716 21.805 17.0335 21.6008 17.0163C21.4074 17 21.1724 17 20.8999 17H20.1001ZM19.266 18.0581C19.2915 18.0446 19.3432 18.0246 19.4833 18.0128C19.6296 18.0004 19.822 18 20.12 18H20.88C21.178 18 21.3704 18.0004 21.5167 18.0128C21.6568 18.0246 21.7085 18.0446 21.734 18.0581C21.8225 18.105 21.895 18.1775 21.9419 18.266C21.9554 18.2915 21.9754 18.3432 21.9872 18.4833C21.9996 18.6296 22 18.822 22 19.12V19.88C22 20.178 21.9996 20.3704 21.9872 20.5167C21.9754 20.6568 21.9554 20.7085 21.9419 20.734C21.895 20.8225 21.8225 20.895 21.734 20.9419C21.7085 20.9554 21.6568 20.9754 21.5167 20.9872C21.3704 20.9996 21.178 21 20.88 21H20.12C19.822 21 19.6296 20.9996 19.4833 20.9872C19.3432 20.9754 19.2915 20.9554 19.266 20.9419C19.1775 20.895 19.105 20.8225 19.0581 20.734C19.0446 20.7085 19.0246 20.6568 19.0128 20.5167C19.0004 20.3704 19 20.178 19 19.88V19.12C19 18.822 19.0004 18.6296 19.0128 18.4833C19.0246 18.3432 19.0446 18.2915 19.0581 18.266C19.105 18.1775 19.1775 18.105 19.266 18.0581Z" fill="#1F2C33"/>
</svg>
