<svg xmlns="http://www.w3.org/2000/svg" width="20" height="20" fill="none"><path fill="#94969c" fill-rule="evenodd" d="M10 13.379a.75.75 0 0 1 .75.75v.24c.731.238 1.31.816 1.548 1.548H17.5a.75.75 0 0 1 0 1.5h-5.202a2.418 2.418 0 0 1-4.596 0H2.5a.75.75 0 0 1 0-1.5h5.202a2.423 2.423 0 0 1 1.548-1.548v-.24a.75.75 0 0 1 .75-.75zm0 2.371a.917.917 0 1 0 0 1.833.917.917 0 0 0 0-1.833Z" clip-rule="evenodd" style="fill-rule:nonzero"/><path fill="#94969c" fill-rule="evenodd" d="M14.5 3v9a.5.5 0 0 1-.5.5H6a.5.5 0 0 1-.5-.5V3a.5.5 0 0 1 .5-.5h8a.5.5 0 0 1 .5.5zM6 1a2 2 0 0 0-2 2v9a2 2 0 0 0 2 2h8a2 2 0 0 0 2-2V3a2 2 0 0 0-2-2Z" clip-rule="evenodd" style="fill-rule:nonzero"/><path fill="#94969C" fill-rule="evenodd" d="M7.25 5.038a.75.75 0 0 1 .75-.75h4a.75.75 0 0 1 0 1.5H8a.75.75 0 0 1-.75-.75ZM7.25 8.038a.75.75 0 0 1 .75-.75h4a.75.75 0 0 1 0 1.5H8a.75.75 0 0 1-.75-.75ZM7.25 10.538a.75.75 0 1 1 1.5 0 .75.75 0 0 1-1.5 0Z" clip-rule="evenodd"/></svg>