<svg width="6mm" height="6mm" viewBox="0 0 6 6" xmlns="http://www.w3.org/2000/svg"><path d="m4.7393448 1.4260689-.4248354.4244353c.2968247.3144262.4852405.7284606.4852405 1.1916993 0 .9768814-.8064672 1.7689474-1.8001499 1.7689474-.9936828 0-1.8001501-.792066-1.8001501-1.7689474 0-.4628386.1884158-.876873.4852405-1.1912992l-.4248355-.4248354c-.40723385.4216351-.66005495.9884823-.66005495 1.6157345C.59979995 4.3443119 1.6750895 5.4 2.9999999 5.4 4.3257103 5.4 5.4002 4.343912 5.4002 3.0418034c-.0008002-.6272522-.2540212-1.1940994-.6608552-1.6157345ZM3.3992333.6h-.8000668v2.4002h.8000668z" style="stroke-width:.400033"/></svg>