<svg width="24" height="24" viewBox="0 0 24 24" fill="none" xmlns="http://www.w3.org/2000/svg">
<path fill-rule="evenodd" clip-rule="evenodd" d="M12.5488 4C12.8249 4 13.0488 4.22386 13.0488 4.5V9.32927C13.0488 9.60541 12.8249 9.82927 12.5488 9.82927C12.2726 9.82927 12.0488 9.60541 12.0488 9.32927V4.5C12.0488 4.22386 12.2726 4 12.5488 4ZM8.11847 6.21186C8.28435 6.43263 8.23984 6.74607 8.01906 6.91194C6.18484 8.29003 5 10.4822 5 12.9512C5 17.1203 8.3797 20.5 12.5488 20.5C16.7179 20.5 20.0976 17.1203 20.0976 12.9512C20.0976 10.4822 18.9127 8.29003 17.0785 6.91194C16.8577 6.74607 16.8132 6.43263 16.9791 6.21186C17.145 5.99108 17.4584 5.94658 17.6792 6.11245C19.754 7.67129 21.0976 10.1544 21.0976 12.9512C21.0976 17.6726 17.2701 21.5 12.5488 21.5C7.82742 21.5 4 17.6726 4 12.9512C4 10.1544 5.34358 7.67129 7.41839 6.11245C7.63916 5.94658 7.9526 5.99108 8.11847 6.21186Z" fill="#1F2C33"/>
</svg>
