<svg viewBox="0 0 16 16" xmlns="http://www.w3.org/2000/svg"><path d="m8 1.5c0.27614 0 0.5 0.22386 0.5 0.5v3.5c0 0.27614-0.22386 0.5-0.5 0.5s-0.5-0.22386-0.5-0.5v-3.5c0-0.27614 0.22386-0.5 0.5-0.5zm-3.2652 1.4407c0.16865 0.21866 0.12811 0.53264-0.09055 0.70128-1.305 1.0066-2.1442 2.5842-2.1442 4.358 0 3.0376 2.4624 5.5 5.5 5.5 3.0376 0 5.5-2.4624 5.5-5.5 0-1.7738-0.8392-3.3514-2.1442-4.358-0.2187-0.16864-0.2592-0.48262-0.0906-0.70128 0.1687-0.21866 0.4827-0.2592 0.7013-0.09056 1.54 1.1877 2.5335 3.0529 2.5335 5.1498 0 3.5899-2.9101 6.5-6.5 6.5-3.5898 0-6.5-2.9101-6.5-6.5 0-2.097 0.99353-3.9621 2.5335-5.1498 0.21866-0.16864 0.53263-0.1281 0.70128 0.09056z" clip-rule="evenodd" fill="#1F2C33"/></svg>
