<svg width="6mm" height="6mm" viewBox="0 0 6 6" xmlns="http://www.w3.org/2000/svg"><path d="M4.8857144 3c0 .1347428-.018857.263657-.045943.3905143l.4169141.4169142c.0912-.2523428.1433143-.5228572.1433143-.8070858 0-1.086857-.7237715-2.0002285-1.7136-2.2950857v.5417144C4.3875426 1.5205714 4.885714 2.200457 4.8857144 3ZM3.6864002 1.8222856v.4148573l.6791999.6795427c-.0288-.470057-.2945143-.8711999-.6791999-1.0944zM5.297143 4.8174857 1.1794287.6994285l-.48239998.4820572.84959998.8496-.069943.068914H.60000015v1.8h.87668575L3.0000002 5.4V3.4848l.6864.6863999v.00652c.00137-.0006858.00275-.00206.00411-.00275l.3726922.3726863c-.1176.080571-.2420571.1522286-.3768.2053714v.5417143c.2725716-.081257.5218286-.2132571.7446857-.3792l.3870857.3874286.4848-.4848-.00343-.00377zM3.0000002.6l-.4789714.4714285.4789714.4793143Z" style="stroke-width:.342857"/></svg>