<svg width="6mm" height="6mm" viewBox="0 0 6 6" xmlns="http://www.w3.org/2000/svg"><path d="m2.99999956 1.44000485.40731428.91097142.07817143.17485715.18994286.02502857.98537142.13062857-.73611428.72617142-.12891429.1272.03222857.17828571.18514286 1.01897142-.84171428-.48685714-.17142857-.09942857-.17177143.09942857-.84171428.48685714.18514286-1.01897142.03222857-.17828571-.12891428-.1272-.73611428-.72617142.98537142-.13062857.18994285-.02502857.07817143-.17485715.40765714-.91097142m0-.83999999-.72034285 1.6110857-1.67965713.22285714 1.23462856 1.21817142-.31782857 1.7478857 1.48319999-.85817142 1.48319999.85817142-.31782857-1.74822856L5.39999954 2.4339477l-1.67965713-.22251428Z"/></svg>