<svg viewBox="0 0 16 16" xmlns="http://www.w3.org/2000/svg"><path d="m8 1.5c-1.7551 0-3.3754 0.53485-4.5657 1.5424-1.1982 1.0143-1.9343 2.4873-1.9343 4.2909v3.6667c0 1.1966 0.97005 2.1667 2.1667 2.1667 0.29706 0 0.57176-0.0605 0.80683-0.2053 0.23828-0.1468 0.39462-0.3549 0.49475-0.5787 0.18514-0.4138 0.19842-0.9374 0.19842-1.3827v-0.6667c0-0.44531-0.01328-0.96886-0.19842-1.3827-0.10013-0.22379-0.25647-0.43189-0.49475-0.57868-0.23507-0.14482-0.50977-0.20527-0.80683-0.20527-0.42955 0-0.8299 0.12499-1.1667 0.3406v-1.1739c0-1.51 0.60702-2.7037 1.5804-3.5277 0.98132-0.83068 2.361-1.3056 3.9196-1.3056s2.9383 0.47497 3.9196 1.3056c0.9734 0.82398 1.5804 2.0176 1.5804 3.5277v1.1739c-0.3368-0.21561-0.7371-0.3406-1.1667-0.3406-0.297 0-0.5717 0.06045-0.8068 0.20527-0.2383 0.14679-0.3946 0.35489-0.4947 0.57868-0.1852 0.41382-0.1985 0.93737-0.1985 1.3827v0.6667c0 0.4453 0.0133 0.9689 0.1985 1.3827 0.0239 0.0535 0.051 0.106 0.0817 0.157l-3.9008 0.9752c-0.2679 0.067-0.43078 0.3385-0.36381 0.6064 0.06698 0.2679 0.33844 0.4307 0.60634 0.3638l5.3334-1.3334c0.9714-0.2428 1.7114-1.1451 1.7114-2.1517v-3.6667c0-1.8037-0.7361-3.2767-1.9343-4.2909-1.1903-1.0076-2.8106-1.5424-4.5657-1.5424zm-5.5 9.5v-0.6667c0-0.6443 0.52234-1.1666 1.1667-1.1666 0.16317 0 0.24359 0.03281 0.28231 0.05667 0.03552 0.02188 0.07165 0.05787 0.10646 0.13568 0.08474 0.18939 0.11123 0.49918 0.11123 0.97428v0.6667c0 0.4751-0.02649 0.7849-0.11123 0.9743-0.03481 0.0778-0.07094 0.1138-0.10646 0.1357-0.03872 0.0238-0.11914 0.0567-0.28231 0.0567-0.64434 0-1.1667-0.5224-1.1667-1.1667zm9.8333-1.8333c0.6444 0 1.1667 0.52233 1.1667 1.1666v0.6667c0 0.6443-0.5223 1.1667-1.1667 1.1667-0.1631 0-0.2436-0.0329-0.2823-0.0567-0.0355-0.0219-0.0716-0.0579-0.1064-0.1357-0.0848-0.1894-0.1113-0.4992-0.1113-0.9743v-0.6667c0-0.4751 0.0265-0.78489 0.1113-0.97428 0.0348-0.07781 0.0709-0.1138 0.1064-0.13568 0.0387-0.02386 0.1192-0.05667 0.2823-0.05667z" clip-rule="evenodd" fill="#1F2C33"/></svg>
