<svg width="24" height="24" viewBox="0 0 24 24" xmlns="http://www.w3.org/2000/svg"><path fill-rule="evenodd" clip-rule="evenodd" d="M11.5 2C8.91643 2 6.54614 2.7873 4.81299 4.25441C3.07191 5.72824 2 7.8679 2 10.5V16C2 17.6569 3.34315 19 5 19C5.41212 19 5.7756 18.9162 6.07912 18.7292C6.38585 18.5403 6.59031 18.2712 6.72417 17.972C6.97679 17.4073 7 16.6755 7 16V15C7 14.3245 6.97679 13.5927 6.72417 13.028C6.59031 12.7288 6.38585 12.4597 6.07912 12.2708C5.7756 12.0838 5.41212 12 5 12C4.23165 12 3.53076 12.2889 3 12.7639V10.5C3 8.16153 3.94281 6.3012 5.45909 5.01767C6.9833 3.72742 9.11301 3 11.5 3C13.887 3 16.0167 3.72742 17.5409 5.01767C19.0572 6.3012 20 8.16153 20 10.5V12.7639C19.4692 12.2889 18.7684 12 18 12C17.5879 12 17.2244 12.0838 16.9209 12.2708C16.6142 12.4597 16.4097 12.7288 16.2758 13.028C16.0232 13.5927 16 14.3245 16 15V16C16 16.6755 16.0232 17.4073 16.2758 17.972C16.355 18.1488 16.4588 18.3152 16.5938 18.4607L10.3786 20.0145C10.1107 20.0814 9.94785 20.3529 10.0148 20.6208C10.0818 20.8887 10.3533 21.0516 10.6212 20.9846L18.6212 18.9846C19.9682 18.6479 21 17.3985 21 16V10.5C21 7.8679 19.9281 5.72824 18.187 4.25441C16.4539 2.7873 14.0836 2 11.5 2ZM5 18C3.89543 18 3 17.1046 3 16V15C3 13.8954 3.89543 13 5 13C5.27824 13 5.44743 13.0561 5.5546 13.1222C5.65857 13.1862 5.74282 13.2832 5.81136 13.4364C5.96357 13.7766 6 14.2948 6 15V16C6 16.7052 5.96357 17.2234 5.81136 17.5636C5.74282 17.7168 5.65857 17.8138 5.5546 17.8778C5.44743 17.9439 5.27824 18 5 18ZM18 13C19.1046 13 20 13.8954 20 15V16C20 17.1046 19.1046 18 18 18C17.7218 18 17.5526 17.9439 17.4454 17.8778C17.3414 17.8138 17.2572 17.7168 17.1886 17.5636C17.0364 17.2234 17 16.7052 17 16V15C17 14.2948 17.0364 13.7766 17.1886 13.4364C17.2572 13.2832 17.3414 13.1862 17.4454 13.1222C17.5526 13.0561 17.7218 13 18 13Z" fill="#1F2C33"/></svg>
