<svg width="6mm" height="6mm" viewBox="0 0 6 6" xmlns="http://www.w3.org/2000/svg"><path d="M5.0524058 2.4320848C5.0419497 1.5328628 4.307612.74946183 3.290156.61876096 2.1665305.47438676 1.1265537 1.178965.96649549 2.1919974c-.01286952.0808331-.01729276.1608626-.01809712.2404896l-.002815-.00362v1.253522c0 .3032259.27507493.5513565.61127793.5513565h.6112779V2.884913h-.7081977v-.4540346h.0004022c.0008043-.0575078.0048183-.1154183.0140748-.1737316.1198429-.7600759.900027-1.2881075 1.7425449-1.1799274.7677169.0985284 1.3158561.6929157 1.3174649 1.3729625h.00161v.4347311h-.704983v1.348833h.611278c.013269 0 .025737-.00281.03901-.00362-.0426284.1347231-.116223.2634132-.2280225.3740063-.1202448.1190382-.2678363.1986652-.4250795.2481305-.0703773-.0904853-.1809703-.1532217-.3120734-.1532217h-.2324465c-.2135451 0-.3884832.1576454-.3884832.3502784 0 .1926329.1749381.3506805.3888854.3506805h.2324465c.1656884 0 .3056389-.095714.3611365-.228425.2364681-.0623336.4584585-.1765466.637016-.3530933.2167623-.2143494.3333878-.477762.3591257-.7460004.1113974-.1001369.1805683-.2380766.1805683-.3900918v-1.253522z" style="stroke-width:.402156"/></svg>