<svg width="6mm" height="6mm" viewBox="0 0 6 6" xmlns="http://www.w3.org/2000/svg"><path style="stroke-width:.342857" d="M3.3626116.6C2.0426131.6.96261167 1.6800014.96261167 3.0000001H.23738833l.98169647.9810267.9810269-.9810267h-.7573661c0-1.0559989.8638673-1.9205358 1.919866-1.9205358 1.055999 0 1.9198662.8645369 1.9198662 1.9205358 0 1.055999-.8638672 1.919866-1.9198662 1.919866-.4494851 0-.8631806-.1572699-1.1912946-.4185268l-.3575892.3261161C2.2323558 5.1833405 2.772898 5.4 3.3626116 5.4c1.3199988 0 2.4000001-1.0800014 2.4000001-2.3999999C5.7626117 1.6800014 4.6826104.6 3.3626116.6Zm-.2397321 1.2v1.4397322l1.2475447.7680803.1921874-.3120536-1.0801338-.6482143V1.8Z"/></svg>