<svg width="6mm" height="6mm" viewBox="0 0 6 6" xmlns="http://www.w3.org/2000/svg"><g style="fill:#000"><path style="fill:#000" d="M179.782 248.75c-.421-.421-1.103-.421-1.524 0-.421.421-.421 1.103 0 1.524l4.63 4.63-2.208 2.328-3.844-4.052c-.424-.447-1.111-.447-1.534 0-.425.447-.426 1.172-.001 1.617l4.604 4.858c.214.224.494.334.774.333.28.001.56-.109.773-.333l3.011-3.175 2.746 2.746c.421.421 1.103.421 1.524 0 .421-.421.421-1.103 0-1.524zM190.664 248.324c-.423-.446-1.111-.449-1.535 0l-3.488 3.678 1.576 1.576 3.448-3.636c.424-.447.424-1.171-.001-1.618z" transform="matrix(.3 0 0 .3 -51.894414 -73.19586)"/></g></svg>