<svg viewBox="0 0 16 16" xmlns="http://www.w3.org/2000/svg"><path d="m8 2c-1.5053 0-2.7307 1.2284-2.7307 2.75s1.2254 2.75 2.7307 2.75 2.7307-1.2284 2.7307-2.75-1.2254-2.75-2.7307-2.75zm-3.7307 2.75c0-2.0683 1.6675-3.75 3.7307-3.75 2.0632 0 3.7307 1.6817 3.7307 3.75s-1.6675 3.75-3.7307 3.75c-2.0632 0-3.7307-1.6817-3.7307-3.75zm3.7307 5.9167c-2.1092 0-3.9887 1.0237-5.1886 2.6212-0.14665 0.1953-0.22602 0.3027-0.27438 0.3896-0.03765 0.0676-0.03723 0.0895-0.03697 0.1038 0-5e-4 3.4e-4 0.0099 0.00564 0.0293 0.00511 0.0188 0.01334 0.0409 0.02467 0.0638 0.01134 0.0229 0.02387 0.0427 0.03554 0.058 0.01079 0.0141 0.01777 0.0203 0.01862 0.0211 9e-5 0 1.1e-4 0 0 0 0.00248 0.0019 0.00686 0.0053 0.02049 0.0101 0.0164 0.0058 0.04716 0.014 0.10321 0.0207 0.12276 0.0149 0.29026 0.0157 0.57298 0.0157h9.4376c0.2828 0 0.4503-8e-4 0.573-0.0157 0.0561-0.0067 0.0868-0.0149 0.1032-0.0207 0.0137-0.0048 0.018-0.0082 0.0205-0.0101-8e-4 6e-4 0.0065-0.0053 0.0186-0.0211 0.0117-0.0153 0.0242-0.0351 0.0356-0.058 0.0113-0.0229 0.0195-0.045 0.0247-0.0638 0.0052-0.0194 0.0056-0.0291 0.0056-0.0287 2e-4 -0.0142 7e-4 -0.0368-0.037-0.1044-0.0483-0.0869-0.1277-0.1943-0.2744-0.3896-1.1999-1.5975-3.0794-2.6212-5.1886-2.6212zm-5.9882 2.0207c1.3772-1.8335 3.5456-3.0207 5.9882-3.0207 2.4427 0 4.6111 1.1872 5.9882 3.0207l0.0155 0.0205c0.1253 0.1668 0.2474 0.3292 0.333 0.4831 0.0993 0.1783 0.1674 0.3738 0.1631 0.6091-0.0034 0.1879-0.0606 0.3698-0.1338 0.5178-0.0732 0.1479-0.1832 0.3039-0.3309 0.4205-0.1963 0.155-0.4134 0.2134-0.6235 0.2387-0.1899 0.023-0.4188 0.0229-0.667 0.0229h-9.4892c-0.2482 0-0.47706 1e-4 -0.66696-0.0229-0.21006-0.0253-0.42716-0.0837-0.6235-0.2387-0.14773-0.1166-0.25767-0.2726-0.33085-0.4205-0.07324-0.148-0.13044-0.3299-0.13386-0.5178-0.00428-0.2353 0.06378-0.4308 0.16311-0.6091 0.08565-0.1539 0.2077-0.3163 0.33301-0.4831l0.01547-0.0205z" clip-rule="evenodd" fill="#1F2C33"/></svg>
