<svg width="6mm" height="6mm" viewBox="0 0 6 6" xmlns="http://www.w3.org/2000/svg"><path style="fill:#000;fill-opacity:1;stroke-width:.299987" d="M3.8332005 1.203217a.8999623.8999623 0 0 0-.8328781.8963125.8999623.8999623 0 1 0 1.7996032 0 .8999623.8999623 0 0 0-.9667251-.8963125Zm.066606.2962279a.6000821.6000821 0 1 1 0 1.2001639.6000821.6000821 0 0 1 0-1.2001639zm-1.9854629.011433a.79932682.79932682 0 0 0-.042501.00184.79932682.79932682 0 0 0-.7396348.7973583.79932682.79932682 0 0 0 1.5985204 0 .79932682.79932682 0 0 0-.8163852-.7992602Zm.017755.2664192a.53297764.53297764 0 0 1 0 1.0656794.53297764.53297764 0 1 1 0-1.0656794zm.1681024 1.5217646C.9002584 3.2990617.6 4.1992177.6 4.4992231c0 .2000791.099953.3000397.3000396.3000397h1.264863a.671371.671371 0 0 1-.064702-.3000397c0-.302982.1127971-.6123548.3266795-.8709398.072896-.088217.158369-.1707577.2543651-.2448529a1.7639239 1.7639239 0 0 0-.3691773-.074219 2.2049049 2.2049049 0 0 0-.2118673-.010115Zm1.7996059.0005269c-1.1999506 0-1.4995689.9001639-1.4995689 1.2001614 0 .2999738.3000423.2994022.3000423.2994022H5.099963S5.4 4.799679 5.4 4.49975c0-.2999975-.3002609-1.2001614-1.5001931-1.2001614Zm-1.8237142.3000397a1.6478288 1.6478288 0 0 0-.2759366.9001217H.9000423c0-.078012.049557-.3094175.2283574-.517618.1634899-.1907829.4473213-.3768112.947693-.3825037Zm1.8243464 0c.5150785 0 .805901.1893474.971796.3831359.1778885.2070019.2271299.4368108.2277279.5157161l-.00184.0005269a.08219645.08219645 0 0 1-.00445.0005267H2.7066768a.07829662.07829662 0 0 1-.00632-.00131c.0002319-.079258.049837-.3087114.2277253-.5157133.165592-.1940889.457052-.383136.9724335-.383136z"/></svg>