<svg width="24" height="24" viewBox="0 0 24 24" fill="none" xmlns="http://www.w3.org/2000/svg">
<path fill-rule="evenodd" clip-rule="evenodd" d="M12.8573 4C10.6481 4 8.85727 5.79086 8.85727 8C8.85727 10.2091 10.6481 12 12.8573 12C15.0664 12 16.8573 10.2091 16.8573 8C16.8573 5.79086 15.0664 4 12.8573 4ZM7.85727 8C7.85727 5.23858 10.0958 3 12.8573 3C15.6187 3 17.8573 5.23858 17.8573 8C17.8573 10.7614 15.6187 13 12.8573 13C10.0958 13 7.85727 10.7614 7.85727 8ZM12.8573 16C9.85272 16 7.17791 17.45 5.47219 19.7074C5.27101 19.9736 5.15094 20.1343 5.0757 20.2686C5.0107 20.3847 4.99894 20.4476 5.00007 20.5091C5.00082 20.5505 5.01738 20.6282 5.06209 20.718C5.10679 20.8078 5.15878 20.8678 5.19131 20.8933C5.22851 20.9225 5.29025 20.9562 5.46253 20.9769C5.64822 20.9992 5.89561 21 6.2845 21H19.43C19.8189 21 20.0663 20.9992 20.252 20.9769C20.4243 20.9562 20.486 20.9225 20.5232 20.8933C20.5558 20.8678 20.6078 20.8078 20.6525 20.718C20.6972 20.6282 20.7137 20.5505 20.7145 20.5091C20.7156 20.4476 20.7038 20.3847 20.6388 20.2686C20.5636 20.1343 20.4435 19.9736 20.2424 19.7074C18.5366 17.45 15.8618 16 12.8573 16ZM4.67434 19.1045C6.55823 16.6113 9.52167 15 12.8573 15C16.1929 15 19.1563 16.6113 21.0402 19.1045L21.0575 19.1274C21.2358 19.3634 21.3986 19.5787 21.5113 19.7799C21.6378 20.0059 21.7195 20.2435 21.7143 20.5274C21.7102 20.753 21.6405 20.9771 21.5477 21.1636C21.4549 21.3501 21.3181 21.5408 21.1406 21.68C20.906 21.8642 20.6434 21.9371 20.3711 21.9698C20.1188 22 19.8107 22 19.458 22H6.25659C5.90381 22 5.59578 22 5.34345 21.9698C5.0711 21.9371 4.80859 21.8642 4.57397 21.68C4.39649 21.5408 4.25968 21.3501 4.16686 21.1636C4.07404 20.9771 4.00436 20.753 4.00023 20.5274C3.99504 20.2435 4.0767 20.0059 4.20326 19.7799C4.31597 19.5787 4.47872 19.3634 4.6571 19.1274L4.67434 19.1045Z" fill="#1F2C33"/>
</svg>
