<svg width="6mm" height="6mm" viewBox="0 0 6 6" xmlns="http://www.w3.org/2000/svg"><path style="fill:#000;fill-opacity:1;stroke-width:.299987" d="M3.8332005 1.203217c-.4692615.0350765-.8322788.4257423-.8328781.8963125-.023108 1.2226245 1.8227112 1.2226245 1.7996032 0-.0006797-.5228729-.4452925-.9351018-.9667251-.8963125Zm-1.9188569.3076609a.79932399.79932399 0 0 0-.042501.00184c-.4172327.031245-.7397727.3789573-.7396348.7973583.013583 1.052009 1.5849372 1.052009 1.5985204 0 .0000647-.4481783-.3683089-.8088247-.8163852-.7992602Zm.1858574 1.7881838C.9002584 3.2990617.6 4.1992177.6 4.4992231c0 .2000791.099953.3000397.3000396.3000397h1.264863c-.044447-.093675-.066593-.1963721-.064702-.3000397 0-.302982.1127971-.6123548.3266795-.8709398.072896-.088217.158369-.1707577.2543651-.2448529a1.7639243 1.7639243 0 0 0-.3691773-.074219 2.20490822 2.20490822 0 0 0-.2118673-.010115Zm1.7996059.0005269c-1.1999506 0-1.4995689.9001639-1.4995689 1.2001614 0 .2999738.3000423.2994022.3000423.2994022H5.099963S5.4 4.799679 5.4 4.49975c0-.2999975-.3002609-1.2001614-1.5001931-1.2001614Z"/></svg>