<svg width="6mm" height="6mm" viewBox="0 0 6 6" xmlns="http://www.w3.org/2000/svg"><path d="M3 1c.4412 0 .8.3587999.8.8 0 .4408-.3588.7995999-.8.7995999-.4412 0-.8000001-.3587999-.8000001-.7995999 0-.4412001.3588001-.8.8000001-.8m0 3.1995999c.718 0 1.4212.2300002 1.9999999.6508001V5H.99999996v-.1496C1.5835999 4.424 2.2712 4.1995999 3 4.1995999M3 .6c-.6624001 0-1.2000001.5372-1.2000001 1.2 0 .6623999.5376 1.1996001 1.2000001 1.1996001.6628 0 1.2-.5372002 1.2-1.1996001C4.2 1.1372 3.6628.6 3 .6Zm0 3.1996c-.9104001 0-1.7452001.3207999-2.40000005.8544V5.4H5.4v-.746c-.6544001-.5336001-1.4896001-.8544-2.4-.8544Z" style="stroke-width:.399999"/></svg>