<svg width="24" height="24" viewBox="0 0 24 24" fill="none" xmlns="http://www.w3.org/2000/svg">
<path fill-rule="evenodd" clip-rule="evenodd" d="M9.94613 4C7.73699 4 5.94613 5.79086 5.94613 8C5.94613 10.2091 7.73699 12 9.94613 12C12.1553 12 13.9461 10.2091 13.9461 8C13.9461 5.79086 12.1553 4 9.94613 4ZM4.94613 8C4.94613 5.23858 7.1847 3 9.94613 3C12.7076 3 14.9461 5.23858 14.9461 8C14.9461 10.7614 12.7076 13 9.94613 13C7.1847 13 4.94613 10.7614 4.94613 8ZM15.9984 3.74524C16.1213 3.49795 16.4214 3.39711 16.6686 3.52C18.3138 4.33757 19.4461 6.03609 19.4461 8C19.4461 9.96391 18.3138 11.6624 16.6686 12.48C16.4214 12.6029 16.1213 12.502 15.9984 12.2548C15.8755 12.0075 15.9763 11.7074 16.2236 11.5845C17.5419 10.9293 18.4461 9.56981 18.4461 8C18.4461 6.43019 17.5419 5.07065 16.2236 4.41552C15.9763 4.29262 15.8755 3.99253 15.9984 3.74524ZM9.94613 16C7.30751 16 4.93772 17.439 3.42151 19.7155C3.23974 19.9884 3.13083 20.1537 3.06389 20.2903C3.00561 20.4092 2.99716 20.4716 3.00066 20.53C3.00317 20.5717 3.02213 20.6466 3.06757 20.7314C3.11302 20.8163 3.16479 20.8736 3.19817 20.8988C3.23424 20.9261 3.2952 20.9583 3.4646 20.978C3.64654 20.9992 3.88856 21 4.26849 21H15.6238C16.0037 21 16.2457 20.9992 16.4277 20.978C16.5971 20.9583 16.658 20.9261 16.6941 20.8988C16.7275 20.8736 16.7792 20.8163 16.8247 20.7314C16.8701 20.6466 16.8891 20.5717 16.8916 20.53C16.8951 20.4716 16.8866 20.4092 16.8284 20.2903C16.7614 20.1537 16.6525 19.9884 16.4707 19.7155C14.9545 17.439 12.5847 16 9.94613 16ZM2.58921 19.1612C4.26161 16.6501 6.92349 15 9.94613 15C12.9688 15 15.6306 16.6501 17.303 19.1612L17.3184 19.1843C17.4799 19.4267 17.6267 19.6471 17.7263 19.8501C17.8376 20.0771 17.9064 20.3133 17.8898 20.5899C17.8767 20.8089 17.8023 21.0241 17.7063 21.2035C17.6102 21.3828 17.4723 21.564 17.2973 21.6964C17.0657 21.8715 16.8088 21.9405 16.5432 21.9713C16.2966 22 15.9958 22 15.6509 22H4.24134C3.89646 22 3.59565 22 3.34905 21.9713C3.08345 21.9405 2.82654 21.8715 2.59497 21.6964C2.41996 21.564 2.28205 21.3828 2.18601 21.2035C2.08996 21.0241 2.01561 20.8089 2.00246 20.5899C1.98586 20.3133 2.05467 20.0771 2.166 19.8501C2.26552 19.6471 2.41236 19.4266 2.57383 19.1843L2.58921 19.1612ZM17.9993 16.1124C18.1233 15.8657 18.4238 15.7661 18.6706 15.8901C20.2157 16.6663 21.5307 17.9067 22.4862 19.4459C22.4952 19.4605 22.5042 19.475 22.5132 19.4894C22.6688 19.7392 22.8102 19.9664 22.8573 20.2702C22.9098 20.6089 22.8186 20.9489 22.6682 21.2193C22.5178 21.4897 22.277 21.7465 21.9616 21.8805C21.6778 22.0011 21.3677 22.0006 21.018 22.0001C20.9942 22 20.9703 22 20.9461 22C20.67 22 20.4461 21.7761 20.4461 21.5C20.4461 21.2239 20.67 21 20.9461 21C21.4102 21 21.4987 20.9907 21.5705 20.9602C21.636 20.9324 21.7255 20.8569 21.7943 20.7332C21.8631 20.6096 21.88 20.4937 21.8691 20.4234C21.8565 20.3424 21.8315 20.2873 21.6366 19.9733C20.7699 18.5772 19.5883 17.4702 18.2217 16.7837C17.9749 16.6597 17.8754 16.3592 17.9993 16.1124Z" fill="#1F2C33"/>
</svg>
