<svg width="6mm" height="6mm" viewBox="0 0 6 6" xmlns="http://www.w3.org/2000/svg"><path d="M4.39733353 2.81127033c-.55373332 0-1.00266664.4452-1.00266664.99439998s.44893332.99439997 1.00266664.99439997c.55373332 0 1.00266664-.44519999 1.00266664-.99439997 0-.54919999-.44893332-.99439998-1.00266664-.99439998zm0 1.7897333c-.44306666 0-.80213331-.35613333-.80213331-.79546666 0-.43933332.35906665-.79546664.8021333-.79546664.44306666 0 .80213332.35613332.80213332.79546664 0 .43933333-.35906666.79546665-.80213331.79546665z"/><path d="M.60000029 1.19993704v3.59999991h3.26053325c-.07053333-.0376-.1364-.0824-.19706666-.13333333H.73333362V1.86660369h4.53333322v1.21239997c.05093333.05973333.09573333.12466666.13333333.19413333V1.19993704Zm4.13333323.53333332h-.39999999v-.39999999h.39999999zm.53333332 0h-.39999999v-.39999999h.39999999z"/><path d="M4.73066685 3.87220364v-.13333333H4.4640002v-.26666666h-.13333333v.26666666H4.0640002v.13333333h.26666666v.26666666h.13333333v-.26666666z"/></svg>