<svg xmlns="http://www.w3.org/2000/svg" fill="none" viewBox="0 0 40 40"><path fill="#8ea1ab" d="M10.877 4h18.245c1.451 0 2.57 0 3.466.072.905.073 1.626.222 2.269.544a5.71 5.71 0 0 1 2.514 2.475c.33.636.481 1.348.555 2.24.073.883.073 1.985.073 3.412v2.944a.5.5 0 0 1-1 0v-2.92c0-.666 0-1.25-.006-1.767H3.007C3 11.517 3 12.1 3 12.767v14.467c0 1.455 0 2.516.07 3.352.068.83.203 1.394.446 1.864a4.71 4.71 0 0 0 2.074 2.04c.48.241 1.057.374 1.902.442.85.068 1.93.068 3.408.068h5.95a.5.5 0 0 1 0 1h-5.973c-1.45 0-2.57 0-3.466-.072-.905-.072-1.626-.221-2.269-.544a5.708 5.708 0 0 1-2.514-2.475c-.33-.635-.48-1.347-.555-2.24C2 29.786 2 28.684 2 27.257V12.744c0-1.427 0-2.53.073-3.412.074-.893.226-1.605.555-2.24a5.71 5.71 0 0 1 2.514-2.475c.643-.323 1.364-.472 2.27-.544C8.306 4 9.425 4 10.876 4zm-7.844 6h33.933c-.01-.207-.021-.402-.037-.585-.069-.83-.203-1.394-.446-1.864a4.708 4.708 0 0 0-2.074-2.04c-.48-.242-1.056-.374-1.902-.442C31.657 5 30.577 5 29.1 5H10.9c-1.478 0-2.557 0-3.408.069-.845.068-1.421.2-1.901.441a4.71 4.71 0 0 0-2.074 2.041c-.244.47-.378 1.034-.447 1.864-.015.183-.027.378-.036.585zM18 25.5a9.5 9.5 0 1 1 19 0 9.5 9.5 0 0 1-19 0zM27.5 36C33.299 36 38 31.299 38 25.5S33.299 15 27.5 15 17 19.701 17 25.5 21.7 36 27.5 36zm-2.354-15.854-2 2a.5.5 0 0 0 0 .707l2 2a.5.5 0 0 0 .707-.707L24.707 23H31.5a.5.5 0 0 0 0-1h-6.793l1.147-1.147a.5.5 0 0 0-.708-.707zM30.293 28H23.5a.5.5 0 0 0 0 1h6.793l-1.147 1.146a.5.5 0 0 0 .707.707l2-2a.5.5 0 0 0 0-.707l-2-2a.5.5 0 0 0-.707.707z" clip-rule="evenodd"/></svg>