<svg width="6mm" height="6mm" viewBox="0 0 6 6" xmlns="http://www.w3.org/2000/svg"><path d="m5.3619429 1.3652573-.6891428.6891428L3.9456 1.3272002l.6891428-.68914285c-.084686-.0222857-.1717713-.0380571-.2633142-.0380571-.5681142 0-1.0285713.46045709-1.0285713 1.02857139 0 .091543.015772.1789714.038057.2633143L1.8912002 3.3812572c-.084-.022971-.1710857-.0384-.2626285-.0384-.5681143 0-1.0285714.4604571-1.0285714 1.0285714 0 .091885.015772.1789714.038058.2633143l.689142-.6891428.7271999.7271998-.6891428.6891429c.084686.022286.1717715.038057.2633143.038057.5681142 0 1.0285713-.4604572 1.0285713-1.0285713 0-.091543-.015428-.1786287-.038057-.2633143l1.4900567-1.489371c.083657.022971.1707428.0384.2622856.0384.5681143 0 1.0285714-.4604571 1.0285714-1.0285714 0-.091886-.015772-.1786285-.038057-.2633145z" style="stroke-width:.342857"/></svg>